<?xml version="1.0" standalone="no"?>
<svg width="640px" height="480px" version="1.1" xmlns="http://www.w3.org/2000/svg" xmlns:xlink="http://www.w3.org/1999/xlink">
<rect x="0" y="0" width="640" height="480"  fill="#ffffff" />
<defs>
<g id="dot">
<line x1="1" y1="1" x2="0" y2="0"  />
</g>
<g id="cross">
<line x1="-3" y1="0" x2="3" y2="0"  />
<line x1="0" y1="-3" x2="0" y2="3"  />
</g>
<g id="square">
<line x1="-3" y1="-3" x2="-3" y2="3"  />
<line x1="-3" y1="3" x2="3" y2="3"  />
<line x1="3" y1="3" x2="3" y2="-3"  />
<line x1="3" y1="-3" x2="-3" y2="-3"  />
</g>
<g id="round">
<ellipse cx="0" cy="0" rx="3" ry="3"  fill="none" /></g>
<g id="triangle">
<line x1="0" y1="-3" x2="-3" y2="3"  />
<line x1="-3" y1="3" x2="3" y2="3"  />
<line x1="0" y1="-3" x2="3" y2="3"  />
</g>
</defs>
<polygon fill="none" stroke="#000000" points="66.0317,430.476 66.0317,49.5238 573.968,49.5238 573.968,430.476 " />
<text style="font-size:12;text-align:center;text-anchor:middle;" x="320" y="473.619" fill="#000000">Entrance ray height (normalized)</text>
<line x1="66.0317" y1="339.342" x2="573.968" y2="339.342"  stroke="#000000" />
<use x="66.0317" y="339.342" xlink:href="#cross"  stroke="#000000" />
<use x="66.0317" y="49.5238" xlink:href="#cross"  stroke="#000000" />
<use x="66.0317" y="430.476" xlink:href="#cross"  stroke="#000000" />
<text style="font-size:12;text-align:center;text-anchor:middle;" x="66.0317" y="448.476" fill="#000000">-1</text>
<use x="320" y="339.342" xlink:href="#cross"  stroke="#000000" />
<use x="320" y="49.5238" xlink:href="#cross"  stroke="#000000" />
<use x="320" y="430.476" xlink:href="#cross"  stroke="#000000" />
<text style="font-size:12;text-align:center;text-anchor:middle;" x="320" y="448.476" fill="#000000">0</text>
<use x="573.968" y="339.342" xlink:href="#cross"  stroke="#000000" />
<use x="573.968" y="49.5238" xlink:href="#cross"  stroke="#000000" />
<use x="573.968" y="430.476" xlink:href="#cross"  stroke="#000000" />
<text style="font-size:12;text-align:center;text-anchor:middle;" x="573.968" y="448.476" fill="#000000">1</text>
<text style="font-size:12;text-align:center;text-anchor:middle;" x="16.5079" y="246" transform="rotate(-90,16.5079,240)" fill="#000000">Optical path difference (x10^-1 waves)</text>
<line x1="320" y1="430.476" x2="320" y2="49.5238"  stroke="#000000" />
<use x="320" y="385.832" xlink:href="#cross"  stroke="#000000" />
<use x="573.968" y="385.832" xlink:href="#cross"  stroke="#000000" />
<use x="66.0317" y="385.832" xlink:href="#cross"  stroke="#000000" />
<text style="font-size:12;text-align:right;text-anchor:end;" x="60.0317" y="391.832" fill="#000000">-2</text>
<use x="320" y="339.342" xlink:href="#cross"  stroke="#000000" />
<use x="573.968" y="339.342" xlink:href="#cross"  stroke="#000000" />
<use x="66.0317" y="339.342" xlink:href="#cross"  stroke="#000000" />
<text style="font-size:12;text-align:right;text-anchor:end;" x="60.0317" y="345.342" fill="#000000">0</text>
<use x="320" y="292.853" xlink:href="#cross"  stroke="#000000" />
<use x="573.968" y="292.853" xlink:href="#cross"  stroke="#000000" />
<use x="66.0317" y="292.853" xlink:href="#cross"  stroke="#000000" />
<text style="font-size:12;text-align:right;text-anchor:end;" x="60.0317" y="298.853" fill="#000000">2</text>
<use x="320" y="246.363" xlink:href="#cross"  stroke="#000000" />
<use x="573.968" y="246.363" xlink:href="#cross"  stroke="#000000" />
<use x="66.0317" y="246.363" xlink:href="#cross"  stroke="#000000" />
<text style="font-size:12;text-align:right;text-anchor:end;" x="60.0317" y="252.363" fill="#000000">4</text>
<use x="320" y="199.874" xlink:href="#cross"  stroke="#000000" />
<use x="573.968" y="199.874" xlink:href="#cross"  stroke="#000000" />
<use x="66.0317" y="199.874" xlink:href="#cross"  stroke="#000000" />
<text style="font-size:12;text-align:right;text-anchor:end;" x="60.0317" y="205.874" fill="#000000">6</text>
<use x="320" y="153.384" xlink:href="#cross"  stroke="#000000" />
<use x="573.968" y="153.384" xlink:href="#cross"  stroke="#000000" />
<use x="66.0317" y="153.384" xlink:href="#cross"  stroke="#000000" />
<text style="font-size:12;text-align:right;text-anchor:end;" x="60.0317" y="159.384" fill="#000000">8</text>
<use x="320" y="106.895" xlink:href="#cross"  stroke="#000000" />
<use x="573.968" y="106.895" xlink:href="#cross"  stroke="#000000" />
<use x="66.0317" y="106.895" xlink:href="#cross"  stroke="#000000" />
<text style="font-size:12;text-align:right;text-anchor:end;" x="60.0317" y="112.895" fill="#000000">10</text>
<use x="320" y="60.4051" xlink:href="#cross"  stroke="#000000" />
<use x="573.968" y="60.4051" xlink:href="#cross"  stroke="#000000" />
<use x="66.0317" y="60.4051" xlink:href="#cross"  stroke="#000000" />
<text style="font-size:12;text-align:right;text-anchor:end;" x="60.0317" y="66.4051" fill="#000000">12</text>
<text style="font-size:18;text-align:center;text-anchor:middle;" x="320" y="33.7619" fill="#000000">Optical path difference fan (tangential)</text>
<path fill="none"  stroke="#00ebff" d="M83.2,221.091 S94.4762,224.491 100.114,225.223 S111.39,225.069 117.029,225.48 S128.305,226.264 133.943,227.686 S145.219,231.212 150.857,234.012 S162.133,240.479 167.771,244.485 S179.048,253.253 184.686,258.048 S195.962,268.148 201.6,273.252 S212.876,283.694 218.514,288.672 S229.79,298.613 235.429,303.122 S246.705,311.929 252.343,315.727 S263.619,322.974 269.257,325.909 S280.533,331.347 286.171,333.335 S297.448,336.835 303.086,337.836 S314.362,339.342 320,339.342 S331.276,338.837 336.914,337.836 S348.19,335.323 353.829,333.335 S365.105,328.844 370.743,325.909 S382.019,319.524 387.657,315.727 S398.933,307.631 404.571,303.122 S415.848,293.651 421.486,288.672 S432.762,278.356 438.4,273.252 S449.676,262.842 455.314,258.048 S466.59,248.491 472.229,244.485 S483.505,236.812 489.143,234.012 S500.419,229.108 506.057,227.686 S517.333,225.89 522.971,225.48 S534.248,225.954 539.886,225.223 S553.981,221.78 556.8,221.091 " />
<path fill="none"  stroke="#ffe100" d="M83.2,49.5238 S94.4762,89.4563 100.114,105.82 S111.39,135.077 117.029,147.708 S128.305,171.092 133.943,181.607 S145.219,201.615 150.857,210.792 S162.133,228.526 167.771,236.666 S179.048,252.466 184.686,259.634 S195.962,273.501 201.6,279.673 S212.876,291.517 218.514,296.667 S229.79,306.439 235.429,310.574 S246.705,318.311 252.343,321.476 S263.619,327.297 269.257,329.567 S280.533,333.639 286.171,335.094 S297.448,337.587 303.086,338.296 S314.362,339.342 320,339.342 S331.276,339.004 336.914,338.296 S348.19,336.548 353.829,335.094 S365.105,331.836 370.743,329.567 S382.019,324.642 387.657,321.476 S398.933,314.709 404.571,310.574 S415.848,301.818 421.486,296.667 S432.762,285.845 438.4,279.673 S449.676,266.802 455.314,259.634 S466.59,244.806 472.229,236.666 S483.505,219.969 489.143,210.792 S500.419,192.121 506.057,181.607 S517.333,160.339 522.971,147.708 S534.248,122.184 539.886,105.82 S553.981,58.9066 556.8,49.5238 " />
<path fill="none"  stroke="#ff0000" d="M83.2,418.998 S94.4762,428.662 100.114,430.476 S111.39,431.069 117.029,429.886 S128.305,425.977 133.943,423.374 S145.219,417.462 150.857,414.268 S162.133,407.598 167.771,404.209 S179.048,397.339 184.686,393.932 S195.962,387.101 201.6,383.767 S212.876,377.114 218.514,373.933 S229.79,367.613 235.429,364.679 S246.705,358.899 252.343,356.33 S263.619,351.343 269.257,349.268 S280.533,345.341 286.171,343.88 S297.448,341.253 303.086,340.496 S314.362,339.342 320,339.342 S331.276,339.74 336.914,340.496 S348.19,342.418 353.829,343.88 S365.105,347.193 370.743,349.268 S382.019,353.762 387.657,356.33 S398.933,361.745 404.571,364.679 S415.848,370.752 421.486,373.933 S432.762,380.434 438.4,383.767 S449.676,390.525 455.314,393.932 S466.59,400.82 472.229,404.209 S483.505,411.074 489.143,414.268 S500.419,420.771 506.057,423.374 S517.333,428.702 522.971,429.886 S534.248,432.291 539.886,430.476 S553.981,420.911 556.8,418.998 " />
</svg>
