<?xml version="1.0" standalone="no"?>
<svg width="300px" height="300px" version="1.1" xmlns="http://www.w3.org/2000/svg" xmlns:xlink="http://www.w3.org/1999/xlink">
<rect x="0" y="0" width="300" height="300"  fill="#000000" />
<defs>
<g id="dot">
<line x1="1" y1="1" x2="0" y2="0"  />
</g>
<g id="cross">
<line x1="-3" y1="0" x2="3" y2="0"  />
<line x1="0" y1="-3" x2="0" y2="3"  />
</g>
<g id="square">
<line x1="-3" y1="-3" x2="-3" y2="3"  />
<line x1="-3" y1="3" x2="3" y2="3"  />
<line x1="3" y1="3" x2="3" y2="-3"  />
<line x1="3" y1="-3" x2="-3" y2="-3"  />
</g>
<g id="round">
<ellipse cx="0" cy="0" rx="3" ry="3"  fill="none" /></g>
<g id="triangle">
<line x1="0" y1="-3" x2="-3" y2="3"  />
<line x1="-3" y1="3" x2="3" y2="3"  />
<line x1="0" y1="-3" x2="3" y2="3"  />
</g>
</defs>
<polygon fill="none" stroke="#ffffff" points="30.9524,269.048 30.9524,30.9524 269.048,30.9524 269.048,269.048 " />
<text style="font-size:12;text-align:center;text-anchor:middle;" x="150" y="298.262" fill="#ffffff">Saggital distance (um)</text>
<use x="70.6349" y="30.9524" xlink:href="#cross"  stroke="#ffffff" />
<use x="70.6349" y="269.048" xlink:href="#cross"  stroke="#ffffff" />
<text style="font-size:12;text-align:center;text-anchor:middle;" x="70.6349" y="287.048" fill="#ffffff">-16.3</text>
<use x="150" y="30.9524" xlink:href="#cross"  stroke="#ffffff" />
<use x="150" y="269.048" xlink:href="#cross"  stroke="#ffffff" />
<text style="font-size:12;text-align:center;text-anchor:middle;" x="150" y="287.048" fill="#ffffff">0</text>
<use x="229.365" y="30.9524" xlink:href="#cross"  stroke="#ffffff" />
<use x="229.365" y="269.048" xlink:href="#cross"  stroke="#ffffff" />
<text style="font-size:12;text-align:center;text-anchor:middle;" x="229.365" y="287.048" fill="#ffffff">16.3</text>
<text style="font-size:12;text-align:center;text-anchor:middle;" x="7.7381" y="156" transform="rotate(-90,7.7381,150)" fill="#ffffff">Tangential distance (um)</text>
<use x="269.048" y="220.109" xlink:href="#cross"  stroke="#ffffff" />
<use x="30.9524" y="220.109" xlink:href="#cross"  stroke="#ffffff" />
<text style="font-size:12;text-align:right;text-anchor:end;" x="24.9524" y="226.109" fill="#ffffff">-16.3</text>
<use x="269.048" y="140.744" xlink:href="#cross"  stroke="#ffffff" />
<use x="30.9524" y="140.744" xlink:href="#cross"  stroke="#ffffff" />
<text style="font-size:12;text-align:right;text-anchor:end;" x="24.9524" y="146.744" fill="#ffffff">0</text>
<use x="269.048" y="61.3789" xlink:href="#cross"  stroke="#ffffff" />
<use x="30.9524" y="61.3789" xlink:href="#cross"  stroke="#ffffff" />
<text style="font-size:12;text-align:right;text-anchor:end;" x="24.9524" y="67.3789" fill="#ffffff">16.3</text>
<use x="194.678" y="173.054" xlink:href="#dot"  stroke="#ffe100" />
<use x="249.389" y="206.274" xlink:href="#dot"  stroke="#ff0000" />
<use x="221.428" y="223.21" xlink:href="#dot"  stroke="#00ebff" />
<use x="192.954" y="167.238" xlink:href="#dot"  stroke="#ffe100" />
<use x="244.644" y="202.703" xlink:href="#dot"  stroke="#ff0000" />
<use x="217.309" y="220.096" xlink:href="#dot"  stroke="#00ebff" />
<use x="191.059" y="161.332" xlink:href="#dot"  stroke="#ffe100" />
<use x="239.529" y="198.921" xlink:href="#dot"  stroke="#ff0000" />
<use x="213.141" y="216.65" xlink:href="#dot"  stroke="#00ebff" />
<use x="188.945" y="155.451" xlink:href="#dot"  stroke="#ffe100" />
<use x="234.012" y="195.034" xlink:href="#dot"  stroke="#ff0000" />
<use x="208.862" y="213.002" xlink:href="#dot"  stroke="#00ebff" />
<use x="186.578" y="149.703" xlink:href="#dot"  stroke="#ffe100" />
<use x="228.074" y="191.139" xlink:href="#dot"  stroke="#ff0000" />
<use x="204.426" y="209.27" xlink:href="#dot"  stroke="#00ebff" />
<use x="183.94" y="144.187" xlink:href="#dot"  stroke="#ffe100" />
<use x="221.713" y="187.325" xlink:href="#dot"  stroke="#ff0000" />
<use x="199.8" y="205.56" xlink:href="#dot"  stroke="#00ebff" />
<use x="181.024" y="138.995" xlink:href="#dot"  stroke="#ffe100" />
<use x="214.939" y="183.676" xlink:href="#dot"  stroke="#ff0000" />
<use x="194.967" y="201.971" xlink:href="#dot"  stroke="#00ebff" />
<use x="177.836" y="134.208" xlink:href="#dot"  stroke="#ffe100" />
<use x="207.772" y="180.266" xlink:href="#dot"  stroke="#ff0000" />
<use x="189.921" y="198.59" xlink:href="#dot"  stroke="#00ebff" />
<use x="174.391" y="129.902" xlink:href="#dot"  stroke="#ffe100" />
<use x="200.243" y="177.165" xlink:href="#dot"  stroke="#ff0000" />
<use x="184.666" y="195.495" xlink:href="#dot"  stroke="#00ebff" />
<use x="170.712" y="126.143" xlink:href="#dot"  stroke="#ffe100" />
<use x="192.391" y="174.434" xlink:href="#dot"  stroke="#ff0000" />
<use x="179.218" y="192.757" xlink:href="#dot"  stroke="#00ebff" />
<use x="166.828" y="122.986" xlink:href="#dot"  stroke="#ffe100" />
<use x="184.26" y="172.124" xlink:href="#dot"  stroke="#ff0000" />
<use x="173.597" y="190.434" xlink:href="#dot"  stroke="#00ebff" />
<use x="162.774" y="120.481" xlink:href="#dot"  stroke="#ffe100" />
<use x="175.9" y="170.281" xlink:href="#dot"  stroke="#ff0000" />
<use x="167.83" y="188.575" xlink:href="#dot"  stroke="#00ebff" />
<use x="158.59" y="118.664" xlink:href="#dot"  stroke="#ffe100" />
<use x="167.365" y="168.939" xlink:href="#dot"  stroke="#ff0000" />
<use x="161.951" y="187.22" xlink:href="#dot"  stroke="#00ebff" />
<use x="154.317" y="117.563" xlink:href="#dot"  stroke="#ffe100" />
<use x="158.712" y="168.123" xlink:href="#dot"  stroke="#ff0000" />
<use x="155.995" y="186.395" xlink:href="#dot"  stroke="#00ebff" />
<use x="150" y="117.195" xlink:href="#dot"  stroke="#ffe100" />
<use x="150" y="167.85" xlink:href="#dot"  stroke="#ff0000" />
<use x="150" y="186.119" xlink:href="#dot"  stroke="#00ebff" />
<use x="145.683" y="117.563" xlink:href="#dot"  stroke="#ffe100" />
<use x="141.288" y="168.123" xlink:href="#dot"  stroke="#ff0000" />
<use x="144.005" y="186.395" xlink:href="#dot"  stroke="#00ebff" />
<use x="141.41" y="118.664" xlink:href="#dot"  stroke="#ffe100" />
<use x="132.635" y="168.939" xlink:href="#dot"  stroke="#ff0000" />
<use x="138.049" y="187.22" xlink:href="#dot"  stroke="#00ebff" />
<use x="137.226" y="120.481" xlink:href="#dot"  stroke="#ffe100" />
<use x="124.1" y="170.281" xlink:href="#dot"  stroke="#ff0000" />
<use x="132.17" y="188.575" xlink:href="#dot"  stroke="#00ebff" />
<use x="133.172" y="122.986" xlink:href="#dot"  stroke="#ffe100" />
<use x="115.74" y="172.124" xlink:href="#dot"  stroke="#ff0000" />
<use x="126.403" y="190.434" xlink:href="#dot"  stroke="#00ebff" />
<use x="129.288" y="126.143" xlink:href="#dot"  stroke="#ffe100" />
<use x="107.609" y="174.434" xlink:href="#dot"  stroke="#ff0000" />
<use x="120.782" y="192.757" xlink:href="#dot"  stroke="#00ebff" />
<use x="125.609" y="129.902" xlink:href="#dot"  stroke="#ffe100" />
<use x="99.7566" y="177.165" xlink:href="#dot"  stroke="#ff0000" />
<use x="115.334" y="195.495" xlink:href="#dot"  stroke="#00ebff" />
<use x="122.164" y="134.208" xlink:href="#dot"  stroke="#ffe100" />
<use x="92.2279" y="180.266" xlink:href="#dot"  stroke="#ff0000" />
<use x="110.079" y="198.59" xlink:href="#dot"  stroke="#00ebff" />
<use x="118.976" y="138.995" xlink:href="#dot"  stroke="#ffe100" />
<use x="85.0612" y="183.676" xlink:href="#dot"  stroke="#ff0000" />
<use x="105.033" y="201.971" xlink:href="#dot"  stroke="#00ebff" />
<use x="116.06" y="144.187" xlink:href="#dot"  stroke="#ffe100" />
<use x="78.287" y="187.325" xlink:href="#dot"  stroke="#ff0000" />
<use x="100.2" y="205.56" xlink:href="#dot"  stroke="#00ebff" />
<use x="113.422" y="149.703" xlink:href="#dot"  stroke="#ffe100" />
<use x="71.9261" y="191.139" xlink:href="#dot"  stroke="#ff0000" />
<use x="95.574" y="209.27" xlink:href="#dot"  stroke="#00ebff" />
<use x="111.055" y="155.451" xlink:href="#dot"  stroke="#ffe100" />
<use x="65.9884" y="195.034" xlink:href="#dot"  stroke="#ff0000" />
<use x="91.1376" y="213.002" xlink:href="#dot"  stroke="#00ebff" />
<use x="108.941" y="161.332" xlink:href="#dot"  stroke="#ffe100" />
<use x="60.4709" y="198.921" xlink:href="#dot"  stroke="#ff0000" />
<use x="86.859" y="216.65" xlink:href="#dot"  stroke="#00ebff" />
<use x="107.046" y="167.238" xlink:href="#dot"  stroke="#ffe100" />
<use x="55.3562" y="202.703" xlink:href="#dot"  stroke="#ff0000" />
<use x="82.6915" y="220.096" xlink:href="#dot"  stroke="#00ebff" />
<use x="105.322" y="173.054" xlink:href="#dot"  stroke="#ffe100" />
<use x="50.6114" y="206.274" xlink:href="#dot"  stroke="#ff0000" />
<use x="78.572" y="223.21" xlink:href="#dot"  stroke="#00ebff" />
<use x="174.569" y="156.799" xlink:href="#dot"  stroke="#ffe100" />
<use x="226.096" y="188.473" xlink:href="#dot"  stroke="#ff0000" />
<use x="198.156" y="204.289" xlink:href="#dot"  stroke="#00ebff" />
<use x="173.502" y="150.014" xlink:href="#dot"  stroke="#ffe100" />
<use x="221.895" y="183.911" xlink:href="#dot"  stroke="#ff0000" />
<use x="194.859" y="200.085" xlink:href="#dot"  stroke="#00ebff" />
<use x="172.353" y="143.23" xlink:href="#dot"  stroke="#ffe100" />
<use x="217.412" y="179.219" xlink:href="#dot"  stroke="#ff0000" />
<use x="191.591" y="195.638" xlink:href="#dot"  stroke="#00ebff" />
<use x="171.08" y="136.577" xlink:href="#dot"  stroke="#ffe100" />
<use x="212.622" y="174.512" xlink:href="#dot"  stroke="#ff0000" />
<use x="188.297" y="191.089" xlink:href="#dot"  stroke="#00ebff" />
<use x="169.653" y="130.174" xlink:href="#dot"  stroke="#ffe100" />
<use x="207.512" y="169.901" xlink:href="#dot"  stroke="#ff0000" />
<use x="184.934" y="186.569" xlink:href="#dot"  stroke="#00ebff" />
<use x="168.054" y="124.131" xlink:href="#dot"  stroke="#ffe100" />
<use x="202.081" y="165.487" xlink:href="#dot"  stroke="#ff0000" />
<use x="181.473" y="182.196" xlink:href="#dot"  stroke="#00ebff" />
<use x="166.278" y="118.55" xlink:href="#dot"  stroke="#ffe100" />
<use x="196.34" y="161.361" xlink:href="#dot"  stroke="#ff0000" />
<use x="177.897" y="178.076" xlink:href="#dot"  stroke="#00ebff" />
<use x="164.328" y="113.522" xlink:href="#dot"  stroke="#ffe100" />
<use x="190.309" y="157.607" xlink:href="#dot"  stroke="#ff0000" />
<use x="174.199" y="174.306" xlink:href="#dot"  stroke="#00ebff" />
<use x="162.216" y="109.125" xlink:href="#dot"  stroke="#ffe100" />
<use x="184.017" y="154.299" xlink:href="#dot"  stroke="#ff0000" />
<use x="170.381" y="170.969" xlink:href="#dot"  stroke="#00ebff" />
<use x="159.959" y="105.43" xlink:href="#dot"  stroke="#ffe100" />
<use x="177.498" y="151.501" xlink:href="#dot"  stroke="#ff0000" />
<use x="166.452" y="168.137" xlink:href="#dot"  stroke="#00ebff" />
<use x="157.58" y="102.495" xlink:href="#dot"  stroke="#ffe100" />
<use x="170.792" y="149.268" xlink:href="#dot"  stroke="#ff0000" />
<use x="162.428" y="165.872" xlink:href="#dot"  stroke="#00ebff" />
<use x="155.107" y="100.366" xlink:href="#dot"  stroke="#ffe100" />
<use x="163.942" y="147.642" xlink:href="#dot"  stroke="#ff0000" />
<use x="158.329" y="164.22" xlink:href="#dot"  stroke="#00ebff" />
<use x="152.57" y="99.0746" xlink:href="#dot"  stroke="#ffe100" />
<use x="156.996" y="146.654" xlink:href="#dot"  stroke="#ff0000" />
<use x="154.178" y="163.215" xlink:href="#dot"  stroke="#00ebff" />
<use x="150" y="98.642" xlink:href="#dot"  stroke="#ffe100" />
<use x="150" y="146.323" xlink:href="#dot"  stroke="#ff0000" />
<use x="150" y="162.877" xlink:href="#dot"  stroke="#00ebff" />
<use x="147.43" y="99.0746" xlink:href="#dot"  stroke="#ffe100" />
<use x="143.004" y="146.654" xlink:href="#dot"  stroke="#ff0000" />
<use x="145.822" y="163.215" xlink:href="#dot"  stroke="#00ebff" />
<use x="144.893" y="100.366" xlink:href="#dot"  stroke="#ffe100" />
<use x="136.058" y="147.642" xlink:href="#dot"  stroke="#ff0000" />
<use x="141.671" y="164.22" xlink:href="#dot"  stroke="#00ebff" />
<use x="142.42" y="102.495" xlink:href="#dot"  stroke="#ffe100" />
<use x="129.208" y="149.268" xlink:href="#dot"  stroke="#ff0000" />
<use x="137.572" y="165.872" xlink:href="#dot"  stroke="#00ebff" />
<use x="140.041" y="105.43" xlink:href="#dot"  stroke="#ffe100" />
<use x="122.502" y="151.501" xlink:href="#dot"  stroke="#ff0000" />
<use x="133.548" y="168.137" xlink:href="#dot"  stroke="#00ebff" />
<use x="137.784" y="109.125" xlink:href="#dot"  stroke="#ffe100" />
<use x="115.983" y="154.299" xlink:href="#dot"  stroke="#ff0000" />
<use x="129.619" y="170.969" xlink:href="#dot"  stroke="#00ebff" />
<use x="135.672" y="113.522" xlink:href="#dot"  stroke="#ffe100" />
<use x="109.691" y="157.607" xlink:href="#dot"  stroke="#ff0000" />
<use x="125.801" y="174.306" xlink:href="#dot"  stroke="#00ebff" />
<use x="133.722" y="118.55" xlink:href="#dot"  stroke="#ffe100" />
<use x="103.66" y="161.361" xlink:href="#dot"  stroke="#ff0000" />
<use x="122.103" y="178.076" xlink:href="#dot"  stroke="#00ebff" />
<use x="131.946" y="124.131" xlink:href="#dot"  stroke="#ffe100" />
<use x="97.9193" y="165.487" xlink:href="#dot"  stroke="#ff0000" />
<use x="118.527" y="182.196" xlink:href="#dot"  stroke="#00ebff" />
<use x="130.347" y="130.174" xlink:href="#dot"  stroke="#ffe100" />
<use x="92.4881" y="169.901" xlink:href="#dot"  stroke="#ff0000" />
<use x="115.066" y="186.569" xlink:href="#dot"  stroke="#00ebff" />
<use x="128.92" y="136.577" xlink:href="#dot"  stroke="#ffe100" />
<use x="87.3775" y="174.512" xlink:href="#dot"  stroke="#ff0000" />
<use x="111.703" y="191.089" xlink:href="#dot"  stroke="#00ebff" />
<use x="127.647" y="143.23" xlink:href="#dot"  stroke="#ffe100" />
<use x="82.5875" y="179.219" xlink:href="#dot"  stroke="#ff0000" />
<use x="108.409" y="195.638" xlink:href="#dot"  stroke="#00ebff" />
<use x="126.498" y="150.014" xlink:href="#dot"  stroke="#ffe100" />
<use x="78.1053" y="183.911" xlink:href="#dot"  stroke="#ff0000" />
<use x="105.141" y="200.085" xlink:href="#dot"  stroke="#00ebff" />
<use x="125.431" y="156.799" xlink:href="#dot"  stroke="#ffe100" />
<use x="73.904" y="188.473" xlink:href="#dot"  stroke="#ff0000" />
<use x="101.844" y="204.289" xlink:href="#dot"  stroke="#00ebff" />
<use x="158.465" y="151.495" xlink:href="#dot"  stroke="#ffe100" />
<use x="209.761" y="179.29" xlink:href="#dot"  stroke="#ff0000" />
<use x="181.237" y="193.559" xlink:href="#dot"  stroke="#00ebff" />
<use x="158.036" y="144.013" xlink:href="#dot"  stroke="#ffe100" />
<use x="206.302" y="174.135" xlink:href="#dot"  stroke="#ff0000" />
<use x="178.624" y="188.792" xlink:href="#dot"  stroke="#00ebff" />
<use x="157.667" y="136.48" xlink:href="#dot"  stroke="#ffe100" />
<use x="202.683" y="168.797" xlink:href="#dot"  stroke="#ff0000" />
<use x="176.183" y="183.714" xlink:href="#dot"  stroke="#00ebff" />
<use x="157.305" y="129.051" xlink:href="#dot"  stroke="#ffe100" />
<use x="198.869" y="163.417" xlink:href="#dot"  stroke="#ff0000" />
<use x="173.85" y="178.493" xlink:href="#dot"  stroke="#00ebff" />
<use x="156.907" y="121.87" xlink:href="#dot"  stroke="#ffe100" />
<use x="194.837" y="158.125" xlink:href="#dot"  stroke="#ff0000" />
<use x="171.572" y="173.282" xlink:href="#dot"  stroke="#00ebff" />
<use x="156.448" y="115.067" xlink:href="#dot"  stroke="#ffe100" />
<use x="190.578" y="153.043" xlink:href="#dot"  stroke="#ff0000" />
<use x="169.307" y="168.223" xlink:href="#dot"  stroke="#00ebff" />
<use x="155.908" y="108.765" xlink:href="#dot"  stroke="#ffe100" />
<use x="186.092" y="148.28" xlink:href="#dot"  stroke="#ff0000" />
<use x="167.029" y="163.446" xlink:href="#dot"  stroke="#00ebff" />
<use x="155.279" y="103.072" xlink:href="#dot"  stroke="#ffe100" />
<use x="181.389" y="143.938" xlink:href="#dot"  stroke="#ff0000" />
<use x="164.717" y="159.064" xlink:href="#dot"  stroke="#00ebff" />
<use x="154.562" y="98.0842" xlink:href="#dot"  stroke="#ffe100" />
<use x="176.488" y="140.105" xlink:href="#dot"  stroke="#ff0000" />
<use x="162.361" y="155.179" xlink:href="#dot"  stroke="#00ebff" />
<use x="153.761" y="93.8858" xlink:href="#dot"  stroke="#ffe100" />
<use x="171.412" y="136.86" xlink:href="#dot"  stroke="#ff0000" />
<use x="159.959" y="151.879" xlink:href="#dot"  stroke="#00ebff" />
<use x="152.889" y="90.5464" xlink:href="#dot"  stroke="#ffe100" />
<use x="166.19" y="134.267" xlink:href="#dot"  stroke="#ff0000" />
<use x="157.513" y="149.235" xlink:href="#dot"  stroke="#00ebff" />
<use x="151.959" y="88.1211" xlink:href="#dot"  stroke="#ffe100" />
<use x="160.857" y="132.377" xlink:href="#dot"  stroke="#ff0000" />
<use x="155.031" y="147.306" xlink:href="#dot"  stroke="#00ebff" />
<use x="150.99" y="86.6498" xlink:href="#dot"  stroke="#ffe100" />
<use x="155.448" y="131.229" xlink:href="#dot"  stroke="#ff0000" />
<use x="152.522" y="146.131" xlink:href="#dot"  stroke="#00ebff" />
<use x="150" y="86.1567" xlink:href="#dot"  stroke="#ffe100" />
<use x="150" y="130.843" xlink:href="#dot"  stroke="#ff0000" />
<use x="150" y="145.737" xlink:href="#dot"  stroke="#00ebff" />
<use x="149.01" y="86.6498" xlink:href="#dot"  stroke="#ffe100" />
<use x="144.552" y="131.229" xlink:href="#dot"  stroke="#ff0000" />
<use x="147.478" y="146.131" xlink:href="#dot"  stroke="#00ebff" />
<use x="148.041" y="88.1211" xlink:href="#dot"  stroke="#ffe100" />
<use x="139.143" y="132.377" xlink:href="#dot"  stroke="#ff0000" />
<use x="144.969" y="147.306" xlink:href="#dot"  stroke="#00ebff" />
<use x="147.111" y="90.5464" xlink:href="#dot"  stroke="#ffe100" />
<use x="133.81" y="134.267" xlink:href="#dot"  stroke="#ff0000" />
<use x="142.487" y="149.235" xlink:href="#dot"  stroke="#00ebff" />
<use x="146.239" y="93.8858" xlink:href="#dot"  stroke="#ffe100" />
<use x="128.588" y="136.86" xlink:href="#dot"  stroke="#ff0000" />
<use x="140.041" y="151.879" xlink:href="#dot"  stroke="#00ebff" />
<use x="145.438" y="98.0842" xlink:href="#dot"  stroke="#ffe100" />
<use x="123.512" y="140.105" xlink:href="#dot"  stroke="#ff0000" />
<use x="137.639" y="155.179" xlink:href="#dot"  stroke="#00ebff" />
<use x="144.721" y="103.072" xlink:href="#dot"  stroke="#ffe100" />
<use x="118.611" y="143.938" xlink:href="#dot"  stroke="#ff0000" />
<use x="135.283" y="159.064" xlink:href="#dot"  stroke="#00ebff" />
<use x="144.092" y="108.765" xlink:href="#dot"  stroke="#ffe100" />
<use x="113.908" y="148.28" xlink:href="#dot"  stroke="#ff0000" />
<use x="132.971" y="163.446" xlink:href="#dot"  stroke="#00ebff" />
<use x="143.552" y="115.067" xlink:href="#dot"  stroke="#ffe100" />
<use x="109.422" y="153.043" xlink:href="#dot"  stroke="#ff0000" />
<use x="130.693" y="168.223" xlink:href="#dot"  stroke="#00ebff" />
<use x="143.093" y="121.87" xlink:href="#dot"  stroke="#ffe100" />
<use x="105.163" y="158.125" xlink:href="#dot"  stroke="#ff0000" />
<use x="128.428" y="173.282" xlink:href="#dot"  stroke="#00ebff" />
<use x="142.695" y="129.051" xlink:href="#dot"  stroke="#ffe100" />
<use x="101.131" y="163.417" xlink:href="#dot"  stroke="#ff0000" />
<use x="126.15" y="178.493" xlink:href="#dot"  stroke="#00ebff" />
<use x="142.333" y="136.48" xlink:href="#dot"  stroke="#ffe100" />
<use x="97.3173" y="168.797" xlink:href="#dot"  stroke="#ff0000" />
<use x="123.817" y="183.714" xlink:href="#dot"  stroke="#00ebff" />
<use x="141.964" y="144.013" xlink:href="#dot"  stroke="#ffe100" />
<use x="93.6985" y="174.135" xlink:href="#dot"  stroke="#ff0000" />
<use x="121.376" y="188.792" xlink:href="#dot"  stroke="#00ebff" />
<use x="141.535" y="151.495" xlink:href="#dot"  stroke="#ffe100" />
<use x="90.2388" y="179.29" xlink:href="#dot"  stroke="#ff0000" />
<use x="118.763" y="193.559" xlink:href="#dot"  stroke="#00ebff" />
<use x="144.721" y="142.641" xlink:href="#dot"  stroke="#ffe100" />
<use x="192.78" y="168.882" xlink:href="#dot"  stroke="#ff0000" />
<use x="164.526" y="182.113" xlink:href="#dot"  stroke="#00ebff" />
<use x="144.936" y="134.529" xlink:href="#dot"  stroke="#ffe100" />
<use x="189.847" y="163.075" xlink:href="#dot"  stroke="#ff0000" />
<use x="162.716" y="176.592" xlink:href="#dot"  stroke="#00ebff" />
<use x="145.291" y="126.467" xlink:href="#dot"  stroke="#ffe100" />
<use x="186.833" y="157.17" xlink:href="#dot"  stroke="#ff0000" />
<use x="161.151" y="170.856" xlink:href="#dot"  stroke="#00ebff" />
<use x="145.735" y="118.624" xlink:href="#dot"  stroke="#ffe100" />
<use x="183.704" y="151.323" xlink:href="#dot"  stroke="#ff0000" />
<use x="159.767" y="165.085" xlink:href="#dot"  stroke="#00ebff" />
<use x="146.228" y="111.157" xlink:href="#dot"  stroke="#ffe100" />
<use x="180.442" y="145.675" xlink:href="#dot"  stroke="#ff0000" />
<use x="158.515" y="159.449" xlink:href="#dot"  stroke="#00ebff" />
<use x="146.742" y="104.21" xlink:href="#dot"  stroke="#ffe100" />
<use x="177.038" y="140.36" xlink:href="#dot"  stroke="#ff0000" />
<use x="157.352" y="154.1" xlink:href="#dot"  stroke="#00ebff" />
<use x="147.257" y="97.9123" xlink:href="#dot"  stroke="#ffe100" />
<use x="173.49" y="135.497" xlink:href="#dot"  stroke="#ff0000" />
<use x="156.248" y="149.175" xlink:href="#dot"  stroke="#00ebff" />
<use x="147.758" y="92.3797" xlink:href="#dot"  stroke="#ffe100" />
<use x="169.807" y="131.192" xlink:href="#dot"  stroke="#ff0000" />
<use x="155.181" y="144.796" xlink:href="#dot"  stroke="#00ebff" />
<use x="148.241" y="87.7121" xlink:href="#dot"  stroke="#ffe100" />
<use x="166.003" y="127.54" xlink:href="#dot"  stroke="#ff0000" />
<use x="154.134" y="141.066" xlink:href="#dot"  stroke="#00ebff" />
<use x="148.703" y="83.9931" xlink:href="#dot"  stroke="#ffe100" />
<use x="162.097" y="124.616" xlink:href="#dot"  stroke="#ff0000" />
<use x="153.097" y="138.073" xlink:href="#dot"  stroke="#00ebff" />
<use x="149.147" y="81.2886" xlink:href="#dot"  stroke="#ffe100" />
<use x="158.11" y="122.482" xlink:href="#dot"  stroke="#ff0000" />
<use x="152.064" y="135.886" xlink:href="#dot"  stroke="#00ebff" />
<use x="149.577" y="79.6466" xlink:href="#dot"  stroke="#ffe100" />
<use x="154.069" y="121.184" xlink:href="#dot"  stroke="#ff0000" />
<use x="151.032" y="134.554" xlink:href="#dot"  stroke="#00ebff" />
<use x="150" y="79.096" xlink:href="#dot"  stroke="#ffe100" />
<use x="150" y="120.749" xlink:href="#dot"  stroke="#ff0000" />
<use x="150" y="134.106" xlink:href="#dot"  stroke="#00ebff" />
<use x="150.423" y="79.6466" xlink:href="#dot"  stroke="#ffe100" />
<use x="145.931" y="121.184" xlink:href="#dot"  stroke="#ff0000" />
<use x="148.968" y="134.554" xlink:href="#dot"  stroke="#00ebff" />
<use x="150.853" y="81.2886" xlink:href="#dot"  stroke="#ffe100" />
<use x="141.89" y="122.482" xlink:href="#dot"  stroke="#ff0000" />
<use x="147.936" y="135.886" xlink:href="#dot"  stroke="#00ebff" />
<use x="151.297" y="83.9931" xlink:href="#dot"  stroke="#ffe100" />
<use x="137.903" y="124.616" xlink:href="#dot"  stroke="#ff0000" />
<use x="146.903" y="138.073" xlink:href="#dot"  stroke="#00ebff" />
<use x="151.759" y="87.7121" xlink:href="#dot"  stroke="#ffe100" />
<use x="133.997" y="127.54" xlink:href="#dot"  stroke="#ff0000" />
<use x="145.866" y="141.066" xlink:href="#dot"  stroke="#00ebff" />
<use x="152.242" y="92.3797" xlink:href="#dot"  stroke="#ffe100" />
<use x="130.193" y="131.192" xlink:href="#dot"  stroke="#ff0000" />
<use x="144.819" y="144.796" xlink:href="#dot"  stroke="#00ebff" />
<use x="152.743" y="97.9123" xlink:href="#dot"  stroke="#ffe100" />
<use x="126.51" y="135.497" xlink:href="#dot"  stroke="#ff0000" />
<use x="143.752" y="149.175" xlink:href="#dot"  stroke="#00ebff" />
<use x="153.258" y="104.21" xlink:href="#dot"  stroke="#ffe100" />
<use x="122.962" y="140.36" xlink:href="#dot"  stroke="#ff0000" />
<use x="142.648" y="154.1" xlink:href="#dot"  stroke="#00ebff" />
<use x="153.772" y="111.157" xlink:href="#dot"  stroke="#ffe100" />
<use x="119.558" y="145.675" xlink:href="#dot"  stroke="#ff0000" />
<use x="141.485" y="159.449" xlink:href="#dot"  stroke="#00ebff" />
<use x="154.265" y="118.624" xlink:href="#dot"  stroke="#ffe100" />
<use x="116.296" y="151.323" xlink:href="#dot"  stroke="#ff0000" />
<use x="140.233" y="165.085" xlink:href="#dot"  stroke="#00ebff" />
<use x="154.709" y="126.467" xlink:href="#dot"  stroke="#ffe100" />
<use x="113.167" y="157.17" xlink:href="#dot"  stroke="#ff0000" />
<use x="138.849" y="170.856" xlink:href="#dot"  stroke="#00ebff" />
<use x="155.064" y="134.529" xlink:href="#dot"  stroke="#ffe100" />
<use x="110.153" y="163.075" xlink:href="#dot"  stroke="#ff0000" />
<use x="137.284" y="176.592" xlink:href="#dot"  stroke="#00ebff" />
<use x="155.279" y="142.641" xlink:href="#dot"  stroke="#ffe100" />
<use x="107.22" y="168.882" xlink:href="#dot"  stroke="#ff0000" />
<use x="135.474" y="182.113" xlink:href="#dot"  stroke="#00ebff" />
<use x="134.178" y="136.664" xlink:href="#dot"  stroke="#ffe100" />
<use x="178.9" y="161.319" xlink:href="#dot"  stroke="#ff0000" />
<use x="151.236" y="173.571" xlink:href="#dot"  stroke="#00ebff" />
<use x="135.051" y="128.127" xlink:href="#dot"  stroke="#ffe100" />
<use x="176.505" y="155.056" xlink:href="#dot"  stroke="#ff0000" />
<use x="150.236" y="167.498" xlink:href="#dot"  stroke="#00ebff" />
<use x="136.141" y="119.752" xlink:href="#dot"  stroke="#ffe100" />
<use x="174.102" y="148.789" xlink:href="#dot"  stroke="#ff0000" />
<use x="149.55" y="161.315" xlink:href="#dot"  stroke="#00ebff" />
<use x="137.398" y="111.725" xlink:href="#dot"  stroke="#ffe100" />
<use x="171.661" y="142.689" xlink:href="#dot"  stroke="#ff0000" />
<use x="149.116" y="155.22" xlink:href="#dot"  stroke="#00ebff" />
<use x="138.78" y="104.214" xlink:href="#dot"  stroke="#ffe100" />
<use x="169.164" y="136.911" xlink:href="#dot"  stroke="#ff0000" />
<use x="148.882" y="149.395" xlink:href="#dot"  stroke="#00ebff" />
<use x="140.256" y="97.3745" xlink:href="#dot"  stroke="#ffe100" />
<use x="166.599" y="131.598" xlink:href="#dot"  stroke="#ff0000" />
<use x="148.804" y="144" xlink:href="#dot"  stroke="#00ebff" />
<use x="141.801" y="91.3441" xlink:href="#dot"  stroke="#ffe100" />
<use x="163.964" y="126.876" xlink:href="#dot"  stroke="#ff0000" />
<use x="148.847" y="139.183" xlink:href="#dot"  stroke="#00ebff" />
<use x="143.393" y="86.2416" xlink:href="#dot"  stroke="#ffe100" />
<use x="161.263" y="122.857" xlink:href="#dot"  stroke="#ff0000" />
<use x="148.981" y="135.066" xlink:href="#dot"  stroke="#00ebff" />
<use x="145.02" y="82.167" xlink:href="#dot"  stroke="#ffe100" />
<use x="158.503" y="119.631" xlink:href="#dot"  stroke="#ff0000" />
<use x="149.182" y="131.753" xlink:href="#dot"  stroke="#00ebff" />
<use x="146.668" y="79.1991" xlink:href="#dot"  stroke="#ffe100" />
<use x="155.696" y="117.274" xlink:href="#dot"  stroke="#ff0000" />
<use x="149.43" y="129.328" xlink:href="#dot"  stroke="#00ebff" />
<use x="148.331" y="77.3951" xlink:href="#dot"  stroke="#ffe100" />
<use x="152.856" y="115.838" xlink:href="#dot"  stroke="#ff0000" />
<use x="149.708" y="127.849" xlink:href="#dot"  stroke="#00ebff" />
<use x="150" y="76.79" xlink:href="#dot"  stroke="#ffe100" />
<use x="150" y="115.356" xlink:href="#dot"  stroke="#ff0000" />
<use x="150" y="127.352" xlink:href="#dot"  stroke="#00ebff" />
<use x="151.669" y="77.3951" xlink:href="#dot"  stroke="#ffe100" />
<use x="147.144" y="115.838" xlink:href="#dot"  stroke="#ff0000" />
<use x="150.292" y="127.849" xlink:href="#dot"  stroke="#00ebff" />
<use x="153.332" y="79.1991" xlink:href="#dot"  stroke="#ffe100" />
<use x="144.304" y="117.274" xlink:href="#dot"  stroke="#ff0000" />
<use x="150.57" y="129.328" xlink:href="#dot"  stroke="#00ebff" />
<use x="154.98" y="82.167" xlink:href="#dot"  stroke="#ffe100" />
<use x="141.497" y="119.631" xlink:href="#dot"  stroke="#ff0000" />
<use x="150.818" y="131.753" xlink:href="#dot"  stroke="#00ebff" />
<use x="156.607" y="86.2416" xlink:href="#dot"  stroke="#ffe100" />
<use x="138.737" y="122.857" xlink:href="#dot"  stroke="#ff0000" />
<use x="151.019" y="135.066" xlink:href="#dot"  stroke="#00ebff" />
<use x="158.199" y="91.3441" xlink:href="#dot"  stroke="#ffe100" />
<use x="136.036" y="126.876" xlink:href="#dot"  stroke="#ff0000" />
<use x="151.153" y="139.183" xlink:href="#dot"  stroke="#00ebff" />
<use x="159.744" y="97.3745" xlink:href="#dot"  stroke="#ffe100" />
<use x="133.401" y="131.598" xlink:href="#dot"  stroke="#ff0000" />
<use x="151.196" y="144" xlink:href="#dot"  stroke="#00ebff" />
<use x="161.22" y="104.214" xlink:href="#dot"  stroke="#ffe100" />
<use x="130.836" y="136.911" xlink:href="#dot"  stroke="#ff0000" />
<use x="151.118" y="149.395" xlink:href="#dot"  stroke="#00ebff" />
<use x="162.602" y="111.725" xlink:href="#dot"  stroke="#ffe100" />
<use x="128.339" y="142.689" xlink:href="#dot"  stroke="#ff0000" />
<use x="150.884" y="155.22" xlink:href="#dot"  stroke="#00ebff" />
<use x="163.859" y="119.752" xlink:href="#dot"  stroke="#ffe100" />
<use x="125.898" y="148.789" xlink:href="#dot"  stroke="#ff0000" />
<use x="150.45" y="161.315" xlink:href="#dot"  stroke="#00ebff" />
<use x="164.949" y="128.127" xlink:href="#dot"  stroke="#ffe100" />
<use x="123.495" y="155.056" xlink:href="#dot"  stroke="#ff0000" />
<use x="149.764" y="167.498" xlink:href="#dot"  stroke="#00ebff" />
<use x="165.822" y="136.664" xlink:href="#dot"  stroke="#ffe100" />
<use x="121.1" y="161.319" xlink:href="#dot"  stroke="#ff0000" />
<use x="148.764" y="173.571" xlink:href="#dot"  stroke="#00ebff" />
<use x="126.58" y="133.313" xlink:href="#dot"  stroke="#ffe100" />
<use x="167.856" y="156.339" xlink:href="#dot"  stroke="#ff0000" />
<use x="141.122" y="167.702" xlink:href="#dot"  stroke="#00ebff" />
<use x="128.116" y="124.552" xlink:href="#dot"  stroke="#ffe100" />
<use x="166.001" y="149.808" xlink:href="#dot"  stroke="#ff0000" />
<use x="140.929" y="161.275" xlink:href="#dot"  stroke="#00ebff" />
<use x="129.942" y="116.079" xlink:href="#dot"  stroke="#ffe100" />
<use x="164.206" y="143.379" xlink:href="#dot"  stroke="#ff0000" />
<use x="141.116" y="154.857" xlink:href="#dot"  stroke="#00ebff" />
<use x="132.006" y="108.095" xlink:href="#dot"  stroke="#ffe100" />
<use x="162.443" y="137.238" xlink:href="#dot"  stroke="#ff0000" />
<use x="141.619" y="148.66" xlink:href="#dot"  stroke="#00ebff" />
<use x="134.262" y="100.781" xlink:href="#dot"  stroke="#ffe100" />
<use x="160.69" y="131.552" xlink:href="#dot"  stroke="#ff0000" />
<use x="142.381" y="142.879" xlink:href="#dot"  stroke="#00ebff" />
<use x="136.671" y="94.3025" xlink:href="#dot"  stroke="#ffe100" />
<use x="158.935" y="126.471" xlink:href="#dot"  stroke="#ff0000" />
<use x="143.354" y="137.683" xlink:href="#dot"  stroke="#00ebff" />
<use x="139.202" y="88.8003" xlink:href="#dot"  stroke="#ffe100" />
<use x="157.171" y="122.127" xlink:href="#dot"  stroke="#ff0000" />
<use x="144.494" y="133.223" xlink:href="#dot"  stroke="#00ebff" />
<use x="141.825" y="84.3938" xlink:href="#dot"  stroke="#ffe100" />
<use x="155.393" y="118.63" xlink:href="#dot"  stroke="#ff0000" />
<use x="145.763" y="129.622" xlink:href="#dot"  stroke="#00ebff" />
<use x="144.514" y="81.1774" xlink:href="#dot"  stroke="#ffe100" />
<use x="153.604" y="116.068" xlink:href="#dot"  stroke="#ff0000" />
<use x="147.124" y="126.978" xlink:href="#dot"  stroke="#00ebff" />
<use x="147.246" y="79.2199" xlink:href="#dot"  stroke="#ffe100" />
<use x="151.804" y="114.505" xlink:href="#dot"  stroke="#ff0000" />
<use x="148.547" y="125.364" xlink:href="#dot"  stroke="#00ebff" />
<use x="150" y="78.5627" xlink:href="#dot"  stroke="#ffe100" />
<use x="150" y="113.98" xlink:href="#dot"  stroke="#ff0000" />
<use x="150" y="124.821" xlink:href="#dot"  stroke="#00ebff" />
<use x="152.754" y="79.2199" xlink:href="#dot"  stroke="#ffe100" />
<use x="148.196" y="114.505" xlink:href="#dot"  stroke="#ff0000" />
<use x="151.453" y="125.364" xlink:href="#dot"  stroke="#00ebff" />
<use x="155.486" y="81.1774" xlink:href="#dot"  stroke="#ffe100" />
<use x="146.396" y="116.068" xlink:href="#dot"  stroke="#ff0000" />
<use x="152.876" y="126.978" xlink:href="#dot"  stroke="#00ebff" />
<use x="158.175" y="84.3938" xlink:href="#dot"  stroke="#ffe100" />
<use x="144.607" y="118.63" xlink:href="#dot"  stroke="#ff0000" />
<use x="154.237" y="129.622" xlink:href="#dot"  stroke="#00ebff" />
<use x="160.798" y="88.8003" xlink:href="#dot"  stroke="#ffe100" />
<use x="142.829" y="122.127" xlink:href="#dot"  stroke="#ff0000" />
<use x="155.506" y="133.223" xlink:href="#dot"  stroke="#00ebff" />
<use x="163.329" y="94.3025" xlink:href="#dot"  stroke="#ffe100" />
<use x="141.065" y="126.471" xlink:href="#dot"  stroke="#ff0000" />
<use x="156.646" y="137.683" xlink:href="#dot"  stroke="#00ebff" />
<use x="165.738" y="100.781" xlink:href="#dot"  stroke="#ffe100" />
<use x="139.31" y="131.552" xlink:href="#dot"  stroke="#ff0000" />
<use x="157.619" y="142.879" xlink:href="#dot"  stroke="#00ebff" />
<use x="167.994" y="108.095" xlink:href="#dot"  stroke="#ffe100" />
<use x="137.557" y="137.238" xlink:href="#dot"  stroke="#ff0000" />
<use x="158.381" y="148.66" xlink:href="#dot"  stroke="#00ebff" />
<use x="170.058" y="116.079" xlink:href="#dot"  stroke="#ffe100" />
<use x="135.794" y="143.379" xlink:href="#dot"  stroke="#ff0000" />
<use x="158.884" y="154.857" xlink:href="#dot"  stroke="#00ebff" />
<use x="171.884" y="124.552" xlink:href="#dot"  stroke="#ffe100" />
<use x="133.999" y="149.808" xlink:href="#dot"  stroke="#ff0000" />
<use x="159.071" y="161.275" xlink:href="#dot"  stroke="#00ebff" />
<use x="173.42" y="133.313" xlink:href="#dot"  stroke="#ffe100" />
<use x="132.144" y="156.339" xlink:href="#dot"  stroke="#ff0000" />
<use x="158.878" y="167.702" xlink:href="#dot"  stroke="#00ebff" />
<use x="121.641" y="132.318" xlink:href="#dot"  stroke="#ffe100" />
<use x="159.36" y="153.66" xlink:href="#dot"  stroke="#ff0000" />
<use x="133.901" y="164.248" xlink:href="#dot"  stroke="#00ebff" />
<use x="123.839" y="123.533" xlink:href="#dot"  stroke="#ffe100" />
<use x="158.037" y="147.046" xlink:href="#dot"  stroke="#ff0000" />
<use x="134.505" y="157.664" xlink:href="#dot"  stroke="#00ebff" />
<use x="126.394" y="115.176" xlink:href="#dot"  stroke="#ffe100" />
<use x="156.837" y="140.653" xlink:href="#dot"  stroke="#ff0000" />
<use x="135.549" y="151.219" xlink:href="#dot"  stroke="#00ebff" />
<use x="129.247" y="107.463" xlink:href="#dot"  stroke="#ffe100" />
<use x="155.73" y="134.678" xlink:href="#dot"  stroke="#ff0000" />
<use x="136.964" y="145.142" xlink:href="#dot"  stroke="#00ebff" />
<use x="132.347" y="100.589" xlink:href="#dot"  stroke="#ffe100" />
<use x="154.691" y="129.301" xlink:href="#dot"  stroke="#ff0000" />
<use x="138.686" y="139.638" xlink:href="#dot"  stroke="#00ebff" />
<use x="135.647" y="94.7238" xlink:href="#dot"  stroke="#ffe100" />
<use x="153.702" y="124.678" xlink:href="#dot"  stroke="#ff0000" />
<use x="140.659" y="134.882" xlink:href="#dot"  stroke="#00ebff" />
<use x="139.102" y="90.0092" xlink:href="#dot"  stroke="#ffe100" />
<use x="152.749" y="120.941" xlink:href="#dot"  stroke="#ff0000" />
<use x="142.827" y="131.025" xlink:href="#dot"  stroke="#00ebff" />
<use x="142.672" y="86.559" xlink:href="#dot"  stroke="#ffe100" />
<use x="151.82" y="118.194" xlink:href="#dot"  stroke="#ff0000" />
<use x="145.139" y="128.184" xlink:href="#dot"  stroke="#00ebff" />
<use x="146.317" y="84.4554" xlink:href="#dot"  stroke="#ffe100" />
<use x="150.907" y="116.515" xlink:href="#dot"  stroke="#ff0000" />
<use x="147.546" y="126.445" xlink:href="#dot"  stroke="#00ebff" />
<use x="150" y="83.7486" xlink:href="#dot"  stroke="#ffe100" />
<use x="150" y="115.95" xlink:href="#dot"  stroke="#ff0000" />
<use x="150" y="125.86" xlink:href="#dot"  stroke="#00ebff" />
<use x="153.683" y="84.4554" xlink:href="#dot"  stroke="#ffe100" />
<use x="149.093" y="116.515" xlink:href="#dot"  stroke="#ff0000" />
<use x="152.454" y="126.445" xlink:href="#dot"  stroke="#00ebff" />
<use x="157.328" y="86.559" xlink:href="#dot"  stroke="#ffe100" />
<use x="148.18" y="118.194" xlink:href="#dot"  stroke="#ff0000" />
<use x="154.861" y="128.184" xlink:href="#dot"  stroke="#00ebff" />
<use x="160.898" y="90.0092" xlink:href="#dot"  stroke="#ffe100" />
<use x="147.251" y="120.941" xlink:href="#dot"  stroke="#ff0000" />
<use x="157.173" y="131.025" xlink:href="#dot"  stroke="#00ebff" />
<use x="164.353" y="94.7238" xlink:href="#dot"  stroke="#ffe100" />
<use x="146.298" y="124.678" xlink:href="#dot"  stroke="#ff0000" />
<use x="159.341" y="134.882" xlink:href="#dot"  stroke="#00ebff" />
<use x="167.653" y="100.589" xlink:href="#dot"  stroke="#ffe100" />
<use x="145.309" y="129.301" xlink:href="#dot"  stroke="#ff0000" />
<use x="161.314" y="139.638" xlink:href="#dot"  stroke="#00ebff" />
<use x="170.753" y="107.463" xlink:href="#dot"  stroke="#ffe100" />
<use x="144.27" y="134.678" xlink:href="#dot"  stroke="#ff0000" />
<use x="163.036" y="145.142" xlink:href="#dot"  stroke="#00ebff" />
<use x="173.606" y="115.176" xlink:href="#dot"  stroke="#ffe100" />
<use x="143.163" y="140.653" xlink:href="#dot"  stroke="#ff0000" />
<use x="164.451" y="151.219" xlink:href="#dot"  stroke="#00ebff" />
<use x="176.161" y="123.533" xlink:href="#dot"  stroke="#ffe100" />
<use x="141.963" y="147.046" xlink:href="#dot"  stroke="#ff0000" />
<use x="165.495" y="157.664" xlink:href="#dot"  stroke="#00ebff" />
<use x="178.359" y="132.318" xlink:href="#dot"  stroke="#ffe100" />
<use x="140.64" y="153.66" xlink:href="#dot"  stroke="#ff0000" />
<use x="166.099" y="164.248" xlink:href="#dot"  stroke="#00ebff" />
<use x="119.062" y="133.405" xlink:href="#dot"  stroke="#ffe100" />
<use x="153.106" y="152.998" xlink:href="#dot"  stroke="#ff0000" />
<use x="129.272" y="162.94" xlink:href="#dot"  stroke="#00ebff" />
<use x="121.916" y="124.794" xlink:href="#dot"  stroke="#ffe100" />
<use x="152.302" y="146.482" xlink:href="#dot"  stroke="#ff0000" />
<use x="130.657" y="156.392" xlink:href="#dot"  stroke="#00ebff" />
<use x="125.183" y="116.768" xlink:href="#dot"  stroke="#ffe100" />
<use x="151.677" y="140.317" xlink:href="#dot"  stroke="#ff0000" />
<use x="132.534" y="150.129" xlink:href="#dot"  stroke="#00ebff" />
<use x="128.8" y="109.559" xlink:href="#dot"  stroke="#ffe100" />
<use x="151.195" y="134.715" xlink:href="#dot"  stroke="#ff0000" />
<use x="134.825" y="144.394" xlink:href="#dot"  stroke="#00ebff" />
<use x="132.703" y="103.369" xlink:href="#dot"  stroke="#ffe100" />
<use x="150.827" y="129.862" xlink:href="#dot"  stroke="#ff0000" />
<use x="137.457" y="139.398" xlink:href="#dot"  stroke="#00ebff" />
<use x="136.831" y="98.3713" xlink:href="#dot"  stroke="#ffe100" />
<use x="150.547" y="125.918" xlink:href="#dot"  stroke="#ff0000" />
<use x="140.359" y="135.321" xlink:href="#dot"  stroke="#00ebff" />
<use x="141.128" y="94.7012" xlink:href="#dot"  stroke="#ffe100" />
<use x="150.33" y="123.008" xlink:href="#dot"  stroke="#ff0000" />
<use x="143.462" y="132.305" xlink:href="#dot"  stroke="#00ebff" />
<use x="145.536" y="92.4587" xlink:href="#dot"  stroke="#ffe100" />
<use x="150.155" y="121.224" xlink:href="#dot"  stroke="#ff0000" />
<use x="146.698" y="130.454" xlink:href="#dot"  stroke="#00ebff" />
<use x="150" y="91.7045" xlink:href="#dot"  stroke="#ffe100" />
<use x="150" y="120.623" xlink:href="#dot"  stroke="#ff0000" />
<use x="150" y="129.829" xlink:href="#dot"  stroke="#00ebff" />
<use x="154.464" y="92.4587" xlink:href="#dot"  stroke="#ffe100" />
<use x="149.845" y="121.224" xlink:href="#dot"  stroke="#ff0000" />
<use x="153.302" y="130.454" xlink:href="#dot"  stroke="#00ebff" />
<use x="158.872" y="94.7012" xlink:href="#dot"  stroke="#ffe100" />
<use x="149.67" y="123.008" xlink:href="#dot"  stroke="#ff0000" />
<use x="156.538" y="132.305" xlink:href="#dot"  stroke="#00ebff" />
<use x="163.169" y="98.3713" xlink:href="#dot"  stroke="#ffe100" />
<use x="149.453" y="125.918" xlink:href="#dot"  stroke="#ff0000" />
<use x="159.641" y="135.321" xlink:href="#dot"  stroke="#00ebff" />
<use x="167.297" y="103.369" xlink:href="#dot"  stroke="#ffe100" />
<use x="149.173" y="129.862" xlink:href="#dot"  stroke="#ff0000" />
<use x="162.543" y="139.398" xlink:href="#dot"  stroke="#00ebff" />
<use x="171.2" y="109.559" xlink:href="#dot"  stroke="#ffe100" />
<use x="148.805" y="134.715" xlink:href="#dot"  stroke="#ff0000" />
<use x="165.175" y="144.394" xlink:href="#dot"  stroke="#00ebff" />
<use x="174.817" y="116.768" xlink:href="#dot"  stroke="#ffe100" />
<use x="148.323" y="140.317" xlink:href="#dot"  stroke="#ff0000" />
<use x="167.466" y="150.129" xlink:href="#dot"  stroke="#00ebff" />
<use x="178.084" y="124.794" xlink:href="#dot"  stroke="#ffe100" />
<use x="147.698" y="146.482" xlink:href="#dot"  stroke="#ff0000" />
<use x="169.343" y="156.392" xlink:href="#dot"  stroke="#00ebff" />
<use x="180.938" y="133.405" xlink:href="#dot"  stroke="#ffe100" />
<use x="146.894" y="152.998" xlink:href="#dot"  stroke="#ff0000" />
<use x="170.728" y="162.94" xlink:href="#dot"  stroke="#00ebff" />
<use x="118.545" y="136.303" xlink:href="#dot"  stroke="#ffe100" />
<use x="148.792" y="154.074" xlink:href="#dot"  stroke="#ff0000" />
<use x="126.926" y="163.506" xlink:href="#dot"  stroke="#00ebff" />
<use x="122.042" y="128.067" xlink:href="#dot"  stroke="#ffe100" />
<use x="148.488" y="147.834" xlink:href="#dot"  stroke="#ff0000" />
<use x="129.071" y="157.188" xlink:href="#dot"  stroke="#00ebff" />
<use x="126" y="120.592" xlink:href="#dot"  stroke="#ffe100" />
<use x="148.409" y="142.089" xlink:href="#dot"  stroke="#ff0000" />
<use x="131.748" y="151.315" xlink:href="#dot"  stroke="#00ebff" />
<use x="130.342" y="114.124" xlink:href="#dot"  stroke="#ffe100" />
<use x="148.513" y="137.064" xlink:href="#dot"  stroke="#ff0000" />
<use x="134.868" y="146.143" xlink:href="#dot"  stroke="#00ebff" />
<use x="134.989" y="108.868" xlink:href="#dot"  stroke="#ffe100" />
<use x="148.761" y="132.949" xlink:href="#dot"  stroke="#ff0000" />
<use x="138.342" y="141.888" xlink:href="#dot"  stroke="#00ebff" />
<use x="139.866" y="104.993" xlink:href="#dot"  stroke="#ffe100" />
<use x="149.115" y="129.897" xlink:href="#dot"  stroke="#ff0000" />
<use x="142.081" y="138.721" xlink:href="#dot"  stroke="#00ebff" />
<use x="144.895" y="102.618" xlink:href="#dot"  stroke="#ffe100" />
<use x="149.54" y="128.02" xlink:href="#dot"  stroke="#ff0000" />
<use x="145.996" y="136.77" xlink:href="#dot"  stroke="#00ebff" />
<use x="150" y="101.818" xlink:href="#dot"  stroke="#ffe100" />
<use x="150" y="127.387" xlink:href="#dot"  stroke="#ff0000" />
<use x="150" y="136.111" xlink:href="#dot"  stroke="#00ebff" />
<use x="155.105" y="102.618" xlink:href="#dot"  stroke="#ffe100" />
<use x="150.46" y="128.02" xlink:href="#dot"  stroke="#ff0000" />
<use x="154.004" y="136.77" xlink:href="#dot"  stroke="#00ebff" />
<use x="160.134" y="104.993" xlink:href="#dot"  stroke="#ffe100" />
<use x="150.885" y="129.897" xlink:href="#dot"  stroke="#ff0000" />
<use x="157.919" y="138.721" xlink:href="#dot"  stroke="#00ebff" />
<use x="165.011" y="108.868" xlink:href="#dot"  stroke="#ffe100" />
<use x="151.239" y="132.949" xlink:href="#dot"  stroke="#ff0000" />
<use x="161.658" y="141.888" xlink:href="#dot"  stroke="#00ebff" />
<use x="169.658" y="114.124" xlink:href="#dot"  stroke="#ffe100" />
<use x="151.487" y="137.064" xlink:href="#dot"  stroke="#ff0000" />
<use x="165.132" y="146.143" xlink:href="#dot"  stroke="#00ebff" />
<use x="174" y="120.592" xlink:href="#dot"  stroke="#ffe100" />
<use x="151.591" y="142.089" xlink:href="#dot"  stroke="#ff0000" />
<use x="168.252" y="151.315" xlink:href="#dot"  stroke="#00ebff" />
<use x="177.958" y="128.067" xlink:href="#dot"  stroke="#ffe100" />
<use x="151.512" y="147.834" xlink:href="#dot"  stroke="#ff0000" />
<use x="170.929" y="157.188" xlink:href="#dot"  stroke="#00ebff" />
<use x="181.455" y="136.303" xlink:href="#dot"  stroke="#ffe100" />
<use x="151.208" y="154.074" xlink:href="#dot"  stroke="#ff0000" />
<use x="173.074" y="163.506" xlink:href="#dot"  stroke="#00ebff" />
<use x="123.921" y="133.103" xlink:href="#dot"  stroke="#ffe100" />
<use x="146.296" y="150.833" xlink:href="#dot"  stroke="#ff0000" />
<use x="129.435" y="159.787" xlink:href="#dot"  stroke="#00ebff" />
<use x="128.538" y="126.408" xlink:href="#dot"  stroke="#ffe100" />
<use x="146.727" y="145.703" xlink:href="#dot"  stroke="#ff0000" />
<use x="132.871" y="154.517" xlink:href="#dot"  stroke="#00ebff" />
<use x="133.554" y="120.925" xlink:href="#dot"  stroke="#ffe100" />
<use x="147.365" y="141.459" xlink:href="#dot"  stroke="#ff0000" />
<use x="136.757" y="150.131" xlink:href="#dot"  stroke="#00ebff" />
<use x="138.869" y="116.858" xlink:href="#dot"  stroke="#ffe100" />
<use x="148.157" y="138.29" xlink:href="#dot"  stroke="#ff0000" />
<use x="140.982" y="146.843" xlink:href="#dot"  stroke="#00ebff" />
<use x="144.384" y="114.357" xlink:href="#dot"  stroke="#ffe100" />
<use x="149.053" y="136.333" xlink:href="#dot"  stroke="#ff0000" />
<use x="145.434" y="144.807" xlink:href="#dot"  stroke="#00ebff" />
<use x="150" y="113.513" xlink:href="#dot"  stroke="#ffe100" />
<use x="150" y="135.671" xlink:href="#dot"  stroke="#ff0000" />
<use x="150" y="144.118" xlink:href="#dot"  stroke="#00ebff" />
<use x="155.616" y="114.357" xlink:href="#dot"  stroke="#ffe100" />
<use x="150.947" y="136.333" xlink:href="#dot"  stroke="#ff0000" />
<use x="154.566" y="144.807" xlink:href="#dot"  stroke="#00ebff" />
<use x="161.131" y="116.858" xlink:href="#dot"  stroke="#ffe100" />
<use x="151.843" y="138.29" xlink:href="#dot"  stroke="#ff0000" />
<use x="159.018" y="146.843" xlink:href="#dot"  stroke="#00ebff" />
<use x="166.446" y="120.925" xlink:href="#dot"  stroke="#ffe100" />
<use x="152.635" y="141.459" xlink:href="#dot"  stroke="#ff0000" />
<use x="163.243" y="150.131" xlink:href="#dot"  stroke="#00ebff" />
<use x="171.462" y="126.408" xlink:href="#dot"  stroke="#ffe100" />
<use x="153.273" y="145.703" xlink:href="#dot"  stroke="#ff0000" />
<use x="167.129" y="154.517" xlink:href="#dot"  stroke="#00ebff" />
<use x="176.079" y="133.103" xlink:href="#dot"  stroke="#ffe100" />
<use x="153.704" y="150.833" xlink:href="#dot"  stroke="#ff0000" />
<use x="170.565" y="159.787" xlink:href="#dot"  stroke="#00ebff" />
<use x="127.27" y="139.678" xlink:href="#dot"  stroke="#ffe100" />
<use x="145.438" y="155.234" xlink:href="#dot"  stroke="#ff0000" />
<use x="131.447" y="163.942" xlink:href="#dot"  stroke="#00ebff" />
<use x="132.503" y="134.004" xlink:href="#dot"  stroke="#ffe100" />
<use x="146.333" y="150.914" xlink:href="#dot"  stroke="#ff0000" />
<use x="135.585" y="159.488" xlink:href="#dot"  stroke="#00ebff" />
<use x="138.121" y="129.762" xlink:href="#dot"  stroke="#ffe100" />
<use x="147.438" y="147.656" xlink:href="#dot"  stroke="#ff0000" />
<use x="140.15" y="156.113" xlink:href="#dot"  stroke="#00ebff" />
<use x="143.995" y="127.141" xlink:href="#dot"  stroke="#ffe100" />
<use x="148.684" y="145.632" xlink:href="#dot"  stroke="#ff0000" />
<use x="145.003" y="154.008" xlink:href="#dot"  stroke="#00ebff" />
<use x="150" y="126.255" xlink:href="#dot"  stroke="#ffe100" />
<use x="150" y="144.945" xlink:href="#dot"  stroke="#ff0000" />
<use x="150" y="153.294" xlink:href="#dot"  stroke="#00ebff" />
<use x="156.005" y="127.141" xlink:href="#dot"  stroke="#ffe100" />
<use x="151.316" y="145.632" xlink:href="#dot"  stroke="#ff0000" />
<use x="154.997" y="154.008" xlink:href="#dot"  stroke="#00ebff" />
<use x="161.879" y="129.762" xlink:href="#dot"  stroke="#ffe100" />
<use x="152.562" y="147.656" xlink:href="#dot"  stroke="#ff0000" />
<use x="159.85" y="156.113" xlink:href="#dot"  stroke="#00ebff" />
<use x="167.497" y="134.004" xlink:href="#dot"  stroke="#ffe100" />
<use x="153.667" y="150.914" xlink:href="#dot"  stroke="#ff0000" />
<use x="164.415" y="159.488" xlink:href="#dot"  stroke="#00ebff" />
<use x="172.73" y="139.678" xlink:href="#dot"  stroke="#ffe100" />
<use x="154.562" y="155.234" xlink:href="#dot"  stroke="#ff0000" />
<use x="168.553" y="163.942" xlink:href="#dot"  stroke="#00ebff" />
<use x="137.606" y="143.211" xlink:href="#dot"  stroke="#ffe100" />
<use x="146.94" y="157.506" xlink:href="#dot"  stroke="#ff0000" />
<use x="139.574" y="166.005" xlink:href="#dot"  stroke="#00ebff" />
<use x="143.72" y="140.476" xlink:href="#dot"  stroke="#ffe100" />
<use x="148.423" y="155.431" xlink:href="#dot"  stroke="#ff0000" />
<use x="144.696" y="163.854" xlink:href="#dot"  stroke="#00ebff" />
<use x="150" y="139.548" xlink:href="#dot"  stroke="#ffe100" />
<use x="150" y="154.724" xlink:href="#dot"  stroke="#ff0000" />
<use x="150" y="163.119" xlink:href="#dot"  stroke="#00ebff" />
<use x="156.28" y="140.476" xlink:href="#dot"  stroke="#ffe100" />
<use x="151.577" y="155.431" xlink:href="#dot"  stroke="#ff0000" />
<use x="155.304" y="163.854" xlink:href="#dot"  stroke="#00ebff" />
<use x="162.394" y="143.211" xlink:href="#dot"  stroke="#ffe100" />
<use x="153.06" y="157.506" xlink:href="#dot"  stroke="#ff0000" />
<use x="160.426" y="166.005" xlink:href="#dot"  stroke="#00ebff" />
</svg>
