<?xml version="1.0" standalone="no"?>
<svg width="640px" height="480px" version="1.1" xmlns="http://www.w3.org/2000/svg" xmlns:xlink="http://www.w3.org/1999/xlink">
<rect x="0" y="0" width="640" height="480"  fill="#ffffff" />
<defs>
<g id="dot">
<line x1="1" y1="1" x2="0" y2="0"  />
</g>
<g id="cross">
<line x1="-3" y1="0" x2="3" y2="0"  />
<line x1="0" y1="-3" x2="0" y2="3"  />
</g>
<g id="square">
<line x1="-3" y1="-3" x2="-3" y2="3"  />
<line x1="-3" y1="3" x2="3" y2="3"  />
<line x1="3" y1="3" x2="3" y2="-3"  />
<line x1="3" y1="-3" x2="-3" y2="-3"  />
</g>
<g id="round">
<ellipse cx="0" cy="0" rx="3" ry="3"  fill="none" /></g>
<g id="triangle">
<line x1="0" y1="-3" x2="-3" y2="3"  />
<line x1="-3" y1="3" x2="3" y2="3"  />
<line x1="0" y1="-3" x2="3" y2="3"  />
</g>
</defs>
<polygon fill="none" stroke="#000000" points="66.0317,430.476 66.0317,49.5238 573.968,49.5238 573.968,430.476 " />
<text style="font-size:12;text-align:center;text-anchor:middle;" x="320" y="473.619" fill="#000000">Entrance ray height (normalized)</text>
<line x1="66.0317" y1="65.3267" x2="573.968" y2="65.3267"  stroke="#000000" />
<use x="66.0317" y="65.3267" xlink:href="#cross"  stroke="#000000" />
<use x="66.0317" y="49.5238" xlink:href="#cross"  stroke="#000000" />
<use x="66.0317" y="430.476" xlink:href="#cross"  stroke="#000000" />
<text style="font-size:12;text-align:center;text-anchor:middle;" x="66.0317" y="448.476" fill="#000000">-1</text>
<use x="320" y="65.3267" xlink:href="#cross"  stroke="#000000" />
<use x="320" y="49.5238" xlink:href="#cross"  stroke="#000000" />
<use x="320" y="430.476" xlink:href="#cross"  stroke="#000000" />
<text style="font-size:12;text-align:center;text-anchor:middle;" x="320" y="448.476" fill="#000000">0</text>
<use x="573.968" y="65.3267" xlink:href="#cross"  stroke="#000000" />
<use x="573.968" y="49.5238" xlink:href="#cross"  stroke="#000000" />
<use x="573.968" y="430.476" xlink:href="#cross"  stroke="#000000" />
<text style="font-size:12;text-align:center;text-anchor:middle;" x="573.968" y="448.476" fill="#000000">1</text>
<text style="font-size:12;text-align:center;text-anchor:middle;" x="16.5079" y="246" transform="rotate(-90,16.5079,240)" fill="#000000">Optical path difference (x10^-1 waves)</text>
<line x1="320" y1="430.476" x2="320" y2="49.5238"  stroke="#000000" />
<use x="320" y="418.946" xlink:href="#cross"  stroke="#000000" />
<use x="573.968" y="418.946" xlink:href="#cross"  stroke="#000000" />
<use x="66.0317" y="418.946" xlink:href="#cross"  stroke="#000000" />
<text style="font-size:12;text-align:right;text-anchor:end;" x="60.0317" y="424.946" fill="#000000">-35</text>
<use x="320" y="368.429" xlink:href="#cross"  stroke="#000000" />
<use x="573.968" y="368.429" xlink:href="#cross"  stroke="#000000" />
<use x="66.0317" y="368.429" xlink:href="#cross"  stroke="#000000" />
<text style="font-size:12;text-align:right;text-anchor:end;" x="60.0317" y="374.429" fill="#000000">-30</text>
<use x="320" y="317.912" xlink:href="#cross"  stroke="#000000" />
<use x="573.968" y="317.912" xlink:href="#cross"  stroke="#000000" />
<use x="66.0317" y="317.912" xlink:href="#cross"  stroke="#000000" />
<text style="font-size:12;text-align:right;text-anchor:end;" x="60.0317" y="323.912" fill="#000000">-25</text>
<use x="320" y="267.395" xlink:href="#cross"  stroke="#000000" />
<use x="573.968" y="267.395" xlink:href="#cross"  stroke="#000000" />
<use x="66.0317" y="267.395" xlink:href="#cross"  stroke="#000000" />
<text style="font-size:12;text-align:right;text-anchor:end;" x="60.0317" y="273.395" fill="#000000">-20</text>
<use x="320" y="216.878" xlink:href="#cross"  stroke="#000000" />
<use x="573.968" y="216.878" xlink:href="#cross"  stroke="#000000" />
<use x="66.0317" y="216.878" xlink:href="#cross"  stroke="#000000" />
<text style="font-size:12;text-align:right;text-anchor:end;" x="60.0317" y="222.878" fill="#000000">-15</text>
<use x="320" y="166.361" xlink:href="#cross"  stroke="#000000" />
<use x="573.968" y="166.361" xlink:href="#cross"  stroke="#000000" />
<use x="66.0317" y="166.361" xlink:href="#cross"  stroke="#000000" />
<text style="font-size:12;text-align:right;text-anchor:end;" x="60.0317" y="172.361" fill="#000000">-10</text>
<use x="320" y="115.844" xlink:href="#cross"  stroke="#000000" />
<use x="573.968" y="115.844" xlink:href="#cross"  stroke="#000000" />
<use x="66.0317" y="115.844" xlink:href="#cross"  stroke="#000000" />
<text style="font-size:12;text-align:right;text-anchor:end;" x="60.0317" y="121.844" fill="#000000">-5</text>
<use x="320" y="65.3267" xlink:href="#cross"  stroke="#000000" />
<use x="573.968" y="65.3267" xlink:href="#cross"  stroke="#000000" />
<use x="66.0317" y="65.3267" xlink:href="#cross"  stroke="#000000" />
<text style="font-size:12;text-align:right;text-anchor:end;" x="60.0317" y="71.3267" fill="#000000">0</text>
<text style="font-size:18;text-align:center;text-anchor:middle;" x="320" y="33.7619" fill="#000000">Optical path difference fan (tangential)</text>
<path fill="none"  stroke="#00ebff" d="M83.2,430.476 S94.4762,367.268 100.114,339.705 S111.39,287.078 117.029,265.098 S128.305,224.374 133.943,207.823 S145.219,177.792 150.857,165.793 S162.133,144.334 167.771,135.827 S179.048,120.741 184.686,114.751 S195.962,104.142 201.6,99.8852 S212.876,92.3 218.514,89.2082 S229.79,83.6339 235.429,81.3341 S246.705,77.1356 252.343,75.4095 S263.619,72.2387 269.257,70.9778 S280.533,68.6806 286.171,67.844 S297.448,66.3777 303.086,65.9581 S314.362,65.3267 320,65.3267 S331.276,65.5386 336.914,65.9581 S348.19,67.0074 353.829,67.844 S365.105,69.7169 370.743,70.9778 S382.019,73.6835 387.657,75.4095 S398.933,79.0343 404.571,81.3341 S415.848,86.1163 421.486,89.2082 S432.762,95.6281 438.4,99.8852 S449.676,108.76 455.314,114.751 S466.59,127.32 472.229,135.827 S483.505,153.794 489.143,165.793 S500.419,191.272 506.057,207.823 S517.333,243.118 522.971,265.098 S534.248,312.141 539.886,339.705 S553.981,415.348 556.8,430.476 " />
<path fill="none"  stroke="#ffe100" d="M83.2,82.4289 S94.4762,72.2486 100.114,67.9877 S111.39,59.708 117.029,56.8636 S128.305,52.1442 133.943,50.9209 S145.219,49.481 150.857,49.5238 S162.133,50.3728 167.771,51.1775 S179.048,53.241 184.686,54.3522 S195.962,56.7559 201.6,57.8449 S212.876,60.0082 218.514,60.8862 S229.79,62.5143 235.429,63.1129 S246.705,64.1405 252.343,64.478 S263.619,64.9938 269.257,65.1382 S280.533,65.3096 286.171,65.3444 S297.448,65.3503 303.086,65.3473 S314.362,65.3267 320,65.3267 S331.276,65.3444 336.914,65.3473 S348.19,65.3793 353.829,65.3444 S365.105,65.2826 370.743,65.1382 S382.019,64.8156 387.657,64.478 S398.933,63.7116 404.571,63.1129 S415.848,61.7642 421.486,60.8862 S432.762,58.9339 438.4,57.8449 S449.676,55.4634 455.314,54.3522 S466.59,51.9822 472.229,51.1775 S483.505,49.5666 489.143,49.5238 S500.419,49.6976 506.057,50.9209 S517.333,54.0191 522.971,56.8636 S534.248,63.7268 539.886,67.9877 S553.981,80.022 556.8,82.4289 " />
<path fill="none"  stroke="#ff0000" d="M83.2,225.239 S94.4762,205.143 100.114,195.973 S111.39,177.951 117.029,170.217 S128.305,155.685 133.943,149.573 S145.219,138.318 150.857,133.548 S162.133,124.776 167.771,120.95 S179.048,113.82 184.686,110.591 S195.962,104.444 201.6,101.579 S212.876,96.0159 218.514,93.4016 S229.79,88.2686 235.429,85.8935 S246.705,81.2284 252.343,79.1509 S263.619,75.1135 269.257,73.4283 S280.533,70.2321 286.171,69.0395 S297.448,66.8914 303.086,66.2726 S314.362,65.3267 320,65.3267 S331.276,65.6538 336.914,66.2726 S348.19,67.8468 353.829,69.0395 S365.105,71.743 370.743,73.4283 S382.019,77.0733 387.657,79.1509 S398.933,83.5184 404.571,85.8935 S415.848,90.7873 421.486,93.4016 S432.762,98.7142 438.4,101.579 S449.676,107.363 455.314,110.591 S466.59,117.124 472.229,120.95 S483.505,128.777 489.143,133.548 S500.419,143.462 506.057,149.573 S517.333,162.484 522.971,170.217 S534.248,186.803 539.886,195.973 S553.981,220.361 556.8,225.239 " />
</svg>
