<?xml version="1.0" standalone="no"?>
<svg width="640px" height="480px" version="1.1" xmlns="http://www.w3.org/2000/svg" xmlns:xlink="http://www.w3.org/1999/xlink">
<rect x="0" y="0" width="640" height="480"  fill="#ffffff" />
<defs>
<g id="dot">
<line x1="1" y1="1" x2="0" y2="0"  />
</g>
<g id="cross">
<line x1="-3" y1="0" x2="3" y2="0"  />
<line x1="0" y1="-3" x2="0" y2="3"  />
</g>
<g id="square">
<line x1="-3" y1="-3" x2="-3" y2="3"  />
<line x1="-3" y1="3" x2="3" y2="3"  />
<line x1="3" y1="3" x2="3" y2="-3"  />
<line x1="3" y1="-3" x2="-3" y2="-3"  />
</g>
<g id="round">
<ellipse cx="0" cy="0" rx="3" ry="3"  fill="none" /></g>
<g id="triangle">
<line x1="0" y1="-3" x2="-3" y2="3"  />
<line x1="-3" y1="3" x2="3" y2="3"  />
<line x1="0" y1="-3" x2="3" y2="3"  />
</g>
</defs>
<polygon fill="none" stroke="#000000" points="66.0317,430.476 66.0317,49.5238 573.968,49.5238 573.968,430.476 " />
<text style="font-size:12;text-align:center;text-anchor:middle;" x="320" y="473.619" fill="#000000">Entrance ray height (normalized)</text>
<line x1="66.0317" y1="393.201" x2="573.968" y2="393.201"  stroke="#000000" />
<use x="66.0317" y="393.201" xlink:href="#cross"  stroke="#000000" />
<use x="66.0317" y="49.5238" xlink:href="#cross"  stroke="#000000" />
<use x="66.0317" y="430.476" xlink:href="#cross"  stroke="#000000" />
<text style="font-size:12;text-align:center;text-anchor:middle;" x="66.0317" y="448.476" fill="#000000">-1</text>
<use x="320" y="393.201" xlink:href="#cross"  stroke="#000000" />
<use x="320" y="49.5238" xlink:href="#cross"  stroke="#000000" />
<use x="320" y="430.476" xlink:href="#cross"  stroke="#000000" />
<text style="font-size:12;text-align:center;text-anchor:middle;" x="320" y="448.476" fill="#000000">0</text>
<use x="573.968" y="393.201" xlink:href="#cross"  stroke="#000000" />
<use x="573.968" y="49.5238" xlink:href="#cross"  stroke="#000000" />
<use x="573.968" y="430.476" xlink:href="#cross"  stroke="#000000" />
<text style="font-size:12;text-align:center;text-anchor:middle;" x="573.968" y="448.476" fill="#000000">1</text>
<text style="font-size:12;text-align:center;text-anchor:middle;" x="16.5079" y="246" transform="rotate(-90,16.5079,240)" fill="#000000">Longitudinal ray aberration (um)</text>
<line x1="320" y1="430.476" x2="320" y2="49.5238"  stroke="#000000" />
<use x="320" y="393.201" xlink:href="#cross"  stroke="#000000" />
<use x="573.968" y="393.201" xlink:href="#cross"  stroke="#000000" />
<use x="66.0317" y="393.201" xlink:href="#cross"  stroke="#000000" />
<text style="font-size:12;text-align:right;text-anchor:end;" x="60.0317" y="399.201" fill="#000000">0</text>
<use x="320" y="317.111" xlink:href="#cross"  stroke="#000000" />
<use x="573.968" y="317.111" xlink:href="#cross"  stroke="#000000" />
<use x="66.0317" y="317.111" xlink:href="#cross"  stroke="#000000" />
<text style="font-size:12;text-align:right;text-anchor:end;" x="60.0317" y="323.111" fill="#000000">50</text>
<use x="320" y="241.021" xlink:href="#cross"  stroke="#000000" />
<use x="573.968" y="241.021" xlink:href="#cross"  stroke="#000000" />
<use x="66.0317" y="241.021" xlink:href="#cross"  stroke="#000000" />
<text style="font-size:12;text-align:right;text-anchor:end;" x="60.0317" y="247.021" fill="#000000">100</text>
<use x="320" y="164.931" xlink:href="#cross"  stroke="#000000" />
<use x="573.968" y="164.931" xlink:href="#cross"  stroke="#000000" />
<use x="66.0317" y="164.931" xlink:href="#cross"  stroke="#000000" />
<text style="font-size:12;text-align:right;text-anchor:end;" x="60.0317" y="170.931" fill="#000000">150</text>
<use x="320" y="88.8408" xlink:href="#cross"  stroke="#000000" />
<use x="573.968" y="88.8408" xlink:href="#cross"  stroke="#000000" />
<use x="66.0317" y="88.8408" xlink:href="#cross"  stroke="#000000" />
<text style="font-size:12;text-align:right;text-anchor:end;" x="60.0317" y="94.8408" fill="#000000">200</text>
<text style="font-size:18;text-align:center;text-anchor:middle;" x="320" y="33.7619" fill="#000000">Longitudinal ray aberration fan (tangential)</text>
<path fill="none"  stroke="#00ebff" d="M83.2,49.5238 S94.4762,74.926 100.114,87.2501 S111.39,112.155 117.029,123.469 S128.305,145.544 133.943,155.134 S145.219,173.374 150.857,181.008 S162.133,195.206 167.771,200.936 S179.048,211.35 184.686,215.388 S195.962,222.528 201.6,225.162 S212.876,229.649 218.514,231.195 S229.79,233.673 235.429,234.435 S246.705,235.513 252.343,235.767 S263.619,235.984 269.257,235.963 S280.533,235.76 286.171,235.645 S294.629,235.331 303.086,235.268 S328.457,235.206 336.914,235.268 S348.19,235.529 353.829,235.645 S365.105,235.943 370.743,235.963 S382.019,236.022 387.657,235.767 S398.933,235.197 404.571,234.435 S415.848,232.74 421.486,231.195 S432.762,227.797 438.4,225.162 S449.676,219.426 455.314,215.388 S466.59,206.666 472.229,200.936 S483.505,188.641 489.143,181.008 S500.419,164.724 506.057,155.134 S517.333,134.783 522.971,123.469 S534.248,99.5742 539.886,87.2501 S553.981,55.8115 556.8,49.5238 " />
<path fill="none"  stroke="#ffe100" d="M83.2,391.128 S94.4762,399.286 100.114,403.308 S111.39,411.761 117.029,415.259 S128.305,421.939 133.943,424.293 S145.219,428.348 150.857,429.378 S162.133,430.688 167.771,430.476 S179.048,429.34 184.686,428.11 S195.962,425.054 201.6,423.097 S212.876,418.741 218.514,416.368 S229.79,411.347 235.429,408.858 S246.705,403.769 252.343,401.433 S263.619,396.8 269.257,394.843 S280.533,391.095 286.171,389.692 S294.629,386.967 303.086,386.422 S328.457,385.876 336.914,386.422 S348.19,388.288 353.829,389.692 S365.105,392.886 370.743,394.843 S382.019,399.098 387.657,401.433 S398.933,406.369 404.571,408.858 S415.848,413.995 421.486,416.368 S432.762,421.14 438.4,423.097 S449.676,426.88 455.314,428.11 S466.59,430.265 472.229,430.476 S483.505,430.409 489.143,429.378 S500.419,426.646 506.057,424.293 S517.333,418.756 522.971,415.259 S534.248,407.33 539.886,403.308 S553.981,393.158 556.8,391.128 " />
<path fill="none"  stroke="#ff0000" d="M83.2,122.918 S94.4762,127.638 100.114,129.92 S111.39,134.847 117.029,136.61 S128.305,139.82 133.943,140.501 S145.219,141.239 150.857,140.697 S162.133,138.906 167.771,137.245 S179.048,133.27 184.686,130.731 S195.962,125.125 201.6,122.009 S212.876,115.412 218.514,112.038 S229.79,105.096 235.429,101.769 S246.705,95.0865 252.343,92.0784 S263.619,86.183 269.257,83.7209 S280.533,79.0463 286.171,77.3055 S294.629,73.9478 303.086,73.2762 S328.457,72.6047 336.914,73.2762 S348.19,75.5647 353.829,77.3055 S365.105,81.2587 370.743,83.7209 S382.019,89.0703 387.657,92.0784 S398.933,98.4428 404.571,101.769 S415.848,108.665 421.486,112.038 S432.762,118.894 438.4,122.009 S449.676,128.191 455.314,130.731 S466.59,135.584 472.229,137.245 S483.505,140.154 489.143,140.697 S500.419,141.182 506.057,140.501 S517.333,138.374 522.971,136.61 S534.248,132.202 539.886,129.92 S553.981,124.085 556.8,122.918 " />
</svg>
