<?xml version="1.0" standalone="no"?>
<svg width="640px" height="480px" version="1.1" xmlns="http://www.w3.org/2000/svg" xmlns:xlink="http://www.w3.org/1999/xlink">
<rect x="0" y="0" width="640" height="480"  fill="#ffffff" />
<defs>
<g id="dot">
<line x1="1" y1="1" x2="0" y2="0"  />
</g>
<g id="cross">
<line x1="-3" y1="0" x2="3" y2="0"  />
<line x1="0" y1="-3" x2="0" y2="3"  />
</g>
<g id="square">
<line x1="-3" y1="-3" x2="-3" y2="3"  />
<line x1="-3" y1="3" x2="3" y2="3"  />
<line x1="3" y1="3" x2="3" y2="-3"  />
<line x1="3" y1="-3" x2="-3" y2="-3"  />
</g>
<g id="round">
<ellipse cx="0" cy="0" rx="3" ry="3"  fill="none" /></g>
<g id="triangle">
<line x1="0" y1="-3" x2="-3" y2="3"  />
<line x1="-3" y1="3" x2="3" y2="3"  />
<line x1="0" y1="-3" x2="3" y2="3"  />
</g>
</defs>
<polygon fill="none" stroke="#000000" points="66.0317,430.476 66.0317,49.5238 573.968,49.5238 573.968,430.476 " />
<text style="font-size:12;text-align:center;text-anchor:middle;" x="320" y="473.619" fill="#000000">Distance from spot centroid (um)</text>
<use x="66.0317" y="49.5238" xlink:href="#cross"  stroke="#000000" />
<use x="66.0317" y="430.476" xlink:href="#cross"  stroke="#000000" />
<text style="font-size:12;text-align:center;text-anchor:middle;" x="66.0317" y="448.476" fill="#000000">0</text>
<use x="128.568" y="49.5238" xlink:href="#cross"  stroke="#000000" />
<use x="128.568" y="430.476" xlink:href="#cross"  stroke="#000000" />
<text style="font-size:12;text-align:center;text-anchor:middle;" x="128.568" y="448.476" fill="#000000">5</text>
<use x="191.105" y="49.5238" xlink:href="#cross"  stroke="#000000" />
<use x="191.105" y="430.476" xlink:href="#cross"  stroke="#000000" />
<text style="font-size:12;text-align:center;text-anchor:middle;" x="191.105" y="448.476" fill="#000000">10</text>
<use x="253.641" y="49.5238" xlink:href="#cross"  stroke="#000000" />
<use x="253.641" y="430.476" xlink:href="#cross"  stroke="#000000" />
<text style="font-size:12;text-align:center;text-anchor:middle;" x="253.641" y="448.476" fill="#000000">15</text>
<use x="316.178" y="49.5238" xlink:href="#cross"  stroke="#000000" />
<use x="316.178" y="430.476" xlink:href="#cross"  stroke="#000000" />
<text style="font-size:12;text-align:center;text-anchor:middle;" x="316.178" y="448.476" fill="#000000">20</text>
<use x="378.714" y="49.5238" xlink:href="#cross"  stroke="#000000" />
<use x="378.714" y="430.476" xlink:href="#cross"  stroke="#000000" />
<text style="font-size:12;text-align:center;text-anchor:middle;" x="378.714" y="448.476" fill="#000000">25</text>
<use x="441.251" y="49.5238" xlink:href="#cross"  stroke="#000000" />
<use x="441.251" y="430.476" xlink:href="#cross"  stroke="#000000" />
<text style="font-size:12;text-align:center;text-anchor:middle;" x="441.251" y="448.476" fill="#000000">30</text>
<use x="503.787" y="49.5238" xlink:href="#cross"  stroke="#000000" />
<use x="503.787" y="430.476" xlink:href="#cross"  stroke="#000000" />
<text style="font-size:12;text-align:center;text-anchor:middle;" x="503.787" y="448.476" fill="#000000">35</text>
<use x="566.324" y="49.5238" xlink:href="#cross"  stroke="#000000" />
<use x="566.324" y="430.476" xlink:href="#cross"  stroke="#000000" />
<text style="font-size:12;text-align:center;text-anchor:middle;" x="566.324" y="448.476" fill="#000000">40</text>
<text style="font-size:12;text-align:center;text-anchor:middle;" x="16.5079" y="246" transform="rotate(-90,16.5079,240)" fill="#000000">Encircled intensity</text>
<use x="573.968" y="430.476" xlink:href="#cross"  stroke="#000000" />
<use x="66.0317" y="430.476" xlink:href="#cross"  stroke="#000000" />
<text style="font-size:12;text-align:right;text-anchor:end;" x="60.0317" y="436.476" fill="#000000">0</text>
<use x="573.968" y="386.689" xlink:href="#cross"  stroke="#000000" />
<use x="66.0317" y="386.689" xlink:href="#cross"  stroke="#000000" />
<text style="font-size:12;text-align:right;text-anchor:end;" x="60.0317" y="392.689" fill="#000000">100</text>
<use x="573.968" y="342.901" xlink:href="#cross"  stroke="#000000" />
<use x="66.0317" y="342.901" xlink:href="#cross"  stroke="#000000" />
<text style="font-size:12;text-align:right;text-anchor:end;" x="60.0317" y="348.901" fill="#000000">200</text>
<use x="573.968" y="299.113" xlink:href="#cross"  stroke="#000000" />
<use x="66.0317" y="299.113" xlink:href="#cross"  stroke="#000000" />
<text style="font-size:12;text-align:right;text-anchor:end;" x="60.0317" y="305.113" fill="#000000">300</text>
<use x="573.968" y="255.326" xlink:href="#cross"  stroke="#000000" />
<use x="66.0317" y="255.326" xlink:href="#cross"  stroke="#000000" />
<text style="font-size:12;text-align:right;text-anchor:end;" x="60.0317" y="261.326" fill="#000000">400</text>
<use x="573.968" y="211.538" xlink:href="#cross"  stroke="#000000" />
<use x="66.0317" y="211.538" xlink:href="#cross"  stroke="#000000" />
<text style="font-size:12;text-align:right;text-anchor:end;" x="60.0317" y="217.538" fill="#000000">500</text>
<use x="573.968" y="167.75" xlink:href="#cross"  stroke="#000000" />
<use x="66.0317" y="167.75" xlink:href="#cross"  stroke="#000000" />
<text style="font-size:12;text-align:right;text-anchor:end;" x="60.0317" y="173.75" fill="#000000">600</text>
<use x="573.968" y="123.963" xlink:href="#cross"  stroke="#000000" />
<use x="66.0317" y="123.963" xlink:href="#cross"  stroke="#000000" />
<text style="font-size:12;text-align:right;text-anchor:end;" x="60.0317" y="129.963" fill="#000000">700</text>
<use x="573.968" y="80.1752" xlink:href="#cross"  stroke="#000000" />
<use x="66.0317" y="80.1752" xlink:href="#cross"  stroke="#000000" />
<text style="font-size:12;text-align:right;text-anchor:end;" x="60.0317" y="86.1752" fill="#000000">800</text>
<text style="font-size:18;text-align:center;text-anchor:middle;" x="320" y="33.7619" fill="#000000">Spot diagram encircled rays intensity</text>
<line x1="66.0317" y1="430.476" x2="76.1905" y2="426.097"  stroke="#00ebff" />
<line x1="76.1905" y1="426.097" x2="86.3492" y2="416.464"  stroke="#00ebff" />
<line x1="86.3492" y1="416.464" x2="96.5079" y2="403.328"  stroke="#00ebff" />
<line x1="96.5079" y1="403.328" x2="106.667" y2="391.943"  stroke="#00ebff" />
<line x1="106.667" y1="391.943" x2="116.825" y2="377.931"  stroke="#00ebff" />
<line x1="116.825" y1="377.931" x2="126.984" y2="360.416"  stroke="#00ebff" />
<line x1="126.984" y1="360.416" x2="137.143" y2="345.966"  stroke="#00ebff" />
<line x1="137.143" y1="345.966" x2="147.302" y2="320.131"  stroke="#00ebff" />
<line x1="147.302" y1="320.131" x2="157.46" y2="292.107"  stroke="#00ebff" />
<line x1="157.46" y1="292.107" x2="167.619" y2="268.462"  stroke="#00ebff" />
<line x1="167.619" y1="268.462" x2="177.778" y2="252.698"  stroke="#00ebff" />
<line x1="177.778" y1="252.698" x2="187.937" y2="238.686"  stroke="#00ebff" />
<line x1="187.937" y1="238.686" x2="198.095" y2="223.799"  stroke="#00ebff" />
<line x1="198.095" y1="223.799" x2="208.254" y2="213.29"  stroke="#00ebff" />
<line x1="208.254" y1="213.29" x2="218.413" y2="203.656"  stroke="#00ebff" />
<line x1="218.413" y1="203.656" x2="228.571" y2="188.768"  stroke="#00ebff" />
<line x1="228.571" y1="188.768" x2="238.73" y2="180.011"  stroke="#00ebff" />
<line x1="238.73" y1="180.011" x2="248.889" y2="173.005"  stroke="#00ebff" />
<line x1="248.889" y1="173.005" x2="259.048" y2="165.123"  stroke="#00ebff" />
<line x1="259.048" y1="165.123" x2="269.206" y2="151.987"  stroke="#00ebff" />
<line x1="269.206" y1="151.987" x2="279.365" y2="145.857"  stroke="#00ebff" />
<line x1="279.365" y1="145.857" x2="289.524" y2="137.975"  stroke="#00ebff" />
<line x1="289.524" y1="137.975" x2="299.683" y2="132.72"  stroke="#00ebff" />
<line x1="299.683" y1="132.72" x2="309.841" y2="126.59"  stroke="#00ebff" />
<line x1="309.841" y1="126.59" x2="320" y2="116.081"  stroke="#00ebff" />
<line x1="320" y1="116.081" x2="330.159" y2="112.578"  stroke="#00ebff" />
<line x1="330.159" y1="112.578" x2="340.317" y2="107.323"  stroke="#00ebff" />
<line x1="340.317" y1="107.323" x2="350.476" y2="103.82"  stroke="#00ebff" />
<line x1="350.476" y1="103.82" x2="360.635" y2="97.6902"  stroke="#00ebff" />
<line x1="360.635" y1="97.6902" x2="370.794" y2="93.3114"  stroke="#00ebff" />
<line x1="370.794" y1="93.3114" x2="380.952" y2="88.0569"  stroke="#00ebff" />
<line x1="380.952" y1="88.0569" x2="391.111" y2="83.6782"  stroke="#00ebff" />
<line x1="391.111" y1="83.6782" x2="401.27" y2="81.9267"  stroke="#00ebff" />
<line x1="401.27" y1="81.9267" x2="411.429" y2="77.5479"  stroke="#00ebff" />
<line x1="411.429" y1="77.5479" x2="421.587" y2="74.9206"  stroke="#00ebff" />
<line x1="421.587" y1="74.9206" x2="431.746" y2="71.4176"  stroke="#00ebff" />
<line x1="431.746" y1="71.4176" x2="441.905" y2="68.7904"  stroke="#00ebff" />
<line x1="441.905" y1="68.7904" x2="452.063" y2="66.1631"  stroke="#00ebff" />
<line x1="452.063" y1="66.1631" x2="462.222" y2="64.4116"  stroke="#00ebff" />
<line x1="462.222" y1="64.4116" x2="472.381" y2="61.7843"  stroke="#00ebff" />
<line x1="472.381" y1="61.7843" x2="482.54" y2="60.9086"  stroke="#00ebff" />
<line x1="482.54" y1="60.9086" x2="492.698" y2="59.1571"  stroke="#00ebff" />
<line x1="492.698" y1="59.1571" x2="502.857" y2="56.5298"  stroke="#00ebff" />
<line x1="502.857" y1="56.5298" x2="513.016" y2="56.5298"  stroke="#00ebff" />
<line x1="513.016" y1="56.5298" x2="523.175" y2="53.9026"  stroke="#00ebff" />
<line x1="523.175" y1="53.9026" x2="533.333" y2="53.9026"  stroke="#00ebff" />
<line x1="533.333" y1="53.9026" x2="543.492" y2="51.2753"  stroke="#00ebff" />
<line x1="543.492" y1="51.2753" x2="553.651" y2="51.2753"  stroke="#00ebff" />
<line x1="553.651" y1="51.2753" x2="563.81" y2="49.9617"  stroke="#00ebff" />
<line x1="563.81" y1="49.9617" x2="573.968" y2="49.5238"  stroke="#00ebff" />
<line x1="66.0317" y1="430.476" x2="76.1905" y2="425.66"  stroke="#ffe100" />
<line x1="76.1905" y1="425.66" x2="86.3492" y2="415.588"  stroke="#ffe100" />
<line x1="86.3492" y1="415.588" x2="96.5079" y2="402.014"  stroke="#ffe100" />
<line x1="96.5079" y1="402.014" x2="106.667" y2="389.316"  stroke="#ffe100" />
<line x1="106.667" y1="389.316" x2="116.825" y2="375.304"  stroke="#ffe100" />
<line x1="116.825" y1="375.304" x2="126.984" y2="357.789"  stroke="#ffe100" />
<line x1="126.984" y1="357.789" x2="137.143" y2="339.398"  stroke="#ffe100" />
<line x1="137.143" y1="339.398" x2="147.302" y2="322.759"  stroke="#ffe100" />
<line x1="147.302" y1="322.759" x2="157.46" y2="304.368"  stroke="#ffe100" />
<line x1="157.46" y1="304.368" x2="167.619" y2="283.35"  stroke="#ffe100" />
<line x1="167.619" y1="283.35" x2="177.778" y2="262.332"  stroke="#ffe100" />
<line x1="177.778" y1="262.332" x2="187.937" y2="235.183"  stroke="#ffe100" />
<line x1="187.937" y1="235.183" x2="198.095" y2="197.526"  stroke="#ffe100" />
<line x1="198.095" y1="197.526" x2="208.254" y2="172.567"  stroke="#ffe100" />
<line x1="208.254" y1="172.567" x2="218.413" y2="147.17"  stroke="#ffe100" />
<line x1="218.413" y1="147.17" x2="228.571" y2="131.845"  stroke="#ffe100" />
<line x1="228.571" y1="131.845" x2="238.73" y2="123.963"  stroke="#ffe100" />
<line x1="238.73" y1="123.963" x2="248.889" y2="115.643"  stroke="#ffe100" />
<line x1="248.889" y1="115.643" x2="259.048" y2="109.513"  stroke="#ffe100" />
<line x1="259.048" y1="109.513" x2="269.206" y2="103.383"  stroke="#ffe100" />
<line x1="269.206" y1="103.383" x2="279.365" y2="95.9387"  stroke="#ffe100" />
<line x1="279.365" y1="95.9387" x2="289.524" y2="93.3114"  stroke="#ffe100" />
<line x1="289.524" y1="93.3114" x2="299.683" y2="89.8084"  stroke="#ffe100" />
<line x1="299.683" y1="89.8084" x2="309.841" y2="84.116"  stroke="#ffe100" />
<line x1="309.841" y1="84.116" x2="320" y2="82.3645"  stroke="#ffe100" />
<line x1="320" y1="82.3645" x2="330.159" y2="80.613"  stroke="#ffe100" />
<line x1="330.159" y1="80.613" x2="340.317" y2="78.8615"  stroke="#ffe100" />
<line x1="340.317" y1="78.8615" x2="350.476" y2="75.3585"  stroke="#ffe100" />
<line x1="350.476" y1="75.3585" x2="360.635" y2="72.2934"  stroke="#ffe100" />
<line x1="360.635" y1="72.2934" x2="370.794" y2="70.5419"  stroke="#ffe100" />
<line x1="370.794" y1="70.5419" x2="380.952" y2="69.6661"  stroke="#ffe100" />
<line x1="380.952" y1="69.6661" x2="391.111" y2="68.7904"  stroke="#ffe100" />
<line x1="391.111" y1="68.7904" x2="401.27" y2="67.0389"  stroke="#ffe100" />
<line x1="401.27" y1="67.0389" x2="411.429" y2="66.1631"  stroke="#ffe100" />
<line x1="411.429" y1="66.1631" x2="421.587" y2="63.5359"  stroke="#ffe100" />
<line x1="421.587" y1="63.5359" x2="431.746" y2="59.595"  stroke="#ffe100" />
<line x1="431.746" y1="59.595" x2="441.905" y2="59.595"  stroke="#ffe100" />
<line x1="441.905" y1="59.595" x2="452.063" y2="58.7192"  stroke="#ffe100" />
<line x1="452.063" y1="58.7192" x2="462.222" y2="58.7192"  stroke="#ffe100" />
<line x1="462.222" y1="58.7192" x2="472.381" y2="57.8435"  stroke="#ffe100" />
<line x1="472.381" y1="57.8435" x2="482.54" y2="56.9677"  stroke="#ffe100" />
<line x1="482.54" y1="56.9677" x2="492.698" y2="56.9677"  stroke="#ffe100" />
<line x1="492.698" y1="56.9677" x2="502.857" y2="56.092"  stroke="#ffe100" />
<line x1="502.857" y1="56.092" x2="513.016" y2="55.2162"  stroke="#ffe100" />
<line x1="513.016" y1="55.2162" x2="523.175" y2="54.3404"  stroke="#ffe100" />
<line x1="523.175" y1="54.3404" x2="533.333" y2="52.5889"  stroke="#ffe100" />
<line x1="533.333" y1="52.5889" x2="543.492" y2="50.3996"  stroke="#ffe100" />
<line x1="543.492" y1="50.3996" x2="553.651" y2="50.3996"  stroke="#ffe100" />
<line x1="553.651" y1="50.3996" x2="563.81" y2="50.3996"  stroke="#ffe100" />
<line x1="563.81" y1="50.3996" x2="573.968" y2="50.3996"  stroke="#ffe100" />
<line x1="66.0317" y1="430.476" x2="76.1905" y2="430.476"  stroke="#ff0000" />
<line x1="76.1905" y1="430.476" x2="86.3492" y2="429.163"  stroke="#ff0000" />
<line x1="86.3492" y1="429.163" x2="96.5079" y2="428.287"  stroke="#ff0000" />
<line x1="96.5079" y1="428.287" x2="106.667" y2="424.784"  stroke="#ff0000" />
<line x1="106.667" y1="424.784" x2="116.825" y2="420.405"  stroke="#ff0000" />
<line x1="116.825" y1="420.405" x2="126.984" y2="417.778"  stroke="#ff0000" />
<line x1="126.984" y1="417.778" x2="137.143" y2="412.523"  stroke="#ff0000" />
<line x1="137.143" y1="412.523" x2="147.302" y2="406.831"  stroke="#ff0000" />
<line x1="147.302" y1="406.831" x2="157.46" y2="399.387"  stroke="#ff0000" />
<line x1="157.46" y1="399.387" x2="167.619" y2="381.434"  stroke="#ff0000" />
<line x1="167.619" y1="381.434" x2="177.778" y2="366.108"  stroke="#ff0000" />
<line x1="177.778" y1="366.108" x2="187.937" y2="352.096"  stroke="#ff0000" />
<line x1="187.937" y1="352.096" x2="198.095" y2="331.954"  stroke="#ff0000" />
<line x1="198.095" y1="331.954" x2="208.254" y2="312.25"  stroke="#ff0000" />
<line x1="208.254" y1="312.25" x2="218.413" y2="292.983"  stroke="#ff0000" />
<line x1="218.413" y1="292.983" x2="228.571" y2="266.71"  stroke="#ff0000" />
<line x1="228.571" y1="266.71" x2="238.73" y2="232.994"  stroke="#ff0000" />
<line x1="238.73" y1="232.994" x2="248.889" y2="211.1"  stroke="#ff0000" />
<line x1="248.889" y1="211.1" x2="259.048" y2="191.834"  stroke="#ff0000" />
<line x1="259.048" y1="191.834" x2="269.206" y2="174.319"  stroke="#ff0000" />
<line x1="269.206" y1="174.319" x2="279.365" y2="158.993"  stroke="#ff0000" />
<line x1="279.365" y1="158.993" x2="289.524" y2="145.857"  stroke="#ff0000" />
<line x1="289.524" y1="145.857" x2="299.683" y2="136.223"  stroke="#ff0000" />
<line x1="299.683" y1="136.223" x2="309.841" y2="124.839"  stroke="#ff0000" />
<line x1="309.841" y1="124.839" x2="320" y2="116.957"  stroke="#ff0000" />
<line x1="320" y1="116.957" x2="330.159" y2="108.199"  stroke="#ff0000" />
<line x1="330.159" y1="108.199" x2="340.317" y2="105.572"  stroke="#ff0000" />
<line x1="340.317" y1="105.572" x2="350.476" y2="98.566"  stroke="#ff0000" />
<line x1="350.476" y1="98.566" x2="360.635" y2="89.8084"  stroke="#ff0000" />
<line x1="360.635" y1="89.8084" x2="370.794" y2="87.1812"  stroke="#ff0000" />
<line x1="370.794" y1="87.1812" x2="380.952" y2="82.8024"  stroke="#ff0000" />
<line x1="380.952" y1="82.8024" x2="391.111" y2="80.1752"  stroke="#ff0000" />
<line x1="391.111" y1="80.1752" x2="401.27" y2="74.9206"  stroke="#ff0000" />
<line x1="401.27" y1="74.9206" x2="411.429" y2="71.4176"  stroke="#ff0000" />
<line x1="411.429" y1="71.4176" x2="421.587" y2="67.9146"  stroke="#ff0000" />
<line x1="421.587" y1="67.9146" x2="431.746" y2="66.1631"  stroke="#ff0000" />
<line x1="431.746" y1="66.1631" x2="441.905" y2="62.6601"  stroke="#ff0000" />
<line x1="441.905" y1="62.6601" x2="452.063" y2="60.9086"  stroke="#ff0000" />
<line x1="452.063" y1="60.9086" x2="462.222" y2="57.4056"  stroke="#ff0000" />
<line x1="462.222" y1="57.4056" x2="472.381" y2="57.4056"  stroke="#ff0000" />
<line x1="472.381" y1="57.4056" x2="482.54" y2="54.7783"  stroke="#ff0000" />
<line x1="482.54" y1="54.7783" x2="492.698" y2="53.0268"  stroke="#ff0000" />
<line x1="492.698" y1="53.0268" x2="502.857" y2="52.1511"  stroke="#ff0000" />
<line x1="502.857" y1="52.1511" x2="513.016" y2="51.2753"  stroke="#ff0000" />
<line x1="513.016" y1="51.2753" x2="523.175" y2="50.3996"  stroke="#ff0000" />
<line x1="523.175" y1="50.3996" x2="533.333" y2="50.3996"  stroke="#ff0000" />
<line x1="533.333" y1="50.3996" x2="543.492" y2="50.3996"  stroke="#ff0000" />
<line x1="543.492" y1="50.3996" x2="553.651" y2="50.3996"  stroke="#ff0000" />
<line x1="553.651" y1="50.3996" x2="563.81" y2="50.3996"  stroke="#ff0000" />
<line x1="563.81" y1="50.3996" x2="573.968" y2="50.3996"  stroke="#ff0000" />
</svg>
