<?xml version="1.0" standalone="no"?>
<svg width="800px" height="400px" version="1.1" xmlns="http://www.w3.org/2000/svg" xmlns:xlink="http://www.w3.org/1999/xlink">
<rect x="0" y="0" width="800" height="400"  fill="#ffffff" />
<defs>
<g id="dot">
<line x1="1" y1="1" x2="0" y2="0"  />
</g>
<g id="cross">
<line x1="-3" y1="0" x2="3" y2="0"  />
<line x1="0" y1="-3" x2="0" y2="3"  />
</g>
<g id="square">
<line x1="-3" y1="-3" x2="-3" y2="3"  />
<line x1="-3" y1="3" x2="3" y2="3"  />
<line x1="3" y1="3" x2="3" y2="-3"  />
<line x1="3" y1="-3" x2="-3" y2="-3"  />
</g>
<g id="round">
<ellipse cx="0" cy="0" rx="3" ry="3"  fill="none" /></g>
<g id="triangle">
<line x1="0" y1="-3" x2="-3" y2="3"  />
<line x1="-3" y1="3" x2="3" y2="3"  />
<line x1="0" y1="-3" x2="3" y2="3"  />
</g>
</defs>
<line x1="82.5397" y1="200" x2="717.46" y2="200"  stroke="#7f7f7f" />
<g><title>element</title>
<g>
<line x1="377.407" y1="152.6" x2="377.407" y2="105.2"  stroke="#7f7fff" />
<line x1="377.407" y1="247.4" x2="377.407" y2="294.8"  stroke="#7f7fff" />
</g>
<g>
<polyline fill="none" stroke="#7f7fff" points="98.3068,105.779 97.6588,107.682 97.0254,109.586 96.4067,111.489 95.8025,113.393 95.2127,115.296 94.6373,117.2 94.076,119.103 93.5289,121.007 92.9959,122.91 92.4768,124.813 91.9717,126.717 91.4804,128.62 91.0028,130.524 90.5389,132.427 90.0886,134.331 89.6519,136.234 89.2287,138.138 88.8189,140.041 88.4225,141.945 88.0394,143.848 87.6695,145.752 87.3129,147.655 86.9694,149.558 86.639,151.462 86.3217,153.365 86.0174,155.269 85.7261,157.172 85.4478,159.076 85.1823,160.979 84.9298,162.883 84.69,164.786 84.4631,166.69 84.2489,168.593 84.0475,170.496 83.8588,172.4 83.6828,174.303 83.5194,176.207 83.3687,178.11 83.2306,180.014 83.1052,181.917 82.9923,183.821 82.892,185.724 82.8043,187.628 82.7291,189.531 82.6665,191.434 82.6164,193.338 82.5788,195.241 82.5538,197.145 82.5412,199.048 82.5412,200.952 82.5538,202.855 82.5788,204.759 82.6164,206.662 82.6665,208.566 82.7291,210.469 82.8043,212.372 82.892,214.276 82.9923,216.179 83.1052,218.083 83.2306,219.986 83.3687,221.89 83.5194,223.793 83.6828,225.697 83.8588,227.6 84.0475,229.504 84.2489,231.407 84.4631,233.31 84.69,235.214 84.9298,237.117 85.1823,239.021 85.4478,240.924 85.7261,242.828 86.0174,244.731 86.3217,246.635 86.639,248.538 86.9694,250.442 87.3129,252.345 87.6695,254.248 88.0394,256.152 88.4225,258.055 88.8189,259.959 89.2287,261.862 89.6519,263.766 90.0886,265.669 90.5389,267.573 91.0028,269.476 91.4804,271.38 91.9717,273.283 92.4768,275.187 92.9959,277.09 93.5289,278.993 94.076,280.897 94.6373,282.8 95.2127,284.704 95.8025,286.607 96.4067,288.511 97.0254,290.414 97.6588,292.318 98.3068,294.221 " />
<line x1="98.3068" y1="105.779" x2="101.661" y2="105.779"  stroke="#7f7fff" />
<line x1="98.3068" y1="294.221" x2="101.661" y2="294.221"  stroke="#7f7fff" />
<polyline fill="none" stroke="#7f7fff" points="101.661,105.779 102.103,107.682 102.536,109.586 102.959,111.489 103.373,113.393 103.777,115.296 104.172,117.2 104.558,119.103 104.934,121.007 105.301,122.91 105.659,124.813 106.007,126.717 106.346,128.62 106.676,130.524 106.997,132.427 107.309,134.331 107.611,136.234 107.905,138.138 108.189,140.041 108.464,141.945 108.731,143.848 108.988,145.752 109.236,147.655 109.475,149.558 109.705,151.462 109.926,153.365 110.139,155.269 110.342,157.172 110.536,159.076 110.722,160.979 110.898,162.883 111.066,164.786 111.225,166.69 111.374,168.593 111.515,170.496 111.648,172.4 111.771,174.303 111.885,176.207 111.991,178.11 112.088,180.014 112.176,181.917 112.255,183.821 112.325,185.724 112.387,187.628 112.44,189.531 112.483,191.434 112.519,193.338 112.545,195.241 112.563,197.145 112.571,199.048 112.571,200.952 112.563,202.855 112.545,204.759 112.519,206.662 112.483,208.566 112.44,210.469 112.387,212.372 112.325,214.276 112.255,216.179 112.176,218.083 112.088,219.986 111.991,221.89 111.885,223.793 111.771,225.697 111.648,227.6 111.515,229.504 111.374,231.407 111.225,233.31 111.066,235.214 110.898,237.117 110.722,239.021 110.536,240.924 110.342,242.828 110.139,244.731 109.926,246.635 109.705,248.538 109.475,250.442 109.236,252.345 108.988,254.248 108.731,256.152 108.464,258.055 108.189,259.959 107.905,261.862 107.611,263.766 107.309,265.669 106.997,267.573 106.676,269.476 106.346,271.38 106.007,273.283 105.659,275.187 105.301,277.09 104.934,278.993 104.558,280.897 104.172,282.8 103.777,284.704 103.373,286.607 102.959,288.511 102.536,290.414 102.103,292.318 101.661,294.221 " />
</g>
<g>
<polyline fill="none" stroke="#7f7fff" points="113.114,110.257 113.534,112.07 113.946,113.883 114.348,115.696 114.742,117.509 115.127,119.322 115.502,121.135 115.869,122.948 116.227,124.761 116.576,126.574 116.916,128.387 117.248,130.2 117.57,132.013 117.884,133.826 118.19,135.639 118.486,137.452 118.774,139.265 119.053,141.078 119.324,142.891 119.585,144.704 119.839,146.517 120.083,148.33 120.319,150.143 120.547,151.956 120.766,153.769 120.976,155.582 121.178,157.395 121.372,159.208 121.556,161.021 121.733,162.834 121.901,164.647 122.06,166.46 122.211,168.273 122.354,170.086 122.488,171.899 122.614,173.712 122.731,175.525 122.84,177.338 122.94,179.151 123.032,180.964 123.116,182.777 123.191,184.59 123.258,186.403 123.317,188.216 123.367,190.029 123.409,191.842 123.442,193.655 123.467,195.468 123.484,197.281 123.492,199.094 123.492,200.906 123.484,202.719 123.467,204.532 123.442,206.345 123.409,208.158 123.367,209.971 123.317,211.784 123.258,213.597 123.191,215.41 123.116,217.223 123.032,219.036 122.94,220.849 122.84,222.662 122.731,224.475 122.614,226.288 122.488,228.101 122.354,229.914 122.211,231.727 122.06,233.54 121.901,235.353 121.733,237.166 121.556,238.979 121.372,240.792 121.178,242.605 120.976,244.418 120.766,246.231 120.547,248.044 120.319,249.857 120.083,251.67 119.839,253.483 119.585,255.296 119.324,257.109 119.053,258.922 118.774,260.735 118.486,262.548 118.19,264.361 117.884,266.174 117.57,267.987 117.248,269.8 116.916,271.613 116.576,273.426 116.227,275.239 115.869,277.052 115.502,278.865 115.127,280.678 114.742,282.491 114.348,284.304 113.946,286.117 113.534,287.93 113.114,289.743 " />
<line x1="143.146" y1="110.257" x2="143.146" y2="110.53"  stroke="#7f7fff" />
<line x1="113.114" y1="110.257" x2="143.146" y2="110.257"  stroke="#7f7fff" />
<line x1="143.146" y1="289.743" x2="143.146" y2="289.47"  stroke="#7f7fff" />
<line x1="113.114" y1="289.743" x2="143.146" y2="289.743"  stroke="#7f7fff" />
<polyline fill="none" stroke="#7f7fff" points="143.146,110.53 142.68,112.337 142.225,114.145 141.779,115.952 141.344,117.76 140.918,119.567 140.502,121.374 140.097,123.182 139.701,124.989 139.315,126.797 138.939,128.604 138.573,130.412 138.216,132.219 137.87,134.027 137.532,135.834 137.205,137.642 136.887,139.449 136.579,141.257 136.281,143.064 135.992,144.872 135.712,146.679 135.442,148.487 135.182,150.294 134.931,152.102 134.69,153.909 134.458,155.717 134.235,157.524 134.022,159.332 133.818,161.139 133.624,162.947 133.439,164.754 133.263,166.562 133.097,168.369 132.939,170.177 132.792,171.984 132.653,173.791 132.524,175.599 132.404,177.406 132.293,179.214 132.192,181.021 132.1,182.829 132.017,184.636 131.943,186.444 131.879,188.251 131.824,190.059 131.777,191.866 131.741,193.674 131.713,195.481 131.695,197.289 131.685,199.096 131.685,200.904 131.695,202.711 131.713,204.519 131.741,206.326 131.777,208.134 131.824,209.941 131.879,211.749 131.943,213.556 132.017,215.364 132.1,217.171 132.192,218.979 132.293,220.786 132.404,222.594 132.524,224.401 132.653,226.209 132.792,228.016 132.939,229.823 133.097,231.631 133.263,233.438 133.439,235.246 133.624,237.053 133.818,238.861 134.022,240.668 134.235,242.476 134.458,244.283 134.69,246.091 134.931,247.898 135.182,249.706 135.442,251.513 135.712,253.321 135.992,255.128 136.281,256.936 136.579,258.743 136.887,260.551 137.205,262.358 137.532,264.166 137.87,265.973 138.216,267.781 138.573,269.588 138.939,271.396 139.315,273.203 139.701,275.011 140.097,276.818 140.502,278.626 140.918,280.433 141.344,282.24 141.779,284.048 142.225,285.855 142.68,287.663 143.146,289.47 " />
<line x1="166.662" y1="110.53" x2="166.662" y2="111.376"  stroke="#7f7fff" />
<line x1="143.146" y1="110.53" x2="166.662" y2="110.53"  stroke="#7f7fff" />
<line x1="166.662" y1="289.47" x2="166.662" y2="288.624"  stroke="#7f7fff" />
<line x1="143.146" y1="289.47" x2="166.662" y2="289.47"  stroke="#7f7fff" />
<polyline fill="none" stroke="#7f7fff" points="166.662,111.376 166.573,113.166 166.486,114.957 166.401,116.747 166.318,118.537 166.237,120.328 166.157,122.118 166.079,123.909 166.003,125.699 165.929,127.489 165.857,129.28 165.786,131.07 165.718,132.861 165.651,134.651 165.586,136.441 165.523,138.232 165.461,140.022 165.401,141.812 165.344,143.603 165.288,145.393 165.233,147.184 165.181,148.974 165.13,150.764 165.082,152.555 165.035,154.345 164.989,156.136 164.946,157.926 164.905,159.716 164.865,161.507 164.827,163.297 164.791,165.087 164.756,166.878 164.724,168.668 164.693,170.459 164.664,172.249 164.637,174.039 164.612,175.83 164.588,177.62 164.567,179.411 164.547,181.201 164.529,182.991 164.513,184.782 164.498,186.572 164.485,188.362 164.475,190.153 164.466,191.943 164.458,193.734 164.453,195.524 164.449,197.314 164.448,199.105 164.448,200.895 164.449,202.686 164.453,204.476 164.458,206.266 164.466,208.057 164.475,209.847 164.485,211.638 164.498,213.428 164.513,215.218 164.529,217.009 164.547,218.799 164.567,220.589 164.588,222.38 164.612,224.17 164.637,225.961 164.664,227.751 164.693,229.541 164.724,231.332 164.756,233.122 164.791,234.913 164.827,236.703 164.865,238.493 164.905,240.284 164.946,242.074 164.989,243.864 165.035,245.655 165.082,247.445 165.13,249.236 165.181,251.026 165.233,252.816 165.288,254.607 165.344,256.397 165.401,258.188 165.461,259.978 165.523,261.768 165.586,263.559 165.651,265.349 165.718,267.139 165.786,268.93 165.857,270.72 165.929,272.511 166.003,274.301 166.079,276.091 166.157,277.882 166.237,279.672 166.318,281.463 166.401,283.253 166.486,285.043 166.573,286.834 166.662,288.624 " />
</g>
<g>
<polyline fill="none" stroke="#7f7fff" points="182.788,111.376 182.145,113.166 181.516,114.957 180.902,116.747 180.302,118.537 179.717,120.328 179.146,122.118 178.59,123.909 178.048,125.699 177.519,127.489 177.005,129.28 176.504,131.07 176.018,132.861 175.545,134.651 175.086,136.441 174.64,138.232 174.208,140.022 173.789,141.812 173.383,143.603 172.991,145.393 172.612,147.184 172.246,148.974 171.893,150.764 171.554,152.555 171.227,154.345 170.914,156.136 170.613,157.926 170.325,159.716 170.05,161.507 169.788,163.297 169.538,165.087 169.301,166.878 169.077,168.668 168.865,170.459 168.666,172.249 168.48,174.039 168.306,175.83 168.145,177.62 167.996,179.411 167.86,181.201 167.736,182.991 167.624,184.782 167.525,186.572 167.439,188.362 167.365,190.153 167.303,191.943 167.253,193.734 167.216,195.524 167.191,197.314 167.179,199.105 167.179,200.895 167.191,202.686 167.216,204.476 167.253,206.266 167.303,208.057 167.365,209.847 167.439,211.638 167.525,213.428 167.624,215.218 167.736,217.009 167.86,218.799 167.996,220.589 168.145,222.38 168.306,224.17 168.48,225.961 168.666,227.751 168.865,229.541 169.077,231.332 169.301,233.122 169.538,234.913 169.788,236.703 170.05,238.493 170.325,240.284 170.613,242.074 170.914,243.864 171.227,245.655 171.554,247.445 171.893,249.236 172.246,251.026 172.612,252.816 172.991,254.607 173.383,256.397 173.789,258.188 174.208,259.978 174.64,261.768 175.086,263.559 175.545,265.349 176.018,267.139 176.504,268.93 177.005,270.72 177.519,272.511 178.048,274.301 178.59,276.091 179.146,277.882 179.717,279.672 180.302,281.463 180.902,283.253 181.516,285.043 182.145,286.834 182.788,288.624 " />
<line x1="182.788" y1="111.376" x2="189.838" y2="111.376"  stroke="#7f7fff" />
<line x1="182.788" y1="288.624" x2="189.838" y2="288.624"  stroke="#7f7fff" />
<polyline fill="none" stroke="#7f7fff" points="189.838,111.376 189.772,113.166 189.708,114.957 189.645,116.747 189.584,118.537 189.524,120.328 189.465,122.118 189.407,123.909 189.351,125.699 189.296,127.489 189.243,129.28 189.191,131.07 189.14,132.861 189.091,134.651 189.043,136.441 188.996,138.232 188.95,140.022 188.906,141.812 188.863,143.603 188.822,145.393 188.782,147.184 188.743,148.974 188.706,150.764 188.67,152.555 188.635,154.345 188.602,156.136 188.569,157.926 188.539,159.716 188.509,161.507 188.481,163.297 188.455,165.087 188.429,166.878 188.405,168.668 188.382,170.459 188.361,172.249 188.341,174.039 188.322,175.83 188.305,177.62 188.289,179.411 188.274,181.201 188.261,182.991 188.249,184.782 188.238,186.572 188.229,188.362 188.221,190.153 188.214,191.943 188.209,193.734 188.205,195.524 188.202,197.314 188.201,199.105 188.201,200.895 188.202,202.686 188.205,204.476 188.209,206.266 188.214,208.057 188.221,209.847 188.229,211.638 188.238,213.428 188.249,215.218 188.261,217.009 188.274,218.799 188.289,220.589 188.305,222.38 188.322,224.17 188.341,225.961 188.361,227.751 188.382,229.541 188.405,231.332 188.429,233.122 188.455,234.913 188.481,236.703 188.509,238.493 188.539,240.284 188.569,242.074 188.602,243.864 188.635,245.655 188.67,247.445 188.706,249.236 188.743,251.026 188.782,252.816 188.822,254.607 188.863,256.397 188.906,258.188 188.95,259.978 188.996,261.768 189.043,263.559 189.091,265.349 189.14,267.139 189.191,268.93 189.243,270.72 189.296,272.511 189.351,274.301 189.407,276.091 189.465,277.882 189.524,279.672 189.584,281.463 189.645,283.253 189.708,285.043 189.772,286.834 189.838,288.624 " />
</g>
<g>
<polyline fill="none" stroke="#7f7fff" points="506.945,160.138 507.233,160.944 507.514,161.749 507.788,162.554 508.056,163.359 508.317,164.165 508.572,164.97 508.821,165.775 509.063,166.581 509.299,167.386 509.529,168.191 509.752,168.996 509.97,169.802 510.181,170.607 510.386,171.412 510.585,172.218 510.778,173.023 510.965,173.828 511.147,174.633 511.322,175.439 511.491,176.244 511.655,177.049 511.812,177.855 511.964,178.66 512.11,179.465 512.25,180.27 512.385,181.076 512.513,181.881 512.636,182.686 512.753,183.492 512.865,184.297 512.971,185.102 513.071,185.907 513.166,186.713 513.254,187.518 513.338,188.323 513.415,189.129 513.488,189.934 513.554,190.739 513.615,191.544 513.67,192.35 513.72,193.155 513.764,193.96 513.803,194.766 513.836,195.571 513.864,196.376 513.886,197.181 513.903,197.987 513.914,198.792 513.919,199.597 513.919,200.403 513.914,201.208 513.903,202.013 513.886,202.819 513.864,203.624 513.836,204.429 513.803,205.234 513.764,206.04 513.72,206.845 513.67,207.65 513.615,208.456 513.554,209.261 513.488,210.066 513.415,210.871 513.338,211.677 513.254,212.482 513.166,213.287 513.071,214.093 512.971,214.898 512.865,215.703 512.753,216.508 512.636,217.314 512.513,218.119 512.385,218.924 512.25,219.73 512.11,220.535 511.964,221.34 511.812,222.145 511.655,222.951 511.491,223.756 511.322,224.561 511.147,225.367 510.965,226.172 510.778,226.977 510.585,227.782 510.386,228.588 510.181,229.393 509.97,230.198 509.752,231.004 509.529,231.809 509.299,232.614 509.063,233.419 508.821,234.225 508.572,235.03 508.317,235.835 508.056,236.641 507.788,237.446 507.514,238.251 507.233,239.056 506.945,239.862 " />
<line x1="506.945" y1="160.138" x2="518.595" y2="160.138"  stroke="#7f7fff" />
<line x1="506.945" y1="239.862" x2="518.595" y2="239.862"  stroke="#7f7fff" />
<polyline fill="none" stroke="#7f7fff" points="518.595,160.138 518.517,160.944 518.44,161.749 518.366,162.554 518.292,163.359 518.221,164.165 518.151,164.97 518.083,165.775 518.016,166.581 517.951,167.386 517.887,168.191 517.825,168.996 517.765,169.802 517.706,170.607 517.649,171.412 517.594,172.218 517.54,173.023 517.487,173.828 517.436,174.633 517.387,175.439 517.34,176.244 517.294,177.049 517.249,177.855 517.206,178.66 517.165,179.465 517.126,180.27 517.088,181.076 517.051,181.881 517.016,182.686 516.983,183.492 516.951,184.297 516.921,185.102 516.893,185.907 516.866,186.713 516.84,187.518 516.817,188.323 516.794,189.129 516.774,189.934 516.755,190.739 516.737,191.544 516.722,192.35 516.707,193.155 516.695,193.96 516.684,194.766 516.674,195.571 516.666,196.376 516.66,197.181 516.655,197.987 516.652,198.792 516.65,199.597 516.65,200.403 516.652,201.208 516.655,202.013 516.66,202.819 516.666,203.624 516.674,204.429 516.684,205.234 516.695,206.04 516.707,206.845 516.722,207.65 516.737,208.456 516.755,209.261 516.774,210.066 516.794,210.871 516.817,211.677 516.84,212.482 516.866,213.287 516.893,214.093 516.921,214.898 516.951,215.703 516.983,216.508 517.016,217.314 517.051,218.119 517.088,218.924 517.126,219.73 517.165,220.535 517.206,221.34 517.249,222.145 517.294,222.951 517.34,223.756 517.387,224.561 517.436,225.367 517.487,226.172 517.54,226.977 517.594,227.782 517.649,228.588 517.706,229.393 517.765,230.198 517.825,231.004 517.887,231.809 517.951,232.614 518.016,233.419 518.083,234.225 518.151,235.03 518.221,235.835 518.292,236.641 518.366,237.446 518.44,238.251 518.517,239.056 518.595,239.862 " />
<line x1="518.595" y1="160.138" x2="523.416" y2="160.138"  stroke="#7f7fff" />
<line x1="518.595" y1="239.862" x2="523.416" y2="239.862"  stroke="#7f7fff" />
<polyline fill="none" stroke="#7f7fff" points="523.416,160.138 523.528,160.944 523.638,161.749 523.746,162.554 523.851,163.359 523.954,164.165 524.054,164.97 524.152,165.775 524.248,166.581 524.342,167.386 524.433,168.191 524.522,168.996 524.608,169.802 524.693,170.607 524.775,171.412 524.854,172.218 524.932,173.023 525.007,173.828 525.08,174.633 525.15,175.439 525.218,176.244 525.284,177.049 525.348,177.855 525.409,178.66 525.468,179.465 525.525,180.27 525.58,181.076 525.632,181.881 525.682,182.686 525.729,183.492 525.775,184.297 525.818,185.102 525.859,185.907 525.897,186.713 525.934,187.518 525.968,188.323 525.999,189.129 526.029,189.934 526.056,190.739 526.081,191.544 526.104,192.35 526.124,193.155 526.142,193.96 526.158,194.766 526.172,195.571 526.183,196.376 526.192,197.181 526.199,197.987 526.203,198.792 526.206,199.597 526.206,200.403 526.203,201.208 526.199,202.013 526.192,202.819 526.183,203.624 526.172,204.429 526.158,205.234 526.142,206.04 526.124,206.845 526.104,207.65 526.081,208.456 526.056,209.261 526.029,210.066 525.999,210.871 525.968,211.677 525.934,212.482 525.897,213.287 525.859,214.093 525.818,214.898 525.775,215.703 525.729,216.508 525.682,217.314 525.632,218.119 525.58,218.924 525.525,219.73 525.468,220.535 525.409,221.34 525.348,222.145 525.284,222.951 525.218,223.756 525.15,224.561 525.08,225.367 525.007,226.172 524.932,226.977 524.854,227.782 524.775,228.588 524.693,229.393 524.608,230.198 524.522,231.004 524.433,231.809 524.342,232.614 524.248,233.419 524.152,234.225 524.054,235.03 523.954,235.835 523.851,236.641 523.746,237.446 523.638,238.251 523.528,239.056 523.416,239.862 " />
</g>
</g>
<g><title>element</title>
<polyline fill="none" stroke="#7f7fff" points="717.46,82.053 717.46,84.4358 717.46,86.8185 717.46,89.2013 717.46,91.5841 717.46,93.9669 717.46,96.3496 717.46,98.7324 717.46,101.115 717.46,103.498 717.46,105.881 717.46,108.263 717.46,110.646 717.46,113.029 717.46,115.412 717.46,117.795 717.46,120.177 717.46,122.56 717.46,124.943 717.46,127.326 717.46,129.708 717.46,132.091 717.46,134.474 717.46,136.857 717.46,139.239 717.46,141.622 717.46,144.005 717.46,146.388 717.46,148.771 717.46,151.153 717.46,153.536 717.46,155.919 717.46,158.302 717.46,160.684 717.46,163.067 717.46,165.45 717.46,167.833 717.46,170.215 717.46,172.598 717.46,174.981 717.46,177.364 717.46,179.746 717.46,182.129 717.46,184.512 717.46,186.895 717.46,189.278 717.46,191.66 717.46,194.043 717.46,196.426 717.46,198.809 717.46,201.191 717.46,203.574 717.46,205.957 717.46,208.34 717.46,210.722 717.46,213.105 717.46,215.488 717.46,217.871 717.46,220.254 717.46,222.636 717.46,225.019 717.46,227.402 717.46,229.785 717.46,232.167 717.46,234.55 717.46,236.933 717.46,239.316 717.46,241.698 717.46,244.081 717.46,246.464 717.46,248.847 717.46,251.229 717.46,253.612 717.46,255.995 717.46,258.378 717.46,260.761 717.46,263.143 717.46,265.526 717.46,267.909 717.46,270.292 717.46,272.674 717.46,275.057 717.46,277.44 717.46,279.823 717.46,282.205 717.46,284.588 717.46,286.971 717.46,289.354 717.46,291.737 717.46,294.119 717.46,296.502 717.46,298.885 717.46,301.268 717.46,303.65 717.46,306.033 717.46,308.416 717.46,310.799 717.46,313.181 717.46,315.564 717.46,317.947 " />
</g>
<g><title>element</title>
</g>
<g><title>rays</title>
<g><title>ray</title>
<line x1="526.206" y1="200" x2="717.46" y2="200"  stroke="#ffe100" />
<line x1="516.65" y1="200" x2="526.206" y2="200"  stroke="#ffe100" />
<line x1="513.92" y1="200" x2="516.65" y2="200"  stroke="#ffe100" />
<line x1="377.407" y1="200" x2="513.92" y2="200"  stroke="#ffe100" />
<line x1="188.201" y1="200" x2="377.407" y2="200"  stroke="#ffe100" />
<line x1="167.178" y1="200" x2="188.201" y2="200"  stroke="#ffe100" />
<line x1="164.447" y1="200" x2="167.178" y2="200"  stroke="#ffe100" />
<line x1="131.684" y1="200" x2="164.447" y2="200"  stroke="#ffe100" />
<line x1="123.493" y1="200" x2="131.684" y2="200"  stroke="#ffe100" />
<line x1="112.572" y1="200" x2="123.493" y2="200"  stroke="#ffe100" />
<line x1="82.5397" y1="200" x2="112.572" y2="200"  stroke="#ffe100" />
<line x1="-2647.71" y1="200" x2="82.5397" y2="200"  stroke="#ffe100" />
</g>
<g><title>ray</title>
<line x1="526.206" y1="200" x2="717.46" y2="200"  stroke="#ff0000" />
<line x1="516.65" y1="200" x2="526.206" y2="200"  stroke="#ff0000" />
<line x1="513.92" y1="200" x2="516.65" y2="200"  stroke="#ff0000" />
<line x1="377.407" y1="200" x2="513.92" y2="200"  stroke="#ff0000" />
<line x1="188.201" y1="200" x2="377.407" y2="200"  stroke="#ff0000" />
<line x1="167.178" y1="200" x2="188.201" y2="200"  stroke="#ff0000" />
<line x1="164.447" y1="200" x2="167.178" y2="200"  stroke="#ff0000" />
<line x1="131.684" y1="200" x2="164.447" y2="200"  stroke="#ff0000" />
<line x1="123.493" y1="200" x2="131.684" y2="200"  stroke="#ff0000" />
<line x1="112.572" y1="200" x2="123.493" y2="200"  stroke="#ff0000" />
<line x1="82.5397" y1="200" x2="112.572" y2="200"  stroke="#ff0000" />
<line x1="-2647.71" y1="200" x2="82.5397" y2="200"  stroke="#ff0000" />
</g>
<g><title>ray</title>
<line x1="526.206" y1="200" x2="717.46" y2="200"  stroke="#00ebff" />
<line x1="516.65" y1="200" x2="526.206" y2="200"  stroke="#00ebff" />
<line x1="513.92" y1="200" x2="516.65" y2="200"  stroke="#00ebff" />
<line x1="377.407" y1="200" x2="513.92" y2="200"  stroke="#00ebff" />
<line x1="188.201" y1="200" x2="377.407" y2="200"  stroke="#00ebff" />
<line x1="167.178" y1="200" x2="188.201" y2="200"  stroke="#00ebff" />
<line x1="164.447" y1="200" x2="167.178" y2="200"  stroke="#00ebff" />
<line x1="131.684" y1="200" x2="164.447" y2="200"  stroke="#00ebff" />
<line x1="123.493" y1="200" x2="131.684" y2="200"  stroke="#00ebff" />
<line x1="112.572" y1="200" x2="123.493" y2="200"  stroke="#00ebff" />
<line x1="82.5397" y1="200" x2="112.572" y2="200"  stroke="#00ebff" />
<line x1="-2647.71" y1="200" x2="82.5397" y2="200"  stroke="#00ebff" />
</g>
<g><title>ray</title>
<line x1="98.2744" y1="105.873" x2="101.774" y2="106.262"  stroke="#ffe100" />
<line x1="-2647.71" y1="105.873" x2="98.2744" y2="105.873"  stroke="#ffe100" />
</g>
<g><title>ray</title>
<line x1="98.2744" y1="105.873" x2="101.774" y2="106.261"  stroke="#ff0000" />
<line x1="-2647.71" y1="105.873" x2="98.2744" y2="105.873"  stroke="#ff0000" />
</g>
<g><title>ray</title>
<line x1="98.2744" y1="105.873" x2="101.775" y2="106.264"  stroke="#00ebff" />
<line x1="-2647.71" y1="105.873" x2="98.2744" y2="105.873"  stroke="#00ebff" />
</g>
<g><title>ray</title>
<line x1="98.2744" y1="294.127" x2="101.774" y2="293.738"  stroke="#ffe100" />
<line x1="-2647.71" y1="294.127" x2="98.2744" y2="294.127"  stroke="#ffe100" />
</g>
<g><title>ray</title>
<line x1="98.2744" y1="294.127" x2="101.774" y2="293.739"  stroke="#ff0000" />
<line x1="-2647.71" y1="294.127" x2="98.2744" y2="294.127"  stroke="#ff0000" />
</g>
<g><title>ray</title>
<line x1="98.2744" y1="294.127" x2="101.775" y2="293.736"  stroke="#00ebff" />
<line x1="-2647.71" y1="294.127" x2="98.2744" y2="294.127"  stroke="#00ebff" />
</g>
<g><title>ray</title>
<line x1="525.509" y1="180.04" x2="717.46" y2="200.001"  stroke="#ffe100" />
<line x1="517.152" y1="179.732" x2="525.509" y2="180.04"  stroke="#ffe100" />
<line x1="512.124" y1="179.546" x2="517.152" y2="179.732"  stroke="#ffe100" />
<line x1="377.407" y1="156.023" x2="512.124" y2="179.546"  stroke="#ffe100" />
<line x1="189.43" y1="123.199" x2="377.407" y2="156.023"  stroke="#ffe100" />
<line x1="179.216" y1="121.899" x2="189.43" y2="123.199"  stroke="#ffe100" />
<line x1="166.188" y1="121.407" x2="179.216" y2="121.899"  stroke="#ffe100" />
<line x1="140.73" y1="120.381" x2="166.188" y2="121.407"  stroke="#ffe100" />
<line x1="115.071" y1="119.056" x2="140.73" y2="120.381"  stroke="#ffe100" />
<line x1="103.956" y1="116.152" x2="115.071" y2="119.056"  stroke="#ffe100" />
<line x1="95.2159" y1="115.286" x2="103.956" y2="116.152"  stroke="#ffe100" />
<line x1="-2647.71" y1="115.286" x2="95.2159" y2="115.286"  stroke="#ffe100" />
</g>
<g><title>ray</title>
<line x1="525.507" y1="180.011" x2="717.46" y2="199.95"  stroke="#ff0000" />
<line x1="517.154" y1="179.7" x2="525.507" y2="180.011"  stroke="#ff0000" />
<line x1="512.119" y1="179.513" x2="517.154" y2="179.7"  stroke="#ff0000" />
<line x1="377.407" y1="156.005" x2="512.119" y2="179.513"  stroke="#ff0000" />
<line x1="189.43" y1="123.202" x2="377.407" y2="156.005"  stroke="#ff0000" />
<line x1="179.215" y1="121.901" x2="189.43" y2="123.202"  stroke="#ff0000" />
<line x1="166.189" y1="121.403" x2="179.215" y2="121.901"  stroke="#ff0000" />
<line x1="140.732" y1="120.371" x2="166.189" y2="121.403"  stroke="#ff0000" />
<line x1="115.068" y1="119.041" x2="140.732" y2="120.371"  stroke="#ff0000" />
<line x1="103.955" y1="116.15" x2="115.068" y2="119.041"  stroke="#ff0000" />
<line x1="95.2159" y1="115.286" x2="103.955" y2="116.15"  stroke="#ff0000" />
<line x1="-2647.71" y1="115.286" x2="95.2159" y2="115.286"  stroke="#ff0000" />
</g>
<g><title>ray</title>
<line x1="525.507" y1="180.016" x2="717.46" y2="199.939"  stroke="#00ebff" />
<line x1="517.153" y1="179.715" x2="525.507" y2="180.016"  stroke="#00ebff" />
<line x1="512.122" y1="179.534" x2="517.153" y2="179.715"  stroke="#00ebff" />
<line x1="377.407" y1="156.009" x2="512.122" y2="179.534"  stroke="#00ebff" />
<line x1="189.431" y1="123.183" x2="377.407" y2="156.009"  stroke="#00ebff" />
<line x1="179.22" y1="121.885" x2="189.431" y2="123.183"  stroke="#00ebff" />
<line x1="166.188" y1="121.409" x2="179.22" y2="121.885"  stroke="#00ebff" />
<line x1="140.725" y1="120.399" x2="166.188" y2="121.409"  stroke="#00ebff" />
<line x1="115.078" y1="119.089" x2="140.725" y2="120.399"  stroke="#00ebff" />
<line x1="103.957" y1="116.157" x2="115.078" y2="119.089"  stroke="#00ebff" />
<line x1="95.2159" y1="115.286" x2="103.957" y2="116.157"  stroke="#00ebff" />
<line x1="-2647.71" y1="115.286" x2="95.2159" y2="115.286"  stroke="#00ebff" />
</g>
<g><title>ray</title>
<line x1="525.509" y1="219.96" x2="717.46" y2="199.999"  stroke="#ffe100" />
<line x1="517.152" y1="220.268" x2="525.509" y2="219.96"  stroke="#ffe100" />
<line x1="512.124" y1="220.454" x2="517.152" y2="220.268"  stroke="#ffe100" />
<line x1="377.407" y1="243.977" x2="512.124" y2="220.454"  stroke="#ffe100" />
<line x1="189.43" y1="276.801" x2="377.407" y2="243.977"  stroke="#ffe100" />
<line x1="179.216" y1="278.101" x2="189.43" y2="276.801"  stroke="#ffe100" />
<line x1="166.188" y1="278.593" x2="179.216" y2="278.101"  stroke="#ffe100" />
<line x1="140.73" y1="279.619" x2="166.188" y2="278.593"  stroke="#ffe100" />
<line x1="115.071" y1="280.944" x2="140.73" y2="279.619"  stroke="#ffe100" />
<line x1="103.956" y1="283.848" x2="115.071" y2="280.944"  stroke="#ffe100" />
<line x1="95.2159" y1="284.714" x2="103.956" y2="283.848"  stroke="#ffe100" />
<line x1="-2647.71" y1="284.714" x2="95.2159" y2="284.714"  stroke="#ffe100" />
</g>
<g><title>ray</title>
<line x1="525.507" y1="219.989" x2="717.46" y2="200.05"  stroke="#ff0000" />
<line x1="517.154" y1="220.3" x2="525.507" y2="219.989"  stroke="#ff0000" />
<line x1="512.119" y1="220.487" x2="517.154" y2="220.3"  stroke="#ff0000" />
<line x1="377.407" y1="243.995" x2="512.119" y2="220.487"  stroke="#ff0000" />
<line x1="189.43" y1="276.798" x2="377.407" y2="243.995"  stroke="#ff0000" />
<line x1="179.215" y1="278.099" x2="189.43" y2="276.798"  stroke="#ff0000" />
<line x1="166.189" y1="278.597" x2="179.215" y2="278.099"  stroke="#ff0000" />
<line x1="140.732" y1="279.629" x2="166.189" y2="278.597"  stroke="#ff0000" />
<line x1="115.068" y1="280.959" x2="140.732" y2="279.629"  stroke="#ff0000" />
<line x1="103.955" y1="283.85" x2="115.068" y2="280.959"  stroke="#ff0000" />
<line x1="95.2159" y1="284.714" x2="103.955" y2="283.85"  stroke="#ff0000" />
<line x1="-2647.71" y1="284.714" x2="95.2159" y2="284.714"  stroke="#ff0000" />
</g>
<g><title>ray</title>
<line x1="525.507" y1="219.984" x2="717.46" y2="200.061"  stroke="#00ebff" />
<line x1="517.153" y1="220.285" x2="525.507" y2="219.984"  stroke="#00ebff" />
<line x1="512.122" y1="220.466" x2="517.153" y2="220.285"  stroke="#00ebff" />
<line x1="377.407" y1="243.991" x2="512.122" y2="220.466"  stroke="#00ebff" />
<line x1="189.431" y1="276.817" x2="377.407" y2="243.991"  stroke="#00ebff" />
<line x1="179.22" y1="278.115" x2="189.431" y2="276.817"  stroke="#00ebff" />
<line x1="166.188" y1="278.591" x2="179.22" y2="278.115"  stroke="#00ebff" />
<line x1="140.725" y1="279.601" x2="166.188" y2="278.591"  stroke="#00ebff" />
<line x1="115.078" y1="280.911" x2="140.725" y2="279.601"  stroke="#00ebff" />
<line x1="103.957" y1="283.843" x2="115.078" y2="280.911"  stroke="#00ebff" />
<line x1="95.2159" y1="284.714" x2="103.957" y2="283.843"  stroke="#00ebff" />
<line x1="-2647.71" y1="284.714" x2="95.2159" y2="284.714"  stroke="#00ebff" />
</g>
<g><title>ray</title>
<line x1="525.658" y1="182.292" x2="717.46" y2="200.004"  stroke="#ffe100" />
<line x1="517.045" y1="182.009" x2="525.658" y2="182.292"  stroke="#ffe100" />
<line x1="512.51" y1="181.859" x2="517.045" y2="182.009"  stroke="#ffe100" />
<line x1="377.407" y1="161.078" x2="512.51" y2="181.859"  stroke="#ffe100" />
<line x1="189.161" y1="132.122" x2="377.407" y2="161.078"  stroke="#ffe100" />
<line x1="176.603" y1="130.712" x2="189.161" y2="132.122"  stroke="#ffe100" />
<line x1="165.815" y1="130.35" x2="176.603" y2="130.712"  stroke="#ffe100" />
<line x1="138.78" y1="129.383" x2="165.815" y2="130.35"  stroke="#ffe100" />
<line x1="116.916" y1="128.382" x2="138.78" y2="129.383"  stroke="#ffe100" />
<line x1="105.852" y1="125.865" x2="116.916" y2="128.382"  stroke="#ffe100" />
<line x1="92.5078" y1="124.699" x2="105.852" y2="125.865"  stroke="#ffe100" />
<line x1="-2647.71" y1="124.699" x2="92.5078" y2="124.699"  stroke="#ffe100" />
</g>
<g><title>ray</title>
<line x1="525.656" y1="182.265" x2="717.46" y2="199.958"  stroke="#ff0000" />
<line x1="517.047" y1="181.98" x2="525.656" y2="182.265"  stroke="#ff0000" />
<line x1="512.505" y1="181.829" x2="517.047" y2="181.98"  stroke="#ff0000" />
<line x1="377.407" y1="161.061" x2="512.505" y2="181.829"  stroke="#ff0000" />
<line x1="189.161" y1="132.123" x2="377.407" y2="161.061"  stroke="#ff0000" />
<line x1="176.603" y1="130.712" x2="189.161" y2="132.123"  stroke="#ff0000" />
<line x1="165.815" y1="130.346" x2="176.603" y2="130.712"  stroke="#ff0000" />
<line x1="138.782" y1="129.373" x2="165.815" y2="130.346"  stroke="#ff0000" />
<line x1="116.913" y1="128.369" x2="138.782" y2="129.373"  stroke="#ff0000" />
<line x1="105.852" y1="125.862" x2="116.913" y2="128.369"  stroke="#ff0000" />
<line x1="92.5078" y1="124.699" x2="105.852" y2="125.862"  stroke="#ff0000" />
<line x1="-2647.71" y1="124.699" x2="92.5078" y2="124.699"  stroke="#ff0000" />
</g>
<g><title>ray</title>
<line x1="525.657" y1="182.274" x2="717.46" y2="199.955"  stroke="#00ebff" />
<line x1="517.046" y1="181.998" x2="525.657" y2="182.274"  stroke="#00ebff" />
<line x1="512.509" y1="181.852" x2="517.046" y2="181.998"  stroke="#00ebff" />
<line x1="377.407" y1="161.07" x2="512.509" y2="181.852"  stroke="#00ebff" />
<line x1="189.161" y1="132.112" x2="377.407" y2="161.07"  stroke="#00ebff" />
<line x1="176.605" y1="130.705" x2="189.161" y2="132.112"  stroke="#00ebff" />
<line x1="165.814" y1="130.354" x2="176.605" y2="130.705"  stroke="#00ebff" />
<line x1="138.776" y1="129.402" x2="165.814" y2="130.354"  stroke="#00ebff" />
<line x1="116.921" y1="128.412" x2="138.776" y2="129.402"  stroke="#00ebff" />
<line x1="105.853" y1="125.872" x2="116.921" y2="128.412"  stroke="#00ebff" />
<line x1="92.5078" y1="124.699" x2="105.853" y2="125.872"  stroke="#00ebff" />
<line x1="-2647.71" y1="124.699" x2="92.5078" y2="124.699"  stroke="#00ebff" />
</g>
<g><title>ray</title>
<line x1="525.658" y1="217.708" x2="717.46" y2="199.996"  stroke="#ffe100" />
<line x1="517.045" y1="217.991" x2="525.658" y2="217.708"  stroke="#ffe100" />
<line x1="512.51" y1="218.141" x2="517.045" y2="217.991"  stroke="#ffe100" />
<line x1="377.407" y1="238.922" x2="512.51" y2="218.141"  stroke="#ffe100" />
<line x1="189.161" y1="267.878" x2="377.407" y2="238.922"  stroke="#ffe100" />
<line x1="176.603" y1="269.288" x2="189.161" y2="267.878"  stroke="#ffe100" />
<line x1="165.815" y1="269.65" x2="176.603" y2="269.288"  stroke="#ffe100" />
<line x1="138.78" y1="270.617" x2="165.815" y2="269.65"  stroke="#ffe100" />
<line x1="116.916" y1="271.618" x2="138.78" y2="270.617"  stroke="#ffe100" />
<line x1="105.852" y1="274.135" x2="116.916" y2="271.618"  stroke="#ffe100" />
<line x1="92.5078" y1="275.301" x2="105.852" y2="274.135"  stroke="#ffe100" />
<line x1="-2647.71" y1="275.301" x2="92.5078" y2="275.301"  stroke="#ffe100" />
</g>
<g><title>ray</title>
<line x1="525.656" y1="217.735" x2="717.46" y2="200.042"  stroke="#ff0000" />
<line x1="517.047" y1="218.02" x2="525.656" y2="217.735"  stroke="#ff0000" />
<line x1="512.505" y1="218.171" x2="517.047" y2="218.02"  stroke="#ff0000" />
<line x1="377.407" y1="238.939" x2="512.505" y2="218.171"  stroke="#ff0000" />
<line x1="189.161" y1="267.877" x2="377.407" y2="238.939"  stroke="#ff0000" />
<line x1="176.603" y1="269.288" x2="189.161" y2="267.877"  stroke="#ff0000" />
<line x1="165.815" y1="269.654" x2="176.603" y2="269.288"  stroke="#ff0000" />
<line x1="138.782" y1="270.627" x2="165.815" y2="269.654"  stroke="#ff0000" />
<line x1="116.913" y1="271.631" x2="138.782" y2="270.627"  stroke="#ff0000" />
<line x1="105.852" y1="274.138" x2="116.913" y2="271.631"  stroke="#ff0000" />
<line x1="92.5078" y1="275.301" x2="105.852" y2="274.138"  stroke="#ff0000" />
<line x1="-2647.71" y1="275.301" x2="92.5078" y2="275.301"  stroke="#ff0000" />
</g>
<g><title>ray</title>
<line x1="525.657" y1="217.726" x2="717.46" y2="200.045"  stroke="#00ebff" />
<line x1="517.046" y1="218.002" x2="525.657" y2="217.726"  stroke="#00ebff" />
<line x1="512.509" y1="218.148" x2="517.046" y2="218.002"  stroke="#00ebff" />
<line x1="377.407" y1="238.93" x2="512.509" y2="218.148"  stroke="#00ebff" />
<line x1="189.161" y1="267.888" x2="377.407" y2="238.93"  stroke="#00ebff" />
<line x1="176.605" y1="269.295" x2="189.161" y2="267.888"  stroke="#00ebff" />
<line x1="165.814" y1="269.646" x2="176.605" y2="269.295"  stroke="#00ebff" />
<line x1="138.776" y1="270.598" x2="165.814" y2="269.646"  stroke="#00ebff" />
<line x1="116.921" y1="271.588" x2="138.776" y2="270.598"  stroke="#00ebff" />
<line x1="105.853" y1="274.128" x2="116.921" y2="271.588"  stroke="#00ebff" />
<line x1="92.5078" y1="275.301" x2="105.853" y2="274.128"  stroke="#00ebff" />
<line x1="-2647.71" y1="275.301" x2="92.5078" y2="275.301"  stroke="#00ebff" />
</g>
<g><title>ray</title>
<line x1="525.788" y1="184.532" x2="717.46" y2="200.005"  stroke="#ffe100" />
<line x1="516.952" y1="184.277" x2="525.788" y2="184.532"  stroke="#ffe100" />
<line x1="512.846" y1="184.158" x2="516.952" y2="184.277"  stroke="#ffe100" />
<line x1="377.407" y1="166.071" x2="512.846" y2="184.158"  stroke="#ffe100" />
<line x1="188.928" y1="140.9" x2="377.407" y2="166.071"  stroke="#ffe100" />
<line x1="174.338" y1="139.476" x2="188.928" y2="140.9"  stroke="#ffe100" />
<line x1="165.489" y1="139.216" x2="174.338" y2="139.476"  stroke="#ffe100" />
<line x1="137.083" y1="138.328" x2="165.489" y2="139.216"  stroke="#ffe100" />
<line x1="118.508" y1="137.586" x2="137.083" y2="138.328"  stroke="#ffe100" />
<line x1="107.485" y1="135.43" x2="118.508" y2="137.586"  stroke="#ffe100" />
<line x1="90.1399" y1="134.111" x2="107.485" y2="135.43"  stroke="#ffe100" />
<line x1="-2647.71" y1="134.111" x2="90.1399" y2="134.111"  stroke="#ffe100" />
</g>
<g><title>ray</title>
<line x1="525.786" y1="184.508" x2="717.46" y2="199.964"  stroke="#ff0000" />
<line x1="516.953" y1="184.251" x2="525.786" y2="184.508"  stroke="#ff0000" />
<line x1="512.842" y1="184.132" x2="516.953" y2="184.251"  stroke="#ff0000" />
<line x1="377.407" y1="166.055" x2="512.842" y2="184.132"  stroke="#ff0000" />
<line x1="188.929" y1="140.9" x2="377.407" y2="166.055"  stroke="#ff0000" />
<line x1="174.338" y1="139.475" x2="188.929" y2="140.9"  stroke="#ff0000" />
<line x1="165.489" y1="139.212" x2="174.338" y2="139.475"  stroke="#ff0000" />
<line x1="137.085" y1="138.319" x2="165.489" y2="139.212"  stroke="#ff0000" />
<line x1="118.506" y1="137.574" x2="137.085" y2="138.319"  stroke="#ff0000" />
<line x1="107.484" y1="135.426" x2="118.506" y2="137.574"  stroke="#ff0000" />
<line x1="90.1399" y1="134.111" x2="107.484" y2="135.426"  stroke="#ff0000" />
<line x1="-2647.71" y1="134.111" x2="90.1399" y2="134.111"  stroke="#ff0000" />
</g>
<g><title>ray</title>
<line x1="525.787" y1="184.519" x2="717.46" y2="199.968"  stroke="#00ebff" />
<line x1="516.952" y1="184.27" x2="525.787" y2="184.519"  stroke="#00ebff" />
<line x1="512.846" y1="184.155" x2="516.952" y2="184.27"  stroke="#00ebff" />
<line x1="377.407" y1="166.066" x2="512.846" y2="184.155"  stroke="#00ebff" />
<line x1="188.929" y1="140.895" x2="377.407" y2="166.066"  stroke="#00ebff" />
<line x1="174.339" y1="139.473" x2="188.929" y2="140.895"  stroke="#00ebff" />
<line x1="165.488" y1="139.221" x2="174.339" y2="139.473"  stroke="#00ebff" />
<line x1="137.08" y1="138.347" x2="165.488" y2="139.221"  stroke="#00ebff" />
<line x1="118.512" y1="137.613" x2="137.08" y2="138.347"  stroke="#00ebff" />
<line x1="107.486" y1="135.437" x2="118.512" y2="137.613"  stroke="#00ebff" />
<line x1="90.1399" y1="134.111" x2="107.486" y2="135.437"  stroke="#00ebff" />
<line x1="-2647.71" y1="134.111" x2="90.1399" y2="134.111"  stroke="#00ebff" />
</g>
<g><title>ray</title>
<line x1="525.788" y1="215.468" x2="717.46" y2="199.995"  stroke="#ffe100" />
<line x1="516.952" y1="215.723" x2="525.788" y2="215.468"  stroke="#ffe100" />
<line x1="512.846" y1="215.842" x2="516.952" y2="215.723"  stroke="#ffe100" />
<line x1="377.407" y1="233.929" x2="512.846" y2="215.842"  stroke="#ffe100" />
<line x1="188.928" y1="259.1" x2="377.407" y2="233.929"  stroke="#ffe100" />
<line x1="174.338" y1="260.524" x2="188.928" y2="259.1"  stroke="#ffe100" />
<line x1="165.489" y1="260.784" x2="174.338" y2="260.524"  stroke="#ffe100" />
<line x1="137.083" y1="261.672" x2="165.489" y2="260.784"  stroke="#ffe100" />
<line x1="118.508" y1="262.414" x2="137.083" y2="261.672"  stroke="#ffe100" />
<line x1="107.485" y1="264.57" x2="118.508" y2="262.414"  stroke="#ffe100" />
<line x1="90.1399" y1="265.889" x2="107.485" y2="264.57"  stroke="#ffe100" />
<line x1="-2647.71" y1="265.889" x2="90.1399" y2="265.889"  stroke="#ffe100" />
</g>
<g><title>ray</title>
<line x1="525.786" y1="215.492" x2="717.46" y2="200.036"  stroke="#ff0000" />
<line x1="516.953" y1="215.749" x2="525.786" y2="215.492"  stroke="#ff0000" />
<line x1="512.842" y1="215.868" x2="516.953" y2="215.749"  stroke="#ff0000" />
<line x1="377.407" y1="233.945" x2="512.842" y2="215.868"  stroke="#ff0000" />
<line x1="188.929" y1="259.1" x2="377.407" y2="233.945"  stroke="#ff0000" />
<line x1="174.338" y1="260.525" x2="188.929" y2="259.1"  stroke="#ff0000" />
<line x1="165.489" y1="260.788" x2="174.338" y2="260.525"  stroke="#ff0000" />
<line x1="137.085" y1="261.681" x2="165.489" y2="260.788"  stroke="#ff0000" />
<line x1="118.506" y1="262.426" x2="137.085" y2="261.681"  stroke="#ff0000" />
<line x1="107.484" y1="264.574" x2="118.506" y2="262.426"  stroke="#ff0000" />
<line x1="90.1399" y1="265.889" x2="107.484" y2="264.574"  stroke="#ff0000" />
<line x1="-2647.71" y1="265.889" x2="90.1399" y2="265.889"  stroke="#ff0000" />
</g>
<g><title>ray</title>
<line x1="525.787" y1="215.481" x2="717.46" y2="200.032"  stroke="#00ebff" />
<line x1="516.952" y1="215.73" x2="525.787" y2="215.481"  stroke="#00ebff" />
<line x1="512.846" y1="215.845" x2="516.952" y2="215.73"  stroke="#00ebff" />
<line x1="377.407" y1="233.934" x2="512.846" y2="215.845"  stroke="#00ebff" />
<line x1="188.929" y1="259.105" x2="377.407" y2="233.934"  stroke="#00ebff" />
<line x1="174.339" y1="260.527" x2="188.929" y2="259.105"  stroke="#00ebff" />
<line x1="165.488" y1="260.779" x2="174.339" y2="260.527"  stroke="#00ebff" />
<line x1="137.08" y1="261.653" x2="165.488" y2="260.779"  stroke="#00ebff" />
<line x1="118.512" y1="262.387" x2="137.08" y2="261.653"  stroke="#00ebff" />
<line x1="107.486" y1="264.563" x2="118.512" y2="262.387"  stroke="#00ebff" />
<line x1="90.1399" y1="265.889" x2="107.486" y2="264.563"  stroke="#00ebff" />
<line x1="-2647.71" y1="265.889" x2="90.1399" y2="265.889"  stroke="#00ebff" />
</g>
<g><title>ray</title>
<line x1="525.9" y1="186.761" x2="717.46" y2="200.005"  stroke="#ffe100" />
<line x1="516.871" y1="186.537" x2="525.9" y2="186.761"  stroke="#ffe100" />
<line x1="513.135" y1="186.445" x2="516.871" y2="186.537"  stroke="#ffe100" />
<line x1="377.407" y1="171.011" x2="513.135" y2="186.445"  stroke="#ffe100" />
<line x1="188.731" y1="149.556" x2="377.407" y2="171.011"  stroke="#ffe100" />
<line x1="172.403" y1="148.198" x2="188.731" y2="149.556"  stroke="#ffe100" />
<line x1="165.209" y1="148.017" x2="172.403" y2="148.198"  stroke="#ffe100" />
<line x1="135.63" y1="147.225" x2="165.209" y2="148.017"  stroke="#ffe100" />
<line x1="119.862" y1="146.686" x2="135.63" y2="147.225"  stroke="#ffe100" />
<line x1="108.87" y1="144.869" x2="119.862" y2="146.686"  stroke="#ffe100" />
<line x1="88.1037" y1="143.524" x2="108.87" y2="144.869"  stroke="#ffe100" />
<line x1="-2647.71" y1="143.524" x2="88.1037" y2="143.524"  stroke="#ffe100" />
</g>
<g><title>ray</title>
<line x1="525.899" y1="186.74" x2="717.46" y2="199.968"  stroke="#ff0000" />
<line x1="516.872" y1="186.514" x2="525.899" y2="186.74"  stroke="#ff0000" />
<line x1="513.132" y1="186.421" x2="516.872" y2="186.514"  stroke="#ff0000" />
<line x1="377.407" y1="170.997" x2="513.132" y2="186.421"  stroke="#ff0000" />
<line x1="188.731" y1="149.555" x2="377.407" y2="170.997"  stroke="#ff0000" />
<line x1="172.404" y1="148.195" x2="188.731" y2="149.555"  stroke="#ff0000" />
<line x1="165.209" y1="148.013" x2="172.404" y2="148.195"  stroke="#ff0000" />
<line x1="135.631" y1="147.216" x2="165.209" y2="148.013"  stroke="#ff0000" />
<line x1="119.86" y1="146.675" x2="135.631" y2="147.216"  stroke="#ff0000" />
<line x1="108.869" y1="144.866" x2="119.86" y2="146.675"  stroke="#ff0000" />
<line x1="88.1037" y1="143.524" x2="108.869" y2="144.866"  stroke="#ff0000" />
<line x1="-2647.71" y1="143.524" x2="88.1037" y2="143.524"  stroke="#ff0000" />
</g>
<g><title>ray</title>
<line x1="525.899" y1="186.752" x2="717.46" y2="199.976"  stroke="#00ebff" />
<line x1="516.872" y1="186.534" x2="525.899" y2="186.752"  stroke="#00ebff" />
<line x1="513.135" y1="186.443" x2="516.872" y2="186.534"  stroke="#00ebff" />
<line x1="377.407" y1="171.009" x2="513.135" y2="186.443"  stroke="#00ebff" />
<line x1="188.731" y1="149.553" x2="377.407" y2="171.009"  stroke="#00ebff" />
<line x1="172.403" y1="148.198" x2="188.731" y2="149.553"  stroke="#00ebff" />
<line x1="165.209" y1="148.022" x2="172.403" y2="148.198"  stroke="#00ebff" />
<line x1="135.627" y1="147.243" x2="165.209" y2="148.022"  stroke="#00ebff" />
<line x1="119.865" y1="146.71" x2="135.627" y2="147.243"  stroke="#00ebff" />
<line x1="108.871" y1="144.877" x2="119.865" y2="146.71"  stroke="#00ebff" />
<line x1="88.1037" y1="143.524" x2="108.871" y2="144.877"  stroke="#00ebff" />
<line x1="-2647.71" y1="143.524" x2="88.1037" y2="143.524"  stroke="#00ebff" />
</g>
<g><title>ray</title>
<line x1="525.9" y1="213.239" x2="717.46" y2="199.995"  stroke="#ffe100" />
<line x1="516.871" y1="213.463" x2="525.9" y2="213.239"  stroke="#ffe100" />
<line x1="513.135" y1="213.555" x2="516.871" y2="213.463"  stroke="#ffe100" />
<line x1="377.407" y1="228.989" x2="513.135" y2="213.555"  stroke="#ffe100" />
<line x1="188.731" y1="250.444" x2="377.407" y2="228.989"  stroke="#ffe100" />
<line x1="172.403" y1="251.802" x2="188.731" y2="250.444"  stroke="#ffe100" />
<line x1="165.209" y1="251.983" x2="172.403" y2="251.802"  stroke="#ffe100" />
<line x1="135.63" y1="252.775" x2="165.209" y2="251.983"  stroke="#ffe100" />
<line x1="119.862" y1="253.314" x2="135.63" y2="252.775"  stroke="#ffe100" />
<line x1="108.87" y1="255.131" x2="119.862" y2="253.314"  stroke="#ffe100" />
<line x1="88.1037" y1="256.476" x2="108.87" y2="255.131"  stroke="#ffe100" />
<line x1="-2647.71" y1="256.476" x2="88.1037" y2="256.476"  stroke="#ffe100" />
</g>
<g><title>ray</title>
<line x1="525.899" y1="213.26" x2="717.46" y2="200.032"  stroke="#ff0000" />
<line x1="516.872" y1="213.486" x2="525.899" y2="213.26"  stroke="#ff0000" />
<line x1="513.132" y1="213.579" x2="516.872" y2="213.486"  stroke="#ff0000" />
<line x1="377.407" y1="229.003" x2="513.132" y2="213.579"  stroke="#ff0000" />
<line x1="188.731" y1="250.445" x2="377.407" y2="229.003"  stroke="#ff0000" />
<line x1="172.404" y1="251.805" x2="188.731" y2="250.445"  stroke="#ff0000" />
<line x1="165.209" y1="251.987" x2="172.404" y2="251.805"  stroke="#ff0000" />
<line x1="135.631" y1="252.784" x2="165.209" y2="251.987"  stroke="#ff0000" />
<line x1="119.86" y1="253.325" x2="135.631" y2="252.784"  stroke="#ff0000" />
<line x1="108.869" y1="255.134" x2="119.86" y2="253.325"  stroke="#ff0000" />
<line x1="88.1037" y1="256.476" x2="108.869" y2="255.134"  stroke="#ff0000" />
<line x1="-2647.71" y1="256.476" x2="88.1037" y2="256.476"  stroke="#ff0000" />
</g>
<g><title>ray</title>
<line x1="525.899" y1="213.248" x2="717.46" y2="200.024"  stroke="#00ebff" />
<line x1="516.872" y1="213.466" x2="525.899" y2="213.248"  stroke="#00ebff" />
<line x1="513.135" y1="213.557" x2="516.872" y2="213.466"  stroke="#00ebff" />
<line x1="377.407" y1="228.991" x2="513.135" y2="213.557"  stroke="#00ebff" />
<line x1="188.731" y1="250.447" x2="377.407" y2="228.991"  stroke="#00ebff" />
<line x1="172.403" y1="251.802" x2="188.731" y2="250.447"  stroke="#00ebff" />
<line x1="165.209" y1="251.978" x2="172.403" y2="251.802"  stroke="#00ebff" />
<line x1="135.627" y1="252.757" x2="165.209" y2="251.978"  stroke="#00ebff" />
<line x1="119.865" y1="253.29" x2="135.627" y2="252.757"  stroke="#00ebff" />
<line x1="108.871" y1="255.123" x2="119.865" y2="253.29"  stroke="#00ebff" />
<line x1="88.1037" y1="256.476" x2="108.871" y2="255.123"  stroke="#00ebff" />
<line x1="-2647.71" y1="256.476" x2="88.1037" y2="256.476"  stroke="#00ebff" />
</g>
<g><title>ray</title>
<line x1="525.994" y1="188.981" x2="717.46" y2="200.003"  stroke="#ffe100" />
<line x1="516.804" y1="188.791" x2="525.994" y2="188.981"  stroke="#ffe100" />
<line x1="513.377" y1="188.72" x2="516.804" y2="188.791"  stroke="#ffe100" />
<line x1="377.407" y1="175.907" x2="513.377" y2="188.72"  stroke="#ffe100" />
<line x1="188.566" y1="158.111" x2="377.407" y2="175.907"  stroke="#ffe100" />
<line x1="170.786" y1="156.884" x2="188.566" y2="158.111"  stroke="#ffe100" />
<line x1="164.974" y1="156.762" x2="170.786" y2="156.884"  stroke="#ffe100" />
<line x1="134.412" y1="156.081" x2="164.974" y2="156.762"  stroke="#ffe100" />
<line x1="120.99" y1="155.699" x2="134.412" y2="156.081"  stroke="#ffe100" />
<line x1="110.021" y1="154.207" x2="120.99" y2="155.699"  stroke="#ffe100" />
<line x1="86.3921" y1="152.937" x2="110.021" y2="154.207"  stroke="#ffe100" />
<line x1="-2647.71" y1="152.937" x2="86.3921" y2="152.937"  stroke="#ffe100" />
</g>
<g><title>ray</title>
<line x1="525.993" y1="188.963" x2="717.46" y2="199.972"  stroke="#ff0000" />
<line x1="516.804" y1="188.771" x2="525.993" y2="188.963"  stroke="#ff0000" />
<line x1="513.375" y1="188.7" x2="516.804" y2="188.771"  stroke="#ff0000" />
<line x1="377.407" y1="175.894" x2="513.375" y2="188.7"  stroke="#ff0000" />
<line x1="188.566" y1="158.109" x2="377.407" y2="175.894"  stroke="#ff0000" />
<line x1="170.787" y1="156.881" x2="188.566" y2="158.109"  stroke="#ff0000" />
<line x1="164.974" y1="156.758" x2="170.787" y2="156.881"  stroke="#ff0000" />
<line x1="134.413" y1="156.073" x2="164.974" y2="156.758"  stroke="#ff0000" />
<line x1="120.989" y1="155.69" x2="134.413" y2="156.073"  stroke="#ff0000" />
<line x1="110.021" y1="154.203" x2="120.989" y2="155.69"  stroke="#ff0000" />
<line x1="86.3921" y1="152.937" x2="110.021" y2="154.203"  stroke="#ff0000" />
<line x1="-2647.71" y1="152.937" x2="86.3921" y2="152.937"  stroke="#ff0000" />
</g>
<g><title>ray</title>
<line x1="525.994" y1="188.975" x2="717.46" y2="199.982"  stroke="#00ebff" />
<line x1="516.804" y1="188.789" x2="525.994" y2="188.975"  stroke="#00ebff" />
<line x1="513.377" y1="188.72" x2="516.804" y2="188.789"  stroke="#00ebff" />
<line x1="377.407" y1="175.906" x2="513.377" y2="188.72"  stroke="#00ebff" />
<line x1="188.566" y1="158.11" x2="377.407" y2="175.906"  stroke="#00ebff" />
<line x1="170.786" y1="156.885" x2="188.566" y2="158.11"  stroke="#00ebff" />
<line x1="164.974" y1="156.767" x2="170.786" y2="156.885"  stroke="#00ebff" />
<line x1="134.41" y1="156.097" x2="164.974" y2="156.767"  stroke="#00ebff" />
<line x1="120.992" y1="155.72" x2="134.41" y2="156.097"  stroke="#00ebff" />
<line x1="110.022" y1="154.214" x2="120.992" y2="155.72"  stroke="#00ebff" />
<line x1="86.3921" y1="152.937" x2="110.022" y2="154.214"  stroke="#00ebff" />
<line x1="-2647.71" y1="152.937" x2="86.3921" y2="152.937"  stroke="#00ebff" />
</g>
<g><title>ray</title>
<line x1="525.994" y1="211.019" x2="717.46" y2="199.997"  stroke="#ffe100" />
<line x1="516.804" y1="211.209" x2="525.994" y2="211.019"  stroke="#ffe100" />
<line x1="513.377" y1="211.28" x2="516.804" y2="211.209"  stroke="#ffe100" />
<line x1="377.407" y1="224.093" x2="513.377" y2="211.28"  stroke="#ffe100" />
<line x1="188.566" y1="241.889" x2="377.407" y2="224.093"  stroke="#ffe100" />
<line x1="170.786" y1="243.116" x2="188.566" y2="241.889"  stroke="#ffe100" />
<line x1="164.974" y1="243.238" x2="170.786" y2="243.116"  stroke="#ffe100" />
<line x1="134.412" y1="243.919" x2="164.974" y2="243.238"  stroke="#ffe100" />
<line x1="120.99" y1="244.301" x2="134.412" y2="243.919"  stroke="#ffe100" />
<line x1="110.021" y1="245.793" x2="120.99" y2="244.301"  stroke="#ffe100" />
<line x1="86.3921" y1="247.063" x2="110.021" y2="245.793"  stroke="#ffe100" />
<line x1="-2647.71" y1="247.063" x2="86.3921" y2="247.063"  stroke="#ffe100" />
</g>
<g><title>ray</title>
<line x1="525.993" y1="211.037" x2="717.46" y2="200.028"  stroke="#ff0000" />
<line x1="516.804" y1="211.229" x2="525.993" y2="211.037"  stroke="#ff0000" />
<line x1="513.375" y1="211.3" x2="516.804" y2="211.229"  stroke="#ff0000" />
<line x1="377.407" y1="224.106" x2="513.375" y2="211.3"  stroke="#ff0000" />
<line x1="188.566" y1="241.891" x2="377.407" y2="224.106"  stroke="#ff0000" />
<line x1="170.787" y1="243.119" x2="188.566" y2="241.891"  stroke="#ff0000" />
<line x1="164.974" y1="243.242" x2="170.787" y2="243.119"  stroke="#ff0000" />
<line x1="134.413" y1="243.927" x2="164.974" y2="243.242"  stroke="#ff0000" />
<line x1="120.989" y1="244.31" x2="134.413" y2="243.927"  stroke="#ff0000" />
<line x1="110.021" y1="245.797" x2="120.989" y2="244.31"  stroke="#ff0000" />
<line x1="86.3921" y1="247.063" x2="110.021" y2="245.797"  stroke="#ff0000" />
<line x1="-2647.71" y1="247.063" x2="86.3921" y2="247.063"  stroke="#ff0000" />
</g>
<g><title>ray</title>
<line x1="525.994" y1="211.025" x2="717.46" y2="200.018"  stroke="#00ebff" />
<line x1="516.804" y1="211.211" x2="525.994" y2="211.025"  stroke="#00ebff" />
<line x1="513.377" y1="211.28" x2="516.804" y2="211.211"  stroke="#00ebff" />
<line x1="377.407" y1="224.094" x2="513.377" y2="211.28"  stroke="#00ebff" />
<line x1="188.566" y1="241.89" x2="377.407" y2="224.094"  stroke="#00ebff" />
<line x1="170.786" y1="243.115" x2="188.566" y2="241.89"  stroke="#00ebff" />
<line x1="164.974" y1="243.233" x2="170.786" y2="243.115"  stroke="#00ebff" />
<line x1="134.41" y1="243.903" x2="164.974" y2="243.233"  stroke="#00ebff" />
<line x1="120.992" y1="244.28" x2="134.41" y2="243.903"  stroke="#00ebff" />
<line x1="110.022" y1="245.786" x2="120.992" y2="244.28"  stroke="#00ebff" />
<line x1="86.3921" y1="247.063" x2="110.022" y2="245.786"  stroke="#00ebff" />
<line x1="-2647.71" y1="247.063" x2="86.3921" y2="247.063"  stroke="#00ebff" />
</g>
<g><title>ray</title>
<line x1="526.07" y1="191.193" x2="717.46" y2="200.002"  stroke="#ffe100" />
<line x1="516.748" y1="191.039" x2="526.07" y2="191.193"  stroke="#ffe100" />
<line x1="513.573" y1="190.986" x2="516.748" y2="191.039"  stroke="#ffe100" />
<line x1="377.407" y1="180.766" x2="513.573" y2="190.986"  stroke="#ffe100" />
<line x1="188.433" y1="166.583" x2="377.407" y2="180.766"  stroke="#ffe100" />
<line x1="169.477" y1="165.541" x2="188.433" y2="166.583"  stroke="#ffe100" />
<line x1="164.783" y1="165.462" x2="169.477" y2="165.541"  stroke="#ffe100" />
<line x1="133.424" y1="164.904" x2="164.783" y2="165.462"  stroke="#ffe100" />
<line x1="121.9" y1="164.642" x2="133.424" y2="164.904"  stroke="#ffe100" />
<line x1="110.95" y1="163.461" x2="121.9" y2="164.642"  stroke="#ffe100" />
<line x1="84.9992" y1="162.349" x2="110.95" y2="163.461"  stroke="#ffe100" />
<line x1="-2647.71" y1="162.349" x2="84.9992" y2="162.349"  stroke="#ffe100" />
</g>
<g><title>ray</title>
<line x1="526.07" y1="191.178" x2="717.46" y2="199.977"  stroke="#ff0000" />
<line x1="516.749" y1="191.023" x2="526.07" y2="191.178"  stroke="#ff0000" />
<line x1="513.572" y1="190.97" x2="516.749" y2="191.023"  stroke="#ff0000" />
<line x1="377.407" y1="180.756" x2="513.572" y2="190.97"  stroke="#ff0000" />
<line x1="188.433" y1="166.581" x2="377.407" y2="180.756"  stroke="#ff0000" />
<line x1="169.477" y1="165.538" x2="188.433" y2="166.581"  stroke="#ff0000" />
<line x1="164.783" y1="165.459" x2="169.477" y2="165.538"  stroke="#ff0000" />
<line x1="133.424" y1="164.897" x2="164.783" y2="165.459"  stroke="#ff0000" />
<line x1="121.9" y1="164.635" x2="133.424" y2="164.897"  stroke="#ff0000" />
<line x1="110.95" y1="163.458" x2="121.9" y2="164.635"  stroke="#ff0000" />
<line x1="84.9992" y1="162.349" x2="110.95" y2="163.458"  stroke="#ff0000" />
<line x1="-2647.71" y1="162.349" x2="84.9992" y2="162.349"  stroke="#ff0000" />
</g>
<g><title>ray</title>
<line x1="526.07" y1="191.189" x2="717.46" y2="199.987"  stroke="#00ebff" />
<line x1="516.748" y1="191.038" x2="526.07" y2="191.189"  stroke="#00ebff" />
<line x1="513.573" y1="190.987" x2="516.748" y2="191.038"  stroke="#00ebff" />
<line x1="377.407" y1="180.767" x2="513.573" y2="190.987"  stroke="#00ebff" />
<line x1="188.433" y1="166.584" x2="377.407" y2="180.767"  stroke="#00ebff" />
<line x1="169.476" y1="165.543" x2="188.433" y2="166.584"  stroke="#00ebff" />
<line x1="164.783" y1="165.467" x2="169.476" y2="165.543"  stroke="#00ebff" />
<line x1="133.422" y1="164.917" x2="164.783" y2="165.467"  stroke="#00ebff" />
<line x1="121.902" y1="164.658" x2="133.422" y2="164.917"  stroke="#00ebff" />
<line x1="110.951" y1="163.467" x2="121.902" y2="164.658"  stroke="#00ebff" />
<line x1="84.9992" y1="162.349" x2="110.951" y2="163.467"  stroke="#00ebff" />
<line x1="-2647.71" y1="162.349" x2="84.9992" y2="162.349"  stroke="#00ebff" />
</g>
<g><title>ray</title>
<line x1="526.07" y1="208.807" x2="717.46" y2="199.998"  stroke="#ffe100" />
<line x1="516.748" y1="208.961" x2="526.07" y2="208.807"  stroke="#ffe100" />
<line x1="513.573" y1="209.014" x2="516.748" y2="208.961"  stroke="#ffe100" />
<line x1="377.407" y1="219.234" x2="513.573" y2="209.014"  stroke="#ffe100" />
<line x1="188.433" y1="233.417" x2="377.407" y2="219.234"  stroke="#ffe100" />
<line x1="169.477" y1="234.459" x2="188.433" y2="233.417"  stroke="#ffe100" />
<line x1="164.783" y1="234.538" x2="169.477" y2="234.459"  stroke="#ffe100" />
<line x1="133.424" y1="235.096" x2="164.783" y2="234.538"  stroke="#ffe100" />
<line x1="121.9" y1="235.358" x2="133.424" y2="235.096"  stroke="#ffe100" />
<line x1="110.95" y1="236.539" x2="121.9" y2="235.358"  stroke="#ffe100" />
<line x1="84.9992" y1="237.651" x2="110.95" y2="236.539"  stroke="#ffe100" />
<line x1="-2647.71" y1="237.651" x2="84.9992" y2="237.651"  stroke="#ffe100" />
</g>
<g><title>ray</title>
<line x1="526.07" y1="208.822" x2="717.46" y2="200.023"  stroke="#ff0000" />
<line x1="516.749" y1="208.977" x2="526.07" y2="208.822"  stroke="#ff0000" />
<line x1="513.572" y1="209.03" x2="516.749" y2="208.977"  stroke="#ff0000" />
<line x1="377.407" y1="219.244" x2="513.572" y2="209.03"  stroke="#ff0000" />
<line x1="188.433" y1="233.419" x2="377.407" y2="219.244"  stroke="#ff0000" />
<line x1="169.477" y1="234.462" x2="188.433" y2="233.419"  stroke="#ff0000" />
<line x1="164.783" y1="234.541" x2="169.477" y2="234.462"  stroke="#ff0000" />
<line x1="133.424" y1="235.103" x2="164.783" y2="234.541"  stroke="#ff0000" />
<line x1="121.9" y1="235.365" x2="133.424" y2="235.103"  stroke="#ff0000" />
<line x1="110.95" y1="236.542" x2="121.9" y2="235.365"  stroke="#ff0000" />
<line x1="84.9992" y1="237.651" x2="110.95" y2="236.542"  stroke="#ff0000" />
<line x1="-2647.71" y1="237.651" x2="84.9992" y2="237.651"  stroke="#ff0000" />
</g>
<g><title>ray</title>
<line x1="526.07" y1="208.811" x2="717.46" y2="200.013"  stroke="#00ebff" />
<line x1="516.748" y1="208.962" x2="526.07" y2="208.811"  stroke="#00ebff" />
<line x1="513.573" y1="209.013" x2="516.748" y2="208.962"  stroke="#00ebff" />
<line x1="377.407" y1="219.233" x2="513.573" y2="209.013"  stroke="#00ebff" />
<line x1="188.433" y1="233.416" x2="377.407" y2="219.233"  stroke="#00ebff" />
<line x1="169.476" y1="234.457" x2="188.433" y2="233.416"  stroke="#00ebff" />
<line x1="164.783" y1="234.533" x2="169.476" y2="234.457"  stroke="#00ebff" />
<line x1="133.422" y1="235.083" x2="164.783" y2="234.533"  stroke="#00ebff" />
<line x1="121.902" y1="235.342" x2="133.422" y2="235.083"  stroke="#00ebff" />
<line x1="110.951" y1="236.533" x2="121.902" y2="235.342"  stroke="#00ebff" />
<line x1="84.9992" y1="237.651" x2="110.951" y2="236.533"  stroke="#00ebff" />
<line x1="-2647.71" y1="237.651" x2="84.9992" y2="237.651"  stroke="#00ebff" />
</g>
<g><title>ray</title>
<line x1="526.13" y1="193.4" x2="717.46" y2="200.001"  stroke="#ffe100" />
<line x1="516.705" y1="193.283" x2="526.13" y2="193.4"  stroke="#ffe100" />
<line x1="513.725" y1="193.245" x2="516.705" y2="193.283"  stroke="#ffe100" />
<line x1="377.407" y1="185.599" x2="513.725" y2="193.245"  stroke="#ffe100" />
<line x1="188.331" y1="174.992" x2="377.407" y2="185.599"  stroke="#ffe100" />
<line x1="168.466" y1="174.175" x2="188.331" y2="174.992"  stroke="#ffe100" />
<line x1="164.636" y1="174.127" x2="168.466" y2="174.175"  stroke="#ffe100" />
<line x1="132.66" y1="173.7" x2="164.636" y2="174.127"  stroke="#ffe100" />
<line x1="122.601" y1="173.529" x2="132.66" y2="173.7"  stroke="#ffe100" />
<line x1="111.664" y1="172.651" x2="122.601" y2="173.529"  stroke="#ffe100" />
<line x1="83.9206" y1="171.762" x2="111.664" y2="172.651"  stroke="#ffe100" />
<line x1="-2647.71" y1="171.762" x2="83.9206" y2="171.762"  stroke="#ffe100" />
</g>
<g><title>ray</title>
<line x1="526.13" y1="193.388" x2="717.46" y2="199.982"  stroke="#ff0000" />
<line x1="516.705" y1="193.27" x2="526.13" y2="193.388"  stroke="#ff0000" />
<line x1="513.725" y1="193.233" x2="516.705" y2="193.27"  stroke="#ff0000" />
<line x1="377.407" y1="185.591" x2="513.725" y2="193.233"  stroke="#ff0000" />
<line x1="188.331" y1="174.99" x2="377.407" y2="185.591"  stroke="#ff0000" />
<line x1="168.467" y1="174.173" x2="188.331" y2="174.99"  stroke="#ff0000" />
<line x1="164.636" y1="174.124" x2="168.467" y2="174.173"  stroke="#ff0000" />
<line x1="132.66" y1="173.695" x2="164.636" y2="174.124"  stroke="#ff0000" />
<line x1="122.601" y1="173.523" x2="132.66" y2="173.695"  stroke="#ff0000" />
<line x1="111.664" y1="172.648" x2="122.601" y2="173.523"  stroke="#ff0000" />
<line x1="83.9206" y1="171.762" x2="111.664" y2="172.648"  stroke="#ff0000" />
<line x1="-2647.71" y1="171.762" x2="83.9206" y2="171.762"  stroke="#ff0000" />
</g>
<g><title>ray</title>
<line x1="526.13" y1="193.398" x2="717.46" y2="199.99"  stroke="#00ebff" />
<line x1="516.705" y1="193.283" x2="526.13" y2="193.398"  stroke="#00ebff" />
<line x1="513.725" y1="193.247" x2="516.705" y2="193.283"  stroke="#00ebff" />
<line x1="377.407" y1="185.6" x2="513.725" y2="193.247"  stroke="#00ebff" />
<line x1="188.331" y1="174.993" x2="377.407" y2="185.6"  stroke="#00ebff" />
<line x1="168.466" y1="174.178" x2="188.331" y2="174.993"  stroke="#00ebff" />
<line x1="164.636" y1="174.131" x2="168.466" y2="174.178"  stroke="#00ebff" />
<line x1="132.659" y1="173.711" x2="164.636" y2="174.131"  stroke="#00ebff" />
<line x1="122.602" y1="173.542" x2="132.659" y2="173.711"  stroke="#00ebff" />
<line x1="111.665" y1="172.656" x2="122.602" y2="173.542"  stroke="#00ebff" />
<line x1="83.9206" y1="171.762" x2="111.665" y2="172.656"  stroke="#00ebff" />
<line x1="-2647.71" y1="171.762" x2="83.9206" y2="171.762"  stroke="#00ebff" />
</g>
<g><title>ray</title>
<line x1="526.13" y1="206.6" x2="717.46" y2="199.999"  stroke="#ffe100" />
<line x1="516.705" y1="206.717" x2="526.13" y2="206.6"  stroke="#ffe100" />
<line x1="513.725" y1="206.755" x2="516.705" y2="206.717"  stroke="#ffe100" />
<line x1="377.407" y1="214.401" x2="513.725" y2="206.755"  stroke="#ffe100" />
<line x1="188.331" y1="225.008" x2="377.407" y2="214.401"  stroke="#ffe100" />
<line x1="168.466" y1="225.825" x2="188.331" y2="225.008"  stroke="#ffe100" />
<line x1="164.636" y1="225.873" x2="168.466" y2="225.825"  stroke="#ffe100" />
<line x1="132.66" y1="226.3" x2="164.636" y2="225.873"  stroke="#ffe100" />
<line x1="122.601" y1="226.471" x2="132.66" y2="226.3"  stroke="#ffe100" />
<line x1="111.664" y1="227.349" x2="122.601" y2="226.471"  stroke="#ffe100" />
<line x1="83.9206" y1="228.238" x2="111.664" y2="227.349"  stroke="#ffe100" />
<line x1="-2647.71" y1="228.238" x2="83.9206" y2="228.238"  stroke="#ffe100" />
</g>
<g><title>ray</title>
<line x1="526.13" y1="206.612" x2="717.46" y2="200.018"  stroke="#ff0000" />
<line x1="516.705" y1="206.73" x2="526.13" y2="206.612"  stroke="#ff0000" />
<line x1="513.725" y1="206.767" x2="516.705" y2="206.73"  stroke="#ff0000" />
<line x1="377.407" y1="214.409" x2="513.725" y2="206.767"  stroke="#ff0000" />
<line x1="188.331" y1="225.01" x2="377.407" y2="214.409"  stroke="#ff0000" />
<line x1="168.467" y1="225.827" x2="188.331" y2="225.01"  stroke="#ff0000" />
<line x1="164.636" y1="225.876" x2="168.467" y2="225.827"  stroke="#ff0000" />
<line x1="132.66" y1="226.305" x2="164.636" y2="225.876"  stroke="#ff0000" />
<line x1="122.601" y1="226.477" x2="132.66" y2="226.305"  stroke="#ff0000" />
<line x1="111.664" y1="227.352" x2="122.601" y2="226.477"  stroke="#ff0000" />
<line x1="83.9206" y1="228.238" x2="111.664" y2="227.352"  stroke="#ff0000" />
<line x1="-2647.71" y1="228.238" x2="83.9206" y2="228.238"  stroke="#ff0000" />
</g>
<g><title>ray</title>
<line x1="526.13" y1="206.602" x2="717.46" y2="200.01"  stroke="#00ebff" />
<line x1="516.705" y1="206.717" x2="526.13" y2="206.602"  stroke="#00ebff" />
<line x1="513.725" y1="206.753" x2="516.705" y2="206.717"  stroke="#00ebff" />
<line x1="377.407" y1="214.4" x2="513.725" y2="206.753"  stroke="#00ebff" />
<line x1="188.331" y1="225.007" x2="377.407" y2="214.4"  stroke="#00ebff" />
<line x1="168.466" y1="225.822" x2="188.331" y2="225.007"  stroke="#00ebff" />
<line x1="164.636" y1="225.869" x2="168.466" y2="225.822"  stroke="#00ebff" />
<line x1="132.659" y1="226.289" x2="164.636" y2="225.869"  stroke="#00ebff" />
<line x1="122.602" y1="226.458" x2="132.659" y2="226.289"  stroke="#00ebff" />
<line x1="111.665" y1="227.344" x2="122.602" y2="226.458"  stroke="#00ebff" />
<line x1="83.9206" y1="228.238" x2="111.665" y2="227.344"  stroke="#00ebff" />
<line x1="-2647.71" y1="228.238" x2="83.9206" y2="228.238"  stroke="#00ebff" />
</g>
<g><title>ray</title>
<line x1="526.172" y1="195.602" x2="717.46" y2="200"  stroke="#ffe100" />
<line x1="516.675" y1="195.523" x2="526.172" y2="195.602"  stroke="#ffe100" />
<line x1="513.834" y1="195.5" x2="516.675" y2="195.523"  stroke="#ffe100" />
<line x1="377.407" y1="190.41" x2="513.834" y2="195.5"  stroke="#ffe100" />
<line x1="188.258" y1="183.354" x2="377.407" y2="190.41"  stroke="#ffe100" />
<line x1="167.749" y1="182.793" x2="188.258" y2="183.354"  stroke="#ffe100" />
<line x1="164.531" y1="182.766" x2="167.749" y2="182.793"  stroke="#ffe100" />
<line x1="132.117" y1="182.477" x2="164.531" y2="182.766"  stroke="#ffe100" />
<line x1="123.098" y1="182.375" x2="132.117" y2="182.477"  stroke="#ffe100" />
<line x1="112.17" y1="181.793" x2="123.098" y2="182.375"  stroke="#ffe100" />
<line x1="83.1526" y1="181.175" x2="112.17" y2="181.793"  stroke="#ffe100" />
<line x1="-2647.71" y1="181.175" x2="83.1526" y2="181.175"  stroke="#ffe100" />
</g>
<g><title>ray</title>
<line x1="526.172" y1="195.594" x2="717.46" y2="199.987"  stroke="#ff0000" />
<line x1="516.675" y1="195.515" x2="526.172" y2="195.594"  stroke="#ff0000" />
<line x1="513.833" y1="195.491" x2="516.675" y2="195.515"  stroke="#ff0000" />
<line x1="377.407" y1="190.405" x2="513.833" y2="195.491"  stroke="#ff0000" />
<line x1="188.258" y1="183.353" x2="377.407" y2="190.405"  stroke="#ff0000" />
<line x1="167.749" y1="182.791" x2="188.258" y2="183.353"  stroke="#ff0000" />
<line x1="164.531" y1="182.764" x2="167.749" y2="182.791"  stroke="#ff0000" />
<line x1="132.117" y1="182.474" x2="164.531" y2="182.764"  stroke="#ff0000" />
<line x1="123.098" y1="182.371" x2="132.117" y2="182.474"  stroke="#ff0000" />
<line x1="112.17" y1="181.791" x2="123.098" y2="182.371"  stroke="#ff0000" />
<line x1="83.1526" y1="181.175" x2="112.17" y2="181.791"  stroke="#ff0000" />
<line x1="-2647.71" y1="181.175" x2="83.1526" y2="181.175"  stroke="#ff0000" />
</g>
<g><title>ray</title>
<line x1="526.172" y1="195.601" x2="717.46" y2="199.994"  stroke="#00ebff" />
<line x1="516.675" y1="195.524" x2="526.172" y2="195.601"  stroke="#00ebff" />
<line x1="513.834" y1="195.501" x2="516.675" y2="195.524"  stroke="#00ebff" />
<line x1="377.407" y1="190.411" x2="513.834" y2="195.501"  stroke="#00ebff" />
<line x1="188.258" y1="183.355" x2="377.407" y2="190.411"  stroke="#00ebff" />
<line x1="167.749" y1="182.795" x2="188.258" y2="183.355"  stroke="#00ebff" />
<line x1="164.531" y1="182.768" x2="167.749" y2="182.795"  stroke="#00ebff" />
<line x1="132.117" y1="182.485" x2="164.531" y2="182.768"  stroke="#00ebff" />
<line x1="123.099" y1="182.384" x2="132.117" y2="182.485"  stroke="#00ebff" />
<line x1="112.17" y1="181.797" x2="123.099" y2="182.384"  stroke="#00ebff" />
<line x1="83.1526" y1="181.175" x2="112.17" y2="181.797"  stroke="#00ebff" />
<line x1="-2647.71" y1="181.175" x2="83.1526" y2="181.175"  stroke="#00ebff" />
</g>
<g><title>ray</title>
<line x1="526.172" y1="204.398" x2="717.46" y2="200"  stroke="#ffe100" />
<line x1="516.675" y1="204.477" x2="526.172" y2="204.398"  stroke="#ffe100" />
<line x1="513.834" y1="204.5" x2="516.675" y2="204.477"  stroke="#ffe100" />
<line x1="377.407" y1="209.59" x2="513.834" y2="204.5"  stroke="#ffe100" />
<line x1="188.258" y1="216.646" x2="377.407" y2="209.59"  stroke="#ffe100" />
<line x1="167.749" y1="217.207" x2="188.258" y2="216.646"  stroke="#ffe100" />
<line x1="164.531" y1="217.234" x2="167.749" y2="217.207"  stroke="#ffe100" />
<line x1="132.117" y1="217.523" x2="164.531" y2="217.234"  stroke="#ffe100" />
<line x1="123.098" y1="217.625" x2="132.117" y2="217.523"  stroke="#ffe100" />
<line x1="112.17" y1="218.207" x2="123.098" y2="217.625"  stroke="#ffe100" />
<line x1="83.1526" y1="218.825" x2="112.17" y2="218.207"  stroke="#ffe100" />
<line x1="-2647.71" y1="218.825" x2="83.1526" y2="218.825"  stroke="#ffe100" />
</g>
<g><title>ray</title>
<line x1="526.172" y1="204.406" x2="717.46" y2="200.013"  stroke="#ff0000" />
<line x1="516.675" y1="204.485" x2="526.172" y2="204.406"  stroke="#ff0000" />
<line x1="513.833" y1="204.509" x2="516.675" y2="204.485"  stroke="#ff0000" />
<line x1="377.407" y1="209.595" x2="513.833" y2="204.509"  stroke="#ff0000" />
<line x1="188.258" y1="216.647" x2="377.407" y2="209.595"  stroke="#ff0000" />
<line x1="167.749" y1="217.209" x2="188.258" y2="216.647"  stroke="#ff0000" />
<line x1="164.531" y1="217.236" x2="167.749" y2="217.209"  stroke="#ff0000" />
<line x1="132.117" y1="217.526" x2="164.531" y2="217.236"  stroke="#ff0000" />
<line x1="123.098" y1="217.629" x2="132.117" y2="217.526"  stroke="#ff0000" />
<line x1="112.17" y1="218.209" x2="123.098" y2="217.629"  stroke="#ff0000" />
<line x1="83.1526" y1="218.825" x2="112.17" y2="218.209"  stroke="#ff0000" />
<line x1="-2647.71" y1="218.825" x2="83.1526" y2="218.825"  stroke="#ff0000" />
</g>
<g><title>ray</title>
<line x1="526.172" y1="204.399" x2="717.46" y2="200.006"  stroke="#00ebff" />
<line x1="516.675" y1="204.476" x2="526.172" y2="204.399"  stroke="#00ebff" />
<line x1="513.834" y1="204.499" x2="516.675" y2="204.476"  stroke="#00ebff" />
<line x1="377.407" y1="209.589" x2="513.834" y2="204.499"  stroke="#00ebff" />
<line x1="188.258" y1="216.645" x2="377.407" y2="209.589"  stroke="#00ebff" />
<line x1="167.749" y1="217.205" x2="188.258" y2="216.645"  stroke="#00ebff" />
<line x1="164.531" y1="217.232" x2="167.749" y2="217.205"  stroke="#00ebff" />
<line x1="132.117" y1="217.515" x2="164.531" y2="217.232"  stroke="#00ebff" />
<line x1="123.099" y1="217.616" x2="132.117" y2="217.515"  stroke="#00ebff" />
<line x1="112.17" y1="218.203" x2="123.099" y2="217.616"  stroke="#00ebff" />
<line x1="83.1526" y1="218.825" x2="112.17" y2="218.203"  stroke="#00ebff" />
<line x1="-2647.71" y1="218.825" x2="83.1526" y2="218.825"  stroke="#00ebff" />
</g>
<g><title>ray</title>
<line x1="526.198" y1="197.802" x2="717.46" y2="200"  stroke="#ffe100" />
<line x1="516.656" y1="197.762" x2="526.198" y2="197.802"  stroke="#ffe100" />
<line x1="513.898" y1="197.751" x2="516.656" y2="197.762"  stroke="#ffe100" />
<line x1="377.407" y1="195.208" x2="513.898" y2="197.751"  stroke="#ffe100" />
<line x1="188.215" y1="191.685" x2="377.407" y2="195.208"  stroke="#ffe100" />
<line x1="167.32" y1="191.399" x2="188.215" y2="191.685"  stroke="#ffe100" />
<line x1="164.468" y1="191.387" x2="167.32" y2="191.399"  stroke="#ffe100" />
<line x1="131.792" y1="191.242" x2="164.468" y2="191.387"  stroke="#ffe100" />
<line x1="123.395" y1="191.194" x2="131.792" y2="191.242"  stroke="#ffe100" />
<line x1="112.472" y1="190.904" x2="123.395" y2="191.194"  stroke="#ffe100" />
<line x1="82.6928" y1="190.587" x2="112.472" y2="190.904"  stroke="#ffe100" />
<line x1="-2647.71" y1="190.587" x2="82.6928" y2="190.587"  stroke="#ffe100" />
</g>
<g><title>ray</title>
<line x1="526.198" y1="197.798" x2="717.46" y2="199.993"  stroke="#ff0000" />
<line x1="516.656" y1="197.758" x2="526.198" y2="197.798"  stroke="#ff0000" />
<line x1="513.898" y1="197.747" x2="516.656" y2="197.758"  stroke="#ff0000" />
<line x1="377.407" y1="195.206" x2="513.898" y2="197.747"  stroke="#ff0000" />
<line x1="188.215" y1="191.684" x2="377.407" y2="195.206"  stroke="#ff0000" />
<line x1="167.32" y1="191.398" x2="188.215" y2="191.684"  stroke="#ff0000" />
<line x1="164.468" y1="191.386" x2="167.32" y2="191.398"  stroke="#ff0000" />
<line x1="131.792" y1="191.24" x2="164.468" y2="191.386"  stroke="#ff0000" />
<line x1="123.395" y1="191.192" x2="131.792" y2="191.24"  stroke="#ff0000" />
<line x1="112.472" y1="190.903" x2="123.395" y2="191.192"  stroke="#ff0000" />
<line x1="82.6928" y1="190.587" x2="112.472" y2="190.903"  stroke="#ff0000" />
<line x1="-2647.71" y1="190.587" x2="82.6928" y2="190.587"  stroke="#ff0000" />
</g>
<g><title>ray</title>
<line x1="526.198" y1="197.801" x2="717.46" y2="199.997"  stroke="#00ebff" />
<line x1="516.656" y1="197.762" x2="526.198" y2="197.801"  stroke="#00ebff" />
<line x1="513.898" y1="197.751" x2="516.656" y2="197.762"  stroke="#00ebff" />
<line x1="377.407" y1="195.209" x2="513.898" y2="197.751"  stroke="#00ebff" />
<line x1="188.215" y1="191.685" x2="377.407" y2="195.209"  stroke="#00ebff" />
<line x1="167.32" y1="191.4" x2="188.215" y2="191.685"  stroke="#00ebff" />
<line x1="164.468" y1="191.389" x2="167.32" y2="191.4"  stroke="#00ebff" />
<line x1="131.792" y1="191.246" x2="164.468" y2="191.389"  stroke="#00ebff" />
<line x1="123.395" y1="191.199" x2="131.792" y2="191.246"  stroke="#00ebff" />
<line x1="112.472" y1="190.906" x2="123.395" y2="191.199"  stroke="#00ebff" />
<line x1="82.6928" y1="190.587" x2="112.472" y2="190.906"  stroke="#00ebff" />
<line x1="-2647.71" y1="190.587" x2="82.6928" y2="190.587"  stroke="#00ebff" />
</g>
<g><title>ray</title>
<line x1="526.198" y1="202.198" x2="717.46" y2="200"  stroke="#ffe100" />
<line x1="516.656" y1="202.238" x2="526.198" y2="202.198"  stroke="#ffe100" />
<line x1="513.898" y1="202.249" x2="516.656" y2="202.238"  stroke="#ffe100" />
<line x1="377.407" y1="204.792" x2="513.898" y2="202.249"  stroke="#ffe100" />
<line x1="188.215" y1="208.315" x2="377.407" y2="204.792"  stroke="#ffe100" />
<line x1="167.32" y1="208.601" x2="188.215" y2="208.315"  stroke="#ffe100" />
<line x1="164.468" y1="208.613" x2="167.32" y2="208.601"  stroke="#ffe100" />
<line x1="131.792" y1="208.758" x2="164.468" y2="208.613"  stroke="#ffe100" />
<line x1="123.395" y1="208.806" x2="131.792" y2="208.758"  stroke="#ffe100" />
<line x1="112.472" y1="209.096" x2="123.395" y2="208.806"  stroke="#ffe100" />
<line x1="82.6928" y1="209.413" x2="112.472" y2="209.096"  stroke="#ffe100" />
<line x1="-2647.71" y1="209.413" x2="82.6928" y2="209.413"  stroke="#ffe100" />
</g>
<g><title>ray</title>
<line x1="526.198" y1="202.202" x2="717.46" y2="200.007"  stroke="#ff0000" />
<line x1="516.656" y1="202.242" x2="526.198" y2="202.202"  stroke="#ff0000" />
<line x1="513.898" y1="202.253" x2="516.656" y2="202.242"  stroke="#ff0000" />
<line x1="377.407" y1="204.794" x2="513.898" y2="202.253"  stroke="#ff0000" />
<line x1="188.215" y1="208.316" x2="377.407" y2="204.794"  stroke="#ff0000" />
<line x1="167.32" y1="208.602" x2="188.215" y2="208.316"  stroke="#ff0000" />
<line x1="164.468" y1="208.614" x2="167.32" y2="208.602"  stroke="#ff0000" />
<line x1="131.792" y1="208.76" x2="164.468" y2="208.614"  stroke="#ff0000" />
<line x1="123.395" y1="208.808" x2="131.792" y2="208.76"  stroke="#ff0000" />
<line x1="112.472" y1="209.097" x2="123.395" y2="208.808"  stroke="#ff0000" />
<line x1="82.6928" y1="209.413" x2="112.472" y2="209.097"  stroke="#ff0000" />
<line x1="-2647.71" y1="209.413" x2="82.6928" y2="209.413"  stroke="#ff0000" />
</g>
<g><title>ray</title>
<line x1="526.198" y1="202.199" x2="717.46" y2="200.003"  stroke="#00ebff" />
<line x1="516.656" y1="202.238" x2="526.198" y2="202.199"  stroke="#00ebff" />
<line x1="513.898" y1="202.249" x2="516.656" y2="202.238"  stroke="#00ebff" />
<line x1="377.407" y1="204.791" x2="513.898" y2="202.249"  stroke="#00ebff" />
<line x1="188.215" y1="208.315" x2="377.407" y2="204.791"  stroke="#00ebff" />
<line x1="167.32" y1="208.6" x2="188.215" y2="208.315"  stroke="#00ebff" />
<line x1="164.468" y1="208.611" x2="167.32" y2="208.6"  stroke="#00ebff" />
<line x1="131.792" y1="208.754" x2="164.468" y2="208.611"  stroke="#00ebff" />
<line x1="123.395" y1="208.801" x2="131.792" y2="208.754"  stroke="#00ebff" />
<line x1="112.472" y1="209.094" x2="123.395" y2="208.801"  stroke="#00ebff" />
<line x1="82.6928" y1="209.413" x2="112.472" y2="209.094"  stroke="#00ebff" />
<line x1="-2647.71" y1="209.413" x2="82.6928" y2="209.413"  stroke="#00ebff" />
</g>
</g>
</svg>
