<?xml version="1.0" standalone="no"?>
<svg width="640px" height="480px" version="1.1" xmlns="http://www.w3.org/2000/svg" xmlns:xlink="http://www.w3.org/1999/xlink">
<rect x="0" y="0" width="640" height="480"  fill="#ffffff" />
<defs>
<g id="dot">
<line x1="1" y1="1" x2="0" y2="0"  />
</g>
<g id="cross">
<line x1="-3" y1="0" x2="3" y2="0"  />
<line x1="0" y1="-3" x2="0" y2="3"  />
</g>
<g id="square">
<line x1="-3" y1="-3" x2="-3" y2="3"  />
<line x1="-3" y1="3" x2="3" y2="3"  />
<line x1="3" y1="3" x2="3" y2="-3"  />
<line x1="3" y1="-3" x2="-3" y2="-3"  />
</g>
<g id="round">
<ellipse cx="0" cy="0" rx="3" ry="3"  fill="none" /></g>
<g id="triangle">
<line x1="0" y1="-3" x2="-3" y2="3"  />
<line x1="-3" y1="3" x2="3" y2="3"  />
<line x1="0" y1="-3" x2="3" y2="3"  />
</g>
</defs>
<polygon fill="none" stroke="#000000" points="66.0317,430.476 66.0317,49.5238 573.968,49.5238 573.968,430.476 " />
<text style="font-size:12;text-align:center;text-anchor:middle;" x="320" y="473.619" fill="#000000">Entrance ray height (normalized)</text>
<line x1="66.0317" y1="127.284" x2="573.968" y2="127.284"  stroke="#000000" />
<use x="66.0317" y="127.284" xlink:href="#cross"  stroke="#000000" />
<use x="66.0317" y="49.5238" xlink:href="#cross"  stroke="#000000" />
<use x="66.0317" y="430.476" xlink:href="#cross"  stroke="#000000" />
<text style="font-size:12;text-align:center;text-anchor:middle;" x="66.0317" y="448.476" fill="#000000">-1</text>
<use x="320" y="127.284" xlink:href="#cross"  stroke="#000000" />
<use x="320" y="49.5238" xlink:href="#cross"  stroke="#000000" />
<use x="320" y="430.476" xlink:href="#cross"  stroke="#000000" />
<text style="font-size:12;text-align:center;text-anchor:middle;" x="320" y="448.476" fill="#000000">0</text>
<use x="573.968" y="127.284" xlink:href="#cross"  stroke="#000000" />
<use x="573.968" y="49.5238" xlink:href="#cross"  stroke="#000000" />
<use x="573.968" y="430.476" xlink:href="#cross"  stroke="#000000" />
<text style="font-size:12;text-align:center;text-anchor:middle;" x="573.968" y="448.476" fill="#000000">1</text>
<text style="font-size:12;text-align:center;text-anchor:middle;" x="16.5079" y="246" transform="rotate(-90,16.5079,240)" fill="#000000">Optical path difference (x10^-1 waves)</text>
<line x1="320" y1="430.476" x2="320" y2="49.5238"  stroke="#000000" />
<use x="320" y="393.742" xlink:href="#cross"  stroke="#000000" />
<use x="573.968" y="393.742" xlink:href="#cross"  stroke="#000000" />
<use x="66.0317" y="393.742" xlink:href="#cross"  stroke="#000000" />
<text style="font-size:12;text-align:right;text-anchor:end;" x="60.0317" y="399.742" fill="#000000">-30</text>
<use x="320" y="349.332" xlink:href="#cross"  stroke="#000000" />
<use x="573.968" y="349.332" xlink:href="#cross"  stroke="#000000" />
<use x="66.0317" y="349.332" xlink:href="#cross"  stroke="#000000" />
<text style="font-size:12;text-align:right;text-anchor:end;" x="60.0317" y="355.332" fill="#000000">-25</text>
<use x="320" y="304.923" xlink:href="#cross"  stroke="#000000" />
<use x="573.968" y="304.923" xlink:href="#cross"  stroke="#000000" />
<use x="66.0317" y="304.923" xlink:href="#cross"  stroke="#000000" />
<text style="font-size:12;text-align:right;text-anchor:end;" x="60.0317" y="310.923" fill="#000000">-20</text>
<use x="320" y="260.513" xlink:href="#cross"  stroke="#000000" />
<use x="573.968" y="260.513" xlink:href="#cross"  stroke="#000000" />
<use x="66.0317" y="260.513" xlink:href="#cross"  stroke="#000000" />
<text style="font-size:12;text-align:right;text-anchor:end;" x="60.0317" y="266.513" fill="#000000">-15</text>
<use x="320" y="216.103" xlink:href="#cross"  stroke="#000000" />
<use x="573.968" y="216.103" xlink:href="#cross"  stroke="#000000" />
<use x="66.0317" y="216.103" xlink:href="#cross"  stroke="#000000" />
<text style="font-size:12;text-align:right;text-anchor:end;" x="60.0317" y="222.103" fill="#000000">-10</text>
<use x="320" y="171.694" xlink:href="#cross"  stroke="#000000" />
<use x="573.968" y="171.694" xlink:href="#cross"  stroke="#000000" />
<use x="66.0317" y="171.694" xlink:href="#cross"  stroke="#000000" />
<text style="font-size:12;text-align:right;text-anchor:end;" x="60.0317" y="177.694" fill="#000000">-5</text>
<use x="320" y="127.284" xlink:href="#cross"  stroke="#000000" />
<use x="573.968" y="127.284" xlink:href="#cross"  stroke="#000000" />
<use x="66.0317" y="127.284" xlink:href="#cross"  stroke="#000000" />
<text style="font-size:12;text-align:right;text-anchor:end;" x="60.0317" y="133.284" fill="#000000">0</text>
<use x="320" y="82.8745" xlink:href="#cross"  stroke="#000000" />
<use x="573.968" y="82.8745" xlink:href="#cross"  stroke="#000000" />
<use x="66.0317" y="82.8745" xlink:href="#cross"  stroke="#000000" />
<text style="font-size:12;text-align:right;text-anchor:end;" x="60.0317" y="88.8745" fill="#000000">5</text>
<text style="font-size:18;text-align:center;text-anchor:middle;" x="320" y="33.7619" fill="#000000">Optical path difference fan (tangential)</text>
<path fill="none"  stroke="#00ebff" d="M83.2,212.896 S94.4762,267.649 100.114,277.349 S111.39,276.838 117.029,271.098 S128.305,252.457 133.943,242.912 S145.219,222.506 150.857,213.826 S162.133,197.384 167.771,190.832 S179.048,179.13 184.686,174.515 S195.962,166.446 201.6,163.14 S212.876,157.26 218.514,154.68 S229.79,149.88 235.429,147.666 S246.705,143.37 252.343,141.396 S263.619,137.505 269.257,135.823 S280.533,132.553 286.171,131.303 S297.448,128.996 303.086,128.326 S314.362,127.284 320,127.284 S331.276,127.656 336.914,128.326 S348.19,130.054 353.829,131.303 S365.105,134.141 370.743,135.823 S382.019,139.422 387.657,141.396 S398.933,145.452 404.571,147.666 S415.848,152.101 421.486,154.68 S432.762,159.835 438.4,163.14 S449.676,169.9 455.314,174.515 S466.59,184.28 472.229,190.832 S483.505,205.146 489.143,213.826 S500.419,233.366 506.057,242.912 S517.333,265.359 522.971,271.098 S534.248,287.05 539.886,277.349 S553.981,223.638 556.8,212.896 " />
<path fill="none"  stroke="#ffe100" d="M83.2,49.5238 S94.4762,97.8791 100.114,109.306 S111.39,117.598 117.029,118.083 S128.305,114.134 133.943,112.213 S145.219,107.702 150.857,106.557 S162.133,105.073 167.771,105.339 S179.048,106.857 184.686,108.149 S195.962,111.399 201.6,113.093 S212.876,116.732 218.514,118.313 S229.79,121.399 235.429,122.579 S246.705,124.683 252.343,125.392 S263.619,126.509 269.257,126.828 S280.533,127.221 286.171,127.304 S297.448,127.329 303.086,127.325 S314.362,127.284 320,127.284 S331.276,127.322 336.914,127.325 S348.19,127.387 353.829,127.304 S365.105,127.146 370.743,126.828 S382.019,126.1 387.657,125.392 S398.933,123.759 404.571,122.579 S415.848,119.894 421.486,118.313 S432.762,114.787 438.4,113.093 S449.676,109.441 455.314,108.149 S466.59,105.604 472.229,105.339 S483.505,105.411 489.143,106.557 S500.419,110.292 506.057,112.213 S517.333,118.567 522.971,118.083 S534.248,120.732 539.886,109.306 S553.981,59.4874 556.8,49.5238 " />
<path fill="none"  stroke="#ff0000" d="M83.2,430.476 S94.4762,432.972 100.114,424.784 S111.39,396.942 117.029,381.352 S128.305,347.015 133.943,331.244 S145.219,300.121 150.857,286.725 S162.133,261.519 167.771,250.871 S179.048,231.212 184.686,222.837 S195.962,207.367 201.6,200.623 S212.876,187.997 218.514,182.372 S229.79,171.666 235.429,166.873 S246.705,157.654 252.343,153.615 S263.619,145.858 269.257,142.64 S280.533,136.57 286.171,134.309 S297.448,130.244 303.086,129.073 S314.362,127.284 320,127.284 S331.276,127.902 336.914,129.073 S348.19,132.048 353.829,134.309 S365.105,139.422 370.743,142.64 S382.019,149.577 387.657,153.615 S398.933,162.08 404.571,166.873 S415.848,176.747 421.486,182.372 S432.762,193.879 438.4,200.623 S449.676,214.463 455.314,222.837 S466.59,240.223 472.229,250.871 S483.505,273.33 489.143,286.725 S500.419,315.473 506.057,331.244 S517.333,365.761 522.971,381.352 S534.248,416.597 539.886,424.784 S553.981,429.528 556.8,430.476 " />
</svg>
