<?xml version="1.0" standalone="no"?>
<svg width="640px" height="480px" version="1.1" xmlns="http://www.w3.org/2000/svg" xmlns:xlink="http://www.w3.org/1999/xlink">
<rect x="0" y="0" width="640" height="480"  fill="#ffffff" />
<defs>
<g id="dot">
<line x1="1" y1="1" x2="0" y2="0"  />
</g>
<g id="cross">
<line x1="-3" y1="0" x2="3" y2="0"  />
<line x1="0" y1="-3" x2="0" y2="3"  />
</g>
<g id="square">
<line x1="-3" y1="-3" x2="-3" y2="3"  />
<line x1="-3" y1="3" x2="3" y2="3"  />
<line x1="3" y1="3" x2="3" y2="-3"  />
<line x1="3" y1="-3" x2="-3" y2="-3"  />
</g>
<g id="round">
<ellipse cx="0" cy="0" rx="3" ry="3"  fill="none" /></g>
<g id="triangle">
<line x1="0" y1="-3" x2="-3" y2="3"  />
<line x1="-3" y1="3" x2="3" y2="3"  />
<line x1="0" y1="-3" x2="3" y2="3"  />
</g>
</defs>
<polygon fill="none" stroke="#000000" points="66.0317,430.476 66.0317,49.5238 573.968,49.5238 573.968,430.476 " />
<text style="font-size:12;text-align:center;text-anchor:middle;" x="320" y="473.619" fill="#000000">Distance from spot centroid (um)</text>
<use x="66.0317" y="49.5238" xlink:href="#cross"  stroke="#000000" />
<use x="66.0317" y="430.476" xlink:href="#cross"  stroke="#000000" />
<text style="font-size:12;text-align:center;text-anchor:middle;" x="66.0317" y="448.476" fill="#000000">0</text>
<use x="157.245" y="49.5238" xlink:href="#cross"  stroke="#000000" />
<use x="157.245" y="430.476" xlink:href="#cross"  stroke="#000000" />
<text style="font-size:12;text-align:center;text-anchor:middle;" x="157.245" y="448.476" fill="#000000">5</text>
<use x="248.458" y="49.5238" xlink:href="#cross"  stroke="#000000" />
<use x="248.458" y="430.476" xlink:href="#cross"  stroke="#000000" />
<text style="font-size:12;text-align:center;text-anchor:middle;" x="248.458" y="448.476" fill="#000000">10</text>
<use x="339.671" y="49.5238" xlink:href="#cross"  stroke="#000000" />
<use x="339.671" y="430.476" xlink:href="#cross"  stroke="#000000" />
<text style="font-size:12;text-align:center;text-anchor:middle;" x="339.671" y="448.476" fill="#000000">15</text>
<use x="430.884" y="49.5238" xlink:href="#cross"  stroke="#000000" />
<use x="430.884" y="430.476" xlink:href="#cross"  stroke="#000000" />
<text style="font-size:12;text-align:center;text-anchor:middle;" x="430.884" y="448.476" fill="#000000">20</text>
<use x="522.098" y="49.5238" xlink:href="#cross"  stroke="#000000" />
<use x="522.098" y="430.476" xlink:href="#cross"  stroke="#000000" />
<text style="font-size:12;text-align:center;text-anchor:middle;" x="522.098" y="448.476" fill="#000000">25</text>
<text style="font-size:12;text-align:center;text-anchor:middle;" x="16.5079" y="246" transform="rotate(-90,16.5079,240)" fill="#000000">Encircled intensity</text>
<use x="573.968" y="430.476" xlink:href="#cross"  stroke="#000000" />
<use x="66.0317" y="430.476" xlink:href="#cross"  stroke="#000000" />
<text style="font-size:12;text-align:right;text-anchor:end;" x="60.0317" y="436.476" fill="#000000">0</text>
<use x="573.968" y="369.767" xlink:href="#cross"  stroke="#000000" />
<use x="66.0317" y="369.767" xlink:href="#cross"  stroke="#000000" />
<text style="font-size:12;text-align:right;text-anchor:end;" x="60.0317" y="375.767" fill="#000000">200</text>
<use x="573.968" y="309.057" xlink:href="#cross"  stroke="#000000" />
<use x="66.0317" y="309.057" xlink:href="#cross"  stroke="#000000" />
<text style="font-size:12;text-align:right;text-anchor:end;" x="60.0317" y="315.057" fill="#000000">400</text>
<use x="573.968" y="248.348" xlink:href="#cross"  stroke="#000000" />
<use x="66.0317" y="248.348" xlink:href="#cross"  stroke="#000000" />
<text style="font-size:12;text-align:right;text-anchor:end;" x="60.0317" y="254.348" fill="#000000">600</text>
<use x="573.968" y="187.638" xlink:href="#cross"  stroke="#000000" />
<use x="66.0317" y="187.638" xlink:href="#cross"  stroke="#000000" />
<text style="font-size:12;text-align:right;text-anchor:end;" x="60.0317" y="193.638" fill="#000000">800</text>
<use x="573.968" y="126.928" xlink:href="#cross"  stroke="#000000" />
<use x="66.0317" y="126.928" xlink:href="#cross"  stroke="#000000" />
<text style="font-size:12;text-align:right;text-anchor:end;" x="60.0317" y="132.928" fill="#000000">1e+03</text>
<use x="573.968" y="66.2189" xlink:href="#cross"  stroke="#000000" />
<use x="66.0317" y="66.2189" xlink:href="#cross"  stroke="#000000" />
<text style="font-size:12;text-align:right;text-anchor:end;" x="60.0317" y="72.2189" fill="#000000">1.2e+03</text>
<text style="font-size:18;text-align:center;text-anchor:middle;" x="320" y="33.7619" fill="#000000">Spot diagram encircled rays intensity</text>
<line x1="66.0317" y1="430.476" x2="76.1905" y2="430.173"  stroke="#00ebff" />
<line x1="76.1905" y1="430.173" x2="86.3492" y2="426.53"  stroke="#00ebff" />
<line x1="86.3492" y1="426.53" x2="96.5079" y2="421.066"  stroke="#00ebff" />
<line x1="96.5079" y1="421.066" x2="106.667" y2="413.781"  stroke="#00ebff" />
<line x1="106.667" y1="413.781" x2="116.825" y2="404.675"  stroke="#00ebff" />
<line x1="116.825" y1="404.675" x2="126.984" y2="393.747"  stroke="#00ebff" />
<line x1="126.984" y1="393.747" x2="137.143" y2="380.998"  stroke="#00ebff" />
<line x1="137.143" y1="380.998" x2="147.302" y2="366.428"  stroke="#00ebff" />
<line x1="147.302" y1="366.428" x2="157.46" y2="331.823"  stroke="#00ebff" />
<line x1="157.46" y1="331.823" x2="167.619" y2="311.789"  stroke="#00ebff" />
<line x1="167.619" y1="311.789" x2="177.778" y2="289.934"  stroke="#00ebff" />
<line x1="177.778" y1="289.934" x2="187.937" y2="266.257"  stroke="#00ebff" />
<line x1="187.937" y1="266.257" x2="198.095" y2="229.831"  stroke="#00ebff" />
<line x1="198.095" y1="229.831" x2="208.254" y2="204.333"  stroke="#00ebff" />
<line x1="208.254" y1="204.333" x2="218.413" y2="204.333"  stroke="#00ebff" />
<line x1="218.413" y1="204.333" x2="228.571" y2="177.014"  stroke="#00ebff" />
<line x1="228.571" y1="177.014" x2="238.73" y2="147.873"  stroke="#00ebff" />
<line x1="238.73" y1="147.873" x2="248.889" y2="113.269"  stroke="#00ebff" />
<line x1="248.889" y1="113.269" x2="259.048" y2="49.5238"  stroke="#00ebff" />
<line x1="259.048" y1="49.5238" x2="269.206" y2="49.5238"  stroke="#00ebff" />
<line x1="269.206" y1="49.5238" x2="279.365" y2="49.5238"  stroke="#00ebff" />
<line x1="279.365" y1="49.5238" x2="289.524" y2="49.5238"  stroke="#00ebff" />
<line x1="289.524" y1="49.5238" x2="299.683" y2="49.5238"  stroke="#00ebff" />
<line x1="299.683" y1="49.5238" x2="309.841" y2="49.5238"  stroke="#00ebff" />
<line x1="309.841" y1="49.5238" x2="320" y2="49.5238"  stroke="#00ebff" />
<line x1="320" y1="49.5238" x2="330.159" y2="49.5238"  stroke="#00ebff" />
<line x1="330.159" y1="49.5238" x2="340.317" y2="49.5238"  stroke="#00ebff" />
<line x1="340.317" y1="49.5238" x2="350.476" y2="49.5238"  stroke="#00ebff" />
<line x1="350.476" y1="49.5238" x2="360.635" y2="49.5238"  stroke="#00ebff" />
<line x1="360.635" y1="49.5238" x2="370.794" y2="49.5238"  stroke="#00ebff" />
<line x1="370.794" y1="49.5238" x2="380.952" y2="49.5238"  stroke="#00ebff" />
<line x1="380.952" y1="49.5238" x2="391.111" y2="49.5238"  stroke="#00ebff" />
<line x1="391.111" y1="49.5238" x2="401.27" y2="49.5238"  stroke="#00ebff" />
<line x1="401.27" y1="49.5238" x2="411.429" y2="49.5238"  stroke="#00ebff" />
<line x1="411.429" y1="49.5238" x2="421.587" y2="49.5238"  stroke="#00ebff" />
<line x1="421.587" y1="49.5238" x2="431.746" y2="49.5238"  stroke="#00ebff" />
<line x1="431.746" y1="49.5238" x2="441.905" y2="49.5238"  stroke="#00ebff" />
<line x1="441.905" y1="49.5238" x2="452.063" y2="49.5238"  stroke="#00ebff" />
<line x1="452.063" y1="49.5238" x2="462.222" y2="49.5238"  stroke="#00ebff" />
<line x1="462.222" y1="49.5238" x2="472.381" y2="49.5238"  stroke="#00ebff" />
<line x1="472.381" y1="49.5238" x2="482.54" y2="49.5238"  stroke="#00ebff" />
<line x1="482.54" y1="49.5238" x2="492.698" y2="49.5238"  stroke="#00ebff" />
<line x1="492.698" y1="49.5238" x2="502.857" y2="49.5238"  stroke="#00ebff" />
<line x1="502.857" y1="49.5238" x2="513.016" y2="49.5238"  stroke="#00ebff" />
<line x1="513.016" y1="49.5238" x2="523.175" y2="49.5238"  stroke="#00ebff" />
<line x1="523.175" y1="49.5238" x2="533.333" y2="49.5238"  stroke="#00ebff" />
<line x1="533.333" y1="49.5238" x2="543.492" y2="49.5238"  stroke="#00ebff" />
<line x1="543.492" y1="49.5238" x2="553.651" y2="49.5238"  stroke="#00ebff" />
<line x1="553.651" y1="49.5238" x2="563.81" y2="49.5238"  stroke="#00ebff" />
<line x1="563.81" y1="49.5238" x2="573.968" y2="49.5238"  stroke="#00ebff" />
<line x1="66.0317" y1="430.476" x2="76.1905" y2="380.998"  stroke="#ffe100" />
<line x1="76.1905" y1="380.998" x2="86.3492" y2="350.036"  stroke="#ffe100" />
<line x1="86.3492" y1="350.036" x2="96.5079" y2="218.903"  stroke="#ffe100" />
<line x1="96.5079" y1="218.903" x2="106.667" y2="120.554"  stroke="#ffe100" />
<line x1="106.667" y1="120.554" x2="116.825" y2="85.9495"  stroke="#ffe100" />
<line x1="116.825" y1="85.9495" x2="126.984" y2="85.9495"  stroke="#ffe100" />
<line x1="126.984" y1="85.9495" x2="137.143" y2="85.9495"  stroke="#ffe100" />
<line x1="137.143" y1="85.9495" x2="147.302" y2="85.9495"  stroke="#ffe100" />
<line x1="147.302" y1="85.9495" x2="157.46" y2="85.9495"  stroke="#ffe100" />
<line x1="157.46" y1="85.9495" x2="167.619" y2="49.5238"  stroke="#ffe100" />
<line x1="167.619" y1="49.5238" x2="177.778" y2="49.5238"  stroke="#ffe100" />
<line x1="177.778" y1="49.5238" x2="187.937" y2="49.5238"  stroke="#ffe100" />
<line x1="187.937" y1="49.5238" x2="198.095" y2="49.5238"  stroke="#ffe100" />
<line x1="198.095" y1="49.5238" x2="208.254" y2="49.5238"  stroke="#ffe100" />
<line x1="208.254" y1="49.5238" x2="218.413" y2="49.5238"  stroke="#ffe100" />
<line x1="218.413" y1="49.5238" x2="228.571" y2="49.5238"  stroke="#ffe100" />
<line x1="228.571" y1="49.5238" x2="238.73" y2="49.5238"  stroke="#ffe100" />
<line x1="238.73" y1="49.5238" x2="248.889" y2="49.5238"  stroke="#ffe100" />
<line x1="248.889" y1="49.5238" x2="259.048" y2="49.5238"  stroke="#ffe100" />
<line x1="259.048" y1="49.5238" x2="269.206" y2="49.5238"  stroke="#ffe100" />
<line x1="269.206" y1="49.5238" x2="279.365" y2="49.5238"  stroke="#ffe100" />
<line x1="279.365" y1="49.5238" x2="289.524" y2="49.5238"  stroke="#ffe100" />
<line x1="289.524" y1="49.5238" x2="299.683" y2="49.5238"  stroke="#ffe100" />
<line x1="299.683" y1="49.5238" x2="309.841" y2="49.5238"  stroke="#ffe100" />
<line x1="309.841" y1="49.5238" x2="320" y2="49.5238"  stroke="#ffe100" />
<line x1="320" y1="49.5238" x2="330.159" y2="49.5238"  stroke="#ffe100" />
<line x1="330.159" y1="49.5238" x2="340.317" y2="49.5238"  stroke="#ffe100" />
<line x1="340.317" y1="49.5238" x2="350.476" y2="49.5238"  stroke="#ffe100" />
<line x1="350.476" y1="49.5238" x2="360.635" y2="49.5238"  stroke="#ffe100" />
<line x1="360.635" y1="49.5238" x2="370.794" y2="49.5238"  stroke="#ffe100" />
<line x1="370.794" y1="49.5238" x2="380.952" y2="49.5238"  stroke="#ffe100" />
<line x1="380.952" y1="49.5238" x2="391.111" y2="49.5238"  stroke="#ffe100" />
<line x1="391.111" y1="49.5238" x2="401.27" y2="49.5238"  stroke="#ffe100" />
<line x1="401.27" y1="49.5238" x2="411.429" y2="49.5238"  stroke="#ffe100" />
<line x1="411.429" y1="49.5238" x2="421.587" y2="49.5238"  stroke="#ffe100" />
<line x1="421.587" y1="49.5238" x2="431.746" y2="49.5238"  stroke="#ffe100" />
<line x1="431.746" y1="49.5238" x2="441.905" y2="49.5238"  stroke="#ffe100" />
<line x1="441.905" y1="49.5238" x2="452.063" y2="49.5238"  stroke="#ffe100" />
<line x1="452.063" y1="49.5238" x2="462.222" y2="49.5238"  stroke="#ffe100" />
<line x1="462.222" y1="49.5238" x2="472.381" y2="49.5238"  stroke="#ffe100" />
<line x1="472.381" y1="49.5238" x2="482.54" y2="49.5238"  stroke="#ffe100" />
<line x1="482.54" y1="49.5238" x2="492.698" y2="49.5238"  stroke="#ffe100" />
<line x1="492.698" y1="49.5238" x2="502.857" y2="49.5238"  stroke="#ffe100" />
<line x1="502.857" y1="49.5238" x2="513.016" y2="49.5238"  stroke="#ffe100" />
<line x1="513.016" y1="49.5238" x2="523.175" y2="49.5238"  stroke="#ffe100" />
<line x1="523.175" y1="49.5238" x2="533.333" y2="49.5238"  stroke="#ffe100" />
<line x1="533.333" y1="49.5238" x2="543.492" y2="49.5238"  stroke="#ffe100" />
<line x1="543.492" y1="49.5238" x2="553.651" y2="49.5238"  stroke="#ffe100" />
<line x1="553.651" y1="49.5238" x2="563.81" y2="49.5238"  stroke="#ffe100" />
<line x1="563.81" y1="49.5238" x2="573.968" y2="49.5238"  stroke="#ffe100" />
<line x1="66.0317" y1="430.476" x2="76.1905" y2="430.173"  stroke="#ff0000" />
<line x1="76.1905" y1="430.173" x2="86.3492" y2="430.173"  stroke="#ff0000" />
<line x1="86.3492" y1="430.173" x2="96.5079" y2="426.53"  stroke="#ff0000" />
<line x1="96.5079" y1="426.53" x2="106.667" y2="426.53"  stroke="#ff0000" />
<line x1="106.667" y1="426.53" x2="116.825" y2="426.53"  stroke="#ff0000" />
<line x1="116.825" y1="426.53" x2="126.984" y2="421.066"  stroke="#ff0000" />
<line x1="126.984" y1="421.066" x2="137.143" y2="421.066"  stroke="#ff0000" />
<line x1="137.143" y1="421.066" x2="147.302" y2="421.066"  stroke="#ff0000" />
<line x1="147.302" y1="421.066" x2="157.46" y2="413.781"  stroke="#ff0000" />
<line x1="157.46" y1="413.781" x2="167.619" y2="413.781"  stroke="#ff0000" />
<line x1="167.619" y1="413.781" x2="177.778" y2="413.781"  stroke="#ff0000" />
<line x1="177.778" y1="413.781" x2="187.937" y2="404.675"  stroke="#ff0000" />
<line x1="187.937" y1="404.675" x2="198.095" y2="404.675"  stroke="#ff0000" />
<line x1="198.095" y1="404.675" x2="208.254" y2="393.747"  stroke="#ff0000" />
<line x1="208.254" y1="393.747" x2="218.413" y2="393.747"  stroke="#ff0000" />
<line x1="218.413" y1="393.747" x2="228.571" y2="393.747"  stroke="#ff0000" />
<line x1="228.571" y1="393.747" x2="238.73" y2="380.998"  stroke="#ff0000" />
<line x1="238.73" y1="380.998" x2="248.889" y2="380.998"  stroke="#ff0000" />
<line x1="248.889" y1="380.998" x2="259.048" y2="366.428"  stroke="#ff0000" />
<line x1="259.048" y1="366.428" x2="269.206" y2="366.428"  stroke="#ff0000" />
<line x1="269.206" y1="366.428" x2="279.365" y2="366.428"  stroke="#ff0000" />
<line x1="279.365" y1="366.428" x2="289.524" y2="350.036"  stroke="#ff0000" />
<line x1="289.524" y1="350.036" x2="299.683" y2="350.036"  stroke="#ff0000" />
<line x1="299.683" y1="350.036" x2="309.841" y2="331.823"  stroke="#ff0000" />
<line x1="309.841" y1="331.823" x2="320" y2="331.823"  stroke="#ff0000" />
<line x1="320" y1="331.823" x2="330.159" y2="311.789"  stroke="#ff0000" />
<line x1="330.159" y1="311.789" x2="340.317" y2="311.789"  stroke="#ff0000" />
<line x1="340.317" y1="311.789" x2="350.476" y2="311.789"  stroke="#ff0000" />
<line x1="350.476" y1="311.789" x2="360.635" y2="289.934"  stroke="#ff0000" />
<line x1="360.635" y1="289.934" x2="370.794" y2="289.934"  stroke="#ff0000" />
<line x1="370.794" y1="289.934" x2="380.952" y2="266.257"  stroke="#ff0000" />
<line x1="380.952" y1="266.257" x2="391.111" y2="266.257"  stroke="#ff0000" />
<line x1="391.111" y1="266.257" x2="401.27" y2="266.257"  stroke="#ff0000" />
<line x1="401.27" y1="266.257" x2="411.429" y2="240.759"  stroke="#ff0000" />
<line x1="411.429" y1="240.759" x2="421.587" y2="240.759"  stroke="#ff0000" />
<line x1="421.587" y1="240.759" x2="431.746" y2="240.759"  stroke="#ff0000" />
<line x1="431.746" y1="240.759" x2="441.905" y2="240.759"  stroke="#ff0000" />
<line x1="441.905" y1="240.759" x2="452.063" y2="213.44"  stroke="#ff0000" />
<line x1="452.063" y1="213.44" x2="462.222" y2="213.44"  stroke="#ff0000" />
<line x1="462.222" y1="213.44" x2="472.381" y2="213.44"  stroke="#ff0000" />
<line x1="472.381" y1="213.44" x2="482.54" y2="184.299"  stroke="#ff0000" />
<line x1="482.54" y1="184.299" x2="492.698" y2="184.299"  stroke="#ff0000" />
<line x1="492.698" y1="184.299" x2="502.857" y2="184.299"  stroke="#ff0000" />
<line x1="502.857" y1="184.299" x2="513.016" y2="184.299"  stroke="#ff0000" />
<line x1="513.016" y1="184.299" x2="523.175" y2="153.337"  stroke="#ff0000" />
<line x1="523.175" y1="153.337" x2="533.333" y2="153.337"  stroke="#ff0000" />
<line x1="533.333" y1="153.337" x2="543.492" y2="153.337"  stroke="#ff0000" />
<line x1="543.492" y1="153.337" x2="553.651" y2="84.1282"  stroke="#ff0000" />
<line x1="553.651" y1="84.1282" x2="563.81" y2="49.8274"  stroke="#ff0000" />
<line x1="563.81" y1="49.8274" x2="573.968" y2="49.5238"  stroke="#ff0000" />
</svg>
