<?xml version="1.0" standalone="no"?>
<svg width="640px" height="480px" version="1.1" xmlns="http://www.w3.org/2000/svg" xmlns:xlink="http://www.w3.org/1999/xlink">
<rect x="0" y="0" width="640" height="480"  fill="#ffffff" />
<defs>
<g id="dot">
<line x1="1" y1="1" x2="0" y2="0"  />
</g>
<g id="cross">
<line x1="-3" y1="0" x2="3" y2="0"  />
<line x1="0" y1="-3" x2="0" y2="3"  />
</g>
<g id="square">
<line x1="-3" y1="-3" x2="-3" y2="3"  />
<line x1="-3" y1="3" x2="3" y2="3"  />
<line x1="3" y1="3" x2="3" y2="-3"  />
<line x1="3" y1="-3" x2="-3" y2="-3"  />
</g>
<g id="round">
<ellipse cx="0" cy="0" rx="3" ry="3"  fill="none" /></g>
<g id="triangle">
<line x1="0" y1="-3" x2="-3" y2="3"  />
<line x1="-3" y1="3" x2="3" y2="3"  />
<line x1="0" y1="-3" x2="3" y2="3"  />
</g>
</defs>
<polygon fill="none" stroke="#000000" points="66.0317,430.476 66.0317,49.5238 573.968,49.5238 573.968,430.476 " />
<text style="font-size:12;text-align:center;text-anchor:middle;" x="320" y="473.619" fill="#000000">Distance from spot centroid (um)</text>
<use x="66.0317" y="49.5238" xlink:href="#cross"  stroke="#000000" />
<use x="66.0317" y="430.476" xlink:href="#cross"  stroke="#000000" />
<text style="font-size:12;text-align:center;text-anchor:middle;" x="66.0317" y="448.476" fill="#000000">0</text>
<use x="131.284" y="49.5238" xlink:href="#cross"  stroke="#000000" />
<use x="131.284" y="430.476" xlink:href="#cross"  stroke="#000000" />
<text style="font-size:12;text-align:center;text-anchor:middle;" x="131.284" y="448.476" fill="#000000">5</text>
<use x="196.537" y="49.5238" xlink:href="#cross"  stroke="#000000" />
<use x="196.537" y="430.476" xlink:href="#cross"  stroke="#000000" />
<text style="font-size:12;text-align:center;text-anchor:middle;" x="196.537" y="448.476" fill="#000000">10</text>
<use x="261.789" y="49.5238" xlink:href="#cross"  stroke="#000000" />
<use x="261.789" y="430.476" xlink:href="#cross"  stroke="#000000" />
<text style="font-size:12;text-align:center;text-anchor:middle;" x="261.789" y="448.476" fill="#000000">15</text>
<use x="327.041" y="49.5238" xlink:href="#cross"  stroke="#000000" />
<use x="327.041" y="430.476" xlink:href="#cross"  stroke="#000000" />
<text style="font-size:12;text-align:center;text-anchor:middle;" x="327.041" y="448.476" fill="#000000">20</text>
<use x="392.294" y="49.5238" xlink:href="#cross"  stroke="#000000" />
<use x="392.294" y="430.476" xlink:href="#cross"  stroke="#000000" />
<text style="font-size:12;text-align:center;text-anchor:middle;" x="392.294" y="448.476" fill="#000000">25</text>
<use x="457.546" y="49.5238" xlink:href="#cross"  stroke="#000000" />
<use x="457.546" y="430.476" xlink:href="#cross"  stroke="#000000" />
<text style="font-size:12;text-align:center;text-anchor:middle;" x="457.546" y="448.476" fill="#000000">30</text>
<use x="522.799" y="49.5238" xlink:href="#cross"  stroke="#000000" />
<use x="522.799" y="430.476" xlink:href="#cross"  stroke="#000000" />
<text style="font-size:12;text-align:center;text-anchor:middle;" x="522.799" y="448.476" fill="#000000">35</text>
<text style="font-size:12;text-align:center;text-anchor:middle;" x="16.5079" y="246" transform="rotate(-90,16.5079,240)" fill="#000000">Encircled intensity</text>
<use x="573.968" y="430.476" xlink:href="#cross"  stroke="#000000" />
<use x="66.0317" y="430.476" xlink:href="#cross"  stroke="#000000" />
<text style="font-size:12;text-align:right;text-anchor:end;" x="60.0317" y="436.476" fill="#000000">0</text>
<use x="573.968" y="377.858" xlink:href="#cross"  stroke="#000000" />
<use x="66.0317" y="377.858" xlink:href="#cross"  stroke="#000000" />
<text style="font-size:12;text-align:right;text-anchor:end;" x="60.0317" y="383.858" fill="#000000">100</text>
<use x="573.968" y="325.241" xlink:href="#cross"  stroke="#000000" />
<use x="66.0317" y="325.241" xlink:href="#cross"  stroke="#000000" />
<text style="font-size:12;text-align:right;text-anchor:end;" x="60.0317" y="331.241" fill="#000000">200</text>
<use x="573.968" y="272.623" xlink:href="#cross"  stroke="#000000" />
<use x="66.0317" y="272.623" xlink:href="#cross"  stroke="#000000" />
<text style="font-size:12;text-align:right;text-anchor:end;" x="60.0317" y="278.623" fill="#000000">300</text>
<use x="573.968" y="220.005" xlink:href="#cross"  stroke="#000000" />
<use x="66.0317" y="220.005" xlink:href="#cross"  stroke="#000000" />
<text style="font-size:12;text-align:right;text-anchor:end;" x="60.0317" y="226.005" fill="#000000">400</text>
<use x="573.968" y="167.388" xlink:href="#cross"  stroke="#000000" />
<use x="66.0317" y="167.388" xlink:href="#cross"  stroke="#000000" />
<text style="font-size:12;text-align:right;text-anchor:end;" x="60.0317" y="173.388" fill="#000000">500</text>
<use x="573.968" y="114.77" xlink:href="#cross"  stroke="#000000" />
<use x="66.0317" y="114.77" xlink:href="#cross"  stroke="#000000" />
<text style="font-size:12;text-align:right;text-anchor:end;" x="60.0317" y="120.77" fill="#000000">600</text>
<use x="573.968" y="62.1521" xlink:href="#cross"  stroke="#000000" />
<use x="66.0317" y="62.1521" xlink:href="#cross"  stroke="#000000" />
<text style="font-size:12;text-align:right;text-anchor:end;" x="60.0317" y="68.1521" fill="#000000">700</text>
<text style="font-size:18;text-align:center;text-anchor:middle;" x="320" y="33.7619" fill="#000000">Spot diagram encircled rays intensity</text>
<line x1="66.0317" y1="430.476" x2="76.1905" y2="427.845"  stroke="#00ebff" />
<line x1="76.1905" y1="427.845" x2="86.3492" y2="423.636"  stroke="#00ebff" />
<line x1="86.3492" y1="423.636" x2="96.5079" y2="413.639"  stroke="#00ebff" />
<line x1="96.5079" y1="413.639" x2="106.667" y2="400.484"  stroke="#00ebff" />
<line x1="106.667" y1="400.484" x2="116.825" y2="382.068"  stroke="#00ebff" />
<line x1="116.825" y1="382.068" x2="126.984" y2="356.811"  stroke="#00ebff" />
<line x1="126.984" y1="356.811" x2="137.143" y2="316.822"  stroke="#00ebff" />
<line x1="137.143" y1="316.822" x2="147.302" y2="291.039"  stroke="#00ebff" />
<line x1="147.302" y1="291.039" x2="157.46" y2="275.254"  stroke="#00ebff" />
<line x1="157.46" y1="275.254" x2="167.619" y2="257.89"  stroke="#00ebff" />
<line x1="167.619" y1="257.89" x2="177.778" y2="245.262"  stroke="#00ebff" />
<line x1="177.778" y1="245.262" x2="187.937" y2="226.846"  stroke="#00ebff" />
<line x1="187.937" y1="226.846" x2="198.095" y2="215.27"  stroke="#00ebff" />
<line x1="198.095" y1="215.27" x2="208.254" y2="198.958"  stroke="#00ebff" />
<line x1="208.254" y1="198.958" x2="218.413" y2="187.908"  stroke="#00ebff" />
<line x1="218.413" y1="187.908" x2="228.571" y2="174.228"  stroke="#00ebff" />
<line x1="228.571" y1="174.228" x2="238.73" y2="160.021"  stroke="#00ebff" />
<line x1="238.73" y1="160.021" x2="248.889" y2="143.71"  stroke="#00ebff" />
<line x1="248.889" y1="143.71" x2="259.048" y2="126.872"  stroke="#00ebff" />
<line x1="259.048" y1="126.872" x2="269.206" y2="104.772"  stroke="#00ebff" />
<line x1="269.206" y1="104.772" x2="279.365" y2="94.7751"  stroke="#00ebff" />
<line x1="279.365" y1="94.7751" x2="289.524" y2="88.4609"  stroke="#00ebff" />
<line x1="289.524" y1="88.4609" x2="299.683" y2="86.3562"  stroke="#00ebff" />
<line x1="299.683" y1="86.3562" x2="309.841" y2="82.1468"  stroke="#00ebff" />
<line x1="309.841" y1="82.1468" x2="320" y2="75.8327"  stroke="#00ebff" />
<line x1="320" y1="75.8327" x2="330.159" y2="74.7803"  stroke="#00ebff" />
<line x1="330.159" y1="74.7803" x2="340.317" y2="71.6233"  stroke="#00ebff" />
<line x1="340.317" y1="71.6233" x2="350.476" y2="68.4662"  stroke="#00ebff" />
<line x1="350.476" y1="68.4662" x2="360.635" y2="65.3091"  stroke="#00ebff" />
<line x1="360.635" y1="65.3091" x2="370.794" y2="63.2044"  stroke="#00ebff" />
<line x1="370.794" y1="63.2044" x2="380.952" y2="61.0997"  stroke="#00ebff" />
<line x1="380.952" y1="61.0997" x2="391.111" y2="57.9426"  stroke="#00ebff" />
<line x1="391.111" y1="57.9426" x2="401.27" y2="57.9426"  stroke="#00ebff" />
<line x1="401.27" y1="57.9426" x2="411.429" y2="55.8379"  stroke="#00ebff" />
<line x1="411.429" y1="55.8379" x2="421.587" y2="54.7856"  stroke="#00ebff" />
<line x1="421.587" y1="54.7856" x2="431.746" y2="52.6809"  stroke="#00ebff" />
<line x1="431.746" y1="52.6809" x2="441.905" y2="51.6285"  stroke="#00ebff" />
<line x1="441.905" y1="51.6285" x2="452.063" y2="50.5762"  stroke="#00ebff" />
<line x1="452.063" y1="50.5762" x2="462.222" y2="50.5762"  stroke="#00ebff" />
<line x1="462.222" y1="50.5762" x2="472.381" y2="50.5762"  stroke="#00ebff" />
<line x1="472.381" y1="50.5762" x2="482.54" y2="50.5762"  stroke="#00ebff" />
<line x1="482.54" y1="50.5762" x2="492.698" y2="50.5762"  stroke="#00ebff" />
<line x1="492.698" y1="50.5762" x2="502.857" y2="50.5762"  stroke="#00ebff" />
<line x1="502.857" y1="50.5762" x2="513.016" y2="50.5762"  stroke="#00ebff" />
<line x1="513.016" y1="50.5762" x2="523.175" y2="50.5762"  stroke="#00ebff" />
<line x1="523.175" y1="50.5762" x2="533.333" y2="50.5762"  stroke="#00ebff" />
<line x1="533.333" y1="50.5762" x2="543.492" y2="50.5762"  stroke="#00ebff" />
<line x1="543.492" y1="50.5762" x2="553.651" y2="50.5762"  stroke="#00ebff" />
<line x1="553.651" y1="50.5762" x2="563.81" y2="50.5762"  stroke="#00ebff" />
<line x1="563.81" y1="50.5762" x2="573.968" y2="50.5762"  stroke="#00ebff" />
<line x1="66.0317" y1="430.476" x2="76.1905" y2="426.793"  stroke="#ffe100" />
<line x1="76.1905" y1="426.793" x2="86.3492" y2="419.953"  stroke="#ffe100" />
<line x1="86.3492" y1="419.953" x2="96.5079" y2="409.429"  stroke="#ffe100" />
<line x1="96.5079" y1="409.429" x2="106.667" y2="387.856"  stroke="#ffe100" />
<line x1="106.667" y1="387.856" x2="116.825" y2="367.335"  stroke="#ffe100" />
<line x1="116.825" y1="367.335" x2="126.984" y2="348.919"  stroke="#ffe100" />
<line x1="126.984" y1="348.919" x2="137.143" y2="325.241"  stroke="#ffe100" />
<line x1="137.143" y1="325.241" x2="147.302" y2="297.353"  stroke="#ffe100" />
<line x1="147.302" y1="297.353" x2="157.46" y2="213.691"  stroke="#ffe100" />
<line x1="157.46" y1="213.691" x2="167.619" y2="109.508"  stroke="#ffe100" />
<line x1="167.619" y1="109.508" x2="177.778" y2="85.83"  stroke="#ffe100" />
<line x1="177.778" y1="85.83" x2="187.937" y2="70.5709"  stroke="#ffe100" />
<line x1="187.937" y1="70.5709" x2="198.095" y2="62.1521"  stroke="#ffe100" />
<line x1="198.095" y1="62.1521" x2="208.254" y2="53.7332"  stroke="#ffe100" />
<line x1="208.254" y1="53.7332" x2="218.413" y2="52.6809"  stroke="#ffe100" />
<line x1="218.413" y1="52.6809" x2="228.571" y2="49.5238"  stroke="#ffe100" />
<line x1="228.571" y1="49.5238" x2="238.73" y2="49.5238"  stroke="#ffe100" />
<line x1="238.73" y1="49.5238" x2="248.889" y2="49.5238"  stroke="#ffe100" />
<line x1="248.889" y1="49.5238" x2="259.048" y2="49.5238"  stroke="#ffe100" />
<line x1="259.048" y1="49.5238" x2="269.206" y2="49.5238"  stroke="#ffe100" />
<line x1="269.206" y1="49.5238" x2="279.365" y2="49.5238"  stroke="#ffe100" />
<line x1="279.365" y1="49.5238" x2="289.524" y2="49.5238"  stroke="#ffe100" />
<line x1="289.524" y1="49.5238" x2="299.683" y2="49.5238"  stroke="#ffe100" />
<line x1="299.683" y1="49.5238" x2="309.841" y2="49.5238"  stroke="#ffe100" />
<line x1="309.841" y1="49.5238" x2="320" y2="49.5238"  stroke="#ffe100" />
<line x1="320" y1="49.5238" x2="330.159" y2="49.5238"  stroke="#ffe100" />
<line x1="330.159" y1="49.5238" x2="340.317" y2="49.5238"  stroke="#ffe100" />
<line x1="340.317" y1="49.5238" x2="350.476" y2="49.5238"  stroke="#ffe100" />
<line x1="350.476" y1="49.5238" x2="360.635" y2="49.5238"  stroke="#ffe100" />
<line x1="360.635" y1="49.5238" x2="370.794" y2="49.5238"  stroke="#ffe100" />
<line x1="370.794" y1="49.5238" x2="380.952" y2="49.5238"  stroke="#ffe100" />
<line x1="380.952" y1="49.5238" x2="391.111" y2="49.5238"  stroke="#ffe100" />
<line x1="391.111" y1="49.5238" x2="401.27" y2="49.5238"  stroke="#ffe100" />
<line x1="401.27" y1="49.5238" x2="411.429" y2="49.5238"  stroke="#ffe100" />
<line x1="411.429" y1="49.5238" x2="421.587" y2="49.5238"  stroke="#ffe100" />
<line x1="421.587" y1="49.5238" x2="431.746" y2="49.5238"  stroke="#ffe100" />
<line x1="431.746" y1="49.5238" x2="441.905" y2="49.5238"  stroke="#ffe100" />
<line x1="441.905" y1="49.5238" x2="452.063" y2="49.5238"  stroke="#ffe100" />
<line x1="452.063" y1="49.5238" x2="462.222" y2="49.5238"  stroke="#ffe100" />
<line x1="462.222" y1="49.5238" x2="472.381" y2="49.5238"  stroke="#ffe100" />
<line x1="472.381" y1="49.5238" x2="482.54" y2="49.5238"  stroke="#ffe100" />
<line x1="482.54" y1="49.5238" x2="492.698" y2="49.5238"  stroke="#ffe100" />
<line x1="492.698" y1="49.5238" x2="502.857" y2="49.5238"  stroke="#ffe100" />
<line x1="502.857" y1="49.5238" x2="513.016" y2="49.5238"  stroke="#ffe100" />
<line x1="513.016" y1="49.5238" x2="523.175" y2="49.5238"  stroke="#ffe100" />
<line x1="523.175" y1="49.5238" x2="533.333" y2="49.5238"  stroke="#ffe100" />
<line x1="533.333" y1="49.5238" x2="543.492" y2="49.5238"  stroke="#ffe100" />
<line x1="543.492" y1="49.5238" x2="553.651" y2="49.5238"  stroke="#ffe100" />
<line x1="553.651" y1="49.5238" x2="563.81" y2="49.5238"  stroke="#ffe100" />
<line x1="563.81" y1="49.5238" x2="573.968" y2="49.5238"  stroke="#ffe100" />
<line x1="66.0317" y1="430.476" x2="76.1905" y2="429.95"  stroke="#ff0000" />
<line x1="76.1905" y1="429.95" x2="86.3492" y2="424.688"  stroke="#ff0000" />
<line x1="86.3492" y1="424.688" x2="96.5079" y2="420.479"  stroke="#ff0000" />
<line x1="96.5079" y1="420.479" x2="106.667" y2="413.112"  stroke="#ff0000" />
<line x1="106.667" y1="413.112" x2="116.825" y2="401.536"  stroke="#ff0000" />
<line x1="116.825" y1="401.536" x2="126.984" y2="388.382"  stroke="#ff0000" />
<line x1="126.984" y1="388.382" x2="137.143" y2="365.23"  stroke="#ff0000" />
<line x1="137.143" y1="365.23" x2="147.302" y2="343.657"  stroke="#ff0000" />
<line x1="147.302" y1="343.657" x2="157.46" y2="326.819"  stroke="#ff0000" />
<line x1="157.46" y1="326.819" x2="167.619" y2="312.612"  stroke="#ff0000" />
<line x1="167.619" y1="312.612" x2="177.778" y2="298.932"  stroke="#ff0000" />
<line x1="177.778" y1="298.932" x2="187.937" y2="281.568"  stroke="#ff0000" />
<line x1="187.937" y1="281.568" x2="198.095" y2="272.097"  stroke="#ff0000" />
<line x1="198.095" y1="272.097" x2="208.254" y2="257.89"  stroke="#ff0000" />
<line x1="208.254" y1="257.89" x2="218.413" y2="243.683"  stroke="#ff0000" />
<line x1="218.413" y1="243.683" x2="228.571" y2="230.003"  stroke="#ff0000" />
<line x1="228.571" y1="230.003" x2="238.73" y2="214.743"  stroke="#ff0000" />
<line x1="238.73" y1="214.743" x2="248.889" y2="202.641"  stroke="#ff0000" />
<line x1="248.889" y1="202.641" x2="259.048" y2="186.33"  stroke="#ff0000" />
<line x1="259.048" y1="186.33" x2="269.206" y2="167.388"  stroke="#ff0000" />
<line x1="269.206" y1="167.388" x2="279.365" y2="151.602"  stroke="#ff0000" />
<line x1="279.365" y1="151.602" x2="289.524" y2="136.869"  stroke="#ff0000" />
<line x1="289.524" y1="136.869" x2="299.683" y2="128.45"  stroke="#ff0000" />
<line x1="299.683" y1="128.45" x2="309.841" y2="124.241"  stroke="#ff0000" />
<line x1="309.841" y1="124.241" x2="320" y2="116.875"  stroke="#ff0000" />
<line x1="320" y1="116.875" x2="330.159" y2="109.508"  stroke="#ff0000" />
<line x1="330.159" y1="109.508" x2="340.317" y2="106.351"  stroke="#ff0000" />
<line x1="340.317" y1="106.351" x2="350.476" y2="101.089"  stroke="#ff0000" />
<line x1="350.476" y1="101.089" x2="360.635" y2="93.7227"  stroke="#ff0000" />
<line x1="360.635" y1="93.7227" x2="370.794" y2="91.618"  stroke="#ff0000" />
<line x1="370.794" y1="91.618" x2="380.952" y2="87.4086"  stroke="#ff0000" />
<line x1="380.952" y1="87.4086" x2="391.111" y2="85.3039"  stroke="#ff0000" />
<line x1="391.111" y1="85.3039" x2="401.27" y2="80.0421"  stroke="#ff0000" />
<line x1="401.27" y1="80.0421" x2="411.429" y2="77.9374"  stroke="#ff0000" />
<line x1="411.429" y1="77.9374" x2="421.587" y2="74.7803"  stroke="#ff0000" />
<line x1="421.587" y1="74.7803" x2="431.746" y2="73.728"  stroke="#ff0000" />
<line x1="431.746" y1="73.728" x2="441.905" y2="69.5185"  stroke="#ff0000" />
<line x1="441.905" y1="69.5185" x2="452.063" y2="67.4138"  stroke="#ff0000" />
<line x1="452.063" y1="67.4138" x2="462.222" y2="64.2568"  stroke="#ff0000" />
<line x1="462.222" y1="64.2568" x2="472.381" y2="64.2568"  stroke="#ff0000" />
<line x1="472.381" y1="64.2568" x2="482.54" y2="62.1521"  stroke="#ff0000" />
<line x1="482.54" y1="62.1521" x2="492.698" y2="58.995"  stroke="#ff0000" />
<line x1="492.698" y1="58.995" x2="502.857" y2="58.995"  stroke="#ff0000" />
<line x1="502.857" y1="58.995" x2="513.016" y2="56.8903"  stroke="#ff0000" />
<line x1="513.016" y1="56.8903" x2="523.175" y2="55.8379"  stroke="#ff0000" />
<line x1="523.175" y1="55.8379" x2="533.333" y2="53.7332"  stroke="#ff0000" />
<line x1="533.333" y1="53.7332" x2="543.492" y2="53.7332"  stroke="#ff0000" />
<line x1="543.492" y1="53.7332" x2="553.651" y2="52.6809"  stroke="#ff0000" />
<line x1="553.651" y1="52.6809" x2="563.81" y2="52.1547"  stroke="#ff0000" />
<line x1="563.81" y1="52.1547" x2="573.968" y2="51.6285"  stroke="#ff0000" />
</svg>
