<?xml version="1.0" standalone="no"?>
<svg width="640px" height="480px" version="1.1" xmlns="http://www.w3.org/2000/svg" xmlns:xlink="http://www.w3.org/1999/xlink">
<rect x="0" y="0" width="640" height="480"  fill="#ffffff" />
<defs>
<g id="dot">
<line x1="1" y1="1" x2="0" y2="0"  />
</g>
<g id="cross">
<line x1="-3" y1="0" x2="3" y2="0"  />
<line x1="0" y1="-3" x2="0" y2="3"  />
</g>
<g id="square">
<line x1="-3" y1="-3" x2="-3" y2="3"  />
<line x1="-3" y1="3" x2="3" y2="3"  />
<line x1="3" y1="3" x2="3" y2="-3"  />
<line x1="3" y1="-3" x2="-3" y2="-3"  />
</g>
<g id="round">
<ellipse cx="0" cy="0" rx="3" ry="3"  fill="none" /></g>
<g id="triangle">
<line x1="0" y1="-3" x2="-3" y2="3"  />
<line x1="-3" y1="3" x2="3" y2="3"  />
<line x1="0" y1="-3" x2="3" y2="3"  />
</g>
</defs>
<polygon fill="none" stroke="#000000" points="66.0317,430.476 66.0317,49.5238 573.968,49.5238 573.968,430.476 " />
<text style="font-size:12;text-align:center;text-anchor:middle;" x="320" y="473.619" fill="#000000">Entrance ray height (normalized)</text>
<line x1="66.0317" y1="240" x2="573.968" y2="240"  stroke="#000000" />
<use x="66.0317" y="240" xlink:href="#cross"  stroke="#000000" />
<use x="66.0317" y="49.5238" xlink:href="#cross"  stroke="#000000" />
<use x="66.0317" y="430.476" xlink:href="#cross"  stroke="#000000" />
<text style="font-size:12;text-align:center;text-anchor:middle;" x="66.0317" y="448.476" fill="#000000">-1</text>
<use x="320" y="240" xlink:href="#cross"  stroke="#000000" />
<use x="320" y="49.5238" xlink:href="#cross"  stroke="#000000" />
<use x="320" y="430.476" xlink:href="#cross"  stroke="#000000" />
<text style="font-size:12;text-align:center;text-anchor:middle;" x="320" y="448.476" fill="#000000">0</text>
<use x="573.968" y="240" xlink:href="#cross"  stroke="#000000" />
<use x="573.968" y="49.5238" xlink:href="#cross"  stroke="#000000" />
<use x="573.968" y="430.476" xlink:href="#cross"  stroke="#000000" />
<text style="font-size:12;text-align:center;text-anchor:middle;" x="573.968" y="448.476" fill="#000000">1</text>
<text style="font-size:12;text-align:center;text-anchor:middle;" x="16.5079" y="246" transform="rotate(-90,16.5079,240)" fill="#000000">Transverse ray aberration (um)</text>
<line x1="320" y1="430.476" x2="320" y2="49.5238"  stroke="#000000" />
<use x="320" y="377.907" xlink:href="#cross"  stroke="#000000" />
<use x="573.968" y="377.907" xlink:href="#cross"  stroke="#000000" />
<use x="66.0317" y="377.907" xlink:href="#cross"  stroke="#000000" />
<text style="font-size:12;text-align:right;text-anchor:end;" x="60.0317" y="383.907" fill="#000000">-20</text>
<use x="320" y="308.954" xlink:href="#cross"  stroke="#000000" />
<use x="573.968" y="308.954" xlink:href="#cross"  stroke="#000000" />
<use x="66.0317" y="308.954" xlink:href="#cross"  stroke="#000000" />
<text style="font-size:12;text-align:right;text-anchor:end;" x="60.0317" y="314.954" fill="#000000">-10</text>
<use x="320" y="240" xlink:href="#cross"  stroke="#000000" />
<use x="573.968" y="240" xlink:href="#cross"  stroke="#000000" />
<use x="66.0317" y="240" xlink:href="#cross"  stroke="#000000" />
<text style="font-size:12;text-align:right;text-anchor:end;" x="60.0317" y="246" fill="#000000">0</text>
<use x="320" y="171.046" xlink:href="#cross"  stroke="#000000" />
<use x="573.968" y="171.046" xlink:href="#cross"  stroke="#000000" />
<use x="66.0317" y="171.046" xlink:href="#cross"  stroke="#000000" />
<text style="font-size:12;text-align:right;text-anchor:end;" x="60.0317" y="177.046" fill="#000000">10</text>
<use x="320" y="102.093" xlink:href="#cross"  stroke="#000000" />
<use x="573.968" y="102.093" xlink:href="#cross"  stroke="#000000" />
<use x="66.0317" y="102.093" xlink:href="#cross"  stroke="#000000" />
<text style="font-size:12;text-align:right;text-anchor:end;" x="60.0317" y="108.093" fill="#000000">20</text>
<text style="font-size:18;text-align:center;text-anchor:middle;" x="320" y="33.7619" fill="#000000">Transverse ray aberration fan (tangential)</text>
<path fill="none"  stroke="#00ebff" d="M83.2,297.858 S94.4762,310.566 100.114,312.779 S111.39,312.7 117.029,311.133 S128.305,306.126 133.943,303.377 S145.219,297.365 150.857,294.638 S162.133,289.291 167.771,287.014 S179.048,282.774 184.686,280.971 S195.962,277.675 201.6,276.196 S212.876,273.448 218.514,272.094 S229.79,269.472 235.429,268.066 S246.705,265.234 252.343,263.66 S263.619,260.413 269.257,258.619 S280.533,254.895 286.171,252.892 S297.448,248.752 303.086,246.603 S314.362,242.201 320,240 S331.276,235.546 336.914,233.397 S348.19,229.111 353.829,227.108 S365.105,223.176 370.743,221.381 S382.019,217.915 387.657,216.34 S398.933,213.339 404.571,211.934 S415.848,209.261 421.486,207.906 S432.762,205.284 438.4,203.804 S449.676,200.832 455.314,199.029 S466.59,195.264 472.229,192.986 S483.505,188.089 489.143,185.362 S500.419,179.372 506.057,176.623 S517.333,170.434 522.971,168.867 S534.248,165.009 539.886,167.221 S553.981,179.655 556.8,182.142 " />
<path fill="none"  stroke="#ffe100" d="M83.2,210.985 S94.4762,224.514 100.114,227.745 S111.39,230.258 117.029,230.369 S128.305,229.078 133.943,228.41 S145.219,226.784 150.857,226.364 S162.133,225.758 167.771,225.892 S179.048,226.535 184.686,227.168 S195.962,228.76 201.6,229.692 S212.876,231.754 218.514,232.756 S229.79,234.822 235.429,235.709 S246.705,237.426 252.343,238.078 S263.619,239.248 269.257,239.622 S280.533,240.201 286.171,240.322 S297.448,240.401 303.086,240.347 S314.362,240.116 320,240 S331.276,239.707 336.914,239.653 S348.19,239.557 353.829,239.678 S365.105,240.004 370.743,240.378 S382.019,241.27 387.657,241.922 S398.933,243.404 404.571,244.291 S415.848,246.241 421.486,247.244 S432.762,249.377 438.4,250.308 S449.676,252.199 455.314,252.832 S466.59,253.974 472.229,254.108 S483.505,254.055 489.143,253.636 S500.419,252.257 506.057,251.59 S517.333,249.52 522.971,249.631 S534.248,249.024 539.886,252.255 S553.981,266.222 556.8,269.015 " />
<path fill="none"  stroke="#ff0000" d="M83.2,430.476 S94.4762,431.353 100.114,428.557 S111.39,419.271 117.029,413.698 S128.305,401.226 133.943,395.12 S145.219,382.749 150.857,377.062 S162.133,366.014 167.771,360.996 S179.048,351.4 184.686,346.959 S195.962,338.443 201.6,334.348 S212.876,326.382 218.514,322.385 S229.79,314.468 235.429,310.371 S246.705,302.127 252.343,297.802 S263.619,289.019 269.257,284.417 S280.533,275.044 286.171,270.188 S297.448,260.313 303.086,255.281 S314.362,245.094 320,240 S331.276,229.75 336.914,224.719 S348.19,214.668 353.829,209.812 S365.105,200.185 370.743,195.583 S382.019,186.524 387.657,182.198 S398.933,173.727 404.571,169.629 S415.848,161.611 421.486,157.615 S432.762,149.748 438.4,145.652 S449.676,137.483 455.314,133.041 S466.59,124.021 472.229,119.004 S483.505,108.625 489.143,102.938 S500.419,90.9863 506.057,84.8803 S517.333,71.8747 522.971,66.3019 S534.248,54.2398 539.886,51.4435 S553.981,49.8438 556.8,49.5238 " />
</svg>
