<?xml version="1.0" standalone="no"?>
<svg width="640px" height="480px" version="1.1" xmlns="http://www.w3.org/2000/svg" xmlns:xlink="http://www.w3.org/1999/xlink">
<rect x="0" y="0" width="640" height="480"  fill="#ffffff" />
<defs>
<g id="dot">
<line x1="1" y1="1" x2="0" y2="0"  />
</g>
<g id="cross">
<line x1="-3" y1="0" x2="3" y2="0"  />
<line x1="0" y1="-3" x2="0" y2="3"  />
</g>
<g id="square">
<line x1="-3" y1="-3" x2="-3" y2="3"  />
<line x1="-3" y1="3" x2="3" y2="3"  />
<line x1="3" y1="3" x2="3" y2="-3"  />
<line x1="3" y1="-3" x2="-3" y2="-3"  />
</g>
<g id="round">
<ellipse cx="0" cy="0" rx="3" ry="3"  fill="none" /></g>
<g id="triangle">
<line x1="0" y1="-3" x2="-3" y2="3"  />
<line x1="-3" y1="3" x2="3" y2="3"  />
<line x1="0" y1="-3" x2="3" y2="3"  />
</g>
</defs>
<polygon fill="none" stroke="#000000" points="66.0317,430.476 66.0317,49.5238 573.968,49.5238 573.968,430.476 " />
<text style="font-size:12;text-align:center;text-anchor:middle;" x="320" y="473.619" fill="#000000">Distance from spot centroid (um)</text>
<use x="66.0317" y="49.5238" xlink:href="#cross"  stroke="#000000" />
<use x="66.0317" y="430.476" xlink:href="#cross"  stroke="#000000" />
<text style="font-size:12;text-align:center;text-anchor:middle;" x="66.0317" y="448.476" fill="#000000">0</text>
<use x="120.028" y="49.5238" xlink:href="#cross"  stroke="#000000" />
<use x="120.028" y="430.476" xlink:href="#cross"  stroke="#000000" />
<text style="font-size:12;text-align:center;text-anchor:middle;" x="120.028" y="448.476" fill="#000000">5</text>
<use x="174.024" y="49.5238" xlink:href="#cross"  stroke="#000000" />
<use x="174.024" y="430.476" xlink:href="#cross"  stroke="#000000" />
<text style="font-size:12;text-align:center;text-anchor:middle;" x="174.024" y="448.476" fill="#000000">10</text>
<use x="228.02" y="49.5238" xlink:href="#cross"  stroke="#000000" />
<use x="228.02" y="430.476" xlink:href="#cross"  stroke="#000000" />
<text style="font-size:12;text-align:center;text-anchor:middle;" x="228.02" y="448.476" fill="#000000">15</text>
<use x="282.016" y="49.5238" xlink:href="#cross"  stroke="#000000" />
<use x="282.016" y="430.476" xlink:href="#cross"  stroke="#000000" />
<text style="font-size:12;text-align:center;text-anchor:middle;" x="282.016" y="448.476" fill="#000000">20</text>
<use x="336.012" y="49.5238" xlink:href="#cross"  stroke="#000000" />
<use x="336.012" y="430.476" xlink:href="#cross"  stroke="#000000" />
<text style="font-size:12;text-align:center;text-anchor:middle;" x="336.012" y="448.476" fill="#000000">25</text>
<use x="390.008" y="49.5238" xlink:href="#cross"  stroke="#000000" />
<use x="390.008" y="430.476" xlink:href="#cross"  stroke="#000000" />
<text style="font-size:12;text-align:center;text-anchor:middle;" x="390.008" y="448.476" fill="#000000">30</text>
<use x="444.003" y="49.5238" xlink:href="#cross"  stroke="#000000" />
<use x="444.003" y="430.476" xlink:href="#cross"  stroke="#000000" />
<text style="font-size:12;text-align:center;text-anchor:middle;" x="444.003" y="448.476" fill="#000000">35</text>
<use x="497.999" y="49.5238" xlink:href="#cross"  stroke="#000000" />
<use x="497.999" y="430.476" xlink:href="#cross"  stroke="#000000" />
<text style="font-size:12;text-align:center;text-anchor:middle;" x="497.999" y="448.476" fill="#000000">40</text>
<use x="551.995" y="49.5238" xlink:href="#cross"  stroke="#000000" />
<use x="551.995" y="430.476" xlink:href="#cross"  stroke="#000000" />
<text style="font-size:12;text-align:center;text-anchor:middle;" x="551.995" y="448.476" fill="#000000">45</text>
<text style="font-size:12;text-align:center;text-anchor:middle;" x="16.5079" y="246" transform="rotate(-90,16.5079,240)" fill="#000000">Encircled intensity</text>
<use x="573.968" y="430.476" xlink:href="#cross"  stroke="#000000" />
<use x="66.0317" y="430.476" xlink:href="#cross"  stroke="#000000" />
<text style="font-size:12;text-align:right;text-anchor:end;" x="60.0317" y="436.476" fill="#000000">0</text>
<use x="573.968" y="394.367" xlink:href="#cross"  stroke="#000000" />
<use x="66.0317" y="394.367" xlink:href="#cross"  stroke="#000000" />
<text style="font-size:12;text-align:right;text-anchor:end;" x="60.0317" y="400.367" fill="#000000">20</text>
<use x="573.968" y="358.258" xlink:href="#cross"  stroke="#000000" />
<use x="66.0317" y="358.258" xlink:href="#cross"  stroke="#000000" />
<text style="font-size:12;text-align:right;text-anchor:end;" x="60.0317" y="364.258" fill="#000000">40</text>
<use x="573.968" y="322.148" xlink:href="#cross"  stroke="#000000" />
<use x="66.0317" y="322.148" xlink:href="#cross"  stroke="#000000" />
<text style="font-size:12;text-align:right;text-anchor:end;" x="60.0317" y="328.148" fill="#000000">60</text>
<use x="573.968" y="286.039" xlink:href="#cross"  stroke="#000000" />
<use x="66.0317" y="286.039" xlink:href="#cross"  stroke="#000000" />
<text style="font-size:12;text-align:right;text-anchor:end;" x="60.0317" y="292.039" fill="#000000">80</text>
<use x="573.968" y="249.93" xlink:href="#cross"  stroke="#000000" />
<use x="66.0317" y="249.93" xlink:href="#cross"  stroke="#000000" />
<text style="font-size:12;text-align:right;text-anchor:end;" x="60.0317" y="255.93" fill="#000000">100</text>
<use x="573.968" y="213.821" xlink:href="#cross"  stroke="#000000" />
<use x="66.0317" y="213.821" xlink:href="#cross"  stroke="#000000" />
<text style="font-size:12;text-align:right;text-anchor:end;" x="60.0317" y="219.821" fill="#000000">120</text>
<use x="573.968" y="177.712" xlink:href="#cross"  stroke="#000000" />
<use x="66.0317" y="177.712" xlink:href="#cross"  stroke="#000000" />
<text style="font-size:12;text-align:right;text-anchor:end;" x="60.0317" y="183.712" fill="#000000">140</text>
<use x="573.968" y="141.602" xlink:href="#cross"  stroke="#000000" />
<use x="66.0317" y="141.602" xlink:href="#cross"  stroke="#000000" />
<text style="font-size:12;text-align:right;text-anchor:end;" x="60.0317" y="147.602" fill="#000000">160</text>
<use x="573.968" y="105.493" xlink:href="#cross"  stroke="#000000" />
<use x="66.0317" y="105.493" xlink:href="#cross"  stroke="#000000" />
<text style="font-size:12;text-align:right;text-anchor:end;" x="60.0317" y="111.493" fill="#000000">180</text>
<use x="573.968" y="69.3839" xlink:href="#cross"  stroke="#000000" />
<use x="66.0317" y="69.3839" xlink:href="#cross"  stroke="#000000" />
<text style="font-size:12;text-align:right;text-anchor:end;" x="60.0317" y="75.3839" fill="#000000">200</text>
<text style="font-size:18;text-align:center;text-anchor:middle;" x="320" y="33.7619" fill="#000000">Spot diagram encircled rays intensity</text>
<line x1="66.0317" y1="430.476" x2="76.1905" y2="428.671"  stroke="#00ebff" />
<line x1="76.1905" y1="428.671" x2="86.3492" y2="428.671"  stroke="#00ebff" />
<line x1="86.3492" y1="428.671" x2="96.5079" y2="407.005"  stroke="#00ebff" />
<line x1="96.5079" y1="407.005" x2="106.667" y2="407.005"  stroke="#00ebff" />
<line x1="106.667" y1="407.005" x2="116.825" y2="407.005"  stroke="#00ebff" />
<line x1="116.825" y1="407.005" x2="126.984" y2="374.507"  stroke="#00ebff" />
<line x1="126.984" y1="374.507" x2="137.143" y2="374.507"  stroke="#00ebff" />
<line x1="137.143" y1="374.507" x2="147.302" y2="374.507"  stroke="#00ebff" />
<line x1="147.302" y1="374.507" x2="157.46" y2="331.176"  stroke="#00ebff" />
<line x1="157.46" y1="331.176" x2="167.619" y2="331.176"  stroke="#00ebff" />
<line x1="167.619" y1="331.176" x2="177.778" y2="331.176"  stroke="#00ebff" />
<line x1="177.778" y1="331.176" x2="187.937" y2="331.176"  stroke="#00ebff" />
<line x1="187.937" y1="331.176" x2="198.095" y2="331.176"  stroke="#00ebff" />
<line x1="198.095" y1="331.176" x2="208.254" y2="331.176"  stroke="#00ebff" />
<line x1="208.254" y1="331.176" x2="218.413" y2="277.012"  stroke="#00ebff" />
<line x1="218.413" y1="277.012" x2="228.571" y2="277.012"  stroke="#00ebff" />
<line x1="228.571" y1="277.012" x2="238.73" y2="277.012"  stroke="#00ebff" />
<line x1="238.73" y1="277.012" x2="248.889" y2="277.012"  stroke="#00ebff" />
<line x1="248.889" y1="277.012" x2="259.048" y2="277.012"  stroke="#00ebff" />
<line x1="259.048" y1="277.012" x2="269.206" y2="277.012"  stroke="#00ebff" />
<line x1="269.206" y1="277.012" x2="279.365" y2="212.015"  stroke="#00ebff" />
<line x1="279.365" y1="212.015" x2="289.524" y2="212.015"  stroke="#00ebff" />
<line x1="289.524" y1="212.015" x2="299.683" y2="212.015"  stroke="#00ebff" />
<line x1="299.683" y1="212.015" x2="309.841" y2="212.015"  stroke="#00ebff" />
<line x1="309.841" y1="212.015" x2="320" y2="212.015"  stroke="#00ebff" />
<line x1="320" y1="212.015" x2="330.159" y2="212.015"  stroke="#00ebff" />
<line x1="330.159" y1="212.015" x2="340.317" y2="136.186"  stroke="#00ebff" />
<line x1="340.317" y1="136.186" x2="350.476" y2="136.186"  stroke="#00ebff" />
<line x1="350.476" y1="136.186" x2="360.635" y2="136.186"  stroke="#00ebff" />
<line x1="360.635" y1="136.186" x2="370.794" y2="136.186"  stroke="#00ebff" />
<line x1="370.794" y1="136.186" x2="380.952" y2="136.186"  stroke="#00ebff" />
<line x1="380.952" y1="136.186" x2="391.111" y2="136.186"  stroke="#00ebff" />
<line x1="391.111" y1="136.186" x2="401.27" y2="136.186"  stroke="#00ebff" />
<line x1="401.27" y1="136.186" x2="411.429" y2="136.186"  stroke="#00ebff" />
<line x1="411.429" y1="136.186" x2="421.587" y2="136.186"  stroke="#00ebff" />
<line x1="421.587" y1="136.186" x2="431.746" y2="136.186"  stroke="#00ebff" />
<line x1="431.746" y1="136.186" x2="441.905" y2="136.186"  stroke="#00ebff" />
<line x1="441.905" y1="136.186" x2="452.063" y2="136.186"  stroke="#00ebff" />
<line x1="452.063" y1="136.186" x2="462.222" y2="136.186"  stroke="#00ebff" />
<line x1="462.222" y1="136.186" x2="472.381" y2="136.186"  stroke="#00ebff" />
<line x1="472.381" y1="136.186" x2="482.54" y2="136.186"  stroke="#00ebff" />
<line x1="482.54" y1="136.186" x2="492.698" y2="136.186"  stroke="#00ebff" />
<line x1="492.698" y1="136.186" x2="502.857" y2="136.186"  stroke="#00ebff" />
<line x1="502.857" y1="136.186" x2="513.016" y2="136.186"  stroke="#00ebff" />
<line x1="513.016" y1="136.186" x2="523.175" y2="136.186"  stroke="#00ebff" />
<line x1="523.175" y1="136.186" x2="533.333" y2="136.186"  stroke="#00ebff" />
<line x1="533.333" y1="136.186" x2="543.492" y2="136.186"  stroke="#00ebff" />
<line x1="543.492" y1="136.186" x2="553.651" y2="136.186"  stroke="#00ebff" />
<line x1="553.651" y1="136.186" x2="563.81" y2="51.3293"  stroke="#00ebff" />
<line x1="563.81" y1="51.3293" x2="573.968" y2="49.5238"  stroke="#00ebff" />
<line x1="66.0317" y1="430.476" x2="76.1905" y2="374.507"  stroke="#ffe100" />
<line x1="76.1905" y1="374.507" x2="86.3492" y2="331.176"  stroke="#ffe100" />
<line x1="86.3492" y1="331.176" x2="96.5079" y2="331.176"  stroke="#ffe100" />
<line x1="96.5079" y1="331.176" x2="106.667" y2="331.176"  stroke="#ffe100" />
<line x1="106.667" y1="331.176" x2="116.825" y2="331.176"  stroke="#ffe100" />
<line x1="116.825" y1="331.176" x2="126.984" y2="331.176"  stroke="#ffe100" />
<line x1="126.984" y1="331.176" x2="137.143" y2="277.012"  stroke="#ffe100" />
<line x1="137.143" y1="277.012" x2="147.302" y2="277.012"  stroke="#ffe100" />
<line x1="147.302" y1="277.012" x2="157.46" y2="277.012"  stroke="#ffe100" />
<line x1="157.46" y1="277.012" x2="167.619" y2="277.012"  stroke="#ffe100" />
<line x1="167.619" y1="277.012" x2="177.778" y2="277.012"  stroke="#ffe100" />
<line x1="177.778" y1="277.012" x2="187.937" y2="212.015"  stroke="#ffe100" />
<line x1="187.937" y1="212.015" x2="198.095" y2="212.015"  stroke="#ffe100" />
<line x1="198.095" y1="212.015" x2="208.254" y2="212.015"  stroke="#ffe100" />
<line x1="208.254" y1="212.015" x2="218.413" y2="212.015"  stroke="#ffe100" />
<line x1="218.413" y1="212.015" x2="228.571" y2="212.015"  stroke="#ffe100" />
<line x1="228.571" y1="212.015" x2="238.73" y2="212.015"  stroke="#ffe100" />
<line x1="238.73" y1="212.015" x2="248.889" y2="136.186"  stroke="#ffe100" />
<line x1="248.889" y1="136.186" x2="259.048" y2="136.186"  stroke="#ffe100" />
<line x1="259.048" y1="136.186" x2="269.206" y2="136.186"  stroke="#ffe100" />
<line x1="269.206" y1="136.186" x2="279.365" y2="136.186"  stroke="#ffe100" />
<line x1="279.365" y1="136.186" x2="289.524" y2="136.186"  stroke="#ffe100" />
<line x1="289.524" y1="136.186" x2="299.683" y2="136.186"  stroke="#ffe100" />
<line x1="299.683" y1="136.186" x2="309.841" y2="136.186"  stroke="#ffe100" />
<line x1="309.841" y1="136.186" x2="320" y2="136.186"  stroke="#ffe100" />
<line x1="320" y1="136.186" x2="330.159" y2="136.186"  stroke="#ffe100" />
<line x1="330.159" y1="136.186" x2="340.317" y2="136.186"  stroke="#ffe100" />
<line x1="340.317" y1="136.186" x2="350.476" y2="136.186"  stroke="#ffe100" />
<line x1="350.476" y1="136.186" x2="360.635" y2="136.186"  stroke="#ffe100" />
<line x1="360.635" y1="136.186" x2="370.794" y2="136.186"  stroke="#ffe100" />
<line x1="370.794" y1="136.186" x2="380.952" y2="136.186"  stroke="#ffe100" />
<line x1="380.952" y1="136.186" x2="391.111" y2="136.186"  stroke="#ffe100" />
<line x1="391.111" y1="136.186" x2="401.27" y2="136.186"  stroke="#ffe100" />
<line x1="401.27" y1="136.186" x2="411.429" y2="136.186"  stroke="#ffe100" />
<line x1="411.429" y1="136.186" x2="421.587" y2="136.186"  stroke="#ffe100" />
<line x1="421.587" y1="136.186" x2="431.746" y2="136.186"  stroke="#ffe100" />
<line x1="431.746" y1="136.186" x2="441.905" y2="136.186"  stroke="#ffe100" />
<line x1="441.905" y1="136.186" x2="452.063" y2="136.186"  stroke="#ffe100" />
<line x1="452.063" y1="136.186" x2="462.222" y2="136.186"  stroke="#ffe100" />
<line x1="462.222" y1="136.186" x2="472.381" y2="136.186"  stroke="#ffe100" />
<line x1="472.381" y1="136.186" x2="482.54" y2="136.186"  stroke="#ffe100" />
<line x1="482.54" y1="136.186" x2="492.698" y2="136.186"  stroke="#ffe100" />
<line x1="492.698" y1="136.186" x2="502.857" y2="136.186"  stroke="#ffe100" />
<line x1="502.857" y1="136.186" x2="513.016" y2="136.186"  stroke="#ffe100" />
<line x1="513.016" y1="136.186" x2="523.175" y2="136.186"  stroke="#ffe100" />
<line x1="523.175" y1="136.186" x2="533.333" y2="136.186"  stroke="#ffe100" />
<line x1="533.333" y1="136.186" x2="543.492" y2="136.186"  stroke="#ffe100" />
<line x1="543.492" y1="136.186" x2="553.651" y2="136.186"  stroke="#ffe100" />
<line x1="553.651" y1="136.186" x2="563.81" y2="136.186"  stroke="#ffe100" />
<line x1="563.81" y1="136.186" x2="573.968" y2="136.186"  stroke="#ffe100" />
<line x1="66.0317" y1="430.476" x2="76.1905" y2="352.841"  stroke="#ff0000" />
<line x1="76.1905" y1="352.841" x2="86.3492" y2="287.845"  stroke="#ff0000" />
<line x1="86.3492" y1="287.845" x2="96.5079" y2="266.179"  stroke="#ff0000" />
<line x1="96.5079" y1="266.179" x2="106.667" y2="266.179"  stroke="#ff0000" />
<line x1="106.667" y1="266.179" x2="116.825" y2="212.015"  stroke="#ff0000" />
<line x1="116.825" y1="212.015" x2="126.984" y2="179.517"  stroke="#ff0000" />
<line x1="126.984" y1="179.517" x2="137.143" y2="136.186"  stroke="#ff0000" />
<line x1="137.143" y1="136.186" x2="147.302" y2="136.186"  stroke="#ff0000" />
<line x1="147.302" y1="136.186" x2="157.46" y2="136.186"  stroke="#ff0000" />
<line x1="157.46" y1="136.186" x2="167.619" y2="136.186"  stroke="#ff0000" />
<line x1="167.619" y1="136.186" x2="177.778" y2="136.186"  stroke="#ff0000" />
<line x1="177.778" y1="136.186" x2="187.937" y2="136.186"  stroke="#ff0000" />
<line x1="187.937" y1="136.186" x2="198.095" y2="136.186"  stroke="#ff0000" />
<line x1="198.095" y1="136.186" x2="208.254" y2="136.186"  stroke="#ff0000" />
<line x1="208.254" y1="136.186" x2="218.413" y2="136.186"  stroke="#ff0000" />
<line x1="218.413" y1="136.186" x2="228.571" y2="136.186"  stroke="#ff0000" />
<line x1="228.571" y1="136.186" x2="238.73" y2="136.186"  stroke="#ff0000" />
<line x1="238.73" y1="136.186" x2="248.889" y2="136.186"  stroke="#ff0000" />
<line x1="248.889" y1="136.186" x2="259.048" y2="136.186"  stroke="#ff0000" />
<line x1="259.048" y1="136.186" x2="269.206" y2="136.186"  stroke="#ff0000" />
<line x1="269.206" y1="136.186" x2="279.365" y2="136.186"  stroke="#ff0000" />
<line x1="279.365" y1="136.186" x2="289.524" y2="136.186"  stroke="#ff0000" />
<line x1="289.524" y1="136.186" x2="299.683" y2="136.186"  stroke="#ff0000" />
<line x1="299.683" y1="136.186" x2="309.841" y2="136.186"  stroke="#ff0000" />
<line x1="309.841" y1="136.186" x2="320" y2="136.186"  stroke="#ff0000" />
<line x1="320" y1="136.186" x2="330.159" y2="136.186"  stroke="#ff0000" />
<line x1="330.159" y1="136.186" x2="340.317" y2="136.186"  stroke="#ff0000" />
<line x1="340.317" y1="136.186" x2="350.476" y2="136.186"  stroke="#ff0000" />
<line x1="350.476" y1="136.186" x2="360.635" y2="136.186"  stroke="#ff0000" />
<line x1="360.635" y1="136.186" x2="370.794" y2="136.186"  stroke="#ff0000" />
<line x1="370.794" y1="136.186" x2="380.952" y2="136.186"  stroke="#ff0000" />
<line x1="380.952" y1="136.186" x2="391.111" y2="136.186"  stroke="#ff0000" />
<line x1="391.111" y1="136.186" x2="401.27" y2="136.186"  stroke="#ff0000" />
<line x1="401.27" y1="136.186" x2="411.429" y2="136.186"  stroke="#ff0000" />
<line x1="411.429" y1="136.186" x2="421.587" y2="136.186"  stroke="#ff0000" />
<line x1="421.587" y1="136.186" x2="431.746" y2="136.186"  stroke="#ff0000" />
<line x1="431.746" y1="136.186" x2="441.905" y2="136.186"  stroke="#ff0000" />
<line x1="441.905" y1="136.186" x2="452.063" y2="136.186"  stroke="#ff0000" />
<line x1="452.063" y1="136.186" x2="462.222" y2="136.186"  stroke="#ff0000" />
<line x1="462.222" y1="136.186" x2="472.381" y2="136.186"  stroke="#ff0000" />
<line x1="472.381" y1="136.186" x2="482.54" y2="136.186"  stroke="#ff0000" />
<line x1="482.54" y1="136.186" x2="492.698" y2="136.186"  stroke="#ff0000" />
<line x1="492.698" y1="136.186" x2="502.857" y2="136.186"  stroke="#ff0000" />
<line x1="502.857" y1="136.186" x2="513.016" y2="136.186"  stroke="#ff0000" />
<line x1="513.016" y1="136.186" x2="523.175" y2="136.186"  stroke="#ff0000" />
<line x1="523.175" y1="136.186" x2="533.333" y2="136.186"  stroke="#ff0000" />
<line x1="533.333" y1="136.186" x2="543.492" y2="136.186"  stroke="#ff0000" />
<line x1="543.492" y1="136.186" x2="553.651" y2="136.186"  stroke="#ff0000" />
<line x1="553.651" y1="136.186" x2="563.81" y2="136.186"  stroke="#ff0000" />
<line x1="563.81" y1="136.186" x2="573.968" y2="136.186"  stroke="#ff0000" />
</svg>
