<?xml version="1.0" standalone="no"?>
<svg width="640px" height="480px" version="1.1" xmlns="http://www.w3.org/2000/svg" xmlns:xlink="http://www.w3.org/1999/xlink">
<rect x="0" y="0" width="640" height="480"  fill="#ffffff" />
<defs>
<g id="dot">
<line x1="1" y1="1" x2="0" y2="0"  />
</g>
<g id="cross">
<line x1="-3" y1="0" x2="3" y2="0"  />
<line x1="0" y1="-3" x2="0" y2="3"  />
</g>
<g id="square">
<line x1="-3" y1="-3" x2="-3" y2="3"  />
<line x1="-3" y1="3" x2="3" y2="3"  />
<line x1="3" y1="3" x2="3" y2="-3"  />
<line x1="3" y1="-3" x2="-3" y2="-3"  />
</g>
<g id="round">
<ellipse cx="0" cy="0" rx="3" ry="3"  fill="none" /></g>
<g id="triangle">
<line x1="0" y1="-3" x2="-3" y2="3"  />
<line x1="-3" y1="3" x2="3" y2="3"  />
<line x1="0" y1="-3" x2="3" y2="3"  />
</g>
</defs>
<polygon fill="none" stroke="#000000" points="66.0317,430.476 66.0317,49.5238 573.968,49.5238 573.968,430.476 " />
<text style="font-size:12;text-align:center;text-anchor:middle;" x="320" y="473.619" fill="#000000">Distance from spot centroid (um)</text>
<use x="66.0317" y="49.5238" xlink:href="#cross"  stroke="#000000" />
<use x="66.0317" y="430.476" xlink:href="#cross"  stroke="#000000" />
<text style="font-size:12;text-align:center;text-anchor:middle;" x="66.0317" y="448.476" fill="#000000">0</text>
<use x="165.64" y="49.5238" xlink:href="#cross"  stroke="#000000" />
<use x="165.64" y="430.476" xlink:href="#cross"  stroke="#000000" />
<text style="font-size:12;text-align:center;text-anchor:middle;" x="165.64" y="448.476" fill="#000000">20</text>
<use x="265.249" y="49.5238" xlink:href="#cross"  stroke="#000000" />
<use x="265.249" y="430.476" xlink:href="#cross"  stroke="#000000" />
<text style="font-size:12;text-align:center;text-anchor:middle;" x="265.249" y="448.476" fill="#000000">40</text>
<use x="364.857" y="49.5238" xlink:href="#cross"  stroke="#000000" />
<use x="364.857" y="430.476" xlink:href="#cross"  stroke="#000000" />
<text style="font-size:12;text-align:center;text-anchor:middle;" x="364.857" y="448.476" fill="#000000">60</text>
<use x="464.466" y="49.5238" xlink:href="#cross"  stroke="#000000" />
<use x="464.466" y="430.476" xlink:href="#cross"  stroke="#000000" />
<text style="font-size:12;text-align:center;text-anchor:middle;" x="464.466" y="448.476" fill="#000000">80</text>
<use x="564.074" y="49.5238" xlink:href="#cross"  stroke="#000000" />
<use x="564.074" y="430.476" xlink:href="#cross"  stroke="#000000" />
<text style="font-size:12;text-align:center;text-anchor:middle;" x="564.074" y="448.476" fill="#000000">100</text>
<text style="font-size:12;text-align:center;text-anchor:middle;" x="16.5079" y="246" transform="rotate(-90,16.5079,240)" fill="#000000">Encircled intensity</text>
<use x="573.968" y="430.476" xlink:href="#cross"  stroke="#000000" />
<use x="66.0317" y="430.476" xlink:href="#cross"  stroke="#000000" />
<text style="font-size:12;text-align:right;text-anchor:end;" x="60.0317" y="436.476" fill="#000000">0</text>
<use x="573.968" y="373.618" xlink:href="#cross"  stroke="#000000" />
<use x="66.0317" y="373.618" xlink:href="#cross"  stroke="#000000" />
<text style="font-size:12;text-align:right;text-anchor:end;" x="60.0317" y="379.618" fill="#000000">10</text>
<use x="573.968" y="316.759" xlink:href="#cross"  stroke="#000000" />
<use x="66.0317" y="316.759" xlink:href="#cross"  stroke="#000000" />
<text style="font-size:12;text-align:right;text-anchor:end;" x="60.0317" y="322.759" fill="#000000">20</text>
<use x="573.968" y="259.9" xlink:href="#cross"  stroke="#000000" />
<use x="66.0317" y="259.9" xlink:href="#cross"  stroke="#000000" />
<text style="font-size:12;text-align:right;text-anchor:end;" x="60.0317" y="265.9" fill="#000000">30</text>
<use x="573.968" y="203.042" xlink:href="#cross"  stroke="#000000" />
<use x="66.0317" y="203.042" xlink:href="#cross"  stroke="#000000" />
<text style="font-size:12;text-align:right;text-anchor:end;" x="60.0317" y="209.042" fill="#000000">40</text>
<use x="573.968" y="146.183" xlink:href="#cross"  stroke="#000000" />
<use x="66.0317" y="146.183" xlink:href="#cross"  stroke="#000000" />
<text style="font-size:12;text-align:right;text-anchor:end;" x="60.0317" y="152.183" fill="#000000">50</text>
<use x="573.968" y="89.3248" xlink:href="#cross"  stroke="#000000" />
<use x="66.0317" y="89.3248" xlink:href="#cross"  stroke="#000000" />
<text style="font-size:12;text-align:right;text-anchor:end;" x="60.0317" y="95.3248" fill="#000000">60</text>
<text style="font-size:18;text-align:center;text-anchor:middle;" x="320" y="33.7619" fill="#000000">Spot diagram encircled rays intensity</text>
<line x1="66.0317" y1="430.476" x2="76.1905" y2="390.675"  stroke="#00ebff" />
<line x1="76.1905" y1="390.675" x2="86.3492" y2="384.989"  stroke="#00ebff" />
<line x1="86.3492" y1="384.989" x2="96.5079" y2="362.246"  stroke="#00ebff" />
<line x1="96.5079" y1="362.246" x2="106.667" y2="322.445"  stroke="#00ebff" />
<line x1="106.667" y1="322.445" x2="116.825" y2="311.073"  stroke="#00ebff" />
<line x1="116.825" y1="311.073" x2="126.984" y2="311.073"  stroke="#00ebff" />
<line x1="126.984" y1="311.073" x2="137.143" y2="276.958"  stroke="#00ebff" />
<line x1="137.143" y1="276.958" x2="147.302" y2="231.471"  stroke="#00ebff" />
<line x1="147.302" y1="231.471" x2="157.46" y2="220.1"  stroke="#00ebff" />
<line x1="157.46" y1="220.1" x2="167.619" y2="214.414"  stroke="#00ebff" />
<line x1="167.619" y1="214.414" x2="177.778" y2="180.299"  stroke="#00ebff" />
<line x1="177.778" y1="180.299" x2="187.937" y2="168.927"  stroke="#00ebff" />
<line x1="187.937" y1="168.927" x2="198.095" y2="157.555"  stroke="#00ebff" />
<line x1="198.095" y1="157.555" x2="208.254" y2="146.183"  stroke="#00ebff" />
<line x1="208.254" y1="146.183" x2="218.413" y2="129.126"  stroke="#00ebff" />
<line x1="218.413" y1="129.126" x2="228.571" y2="117.754"  stroke="#00ebff" />
<line x1="228.571" y1="117.754" x2="238.73" y2="106.382"  stroke="#00ebff" />
<line x1="238.73" y1="106.382" x2="248.889" y2="106.382"  stroke="#00ebff" />
<line x1="248.889" y1="106.382" x2="259.048" y2="106.382"  stroke="#00ebff" />
<line x1="259.048" y1="106.382" x2="269.206" y2="95.0107"  stroke="#00ebff" />
<line x1="269.206" y1="95.0107" x2="279.365" y2="95.0107"  stroke="#00ebff" />
<line x1="279.365" y1="95.0107" x2="289.524" y2="95.0107"  stroke="#00ebff" />
<line x1="289.524" y1="95.0107" x2="299.683" y2="83.6389"  stroke="#00ebff" />
<line x1="299.683" y1="83.6389" x2="309.841" y2="83.6389"  stroke="#00ebff" />
<line x1="309.841" y1="83.6389" x2="320" y2="83.6389"  stroke="#00ebff" />
<line x1="320" y1="83.6389" x2="330.159" y2="83.6389"  stroke="#00ebff" />
<line x1="330.159" y1="83.6389" x2="340.317" y2="83.6389"  stroke="#00ebff" />
<line x1="340.317" y1="83.6389" x2="350.476" y2="83.6389"  stroke="#00ebff" />
<line x1="350.476" y1="83.6389" x2="360.635" y2="83.6389"  stroke="#00ebff" />
<line x1="360.635" y1="83.6389" x2="370.794" y2="83.6389"  stroke="#00ebff" />
<line x1="370.794" y1="83.6389" x2="380.952" y2="83.6389"  stroke="#00ebff" />
<line x1="380.952" y1="83.6389" x2="391.111" y2="83.6389"  stroke="#00ebff" />
<line x1="391.111" y1="83.6389" x2="401.27" y2="83.6389"  stroke="#00ebff" />
<line x1="401.27" y1="83.6389" x2="411.429" y2="83.6389"  stroke="#00ebff" />
<line x1="411.429" y1="83.6389" x2="421.587" y2="83.6389"  stroke="#00ebff" />
<line x1="421.587" y1="83.6389" x2="431.746" y2="72.2672"  stroke="#00ebff" />
<line x1="431.746" y1="72.2672" x2="441.905" y2="72.2672"  stroke="#00ebff" />
<line x1="441.905" y1="72.2672" x2="452.063" y2="72.2672"  stroke="#00ebff" />
<line x1="452.063" y1="72.2672" x2="462.222" y2="72.2672"  stroke="#00ebff" />
<line x1="462.222" y1="72.2672" x2="472.381" y2="72.2672"  stroke="#00ebff" />
<line x1="472.381" y1="72.2672" x2="482.54" y2="72.2672"  stroke="#00ebff" />
<line x1="482.54" y1="72.2672" x2="492.698" y2="72.2672"  stroke="#00ebff" />
<line x1="492.698" y1="72.2672" x2="502.857" y2="72.2672"  stroke="#00ebff" />
<line x1="502.857" y1="72.2672" x2="513.016" y2="72.2672"  stroke="#00ebff" />
<line x1="513.016" y1="72.2672" x2="523.175" y2="72.2672"  stroke="#00ebff" />
<line x1="523.175" y1="72.2672" x2="533.333" y2="72.2672"  stroke="#00ebff" />
<line x1="533.333" y1="72.2672" x2="543.492" y2="72.2672"  stroke="#00ebff" />
<line x1="543.492" y1="72.2672" x2="553.651" y2="72.2672"  stroke="#00ebff" />
<line x1="553.651" y1="72.2672" x2="563.81" y2="66.5814"  stroke="#00ebff" />
<line x1="563.81" y1="66.5814" x2="573.968" y2="60.8955"  stroke="#00ebff" />
<line x1="66.0317" y1="430.476" x2="76.1905" y2="367.932"  stroke="#ffe100" />
<line x1="76.1905" y1="367.932" x2="86.3492" y2="345.188"  stroke="#ffe100" />
<line x1="86.3492" y1="345.188" x2="96.5079" y2="288.33"  stroke="#ffe100" />
<line x1="96.5079" y1="288.33" x2="106.667" y2="248.529"  stroke="#ffe100" />
<line x1="106.667" y1="248.529" x2="116.825" y2="208.728"  stroke="#ffe100" />
<line x1="116.825" y1="208.728" x2="126.984" y2="185.984"  stroke="#ffe100" />
<line x1="126.984" y1="185.984" x2="137.143" y2="174.613"  stroke="#ffe100" />
<line x1="137.143" y1="174.613" x2="147.302" y2="163.241"  stroke="#ffe100" />
<line x1="147.302" y1="163.241" x2="157.46" y2="140.498"  stroke="#ffe100" />
<line x1="157.46" y1="140.498" x2="167.619" y2="129.126"  stroke="#ffe100" />
<line x1="167.619" y1="129.126" x2="177.778" y2="117.754"  stroke="#ffe100" />
<line x1="177.778" y1="117.754" x2="187.937" y2="106.382"  stroke="#ffe100" />
<line x1="187.937" y1="106.382" x2="198.095" y2="106.382"  stroke="#ffe100" />
<line x1="198.095" y1="106.382" x2="208.254" y2="95.0107"  stroke="#ffe100" />
<line x1="208.254" y1="95.0107" x2="218.413" y2="72.2672"  stroke="#ffe100" />
<line x1="218.413" y1="72.2672" x2="228.571" y2="60.8955"  stroke="#ffe100" />
<line x1="228.571" y1="60.8955" x2="238.73" y2="60.8955"  stroke="#ffe100" />
<line x1="238.73" y1="60.8955" x2="248.889" y2="60.8955"  stroke="#ffe100" />
<line x1="248.889" y1="60.8955" x2="259.048" y2="60.8955"  stroke="#ffe100" />
<line x1="259.048" y1="60.8955" x2="269.206" y2="60.8955"  stroke="#ffe100" />
<line x1="269.206" y1="60.8955" x2="279.365" y2="60.8955"  stroke="#ffe100" />
<line x1="279.365" y1="60.8955" x2="289.524" y2="60.8955"  stroke="#ffe100" />
<line x1="289.524" y1="60.8955" x2="299.683" y2="60.8955"  stroke="#ffe100" />
<line x1="299.683" y1="60.8955" x2="309.841" y2="60.8955"  stroke="#ffe100" />
<line x1="309.841" y1="60.8955" x2="320" y2="60.8955"  stroke="#ffe100" />
<line x1="320" y1="60.8955" x2="330.159" y2="60.8955"  stroke="#ffe100" />
<line x1="330.159" y1="60.8955" x2="340.317" y2="60.8955"  stroke="#ffe100" />
<line x1="340.317" y1="60.8955" x2="350.476" y2="60.8955"  stroke="#ffe100" />
<line x1="350.476" y1="60.8955" x2="360.635" y2="60.8955"  stroke="#ffe100" />
<line x1="360.635" y1="60.8955" x2="370.794" y2="60.8955"  stroke="#ffe100" />
<line x1="370.794" y1="60.8955" x2="380.952" y2="60.8955"  stroke="#ffe100" />
<line x1="380.952" y1="60.8955" x2="391.111" y2="60.8955"  stroke="#ffe100" />
<line x1="391.111" y1="60.8955" x2="401.27" y2="60.8955"  stroke="#ffe100" />
<line x1="401.27" y1="60.8955" x2="411.429" y2="60.8955"  stroke="#ffe100" />
<line x1="411.429" y1="60.8955" x2="421.587" y2="60.8955"  stroke="#ffe100" />
<line x1="421.587" y1="60.8955" x2="431.746" y2="60.8955"  stroke="#ffe100" />
<line x1="431.746" y1="60.8955" x2="441.905" y2="60.8955"  stroke="#ffe100" />
<line x1="441.905" y1="60.8955" x2="452.063" y2="60.8955"  stroke="#ffe100" />
<line x1="452.063" y1="60.8955" x2="462.222" y2="60.8955"  stroke="#ffe100" />
<line x1="462.222" y1="60.8955" x2="472.381" y2="60.8955"  stroke="#ffe100" />
<line x1="472.381" y1="60.8955" x2="482.54" y2="60.8955"  stroke="#ffe100" />
<line x1="482.54" y1="60.8955" x2="492.698" y2="60.8955"  stroke="#ffe100" />
<line x1="492.698" y1="60.8955" x2="502.857" y2="60.8955"  stroke="#ffe100" />
<line x1="502.857" y1="60.8955" x2="513.016" y2="60.8955"  stroke="#ffe100" />
<line x1="513.016" y1="60.8955" x2="523.175" y2="49.5238"  stroke="#ffe100" />
<line x1="523.175" y1="49.5238" x2="533.333" y2="49.5238"  stroke="#ffe100" />
<line x1="533.333" y1="49.5238" x2="543.492" y2="49.5238"  stroke="#ffe100" />
<line x1="543.492" y1="49.5238" x2="553.651" y2="49.5238"  stroke="#ffe100" />
<line x1="553.651" y1="49.5238" x2="563.81" y2="49.5238"  stroke="#ffe100" />
<line x1="563.81" y1="49.5238" x2="573.968" y2="49.5238"  stroke="#ffe100" />
<line x1="66.0317" y1="430.476" x2="76.1905" y2="430.476"  stroke="#ff0000" />
<line x1="76.1905" y1="430.476" x2="86.3492" y2="419.104"  stroke="#ff0000" />
<line x1="86.3492" y1="419.104" x2="96.5079" y2="407.733"  stroke="#ff0000" />
<line x1="96.5079" y1="407.733" x2="106.667" y2="390.675"  stroke="#ff0000" />
<line x1="106.667" y1="390.675" x2="116.825" y2="362.246"  stroke="#ff0000" />
<line x1="116.825" y1="362.246" x2="126.984" y2="265.586"  stroke="#ff0000" />
<line x1="126.984" y1="265.586" x2="137.143" y2="208.728"  stroke="#ff0000" />
<line x1="137.143" y1="208.728" x2="147.302" y2="174.613"  stroke="#ff0000" />
<line x1="147.302" y1="174.613" x2="157.46" y2="151.869"  stroke="#ff0000" />
<line x1="157.46" y1="151.869" x2="167.619" y2="140.498"  stroke="#ff0000" />
<line x1="167.619" y1="140.498" x2="177.778" y2="140.498"  stroke="#ff0000" />
<line x1="177.778" y1="140.498" x2="187.937" y2="129.126"  stroke="#ff0000" />
<line x1="187.937" y1="129.126" x2="198.095" y2="117.754"  stroke="#ff0000" />
<line x1="198.095" y1="117.754" x2="208.254" y2="106.382"  stroke="#ff0000" />
<line x1="208.254" y1="106.382" x2="218.413" y2="106.382"  stroke="#ff0000" />
<line x1="218.413" y1="106.382" x2="228.571" y2="83.6389"  stroke="#ff0000" />
<line x1="228.571" y1="83.6389" x2="238.73" y2="83.6389"  stroke="#ff0000" />
<line x1="238.73" y1="83.6389" x2="248.889" y2="83.6389"  stroke="#ff0000" />
<line x1="248.889" y1="83.6389" x2="259.048" y2="72.2672"  stroke="#ff0000" />
<line x1="259.048" y1="72.2672" x2="269.206" y2="60.8955"  stroke="#ff0000" />
<line x1="269.206" y1="60.8955" x2="279.365" y2="60.8955"  stroke="#ff0000" />
<line x1="279.365" y1="60.8955" x2="289.524" y2="60.8955"  stroke="#ff0000" />
<line x1="289.524" y1="60.8955" x2="299.683" y2="60.8955"  stroke="#ff0000" />
<line x1="299.683" y1="60.8955" x2="309.841" y2="60.8955"  stroke="#ff0000" />
<line x1="309.841" y1="60.8955" x2="320" y2="60.8955"  stroke="#ff0000" />
<line x1="320" y1="60.8955" x2="330.159" y2="60.8955"  stroke="#ff0000" />
<line x1="330.159" y1="60.8955" x2="340.317" y2="60.8955"  stroke="#ff0000" />
<line x1="340.317" y1="60.8955" x2="350.476" y2="60.8955"  stroke="#ff0000" />
<line x1="350.476" y1="60.8955" x2="360.635" y2="60.8955"  stroke="#ff0000" />
<line x1="360.635" y1="60.8955" x2="370.794" y2="60.8955"  stroke="#ff0000" />
<line x1="370.794" y1="60.8955" x2="380.952" y2="60.8955"  stroke="#ff0000" />
<line x1="380.952" y1="60.8955" x2="391.111" y2="60.8955"  stroke="#ff0000" />
<line x1="391.111" y1="60.8955" x2="401.27" y2="60.8955"  stroke="#ff0000" />
<line x1="401.27" y1="60.8955" x2="411.429" y2="60.8955"  stroke="#ff0000" />
<line x1="411.429" y1="60.8955" x2="421.587" y2="60.8955"  stroke="#ff0000" />
<line x1="421.587" y1="60.8955" x2="431.746" y2="60.8955"  stroke="#ff0000" />
<line x1="431.746" y1="60.8955" x2="441.905" y2="49.5238"  stroke="#ff0000" />
<line x1="441.905" y1="49.5238" x2="452.063" y2="49.5238"  stroke="#ff0000" />
<line x1="452.063" y1="49.5238" x2="462.222" y2="49.5238"  stroke="#ff0000" />
<line x1="462.222" y1="49.5238" x2="472.381" y2="49.5238"  stroke="#ff0000" />
<line x1="472.381" y1="49.5238" x2="482.54" y2="49.5238"  stroke="#ff0000" />
<line x1="482.54" y1="49.5238" x2="492.698" y2="49.5238"  stroke="#ff0000" />
<line x1="492.698" y1="49.5238" x2="502.857" y2="49.5238"  stroke="#ff0000" />
<line x1="502.857" y1="49.5238" x2="513.016" y2="49.5238"  stroke="#ff0000" />
<line x1="513.016" y1="49.5238" x2="523.175" y2="49.5238"  stroke="#ff0000" />
<line x1="523.175" y1="49.5238" x2="533.333" y2="49.5238"  stroke="#ff0000" />
<line x1="533.333" y1="49.5238" x2="543.492" y2="49.5238"  stroke="#ff0000" />
<line x1="543.492" y1="49.5238" x2="553.651" y2="49.5238"  stroke="#ff0000" />
<line x1="553.651" y1="49.5238" x2="563.81" y2="49.5238"  stroke="#ff0000" />
<line x1="563.81" y1="49.5238" x2="573.968" y2="49.5238"  stroke="#ff0000" />
</svg>
