<?xml version="1.0" standalone="no"?>
<svg width="300px" height="300px" version="1.1" xmlns="http://www.w3.org/2000/svg" xmlns:xlink="http://www.w3.org/1999/xlink">
<rect x="0" y="0" width="300" height="300"  fill="#000000" />
<defs>
<g id="dot">
<line x1="1" y1="1" x2="0" y2="0"  />
</g>
<g id="cross">
<line x1="-3" y1="0" x2="3" y2="0"  />
<line x1="0" y1="-3" x2="0" y2="3"  />
</g>
<g id="square">
<line x1="-3" y1="-3" x2="-3" y2="3"  />
<line x1="-3" y1="3" x2="3" y2="3"  />
<line x1="3" y1="3" x2="3" y2="-3"  />
<line x1="3" y1="-3" x2="-3" y2="-3"  />
</g>
<g id="round">
<ellipse cx="0" cy="0" rx="3" ry="3"  fill="none" /></g>
<g id="triangle">
<line x1="0" y1="-3" x2="-3" y2="3"  />
<line x1="-3" y1="3" x2="3" y2="3"  />
<line x1="0" y1="-3" x2="3" y2="3"  />
</g>
</defs>
<polygon fill="none" stroke="#ffffff" points="30.9524,269.048 30.9524,30.9524 269.048,30.9524 269.048,269.048 " />
<text style="font-size:12;text-align:center;text-anchor:middle;" x="150" y="298.262" fill="#ffffff">Saggital distance (um)</text>
<use x="70.6349" y="30.9524" xlink:href="#cross"  stroke="#ffffff" />
<use x="70.6349" y="269.048" xlink:href="#cross"  stroke="#ffffff" />
<text style="font-size:12;text-align:center;text-anchor:middle;" x="70.6349" y="287.048" fill="#ffffff">-31.4</text>
<use x="150" y="30.9524" xlink:href="#cross"  stroke="#ffffff" />
<use x="150" y="269.048" xlink:href="#cross"  stroke="#ffffff" />
<text style="font-size:12;text-align:center;text-anchor:middle;" x="150" y="287.048" fill="#ffffff">0</text>
<use x="229.365" y="30.9524" xlink:href="#cross"  stroke="#ffffff" />
<use x="229.365" y="269.048" xlink:href="#cross"  stroke="#ffffff" />
<text style="font-size:12;text-align:center;text-anchor:middle;" x="229.365" y="287.048" fill="#ffffff">31.4</text>
<text style="font-size:12;text-align:center;text-anchor:middle;" x="7.7381" y="156" transform="rotate(-90,7.7381,150)" fill="#ffffff">Tangential distance (um)</text>
<use x="269.048" y="229.365" xlink:href="#cross"  stroke="#ffffff" />
<use x="30.9524" y="229.365" xlink:href="#cross"  stroke="#ffffff" />
<text style="font-size:12;text-align:right;text-anchor:end;" x="24.9524" y="235.365" fill="#ffffff">-31.4</text>
<use x="269.048" y="150" xlink:href="#cross"  stroke="#ffffff" />
<use x="30.9524" y="150" xlink:href="#cross"  stroke="#ffffff" />
<text style="font-size:12;text-align:right;text-anchor:end;" x="24.9524" y="156" fill="#ffffff">0</text>
<use x="269.048" y="70.6349" xlink:href="#cross"  stroke="#ffffff" />
<use x="30.9524" y="70.6349" xlink:href="#cross"  stroke="#ffffff" />
<text style="font-size:12;text-align:right;text-anchor:end;" x="24.9524" y="76.6349" fill="#ffffff">31.4</text>
<use x="150" y="150" xlink:href="#dot"  stroke="#ffe100" />
<use x="150" y="150" xlink:href="#dot"  stroke="#ff0000" />
<use x="150" y="150" xlink:href="#dot"  stroke="#00ebff" />
<use x="150" y="269.048" xlink:href="#dot"  stroke="#00ebff" />
<use x="134.461" y="268.029" xlink:href="#dot"  stroke="#00ebff" />
<use x="119.188" y="264.991" xlink:href="#dot"  stroke="#00ebff" />
<use x="104.442" y="259.986" xlink:href="#dot"  stroke="#00ebff" />
<use x="90.4762" y="253.098" xlink:href="#dot"  stroke="#00ebff" />
<use x="77.5284" y="244.447" xlink:href="#dot"  stroke="#00ebff" />
<use x="65.8206" y="234.179" xlink:href="#dot"  stroke="#00ebff" />
<use x="55.5532" y="222.472" xlink:href="#dot"  stroke="#00ebff" />
<use x="46.9017" y="209.524" xlink:href="#dot"  stroke="#00ebff" />
<use x="40.0143" y="195.558" xlink:href="#dot"  stroke="#00ebff" />
<use x="35.0088" y="180.812" xlink:href="#dot"  stroke="#00ebff" />
<use x="31.9708" y="165.539" xlink:href="#dot"  stroke="#00ebff" />
<use x="30.9524" y="150" xlink:href="#dot"  stroke="#00ebff" />
<use x="31.9708" y="134.461" xlink:href="#dot"  stroke="#00ebff" />
<use x="35.0088" y="119.188" xlink:href="#dot"  stroke="#00ebff" />
<use x="40.0143" y="104.442" xlink:href="#dot"  stroke="#00ebff" />
<use x="46.9017" y="90.4762" xlink:href="#dot"  stroke="#00ebff" />
<use x="55.5532" y="77.5284" xlink:href="#dot"  stroke="#00ebff" />
<use x="65.8206" y="65.8206" xlink:href="#dot"  stroke="#00ebff" />
<use x="77.5284" y="55.5532" xlink:href="#dot"  stroke="#00ebff" />
<use x="90.4762" y="46.9017" xlink:href="#dot"  stroke="#00ebff" />
<use x="104.442" y="40.0143" xlink:href="#dot"  stroke="#00ebff" />
<use x="119.188" y="35.0088" xlink:href="#dot"  stroke="#00ebff" />
<use x="134.461" y="31.9708" xlink:href="#dot"  stroke="#00ebff" />
<use x="150" y="30.9524" xlink:href="#dot"  stroke="#00ebff" />
<use x="165.539" y="31.9708" xlink:href="#dot"  stroke="#00ebff" />
<use x="180.812" y="35.0088" xlink:href="#dot"  stroke="#00ebff" />
<use x="195.558" y="40.0143" xlink:href="#dot"  stroke="#00ebff" />
<use x="209.524" y="46.9017" xlink:href="#dot"  stroke="#00ebff" />
<use x="222.472" y="55.5532" xlink:href="#dot"  stroke="#00ebff" />
<use x="234.179" y="65.8206" xlink:href="#dot"  stroke="#00ebff" />
<use x="244.447" y="77.5284" xlink:href="#dot"  stroke="#00ebff" />
<use x="253.098" y="90.4762" xlink:href="#dot"  stroke="#00ebff" />
<use x="259.986" y="104.442" xlink:href="#dot"  stroke="#00ebff" />
<use x="264.991" y="119.188" xlink:href="#dot"  stroke="#00ebff" />
<use x="268.029" y="134.461" xlink:href="#dot"  stroke="#00ebff" />
<use x="269.048" y="150" xlink:href="#dot"  stroke="#00ebff" />
<use x="268.029" y="165.539" xlink:href="#dot"  stroke="#00ebff" />
<use x="264.991" y="180.812" xlink:href="#dot"  stroke="#00ebff" />
<use x="259.986" y="195.558" xlink:href="#dot"  stroke="#00ebff" />
<use x="253.098" y="209.524" xlink:href="#dot"  stroke="#00ebff" />
<use x="244.447" y="222.472" xlink:href="#dot"  stroke="#00ebff" />
<use x="234.179" y="234.179" xlink:href="#dot"  stroke="#00ebff" />
<use x="222.472" y="244.447" xlink:href="#dot"  stroke="#00ebff" />
<use x="209.524" y="253.098" xlink:href="#dot"  stroke="#00ebff" />
<use x="195.558" y="259.986" xlink:href="#dot"  stroke="#00ebff" />
<use x="180.812" y="264.991" xlink:href="#dot"  stroke="#00ebff" />
<use x="165.539" y="268.029" xlink:href="#dot"  stroke="#00ebff" />
<use x="150" y="192.342" xlink:href="#dot"  stroke="#ffe100" />
<use x="150" y="148.402" xlink:href="#dot"  stroke="#ff0000" />
<use x="150" y="214.95" xlink:href="#dot"  stroke="#00ebff" />
<use x="143.689" y="191.869" xlink:href="#dot"  stroke="#ffe100" />
<use x="150.238" y="148.42" xlink:href="#dot"  stroke="#ff0000" />
<use x="140.32" y="214.224" xlink:href="#dot"  stroke="#00ebff" />
<use x="137.52" y="190.461" xlink:href="#dot"  stroke="#ffe100" />
<use x="150.471" y="148.473" xlink:href="#dot"  stroke="#ff0000" />
<use x="130.856" y="212.064" xlink:href="#dot"  stroke="#00ebff" />
<use x="131.629" y="188.149" xlink:href="#dot"  stroke="#ffe100" />
<use x="150.693" y="148.561" xlink:href="#dot"  stroke="#ff0000" />
<use x="121.819" y="208.518" xlink:href="#dot"  stroke="#00ebff" />
<use x="126.148" y="184.984" xlink:href="#dot"  stroke="#ffe100" />
<use x="150.9" y="148.68" xlink:href="#dot"  stroke="#ff0000" />
<use x="113.413" y="203.664" xlink:href="#dot"  stroke="#00ebff" />
<use x="121.2" y="181.039" xlink:href="#dot"  stroke="#ffe100" />
<use x="151.087" y="148.829" xlink:href="#dot"  stroke="#ff0000" />
<use x="105.823" y="197.612" xlink:href="#dot"  stroke="#00ebff" />
<use x="116.896" y="176.4" xlink:href="#dot"  stroke="#ffe100" />
<use x="151.249" y="149.004" xlink:href="#dot"  stroke="#ff0000" />
<use x="99.2203" y="190.495" xlink:href="#dot"  stroke="#00ebff" />
<use x="113.331" y="171.171" xlink:href="#dot"  stroke="#ffe100" />
<use x="151.383" y="149.201" xlink:href="#dot"  stroke="#ff0000" />
<use x="93.7519" y="182.475" xlink:href="#dot"  stroke="#00ebff" />
<use x="110.585" y="165.469" xlink:href="#dot"  stroke="#ffe100" />
<use x="151.487" y="149.416" xlink:href="#dot"  stroke="#ff0000" />
<use x="89.54" y="173.729" xlink:href="#dot"  stroke="#00ebff" />
<use x="108.72" y="159.422" xlink:href="#dot"  stroke="#ffe100" />
<use x="151.557" y="149.645" xlink:href="#dot"  stroke="#ff0000" />
<use x="86.6787" y="164.453" xlink:href="#dot"  stroke="#00ebff" />
<use x="107.777" y="153.164" xlink:href="#dot"  stroke="#ffe100" />
<use x="151.593" y="149.881" xlink:href="#dot"  stroke="#ff0000" />
<use x="85.2319" y="154.854" xlink:href="#dot"  stroke="#00ebff" />
<use x="107.777" y="146.836" xlink:href="#dot"  stroke="#ffe100" />
<use x="151.593" y="150.119" xlink:href="#dot"  stroke="#ff0000" />
<use x="85.2319" y="145.146" xlink:href="#dot"  stroke="#00ebff" />
<use x="108.72" y="140.578" xlink:href="#dot"  stroke="#ffe100" />
<use x="151.557" y="150.355" xlink:href="#dot"  stroke="#ff0000" />
<use x="86.6787" y="135.547" xlink:href="#dot"  stroke="#00ebff" />
<use x="110.585" y="134.531" xlink:href="#dot"  stroke="#ffe100" />
<use x="151.487" y="150.584" xlink:href="#dot"  stroke="#ff0000" />
<use x="89.54" y="126.271" xlink:href="#dot"  stroke="#00ebff" />
<use x="113.331" y="128.829" xlink:href="#dot"  stroke="#ffe100" />
<use x="151.383" y="150.799" xlink:href="#dot"  stroke="#ff0000" />
<use x="93.7519" y="117.525" xlink:href="#dot"  stroke="#00ebff" />
<use x="116.896" y="123.6" xlink:href="#dot"  stroke="#ffe100" />
<use x="151.249" y="150.996" xlink:href="#dot"  stroke="#ff0000" />
<use x="99.2203" y="109.505" xlink:href="#dot"  stroke="#00ebff" />
<use x="121.2" y="118.961" xlink:href="#dot"  stroke="#ffe100" />
<use x="151.087" y="151.171" xlink:href="#dot"  stroke="#ff0000" />
<use x="105.823" y="102.388" xlink:href="#dot"  stroke="#00ebff" />
<use x="126.148" y="115.016" xlink:href="#dot"  stroke="#ffe100" />
<use x="150.9" y="151.32" xlink:href="#dot"  stroke="#ff0000" />
<use x="113.413" y="96.336" xlink:href="#dot"  stroke="#00ebff" />
<use x="131.629" y="111.851" xlink:href="#dot"  stroke="#ffe100" />
<use x="150.693" y="151.439" xlink:href="#dot"  stroke="#ff0000" />
<use x="121.819" y="91.4823" xlink:href="#dot"  stroke="#00ebff" />
<use x="137.52" y="109.539" xlink:href="#dot"  stroke="#ffe100" />
<use x="150.471" y="151.527" xlink:href="#dot"  stroke="#ff0000" />
<use x="130.856" y="87.9358" xlink:href="#dot"  stroke="#00ebff" />
<use x="143.689" y="108.131" xlink:href="#dot"  stroke="#ffe100" />
<use x="150.238" y="151.58" xlink:href="#dot"  stroke="#ff0000" />
<use x="140.32" y="85.7757" xlink:href="#dot"  stroke="#00ebff" />
<use x="150" y="107.658" xlink:href="#dot"  stroke="#ffe100" />
<use x="150" y="151.598" xlink:href="#dot"  stroke="#ff0000" />
<use x="150" y="85.0503" xlink:href="#dot"  stroke="#00ebff" />
<use x="156.311" y="108.131" xlink:href="#dot"  stroke="#ffe100" />
<use x="149.762" y="151.58" xlink:href="#dot"  stroke="#ff0000" />
<use x="159.68" y="85.7757" xlink:href="#dot"  stroke="#00ebff" />
<use x="162.48" y="109.539" xlink:href="#dot"  stroke="#ffe100" />
<use x="149.529" y="151.527" xlink:href="#dot"  stroke="#ff0000" />
<use x="169.144" y="87.9358" xlink:href="#dot"  stroke="#00ebff" />
<use x="168.371" y="111.851" xlink:href="#dot"  stroke="#ffe100" />
<use x="149.307" y="151.439" xlink:href="#dot"  stroke="#ff0000" />
<use x="178.181" y="91.4823" xlink:href="#dot"  stroke="#00ebff" />
<use x="173.852" y="115.016" xlink:href="#dot"  stroke="#ffe100" />
<use x="149.1" y="151.32" xlink:href="#dot"  stroke="#ff0000" />
<use x="186.587" y="96.336" xlink:href="#dot"  stroke="#00ebff" />
<use x="178.8" y="118.961" xlink:href="#dot"  stroke="#ffe100" />
<use x="148.913" y="151.171" xlink:href="#dot"  stroke="#ff0000" />
<use x="194.177" y="102.388" xlink:href="#dot"  stroke="#00ebff" />
<use x="183.104" y="123.6" xlink:href="#dot"  stroke="#ffe100" />
<use x="148.751" y="150.996" xlink:href="#dot"  stroke="#ff0000" />
<use x="200.78" y="109.505" xlink:href="#dot"  stroke="#00ebff" />
<use x="186.669" y="128.829" xlink:href="#dot"  stroke="#ffe100" />
<use x="148.617" y="150.799" xlink:href="#dot"  stroke="#ff0000" />
<use x="206.248" y="117.525" xlink:href="#dot"  stroke="#00ebff" />
<use x="189.415" y="134.531" xlink:href="#dot"  stroke="#ffe100" />
<use x="148.513" y="150.584" xlink:href="#dot"  stroke="#ff0000" />
<use x="210.46" y="126.271" xlink:href="#dot"  stroke="#00ebff" />
<use x="191.28" y="140.578" xlink:href="#dot"  stroke="#ffe100" />
<use x="148.443" y="150.355" xlink:href="#dot"  stroke="#ff0000" />
<use x="213.321" y="135.547" xlink:href="#dot"  stroke="#00ebff" />
<use x="192.223" y="146.836" xlink:href="#dot"  stroke="#ffe100" />
<use x="148.407" y="150.119" xlink:href="#dot"  stroke="#ff0000" />
<use x="214.768" y="145.146" xlink:href="#dot"  stroke="#00ebff" />
<use x="192.223" y="153.164" xlink:href="#dot"  stroke="#ffe100" />
<use x="148.407" y="149.881" xlink:href="#dot"  stroke="#ff0000" />
<use x="214.768" y="154.854" xlink:href="#dot"  stroke="#00ebff" />
<use x="191.28" y="159.422" xlink:href="#dot"  stroke="#ffe100" />
<use x="148.443" y="149.645" xlink:href="#dot"  stroke="#ff0000" />
<use x="213.321" y="164.453" xlink:href="#dot"  stroke="#00ebff" />
<use x="189.415" y="165.469" xlink:href="#dot"  stroke="#ffe100" />
<use x="148.513" y="149.416" xlink:href="#dot"  stroke="#ff0000" />
<use x="210.46" y="173.729" xlink:href="#dot"  stroke="#00ebff" />
<use x="186.669" y="171.171" xlink:href="#dot"  stroke="#ffe100" />
<use x="148.617" y="149.201" xlink:href="#dot"  stroke="#ff0000" />
<use x="206.248" y="182.475" xlink:href="#dot"  stroke="#00ebff" />
<use x="183.104" y="176.4" xlink:href="#dot"  stroke="#ffe100" />
<use x="148.751" y="149.004" xlink:href="#dot"  stroke="#ff0000" />
<use x="200.78" y="190.495" xlink:href="#dot"  stroke="#00ebff" />
<use x="178.8" y="181.039" xlink:href="#dot"  stroke="#ffe100" />
<use x="148.913" y="148.829" xlink:href="#dot"  stroke="#ff0000" />
<use x="194.177" y="197.612" xlink:href="#dot"  stroke="#00ebff" />
<use x="173.852" y="184.984" xlink:href="#dot"  stroke="#ffe100" />
<use x="149.1" y="148.68" xlink:href="#dot"  stroke="#ff0000" />
<use x="186.587" y="203.664" xlink:href="#dot"  stroke="#00ebff" />
<use x="168.371" y="188.149" xlink:href="#dot"  stroke="#ffe100" />
<use x="149.307" y="148.561" xlink:href="#dot"  stroke="#ff0000" />
<use x="178.181" y="208.518" xlink:href="#dot"  stroke="#00ebff" />
<use x="162.48" y="190.461" xlink:href="#dot"  stroke="#ffe100" />
<use x="149.529" y="148.473" xlink:href="#dot"  stroke="#ff0000" />
<use x="169.144" y="212.064" xlink:href="#dot"  stroke="#00ebff" />
<use x="156.311" y="191.869" xlink:href="#dot"  stroke="#ffe100" />
<use x="149.762" y="148.42" xlink:href="#dot"  stroke="#ff0000" />
<use x="159.68" y="214.224" xlink:href="#dot"  stroke="#00ebff" />
<use x="150" y="178.919" xlink:href="#dot"  stroke="#ffe100" />
<use x="150" y="145.599" xlink:href="#dot"  stroke="#ff0000" />
<use x="150" y="199.544" xlink:href="#dot"  stroke="#00ebff" />
<use x="144.978" y="178.48" xlink:href="#dot"  stroke="#ffe100" />
<use x="150.764" y="145.665" xlink:href="#dot"  stroke="#ff0000" />
<use x="141.397" y="198.791" xlink:href="#dot"  stroke="#00ebff" />
<use x="140.109" y="177.175" xlink:href="#dot"  stroke="#ffe100" />
<use x="151.505" y="145.864" xlink:href="#dot"  stroke="#ff0000" />
<use x="133.055" y="196.556" xlink:href="#dot"  stroke="#00ebff" />
<use x="135.541" y="175.044" xlink:href="#dot"  stroke="#ffe100" />
<use x="152.201" y="146.188" xlink:href="#dot"  stroke="#ff0000" />
<use x="125.228" y="192.906" xlink:href="#dot"  stroke="#00ebff" />
<use x="131.411" y="172.153" xlink:href="#dot"  stroke="#ffe100" />
<use x="152.829" y="146.628" xlink:href="#dot"  stroke="#ff0000" />
<use x="118.154" y="187.953" xlink:href="#dot"  stroke="#00ebff" />
<use x="127.847" y="168.589" xlink:href="#dot"  stroke="#ffe100" />
<use x="153.372" y="147.171" xlink:href="#dot"  stroke="#ff0000" />
<use x="112.047" y="181.846" xlink:href="#dot"  stroke="#00ebff" />
<use x="124.956" y="164.459" xlink:href="#dot"  stroke="#ffe100" />
<use x="153.812" y="147.799" xlink:href="#dot"  stroke="#ff0000" />
<use x="107.094" y="174.772" xlink:href="#dot"  stroke="#00ebff" />
<use x="122.825" y="159.891" xlink:href="#dot"  stroke="#ffe100" />
<use x="154.136" y="148.495" xlink:href="#dot"  stroke="#ff0000" />
<use x="103.444" y="166.945" xlink:href="#dot"  stroke="#00ebff" />
<use x="121.52" y="155.022" xlink:href="#dot"  stroke="#ffe100" />
<use x="154.335" y="149.236" xlink:href="#dot"  stroke="#ff0000" />
<use x="101.209" y="158.603" xlink:href="#dot"  stroke="#00ebff" />
<use x="121.081" y="150" xlink:href="#dot"  stroke="#ffe100" />
<use x="154.401" y="150" xlink:href="#dot"  stroke="#ff0000" />
<use x="100.456" y="150" xlink:href="#dot"  stroke="#00ebff" />
<use x="121.52" y="144.978" xlink:href="#dot"  stroke="#ffe100" />
<use x="154.335" y="150.764" xlink:href="#dot"  stroke="#ff0000" />
<use x="101.209" y="141.397" xlink:href="#dot"  stroke="#00ebff" />
<use x="122.825" y="140.109" xlink:href="#dot"  stroke="#ffe100" />
<use x="154.136" y="151.505" xlink:href="#dot"  stroke="#ff0000" />
<use x="103.444" y="133.055" xlink:href="#dot"  stroke="#00ebff" />
<use x="124.956" y="135.541" xlink:href="#dot"  stroke="#ffe100" />
<use x="153.812" y="152.201" xlink:href="#dot"  stroke="#ff0000" />
<use x="107.094" y="125.228" xlink:href="#dot"  stroke="#00ebff" />
<use x="127.847" y="131.411" xlink:href="#dot"  stroke="#ffe100" />
<use x="153.372" y="152.829" xlink:href="#dot"  stroke="#ff0000" />
<use x="112.047" y="118.154" xlink:href="#dot"  stroke="#00ebff" />
<use x="131.411" y="127.847" xlink:href="#dot"  stroke="#ffe100" />
<use x="152.829" y="153.372" xlink:href="#dot"  stroke="#ff0000" />
<use x="118.154" y="112.047" xlink:href="#dot"  stroke="#00ebff" />
<use x="135.541" y="124.956" xlink:href="#dot"  stroke="#ffe100" />
<use x="152.201" y="153.812" xlink:href="#dot"  stroke="#ff0000" />
<use x="125.228" y="107.094" xlink:href="#dot"  stroke="#00ebff" />
<use x="140.109" y="122.825" xlink:href="#dot"  stroke="#ffe100" />
<use x="151.505" y="154.136" xlink:href="#dot"  stroke="#ff0000" />
<use x="133.055" y="103.444" xlink:href="#dot"  stroke="#00ebff" />
<use x="144.978" y="121.52" xlink:href="#dot"  stroke="#ffe100" />
<use x="150.764" y="154.335" xlink:href="#dot"  stroke="#ff0000" />
<use x="141.397" y="101.209" xlink:href="#dot"  stroke="#00ebff" />
<use x="150" y="121.081" xlink:href="#dot"  stroke="#ffe100" />
<use x="150" y="154.401" xlink:href="#dot"  stroke="#ff0000" />
<use x="150" y="100.456" xlink:href="#dot"  stroke="#00ebff" />
<use x="155.022" y="121.52" xlink:href="#dot"  stroke="#ffe100" />
<use x="149.236" y="154.335" xlink:href="#dot"  stroke="#ff0000" />
<use x="158.603" y="101.209" xlink:href="#dot"  stroke="#00ebff" />
<use x="159.891" y="122.825" xlink:href="#dot"  stroke="#ffe100" />
<use x="148.495" y="154.136" xlink:href="#dot"  stroke="#ff0000" />
<use x="166.945" y="103.444" xlink:href="#dot"  stroke="#00ebff" />
<use x="164.459" y="124.956" xlink:href="#dot"  stroke="#ffe100" />
<use x="147.799" y="153.812" xlink:href="#dot"  stroke="#ff0000" />
<use x="174.772" y="107.094" xlink:href="#dot"  stroke="#00ebff" />
<use x="168.589" y="127.847" xlink:href="#dot"  stroke="#ffe100" />
<use x="147.171" y="153.372" xlink:href="#dot"  stroke="#ff0000" />
<use x="181.846" y="112.047" xlink:href="#dot"  stroke="#00ebff" />
<use x="172.153" y="131.411" xlink:href="#dot"  stroke="#ffe100" />
<use x="146.628" y="152.829" xlink:href="#dot"  stroke="#ff0000" />
<use x="187.953" y="118.154" xlink:href="#dot"  stroke="#00ebff" />
<use x="175.044" y="135.541" xlink:href="#dot"  stroke="#ffe100" />
<use x="146.188" y="152.201" xlink:href="#dot"  stroke="#ff0000" />
<use x="192.906" y="125.228" xlink:href="#dot"  stroke="#00ebff" />
<use x="177.175" y="140.109" xlink:href="#dot"  stroke="#ffe100" />
<use x="145.864" y="151.505" xlink:href="#dot"  stroke="#ff0000" />
<use x="196.556" y="133.055" xlink:href="#dot"  stroke="#00ebff" />
<use x="178.48" y="144.978" xlink:href="#dot"  stroke="#ffe100" />
<use x="145.665" y="150.764" xlink:href="#dot"  stroke="#ff0000" />
<use x="198.791" y="141.397" xlink:href="#dot"  stroke="#00ebff" />
<use x="178.919" y="150" xlink:href="#dot"  stroke="#ffe100" />
<use x="145.599" y="150" xlink:href="#dot"  stroke="#ff0000" />
<use x="199.544" y="150" xlink:href="#dot"  stroke="#00ebff" />
<use x="178.48" y="155.022" xlink:href="#dot"  stroke="#ffe100" />
<use x="145.665" y="149.236" xlink:href="#dot"  stroke="#ff0000" />
<use x="198.791" y="158.603" xlink:href="#dot"  stroke="#00ebff" />
<use x="177.175" y="159.891" xlink:href="#dot"  stroke="#ffe100" />
<use x="145.864" y="148.495" xlink:href="#dot"  stroke="#ff0000" />
<use x="196.556" y="166.945" xlink:href="#dot"  stroke="#00ebff" />
<use x="175.044" y="164.459" xlink:href="#dot"  stroke="#ffe100" />
<use x="146.188" y="147.799" xlink:href="#dot"  stroke="#ff0000" />
<use x="192.906" y="174.772" xlink:href="#dot"  stroke="#00ebff" />
<use x="172.153" y="168.589" xlink:href="#dot"  stroke="#ffe100" />
<use x="146.628" y="147.171" xlink:href="#dot"  stroke="#ff0000" />
<use x="187.953" y="181.846" xlink:href="#dot"  stroke="#00ebff" />
<use x="168.589" y="172.153" xlink:href="#dot"  stroke="#ffe100" />
<use x="147.171" y="146.628" xlink:href="#dot"  stroke="#ff0000" />
<use x="181.846" y="187.953" xlink:href="#dot"  stroke="#00ebff" />
<use x="164.459" y="175.044" xlink:href="#dot"  stroke="#ffe100" />
<use x="147.799" y="146.188" xlink:href="#dot"  stroke="#ff0000" />
<use x="174.772" y="192.906" xlink:href="#dot"  stroke="#00ebff" />
<use x="159.891" y="177.175" xlink:href="#dot"  stroke="#ffe100" />
<use x="148.495" y="145.864" xlink:href="#dot"  stroke="#ff0000" />
<use x="166.945" y="196.556" xlink:href="#dot"  stroke="#00ebff" />
<use x="155.022" y="178.48" xlink:href="#dot"  stroke="#ffe100" />
<use x="149.236" y="145.665" xlink:href="#dot"  stroke="#ff0000" />
<use x="158.603" y="198.791" xlink:href="#dot"  stroke="#00ebff" />
<use x="150" y="165.25" xlink:href="#dot"  stroke="#ffe100" />
<use x="150" y="139.225" xlink:href="#dot"  stroke="#ff0000" />
<use x="150" y="185.269" xlink:href="#dot"  stroke="#00ebff" />
<use x="146.829" y="164.917" xlink:href="#dot"  stroke="#ffe100" />
<use x="152.24" y="139.46" xlink:href="#dot"  stroke="#ff0000" />
<use x="142.667" y="184.499" xlink:href="#dot"  stroke="#00ebff" />
<use x="143.797" y="163.932" xlink:href="#dot"  stroke="#ffe100" />
<use x="154.383" y="140.157" xlink:href="#dot"  stroke="#ff0000" />
<use x="135.655" y="182.22" xlink:href="#dot"  stroke="#00ebff" />
<use x="141.036" y="162.338" xlink:href="#dot"  stroke="#ffe100" />
<use x="156.333" y="141.283" xlink:href="#dot"  stroke="#ff0000" />
<use x="129.269" y="178.534" xlink:href="#dot"  stroke="#00ebff" />
<use x="138.667" y="160.204" xlink:href="#dot"  stroke="#ffe100" />
<use x="158.007" y="142.79" xlink:href="#dot"  stroke="#ff0000" />
<use x="123.79" y="173.6" xlink:href="#dot"  stroke="#00ebff" />
<use x="136.793" y="157.625" xlink:href="#dot"  stroke="#ffe100" />
<use x="159.331" y="144.612" xlink:href="#dot"  stroke="#ff0000" />
<use x="119.456" y="167.635" xlink:href="#dot"  stroke="#00ebff" />
<use x="135.496" y="154.713" xlink:href="#dot"  stroke="#ffe100" />
<use x="160.248" y="146.67" xlink:href="#dot"  stroke="#ff0000" />
<use x="116.457" y="160.899" xlink:href="#dot"  stroke="#00ebff" />
<use x="134.833" y="151.594" xlink:href="#dot"  stroke="#ffe100" />
<use x="160.716" y="148.874" xlink:href="#dot"  stroke="#ff0000" />
<use x="114.924" y="153.687" xlink:href="#dot"  stroke="#00ebff" />
<use x="134.833" y="148.406" xlink:href="#dot"  stroke="#ffe100" />
<use x="160.716" y="151.126" xlink:href="#dot"  stroke="#ff0000" />
<use x="114.924" y="146.313" xlink:href="#dot"  stroke="#00ebff" />
<use x="135.496" y="145.287" xlink:href="#dot"  stroke="#ffe100" />
<use x="160.248" y="153.33" xlink:href="#dot"  stroke="#ff0000" />
<use x="116.457" y="139.101" xlink:href="#dot"  stroke="#00ebff" />
<use x="136.793" y="142.375" xlink:href="#dot"  stroke="#ffe100" />
<use x="159.331" y="155.388" xlink:href="#dot"  stroke="#ff0000" />
<use x="119.456" y="132.365" xlink:href="#dot"  stroke="#00ebff" />
<use x="138.667" y="139.796" xlink:href="#dot"  stroke="#ffe100" />
<use x="158.007" y="157.21" xlink:href="#dot"  stroke="#ff0000" />
<use x="123.79" y="126.4" xlink:href="#dot"  stroke="#00ebff" />
<use x="141.036" y="137.662" xlink:href="#dot"  stroke="#ffe100" />
<use x="156.333" y="158.717" xlink:href="#dot"  stroke="#ff0000" />
<use x="129.269" y="121.466" xlink:href="#dot"  stroke="#00ebff" />
<use x="143.797" y="136.068" xlink:href="#dot"  stroke="#ffe100" />
<use x="154.383" y="159.843" xlink:href="#dot"  stroke="#ff0000" />
<use x="135.655" y="117.78" xlink:href="#dot"  stroke="#00ebff" />
<use x="146.829" y="135.083" xlink:href="#dot"  stroke="#ffe100" />
<use x="152.24" y="160.54" xlink:href="#dot"  stroke="#ff0000" />
<use x="142.667" y="115.501" xlink:href="#dot"  stroke="#00ebff" />
<use x="150" y="134.75" xlink:href="#dot"  stroke="#ffe100" />
<use x="150" y="160.775" xlink:href="#dot"  stroke="#ff0000" />
<use x="150" y="114.731" xlink:href="#dot"  stroke="#00ebff" />
<use x="153.171" y="135.083" xlink:href="#dot"  stroke="#ffe100" />
<use x="147.76" y="160.54" xlink:href="#dot"  stroke="#ff0000" />
<use x="157.333" y="115.501" xlink:href="#dot"  stroke="#00ebff" />
<use x="156.203" y="136.068" xlink:href="#dot"  stroke="#ffe100" />
<use x="145.617" y="159.843" xlink:href="#dot"  stroke="#ff0000" />
<use x="164.345" y="117.78" xlink:href="#dot"  stroke="#00ebff" />
<use x="158.964" y="137.662" xlink:href="#dot"  stroke="#ffe100" />
<use x="143.667" y="158.717" xlink:href="#dot"  stroke="#ff0000" />
<use x="170.731" y="121.466" xlink:href="#dot"  stroke="#00ebff" />
<use x="161.333" y="139.796" xlink:href="#dot"  stroke="#ffe100" />
<use x="141.993" y="157.21" xlink:href="#dot"  stroke="#ff0000" />
<use x="176.21" y="126.4" xlink:href="#dot"  stroke="#00ebff" />
<use x="163.207" y="142.375" xlink:href="#dot"  stroke="#ffe100" />
<use x="140.669" y="155.388" xlink:href="#dot"  stroke="#ff0000" />
<use x="180.544" y="132.365" xlink:href="#dot"  stroke="#00ebff" />
<use x="164.504" y="145.287" xlink:href="#dot"  stroke="#ffe100" />
<use x="139.752" y="153.33" xlink:href="#dot"  stroke="#ff0000" />
<use x="183.543" y="139.101" xlink:href="#dot"  stroke="#00ebff" />
<use x="165.167" y="148.406" xlink:href="#dot"  stroke="#ffe100" />
<use x="139.284" y="151.126" xlink:href="#dot"  stroke="#ff0000" />
<use x="185.076" y="146.313" xlink:href="#dot"  stroke="#00ebff" />
<use x="165.167" y="151.594" xlink:href="#dot"  stroke="#ffe100" />
<use x="139.284" y="148.874" xlink:href="#dot"  stroke="#ff0000" />
<use x="185.076" y="153.687" xlink:href="#dot"  stroke="#00ebff" />
<use x="164.504" y="154.713" xlink:href="#dot"  stroke="#ffe100" />
<use x="139.752" y="146.67" xlink:href="#dot"  stroke="#ff0000" />
<use x="183.543" y="160.899" xlink:href="#dot"  stroke="#00ebff" />
<use x="163.207" y="157.625" xlink:href="#dot"  stroke="#ffe100" />
<use x="140.669" y="144.612" xlink:href="#dot"  stroke="#ff0000" />
<use x="180.544" y="167.635" xlink:href="#dot"  stroke="#00ebff" />
<use x="161.333" y="160.204" xlink:href="#dot"  stroke="#ffe100" />
<use x="141.993" y="142.79" xlink:href="#dot"  stroke="#ff0000" />
<use x="176.21" y="173.6" xlink:href="#dot"  stroke="#00ebff" />
<use x="158.964" y="162.338" xlink:href="#dot"  stroke="#ffe100" />
<use x="143.667" y="141.283" xlink:href="#dot"  stroke="#ff0000" />
<use x="170.731" y="178.534" xlink:href="#dot"  stroke="#00ebff" />
<use x="156.203" y="163.932" xlink:href="#dot"  stroke="#ffe100" />
<use x="145.617" y="140.157" xlink:href="#dot"  stroke="#ff0000" />
<use x="164.345" y="182.22" xlink:href="#dot"  stroke="#00ebff" />
<use x="153.171" y="164.917" xlink:href="#dot"  stroke="#ffe100" />
<use x="147.76" y="139.46" xlink:href="#dot"  stroke="#ff0000" />
<use x="157.333" y="184.499" xlink:href="#dot"  stroke="#00ebff" />
<use x="150" y="153.388" xlink:href="#dot"  stroke="#ffe100" />
<use x="150" y="133.793" xlink:href="#dot"  stroke="#ff0000" />
<use x="150" y="171.091" xlink:href="#dot"  stroke="#00ebff" />
<use x="149.123" y="153.272" xlink:href="#dot"  stroke="#ffe100" />
<use x="154.195" y="134.346" xlink:href="#dot"  stroke="#ff0000" />
<use x="144.541" y="170.372" xlink:href="#dot"  stroke="#00ebff" />
<use x="148.306" y="152.934" xlink:href="#dot"  stroke="#ffe100" />
<use x="158.103" y="135.965" xlink:href="#dot"  stroke="#ff0000" />
<use x="139.454" y="168.265" xlink:href="#dot"  stroke="#00ebff" />
<use x="147.605" y="152.395" xlink:href="#dot"  stroke="#ffe100" />
<use x="161.46" y="138.54" xlink:href="#dot"  stroke="#ff0000" />
<use x="135.086" y="164.914" xlink:href="#dot"  stroke="#00ebff" />
<use x="147.066" y="151.694" xlink:href="#dot"  stroke="#ffe100" />
<use x="164.035" y="141.897" xlink:href="#dot"  stroke="#ff0000" />
<use x="131.735" y="160.546" xlink:href="#dot"  stroke="#00ebff" />
<use x="146.728" y="150.877" xlink:href="#dot"  stroke="#ffe100" />
<use x="165.654" y="145.805" xlink:href="#dot"  stroke="#ff0000" />
<use x="129.628" y="155.459" xlink:href="#dot"  stroke="#00ebff" />
<use x="146.612" y="150" xlink:href="#dot"  stroke="#ffe100" />
<use x="166.207" y="150" xlink:href="#dot"  stroke="#ff0000" />
<use x="128.909" y="150" xlink:href="#dot"  stroke="#00ebff" />
<use x="146.728" y="149.123" xlink:href="#dot"  stroke="#ffe100" />
<use x="165.654" y="154.195" xlink:href="#dot"  stroke="#ff0000" />
<use x="129.628" y="144.541" xlink:href="#dot"  stroke="#00ebff" />
<use x="147.066" y="148.306" xlink:href="#dot"  stroke="#ffe100" />
<use x="164.035" y="158.103" xlink:href="#dot"  stroke="#ff0000" />
<use x="131.735" y="139.454" xlink:href="#dot"  stroke="#00ebff" />
<use x="147.605" y="147.605" xlink:href="#dot"  stroke="#ffe100" />
<use x="161.46" y="161.46" xlink:href="#dot"  stroke="#ff0000" />
<use x="135.086" y="135.086" xlink:href="#dot"  stroke="#00ebff" />
<use x="148.306" y="147.066" xlink:href="#dot"  stroke="#ffe100" />
<use x="158.103" y="164.035" xlink:href="#dot"  stroke="#ff0000" />
<use x="139.454" y="131.735" xlink:href="#dot"  stroke="#00ebff" />
<use x="149.123" y="146.728" xlink:href="#dot"  stroke="#ffe100" />
<use x="154.195" y="165.654" xlink:href="#dot"  stroke="#ff0000" />
<use x="144.541" y="129.628" xlink:href="#dot"  stroke="#00ebff" />
<use x="150" y="146.612" xlink:href="#dot"  stroke="#ffe100" />
<use x="150" y="166.207" xlink:href="#dot"  stroke="#ff0000" />
<use x="150" y="128.909" xlink:href="#dot"  stroke="#00ebff" />
<use x="150.877" y="146.728" xlink:href="#dot"  stroke="#ffe100" />
<use x="145.805" y="165.654" xlink:href="#dot"  stroke="#ff0000" />
<use x="155.459" y="129.628" xlink:href="#dot"  stroke="#00ebff" />
<use x="151.694" y="147.066" xlink:href="#dot"  stroke="#ffe100" />
<use x="141.897" y="164.035" xlink:href="#dot"  stroke="#ff0000" />
<use x="160.546" y="131.735" xlink:href="#dot"  stroke="#00ebff" />
<use x="152.395" y="147.605" xlink:href="#dot"  stroke="#ffe100" />
<use x="138.54" y="161.46" xlink:href="#dot"  stroke="#ff0000" />
<use x="164.914" y="135.086" xlink:href="#dot"  stroke="#00ebff" />
<use x="152.934" y="148.306" xlink:href="#dot"  stroke="#ffe100" />
<use x="135.965" y="158.103" xlink:href="#dot"  stroke="#ff0000" />
<use x="168.265" y="139.454" xlink:href="#dot"  stroke="#00ebff" />
<use x="153.272" y="149.123" xlink:href="#dot"  stroke="#ffe100" />
<use x="134.346" y="154.195" xlink:href="#dot"  stroke="#ff0000" />
<use x="170.372" y="144.541" xlink:href="#dot"  stroke="#00ebff" />
<use x="153.388" y="150" xlink:href="#dot"  stroke="#ffe100" />
<use x="133.793" y="150" xlink:href="#dot"  stroke="#ff0000" />
<use x="171.091" y="150" xlink:href="#dot"  stroke="#00ebff" />
<use x="153.272" y="150.877" xlink:href="#dot"  stroke="#ffe100" />
<use x="134.346" y="145.805" xlink:href="#dot"  stroke="#ff0000" />
<use x="170.372" y="155.459" xlink:href="#dot"  stroke="#00ebff" />
<use x="152.934" y="151.694" xlink:href="#dot"  stroke="#ffe100" />
<use x="135.965" y="141.897" xlink:href="#dot"  stroke="#ff0000" />
<use x="168.265" y="160.546" xlink:href="#dot"  stroke="#00ebff" />
<use x="152.395" y="152.395" xlink:href="#dot"  stroke="#ffe100" />
<use x="138.54" y="138.54" xlink:href="#dot"  stroke="#ff0000" />
<use x="164.914" y="164.914" xlink:href="#dot"  stroke="#00ebff" />
<use x="151.694" y="152.934" xlink:href="#dot"  stroke="#ffe100" />
<use x="141.897" y="135.965" xlink:href="#dot"  stroke="#ff0000" />
<use x="160.546" y="168.265" xlink:href="#dot"  stroke="#00ebff" />
<use x="150.877" y="153.272" xlink:href="#dot"  stroke="#ffe100" />
<use x="145.805" y="134.346" xlink:href="#dot"  stroke="#ff0000" />
<use x="155.459" y="170.372" xlink:href="#dot"  stroke="#00ebff" />
<use x="150" y="149.878" xlink:href="#dot"  stroke="#ffe100" />
<use x="150" y="136.672" xlink:href="#dot"  stroke="#ff0000" />
<use x="150" y="163.093" xlink:href="#dot"  stroke="#00ebff" />
<use x="150.042" y="149.885" xlink:href="#dot"  stroke="#ffe100" />
<use x="154.558" y="137.476" xlink:href="#dot"  stroke="#ff0000" />
<use x="145.522" y="162.303" xlink:href="#dot"  stroke="#00ebff" />
<use x="150.079" y="149.906" xlink:href="#dot"  stroke="#ffe100" />
<use x="158.567" y="139.79" xlink:href="#dot"  stroke="#ff0000" />
<use x="141.584" y="160.029" xlink:href="#dot"  stroke="#00ebff" />
<use x="150.106" y="149.939" xlink:href="#dot"  stroke="#ffe100" />
<use x="161.542" y="143.336" xlink:href="#dot"  stroke="#ff0000" />
<use x="138.662" y="156.546" xlink:href="#dot"  stroke="#00ebff" />
<use x="150.121" y="149.979" xlink:href="#dot"  stroke="#ffe100" />
<use x="163.125" y="147.686" xlink:href="#dot"  stroke="#ff0000" />
<use x="137.106" y="152.273" xlink:href="#dot"  stroke="#00ebff" />
<use x="150.121" y="150.021" xlink:href="#dot"  stroke="#ffe100" />
<use x="163.125" y="152.314" xlink:href="#dot"  stroke="#ff0000" />
<use x="137.106" y="147.727" xlink:href="#dot"  stroke="#00ebff" />
<use x="150.106" y="150.061" xlink:href="#dot"  stroke="#ffe100" />
<use x="161.542" y="156.664" xlink:href="#dot"  stroke="#ff0000" />
<use x="138.662" y="143.454" xlink:href="#dot"  stroke="#00ebff" />
<use x="150.079" y="150.094" xlink:href="#dot"  stroke="#ffe100" />
<use x="158.567" y="160.21" xlink:href="#dot"  stroke="#ff0000" />
<use x="141.584" y="139.971" xlink:href="#dot"  stroke="#00ebff" />
<use x="150.042" y="150.115" xlink:href="#dot"  stroke="#ffe100" />
<use x="154.558" y="162.524" xlink:href="#dot"  stroke="#ff0000" />
<use x="145.522" y="137.697" xlink:href="#dot"  stroke="#00ebff" />
<use x="150" y="150.122" xlink:href="#dot"  stroke="#ffe100" />
<use x="150" y="163.328" xlink:href="#dot"  stroke="#ff0000" />
<use x="150" y="136.907" xlink:href="#dot"  stroke="#00ebff" />
<use x="149.958" y="150.115" xlink:href="#dot"  stroke="#ffe100" />
<use x="145.442" y="162.524" xlink:href="#dot"  stroke="#ff0000" />
<use x="154.478" y="137.697" xlink:href="#dot"  stroke="#00ebff" />
<use x="149.921" y="150.094" xlink:href="#dot"  stroke="#ffe100" />
<use x="141.433" y="160.21" xlink:href="#dot"  stroke="#ff0000" />
<use x="158.416" y="139.971" xlink:href="#dot"  stroke="#00ebff" />
<use x="149.894" y="150.061" xlink:href="#dot"  stroke="#ffe100" />
<use x="138.458" y="156.664" xlink:href="#dot"  stroke="#ff0000" />
<use x="161.338" y="143.454" xlink:href="#dot"  stroke="#00ebff" />
<use x="149.879" y="150.021" xlink:href="#dot"  stroke="#ffe100" />
<use x="136.875" y="152.314" xlink:href="#dot"  stroke="#ff0000" />
<use x="162.894" y="147.727" xlink:href="#dot"  stroke="#00ebff" />
<use x="149.879" y="149.979" xlink:href="#dot"  stroke="#ffe100" />
<use x="136.875" y="147.686" xlink:href="#dot"  stroke="#ff0000" />
<use x="162.894" y="152.273" xlink:href="#dot"  stroke="#00ebff" />
<use x="149.894" y="149.939" xlink:href="#dot"  stroke="#ffe100" />
<use x="138.458" y="143.336" xlink:href="#dot"  stroke="#ff0000" />
<use x="161.338" y="156.546" xlink:href="#dot"  stroke="#00ebff" />
<use x="149.921" y="149.906" xlink:href="#dot"  stroke="#ffe100" />
<use x="141.433" y="139.79" xlink:href="#dot"  stroke="#ff0000" />
<use x="158.416" y="160.029" xlink:href="#dot"  stroke="#00ebff" />
<use x="149.958" y="149.885" xlink:href="#dot"  stroke="#ffe100" />
<use x="145.442" y="137.476" xlink:href="#dot"  stroke="#ff0000" />
<use x="154.478" y="162.303" xlink:href="#dot"  stroke="#00ebff" />
<use x="150" y="150.157" xlink:href="#dot"  stroke="#ffe100" />
<use x="150" y="143.496" xlink:href="#dot"  stroke="#ff0000" />
<use x="150" y="157.205" xlink:href="#dot"  stroke="#00ebff" />
<use x="149.922" y="150.136" xlink:href="#dot"  stroke="#ffe100" />
<use x="153.252" y="144.367" xlink:href="#dot"  stroke="#ff0000" />
<use x="146.398" y="156.24" xlink:href="#dot"  stroke="#00ebff" />
<use x="149.864" y="150.078" xlink:href="#dot"  stroke="#ffe100" />
<use x="155.633" y="146.748" xlink:href="#dot"  stroke="#ff0000" />
<use x="143.76" y="153.602" xlink:href="#dot"  stroke="#00ebff" />
<use x="149.843" y="150" xlink:href="#dot"  stroke="#ffe100" />
<use x="156.504" y="150" xlink:href="#dot"  stroke="#ff0000" />
<use x="142.795" y="150" xlink:href="#dot"  stroke="#00ebff" />
<use x="149.864" y="149.922" xlink:href="#dot"  stroke="#ffe100" />
<use x="155.633" y="153.252" xlink:href="#dot"  stroke="#ff0000" />
<use x="143.76" y="146.398" xlink:href="#dot"  stroke="#00ebff" />
<use x="149.922" y="149.864" xlink:href="#dot"  stroke="#ffe100" />
<use x="153.252" y="155.633" xlink:href="#dot"  stroke="#ff0000" />
<use x="146.398" y="143.76" xlink:href="#dot"  stroke="#00ebff" />
<use x="150" y="149.843" xlink:href="#dot"  stroke="#ffe100" />
<use x="150" y="156.504" xlink:href="#dot"  stroke="#ff0000" />
<use x="150" y="142.795" xlink:href="#dot"  stroke="#00ebff" />
<use x="150.078" y="149.864" xlink:href="#dot"  stroke="#ffe100" />
<use x="146.748" y="155.633" xlink:href="#dot"  stroke="#ff0000" />
<use x="153.602" y="143.76" xlink:href="#dot"  stroke="#00ebff" />
<use x="150.136" y="149.922" xlink:href="#dot"  stroke="#ffe100" />
<use x="144.367" y="153.252" xlink:href="#dot"  stroke="#ff0000" />
<use x="156.24" y="146.398" xlink:href="#dot"  stroke="#00ebff" />
<use x="150.157" y="150" xlink:href="#dot"  stroke="#ffe100" />
<use x="143.496" y="150" xlink:href="#dot"  stroke="#ff0000" />
<use x="157.205" y="150" xlink:href="#dot"  stroke="#00ebff" />
<use x="150.136" y="150.078" xlink:href="#dot"  stroke="#ffe100" />
<use x="144.367" y="146.748" xlink:href="#dot"  stroke="#ff0000" />
<use x="156.24" y="153.602" xlink:href="#dot"  stroke="#00ebff" />
<use x="150.078" y="150.136" xlink:href="#dot"  stroke="#ffe100" />
<use x="146.748" y="144.367" xlink:href="#dot"  stroke="#ff0000" />
<use x="153.602" y="156.24" xlink:href="#dot"  stroke="#00ebff" />
</svg>
