<?xml version="1.0" standalone="no"?>
<svg width="640px" height="480px" version="1.1" xmlns="http://www.w3.org/2000/svg" xmlns:xlink="http://www.w3.org/1999/xlink">
<rect x="0" y="0" width="640" height="480"  fill="#ffffff" />
<defs>
<g id="dot">
<line x1="1" y1="1" x2="0" y2="0"  />
</g>
<g id="cross">
<line x1="-3" y1="0" x2="3" y2="0"  />
<line x1="0" y1="-3" x2="0" y2="3"  />
</g>
<g id="square">
<line x1="-3" y1="-3" x2="-3" y2="3"  />
<line x1="-3" y1="3" x2="3" y2="3"  />
<line x1="3" y1="3" x2="3" y2="-3"  />
<line x1="3" y1="-3" x2="-3" y2="-3"  />
</g>
<g id="round">
<ellipse cx="0" cy="0" rx="3" ry="3"  fill="none" /></g>
<g id="triangle">
<line x1="0" y1="-3" x2="-3" y2="3"  />
<line x1="-3" y1="3" x2="3" y2="3"  />
<line x1="0" y1="-3" x2="3" y2="3"  />
</g>
</defs>
<g><title>element</title>
</g>
<g><title>element</title>
<g><title>element</title>
<line x1="477.645" y1="133.819" x2="473.086" y2="147.93"  stroke="#7f7fff" />
<line x1="473.086" y1="147.93" x2="482.666" y2="149.644"  stroke="#7f7fff" />
<line x1="482.666" y1="149.644" x2="477.645" y2="133.819"  stroke="#7f7fff" />
<line x1="487.629" y1="166.472" x2="493.111" y2="151.583"  stroke="#7f7fff" />
<line x1="493.111" y1="151.583" x2="482.666" y2="149.644"  stroke="#7f7fff" />
<line x1="482.666" y1="149.644" x2="487.629" y2="166.472"  stroke="#7f7fff" />
<line x1="487.629" y1="134.694" x2="477.645" y2="133.819"  stroke="#7f7fff" />
<line x1="477.645" y1="133.819" x2="482.666" y2="149.644"  stroke="#7f7fff" />
<line x1="482.666" y1="149.644" x2="487.629" y2="134.694"  stroke="#7f7fff" />
<line x1="477.645" y1="163.705" x2="487.629" y2="166.472"  stroke="#7f7fff" />
<line x1="487.629" y1="166.472" x2="482.666" y2="149.644"  stroke="#7f7fff" />
<line x1="482.666" y1="149.644" x2="477.645" y2="163.705"  stroke="#7f7fff" />
<line x1="493.111" y1="151.583" x2="487.629" y2="134.694"  stroke="#7f7fff" />
<line x1="487.629" y1="134.694" x2="482.666" y2="149.644"  stroke="#7f7fff" />
<line x1="482.666" y1="149.644" x2="493.111" y2="151.583"  stroke="#7f7fff" />
<line x1="473.086" y1="147.93" x2="477.645" y2="163.705"  stroke="#7f7fff" />
<line x1="477.645" y1="163.705" x2="482.666" y2="149.644"  stroke="#7f7fff" />
<line x1="482.666" y1="149.644" x2="473.086" y2="147.93"  stroke="#7f7fff" />
<line x1="473.086" y1="147.93" x2="466.374" y2="130.72"  stroke="#7f7fff" />
<line x1="466.374" y1="130.72" x2="464.229" y2="146.403"  stroke="#7f7fff" />
<line x1="464.229" y1="146.403" x2="473.086" y2="147.93"  stroke="#7f7fff" />
<line x1="493.111" y1="151.583" x2="501.204" y2="173.072"  stroke="#7f7fff" />
<line x1="501.204" y1="173.072" x2="504.601" y2="153.793"  stroke="#7f7fff" />
<line x1="504.601" y1="153.793" x2="493.111" y2="151.583"  stroke="#7f7fff" />
<line x1="473.086" y1="147.93" x2="477.645" y2="133.819"  stroke="#7f7fff" />
<line x1="477.645" y1="133.819" x2="466.374" y2="130.72"  stroke="#7f7fff" />
<line x1="466.374" y1="130.72" x2="473.086" y2="147.93"  stroke="#7f7fff" />
<line x1="493.111" y1="151.583" x2="487.629" y2="166.472"  stroke="#7f7fff" />
<line x1="487.629" y1="166.472" x2="501.204" y2="173.072"  stroke="#7f7fff" />
<line x1="501.204" y1="173.072" x2="493.111" y2="151.583"  stroke="#7f7fff" />
<line x1="477.645" y1="133.819" x2="472.571" y2="118.908"  stroke="#7f7fff" />
<line x1="472.571" y1="118.908" x2="466.374" y2="130.72"  stroke="#7f7fff" />
<line x1="466.374" y1="130.72" x2="477.645" y2="133.819"  stroke="#7f7fff" />
<line x1="487.629" y1="166.472" x2="492.528" y2="184.401"  stroke="#7f7fff" />
<line x1="492.528" y1="184.401" x2="501.204" y2="173.072"  stroke="#7f7fff" />
<line x1="501.204" y1="173.072" x2="487.629" y2="166.472"  stroke="#7f7fff" />
<line x1="477.645" y1="133.819" x2="481.937" y2="114.076"  stroke="#7f7fff" />
<line x1="481.937" y1="114.076" x2="472.571" y2="118.908"  stroke="#7f7fff" />
<line x1="472.571" y1="118.908" x2="477.645" y2="133.819"  stroke="#7f7fff" />
<line x1="487.629" y1="166.472" x2="481.937" y2="185.213"  stroke="#7f7fff" />
<line x1="481.937" y1="185.213" x2="492.528" y2="184.401"  stroke="#7f7fff" />
<line x1="492.528" y1="184.401" x2="487.629" y2="166.472"  stroke="#7f7fff" />
<line x1="477.645" y1="133.819" x2="487.629" y2="134.694"  stroke="#7f7fff" />
<line x1="487.629" y1="134.694" x2="481.937" y2="114.076"  stroke="#7f7fff" />
<line x1="481.937" y1="114.076" x2="477.645" y2="133.819"  stroke="#7f7fff" />
<line x1="487.629" y1="166.472" x2="477.645" y2="163.705"  stroke="#7f7fff" />
<line x1="477.645" y1="163.705" x2="481.937" y2="185.213"  stroke="#7f7fff" />
<line x1="481.937" y1="185.213" x2="487.629" y2="166.472"  stroke="#7f7fff" />
<line x1="487.629" y1="134.694" x2="492.528" y2="118.765"  stroke="#7f7fff" />
<line x1="492.528" y1="118.765" x2="481.937" y2="114.076"  stroke="#7f7fff" />
<line x1="481.937" y1="114.076" x2="487.629" y2="134.694"  stroke="#7f7fff" />
<line x1="477.645" y1="163.705" x2="472.571" y2="176.952"  stroke="#7f7fff" />
<line x1="472.571" y1="176.952" x2="481.937" y2="185.213"  stroke="#7f7fff" />
<line x1="481.937" y1="185.213" x2="477.645" y2="163.705"  stroke="#7f7fff" />
<line x1="487.629" y1="134.694" x2="501.204" y2="133.271"  stroke="#7f7fff" />
<line x1="501.204" y1="133.271" x2="492.528" y2="118.765"  stroke="#7f7fff" />
<line x1="492.528" y1="118.765" x2="487.629" y2="134.694"  stroke="#7f7fff" />
<line x1="477.645" y1="163.705" x2="466.374" y2="162.87"  stroke="#7f7fff" />
<line x1="466.374" y1="162.87" x2="472.571" y2="176.952"  stroke="#7f7fff" />
<line x1="472.571" y1="176.952" x2="477.645" y2="163.705"  stroke="#7f7fff" />
<line x1="487.629" y1="134.694" x2="493.111" y2="151.583"  stroke="#7f7fff" />
<line x1="493.111" y1="151.583" x2="501.204" y2="133.271"  stroke="#7f7fff" />
<line x1="501.204" y1="133.271" x2="487.629" y2="134.694"  stroke="#7f7fff" />
<line x1="477.645" y1="163.705" x2="473.086" y2="147.93"  stroke="#7f7fff" />
<line x1="473.086" y1="147.93" x2="466.374" y2="162.87"  stroke="#7f7fff" />
<line x1="466.374" y1="162.87" x2="477.645" y2="163.705"  stroke="#7f7fff" />
<line x1="493.111" y1="151.583" x2="504.601" y2="153.793"  stroke="#7f7fff" />
<line x1="504.601" y1="153.793" x2="501.204" y2="133.271"  stroke="#7f7fff" />
<line x1="501.204" y1="133.271" x2="493.111" y2="151.583"  stroke="#7f7fff" />
<line x1="473.086" y1="147.93" x2="464.229" y2="146.403"  stroke="#7f7fff" />
<line x1="464.229" y1="146.403" x2="466.374" y2="162.87"  stroke="#7f7fff" />
<line x1="466.374" y1="162.87" x2="473.086" y2="147.93"  stroke="#7f7fff" />
<line x1="464.229" y1="146.403" x2="457.27" y2="129.715"  stroke="#7f7fff" />
<line x1="457.27" y1="129.715" x2="455.983" y2="145.034"  stroke="#7f7fff" />
<line x1="455.983" y1="145.034" x2="464.229" y2="146.403"  stroke="#7f7fff" />
<line x1="504.601" y1="153.793" x2="514.724" y2="177.915"  stroke="#7f7fff" />
<line x1="514.724" y1="177.915" x2="517.375" y2="156.336"  stroke="#7f7fff" />
<line x1="517.375" y1="156.336" x2="504.601" y2="153.793"  stroke="#7f7fff" />
<line x1="464.229" y1="146.403" x2="466.374" y2="130.72"  stroke="#7f7fff" />
<line x1="466.374" y1="130.72" x2="457.27" y2="129.715"  stroke="#7f7fff" />
<line x1="457.27" y1="129.715" x2="464.229" y2="146.403"  stroke="#7f7fff" />
<line x1="504.601" y1="153.793" x2="501.204" y2="173.072"  stroke="#7f7fff" />
<line x1="501.204" y1="173.072" x2="514.724" y2="177.915"  stroke="#7f7fff" />
<line x1="514.724" y1="177.915" x2="504.601" y2="153.793"  stroke="#7f7fff" />
<line x1="466.374" y1="130.72" x2="461.117" y2="115.925"  stroke="#7f7fff" />
<line x1="461.117" y1="115.925" x2="457.27" y2="129.715"  stroke="#7f7fff" />
<line x1="457.27" y1="129.715" x2="466.374" y2="130.72"  stroke="#7f7fff" />
<line x1="501.204" y1="173.072" x2="507.474" y2="194.441"  stroke="#7f7fff" />
<line x1="507.474" y1="194.441" x2="514.724" y2="177.915"  stroke="#7f7fff" />
<line x1="514.724" y1="177.915" x2="501.204" y2="173.072"  stroke="#7f7fff" />
<line x1="466.374" y1="130.72" x2="472.571" y2="118.908"  stroke="#7f7fff" />
<line x1="472.571" y1="118.908" x2="461.117" y2="115.925"  stroke="#7f7fff" />
<line x1="461.117" y1="115.925" x2="466.374" y2="130.72"  stroke="#7f7fff" />
<line x1="501.204" y1="173.072" x2="492.528" y2="184.401"  stroke="#7f7fff" />
<line x1="492.528" y1="184.401" x2="507.474" y2="194.441"  stroke="#7f7fff" />
<line x1="507.474" y1="194.441" x2="501.204" y2="173.072"  stroke="#7f7fff" />
<line x1="472.571" y1="118.908" x2="467.448" y2="104.836"  stroke="#7f7fff" />
<line x1="467.448" y1="104.836" x2="461.117" y2="115.925"  stroke="#7f7fff" />
<line x1="461.117" y1="115.925" x2="472.571" y2="118.908"  stroke="#7f7fff" />
<line x1="492.528" y1="184.401" x2="497.357" y2="203.542"  stroke="#7f7fff" />
<line x1="497.357" y1="203.542" x2="507.474" y2="194.441"  stroke="#7f7fff" />
<line x1="507.474" y1="194.441" x2="492.528" y2="184.401"  stroke="#7f7fff" />
<line x1="472.571" y1="118.908" x2="476.036" y2="97.8116"  stroke="#7f7fff" />
<line x1="476.036" y1="97.8116" x2="467.448" y2="104.836"  stroke="#7f7fff" />
<line x1="467.448" y1="104.836" x2="472.571" y2="118.908"  stroke="#7f7fff" />
<line x1="492.528" y1="184.401" x2="486.345" y2="204.902"  stroke="#7f7fff" />
<line x1="486.345" y1="204.902" x2="497.357" y2="203.542"  stroke="#7f7fff" />
<line x1="497.357" y1="203.542" x2="492.528" y2="184.401"  stroke="#7f7fff" />
<line x1="472.571" y1="118.908" x2="481.937" y2="114.076"  stroke="#7f7fff" />
<line x1="481.937" y1="114.076" x2="476.036" y2="97.8116"  stroke="#7f7fff" />
<line x1="476.036" y1="97.8116" x2="472.571" y2="118.908"  stroke="#7f7fff" />
<line x1="492.528" y1="184.401" x2="481.937" y2="185.213"  stroke="#7f7fff" />
<line x1="481.937" y1="185.213" x2="486.345" y2="204.902"  stroke="#7f7fff" />
<line x1="486.345" y1="204.902" x2="492.528" y2="184.401"  stroke="#7f7fff" />
<line x1="481.937" y1="114.076" x2="486.345" y2="96.3456"  stroke="#7f7fff" />
<line x1="486.345" y1="96.3456" x2="476.036" y2="97.8116"  stroke="#7f7fff" />
<line x1="476.036" y1="97.8116" x2="481.937" y2="114.076"  stroke="#7f7fff" />
<line x1="481.937" y1="185.213" x2="476.036" y2="199.64"  stroke="#7f7fff" />
<line x1="476.036" y1="199.64" x2="486.345" y2="204.902"  stroke="#7f7fff" />
<line x1="486.345" y1="204.902" x2="481.937" y2="185.213"  stroke="#7f7fff" />
<line x1="481.937" y1="114.076" x2="492.528" y2="118.765"  stroke="#7f7fff" />
<line x1="492.528" y1="118.765" x2="486.345" y2="96.3456"  stroke="#7f7fff" />
<line x1="486.345" y1="96.3456" x2="481.937" y2="114.076"  stroke="#7f7fff" />
<line x1="481.937" y1="185.213" x2="472.571" y2="176.952"  stroke="#7f7fff" />
<line x1="472.571" y1="176.952" x2="476.036" y2="199.64"  stroke="#7f7fff" />
<line x1="476.036" y1="199.64" x2="481.937" y2="185.213"  stroke="#7f7fff" />
<line x1="492.528" y1="118.765" x2="497.357" y2="101.76"  stroke="#7f7fff" />
<line x1="497.357" y1="101.76" x2="486.345" y2="96.3456"  stroke="#7f7fff" />
<line x1="486.345" y1="96.3456" x2="492.528" y2="118.765"  stroke="#7f7fff" />
<line x1="472.571" y1="176.952" x2="467.448" y2="189.454"  stroke="#7f7fff" />
<line x1="467.448" y1="189.454" x2="476.036" y2="199.64"  stroke="#7f7fff" />
<line x1="476.036" y1="199.64" x2="472.571" y2="176.952"  stroke="#7f7fff" />
<line x1="492.528" y1="118.765" x2="507.474" y2="114.586"  stroke="#7f7fff" />
<line x1="507.474" y1="114.586" x2="497.357" y2="101.76"  stroke="#7f7fff" />
<line x1="497.357" y1="101.76" x2="492.528" y2="118.765"  stroke="#7f7fff" />
<line x1="472.571" y1="176.952" x2="461.117" y2="176.034"  stroke="#7f7fff" />
<line x1="461.117" y1="176.034" x2="467.448" y2="189.454"  stroke="#7f7fff" />
<line x1="467.448" y1="189.454" x2="472.571" y2="176.952"  stroke="#7f7fff" />
<line x1="492.528" y1="118.765" x2="501.204" y2="133.271"  stroke="#7f7fff" />
<line x1="501.204" y1="133.271" x2="507.474" y2="114.586"  stroke="#7f7fff" />
<line x1="507.474" y1="114.586" x2="492.528" y2="118.765"  stroke="#7f7fff" />
<line x1="472.571" y1="176.952" x2="466.374" y2="162.87"  stroke="#7f7fff" />
<line x1="466.374" y1="162.87" x2="461.117" y2="176.034"  stroke="#7f7fff" />
<line x1="461.117" y1="176.034" x2="472.571" y2="176.952"  stroke="#7f7fff" />
<line x1="501.204" y1="133.271" x2="514.724" y2="133.782"  stroke="#7f7fff" />
<line x1="514.724" y1="133.782" x2="507.474" y2="114.586"  stroke="#7f7fff" />
<line x1="507.474" y1="114.586" x2="501.204" y2="133.271"  stroke="#7f7fff" />
<line x1="466.374" y1="162.87" x2="457.27" y2="160.827"  stroke="#7f7fff" />
<line x1="457.27" y1="160.827" x2="461.117" y2="176.034"  stroke="#7f7fff" />
<line x1="461.117" y1="176.034" x2="466.374" y2="162.87"  stroke="#7f7fff" />
<line x1="501.204" y1="133.271" x2="504.601" y2="153.793"  stroke="#7f7fff" />
<line x1="504.601" y1="153.793" x2="514.724" y2="133.782"  stroke="#7f7fff" />
<line x1="514.724" y1="133.782" x2="501.204" y2="133.271"  stroke="#7f7fff" />
<line x1="466.374" y1="162.87" x2="464.229" y2="146.403"  stroke="#7f7fff" />
<line x1="464.229" y1="146.403" x2="457.27" y2="160.827"  stroke="#7f7fff" />
<line x1="457.27" y1="160.827" x2="466.374" y2="162.87"  stroke="#7f7fff" />
<line x1="504.601" y1="153.793" x2="517.375" y2="156.336"  stroke="#7f7fff" />
<line x1="517.375" y1="156.336" x2="514.724" y2="133.782"  stroke="#7f7fff" />
<line x1="514.724" y1="133.782" x2="504.601" y2="153.793"  stroke="#7f7fff" />
<line x1="464.229" y1="146.403" x2="455.983" y2="145.034"  stroke="#7f7fff" />
<line x1="455.983" y1="145.034" x2="457.27" y2="160.827"  stroke="#7f7fff" />
<line x1="457.27" y1="160.827" x2="464.229" y2="146.403"  stroke="#7f7fff" />
<line x1="455.983" y1="145.034" x2="449.124" y2="129.079"  stroke="#7f7fff" />
<line x1="449.124" y1="129.079" x2="448.256" y2="143.8"  stroke="#7f7fff" />
<line x1="448.256" y1="143.8" x2="455.983" y2="145.034"  stroke="#7f7fff" />
<line x1="517.375" y1="156.336" x2="529.421" y2="182.998"  stroke="#7f7fff" />
<line x1="529.421" y1="182.998" x2="531.743" y2="159.293"  stroke="#7f7fff" />
<line x1="531.743" y1="159.293" x2="517.375" y2="156.336"  stroke="#7f7fff" />
<line x1="455.983" y1="145.034" x2="457.27" y2="129.715"  stroke="#7f7fff" />
<line x1="457.27" y1="129.715" x2="449.124" y2="129.079"  stroke="#7f7fff" />
<line x1="449.124" y1="129.079" x2="455.983" y2="145.034"  stroke="#7f7fff" />
<line x1="517.375" y1="156.336" x2="514.724" y2="177.915"  stroke="#7f7fff" />
<line x1="514.724" y1="177.915" x2="529.421" y2="182.998"  stroke="#7f7fff" />
<line x1="529.421" y1="182.998" x2="517.375" y2="156.336"  stroke="#7f7fff" />
<line x1="457.27" y1="129.715" x2="451.736" y2="115.115"  stroke="#7f7fff" />
<line x1="451.736" y1="115.115" x2="449.124" y2="129.079"  stroke="#7f7fff" />
<line x1="449.124" y1="129.079" x2="457.27" y2="129.715"  stroke="#7f7fff" />
<line x1="514.724" y1="177.915" x2="522.896" y2="202.826"  stroke="#7f7fff" />
<line x1="522.896" y1="202.826" x2="529.421" y2="182.998"  stroke="#7f7fff" />
<line x1="529.421" y1="182.998" x2="514.724" y2="177.915"  stroke="#7f7fff" />
<line x1="457.27" y1="129.715" x2="461.117" y2="115.925"  stroke="#7f7fff" />
<line x1="461.117" y1="115.925" x2="451.736" y2="115.115"  stroke="#7f7fff" />
<line x1="451.736" y1="115.115" x2="457.27" y2="129.715"  stroke="#7f7fff" />
<line x1="514.724" y1="177.915" x2="507.474" y2="194.441"  stroke="#7f7fff" />
<line x1="507.474" y1="194.441" x2="522.896" y2="202.826"  stroke="#7f7fff" />
<line x1="522.896" y1="202.826" x2="514.724" y2="177.915"  stroke="#7f7fff" />
<line x1="461.117" y1="115.925" x2="456.116" y2="102.399"  stroke="#7f7fff" />
<line x1="456.116" y1="102.399" x2="451.736" y2="115.115"  stroke="#7f7fff" />
<line x1="451.736" y1="115.115" x2="461.117" y2="115.925"  stroke="#7f7fff" />
<line x1="507.474" y1="194.441" x2="513.315" y2="216.744"  stroke="#7f7fff" />
<line x1="513.315" y1="216.744" x2="522.896" y2="202.826"  stroke="#7f7fff" />
<line x1="522.896" y1="202.826" x2="507.474" y2="194.441"  stroke="#7f7fff" />
<line x1="461.117" y1="115.925" x2="467.448" y2="104.836"  stroke="#7f7fff" />
<line x1="467.448" y1="104.836" x2="456.116" y2="102.399"  stroke="#7f7fff" />
<line x1="456.116" y1="102.399" x2="461.117" y2="115.925"  stroke="#7f7fff" />
<line x1="507.474" y1="194.441" x2="497.357" y2="203.542"  stroke="#7f7fff" />
<line x1="497.357" y1="203.542" x2="513.315" y2="216.744"  stroke="#7f7fff" />
<line x1="513.315" y1="216.744" x2="507.474" y2="194.441"  stroke="#7f7fff" />
<line x1="467.448" y1="104.836" x2="462.281" y2="91.5329"  stroke="#7f7fff" />
<line x1="462.281" y1="91.5329" x2="456.116" y2="102.399"  stroke="#7f7fff" />
<line x1="456.116" y1="102.399" x2="467.448" y2="104.836"  stroke="#7f7fff" />
<line x1="497.357" y1="203.542" x2="502.108" y2="224.022"  stroke="#7f7fff" />
<line x1="502.108" y1="224.022" x2="513.315" y2="216.744"  stroke="#7f7fff" />
<line x1="513.315" y1="216.744" x2="497.357" y2="203.542"  stroke="#7f7fff" />
<line x1="467.448" y1="104.836" x2="470.204" y2="83.2657"  stroke="#7f7fff" />
<line x1="470.204" y1="83.2657" x2="462.281" y2="91.5329"  stroke="#7f7fff" />
<line x1="462.281" y1="91.5329" x2="467.448" y2="104.836"  stroke="#7f7fff" />
<line x1="497.357" y1="203.542" x2="490.591" y2="225.033"  stroke="#7f7fff" />
<line x1="490.591" y1="225.033" x2="502.108" y2="224.022"  stroke="#7f7fff" />
<line x1="502.108" y1="224.022" x2="497.357" y2="203.542"  stroke="#7f7fff" />
<line x1="467.448" y1="104.836" x2="476.036" y2="97.8116"  stroke="#7f7fff" />
<line x1="476.036" y1="97.8116" x2="470.204" y2="83.2657"  stroke="#7f7fff" />
<line x1="470.204" y1="83.2657" x2="467.448" y2="104.836"  stroke="#7f7fff" />
<line x1="497.357" y1="203.542" x2="486.345" y2="204.902"  stroke="#7f7fff" />
<line x1="486.345" y1="204.902" x2="490.591" y2="225.033"  stroke="#7f7fff" />
<line x1="490.591" y1="225.033" x2="497.357" y2="203.542"  stroke="#7f7fff" />
<line x1="476.036" y1="97.8116" x2="479.75" y2="78.5072"  stroke="#7f7fff" />
<line x1="479.75" y1="78.5072" x2="470.204" y2="83.2657"  stroke="#7f7fff" />
<line x1="470.204" y1="83.2657" x2="476.036" y2="97.8116"  stroke="#7f7fff" />
<line x1="486.345" y1="204.902" x2="479.75" y2="220.782"  stroke="#7f7fff" />
<line x1="479.75" y1="220.782" x2="490.591" y2="225.033"  stroke="#7f7fff" />
<line x1="490.591" y1="225.033" x2="486.345" y2="204.902"  stroke="#7f7fff" />
<line x1="476.036" y1="97.8116" x2="486.345" y2="96.3456"  stroke="#7f7fff" />
<line x1="486.345" y1="96.3456" x2="479.75" y2="78.5072"  stroke="#7f7fff" />
<line x1="479.75" y1="78.5072" x2="476.036" y2="97.8116"  stroke="#7f7fff" />
<line x1="486.345" y1="204.902" x2="476.036" y2="199.64"  stroke="#7f7fff" />
<line x1="476.036" y1="199.64" x2="479.75" y2="220.782"  stroke="#7f7fff" />
<line x1="479.75" y1="220.782" x2="486.345" y2="204.902"  stroke="#7f7fff" />
<line x1="486.345" y1="96.3456" x2="490.591" y2="78.2797"  stroke="#7f7fff" />
<line x1="490.591" y1="78.2797" x2="479.75" y2="78.5072"  stroke="#7f7fff" />
<line x1="479.75" y1="78.5072" x2="486.345" y2="96.3456"  stroke="#7f7fff" />
<line x1="476.036" y1="199.64" x2="470.204" y2="212.48"  stroke="#7f7fff" />
<line x1="470.204" y1="212.48" x2="479.75" y2="220.782"  stroke="#7f7fff" />
<line x1="479.75" y1="220.782" x2="476.036" y2="199.64"  stroke="#7f7fff" />
<line x1="486.345" y1="96.3456" x2="497.357" y2="101.76"  stroke="#7f7fff" />
<line x1="497.357" y1="101.76" x2="490.591" y2="78.2797"  stroke="#7f7fff" />
<line x1="490.591" y1="78.2797" x2="486.345" y2="96.3456"  stroke="#7f7fff" />
<line x1="476.036" y1="199.64" x2="467.448" y2="189.454"  stroke="#7f7fff" />
<line x1="467.448" y1="189.454" x2="470.204" y2="212.48"  stroke="#7f7fff" />
<line x1="470.204" y1="212.48" x2="476.036" y2="199.64"  stroke="#7f7fff" />
<line x1="497.357" y1="101.76" x2="502.108" y2="83.5644"  stroke="#7f7fff" />
<line x1="502.108" y1="83.5644" x2="490.591" y2="78.2797"  stroke="#7f7fff" />
<line x1="490.591" y1="78.2797" x2="497.357" y2="101.76"  stroke="#7f7fff" />
<line x1="467.448" y1="189.454" x2="462.281" y2="201.273"  stroke="#7f7fff" />
<line x1="462.281" y1="201.273" x2="470.204" y2="212.48"  stroke="#7f7fff" />
<line x1="470.204" y1="212.48" x2="467.448" y2="189.454"  stroke="#7f7fff" />
<line x1="497.357" y1="101.76" x2="513.315" y2="95.0025"  stroke="#7f7fff" />
<line x1="513.315" y1="95.0025" x2="502.108" y2="83.5644"  stroke="#7f7fff" />
<line x1="502.108" y1="83.5644" x2="497.357" y2="101.76"  stroke="#7f7fff" />
<line x1="467.448" y1="189.454" x2="456.116" y2="188.119"  stroke="#7f7fff" />
<line x1="456.116" y1="188.119" x2="462.281" y2="201.273"  stroke="#7f7fff" />
<line x1="462.281" y1="201.273" x2="467.448" y2="189.454"  stroke="#7f7fff" />
<line x1="497.357" y1="101.76" x2="507.474" y2="114.586"  stroke="#7f7fff" />
<line x1="507.474" y1="114.586" x2="513.315" y2="95.0025"  stroke="#7f7fff" />
<line x1="513.315" y1="95.0025" x2="497.357" y2="101.76"  stroke="#7f7fff" />
<line x1="467.448" y1="189.454" x2="461.117" y2="176.034"  stroke="#7f7fff" />
<line x1="461.117" y1="176.034" x2="456.116" y2="188.119"  stroke="#7f7fff" />
<line x1="456.116" y1="188.119" x2="467.448" y2="189.454"  stroke="#7f7fff" />
<line x1="507.474" y1="114.586" x2="522.896" y2="112.476"  stroke="#7f7fff" />
<line x1="522.896" y1="112.476" x2="513.315" y2="95.0025"  stroke="#7f7fff" />
<line x1="513.315" y1="95.0025" x2="507.474" y2="114.586"  stroke="#7f7fff" />
<line x1="461.117" y1="176.034" x2="451.736" y2="173.777"  stroke="#7f7fff" />
<line x1="451.736" y1="173.777" x2="456.116" y2="188.119"  stroke="#7f7fff" />
<line x1="456.116" y1="188.119" x2="461.117" y2="176.034"  stroke="#7f7fff" />
<line x1="507.474" y1="114.586" x2="514.724" y2="133.782"  stroke="#7f7fff" />
<line x1="514.724" y1="133.782" x2="522.896" y2="112.476"  stroke="#7f7fff" />
<line x1="522.896" y1="112.476" x2="507.474" y2="114.586"  stroke="#7f7fff" />
<line x1="461.117" y1="176.034" x2="457.27" y2="160.827"  stroke="#7f7fff" />
<line x1="457.27" y1="160.827" x2="451.736" y2="173.777"  stroke="#7f7fff" />
<line x1="451.736" y1="173.777" x2="461.117" y2="176.034"  stroke="#7f7fff" />
<line x1="514.724" y1="133.782" x2="529.421" y2="134.725"  stroke="#7f7fff" />
<line x1="529.421" y1="134.725" x2="522.896" y2="112.476"  stroke="#7f7fff" />
<line x1="522.896" y1="112.476" x2="514.724" y2="133.782"  stroke="#7f7fff" />
<line x1="457.27" y1="160.827" x2="449.124" y2="158.843"  stroke="#7f7fff" />
<line x1="449.124" y1="158.843" x2="451.736" y2="173.777"  stroke="#7f7fff" />
<line x1="451.736" y1="173.777" x2="457.27" y2="160.827"  stroke="#7f7fff" />
<line x1="514.724" y1="133.782" x2="517.375" y2="156.336"  stroke="#7f7fff" />
<line x1="517.375" y1="156.336" x2="529.421" y2="134.725"  stroke="#7f7fff" />
<line x1="529.421" y1="134.725" x2="514.724" y2="133.782"  stroke="#7f7fff" />
<line x1="457.27" y1="160.827" x2="455.983" y2="145.034"  stroke="#7f7fff" />
<line x1="455.983" y1="145.034" x2="449.124" y2="158.843"  stroke="#7f7fff" />
<line x1="449.124" y1="158.843" x2="457.27" y2="160.827"  stroke="#7f7fff" />
<line x1="517.375" y1="156.336" x2="531.743" y2="159.293"  stroke="#7f7fff" />
<line x1="531.743" y1="159.293" x2="529.421" y2="134.725"  stroke="#7f7fff" />
<line x1="529.421" y1="134.725" x2="517.375" y2="156.336"  stroke="#7f7fff" />
<line x1="455.983" y1="145.034" x2="448.256" y2="143.8"  stroke="#7f7fff" />
<line x1="448.256" y1="143.8" x2="449.124" y2="158.843"  stroke="#7f7fff" />
<line x1="449.124" y1="158.843" x2="455.983" y2="145.034"  stroke="#7f7fff" />
</g>
<g><title>element</title>
<line x1="195.173" y1="163.225" x2="187.467" y2="152.14"  stroke="#7f7fff" />
<line x1="187.467" y1="152.14" x2="181.914" y2="153.487"  stroke="#7f7fff" />
<line x1="181.914" y1="153.487" x2="195.173" y2="163.225"  stroke="#7f7fff" />
<line x1="168.088" y1="143.332" x2="175.875" y2="154.951"  stroke="#7f7fff" />
<line x1="175.875" y1="154.951" x2="181.914" y2="153.487"  stroke="#7f7fff" />
<line x1="181.914" y1="153.487" x2="168.088" y2="143.332"  stroke="#7f7fff" />
<line x1="189.83" y1="165.075" x2="195.173" y2="163.225"  stroke="#7f7fff" />
<line x1="195.173" y1="163.225" x2="181.914" y2="153.487"  stroke="#7f7fff" />
<line x1="181.914" y1="153.487" x2="189.83" y2="165.075"  stroke="#7f7fff" />
<line x1="174.322" y1="142.374" x2="168.088" y2="143.332"  stroke="#7f7fff" />
<line x1="168.088" y1="143.332" x2="181.914" y2="153.487"  stroke="#7f7fff" />
<line x1="181.914" y1="153.487" x2="174.322" y2="142.374"  stroke="#7f7fff" />
<line x1="175.875" y1="154.951" x2="189.83" y2="165.075"  stroke="#7f7fff" />
<line x1="189.83" y1="165.075" x2="181.914" y2="153.487"  stroke="#7f7fff" />
<line x1="181.914" y1="153.487" x2="175.875" y2="154.951"  stroke="#7f7fff" />
<line x1="187.467" y1="152.14" x2="174.322" y2="142.374"  stroke="#7f7fff" />
<line x1="174.322" y1="142.374" x2="181.914" y2="153.487"  stroke="#7f7fff" />
<line x1="181.914" y1="153.487" x2="187.467" y2="152.14"  stroke="#7f7fff" />
<line x1="187.467" y1="152.14" x2="202.716" y2="162.679"  stroke="#7f7fff" />
<line x1="202.716" y1="162.679" x2="192.591" y2="150.897"  stroke="#7f7fff" />
<line x1="192.591" y1="150.897" x2="187.467" y2="152.14"  stroke="#7f7fff" />
<line x1="175.875" y1="154.951" x2="157.856" y2="142.855"  stroke="#7f7fff" />
<line x1="157.856" y1="142.855" x2="169.284" y2="156.55"  stroke="#7f7fff" />
<line x1="169.284" y1="156.55" x2="175.875" y2="154.951"  stroke="#7f7fff" />
<line x1="187.467" y1="152.14" x2="195.173" y2="163.225"  stroke="#7f7fff" />
<line x1="195.173" y1="163.225" x2="202.716" y2="162.679"  stroke="#7f7fff" />
<line x1="202.716" y1="162.679" x2="187.467" y2="152.14"  stroke="#7f7fff" />
<line x1="175.875" y1="154.951" x2="168.088" y2="143.332"  stroke="#7f7fff" />
<line x1="168.088" y1="143.332" x2="157.856" y2="142.855"  stroke="#7f7fff" />
<line x1="157.856" y1="142.855" x2="175.875" y2="154.951"  stroke="#7f7fff" />
<line x1="195.173" y1="163.225" x2="207.898" y2="172.571"  stroke="#7f7fff" />
<line x1="207.898" y1="172.571" x2="202.716" y2="162.679"  stroke="#7f7fff" />
<line x1="202.716" y1="162.679" x2="195.173" y2="163.225"  stroke="#7f7fff" />
<line x1="168.088" y1="143.332" x2="153.657" y2="132.733"  stroke="#7f7fff" />
<line x1="153.657" y1="132.733" x2="157.856" y2="142.855"  stroke="#7f7fff" />
<line x1="157.856" y1="142.855" x2="168.088" y2="143.332"  stroke="#7f7fff" />
<line x1="195.173" y1="163.225" x2="206.494" y2="178.067"  stroke="#7f7fff" />
<line x1="206.494" y1="178.067" x2="207.898" y2="172.571"  stroke="#7f7fff" />
<line x1="207.898" y1="172.571" x2="195.173" y2="163.225"  stroke="#7f7fff" />
<line x1="168.088" y1="143.332" x2="157.334" y2="128.907"  stroke="#7f7fff" />
<line x1="157.334" y1="128.907" x2="153.657" y2="132.733"  stroke="#7f7fff" />
<line x1="153.657" y1="132.733" x2="168.088" y2="143.332"  stroke="#7f7fff" />
<line x1="195.173" y1="163.225" x2="189.83" y2="165.075"  stroke="#7f7fff" />
<line x1="189.83" y1="165.075" x2="206.494" y2="178.067"  stroke="#7f7fff" />
<line x1="206.494" y1="178.067" x2="195.173" y2="163.225"  stroke="#7f7fff" />
<line x1="168.088" y1="143.332" x2="174.322" y2="142.374"  stroke="#7f7fff" />
<line x1="174.322" y1="142.374" x2="157.334" y2="128.907"  stroke="#7f7fff" />
<line x1="157.334" y1="128.907" x2="168.088" y2="143.332"  stroke="#7f7fff" />
<line x1="189.83" y1="165.075" x2="198.093" y2="177.169"  stroke="#7f7fff" />
<line x1="198.093" y1="177.169" x2="206.494" y2="178.067"  stroke="#7f7fff" />
<line x1="206.494" y1="178.067" x2="189.83" y2="165.075"  stroke="#7f7fff" />
<line x1="174.322" y1="142.374" x2="167.036" y2="131.709"  stroke="#7f7fff" />
<line x1="167.036" y1="131.709" x2="157.334" y2="128.907"  stroke="#7f7fff" />
<line x1="157.334" y1="128.907" x2="174.322" y2="142.374"  stroke="#7f7fff" />
<line x1="189.83" y1="165.075" x2="184.36" y2="169.359"  stroke="#7f7fff" />
<line x1="184.36" y1="169.359" x2="198.093" y2="177.169"  stroke="#7f7fff" />
<line x1="198.093" y1="177.169" x2="189.83" y2="165.075"  stroke="#7f7fff" />
<line x1="174.322" y1="142.374" x2="179.799" y2="139.762"  stroke="#7f7fff" />
<line x1="179.799" y1="139.762" x2="167.036" y2="131.709"  stroke="#7f7fff" />
<line x1="167.036" y1="131.709" x2="174.322" y2="142.374"  stroke="#7f7fff" />
<line x1="189.83" y1="165.075" x2="175.875" y2="154.951"  stroke="#7f7fff" />
<line x1="175.875" y1="154.951" x2="184.36" y2="169.359"  stroke="#7f7fff" />
<line x1="184.36" y1="169.359" x2="189.83" y2="165.075"  stroke="#7f7fff" />
<line x1="174.322" y1="142.374" x2="187.467" y2="152.14"  stroke="#7f7fff" />
<line x1="187.467" y1="152.14" x2="179.799" y2="139.762"  stroke="#7f7fff" />
<line x1="179.799" y1="139.762" x2="174.322" y2="142.374"  stroke="#7f7fff" />
<line x1="175.875" y1="154.951" x2="169.284" y2="156.55"  stroke="#7f7fff" />
<line x1="169.284" y1="156.55" x2="184.36" y2="169.359"  stroke="#7f7fff" />
<line x1="184.36" y1="169.359" x2="175.875" y2="154.951"  stroke="#7f7fff" />
<line x1="187.467" y1="152.14" x2="192.591" y2="150.897"  stroke="#7f7fff" />
<line x1="192.591" y1="150.897" x2="179.799" y2="139.762"  stroke="#7f7fff" />
<line x1="179.799" y1="139.762" x2="187.467" y2="152.14"  stroke="#7f7fff" />
</g>
</g>
<g><title>element</title>
<g><title>element</title>
<line x1="173.938" y1="47.4589" x2="181.295" y2="48.2828"  stroke="#7f7fff" />
<line x1="181.295" y1="48.2828" x2="178.072" y2="48.5887"  stroke="#7f7fff" />
<line x1="178.072" y1="48.5887" x2="173.938" y2="47.4589"  stroke="#7f7fff" />
<line x1="182.303" y1="45.7531" x2="174.694" y2="44.8697"  stroke="#7f7fff" />
<line x1="174.694" y1="44.8697" x2="178.072" y2="48.5887"  stroke="#7f7fff" />
<line x1="178.072" y1="48.5887" x2="182.303" y2="45.7531"  stroke="#7f7fff" />
<line x1="170.503" y1="45.7531" x2="173.938" y2="47.4589"  stroke="#7f7fff" />
<line x1="173.938" y1="47.4589" x2="178.072" y2="48.5887"  stroke="#7f7fff" />
<line x1="178.072" y1="48.5887" x2="170.503" y2="45.7531"  stroke="#7f7fff" />
<line x1="185.466" y1="47.4589" x2="182.303" y2="45.7531"  stroke="#7f7fff" />
<line x1="182.303" y1="45.7531" x2="178.072" y2="48.5887"  stroke="#7f7fff" />
<line x1="178.072" y1="48.5887" x2="185.466" y2="47.4589"  stroke="#7f7fff" />
<line x1="174.694" y1="44.8697" x2="170.503" y2="45.7531"  stroke="#7f7fff" />
<line x1="170.503" y1="45.7531" x2="178.072" y2="48.5887"  stroke="#7f7fff" />
<line x1="178.072" y1="48.5887" x2="174.694" y2="44.8697"  stroke="#7f7fff" />
<line x1="181.295" y1="48.2828" x2="185.466" y2="47.4589"  stroke="#7f7fff" />
<line x1="185.466" y1="47.4589" x2="178.072" y2="48.5887"  stroke="#7f7fff" />
<line x1="178.072" y1="48.5887" x2="181.295" y2="48.2828"  stroke="#7f7fff" />
</g>
<g><title>element</title>
<line x1="174.061" y1="46.7412" x2="181.2" y2="47.5487"  stroke="#7f7fff" />
<line x1="181.2" y1="47.5487" x2="178.072" y2="47.4829"  stroke="#7f7fff" />
<line x1="178.072" y1="47.4829" x2="174.061" y2="46.7412"  stroke="#7f7fff" />
<line x1="182.174" y1="45.0711" x2="174.799" y2="44.2071"  stroke="#7f7fff" />
<line x1="174.799" y1="44.2071" x2="178.072" y2="47.4829"  stroke="#7f7fff" />
<line x1="178.072" y1="47.4829" x2="182.174" y2="45.0711"  stroke="#7f7fff" />
<line x1="170.734" y1="45.0711" x2="174.061" y2="46.7412"  stroke="#7f7fff" />
<line x1="174.061" y1="46.7412" x2="178.072" y2="47.4829"  stroke="#7f7fff" />
<line x1="178.072" y1="47.4829" x2="170.734" y2="45.0711"  stroke="#7f7fff" />
<line x1="185.246" y1="46.7412" x2="182.174" y2="45.0711"  stroke="#7f7fff" />
<line x1="182.174" y1="45.0711" x2="178.072" y2="47.4829"  stroke="#7f7fff" />
<line x1="178.072" y1="47.4829" x2="185.246" y2="46.7412"  stroke="#7f7fff" />
<line x1="174.799" y1="44.2071" x2="170.734" y2="45.0711"  stroke="#7f7fff" />
<line x1="170.734" y1="45.0711" x2="178.072" y2="47.4829"  stroke="#7f7fff" />
<line x1="178.072" y1="47.4829" x2="174.799" y2="44.2071"  stroke="#7f7fff" />
<line x1="181.2" y1="47.5487" x2="185.246" y2="46.7412"  stroke="#7f7fff" />
<line x1="185.246" y1="46.7412" x2="178.072" y2="47.4829"  stroke="#7f7fff" />
<line x1="178.072" y1="47.4829" x2="181.2" y2="47.5487"  stroke="#7f7fff" />
</g>
<g><title>element</title>
<line x1="174.061" y1="46.731" x2="181.2" y2="47.5385"  stroke="#7f7fff" />
<line x1="181.2" y1="47.5385" x2="178.072" y2="46.5692"  stroke="#7f7fff" />
<line x1="178.072" y1="46.5692" x2="174.061" y2="46.731"  stroke="#7f7fff" />
<line x1="182.174" y1="45.0606" x2="174.799" y2="44.1965"  stroke="#7f7fff" />
<line x1="174.799" y1="44.1965" x2="178.072" y2="46.5692"  stroke="#7f7fff" />
<line x1="178.072" y1="46.5692" x2="182.174" y2="45.0606"  stroke="#7f7fff" />
<line x1="170.734" y1="45.0606" x2="174.061" y2="46.731"  stroke="#7f7fff" />
<line x1="174.061" y1="46.731" x2="178.072" y2="46.5692"  stroke="#7f7fff" />
<line x1="178.072" y1="46.5692" x2="170.734" y2="45.0606"  stroke="#7f7fff" />
<line x1="185.246" y1="46.731" x2="182.174" y2="45.0606"  stroke="#7f7fff" />
<line x1="182.174" y1="45.0606" x2="178.072" y2="46.5692"  stroke="#7f7fff" />
<line x1="178.072" y1="46.5692" x2="185.246" y2="46.731"  stroke="#7f7fff" />
<line x1="174.799" y1="44.1965" x2="170.734" y2="45.0606"  stroke="#7f7fff" />
<line x1="170.734" y1="45.0606" x2="178.072" y2="46.5692"  stroke="#7f7fff" />
<line x1="178.072" y1="46.5692" x2="174.799" y2="44.1965"  stroke="#7f7fff" />
<line x1="181.2" y1="47.5385" x2="185.246" y2="46.731"  stroke="#7f7fff" />
<line x1="185.246" y1="46.731" x2="178.072" y2="46.5692"  stroke="#7f7fff" />
<line x1="178.072" y1="46.5692" x2="181.2" y2="47.5385"  stroke="#7f7fff" />
</g>
<g><title>element</title>
<line x1="174.184" y1="45.8666" x2="181.105" y2="46.6588"  stroke="#7f7fff" />
<line x1="181.105" y1="46.6588" x2="178.072" y2="45.832"  stroke="#7f7fff" />
<line x1="178.072" y1="45.832" x2="174.184" y2="45.8666"  stroke="#7f7fff" />
<line x1="182.045" y1="44.2296" x2="174.903" y2="43.3837"  stroke="#7f7fff" />
<line x1="174.903" y1="43.3837" x2="178.072" y2="45.832"  stroke="#7f7fff" />
<line x1="178.072" y1="45.832" x2="182.045" y2="44.2296"  stroke="#7f7fff" />
<line x1="170.965" y1="44.2296" x2="174.184" y2="45.8666"  stroke="#7f7fff" />
<line x1="174.184" y1="45.8666" x2="178.072" y2="45.832"  stroke="#7f7fff" />
<line x1="178.072" y1="45.832" x2="170.965" y2="44.2296"  stroke="#7f7fff" />
<line x1="185.025" y1="45.8666" x2="182.045" y2="44.2296"  stroke="#7f7fff" />
<line x1="182.045" y1="44.2296" x2="178.072" y2="45.832"  stroke="#7f7fff" />
<line x1="178.072" y1="45.832" x2="185.025" y2="45.8666"  stroke="#7f7fff" />
<line x1="174.903" y1="43.3837" x2="170.965" y2="44.2296"  stroke="#7f7fff" />
<line x1="170.965" y1="44.2296" x2="178.072" y2="45.832"  stroke="#7f7fff" />
<line x1="178.072" y1="45.832" x2="174.903" y2="43.3837"  stroke="#7f7fff" />
<line x1="181.105" y1="46.6588" x2="185.025" y2="45.8666"  stroke="#7f7fff" />
<line x1="185.025" y1="45.8666" x2="178.072" y2="45.832"  stroke="#7f7fff" />
<line x1="178.072" y1="45.832" x2="181.105" y2="46.6588"  stroke="#7f7fff" />
</g>
<g><title>element</title>
<line x1="175.441" y1="35.1738" x2="180.131" y2="35.7893"  stroke="#7f7fff" />
<line x1="180.131" y1="35.7893" x2="178.072" y2="35.0909"  stroke="#7f7fff" />
<line x1="178.072" y1="35.0909" x2="175.441" y2="35.1738"  stroke="#7f7fff" />
<line x1="180.741" y1="33.9153" x2="175.95" y2="33.2719"  stroke="#7f7fff" />
<line x1="175.95" y1="33.2719" x2="178.072" y2="35.0909"  stroke="#7f7fff" />
<line x1="178.072" y1="35.0909" x2="180.741" y2="33.9153"  stroke="#7f7fff" />
<line x1="173.296" y1="33.9153" x2="175.441" y2="35.1738"  stroke="#7f7fff" />
<line x1="175.441" y1="35.1738" x2="178.072" y2="35.0909"  stroke="#7f7fff" />
<line x1="178.072" y1="35.0909" x2="173.296" y2="33.9153"  stroke="#7f7fff" />
<line x1="182.777" y1="35.1738" x2="180.741" y2="33.9153"  stroke="#7f7fff" />
<line x1="180.741" y1="33.9153" x2="178.072" y2="35.0909"  stroke="#7f7fff" />
<line x1="178.072" y1="35.0909" x2="182.777" y2="35.1738"  stroke="#7f7fff" />
<line x1="175.95" y1="33.2719" x2="173.296" y2="33.9153"  stroke="#7f7fff" />
<line x1="173.296" y1="33.9153" x2="178.072" y2="35.0909"  stroke="#7f7fff" />
<line x1="178.072" y1="35.0909" x2="175.95" y2="33.2719"  stroke="#7f7fff" />
<line x1="180.131" y1="35.7893" x2="182.777" y2="35.1738"  stroke="#7f7fff" />
<line x1="182.777" y1="35.1738" x2="178.072" y2="35.0909"  stroke="#7f7fff" />
<line x1="178.072" y1="35.0909" x2="180.131" y2="35.7893"  stroke="#7f7fff" />
</g>
<g><title>element</title>
<line x1="175.548" y1="34.3172" x2="180.049" y2="34.914"  stroke="#7f7fff" />
<line x1="180.049" y1="34.914" x2="178.072" y2="34.8297"  stroke="#7f7fff" />
<line x1="178.072" y1="34.8297" x2="175.548" y2="34.3172"  stroke="#7f7fff" />
<line x1="180.631" y1="33.0983" x2="176.038" y2="32.4757"  stroke="#7f7fff" />
<line x1="176.038" y1="32.4757" x2="178.072" y2="34.8297"  stroke="#7f7fff" />
<line x1="178.072" y1="34.8297" x2="180.631" y2="33.0983"  stroke="#7f7fff" />
<line x1="173.493" y1="33.0983" x2="175.548" y2="34.3172"  stroke="#7f7fff" />
<line x1="175.548" y1="34.3172" x2="178.072" y2="34.8297"  stroke="#7f7fff" />
<line x1="178.072" y1="34.8297" x2="173.493" y2="33.0983"  stroke="#7f7fff" />
<line x1="182.586" y1="34.3172" x2="180.631" y2="33.0983"  stroke="#7f7fff" />
<line x1="180.631" y1="33.0983" x2="178.072" y2="34.8297"  stroke="#7f7fff" />
<line x1="178.072" y1="34.8297" x2="182.586" y2="34.3172"  stroke="#7f7fff" />
<line x1="176.038" y1="32.4757" x2="173.493" y2="33.0983"  stroke="#7f7fff" />
<line x1="173.493" y1="33.0983" x2="178.072" y2="34.8297"  stroke="#7f7fff" />
<line x1="178.072" y1="34.8297" x2="176.038" y2="32.4757"  stroke="#7f7fff" />
<line x1="180.049" y1="34.914" x2="182.586" y2="34.3172"  stroke="#7f7fff" />
<line x1="182.586" y1="34.3172" x2="178.072" y2="34.8297"  stroke="#7f7fff" />
<line x1="178.072" y1="34.8297" x2="180.049" y2="34.914"  stroke="#7f7fff" />
</g>
<g><title>element</title>
<line x1="175.726" y1="25.574" x2="179.91" y2="26.1856"  stroke="#7f7fff" />
<line x1="179.91" y1="26.1856" x2="178.072" y2="25.4922"  stroke="#7f7fff" />
<line x1="178.072" y1="25.4922" x2="175.726" y2="25.574"  stroke="#7f7fff" />
<line x1="180.449" y1="24.3266" x2="176.184" y2="23.6904"  stroke="#7f7fff" />
<line x1="176.184" y1="23.6904" x2="178.072" y2="25.4922"  stroke="#7f7fff" />
<line x1="178.072" y1="25.4922" x2="180.449" y2="24.3266"  stroke="#7f7fff" />
<line x1="173.82" y1="24.3266" x2="175.726" y2="25.574"  stroke="#7f7fff" />
<line x1="175.726" y1="25.574" x2="178.072" y2="25.4922"  stroke="#7f7fff" />
<line x1="178.072" y1="25.4922" x2="173.82" y2="24.3266"  stroke="#7f7fff" />
<line x1="182.268" y1="25.574" x2="180.449" y2="24.3266"  stroke="#7f7fff" />
<line x1="180.449" y1="24.3266" x2="178.072" y2="25.4922"  stroke="#7f7fff" />
<line x1="178.072" y1="25.4922" x2="182.268" y2="25.574"  stroke="#7f7fff" />
<line x1="176.184" y1="23.6904" x2="173.82" y2="24.3266"  stroke="#7f7fff" />
<line x1="173.82" y1="24.3266" x2="178.072" y2="25.4922"  stroke="#7f7fff" />
<line x1="178.072" y1="25.4922" x2="176.184" y2="23.6904"  stroke="#7f7fff" />
<line x1="179.91" y1="26.1856" x2="182.268" y2="25.574"  stroke="#7f7fff" />
<line x1="182.268" y1="25.574" x2="178.072" y2="25.4922"  stroke="#7f7fff" />
<line x1="178.072" y1="25.4922" x2="179.91" y2="26.1856"  stroke="#7f7fff" />
</g>
<g><title>element</title>
<line x1="175.779" y1="25.0532" x2="179.869" y2="25.6542"  stroke="#7f7fff" />
<line x1="179.869" y1="25.6542" x2="178.072" y2="24.4444"  stroke="#7f7fff" />
<line x1="178.072" y1="24.4444" x2="175.779" y2="25.0532"  stroke="#7f7fff" />
<line x1="180.394" y1="23.8278" x2="176.228" y2="23.2031"  stroke="#7f7fff" />
<line x1="176.228" y1="23.2031" x2="178.072" y2="24.4444"  stroke="#7f7fff" />
<line x1="178.072" y1="24.4444" x2="180.394" y2="23.8278"  stroke="#7f7fff" />
<line x1="173.918" y1="23.8278" x2="175.779" y2="25.0532"  stroke="#7f7fff" />
<line x1="175.779" y1="25.0532" x2="178.072" y2="24.4444"  stroke="#7f7fff" />
<line x1="178.072" y1="24.4444" x2="173.918" y2="23.8278"  stroke="#7f7fff" />
<line x1="182.173" y1="25.0532" x2="180.394" y2="23.8278"  stroke="#7f7fff" />
<line x1="180.394" y1="23.8278" x2="178.072" y2="24.4444"  stroke="#7f7fff" />
<line x1="178.072" y1="24.4444" x2="182.173" y2="25.0532"  stroke="#7f7fff" />
<line x1="176.228" y1="23.2031" x2="173.918" y2="23.8278"  stroke="#7f7fff" />
<line x1="173.918" y1="23.8278" x2="178.072" y2="24.4444"  stroke="#7f7fff" />
<line x1="178.072" y1="24.4444" x2="176.228" y2="23.2031"  stroke="#7f7fff" />
<line x1="179.869" y1="25.6542" x2="182.173" y2="25.0532"  stroke="#7f7fff" />
<line x1="182.173" y1="25.0532" x2="178.072" y2="24.4444"  stroke="#7f7fff" />
<line x1="178.072" y1="24.4444" x2="179.869" y2="25.6542"  stroke="#7f7fff" />
</g>
</g>
<g><title>element</title>
<line x1="182.213" y1="22.159" x2="178.072" y2="19.2184"  stroke="#7f7fff" />
<line x1="178.072" y1="19.2184" x2="169.364" y2="19.2184"  stroke="#7f7fff" />
<line x1="169.364" y1="19.2184" x2="182.213" y2="22.159"  stroke="#7f7fff" />
<line x1="173.76" y1="22.159" x2="182.213" y2="22.159"  stroke="#7f7fff" />
<line x1="182.213" y1="22.159" x2="169.364" y2="19.2184"  stroke="#7f7fff" />
<line x1="169.364" y1="19.2184" x2="173.76" y2="22.159"  stroke="#7f7fff" />
<line x1="173.674" y1="16.0955" x2="178.072" y2="19.2184"  stroke="#7f7fff" />
<line x1="178.072" y1="19.2184" x2="186.779" y2="19.2184"  stroke="#7f7fff" />
<line x1="186.779" y1="19.2184" x2="173.674" y2="16.0955"  stroke="#7f7fff" />
<line x1="182.651" y1="16.0955" x2="173.674" y2="16.0955"  stroke="#7f7fff" />
<line x1="173.674" y1="16.0955" x2="186.779" y2="19.2184"  stroke="#7f7fff" />
<line x1="186.779" y1="19.2184" x2="182.651" y2="16.0955"  stroke="#7f7fff" />
<line x1="178.072" y1="19.2184" x2="173.674" y2="16.0955"  stroke="#7f7fff" />
<line x1="173.674" y1="16.0955" x2="169.364" y2="19.2184"  stroke="#7f7fff" />
<line x1="169.364" y1="19.2184" x2="178.072" y2="19.2184"  stroke="#7f7fff" />
<line x1="173.674" y1="16.0955" x2="164.697" y2="16.0955"  stroke="#7f7fff" />
<line x1="164.697" y1="16.0955" x2="169.364" y2="19.2184"  stroke="#7f7fff" />
<line x1="169.364" y1="19.2184" x2="173.674" y2="16.0955"  stroke="#7f7fff" />
<line x1="178.072" y1="19.2184" x2="182.213" y2="22.159"  stroke="#7f7fff" />
<line x1="182.213" y1="22.159" x2="186.779" y2="19.2184"  stroke="#7f7fff" />
<line x1="186.779" y1="19.2184" x2="178.072" y2="19.2184"  stroke="#7f7fff" />
<line x1="182.213" y1="22.159" x2="190.666" y2="22.159"  stroke="#7f7fff" />
<line x1="190.666" y1="22.159" x2="186.779" y2="19.2184"  stroke="#7f7fff" />
<line x1="186.779" y1="19.2184" x2="182.213" y2="22.159"  stroke="#7f7fff" />
</g>
<g><title>rays</title>
<g><title>ray</title>
<line x1="-97.8087" y1="149.644" x2="178.072" y2="149.644"  stroke="#009141" />
</g>
<g><title>ray</title>
<line x1="177.266" y1="24.4444" x2="178.071" y2="19.2184"  stroke="#72a6f6" />
<line x1="177.163" y1="25.462" x2="177.266" y2="24.4444"  stroke="#a0b60a" />
<line x1="176.079" y1="34.5793" x2="177.163" y2="25.462"  stroke="#3ac288" />
<line x1="176.016" y1="34.9666" x2="176.079" y2="34.5793"  stroke="#7300db" />
<line x1="174.035" y1="45.5193" x2="176.016" y2="34.9666"  stroke="#7dd0ca" />
<line x1="173.897" y1="46.2995" x2="174.035" y2="45.5193"  stroke="#7f9879" />
<line x1="173.79" y1="46.8309" x2="173.897" y2="46.2995"  stroke="#e4c66c" />
<line x1="173.571" y1="47.7486" x2="173.79" y2="46.8309"  stroke="#dc62ea" />
<line x1="159.781" y1="131.354" x2="173.571" y2="47.7486"  stroke="#091659" />
<line x1="479.755" y1="78.5784" x2="159.781" y2="131.354"  stroke="#5269f3" />
<line x1="-97.8087" y1="78.5784" x2="479.755" y2="78.5784"  stroke="#9f9b2b" />
</g>
<g><title>ray</title>
<line x1="178.465" y1="24.7095" x2="178.072" y2="19.2184"  stroke="#f0dbe0" />
<line x1="178.515" y1="25.7576" x2="178.465" y2="24.7095"  stroke="#ed9827" />
<line x1="179.041" y1="35.1627" x2="178.515" y2="25.7576"  stroke="#2e7cad" />
<line x1="179.072" y1="35.5658" x2="179.041" y2="35.1627"  stroke="#75020e" />
<line x1="180.022" y1="46.5429" x2="179.072" y2="35.5658"  stroke="#63c586" />
<line x1="180.088" y1="47.3465" x2="180.022" y2="46.5429"  stroke="#9de552" />
<line x1="180.139" y1="47.8967" x2="180.088" y2="47.3465"  stroke="#0d316e" />
<line x1="180.243" y1="48.854" x2="180.139" y2="47.8967"  stroke="#4d2cac" />
<line x1="187.795" y1="147.613" x2="180.243" y2="48.854"  stroke="#3ce156" />
<line x1="448.286" y1="143.805" x2="187.795" y2="147.613"  stroke="#102433" />
<line x1="-15.5073" y1="143.805" x2="448.286" y2="143.805"  stroke="#68548d" />
</g>
<g><title>ray</title>
<line x1="178.878" y1="24.4444" x2="178.072" y2="19.2184"  stroke="#902ca1" />
<line x1="178.98" y1="25.462" x2="178.878" y2="24.4444"  stroke="#514feb" />
<line x1="180.064" y1="34.5793" x2="178.98" y2="25.462"  stroke="#ccf85e" />
<line x1="180.128" y1="34.9666" x2="180.064" y2="34.5793"  stroke="#04f142" />
<line x1="182.109" y1="45.5193" x2="180.128" y2="34.9666"  stroke="#9cc490" />
<line x1="182.246" y1="46.2995" x2="182.109" y2="45.5193"  stroke="#2240c9" />
<line x1="182.354" y1="46.8309" x2="182.246" y2="46.2995"  stroke="#ae56b5" />
<line x1="182.573" y1="47.7486" x2="182.354" y2="46.8309"  stroke="#8de7a8" />
<line x1="203.587" y1="175.16" x2="182.573" y2="47.7486"  stroke="#69505b" />
<line x1="479.755" y1="220.71" x2="203.587" y2="175.16"  stroke="#a50737" />
<line x1="-97.8087" y1="220.71" x2="479.755" y2="220.71"  stroke="#90405a" />
</g>
<g><title>ray</title>
<line x1="177.676" y1="24.1778" x2="178.072" y2="19.2184"  stroke="#bad9b4" />
<line x1="177.625" y1="25.1646" x2="177.676" y2="24.1778"  stroke="#c919de" />
<line x1="177.089" y1="33.9879" x2="177.625" y2="25.1646"  stroke="#598c4d" />
<line x1="177.057" y1="34.3589" x2="177.089" y2="33.9879"  stroke="#58a800" />
<line x1="176.066" y1="44.4668" x2="177.057" y2="34.3589"  stroke="#d36325" />
<line x1="175.996" y1="45.2218" x2="176.066" y2="44.4668"  stroke="#503fe9" />
<line x1="175.942" y1="45.7332" x2="175.996" y2="45.2218"  stroke="#bb4a5d" />
<line x1="175.832" y1="46.6084" x2="175.942" y2="45.7332"  stroke="#8f85a4" />
<line x1="166.804" y1="151.998" x2="175.832" y2="46.6084"  stroke="#a9a016" />
<line x1="531.682" y1="159.28" x2="166.804" y2="151.998"  stroke="#66ca5d" />
<line x1="-233.612" y1="159.28" x2="531.682" y2="159.28"  stroke="#c63294" />
</g>
<g><title>ray</title>
<line x1="177.43" y1="24.4444" x2="178.072" y2="19.2184"  stroke="#4a0053" />
<line x1="177.347" y1="25.473" x2="177.43" y2="24.4444"  stroke="#e85c06" />
<line x1="176.474" y1="34.6695" x2="177.347" y2="25.473"  stroke="#646b6b" />
<line x1="176.429" y1="35.0117" x2="176.474" y2="34.6695"  stroke="#f86942" />
<line x1="174.841" y1="45.6322" x2="176.429" y2="35.0117"  stroke="#83932c" />
<line x1="174.734" y1="46.397" x2="174.841" y2="45.6322"  stroke="#470553" />
<line x1="174.627" y1="47.0644" x2="174.734" y2="46.397"  stroke="#44ab81" />
<line x1="174.44" y1="48.0485" x2="174.627" y2="47.0644"  stroke="#54d6c6" />
<line x1="163.045" y1="134.618" x2="174.44" y2="48.0485"  stroke="#be875b" />
<line x1="480.803" y1="92.7916" x2="163.045" y2="134.618"  stroke="#e8ad53" />
<line x1="-97.8087" y1="92.7916" x2="480.803" y2="92.7916"  stroke="#51c624" />
</g>
<g><title>ray</title>
<line x1="178.385" y1="24.6557" x2="178.072" y2="19.2184"  stroke="#581231" />
<line x1="178.426" y1="25.7089" x2="178.385" y2="24.6557"  stroke="#65db75" />
<line x1="178.85" y1="35.1376" x2="178.426" y2="25.7089"  stroke="#81e514" />
<line x1="178.872" y1="35.4909" x2="178.85" y2="35.1376"  stroke="#db7b56" />
<line x1="179.637" y1="46.4523" x2="178.872" y2="35.4909"  stroke="#b31187" />
<line x1="179.688" y1="47.2354" x2="179.637" y2="46.4523"  stroke="#de340d" />
<line x1="179.739" y1="47.9215" x2="179.688" y2="47.2354"  stroke="#6f13f1" />
<line x1="179.829" y1="48.9393" x2="179.739" y2="47.9215"  stroke="#0b3b8d" />
<line x1="185.94" y1="148.001" x2="179.829" y2="48.9393"  stroke="#e11600" />
<line x1="454.424" y1="144.781" x2="185.94" y2="148.001"  stroke="#20e77b" />
<line x1="-29.2672" y1="144.781" x2="454.424" y2="144.781"  stroke="#4b1133" />
</g>
<g><title>ray</title>
<line x1="178.714" y1="24.4444" x2="178.072" y2="19.2184"  stroke="#fe4cb0" />
<line x1="178.796" y1="25.473" x2="178.714" y2="24.4444"  stroke="#e278fd" />
<line x1="179.669" y1="34.6695" x2="178.796" y2="25.473"  stroke="#87b6e1" />
<line x1="179.714" y1="35.0117" x2="179.669" y2="34.6695"  stroke="#dff331" />
<line x1="181.302" y1="45.6322" x2="179.714" y2="35.0117"  stroke="#636dcd" />
<line x1="181.41" y1="46.397" x2="181.302" y2="45.6322"  stroke="#53c7f0" />
<line x1="181.517" y1="47.0644" x2="181.41" y2="46.397"  stroke="#919082" />
<line x1="181.703" y1="48.0485" x2="181.517" y2="47.0644"  stroke="#57b1f2" />
<line x1="197.654" y1="169.226" x2="181.703" y2="48.0485"  stroke="#cf42a3" />
<line x1="480.803" y1="206.497" x2="197.654" y2="169.226"  stroke="#654040" />
<line x1="-97.8087" y1="206.497" x2="480.803" y2="206.497"  stroke="#ee131c" />
</g>
<g><title>ray</title>
<line x1="177.756" y1="24.2322" x2="178.072" y2="19.2184"  stroke="#28acb1" />
<line x1="177.716" y1="25.2359" x2="177.756" y2="24.2322"  stroke="#8b6acb" />
<line x1="177.284" y1="34.1963" x2="177.716" y2="25.2359"  stroke="#a0bcdb" />
<line x1="177.262" y1="34.527" x2="177.284" y2="34.1963"  stroke="#be8b58" />
<line x1="176.471" y1="44.7937" x2="177.262" y2="34.527"  stroke="#44961b" />
<line x1="176.417" y1="45.5391" x2="176.471" y2="44.7937"  stroke="#e9650e" />
<line x1="176.364" y1="46.1866" x2="176.417" y2="45.5391"  stroke="#ac5753" />
<line x1="176.27" y1="47.1352" x2="176.364" y2="46.1866"  stroke="#76a85c" />
<line x1="169.222" y1="151.493" x2="176.27" y2="47.1352"  stroke="#b6b197" />
<line x1="520.065" y1="156.882" x2="169.222" y2="151.493"  stroke="#77cb60" />
<line x1="-199.82" y1="156.882" x2="520.065" y2="156.882"  stroke="#6c548e" />
</g>
<g><title>ray</title>
<line x1="177.592" y1="24.4444" x2="178.072" y2="19.2184"  stroke="#af84a7" />
<line x1="177.529" y1="25.4814" x2="177.592" y2="24.4444"  stroke="#358fca" />
<line x1="176.871" y1="34.7396" x2="177.529" y2="25.4814"  stroke="#fa8f0e" />
<line x1="176.841" y1="35.0465" x2="176.871" y2="34.7396"  stroke="#fade1b" />
<line x1="175.648" y1="45.7198" x2="176.841" y2="35.0465"  stroke="#318703" />
<line x1="175.569" y1="46.4726" x2="175.648" y2="45.7198"  stroke="#7dd3ae" />
<line x1="175.476" y1="47.2469" x2="175.569" y2="46.4726"  stroke="#300b7a" />
<line x1="175.33" y1="48.2837" x2="175.476" y2="47.2469"  stroke="#e47c90" />
<line x1="166.484" y1="138.057" x2="175.33" y2="48.2837"  stroke="#0aa6f5" />
<line x1="481.618" y1="107.005" x2="166.484" y2="138.057"  stroke="#e3eb08" />
<line x1="-97.8087" y1="107.005" x2="481.618" y2="107.005"  stroke="#c4ed5d" />
</g>
<g><title>ray</title>
<line x1="178.306" y1="24.6024" x2="178.072" y2="19.2184"  stroke="#5fe31b" />
<line x1="178.337" y1="25.6581" x2="178.306" y2="24.6024"  stroke="#2dd9f7" />
<line x1="178.657" y1="35.0916" x2="178.337" y2="25.6581"  stroke="#bd44f8" />
<line x1="178.672" y1="35.4059" x2="178.657" y2="35.0916"  stroke="#fcde64" />
<line x1="179.249" y1="46.3359" x2="178.672" y2="35.4059"  stroke="#4cc227" />
<line x1="179.287" y1="47.1022" x2="179.249" y2="46.3359"  stroke="#741d66" />
<line x1="179.332" y1="47.8928" x2="179.287" y2="47.1022"  stroke="#aedf8a" />
<line x1="179.402" y1="48.9561" x2="179.332" y2="47.8928"  stroke="#ac8b61" />
<line x1="184.045" y1="148.397" x2="179.402" y2="48.9561"  stroke="#11ee04" />
<line x1="460.883" y1="145.841" x2="184.045" y2="148.397"  stroke="#881b89" />
<line x1="-44.2042" y1="145.841" x2="460.883" y2="145.841"  stroke="#50807b" />
</g>
<g><title>ray</title>
<line x1="178.551" y1="24.4444" x2="178.072" y2="19.2184"  stroke="#19eaf5" />
<line x1="178.614" y1="25.4814" x2="178.551" y2="24.4444"  stroke="#1fe5ee" />
<line x1="179.272" y1="34.7396" x2="178.614" y2="25.4814"  stroke="#0d8348" />
<line x1="179.302" y1="35.0465" x2="179.272" y2="34.7396"  stroke="#079d7f" />
<line x1="180.495" y1="45.7198" x2="179.302" y2="35.0465"  stroke="#30e29a" />
<line x1="180.574" y1="46.4726" x2="180.495" y2="45.7198"  stroke="#44f97b" />
<line x1="180.667" y1="47.2469" x2="180.574" y2="46.4726"  stroke="#afa7c9" />
<line x1="180.813" y1="48.2837" x2="180.667" y2="47.2469"  stroke="#c614e8" />
<line x1="192.192" y1="163.765" x2="180.813" y2="48.2837"  stroke="#8cfbdf" />
<line x1="481.618" y1="192.284" x2="192.192" y2="163.765"  stroke="#78067a" />
<line x1="-97.8087" y1="192.284" x2="481.618" y2="192.284"  stroke="#c86fa0" />
</g>
<g><title>ray</title>
<line x1="177.836" y1="24.2858" x2="178.072" y2="19.2184"  stroke="#75db9b" />
<line x1="177.805" y1="25.3041" x2="177.836" y2="24.2858"  stroke="#093692" />
<line x1="177.481" y1="34.3848" x2="177.805" y2="25.3041"  stroke="#43c59a" />
<line x1="177.466" y1="34.684" x2="177.481" y2="34.3848"  stroke="#4b360a" />
<line x1="176.874" y1="45.0933" x2="177.466" y2="34.684"  stroke="#16481f" />
<line x1="176.835" y1="45.8319" x2="176.874" y2="45.0933"  stroke="#0e7839" />
<line x1="176.789" y1="46.5893" x2="176.835" y2="45.8319"  stroke="#a04a07" />
<line x1="176.716" y1="47.5986" x2="176.789" y2="46.5893"  stroke="#c28d97" />
<line x1="171.549" y1="151.007" x2="176.716" y2="47.5986"  stroke="#99d8aa" />
<line x1="509.511" y1="154.761" x2="171.549" y2="151.007"  stroke="#aa7215" />
<line x1="-169.916" y1="154.761" x2="509.511" y2="154.761"  stroke="#dfaa42" />
</g>
<g><title>ray</title>
<line x1="177.752" y1="24.4444" x2="178.072" y2="19.2184"  stroke="#fb7954" />
<line x1="177.71" y1="25.4874" x2="177.752" y2="24.4444"  stroke="#97103f" />
<line x1="177.27" y1="34.7897" x2="177.71" y2="25.4874"  stroke="#130dad" />
<line x1="177.252" y1="35.0712" x2="177.27" y2="34.7897"  stroke="#2b99b6" />
<line x1="176.456" y1="45.7822" x2="177.252" y2="35.0712"  stroke="#9cf6ec" />
<line x1="176.404" y1="46.5263" x2="176.456" y2="45.7822"  stroke="#ce3d8c" />
<line x1="176.336" y1="47.3778" x2="176.404" y2="46.5263"  stroke="#4e6143" />
<line x1="176.235" y1="48.4528" x2="176.336" y2="47.3778"  stroke="#201588" />
<line x1="170.118" y1="141.691" x2="176.235" y2="48.4528"  stroke="#eee00a" />
<line x1="482.2" y1="121.218" x2="170.118" y2="141.691"  stroke="#4970bb" />
<line x1="-97.8087" y1="121.218" x2="482.2" y2="121.218"  stroke="#f4d4da" />
</g>
<g><title>ray</title>
<line x1="178.228" y1="24.5496" x2="178.072" y2="19.2184"  stroke="#a14276" />
<line x1="178.248" y1="25.6051" x2="178.228" y2="24.5496"  stroke="#fbddea" />
<line x1="178.463" y1="35.0248" x2="178.248" y2="25.6051"  stroke="#47bc28" />
<line x1="178.472" y1="35.3109" x2="178.463" y2="35.0248"  stroke="#cf3145" />
<line x1="178.859" y1="46.1938" x2="178.472" y2="35.3109"  stroke="#738c8b" />
<line x1="178.884" y1="46.9468" x2="178.859" y2="46.1938"  stroke="#9c2a2b" />
<line x1="178.917" y1="47.8103" x2="178.884" y2="46.9468"  stroke="#cb1da8" />
<line x1="178.966" y1="48.9035" x2="178.917" y2="47.8103"  stroke="#aa8236" />
<line x1="182.105" y1="148.802" x2="178.966" y2="48.9035"  stroke="#9471f4" />
<line x1="467.707" y1="146.996" x2="182.105" y2="148.802"  stroke="#88b559" />
<line x1="-60.4757" y1="146.996" x2="467.707" y2="146.996"  stroke="#bfde72" />
</g>
<g><title>ray</title>
<line x1="178.391" y1="24.4444" x2="178.072" y2="19.2184"  stroke="#9e9256" />
<line x1="178.433" y1="25.4874" x2="178.391" y2="24.4444"  stroke="#13feb2" />
<line x1="178.873" y1="34.7897" x2="178.433" y2="25.4874"  stroke="#f96049" />
<line x1="178.892" y1="35.0712" x2="178.873" y2="34.7897"  stroke="#56b7eb" />
<line x1="179.687" y1="45.7822" x2="178.892" y2="35.0712"  stroke="#557992" />
<line x1="179.739" y1="46.5263" x2="179.687" y2="45.7822"  stroke="#23caeb" />
<line x1="179.807" y1="47.3778" x2="179.739" y2="46.5263"  stroke="#c07607" />
<line x1="179.908" y1="48.4528" x2="179.807" y2="47.3778"  stroke="#b6ec8f" />
<line x1="187.141" y1="158.714" x2="179.908" y2="48.4528"  stroke="#e8a0ab" />
<line x1="482.2" y1="178.071" x2="187.141" y2="158.714"  stroke="#d11be3" />
<line x1="-97.8087" y1="178.071" x2="482.2" y2="178.071"  stroke="#1b90cf" />
</g>
<g><title>ray</title>
<line x1="177.915" y1="24.339" x2="178.072" y2="19.2184"  stroke="#fe6905" />
<line x1="177.894" y1="25.3695" x2="177.915" y2="24.339"  stroke="#a6642f" />
<line x1="177.678" y1="34.5532" x2="177.894" y2="25.3695"  stroke="#6165b6" />
<line x1="177.669" y1="34.8301" x2="177.678" y2="34.5532"  stroke="#1bc2a4" />
<line x1="177.276" y1="45.366" x2="177.669" y2="34.8301"  stroke="#31b7a9" />
<line x1="177.25" y1="46.1009" x2="177.276" y2="45.366"  stroke="#e97096" />
<line x1="177.216" y1="46.9402" x2="177.25" y2="46.1009"  stroke="#edf4f9" />
<line x1="177.166" y1="47.9964" x2="177.216" y2="46.9402"  stroke="#2b6977" />
<line x1="173.795" y1="150.538" x2="177.166" y2="47.9964"  stroke="#d4da38" />
<line x1="499.847" y1="152.87" x2="173.795" y2="150.538"  stroke="#3dfcec" />
<line x1="-143.265" y1="152.87" x2="499.847" y2="152.87"  stroke="#90b86a" />
</g>
<g><title>ray</title>
<line x1="-97.8087" y1="135.431" x2="163.858" y2="135.431"  stroke="#980254" />
</g>
<g><title>ray</title>
<line x1="-78.2692" y1="148.258" x2="184.709" y2="148.258"  stroke="#045a2d" />
</g>
<g><title>ray</title>
<line x1="-97.8087" y1="163.858" x2="192.285" y2="163.858"  stroke="#6f5b4b" />
</g>
<g><title>ray</title>
<line x1="-119.364" y1="151.174" x2="170.749" y2="151.174"  stroke="#f52323" />
</g>
</g>
<line x1="148.894" y1="360" x2="491.106" y2="360"  stroke="#7f7f7f" />
<g><title>element</title>
<g>
<polyline fill="none" stroke="#7f7fff" points="176.797,264.762 175.581,266.686 174.399,268.61 173.251,270.534 172.136,272.458 171.053,274.382 170.001,276.306 168.98,278.23 167.989,280.154 167.028,282.078 166.095,284.002 165.192,285.926 164.316,287.85 163.468,289.774 162.647,291.698 161.852,293.622 161.085,295.546 160.343,297.47 159.627,299.394 158.936,301.318 158.27,303.242 157.629,305.166 157.012,307.09 156.419,309.014 155.851,310.938 155.306,312.862 154.784,314.786 154.286,316.71 153.81,318.634 153.358,320.558 152.928,322.482 152.521,324.406 152.136,326.33 151.773,328.254 151.432,330.178 151.113,332.102 150.816,334.026 150.54,335.95 150.286,337.874 150.054,339.798 149.843,341.722 149.653,343.646 149.485,345.57 149.338,347.494 149.212,349.418 149.107,351.342 149.023,353.266 148.96,355.19 148.918,357.114 148.897,359.038 148.897,360.962 148.918,362.886 148.96,364.81 149.023,366.734 149.107,368.658 149.212,370.582 149.338,372.506 149.485,374.43 149.653,376.354 149.843,378.278 150.054,380.202 150.286,382.126 150.54,384.05 150.816,385.974 151.113,387.898 151.432,389.822 151.773,391.746 152.136,393.67 152.521,395.594 152.928,397.518 153.358,399.442 153.81,401.366 154.286,403.29 154.784,405.214 155.306,407.138 155.851,409.062 156.419,410.986 157.012,412.91 157.629,414.834 158.27,416.758 158.936,418.682 159.627,420.606 160.343,422.53 161.085,424.454 161.852,426.378 162.647,428.302 163.468,430.226 164.316,432.15 165.192,434.074 166.095,435.998 167.028,437.922 167.989,439.846 168.98,441.77 170.001,443.694 171.053,445.618 172.136,447.542 173.251,449.466 174.399,451.39 175.581,453.314 176.797,455.238 " />
<line x1="186.702" y1="264.762" x2="186.702" y2="267.635"  stroke="#7f7fff" />
<line x1="176.797" y1="264.762" x2="186.702" y2="264.762"  stroke="#7f7fff" />
<line x1="186.702" y1="455.238" x2="186.702" y2="452.365"  stroke="#7f7fff" />
<line x1="176.797" y1="455.238" x2="186.702" y2="455.238"  stroke="#7f7fff" />
<polyline fill="none" stroke="#7f7fff" points="186.702,267.635 185.764,269.501 184.849,271.367 183.958,273.233 183.09,275.099 182.245,276.965 181.422,278.831 180.622,280.697 179.843,282.563 179.086,284.429 178.351,286.295 177.636,288.161 176.942,290.027 176.269,291.893 175.617,293.759 174.985,295.625 174.372,297.491 173.78,299.357 173.207,301.223 172.654,303.089 172.12,304.954 171.606,306.82 171.11,308.686 170.633,310.552 170.175,312.418 169.736,314.284 169.315,316.15 168.912,318.016 168.528,319.882 168.162,321.748 167.814,323.614 167.484,325.48 167.171,327.346 166.877,329.212 166.6,331.078 166.341,332.944 166.1,334.81 165.875,336.676 165.669,338.542 165.48,340.408 165.308,342.273 165.153,344.139 165.016,346.005 164.896,347.871 164.793,349.737 164.708,351.603 164.639,353.469 164.588,355.335 164.554,357.201 164.537,359.067 164.537,360.933 164.554,362.799 164.588,364.665 164.639,366.531 164.708,368.397 164.793,370.263 164.896,372.129 165.016,373.995 165.153,375.861 165.308,377.727 165.48,379.592 165.669,381.458 165.875,383.324 166.1,385.19 166.341,387.056 166.6,388.922 166.877,390.788 167.171,392.654 167.484,394.52 167.814,396.386 168.162,398.252 168.528,400.118 168.912,401.984 169.315,403.85 169.736,405.716 170.175,407.582 170.633,409.448 171.11,411.314 171.606,413.18 172.12,415.046 172.654,416.911 173.207,418.777 173.78,420.643 174.372,422.509 174.985,424.375 175.617,426.241 176.269,428.107 176.942,429.973 177.636,431.839 178.351,433.705 179.086,435.571 179.843,437.437 180.622,439.303 181.422,441.169 182.245,443.035 183.09,444.901 183.958,446.767 184.849,448.633 185.764,450.499 186.702,452.365 " />
</g>
<g>
<polyline fill="none" stroke="#7f7fff" points="186.849,267.635 186.47,269.501 186.099,271.367 185.735,273.233 185.38,275.099 185.033,276.965 184.693,278.831 184.362,280.697 184.038,282.563 183.723,284.429 183.415,286.295 183.116,288.161 182.824,290.027 182.54,291.893 182.264,293.759 181.995,295.625 181.735,297.491 181.482,299.357 181.237,301.223 181,303.089 180.771,304.954 180.549,306.82 180.335,308.686 180.129,310.552 179.931,312.418 179.74,314.284 179.557,316.15 179.382,318.016 179.214,319.882 179.054,321.748 178.902,323.614 178.758,325.48 178.621,327.346 178.491,329.212 178.37,331.078 178.256,332.944 178.149,334.81 178.05,336.676 177.959,338.542 177.876,340.408 177.8,342.273 177.731,344.139 177.671,346.005 177.618,347.871 177.572,349.737 177.534,351.603 177.504,353.469 177.481,355.335 177.466,357.201 177.458,359.067 177.458,360.933 177.466,362.799 177.481,364.665 177.504,366.531 177.534,368.397 177.572,370.263 177.618,372.129 177.671,373.995 177.731,375.861 177.8,377.727 177.876,379.592 177.959,381.458 178.05,383.324 178.149,385.19 178.256,387.056 178.37,388.922 178.491,390.788 178.621,392.654 178.758,394.52 178.902,396.386 179.054,398.252 179.214,400.118 179.382,401.984 179.557,403.85 179.74,405.716 179.931,407.582 180.129,409.448 180.335,411.314 180.549,413.18 180.771,415.046 181,416.911 181.237,418.777 181.482,420.643 181.735,422.509 181.995,424.375 182.264,426.241 182.54,428.107 182.824,429.973 183.116,431.839 183.415,433.705 183.723,435.571 184.038,437.437 184.362,439.303 184.693,441.169 185.033,443.035 185.38,444.901 185.735,446.767 186.099,448.633 186.47,450.499 186.849,452.365 " />
<line x1="198.845" y1="267.635" x2="198.845" y2="270.509"  stroke="#7f7fff" />
<line x1="186.849" y1="267.635" x2="198.845" y2="267.635"  stroke="#7f7fff" />
<line x1="198.845" y1="452.365" x2="198.845" y2="449.491"  stroke="#7f7fff" />
<line x1="186.849" y1="452.365" x2="198.845" y2="452.365"  stroke="#7f7fff" />
<polyline fill="none" stroke="#7f7fff" points="198.845,270.509 198.4,272.317 197.965,274.125 197.54,275.933 197.124,277.741 196.717,279.549 196.32,281.356 195.932,283.164 195.554,284.972 195.185,286.78 194.826,288.588 194.475,290.396 194.135,292.204 193.803,294.012 193.481,295.82 193.168,297.628 192.864,299.435 192.569,301.243 192.283,303.051 192.007,304.859 191.74,306.667 191.481,308.475 191.232,310.283 190.992,312.091 190.761,313.899 190.539,315.706 190.326,317.514 190.122,319.322 189.927,321.13 189.741,322.938 189.564,324.746 189.396,326.554 189.236,328.362 189.086,330.17 188.945,331.978 188.812,333.785 188.688,335.593 188.573,337.401 188.468,339.209 188.37,341.017 188.282,342.825 188.203,344.633 188.132,346.441 188.07,348.249 188.018,350.057 187.973,351.864 187.938,353.672 187.912,355.48 187.894,357.288 187.885,359.096 187.885,360.904 187.894,362.712 187.912,364.52 187.938,366.328 187.973,368.136 188.018,369.943 188.07,371.751 188.132,373.559 188.203,375.367 188.282,377.175 188.37,378.983 188.468,380.791 188.573,382.599 188.688,384.407 188.812,386.215 188.945,388.022 189.086,389.83 189.236,391.638 189.396,393.446 189.564,395.254 189.741,397.062 189.927,398.87 190.122,400.678 190.326,402.486 190.539,404.294 190.761,406.101 190.992,407.909 191.232,409.717 191.481,411.525 191.74,413.333 192.007,415.141 192.283,416.949 192.569,418.757 192.864,420.565 193.168,422.372 193.481,424.18 193.803,425.988 194.135,427.796 194.475,429.604 194.826,431.412 195.185,433.22 195.554,435.028 195.932,436.836 196.32,438.644 196.717,440.451 197.124,442.259 197.54,444.067 197.965,445.875 198.4,447.683 198.845,449.491 " />
</g>
<g>
<polyline fill="none" stroke="#7f7fff" points="347.467,299.655 347.156,300.874 346.852,302.093 346.554,303.312 346.263,304.532 345.978,305.751 345.701,306.97 345.43,308.189 345.165,309.408 344.907,310.627 344.656,311.846 344.411,313.065 344.173,314.284 343.941,315.503 343.715,316.722 343.497,317.941 343.284,319.161 343.078,320.38 342.879,321.599 342.685,322.818 342.499,324.037 342.318,325.256 342.144,326.475 341.976,327.694 341.815,328.913 341.66,330.132 341.511,331.351 341.368,332.571 341.232,333.79 341.102,335.009 340.978,336.228 340.861,337.447 340.75,338.666 340.645,339.885 340.546,341.104 340.453,342.323 340.367,343.542 340.287,344.761 340.213,345.98 340.145,347.2 340.083,348.419 340.028,349.638 339.979,350.857 339.935,352.076 339.898,353.295 339.868,354.514 339.843,355.733 339.825,356.952 339.812,358.171 339.806,359.39 339.806,360.61 339.812,361.829 339.825,363.048 339.843,364.267 339.868,365.486 339.898,366.705 339.935,367.924 339.979,369.143 340.028,370.362 340.083,371.581 340.145,372.8 340.213,374.02 340.287,375.239 340.367,376.458 340.453,377.677 340.546,378.896 340.645,380.115 340.75,381.334 340.861,382.553 340.978,383.772 341.102,384.991 341.232,386.21 341.368,387.429 341.511,388.649 341.66,389.868 341.815,391.087 341.976,392.306 342.144,393.525 342.318,394.744 342.499,395.963 342.685,397.182 342.879,398.401 343.078,399.62 343.284,400.839 343.497,402.059 343.715,403.278 343.941,404.497 344.173,405.716 344.411,406.935 344.656,408.154 344.907,409.373 345.165,410.592 345.43,411.811 345.701,413.03 345.978,414.249 346.263,415.468 346.554,416.688 346.852,417.907 347.156,419.126 347.467,420.345 " />
<line x1="359.308" y1="299.655" x2="359.308" y2="302.118"  stroke="#7f7fff" />
<line x1="347.467" y1="299.655" x2="359.308" y2="299.655"  stroke="#7f7fff" />
<line x1="359.308" y1="420.345" x2="359.308" y2="417.882"  stroke="#7f7fff" />
<line x1="347.467" y1="420.345" x2="359.308" y2="420.345"  stroke="#7f7fff" />
<polyline fill="none" stroke="#7f7fff" points="359.308,302.118 358.627,303.288 357.964,304.457 357.32,305.626 356.693,306.796 356.084,307.965 355.492,309.134 354.916,310.304 354.357,311.473 353.815,312.642 353.288,313.812 352.777,314.981 352.281,316.15 351.801,317.32 351.336,318.489 350.885,319.658 350.45,320.827 350.028,321.997 349.622,323.166 349.229,324.335 348.85,325.505 348.486,326.674 348.135,327.843 347.797,329.013 347.473,330.182 347.163,331.351 346.865,332.521 346.581,333.69 346.31,334.859 346.052,336.029 345.806,337.198 345.574,338.367 345.354,339.537 345.146,340.706 344.952,341.875 344.769,343.045 344.599,344.214 344.442,345.383 344.297,346.553 344.164,347.722 344.043,348.891 343.935,350.061 343.838,351.23 343.754,352.399 343.682,353.569 343.622,354.738 343.574,355.907 343.537,357.077 343.513,358.246 343.501,359.415 343.501,360.585 343.513,361.754 343.537,362.923 343.574,364.093 343.622,365.262 343.682,366.431 343.754,367.601 343.838,368.77 343.935,369.939 344.043,371.109 344.164,372.278 344.297,373.447 344.442,374.617 344.599,375.786 344.769,376.955 344.952,378.125 345.146,379.294 345.354,380.463 345.574,381.633 345.806,382.802 346.052,383.971 346.31,385.141 346.581,386.31 346.865,387.479 347.163,388.649 347.473,389.818 347.797,390.987 348.135,392.157 348.486,393.326 348.85,394.495 349.229,395.665 349.622,396.834 350.028,398.003 350.45,399.173 350.885,400.342 351.336,401.511 351.801,402.68 352.281,403.85 352.777,405.019 353.288,406.188 353.815,407.358 354.357,408.527 354.916,409.696 355.492,410.866 356.084,412.035 356.693,413.204 357.32,414.374 357.964,415.543 358.627,416.712 359.308,417.882 " />
</g>
<g>
<polyline fill="none" stroke="#7f7fff" points="483.175,306.223 482.865,307.31 482.562,308.396 482.265,309.483 481.976,310.569 481.692,311.655 481.416,312.742 481.146,313.828 480.883,314.914 480.627,316.001 480.377,317.087 480.134,318.174 479.897,319.26 479.667,320.346 479.443,321.433 479.226,322.519 479.015,323.606 478.811,324.692 478.613,325.778 478.421,326.865 478.236,327.951 478.057,329.038 477.884,330.124 477.718,331.21 477.558,332.297 477.404,333.383 477.257,334.47 477.116,335.556 476.981,336.642 476.852,337.729 476.73,338.815 476.613,339.902 476.503,340.988 476.399,342.074 476.301,343.161 476.21,344.247 476.124,345.334 476.045,346.42 475.972,347.506 475.905,348.593 475.844,349.679 475.789,350.766 475.74,351.852 475.698,352.938 475.661,354.025 475.631,355.111 475.606,356.198 475.588,357.284 475.576,358.37 475.57,359.457 475.57,360.543 475.576,361.63 475.588,362.716 475.606,363.802 475.631,364.889 475.661,365.975 475.698,367.062 475.74,368.148 475.789,369.234 475.844,370.321 475.905,371.407 475.972,372.494 476.045,373.58 476.124,374.666 476.21,375.753 476.301,376.839 476.399,377.926 476.503,379.012 476.613,380.098 476.73,381.185 476.852,382.271 476.981,383.358 477.116,384.444 477.257,385.53 477.404,386.617 477.558,387.703 477.718,388.79 477.884,389.876 478.057,390.962 478.236,392.049 478.421,393.135 478.613,394.222 478.811,395.308 479.015,396.394 479.226,397.481 479.443,398.567 479.667,399.654 479.897,400.74 480.134,401.826 480.377,402.913 480.627,403.999 480.883,405.086 481.146,406.172 481.416,407.258 481.692,408.345 481.976,409.431 482.265,410.517 482.562,411.604 482.865,412.69 483.175,413.777 " />
<line x1="490.388" y1="306.223" x2="490.388" y2="307.455"  stroke="#7f7fff" />
<line x1="483.175" y1="306.223" x2="490.388" y2="306.223"  stroke="#7f7fff" />
<line x1="490.388" y1="413.777" x2="490.388" y2="412.545"  stroke="#7f7fff" />
<line x1="483.175" y1="413.777" x2="490.388" y2="413.777"  stroke="#7f7fff" />
<polyline fill="none" stroke="#7f7fff" points="490.388,307.455 490.388,308.516 490.388,309.578 490.388,310.639 490.388,311.701 490.388,312.762 490.388,313.824 490.388,314.885 490.388,315.947 490.388,317.009 490.388,318.07 490.388,319.132 490.388,320.193 490.388,321.255 490.388,322.316 490.388,323.378 490.388,324.439 490.388,325.501 490.388,326.562 490.388,327.624 490.388,328.685 490.388,329.747 490.388,330.808 490.388,331.87 490.388,332.931 490.388,333.993 490.388,335.054 490.388,336.116 490.388,337.177 490.388,338.239 490.388,339.3 490.388,340.362 490.388,341.423 490.388,342.485 490.388,343.546 490.388,344.608 490.388,345.67 490.388,346.731 490.388,347.793 490.388,348.854 490.388,349.916 490.388,350.977 490.388,352.039 490.388,353.1 490.388,354.162 490.388,355.223 490.388,356.285 490.388,357.346 490.388,358.408 490.388,359.469 490.388,360.531 490.388,361.592 490.388,362.654 490.388,363.715 490.388,364.777 490.388,365.838 490.388,366.9 490.388,367.961 490.388,369.023 490.388,370.084 490.388,371.146 490.388,372.207 490.388,373.269 490.388,374.33 490.388,375.392 490.388,376.454 490.388,377.515 490.388,378.577 490.388,379.638 490.388,380.7 490.388,381.761 490.388,382.823 490.388,383.884 490.388,384.946 490.388,386.007 490.388,387.069 490.388,388.13 490.388,389.192 490.388,390.253 490.388,391.315 490.388,392.376 490.388,393.438 490.388,394.499 490.388,395.561 490.388,396.622 490.388,397.684 490.388,398.745 490.388,399.807 490.388,400.868 490.388,401.93 490.388,402.991 490.388,404.053 490.388,405.115 490.388,406.176 490.388,407.238 490.388,408.299 490.388,409.361 490.388,410.422 490.388,411.484 490.388,412.545 " />
</g>
</g>
<g><title>rays</title>
<g><title>ray</title>
<line x1="-1280.43" y1="-3542.02" x2="-1280.43" y2="360"  stroke="#610c2c" />
</g>
<g><title>ray</title>
<line x1="490.388" y1="348.6" x2="564.305" y2="359.998"  stroke="#f17106" />
<line x1="475.995" y1="347.148" x2="490.388" y2="348.6"  stroke="#ed35db" />
<line x1="347.041" y1="331.824" x2="475.995" y2="347.148"  stroke="#3f83ec" />
<line x1="341.563" y1="330.921" x2="347.041" y2="331.824"  stroke="#e0eff9" />
<line x1="192.307" y1="302.901" x2="341.563" y2="330.921"  stroke="#f68ff1" />
<line x1="181.273" y1="300.951" x2="192.307" y2="302.901"  stroke="#332fb9" />
<line x1="173.755" y1="299.436" x2="181.273" y2="300.951"  stroke="#8d3f48" />
<line x1="160.776" y1="296.339" x2="173.755" y2="299.436"  stroke="#385685" />
<line x1="-1021.73" y1="101.301" x2="160.776" y2="296.339"  stroke="#6f91d9" />
<line x1="-275.277" y1="4626.99" x2="-1021.73" y2="101.301"  stroke="#23d0f5" />
<line x1="-275.277" y1="-3542.02" x2="-275.277" y2="4626.99"  stroke="#46b034" />
</g>
<g><title>ray</title>
</g>
<g><title>ray</title>
<line x1="490.388" y1="371.4" x2="564.305" y2="360.002"  stroke="#66bac2" />
<line x1="475.995" y1="372.852" x2="490.388" y2="371.4"  stroke="#40d3d1" />
<line x1="347.041" y1="388.176" x2="475.995" y2="372.852"  stroke="#6c3c75" />
<line x1="341.563" y1="389.079" x2="347.041" y2="388.176"  stroke="#e4efcd" />
<line x1="192.307" y1="417.099" x2="341.563" y2="389.079"  stroke="#3e2b84" />
<line x1="181.273" y1="419.049" x2="192.307" y2="417.099"  stroke="#760746" />
<line x1="173.755" y1="420.564" x2="181.273" y2="419.049"  stroke="#562286" />
<line x1="160.776" y1="423.661" x2="173.755" y2="420.564"  stroke="#5db102" />
<line x1="-1641.32" y1="720.893" x2="160.776" y2="423.661"  stroke="#74a923" />
<line x1="-2285.58" y1="4626.99" x2="-1641.32" y2="720.893"  stroke="#22d6a8" />
<line x1="-2285.58" y1="-3542.02" x2="-2285.58" y2="4626.99"  stroke="#b4efc9" />
</g>
<g><title>ray</title>
</g>
<g><title>ray</title>
<line x1="490.388" y1="350.919" x2="564.305" y2="359.999"  stroke="#c27632" />
<line x1="475.84" y1="349.747" x2="490.388" y2="350.919"  stroke="#1e9bbb" />
<line x1="345.765" y1="337.401" x2="475.84" y2="349.747"  stroke="#3a9604" />
<line x1="340.926" y1="336.765" x2="345.765" y2="337.401"  stroke="#25efc3" />
<line x1="190.71" y1="314.311" x2="340.926" y2="336.765"  stroke="#d8cb2a" />
<line x1="179.892" y1="312.788" x2="190.71" y2="314.311"  stroke="#1eca36" />
<line x1="170.454" y1="311.275" x2="179.892" y2="312.788"  stroke="#173bf3" />
<line x1="156.534" y1="308.636" x2="170.454" y2="311.275"  stroke="#c5a2b0" />
<line x1="-1067.89" y1="147.466" x2="156.534" y2="308.636"  stroke="#6b54f5" />
<line x1="-476.307" y1="4641.81" x2="-1067.89" y2="147.466"  stroke="#5ed4a7" />
<line x1="-476.307" y1="-3542.02" x2="-476.307" y2="4641.81"  stroke="#4c07bd" />
</g>
<g><title>ray</title>
</g>
<g><title>ray</title>
<line x1="490.388" y1="369.081" x2="564.305" y2="360.001"  stroke="#6411e4" />
<line x1="475.84" y1="370.253" x2="490.388" y2="369.081"  stroke="#6726d5" />
<line x1="345.765" y1="382.599" x2="475.84" y2="370.253"  stroke="#085674" />
<line x1="340.926" y1="383.235" x2="345.765" y2="382.599"  stroke="#951ff4" />
<line x1="190.71" y1="405.689" x2="340.926" y2="383.235"  stroke="#9d2398" />
<line x1="179.892" y1="407.212" x2="190.71" y2="405.689"  stroke="#15e3e1" />
<line x1="170.454" y1="408.725" x2="179.892" y2="407.212"  stroke="#2530c2" />
<line x1="156.534" y1="411.364" x2="170.454" y2="408.725"  stroke="#b2c945" />
<line x1="-1557.4" y1="636.967" x2="156.534" y2="411.364"  stroke="#fc0b76" />
<line x1="-2084.55" y1="4641.81" x2="-1557.4" y2="636.967"  stroke="#99890b" />
<line x1="-2084.55" y1="-3542.02" x2="-2084.55" y2="4641.81"  stroke="#952f51" />
</g>
<g><title>ray</title>
</g>
<g><title>ray</title>
<line x1="490.388" y1="353.212" x2="564.305" y2="360"  stroke="#03effd" />
<line x1="475.721" y1="352.327" x2="490.388" y2="353.212"  stroke="#86ed25" />
<line x1="344.774" y1="343.016" x2="475.721" y2="352.327"  stroke="#7cbbc2" />
<line x1="340.434" y1="342.59" x2="344.774" y2="343.016"  stroke="#c2963d" />
<line x1="189.471" y1="325.728" x2="340.434" y2="342.59"  stroke="#45b8af" />
<line x1="178.824" y1="324.607" x2="189.471" y2="325.728"  stroke="#4fa774" />
<line x1="167.872" y1="323.295" x2="178.824" y2="324.607"  stroke="#f49227" />
<line x1="153.207" y1="321.222" x2="167.872" y2="323.295"  stroke="#c3601a" />
<line x1="-1116.54" y1="196.107" x2="153.207" y2="321.222"  stroke="#cc9ea9" />
<line x1="-677.338" y1="4653.34" x2="-1116.54" y2="196.107"  stroke="#17f4da" />
<line x1="-677.338" y1="-3542.02" x2="-677.338" y2="4653.34"  stroke="#730550" />
</g>
<g><title>ray</title>
</g>
<g><title>ray</title>
<line x1="490.388" y1="366.788" x2="564.305" y2="360"  stroke="#e53260" />
<line x1="475.721" y1="367.673" x2="490.388" y2="366.788"  stroke="#60c5b7" />
<line x1="344.774" y1="376.984" x2="475.721" y2="367.673"  stroke="#39b16d" />
<line x1="340.434" y1="377.41" x2="344.774" y2="376.984"  stroke="#71d372" />
<line x1="189.471" y1="394.272" x2="340.434" y2="377.41"  stroke="#920f84" />
<line x1="178.824" y1="395.393" x2="189.471" y2="394.272"  stroke="#4f6acb" />
<line x1="167.872" y1="396.705" x2="178.824" y2="395.393"  stroke="#740fec" />
<line x1="153.207" y1="398.778" x2="167.872" y2="396.705"  stroke="#467c14" />
<line x1="-1480.15" y1="559.722" x2="153.207" y2="398.778"  stroke="#cee016" />
<line x1="-1883.52" y1="4653.34" x2="-1480.15" y2="559.722"  stroke="#475421" />
<line x1="-1883.52" y1="-3542.02" x2="-1883.52" y2="4653.34"  stroke="#28af71" />
</g>
<g><title>ray</title>
</g>
<g><title>ray</title>
<line x1="490.388" y1="355.485" x2="564.305" y2="360"  stroke="#5e2813" />
<line x1="475.636" y1="354.893" x2="490.388" y2="355.485"  stroke="#7d70c2" />
<line x1="344.066" y1="348.661" x2="475.636" y2="354.893"  stroke="#c8a283" />
<line x1="340.084" y1="348.401" x2="344.066" y2="348.661"  stroke="#fd1673" />
<line x1="188.589" y1="337.149" x2="340.084" y2="348.401"  stroke="#5bed59" />
<line x1="178.064" y1="336.412" x2="188.589" y2="337.149"  stroke="#f1ec31" />
<line x1="166.02" y1="335.453" x2="178.064" y2="336.412"  stroke="#25a066" />
<line x1="150.816" y1="334.026" x2="166.02" y2="335.453"  stroke="#f1302a" />
<line x1="-1167.94" y1="247.512" x2="150.816" y2="334.026"  stroke="#f42421" />
<line x1="-878.368" y1="4661.57" x2="-1167.94" y2="247.512"  stroke="#07cc76" />
<line x1="-878.368" y1="-3542.02" x2="-878.368" y2="4661.57"  stroke="#43d7d9" />
</g>
<g><title>ray</title>
</g>
<g><title>ray</title>
<line x1="490.388" y1="364.515" x2="564.305" y2="360"  stroke="#910d71" />
<line x1="475.636" y1="365.107" x2="490.388" y2="364.515"  stroke="#b87294" />
<line x1="344.066" y1="371.339" x2="475.636" y2="365.107"  stroke="#642ef3" />
<line x1="340.084" y1="371.599" x2="344.066" y2="371.339"  stroke="#7a9605" />
<line x1="188.589" y1="382.851" x2="340.084" y2="371.599"  stroke="#37cca3" />
<line x1="178.064" y1="383.588" x2="188.589" y2="382.851"  stroke="#6dc733" />
<line x1="166.02" y1="384.547" x2="178.064" y2="383.588"  stroke="#23a7ee" />
<line x1="150.816" y1="385.974" x2="166.02" y2="384.547"  stroke="#d6d8e2" />
<line x1="-1408.71" y1="488.283" x2="150.816" y2="385.974"  stroke="#fe5364" />
<line x1="-1682.49" y1="4661.57" x2="-1408.71" y2="488.283"  stroke="#097ffc" />
<line x1="-1682.49" y1="-3542.02" x2="-1682.49" y2="4661.57"  stroke="#39c7c6" />
</g>
<g><title>ray</title>
</g>
<g><title>ray</title>
<line x1="-1079.4" y1="-3542.02" x2="-1079.4" y2="158.97"  stroke="#b17668" />
</g>
<g><title>ray</title>
</g>
<g><title>ray</title>
<line x1="-1481.46" y1="-3542.02" x2="-1481.46" y2="561.03"  stroke="#7b8330" />
</g>
<g><title>ray</title>
</g>
</g>
</svg>
