<?xml version="1.0" standalone="no"?>
<svg width="640px" height="480px" version="1.1" xmlns="http://www.w3.org/2000/svg" xmlns:xlink="http://www.w3.org/1999/xlink">
<rect x="0" y="0" width="640" height="480"  fill="#ffffff" />
<defs>
<g id="dot">
<line x1="1" y1="1" x2="0" y2="0"  />
</g>
<g id="cross">
<line x1="-3" y1="0" x2="3" y2="0"  />
<line x1="0" y1="-3" x2="0" y2="3"  />
</g>
<g id="square">
<line x1="-3" y1="-3" x2="-3" y2="3"  />
<line x1="-3" y1="3" x2="3" y2="3"  />
<line x1="3" y1="3" x2="3" y2="-3"  />
<line x1="3" y1="-3" x2="-3" y2="-3"  />
</g>
<g id="round">
<ellipse cx="0" cy="0" rx="3" ry="3"  fill="none" /></g>
<g id="triangle">
<line x1="0" y1="-3" x2="-3" y2="3"  />
<line x1="-3" y1="3" x2="3" y2="3"  />
<line x1="0" y1="-3" x2="3" y2="3"  />
</g>
</defs>
<polygon fill="none" stroke="#000000" points="66.0317,430.476 66.0317,49.5238 573.968,49.5238 573.968,430.476 " />
<text style="font-size:12;text-align:center;text-anchor:middle;" x="320" y="473.619" fill="#000000">Entrance ray height (normalized)</text>
<line x1="66.0317" y1="240" x2="573.968" y2="240"  stroke="#000000" />
<use x="66.0317" y="240" xlink:href="#cross"  stroke="#000000" />
<use x="66.0317" y="49.5238" xlink:href="#cross"  stroke="#000000" />
<use x="66.0317" y="430.476" xlink:href="#cross"  stroke="#000000" />
<text style="font-size:12;text-align:center;text-anchor:middle;" x="66.0317" y="448.476" fill="#000000">-1</text>
<use x="320" y="240" xlink:href="#cross"  stroke="#000000" />
<use x="320" y="49.5238" xlink:href="#cross"  stroke="#000000" />
<use x="320" y="430.476" xlink:href="#cross"  stroke="#000000" />
<text style="font-size:12;text-align:center;text-anchor:middle;" x="320" y="448.476" fill="#000000">0</text>
<use x="573.968" y="240" xlink:href="#cross"  stroke="#000000" />
<use x="573.968" y="49.5238" xlink:href="#cross"  stroke="#000000" />
<use x="573.968" y="430.476" xlink:href="#cross"  stroke="#000000" />
<text style="font-size:12;text-align:center;text-anchor:middle;" x="573.968" y="448.476" fill="#000000">1</text>
<text style="font-size:12;text-align:center;text-anchor:middle;" x="16.5079" y="246" transform="rotate(-90,16.5079,240)" fill="#000000">Transverse ray aberration (um)</text>
<line x1="320" y1="430.476" x2="320" y2="49.5238"  stroke="#000000" />
<use x="320" y="393.061" xlink:href="#cross"  stroke="#000000" />
<use x="573.968" y="393.061" xlink:href="#cross"  stroke="#000000" />
<use x="66.0317" y="393.061" xlink:href="#cross"  stroke="#000000" />
<text style="font-size:12;text-align:right;text-anchor:end;" x="60.0317" y="399.061" fill="#000000">-40</text>
<use x="320" y="354.796" xlink:href="#cross"  stroke="#000000" />
<use x="573.968" y="354.796" xlink:href="#cross"  stroke="#000000" />
<use x="66.0317" y="354.796" xlink:href="#cross"  stroke="#000000" />
<text style="font-size:12;text-align:right;text-anchor:end;" x="60.0317" y="360.796" fill="#000000">-30</text>
<use x="320" y="316.531" xlink:href="#cross"  stroke="#000000" />
<use x="573.968" y="316.531" xlink:href="#cross"  stroke="#000000" />
<use x="66.0317" y="316.531" xlink:href="#cross"  stroke="#000000" />
<text style="font-size:12;text-align:right;text-anchor:end;" x="60.0317" y="322.531" fill="#000000">-20</text>
<use x="320" y="278.265" xlink:href="#cross"  stroke="#000000" />
<use x="573.968" y="278.265" xlink:href="#cross"  stroke="#000000" />
<use x="66.0317" y="278.265" xlink:href="#cross"  stroke="#000000" />
<text style="font-size:12;text-align:right;text-anchor:end;" x="60.0317" y="284.265" fill="#000000">-10</text>
<use x="320" y="240" xlink:href="#cross"  stroke="#000000" />
<use x="573.968" y="240" xlink:href="#cross"  stroke="#000000" />
<use x="66.0317" y="240" xlink:href="#cross"  stroke="#000000" />
<text style="font-size:12;text-align:right;text-anchor:end;" x="60.0317" y="246" fill="#000000">0</text>
<use x="320" y="201.735" xlink:href="#cross"  stroke="#000000" />
<use x="573.968" y="201.735" xlink:href="#cross"  stroke="#000000" />
<use x="66.0317" y="201.735" xlink:href="#cross"  stroke="#000000" />
<text style="font-size:12;text-align:right;text-anchor:end;" x="60.0317" y="207.735" fill="#000000">10</text>
<use x="320" y="163.469" xlink:href="#cross"  stroke="#000000" />
<use x="573.968" y="163.469" xlink:href="#cross"  stroke="#000000" />
<use x="66.0317" y="163.469" xlink:href="#cross"  stroke="#000000" />
<text style="font-size:12;text-align:right;text-anchor:end;" x="60.0317" y="169.469" fill="#000000">20</text>
<use x="320" y="125.204" xlink:href="#cross"  stroke="#000000" />
<use x="573.968" y="125.204" xlink:href="#cross"  stroke="#000000" />
<use x="66.0317" y="125.204" xlink:href="#cross"  stroke="#000000" />
<text style="font-size:12;text-align:right;text-anchor:end;" x="60.0317" y="131.204" fill="#000000">30</text>
<use x="320" y="86.9388" xlink:href="#cross"  stroke="#000000" />
<use x="573.968" y="86.9388" xlink:href="#cross"  stroke="#000000" />
<use x="66.0317" y="86.9388" xlink:href="#cross"  stroke="#000000" />
<text style="font-size:12;text-align:right;text-anchor:end;" x="60.0317" y="92.9388" fill="#000000">40</text>
<text style="font-size:18;text-align:center;text-anchor:middle;" x="320" y="33.7619" fill="#000000">Transverse ray aberration fan (tangential)</text>
<path fill="none"  stroke="#00ebff" d="M66.2857,213.069 S77.5619,221.209 83.2,224.76 S94.4762,231.489 100.114,234.375 S111.39,239.8 117.029,242.073 S128.305,246.3 133.943,248.012 S145.219,251.143 150.857,252.345 S162.133,254.482 167.771,255.224 S179.048,256.467 184.686,256.799 S195.962,257.246 201.6,257.217 S212.876,256.967 218.514,256.626 S229.79,255.776 235.429,255.171 S246.705,253.818 252.343,252.998 S263.619,251.238 269.257,250.25 S280.533,248.18 286.171,247.073 S297.448,244.787 303.086,243.608 S314.362,241.203 320,240 S331.276,237.571 336.914,236.392 S348.19,234.035 353.829,232.927 S365.105,230.737 370.743,229.75 S382.019,227.822 387.657,227.002 S398.933,225.433 404.571,224.829 S415.848,223.715 421.486,223.374 S432.762,222.812 438.4,222.783 S449.676,222.869 455.314,223.201 S466.59,224.034 472.229,224.776 S483.505,226.453 489.143,227.655 S500.419,230.276 506.057,231.988 S517.333,235.654 522.971,237.927 S534.248,242.74 539.886,245.625 S551.162,251.689 556.8,255.24 S570.895,264.982 573.714,266.931 " />
<path fill="none"  stroke="#83ff00" d="M66.2857,49.5238 S77.5619,67.4581 83.2,75.7183 S94.4762,91.7312 100.114,99.0847 S111.39,113.321 117.029,119.839 S128.305,132.441 133.943,138.195 S145.219,149.302 150.857,154.359 S162.133,164.109 167.771,168.539 S179.048,177.069 184.686,180.939 S195.962,188.383 201.6,191.76 S212.876,198.252 218.514,201.203 S229.79,206.875 235.429,209.466 S246.705,214.452 252.343,216.749 S263.619,221.179 269.257,223.247 S280.533,227.252 286.171,229.157 S297.448,232.869 303.086,234.676 S314.362,238.225 320,240 S331.276,243.516 336.914,245.324 S348.19,248.938 353.829,250.843 S365.105,254.685 370.743,256.753 S382.019,260.955 387.657,263.251 S398.933,267.943 404.571,270.534 S415.848,275.846 421.486,278.797 S432.762,284.863 438.4,288.24 S449.676,295.191 455.314,299.061 S466.59,307.031 472.229,311.461 S483.505,320.583 489.143,325.641 S500.419,336.052 506.057,341.805 S517.333,353.642 522.971,360.161 S534.248,373.562 539.886,380.915 S551.162,396.022 556.8,404.282 S570.895,426.11 573.714,430.476 " />
<path fill="none"  stroke="#ff0000" d="M66.2857,321.41 S77.5619,329.806 83.2,333.108 S94.4762,339.069 100.114,341.221 S111.39,344.929 117.029,346.021 S128.305,347.655 133.943,347.777 S145.219,347.513 150.857,346.752 S162.133,344.766 167.771,343.208 S179.048,339.672 184.686,337.403 S195.962,332.489 201.6,329.594 S212.876,323.471 218.514,320.035 S229.79,312.871 235.429,308.978 S246.705,300.942 252.343,296.675 S263.619,287.934 269.257,283.377 S280.533,274.096 286.171,269.332 S297.448,259.679 303.086,254.79 S314.362,244.93 320,240 S331.276,230.098 336.914,225.21 S348.19,215.432 353.829,210.668 S365.105,201.181 370.743,196.623 S382.019,187.592 387.657,183.325 S398.933,174.915 404.571,171.022 S415.848,163.401 421.486,159.965 S432.762,153.301 438.4,150.406 S449.676,144.866 455.314,142.597 S466.59,138.35 472.229,136.792 S483.505,134.01 489.143,133.248 S500.419,132.102 506.057,132.223 S517.333,132.886 522.971,133.979 S534.248,136.627 539.886,138.779 S551.162,143.59 556.8,146.892 S570.895,156.64 573.714,158.59 " />
</svg>
