<?xml version="1.0" standalone="no"?>
<svg width="1024px" height="100px" version="1.1" xmlns="http://www.w3.org/2000/svg" xmlns:xlink="http://www.w3.org/1999/xlink">
<rect x="0" y="0" width="1024" height="100"  fill="#ffffff" />
<defs>
<g id="dot">
<line x1="1" y1="1" x2="0" y2="0"  />
</g>
<g id="cross">
<line x1="-3" y1="0" x2="3" y2="0"  />
<line x1="0" y1="-3" x2="0" y2="3"  />
</g>
<g id="square">
<line x1="-3" y1="-3" x2="-3" y2="3"  />
<line x1="-3" y1="3" x2="3" y2="3"  />
<line x1="3" y1="3" x2="3" y2="-3"  />
<line x1="3" y1="-3" x2="-3" y2="-3"  />
</g>
<g id="round">
<ellipse cx="0" cy="0" rx="3" ry="3"  fill="none" /></g>
<g id="triangle">
<line x1="0" y1="-3" x2="-3" y2="3"  />
<line x1="-3" y1="3" x2="3" y2="3"  />
<line x1="0" y1="-3" x2="3" y2="3"  />
</g>
</defs>
<line x1="105.651" y1="50" x2="918.349" y2="50"  stroke="#7f7f7f" />
<g><title>element</title>
</g>
<g><title>element</title>
<polyline fill="none" stroke="#7f7fff" points="106.322,23.0404 106.295,23.585 106.269,24.1296 106.243,24.6743 106.218,25.2189 106.193,25.7636 106.169,26.3082 106.145,26.8528 106.122,27.3975 106.1,27.9421 106.078,28.4868 106.057,29.0314 106.036,29.576 106.016,30.1207 105.996,30.6653 105.977,31.2099 105.958,31.7546 105.94,32.2992 105.922,32.8439 105.905,33.3885 105.889,33.9331 105.873,34.4778 105.858,35.0224 105.843,35.5671 105.829,36.1117 105.815,36.6563 105.802,37.201 105.789,37.7456 105.777,38.2903 105.766,38.8349 105.755,39.3795 105.744,39.9242 105.735,40.4688 105.725,41.0135 105.717,41.5581 105.708,42.1027 105.701,42.6474 105.694,43.192 105.687,43.7366 105.681,44.2813 105.675,44.8259 105.671,45.3706 105.666,45.9152 105.662,46.4598 105.659,47.0045 105.656,47.5491 105.654,48.0938 105.653,48.6384 105.651,49.183 105.651,49.7277 105.651,50.2723 105.651,50.817 105.653,51.3616 105.654,51.9062 105.656,52.4509 105.659,52.9955 105.662,53.5402 105.666,54.0848 105.671,54.6294 105.675,55.1741 105.681,55.7187 105.687,56.2634 105.694,56.808 105.701,57.3526 105.708,57.8973 105.717,58.4419 105.725,58.9865 105.735,59.5312 105.744,60.0758 105.755,60.6205 105.766,61.1651 105.777,61.7097 105.789,62.2544 105.802,62.799 105.815,63.3437 105.829,63.8883 105.843,64.4329 105.858,64.9776 105.873,65.5222 105.889,66.0669 105.905,66.6115 105.922,67.1561 105.94,67.7008 105.958,68.2454 105.977,68.7901 105.996,69.3347 106.016,69.8793 106.036,70.424 106.057,70.9686 106.078,71.5132 106.1,72.0579 106.122,72.6025 106.145,73.1472 106.169,73.6918 106.193,74.2364 106.218,74.7811 106.243,75.3257 106.269,75.8704 106.295,76.415 106.322,76.9596 " />
</g>
<g><title>element</title>
<polyline fill="none" stroke="#7f7fff" points="112.714,23.0404 112.77,23.585 112.824,24.1296 112.878,24.6743 112.93,25.2189 112.981,25.7636 113.03,26.3082 113.079,26.8528 113.127,27.3975 113.173,27.9421 113.218,28.4868 113.262,29.0314 113.305,29.576 113.347,30.1207 113.388,30.6653 113.427,31.2099 113.466,31.7546 113.503,32.2992 113.539,32.8439 113.574,33.3885 113.608,33.9331 113.641,34.4778 113.672,35.0224 113.703,35.5671 113.732,36.1117 113.76,36.6563 113.787,37.201 113.813,37.7456 113.838,38.2903 113.862,38.8349 113.884,39.3795 113.906,39.9242 113.926,40.4688 113.945,41.0135 113.963,41.5581 113.98,42.1027 113.996,42.6474 114.011,43.192 114.024,43.7366 114.037,44.2813 114.048,44.8259 114.058,45.3706 114.067,45.9152 114.075,46.4598 114.082,47.0045 114.087,47.5491 114.092,48.0938 114.095,48.6384 114.098,49.183 114.099,49.7277 114.099,50.2723 114.098,50.817 114.095,51.3616 114.092,51.9062 114.087,52.4509 114.082,52.9955 114.075,53.5402 114.067,54.0848 114.058,54.6294 114.048,55.1741 114.037,55.7187 114.024,56.2634 114.011,56.808 113.996,57.3526 113.98,57.8973 113.963,58.4419 113.945,58.9865 113.926,59.5312 113.906,60.0758 113.884,60.6205 113.862,61.1651 113.838,61.7097 113.813,62.2544 113.787,62.799 113.76,63.3437 113.732,63.8883 113.703,64.4329 113.672,64.9776 113.641,65.5222 113.608,66.0669 113.574,66.6115 113.539,67.1561 113.503,67.7008 113.466,68.2454 113.427,68.7901 113.388,69.3347 113.347,69.8793 113.305,70.424 113.262,70.9686 113.218,71.5132 113.173,72.0579 113.127,72.6025 113.079,73.1472 113.03,73.6918 112.981,74.2364 112.93,74.7811 112.878,75.3257 112.824,75.8704 112.77,76.415 112.714,76.9596 " />
</g>
<g><title>element</title>
<polyline fill="none" stroke="#7f7fff" points="114.46,23.0404 114.515,23.585 114.569,24.1296 114.622,24.6743 114.674,25.2189 114.724,25.7636 114.773,26.3082 114.822,26.8528 114.869,27.3975 114.915,27.9421 114.959,28.4868 115.003,29.0314 115.046,29.576 115.087,30.1207 115.128,30.6653 115.167,31.2099 115.205,31.7546 115.242,32.2992 115.277,32.8439 115.312,33.3885 115.346,33.9331 115.378,34.4778 115.41,35.0224 115.44,35.5671 115.469,36.1117 115.497,36.6563 115.524,37.201 115.549,37.7456 115.574,38.2903 115.597,38.8349 115.62,39.3795 115.641,39.9242 115.661,40.4688 115.68,41.0135 115.698,41.5581 115.715,42.1027 115.73,42.6474 115.745,43.192 115.758,43.7366 115.771,44.2813 115.782,44.8259 115.792,45.3706 115.801,45.9152 115.809,46.4598 115.815,47.0045 115.821,47.5491 115.825,48.0938 115.829,48.6384 115.831,49.183 115.832,49.7277 115.832,50.2723 115.831,50.817 115.829,51.3616 115.825,51.9062 115.821,52.4509 115.815,52.9955 115.809,53.5402 115.801,54.0848 115.792,54.6294 115.782,55.1741 115.771,55.7187 115.758,56.2634 115.745,56.808 115.73,57.3526 115.715,57.8973 115.698,58.4419 115.68,58.9865 115.661,59.5312 115.641,60.0758 115.62,60.6205 115.597,61.1651 115.574,61.7097 115.549,62.2544 115.524,62.799 115.497,63.3437 115.469,63.8883 115.44,64.4329 115.41,64.9776 115.378,65.5222 115.346,66.0669 115.312,66.6115 115.277,67.1561 115.242,67.7008 115.205,68.2454 115.167,68.7901 115.128,69.3347 115.087,69.8793 115.046,70.424 115.003,70.9686 114.959,71.5132 114.915,72.0579 114.869,72.6025 114.822,73.1472 114.773,73.6918 114.724,74.2364 114.674,74.7811 114.622,75.3257 114.569,75.8704 114.515,76.415 114.46,76.9596 " />
</g>
<g><title>element</title>
<polyline fill="none" stroke="#7f7fff" points="122.231,23.0404 122.246,23.585 122.26,24.1296 122.274,24.6743 122.288,25.2189 122.302,25.7636 122.315,26.3082 122.328,26.8528 122.341,27.3975 122.353,27.9421 122.365,28.4868 122.377,29.0314 122.389,29.576 122.4,30.1207 122.411,30.6653 122.421,31.2099 122.432,31.7546 122.442,32.2992 122.451,32.8439 122.461,33.3885 122.47,33.9331 122.479,34.4778 122.487,35.0224 122.495,35.5671 122.503,36.1117 122.511,36.6563 122.518,37.201 122.525,37.7456 122.531,38.2903 122.538,38.8349 122.544,39.3795 122.55,39.9242 122.555,40.4688 122.56,41.0135 122.565,41.5581 122.57,42.1027 122.574,42.6474 122.578,43.192 122.581,43.7366 122.585,44.2813 122.588,44.8259 122.59,45.3706 122.593,45.9152 122.595,46.4598 122.597,47.0045 122.598,47.5491 122.6,48.0938 122.6,48.6384 122.601,49.183 122.601,49.7277 122.601,50.2723 122.601,50.817 122.6,51.3616 122.6,51.9062 122.598,52.4509 122.597,52.9955 122.595,53.5402 122.593,54.0848 122.59,54.6294 122.588,55.1741 122.585,55.7187 122.581,56.2634 122.578,56.808 122.574,57.3526 122.57,57.8973 122.565,58.4419 122.56,58.9865 122.555,59.5312 122.55,60.0758 122.544,60.6205 122.538,61.1651 122.531,61.7097 122.525,62.2544 122.518,62.799 122.511,63.3437 122.503,63.8883 122.495,64.4329 122.487,64.9776 122.479,65.5222 122.47,66.0669 122.461,66.6115 122.451,67.1561 122.442,67.7008 122.432,68.2454 122.421,68.7901 122.411,69.3347 122.4,69.8793 122.389,70.424 122.377,70.9686 122.365,71.5132 122.353,72.0579 122.341,72.6025 122.328,73.1472 122.315,73.6918 122.302,74.2364 122.288,74.7811 122.274,75.3257 122.26,75.8704 122.246,76.415 122.231,76.9596 " />
</g>
<g><title>element</title>
<polyline fill="none" stroke="#7f7fff" points="918.349,33.8242 918.349,34.151 918.349,34.4778 918.349,34.8046 918.349,35.1313 918.349,35.4581 918.349,35.7849 918.349,36.1117 918.349,36.4385 918.349,36.7653 918.349,37.0921 918.349,37.4188 918.349,37.7456 918.349,38.0724 918.349,38.3992 918.349,38.726 918.349,39.0528 918.349,39.3795 918.349,39.7063 918.349,40.0331 918.349,40.3599 918.349,40.6867 918.349,41.0135 918.349,41.3402 918.349,41.667 918.349,41.9938 918.349,42.3206 918.349,42.6474 918.349,42.9742 918.349,43.3009 918.349,43.6277 918.349,43.9545 918.349,44.2813 918.349,44.6081 918.349,44.9349 918.349,45.2616 918.349,45.5884 918.349,45.9152 918.349,46.242 918.349,46.5688 918.349,46.8956 918.349,47.2223 918.349,47.5491 918.349,47.8759 918.349,48.2027 918.349,48.5295 918.349,48.8563 918.349,49.183 918.349,49.5098 918.349,49.8366 918.349,50.1634 918.349,50.4902 918.349,50.817 918.349,51.1437 918.349,51.4705 918.349,51.7973 918.349,52.1241 918.349,52.4509 918.349,52.7777 918.349,53.1044 918.349,53.4312 918.349,53.758 918.349,54.0848 918.349,54.4116 918.349,54.7384 918.349,55.0651 918.349,55.3919 918.349,55.7187 918.349,56.0455 918.349,56.3723 918.349,56.6991 918.349,57.0258 918.349,57.3526 918.349,57.6794 918.349,58.0062 918.349,58.333 918.349,58.6598 918.349,58.9865 918.349,59.3133 918.349,59.6401 918.349,59.9669 918.349,60.2937 918.349,60.6205 918.349,60.9472 918.349,61.274 918.349,61.6008 918.349,61.9276 918.349,62.2544 918.349,62.5812 918.349,62.9079 918.349,63.2347 918.349,63.5615 918.349,63.8883 918.349,64.2151 918.349,64.5419 918.349,64.8687 918.349,65.1954 918.349,65.5222 918.349,65.849 918.349,66.1758 " />
</g>
<g><title>rays</title>
<g><title>ray</title>
<line x1="122.601" y1="50" x2="918.349" y2="50"  stroke="#009141" />
<line x1="115.832" y1="50" x2="122.601" y2="50"  stroke="#72a6f6" />
<line x1="114.099" y1="50" x2="115.832" y2="50"  stroke="#a0b60a" />
<line x1="105.651" y1="50" x2="114.099" y2="50"  stroke="#3ac288" />
<line x1="-163.946" y1="50" x2="105.651" y2="50"  stroke="#7300db" />
</g>
<g><title>ray</title>
<line x1="122.24" y1="23.396" x2="918.349" y2="50.0134"  stroke="#7dd0ca" />
<line x1="114.488" y1="23.3161" x2="122.24" y2="23.396"  stroke="#7f9879" />
<line x1="112.728" y1="23.1762" x2="114.488" y2="23.3161"  stroke="#e4c66c" />
<line x1="106.321" y1="23.0673" x2="112.728" y2="23.1762"  stroke="#dc62ea" />
<line x1="-163.946" y1="23.0673" x2="106.321" y2="23.0673"  stroke="#091659" />
</g>
<g><title>ray</title>
<line x1="122.24" y1="76.604" x2="918.349" y2="49.9866"  stroke="#5269f3" />
<line x1="114.488" y1="76.6839" x2="122.24" y2="76.604"  stroke="#9f9b2b" />
<line x1="112.728" y1="76.8238" x2="114.488" y2="76.6839"  stroke="#f0dbe0" />
<line x1="106.321" y1="76.9327" x2="112.728" y2="76.8238"  stroke="#ed9827" />
<line x1="-163.946" y1="76.9327" x2="106.321" y2="76.9327"  stroke="#2e7cad" />
</g>
<g><title>ray</title>
<line x1="122.371" y1="28.7228" x2="918.349" y2="50.0084"  stroke="#75020e" />
<line x1="114.974" y1="28.6617" x2="122.371" y2="28.7228"  stroke="#63c586" />
<line x1="113.223" y1="28.5509" x2="114.974" y2="28.6617"  stroke="#9de552" />
<line x1="106.079" y1="28.4539" x2="113.223" y2="28.5509"  stroke="#0d316e" />
<line x1="-163.946" y1="28.4539" x2="106.079" y2="28.4539"  stroke="#4d2cac" />
</g>
<g><title>ray</title>
<line x1="122.371" y1="71.2772" x2="918.349" y2="49.9916"  stroke="#3ce156" />
<line x1="114.974" y1="71.3383" x2="122.371" y2="71.2772"  stroke="#102433" />
<line x1="113.223" y1="71.4491" x2="114.974" y2="71.3383"  stroke="#68548d" />
<line x1="106.079" y1="71.5461" x2="113.223" y2="71.4491"  stroke="#902ca1" />
<line x1="-163.946" y1="71.5461" x2="106.079" y2="71.5461"  stroke="#514feb" />
</g>
<g><title>ray</title>
<line x1="122.472" y1="34.0456" x2="918.349" y2="50.005"  stroke="#ccf85e" />
<line x1="115.35" y1="34.0015" x2="122.472" y2="34.0456"  stroke="#04f142" />
<line x1="113.607" y1="33.919" x2="115.35" y2="34.0015"  stroke="#9cc490" />
<line x1="105.892" y1="33.8404" x2="113.607" y2="33.919"  stroke="#2240c9" />
<line x1="-163.946" y1="33.8404" x2="105.892" y2="33.8404"  stroke="#ae56b5" />
</g>
<g><title>ray</title>
<line x1="122.472" y1="65.9544" x2="918.349" y2="49.995"  stroke="#8de7a8" />
<line x1="115.35" y1="65.9985" x2="122.472" y2="65.9544"  stroke="#69505b" />
<line x1="113.607" y1="66.081" x2="115.35" y2="65.9985"  stroke="#a50737" />
<line x1="105.892" y1="66.1596" x2="113.607" y2="66.081"  stroke="#90405a" />
<line x1="-163.946" y1="66.1596" x2="105.892" y2="66.1596"  stroke="#bad9b4" />
</g>
<g><title>ray</title>
<line x1="122.544" y1="39.3654" x2="918.349" y2="50.0027"  stroke="#c919de" />
<line x1="115.618" y1="39.3368" x2="122.544" y2="39.3654"  stroke="#598c4d" />
<line x1="113.881" y1="39.2821" x2="115.618" y2="39.3368"  stroke="#58a800" />
<line x1="105.758" y1="39.2269" x2="113.881" y2="39.2821"  stroke="#d36325" />
<line x1="-163.946" y1="39.2269" x2="105.758" y2="39.2269"  stroke="#503fe9" />
</g>
<g><title>ray</title>
<line x1="122.544" y1="60.6346" x2="918.349" y2="49.9973"  stroke="#bb4a5d" />
<line x1="115.618" y1="60.6632" x2="122.544" y2="60.6346"  stroke="#8f85a4" />
<line x1="113.881" y1="60.7179" x2="115.618" y2="60.6632"  stroke="#a9a016" />
<line x1="105.758" y1="60.7731" x2="113.881" y2="60.7179"  stroke="#66ca5d" />
<line x1="-163.946" y1="60.7731" x2="105.758" y2="60.7731"  stroke="#c63294" />
</g>
<g><title>ray</title>
<line x1="122.587" y1="44.6832" x2="918.349" y2="50.0012"  stroke="#4a0053" />
<line x1="115.779" y1="44.6691" x2="122.587" y2="44.6832"  stroke="#e85c06" />
<line x1="114.044" y1="44.6419" x2="115.779" y2="44.6691"  stroke="#646b6b" />
<line x1="105.678" y1="44.6135" x2="114.044" y2="44.6419"  stroke="#f86942" />
<line x1="-163.946" y1="44.6135" x2="105.678" y2="44.6135"  stroke="#83932c" />
</g>
<g><title>ray</title>
<line x1="122.587" y1="55.3168" x2="918.349" y2="49.9988"  stroke="#470553" />
<line x1="115.779" y1="55.3309" x2="122.587" y2="55.3168"  stroke="#44ab81" />
<line x1="114.044" y1="55.3581" x2="115.779" y2="55.3309"  stroke="#54d6c6" />
<line x1="105.678" y1="55.3865" x2="114.044" y2="55.3581"  stroke="#be875b" />
<line x1="-163.946" y1="55.3865" x2="105.678" y2="55.3865"  stroke="#e8ad53" />
</g>
</g>
</svg>
