<?xml version="1.0" standalone="no"?>
<svg width="640px" height="480px" version="1.1" xmlns="http://www.w3.org/2000/svg" xmlns:xlink="http://www.w3.org/1999/xlink">
<rect x="0" y="0" width="640" height="480"  fill="#ffffff" />
<defs>
<g id="dot">
<line x1="1" y1="1" x2="0" y2="0"  />
</g>
<g id="cross">
<line x1="-3" y1="0" x2="3" y2="0"  />
<line x1="0" y1="-3" x2="0" y2="3"  />
</g>
<g id="square">
<line x1="-3" y1="-3" x2="-3" y2="3"  />
<line x1="-3" y1="3" x2="3" y2="3"  />
<line x1="3" y1="3" x2="3" y2="-3"  />
<line x1="3" y1="-3" x2="-3" y2="-3"  />
</g>
<g id="round">
<ellipse cx="0" cy="0" rx="3" ry="3"  fill="none" /></g>
<g id="triangle">
<line x1="0" y1="-3" x2="-3" y2="3"  />
<line x1="-3" y1="3" x2="3" y2="3"  />
<line x1="0" y1="-3" x2="3" y2="3"  />
</g>
</defs>
<polygon fill="none" stroke="#000000" points="66.0317,430.476 66.0317,49.5238 573.968,49.5238 573.968,430.476 " />
<text style="font-size:12;text-align:center;text-anchor:middle;" x="320" y="473.619" fill="#000000">Entrance ray height (normalized)</text>
<line x1="66.0317" y1="305.693" x2="573.968" y2="305.693"  stroke="#000000" />
<use x="66.0317" y="305.693" xlink:href="#cross"  stroke="#000000" />
<use x="66.0317" y="49.5238" xlink:href="#cross"  stroke="#000000" />
<use x="66.0317" y="430.476" xlink:href="#cross"  stroke="#000000" />
<text style="font-size:12;text-align:center;text-anchor:middle;" x="66.0317" y="448.476" fill="#000000">-1</text>
<use x="320" y="305.693" xlink:href="#cross"  stroke="#000000" />
<use x="320" y="49.5238" xlink:href="#cross"  stroke="#000000" />
<use x="320" y="430.476" xlink:href="#cross"  stroke="#000000" />
<text style="font-size:12;text-align:center;text-anchor:middle;" x="320" y="448.476" fill="#000000">0</text>
<use x="573.968" y="305.693" xlink:href="#cross"  stroke="#000000" />
<use x="573.968" y="49.5238" xlink:href="#cross"  stroke="#000000" />
<use x="573.968" y="430.476" xlink:href="#cross"  stroke="#000000" />
<text style="font-size:12;text-align:center;text-anchor:middle;" x="573.968" y="448.476" fill="#000000">1</text>
<text style="font-size:12;text-align:center;text-anchor:middle;" x="16.5079" y="246" transform="rotate(-90,16.5079,240)" fill="#000000">Longitudinal ray aberration (um)</text>
<line x1="320" y1="430.476" x2="320" y2="49.5238"  stroke="#000000" />
<use x="320" y="375.26" xlink:href="#cross"  stroke="#000000" />
<use x="573.968" y="375.26" xlink:href="#cross"  stroke="#000000" />
<use x="66.0317" y="375.26" xlink:href="#cross"  stroke="#000000" />
<text style="font-size:12;text-align:right;text-anchor:end;" x="60.0317" y="381.26" fill="#000000">-200</text>
<use x="320" y="305.693" xlink:href="#cross"  stroke="#000000" />
<use x="573.968" y="305.693" xlink:href="#cross"  stroke="#000000" />
<use x="66.0317" y="305.693" xlink:href="#cross"  stroke="#000000" />
<text style="font-size:12;text-align:right;text-anchor:end;" x="60.0317" y="311.693" fill="#000000">0</text>
<use x="320" y="236.125" xlink:href="#cross"  stroke="#000000" />
<use x="573.968" y="236.125" xlink:href="#cross"  stroke="#000000" />
<use x="66.0317" y="236.125" xlink:href="#cross"  stroke="#000000" />
<text style="font-size:12;text-align:right;text-anchor:end;" x="60.0317" y="242.125" fill="#000000">200</text>
<use x="320" y="166.558" xlink:href="#cross"  stroke="#000000" />
<use x="573.968" y="166.558" xlink:href="#cross"  stroke="#000000" />
<use x="66.0317" y="166.558" xlink:href="#cross"  stroke="#000000" />
<text style="font-size:12;text-align:right;text-anchor:end;" x="60.0317" y="172.558" fill="#000000">400</text>
<use x="320" y="96.9903" xlink:href="#cross"  stroke="#000000" />
<use x="573.968" y="96.9903" xlink:href="#cross"  stroke="#000000" />
<use x="66.0317" y="96.9903" xlink:href="#cross"  stroke="#000000" />
<text style="font-size:12;text-align:right;text-anchor:end;" x="60.0317" y="102.99" fill="#000000">600</text>
<text style="font-size:18;text-align:center;text-anchor:middle;" x="320" y="33.7619" fill="#000000">Longitudinal ray aberration fan (tangential)</text>
<path fill="none"  stroke="#00ebff" d="M100.114,247.809 S111.39,317.442 117.029,340.8 S128.305,377.5 133.943,387.954 S145.219,401.872 150.857,403.525 S162.133,402.018 167.771,397.875 S179.048,386.371 184.686,378.666 S195.962,361.229 201.6,351.646 S212.876,331.351 218.514,321.166 S229.79,300.351 235.429,290.536 S246.705,270.983 252.343,262.271 S263.619,245.326 269.257,238.266 S280.533,224.926 286.171,219.911 S294.629,210.385 303.086,208.176 S328.457,205.169 336.914,206.655 S348.19,212.434 353.829,217.091 S365.105,227.705 370.743,234.597 S382.019,249.626 387.657,258.442 S398.933,277.21 404.571,287.495 S415.848,309.03 421.486,320.151 S432.762,343.118 438.4,354.223 S449.676,376.83 455.314,386.782 S466.59,406.649 472.229,413.931 S483.505,427.891 489.143,430.476 S500.419,434.297 506.057,429.439 S517.333,417.4 522.971,401.329 S534.248,365.58 539.886,333.014 S553.981,227.117 556.8,205.937 " />
<path fill="none"  stroke="#83ff00" d="M100.114,263.451 S111.39,323.8 117.029,343.129 S128.305,372.272 133.943,379.422 S145.219,387.114 150.857,386.032 S162.133,379.351 167.771,372.93 S179.048,357.108 184.686,347.502 S195.962,326.459 201.6,315.293 S212.876,291.996 218.514,280.502 S229.79,257.212 235.429,246.329 S246.705,224.766 252.343,215.204 S263.619,196.67 269.257,188.959 S280.533,174.419 286.171,168.94 S294.629,158.593 303.086,156.085 S328.457,152.445 336.914,153.892 S348.19,159.877 353.829,164.77 S365.105,175.94 370.743,183.249 S382.019,199.198 387.657,208.622 S398.933,228.697 404.571,239.796 S415.848,263.056 421.486,275.219 S432.762,300.372 438.4,312.774 S449.676,338.089 455.314,349.63 S466.59,372.805 472.229,382.022 S483.505,399.999 489.143,404.933 S500.419,413.624 506.057,411.628 S517.333,405.515 522.971,392.956 S534.248,364.476 539.886,336.272 S553.981,242.489 556.8,223.733 " />
<path fill="none"  stroke="#ff0000" d="M100.114,230.676 S111.39,281.404 117.029,296.547 S128.305,317.829 133.943,321.535 S145.219,322.726 150.857,318.783 S162.133,306.685 167.771,297.872 S179.048,277.516 184.686,265.91 S195.962,241.07 201.6,228.234 S212.876,201.77 218.514,188.894 S229.79,162.986 235.429,150.974 S246.705,127.284 252.343,116.823 S263.619,96.6075 269.257,88.2088 S280.533,72.3993 286.171,66.4308 S294.629,55.2158 303.086,52.398 S328.457,48.1082 336.914,49.5238 S348.19,55.7409 353.829,60.8918 S365.105,72.6688 370.743,80.4289 S382.019,97.3731 387.657,107.453 S398.933,128.934 404.571,140.907 S415.848,166.016 421.486,179.292 S432.762,206.782 438.4,220.566 S449.676,248.765 455.314,261.994 S466.59,288.681 472.229,299.945 S483.505,322.169 489.143,329.58 S500.419,343.402 506.057,344.411 S517.333,344.518 522.971,335.63 S534.248,314.747 539.886,291.084 S553.981,209.89 556.8,193.651 " />
</svg>
