<?xml version="1.0" standalone="no"?>
<svg width="640px" height="480px" version="1.1" xmlns="http://www.w3.org/2000/svg" xmlns:xlink="http://www.w3.org/1999/xlink">
<rect x="0" y="0" width="640" height="480"  fill="#ffffff" />
<defs>
<g id="dot">
<line x1="1" y1="1" x2="0" y2="0"  />
</g>
<g id="cross">
<line x1="-3" y1="0" x2="3" y2="0"  />
<line x1="0" y1="-3" x2="0" y2="3"  />
</g>
<g id="square">
<line x1="-3" y1="-3" x2="-3" y2="3"  />
<line x1="-3" y1="3" x2="3" y2="3"  />
<line x1="3" y1="3" x2="3" y2="-3"  />
<line x1="3" y1="-3" x2="-3" y2="-3"  />
</g>
<g id="round">
<ellipse cx="0" cy="0" rx="3" ry="3"  fill="none" /></g>
<g id="triangle">
<line x1="0" y1="-3" x2="-3" y2="3"  />
<line x1="-3" y1="3" x2="3" y2="3"  />
<line x1="0" y1="-3" x2="3" y2="3"  />
</g>
</defs>
<polygon fill="none" stroke="#000000" points="66.0317,430.476 66.0317,49.5238 573.968,49.5238 573.968,430.476 " />
<text style="font-size:12;text-align:center;text-anchor:middle;" x="320" y="473.619" fill="#000000">Distance from spot centroid (um)</text>
<use x="66.0317" y="49.5238" xlink:href="#cross"  stroke="#000000" />
<use x="66.0317" y="430.476" xlink:href="#cross"  stroke="#000000" />
<text style="font-size:12;text-align:center;text-anchor:middle;" x="66.0317" y="448.476" fill="#000000">0</text>
<use x="155.751" y="49.5238" xlink:href="#cross"  stroke="#000000" />
<use x="155.751" y="430.476" xlink:href="#cross"  stroke="#000000" />
<text style="font-size:12;text-align:center;text-anchor:middle;" x="155.751" y="448.476" fill="#000000">10</text>
<use x="245.471" y="49.5238" xlink:href="#cross"  stroke="#000000" />
<use x="245.471" y="430.476" xlink:href="#cross"  stroke="#000000" />
<text style="font-size:12;text-align:center;text-anchor:middle;" x="245.471" y="448.476" fill="#000000">20</text>
<use x="335.19" y="49.5238" xlink:href="#cross"  stroke="#000000" />
<use x="335.19" y="430.476" xlink:href="#cross"  stroke="#000000" />
<text style="font-size:12;text-align:center;text-anchor:middle;" x="335.19" y="448.476" fill="#000000">30</text>
<use x="424.909" y="49.5238" xlink:href="#cross"  stroke="#000000" />
<use x="424.909" y="430.476" xlink:href="#cross"  stroke="#000000" />
<text style="font-size:12;text-align:center;text-anchor:middle;" x="424.909" y="448.476" fill="#000000">40</text>
<use x="514.629" y="49.5238" xlink:href="#cross"  stroke="#000000" />
<use x="514.629" y="430.476" xlink:href="#cross"  stroke="#000000" />
<text style="font-size:12;text-align:center;text-anchor:middle;" x="514.629" y="448.476" fill="#000000">50</text>
<text style="font-size:12;text-align:center;text-anchor:middle;" x="16.5079" y="246" transform="rotate(-90,16.5079,240)" fill="#000000">Encircled intensity</text>
<use x="573.968" y="430.476" xlink:href="#cross"  stroke="#000000" />
<use x="66.0317" y="430.476" xlink:href="#cross"  stroke="#000000" />
<text style="font-size:12;text-align:right;text-anchor:end;" x="60.0317" y="436.476" fill="#000000">0</text>
<use x="573.968" y="382.497" xlink:href="#cross"  stroke="#000000" />
<use x="66.0317" y="382.497" xlink:href="#cross"  stroke="#000000" />
<text style="font-size:12;text-align:right;text-anchor:end;" x="60.0317" y="388.497" fill="#000000">50</text>
<use x="573.968" y="334.518" xlink:href="#cross"  stroke="#000000" />
<use x="66.0317" y="334.518" xlink:href="#cross"  stroke="#000000" />
<text style="font-size:12;text-align:right;text-anchor:end;" x="60.0317" y="340.518" fill="#000000">100</text>
<use x="573.968" y="286.54" xlink:href="#cross"  stroke="#000000" />
<use x="66.0317" y="286.54" xlink:href="#cross"  stroke="#000000" />
<text style="font-size:12;text-align:right;text-anchor:end;" x="60.0317" y="292.54" fill="#000000">150</text>
<use x="573.968" y="238.561" xlink:href="#cross"  stroke="#000000" />
<use x="66.0317" y="238.561" xlink:href="#cross"  stroke="#000000" />
<text style="font-size:12;text-align:right;text-anchor:end;" x="60.0317" y="244.561" fill="#000000">200</text>
<use x="573.968" y="190.582" xlink:href="#cross"  stroke="#000000" />
<use x="66.0317" y="190.582" xlink:href="#cross"  stroke="#000000" />
<text style="font-size:12;text-align:right;text-anchor:end;" x="60.0317" y="196.582" fill="#000000">250</text>
<use x="573.968" y="142.603" xlink:href="#cross"  stroke="#000000" />
<use x="66.0317" y="142.603" xlink:href="#cross"  stroke="#000000" />
<text style="font-size:12;text-align:right;text-anchor:end;" x="60.0317" y="148.603" fill="#000000">300</text>
<use x="573.968" y="94.624" xlink:href="#cross"  stroke="#000000" />
<use x="66.0317" y="94.624" xlink:href="#cross"  stroke="#000000" />
<text style="font-size:12;text-align:right;text-anchor:end;" x="60.0317" y="100.624" fill="#000000">350</text>
<text style="font-size:18;text-align:center;text-anchor:middle;" x="320" y="33.7619" fill="#000000">Spot diagram encircled rays intensity</text>
<line x1="66.0317" y1="430.476" x2="76.1905" y2="425.678"  stroke="#00ebff" />
<line x1="76.1905" y1="425.678" x2="86.3492" y2="416.083"  stroke="#00ebff" />
<line x1="86.3492" y1="416.083" x2="96.5079" y2="397.851"  stroke="#00ebff" />
<line x1="96.5079" y1="397.851" x2="106.667" y2="379.619"  stroke="#00ebff" />
<line x1="106.667" y1="379.619" x2="116.825" y2="364.265"  stroke="#00ebff" />
<line x1="116.825" y1="364.265" x2="126.984" y2="346.033"  stroke="#00ebff" />
<line x1="126.984" y1="346.033" x2="137.143" y2="330.68"  stroke="#00ebff" />
<line x1="137.143" y1="330.68" x2="147.302" y2="316.286"  stroke="#00ebff" />
<line x1="147.302" y1="316.286" x2="157.46" y2="310.529"  stroke="#00ebff" />
<line x1="157.46" y1="310.529" x2="167.619" y2="304.772"  stroke="#00ebff" />
<line x1="167.619" y1="304.772" x2="177.778" y2="297.095"  stroke="#00ebff" />
<line x1="177.778" y1="297.095" x2="187.937" y2="291.337"  stroke="#00ebff" />
<line x1="187.937" y1="291.337" x2="198.095" y2="281.742"  stroke="#00ebff" />
<line x1="198.095" y1="281.742" x2="208.254" y2="269.267"  stroke="#00ebff" />
<line x1="208.254" y1="269.267" x2="218.413" y2="263.51"  stroke="#00ebff" />
<line x1="218.413" y1="263.51" x2="228.571" y2="255.833"  stroke="#00ebff" />
<line x1="228.571" y1="255.833" x2="238.73" y2="251.035"  stroke="#00ebff" />
<line x1="238.73" y1="251.035" x2="248.889" y2="242.399"  stroke="#00ebff" />
<line x1="248.889" y1="242.399" x2="259.048" y2="236.641"  stroke="#00ebff" />
<line x1="259.048" y1="236.641" x2="269.206" y2="230.884"  stroke="#00ebff" />
<line x1="269.206" y1="230.884" x2="279.365" y2="210.733"  stroke="#00ebff" />
<line x1="279.365" y1="210.733" x2="289.524" y2="210.733"  stroke="#00ebff" />
<line x1="289.524" y1="210.733" x2="299.683" y2="195.38"  stroke="#00ebff" />
<line x1="299.683" y1="195.38" x2="309.841" y2="183.865"  stroke="#00ebff" />
<line x1="309.841" y1="183.865" x2="320" y2="178.107"  stroke="#00ebff" />
<line x1="320" y1="178.107" x2="330.159" y2="143.562"  stroke="#00ebff" />
<line x1="330.159" y1="143.562" x2="340.317" y2="112.856"  stroke="#00ebff" />
<line x1="340.317" y1="112.856" x2="350.476" y2="92.7048"  stroke="#00ebff" />
<line x1="350.476" y1="92.7048" x2="360.635" y2="90.7857"  stroke="#00ebff" />
<line x1="360.635" y1="90.7857" x2="370.794" y2="88.8665"  stroke="#00ebff" />
<line x1="370.794" y1="88.8665" x2="380.952" y2="86.9473"  stroke="#00ebff" />
<line x1="380.952" y1="86.9473" x2="391.111" y2="85.0282"  stroke="#00ebff" />
<line x1="391.111" y1="85.0282" x2="401.27" y2="85.0282"  stroke="#00ebff" />
<line x1="401.27" y1="85.0282" x2="411.429" y2="83.109"  stroke="#00ebff" />
<line x1="411.429" y1="83.109" x2="421.587" y2="81.1899"  stroke="#00ebff" />
<line x1="421.587" y1="81.1899" x2="431.746" y2="79.2707"  stroke="#00ebff" />
<line x1="431.746" y1="79.2707" x2="441.905" y2="77.3516"  stroke="#00ebff" />
<line x1="441.905" y1="77.3516" x2="452.063" y2="77.3516"  stroke="#00ebff" />
<line x1="452.063" y1="77.3516" x2="462.222" y2="75.4324"  stroke="#00ebff" />
<line x1="462.222" y1="75.4324" x2="472.381" y2="73.5133"  stroke="#00ebff" />
<line x1="472.381" y1="73.5133" x2="482.54" y2="71.5941"  stroke="#00ebff" />
<line x1="482.54" y1="71.5941" x2="492.698" y2="69.6749"  stroke="#00ebff" />
<line x1="492.698" y1="69.6749" x2="502.857" y2="67.7558"  stroke="#00ebff" />
<line x1="502.857" y1="67.7558" x2="513.016" y2="65.8366"  stroke="#00ebff" />
<line x1="513.016" y1="65.8366" x2="523.175" y2="63.9175"  stroke="#00ebff" />
<line x1="523.175" y1="63.9175" x2="533.333" y2="61.9983"  stroke="#00ebff" />
<line x1="533.333" y1="61.9983" x2="543.492" y2="60.0792"  stroke="#00ebff" />
<line x1="543.492" y1="60.0792" x2="553.651" y2="56.2409"  stroke="#00ebff" />
<line x1="553.651" y1="56.2409" x2="563.81" y2="50.4834"  stroke="#00ebff" />
<line x1="563.81" y1="50.4834" x2="573.968" y2="49.5238"  stroke="#00ebff" />
<line x1="66.0317" y1="430.476" x2="76.1905" y2="427.597"  stroke="#83ff00" />
<line x1="76.1905" y1="427.597" x2="86.3492" y2="419.921"  stroke="#83ff00" />
<line x1="86.3492" y1="419.921" x2="96.5079" y2="409.365"  stroke="#83ff00" />
<line x1="96.5079" y1="409.365" x2="106.667" y2="395.931"  stroke="#83ff00" />
<line x1="106.667" y1="395.931" x2="116.825" y2="375.78"  stroke="#83ff00" />
<line x1="116.825" y1="375.78" x2="126.984" y2="350.831"  stroke="#83ff00" />
<line x1="126.984" y1="350.831" x2="137.143" y2="328.761"  stroke="#83ff00" />
<line x1="137.143" y1="328.761" x2="147.302" y2="314.367"  stroke="#83ff00" />
<line x1="147.302" y1="314.367" x2="157.46" y2="304.772"  stroke="#83ff00" />
<line x1="157.46" y1="304.772" x2="167.619" y2="293.257"  stroke="#83ff00" />
<line x1="167.619" y1="293.257" x2="177.778" y2="281.742"  stroke="#83ff00" />
<line x1="177.778" y1="281.742" x2="187.937" y2="268.308"  stroke="#83ff00" />
<line x1="187.937" y1="268.308" x2="198.095" y2="258.712"  stroke="#83ff00" />
<line x1="198.095" y1="258.712" x2="208.254" y2="249.116"  stroke="#83ff00" />
<line x1="208.254" y1="249.116" x2="218.413" y2="223.207"  stroke="#83ff00" />
<line x1="218.413" y1="223.207" x2="228.571" y2="210.733"  stroke="#83ff00" />
<line x1="228.571" y1="210.733" x2="238.73" y2="210.733"  stroke="#83ff00" />
<line x1="238.73" y1="210.733" x2="248.889" y2="205.935"  stroke="#83ff00" />
<line x1="248.889" y1="205.935" x2="259.048" y2="200.178"  stroke="#83ff00" />
<line x1="259.048" y1="200.178" x2="269.206" y2="195.38"  stroke="#83ff00" />
<line x1="269.206" y1="195.38" x2="279.365" y2="160.835"  stroke="#83ff00" />
<line x1="279.365" y1="160.835" x2="289.524" y2="128.209"  stroke="#83ff00" />
<line x1="289.524" y1="128.209" x2="299.683" y2="116.694"  stroke="#83ff00" />
<line x1="299.683" y1="116.694" x2="309.841" y2="105.179"  stroke="#83ff00" />
<line x1="309.841" y1="105.179" x2="320" y2="86.9473"  stroke="#83ff00" />
<line x1="320" y1="86.9473" x2="330.159" y2="85.0282"  stroke="#83ff00" />
<line x1="330.159" y1="85.0282" x2="340.317" y2="83.109"  stroke="#83ff00" />
<line x1="340.317" y1="83.109" x2="350.476" y2="81.1899"  stroke="#83ff00" />
<line x1="350.476" y1="81.1899" x2="360.635" y2="81.1899"  stroke="#83ff00" />
<line x1="360.635" y1="81.1899" x2="370.794" y2="79.2707"  stroke="#83ff00" />
<line x1="370.794" y1="79.2707" x2="380.952" y2="77.3516"  stroke="#83ff00" />
<line x1="380.952" y1="77.3516" x2="391.111" y2="75.4324"  stroke="#83ff00" />
<line x1="391.111" y1="75.4324" x2="401.27" y2="73.5133"  stroke="#83ff00" />
<line x1="401.27" y1="73.5133" x2="411.429" y2="71.5941"  stroke="#83ff00" />
<line x1="411.429" y1="71.5941" x2="421.587" y2="69.6749"  stroke="#83ff00" />
<line x1="421.587" y1="69.6749" x2="431.746" y2="67.7558"  stroke="#83ff00" />
<line x1="431.746" y1="67.7558" x2="441.905" y2="65.8366"  stroke="#83ff00" />
<line x1="441.905" y1="65.8366" x2="452.063" y2="63.9175"  stroke="#83ff00" />
<line x1="452.063" y1="63.9175" x2="462.222" y2="60.0792"  stroke="#83ff00" />
<line x1="462.222" y1="60.0792" x2="472.381" y2="58.16"  stroke="#83ff00" />
<line x1="472.381" y1="58.16" x2="482.54" y2="52.4025"  stroke="#83ff00" />
<line x1="482.54" y1="52.4025" x2="492.698" y2="49.5238"  stroke="#83ff00" />
<line x1="492.698" y1="49.5238" x2="502.857" y2="49.5238"  stroke="#83ff00" />
<line x1="502.857" y1="49.5238" x2="513.016" y2="49.5238"  stroke="#83ff00" />
<line x1="513.016" y1="49.5238" x2="523.175" y2="49.5238"  stroke="#83ff00" />
<line x1="523.175" y1="49.5238" x2="533.333" y2="49.5238"  stroke="#83ff00" />
<line x1="533.333" y1="49.5238" x2="543.492" y2="49.5238"  stroke="#83ff00" />
<line x1="543.492" y1="49.5238" x2="553.651" y2="49.5238"  stroke="#83ff00" />
<line x1="553.651" y1="49.5238" x2="563.81" y2="49.5238"  stroke="#83ff00" />
<line x1="563.81" y1="49.5238" x2="573.968" y2="49.5238"  stroke="#83ff00" />
<line x1="66.0317" y1="430.476" x2="76.1905" y2="430.476"  stroke="#ff0000" />
<line x1="76.1905" y1="430.476" x2="86.3492" y2="399.77"  stroke="#ff0000" />
<line x1="86.3492" y1="399.77" x2="96.5079" y2="379.619"  stroke="#ff0000" />
<line x1="96.5079" y1="379.619" x2="106.667" y2="363.306"  stroke="#ff0000" />
<line x1="106.667" y1="363.306" x2="116.825" y2="322.044"  stroke="#ff0000" />
<line x1="116.825" y1="322.044" x2="126.984" y2="286.54"  stroke="#ff0000" />
<line x1="126.984" y1="286.54" x2="137.143" y2="275.025"  stroke="#ff0000" />
<line x1="137.143" y1="275.025" x2="147.302" y2="261.591"  stroke="#ff0000" />
<line x1="147.302" y1="261.591" x2="157.46" y2="217.45"  stroke="#ff0000" />
<line x1="157.46" y1="217.45" x2="167.619" y2="211.692"  stroke="#ff0000" />
<line x1="167.619" y1="211.692" x2="177.778" y2="205.935"  stroke="#ff0000" />
<line x1="177.778" y1="205.935" x2="187.937" y2="199.218"  stroke="#ff0000" />
<line x1="187.937" y1="199.218" x2="198.095" y2="188.663"  stroke="#ff0000" />
<line x1="198.095" y1="188.663" x2="208.254" y2="180.026"  stroke="#ff0000" />
<line x1="208.254" y1="180.026" x2="218.413" y2="169.471"  stroke="#ff0000" />
<line x1="218.413" y1="169.471" x2="228.571" y2="156.037"  stroke="#ff0000" />
<line x1="228.571" y1="156.037" x2="238.73" y2="144.522"  stroke="#ff0000" />
<line x1="238.73" y1="144.522" x2="248.889" y2="131.088"  stroke="#ff0000" />
<line x1="248.889" y1="131.088" x2="259.048" y2="124.371"  stroke="#ff0000" />
<line x1="259.048" y1="124.371" x2="269.206" y2="117.654"  stroke="#ff0000" />
<line x1="269.206" y1="117.654" x2="279.365" y2="112.856"  stroke="#ff0000" />
<line x1="279.365" y1="112.856" x2="289.524" y2="112.856"  stroke="#ff0000" />
<line x1="289.524" y1="112.856" x2="299.683" y2="112.856"  stroke="#ff0000" />
<line x1="299.683" y1="112.856" x2="309.841" y2="112.856"  stroke="#ff0000" />
<line x1="309.841" y1="112.856" x2="320" y2="112.856"  stroke="#ff0000" />
<line x1="320" y1="112.856" x2="330.159" y2="112.856"  stroke="#ff0000" />
<line x1="330.159" y1="112.856" x2="340.317" y2="112.856"  stroke="#ff0000" />
<line x1="340.317" y1="112.856" x2="350.476" y2="106.139"  stroke="#ff0000" />
<line x1="350.476" y1="106.139" x2="360.635" y2="100.381"  stroke="#ff0000" />
<line x1="360.635" y1="100.381" x2="370.794" y2="96.5431"  stroke="#ff0000" />
<line x1="370.794" y1="96.5431" x2="380.952" y2="94.624"  stroke="#ff0000" />
<line x1="380.952" y1="94.624" x2="391.111" y2="92.7048"  stroke="#ff0000" />
<line x1="391.111" y1="92.7048" x2="401.27" y2="88.8665"  stroke="#ff0000" />
<line x1="401.27" y1="88.8665" x2="411.429" y2="86.9473"  stroke="#ff0000" />
<line x1="411.429" y1="86.9473" x2="421.587" y2="85.0282"  stroke="#ff0000" />
<line x1="421.587" y1="85.0282" x2="431.746" y2="83.109"  stroke="#ff0000" />
<line x1="431.746" y1="83.109" x2="441.905" y2="81.1899"  stroke="#ff0000" />
<line x1="441.905" y1="81.1899" x2="452.063" y2="79.2707"  stroke="#ff0000" />
<line x1="452.063" y1="79.2707" x2="462.222" y2="77.3516"  stroke="#ff0000" />
<line x1="462.222" y1="77.3516" x2="472.381" y2="75.4324"  stroke="#ff0000" />
<line x1="472.381" y1="75.4324" x2="482.54" y2="73.5133"  stroke="#ff0000" />
<line x1="482.54" y1="73.5133" x2="492.698" y2="71.5941"  stroke="#ff0000" />
<line x1="492.698" y1="71.5941" x2="502.857" y2="69.6749"  stroke="#ff0000" />
<line x1="502.857" y1="69.6749" x2="513.016" y2="67.7558"  stroke="#ff0000" />
<line x1="513.016" y1="67.7558" x2="523.175" y2="65.8366"  stroke="#ff0000" />
<line x1="523.175" y1="65.8366" x2="533.333" y2="61.9983"  stroke="#ff0000" />
<line x1="533.333" y1="61.9983" x2="543.492" y2="60.0792"  stroke="#ff0000" />
<line x1="543.492" y1="60.0792" x2="553.651" y2="54.3217"  stroke="#ff0000" />
<line x1="553.651" y1="54.3217" x2="563.81" y2="49.5238"  stroke="#ff0000" />
<line x1="563.81" y1="49.5238" x2="573.968" y2="49.5238"  stroke="#ff0000" />
</svg>
