<?xml version="1.0" standalone="no"?>
<svg width="640px" height="480px" version="1.1" xmlns="http://www.w3.org/2000/svg" xmlns:xlink="http://www.w3.org/1999/xlink">
<rect x="0" y="0" width="640" height="480"  fill="#ffffff" />
<defs>
<g id="dot">
<line x1="1" y1="1" x2="0" y2="0"  />
</g>
<g id="cross">
<line x1="-3" y1="0" x2="3" y2="0"  />
<line x1="0" y1="-3" x2="0" y2="3"  />
</g>
<g id="square">
<line x1="-3" y1="-3" x2="-3" y2="3"  />
<line x1="-3" y1="3" x2="3" y2="3"  />
<line x1="3" y1="3" x2="3" y2="-3"  />
<line x1="3" y1="-3" x2="-3" y2="-3"  />
</g>
<g id="round">
<ellipse cx="0" cy="0" rx="3" ry="3"  fill="none" /></g>
<g id="triangle">
<line x1="0" y1="-3" x2="-3" y2="3"  />
<line x1="-3" y1="3" x2="3" y2="3"  />
<line x1="0" y1="-3" x2="3" y2="3"  />
</g>
</defs>
<polygon fill="none" stroke="#000000" points="66.0317,430.476 66.0317,49.5238 573.968,49.5238 573.968,430.476 " />
<text style="font-size:12;text-align:center;text-anchor:middle;" x="320" y="473.619" fill="#000000">Entrance ray height (normalized)</text>
<line x1="66.0317" y1="184.238" x2="573.968" y2="184.238"  stroke="#000000" />
<use x="66.0317" y="184.238" xlink:href="#cross"  stroke="#000000" />
<use x="66.0317" y="49.5238" xlink:href="#cross"  stroke="#000000" />
<use x="66.0317" y="430.476" xlink:href="#cross"  stroke="#000000" />
<text style="font-size:12;text-align:center;text-anchor:middle;" x="66.0317" y="448.476" fill="#000000">-1</text>
<use x="320" y="184.238" xlink:href="#cross"  stroke="#000000" />
<use x="320" y="49.5238" xlink:href="#cross"  stroke="#000000" />
<use x="320" y="430.476" xlink:href="#cross"  stroke="#000000" />
<text style="font-size:12;text-align:center;text-anchor:middle;" x="320" y="448.476" fill="#000000">0</text>
<use x="573.968" y="184.238" xlink:href="#cross"  stroke="#000000" />
<use x="573.968" y="49.5238" xlink:href="#cross"  stroke="#000000" />
<use x="573.968" y="430.476" xlink:href="#cross"  stroke="#000000" />
<text style="font-size:12;text-align:center;text-anchor:middle;" x="573.968" y="448.476" fill="#000000">1</text>
<text style="font-size:12;text-align:center;text-anchor:middle;" x="16.5079" y="246" transform="rotate(-90,16.5079,240)" fill="#000000">Optical path difference (waves)</text>
<line x1="320" y1="430.476" x2="320" y2="49.5238"  stroke="#000000" />
<use x="320" y="429.868" xlink:href="#cross"  stroke="#000000" />
<use x="573.968" y="429.868" xlink:href="#cross"  stroke="#000000" />
<use x="66.0317" y="429.868" xlink:href="#cross"  stroke="#000000" />
<text style="font-size:12;text-align:right;text-anchor:end;" x="60.0317" y="435.868" fill="#000000">-14</text>
<use x="320" y="394.778" xlink:href="#cross"  stroke="#000000" />
<use x="573.968" y="394.778" xlink:href="#cross"  stroke="#000000" />
<use x="66.0317" y="394.778" xlink:href="#cross"  stroke="#000000" />
<text style="font-size:12;text-align:right;text-anchor:end;" x="60.0317" y="400.778" fill="#000000">-12</text>
<use x="320" y="359.688" xlink:href="#cross"  stroke="#000000" />
<use x="573.968" y="359.688" xlink:href="#cross"  stroke="#000000" />
<use x="66.0317" y="359.688" xlink:href="#cross"  stroke="#000000" />
<text style="font-size:12;text-align:right;text-anchor:end;" x="60.0317" y="365.688" fill="#000000">-10</text>
<use x="320" y="324.598" xlink:href="#cross"  stroke="#000000" />
<use x="573.968" y="324.598" xlink:href="#cross"  stroke="#000000" />
<use x="66.0317" y="324.598" xlink:href="#cross"  stroke="#000000" />
<text style="font-size:12;text-align:right;text-anchor:end;" x="60.0317" y="330.598" fill="#000000">-8</text>
<use x="320" y="289.508" xlink:href="#cross"  stroke="#000000" />
<use x="573.968" y="289.508" xlink:href="#cross"  stroke="#000000" />
<use x="66.0317" y="289.508" xlink:href="#cross"  stroke="#000000" />
<text style="font-size:12;text-align:right;text-anchor:end;" x="60.0317" y="295.508" fill="#000000">-6</text>
<use x="320" y="254.418" xlink:href="#cross"  stroke="#000000" />
<use x="573.968" y="254.418" xlink:href="#cross"  stroke="#000000" />
<use x="66.0317" y="254.418" xlink:href="#cross"  stroke="#000000" />
<text style="font-size:12;text-align:right;text-anchor:end;" x="60.0317" y="260.418" fill="#000000">-4</text>
<use x="320" y="219.328" xlink:href="#cross"  stroke="#000000" />
<use x="573.968" y="219.328" xlink:href="#cross"  stroke="#000000" />
<use x="66.0317" y="219.328" xlink:href="#cross"  stroke="#000000" />
<text style="font-size:12;text-align:right;text-anchor:end;" x="60.0317" y="225.328" fill="#000000">-2</text>
<use x="320" y="184.238" xlink:href="#cross"  stroke="#000000" />
<use x="573.968" y="184.238" xlink:href="#cross"  stroke="#000000" />
<use x="66.0317" y="184.238" xlink:href="#cross"  stroke="#000000" />
<text style="font-size:12;text-align:right;text-anchor:end;" x="60.0317" y="190.238" fill="#000000">0</text>
<use x="320" y="149.148" xlink:href="#cross"  stroke="#000000" />
<use x="573.968" y="149.148" xlink:href="#cross"  stroke="#000000" />
<use x="66.0317" y="149.148" xlink:href="#cross"  stroke="#000000" />
<text style="font-size:12;text-align:right;text-anchor:end;" x="60.0317" y="155.148" fill="#000000">2</text>
<use x="320" y="114.058" xlink:href="#cross"  stroke="#000000" />
<use x="573.968" y="114.058" xlink:href="#cross"  stroke="#000000" />
<use x="66.0317" y="114.058" xlink:href="#cross"  stroke="#000000" />
<text style="font-size:12;text-align:right;text-anchor:end;" x="60.0317" y="120.058" fill="#000000">4</text>
<use x="320" y="78.968" xlink:href="#cross"  stroke="#000000" />
<use x="573.968" y="78.968" xlink:href="#cross"  stroke="#000000" />
<use x="66.0317" y="78.968" xlink:href="#cross"  stroke="#000000" />
<text style="font-size:12;text-align:right;text-anchor:end;" x="60.0317" y="84.968" fill="#000000">6</text>
<text style="font-size:18;text-align:center;text-anchor:middle;" x="320" y="33.7619" fill="#000000">Optical path difference fan (tangential)</text>
<path fill="none"  stroke="#00ebff" d="M100.114,277.276 S111.39,200.807 117.029,178.074 S128.305,147.95 133.943,140.878 S145.219,135.066 150.857,135.64 S162.133,140.805 167.771,144.323 S179.048,152.838 184.686,156.752 S195.962,164.678 201.6,167.805 S212.876,173.52 218.514,175.514 S229.79,178.782 235.429,179.765 S246.705,181.096 252.343,181.416 S263.619,181.629 269.257,181.684 S280.533,181.616 286.171,181.747 S297.448,182.055 303.086,182.47 S314.362,183.504 320,184.238 S331.276,185.977 336.914,186.873 S348.19,188.899 353.829,189.617 S365.105,191.138 370.743,191.179 S382.019,191.097 387.657,189.865 S398.933,186.897 404.571,183.788 S415.848,176.668 421.486,171.213 S432.762,158.986 438.4,151.06 S449.676,133.525 455.314,123.656 S466.59,102.019 472.229,91.8456 S483.505,69.6712 489.143,62.6175 S500.419,47.246 506.057,49.5238 S517.333,54.1693 522.971,76.2844 S534.248,123.183 539.886,182.215 S553.981,389.099 556.8,430.476 " />
<path fill="none"  stroke="#83ff00" d="M100.114,237.119 S111.39,178.58 117.029,161.907 S128.305,141.179 133.943,137.085 S145.219,135.578 150.857,137.348 S162.133,143.949 167.771,147.705 S179.048,156.183 184.686,159.882 S195.962,167.142 201.6,169.901 S212.876,174.804 218.514,176.439 S229.79,178.998 235.429,179.709 S246.705,180.542 252.343,180.702 S263.619,180.657 269.257,180.667 S280.533,180.57 286.171,180.764 S297.448,181.249 303.086,181.828 S314.362,183.237 320,184.238 S331.276,186.555 336.914,187.832 S348.19,190.668 353.829,191.901 S365.105,194.511 370.743,195.226 S382.019,196.568 387.657,196.189 S398.933,195.025 404.571,192.952 S415.848,188.022 421.486,183.75 S432.762,174.022 438.4,167.323 S449.676,152.373 455.314,143.56 S466.59,124.128 472.229,114.448 S483.505,93.2642 489.143,85.4751 S500.419,68.4715 506.057,67.7128 S517.333,65.8339 522.971,80.9228 S534.248,112.843 539.886,158.246 S553.981,320.825 556.8,353.341 " />
<path fill="none"  stroke="#ff0000" d="M100.114,217.774 S111.39,175.404 117.029,163.7 S128.305,149.897 133.943,147.545 S145.219,147.791 150.857,149.586 S162.133,155.32 167.771,158.314 S179.048,164.853 184.686,167.551 S195.962,172.686 201.6,174.5 S212.876,177.551 218.514,178.435 S229.79,179.607 235.429,179.807 S246.705,179.754 252.343,179.636 S263.619,179.163 269.257,179.099 S280.533,178.961 286.171,179.253 S297.448,180.022 303.086,180.853 S314.362,182.835 320,184.238 S331.276,187.423 336.914,189.274 S348.19,193.326 353.829,195.342 S365.105,199.609 370.743,201.373 S382.019,204.933 387.657,205.929 S398.933,207.674 404.571,207.349 S415.848,206.118 421.486,203.98 S432.762,198.762 438.4,194.52 S449.676,184.751 455.314,178.53 S466.59,164.542 472.229,157.191 S483.505,140.863 489.143,134.425 S500.419,120.161 506.057,118.56 S517.333,114.733 522.971,124.822 S534.248,145.956 539.886,179.097 S553.981,299.575 556.8,323.671 " />
</svg>
