<?xml version="1.0" standalone="no"?>
<svg width="640px" height="480px" version="1.1" xmlns="http://www.w3.org/2000/svg" xmlns:xlink="http://www.w3.org/1999/xlink">
<rect x="0" y="0" width="640" height="480"  fill="#ffffff" />
<defs>
<g id="dot">
<line x1="1" y1="1" x2="0" y2="0"  />
</g>
<g id="cross">
<line x1="-3" y1="0" x2="3" y2="0"  />
<line x1="0" y1="-3" x2="0" y2="3"  />
</g>
<g id="square">
<line x1="-3" y1="-3" x2="-3" y2="3"  />
<line x1="-3" y1="3" x2="3" y2="3"  />
<line x1="3" y1="3" x2="3" y2="-3"  />
<line x1="3" y1="-3" x2="-3" y2="-3"  />
</g>
<g id="round">
<ellipse cx="0" cy="0" rx="3" ry="3"  fill="none" /></g>
<g id="triangle">
<line x1="0" y1="-3" x2="-3" y2="3"  />
<line x1="-3" y1="3" x2="3" y2="3"  />
<line x1="0" y1="-3" x2="3" y2="3"  />
</g>
</defs>
<polygon fill="none" stroke="#000000" points="66.0317,430.476 66.0317,49.5238 573.968,49.5238 573.968,430.476 " />
<text style="font-size:12;text-align:center;text-anchor:middle;" x="320" y="473.619" fill="#000000">Distance from spot centroid (um)</text>
<use x="66.0317" y="49.5238" xlink:href="#cross"  stroke="#000000" />
<use x="66.0317" y="430.476" xlink:href="#cross"  stroke="#000000" />
<text style="font-size:12;text-align:center;text-anchor:middle;" x="66.0317" y="448.476" fill="#000000">0</text>
<use x="135.371" y="49.5238" xlink:href="#cross"  stroke="#000000" />
<use x="135.371" y="430.476" xlink:href="#cross"  stroke="#000000" />
<text style="font-size:12;text-align:center;text-anchor:middle;" x="135.371" y="448.476" fill="#000000">5</text>
<use x="204.71" y="49.5238" xlink:href="#cross"  stroke="#000000" />
<use x="204.71" y="430.476" xlink:href="#cross"  stroke="#000000" />
<text style="font-size:12;text-align:center;text-anchor:middle;" x="204.71" y="448.476" fill="#000000">10</text>
<use x="274.049" y="49.5238" xlink:href="#cross"  stroke="#000000" />
<use x="274.049" y="430.476" xlink:href="#cross"  stroke="#000000" />
<text style="font-size:12;text-align:center;text-anchor:middle;" x="274.049" y="448.476" fill="#000000">15</text>
<use x="343.388" y="49.5238" xlink:href="#cross"  stroke="#000000" />
<use x="343.388" y="430.476" xlink:href="#cross"  stroke="#000000" />
<text style="font-size:12;text-align:center;text-anchor:middle;" x="343.388" y="448.476" fill="#000000">20</text>
<use x="412.727" y="49.5238" xlink:href="#cross"  stroke="#000000" />
<use x="412.727" y="430.476" xlink:href="#cross"  stroke="#000000" />
<text style="font-size:12;text-align:center;text-anchor:middle;" x="412.727" y="448.476" fill="#000000">25</text>
<use x="482.066" y="49.5238" xlink:href="#cross"  stroke="#000000" />
<use x="482.066" y="430.476" xlink:href="#cross"  stroke="#000000" />
<text style="font-size:12;text-align:center;text-anchor:middle;" x="482.066" y="448.476" fill="#000000">30</text>
<use x="551.405" y="49.5238" xlink:href="#cross"  stroke="#000000" />
<use x="551.405" y="430.476" xlink:href="#cross"  stroke="#000000" />
<text style="font-size:12;text-align:center;text-anchor:middle;" x="551.405" y="448.476" fill="#000000">35</text>
<text style="font-size:12;text-align:center;text-anchor:middle;" x="16.5079" y="246" transform="rotate(-90,16.5079,240)" fill="#000000">Encircled intensity</text>
<use x="573.968" y="430.476" xlink:href="#cross"  stroke="#000000" />
<use x="66.0317" y="430.476" xlink:href="#cross"  stroke="#000000" />
<text style="font-size:12;text-align:right;text-anchor:end;" x="60.0317" y="436.476" fill="#000000">0</text>
<use x="573.968" y="366.451" xlink:href="#cross"  stroke="#000000" />
<use x="66.0317" y="366.451" xlink:href="#cross"  stroke="#000000" />
<text style="font-size:12;text-align:right;text-anchor:end;" x="60.0317" y="372.451" fill="#000000">20</text>
<use x="573.968" y="302.425" xlink:href="#cross"  stroke="#000000" />
<use x="66.0317" y="302.425" xlink:href="#cross"  stroke="#000000" />
<text style="font-size:12;text-align:right;text-anchor:end;" x="60.0317" y="308.425" fill="#000000">40</text>
<use x="573.968" y="238.399" xlink:href="#cross"  stroke="#000000" />
<use x="66.0317" y="238.399" xlink:href="#cross"  stroke="#000000" />
<text style="font-size:12;text-align:right;text-anchor:end;" x="60.0317" y="244.399" fill="#000000">60</text>
<use x="573.968" y="174.374" xlink:href="#cross"  stroke="#000000" />
<use x="66.0317" y="174.374" xlink:href="#cross"  stroke="#000000" />
<text style="font-size:12;text-align:right;text-anchor:end;" x="60.0317" y="180.374" fill="#000000">80</text>
<use x="573.968" y="110.348" xlink:href="#cross"  stroke="#000000" />
<use x="66.0317" y="110.348" xlink:href="#cross"  stroke="#000000" />
<text style="font-size:12;text-align:right;text-anchor:end;" x="60.0317" y="116.348" fill="#000000">100</text>
<text style="font-size:18;text-align:center;text-anchor:middle;" x="320" y="33.7619" fill="#000000">Spot diagram encircled rays intensity</text>
<line x1="66.0317" y1="430.476" x2="76.1905" y2="420.872"  stroke="#00ebff" />
<line x1="76.1905" y1="420.872" x2="86.3492" y2="395.262"  stroke="#00ebff" />
<line x1="86.3492" y1="395.262" x2="96.5079" y2="363.249"  stroke="#00ebff" />
<line x1="96.5079" y1="363.249" x2="106.667" y2="347.243"  stroke="#00ebff" />
<line x1="106.667" y1="347.243" x2="116.825" y2="308.828"  stroke="#00ebff" />
<line x1="116.825" y1="308.828" x2="126.984" y2="289.62"  stroke="#00ebff" />
<line x1="126.984" y1="289.62" x2="137.143" y2="270.412"  stroke="#00ebff" />
<line x1="137.143" y1="270.412" x2="147.302" y2="248.003"  stroke="#00ebff" />
<line x1="147.302" y1="248.003" x2="157.46" y2="235.198"  stroke="#00ebff" />
<line x1="157.46" y1="235.198" x2="167.619" y2="235.198"  stroke="#00ebff" />
<line x1="167.619" y1="235.198" x2="177.778" y2="235.198"  stroke="#00ebff" />
<line x1="177.778" y1="235.198" x2="187.937" y2="235.198"  stroke="#00ebff" />
<line x1="187.937" y1="235.198" x2="198.095" y2="212.789"  stroke="#00ebff" />
<line x1="198.095" y1="212.789" x2="208.254" y2="212.789"  stroke="#00ebff" />
<line x1="208.254" y1="212.789" x2="218.413" y2="206.387"  stroke="#00ebff" />
<line x1="218.413" y1="206.387" x2="228.571" y2="193.581"  stroke="#00ebff" />
<line x1="228.571" y1="193.581" x2="238.73" y2="180.776"  stroke="#00ebff" />
<line x1="238.73" y1="180.776" x2="248.889" y2="171.172"  stroke="#00ebff" />
<line x1="248.889" y1="171.172" x2="259.048" y2="164.77"  stroke="#00ebff" />
<line x1="259.048" y1="164.77" x2="269.206" y2="151.965"  stroke="#00ebff" />
<line x1="269.206" y1="151.965" x2="279.365" y2="145.562"  stroke="#00ebff" />
<line x1="279.365" y1="145.562" x2="289.524" y2="139.16"  stroke="#00ebff" />
<line x1="289.524" y1="139.16" x2="299.683" y2="119.952"  stroke="#00ebff" />
<line x1="299.683" y1="119.952" x2="309.841" y2="113.549"  stroke="#00ebff" />
<line x1="309.841" y1="113.549" x2="320" y2="100.744"  stroke="#00ebff" />
<line x1="320" y1="100.744" x2="330.159" y2="100.744"  stroke="#00ebff" />
<line x1="330.159" y1="100.744" x2="340.317" y2="94.3417"  stroke="#00ebff" />
<line x1="340.317" y1="94.3417" x2="350.476" y2="87.9392"  stroke="#00ebff" />
<line x1="350.476" y1="87.9392" x2="360.635" y2="81.5366"  stroke="#00ebff" />
<line x1="360.635" y1="81.5366" x2="370.794" y2="81.5366"  stroke="#00ebff" />
<line x1="370.794" y1="81.5366" x2="380.952" y2="68.7315"  stroke="#00ebff" />
<line x1="380.952" y1="68.7315" x2="391.111" y2="62.3289"  stroke="#00ebff" />
<line x1="391.111" y1="62.3289" x2="401.27" y2="62.3289"  stroke="#00ebff" />
<line x1="401.27" y1="62.3289" x2="411.429" y2="55.9264"  stroke="#00ebff" />
<line x1="411.429" y1="55.9264" x2="421.587" y2="55.9264"  stroke="#00ebff" />
<line x1="421.587" y1="55.9264" x2="431.746" y2="55.9264"  stroke="#00ebff" />
<line x1="431.746" y1="55.9264" x2="441.905" y2="49.5238"  stroke="#00ebff" />
<line x1="441.905" y1="49.5238" x2="452.063" y2="49.5238"  stroke="#00ebff" />
<line x1="452.063" y1="49.5238" x2="462.222" y2="49.5238"  stroke="#00ebff" />
<line x1="462.222" y1="49.5238" x2="472.381" y2="49.5238"  stroke="#00ebff" />
<line x1="472.381" y1="49.5238" x2="482.54" y2="49.5238"  stroke="#00ebff" />
<line x1="482.54" y1="49.5238" x2="492.698" y2="49.5238"  stroke="#00ebff" />
<line x1="492.698" y1="49.5238" x2="502.857" y2="49.5238"  stroke="#00ebff" />
<line x1="502.857" y1="49.5238" x2="513.016" y2="49.5238"  stroke="#00ebff" />
<line x1="513.016" y1="49.5238" x2="523.175" y2="49.5238"  stroke="#00ebff" />
<line x1="523.175" y1="49.5238" x2="533.333" y2="49.5238"  stroke="#00ebff" />
<line x1="533.333" y1="49.5238" x2="543.492" y2="49.5238"  stroke="#00ebff" />
<line x1="543.492" y1="49.5238" x2="553.651" y2="49.5238"  stroke="#00ebff" />
<line x1="553.651" y1="49.5238" x2="563.81" y2="49.5238"  stroke="#00ebff" />
<line x1="563.81" y1="49.5238" x2="573.968" y2="49.5238"  stroke="#00ebff" />
<line x1="66.0317" y1="430.476" x2="76.1905" y2="427.275"  stroke="#ffe100" />
<line x1="76.1905" y1="427.275" x2="86.3492" y2="411.269"  stroke="#ffe100" />
<line x1="86.3492" y1="411.269" x2="96.5079" y2="404.866"  stroke="#ffe100" />
<line x1="96.5079" y1="404.866" x2="106.667" y2="385.658"  stroke="#ffe100" />
<line x1="106.667" y1="385.658" x2="116.825" y2="366.451"  stroke="#ffe100" />
<line x1="116.825" y1="366.451" x2="126.984" y2="321.633"  stroke="#ffe100" />
<line x1="126.984" y1="321.633" x2="137.143" y2="299.224"  stroke="#ffe100" />
<line x1="137.143" y1="299.224" x2="147.302" y2="276.815"  stroke="#ffe100" />
<line x1="147.302" y1="276.815" x2="157.46" y2="251.204"  stroke="#ffe100" />
<line x1="157.46" y1="251.204" x2="167.619" y2="228.796"  stroke="#ffe100" />
<line x1="167.619" y1="228.796" x2="177.778" y2="209.588"  stroke="#ffe100" />
<line x1="177.778" y1="209.588" x2="187.937" y2="199.984"  stroke="#ffe100" />
<line x1="187.937" y1="199.984" x2="198.095" y2="180.776"  stroke="#ffe100" />
<line x1="198.095" y1="180.776" x2="208.254" y2="164.77"  stroke="#ffe100" />
<line x1="208.254" y1="164.77" x2="218.413" y2="145.562"  stroke="#ffe100" />
<line x1="218.413" y1="145.562" x2="228.571" y2="139.16"  stroke="#ffe100" />
<line x1="228.571" y1="139.16" x2="238.73" y2="139.16"  stroke="#ffe100" />
<line x1="238.73" y1="139.16" x2="248.889" y2="139.16"  stroke="#ffe100" />
<line x1="248.889" y1="139.16" x2="259.048" y2="132.757"  stroke="#ffe100" />
<line x1="259.048" y1="132.757" x2="269.206" y2="119.952"  stroke="#ffe100" />
<line x1="269.206" y1="119.952" x2="279.365" y2="113.549"  stroke="#ffe100" />
<line x1="279.365" y1="113.549" x2="289.524" y2="113.549"  stroke="#ffe100" />
<line x1="289.524" y1="113.549" x2="299.683" y2="107.147"  stroke="#ffe100" />
<line x1="299.683" y1="107.147" x2="309.841" y2="100.744"  stroke="#ffe100" />
<line x1="309.841" y1="100.744" x2="320" y2="94.3417"  stroke="#ffe100" />
<line x1="320" y1="94.3417" x2="330.159" y2="94.3417"  stroke="#ffe100" />
<line x1="330.159" y1="94.3417" x2="340.317" y2="87.9392"  stroke="#ffe100" />
<line x1="340.317" y1="87.9392" x2="350.476" y2="81.5366"  stroke="#ffe100" />
<line x1="350.476" y1="81.5366" x2="360.635" y2="81.5366"  stroke="#ffe100" />
<line x1="360.635" y1="81.5366" x2="370.794" y2="81.5366"  stroke="#ffe100" />
<line x1="370.794" y1="81.5366" x2="380.952" y2="75.1341"  stroke="#ffe100" />
<line x1="380.952" y1="75.1341" x2="391.111" y2="62.3289"  stroke="#ffe100" />
<line x1="391.111" y1="62.3289" x2="401.27" y2="62.3289"  stroke="#ffe100" />
<line x1="401.27" y1="62.3289" x2="411.429" y2="62.3289"  stroke="#ffe100" />
<line x1="411.429" y1="62.3289" x2="421.587" y2="49.5238"  stroke="#ffe100" />
<line x1="421.587" y1="49.5238" x2="431.746" y2="49.5238"  stroke="#ffe100" />
<line x1="431.746" y1="49.5238" x2="441.905" y2="49.5238"  stroke="#ffe100" />
<line x1="441.905" y1="49.5238" x2="452.063" y2="49.5238"  stroke="#ffe100" />
<line x1="452.063" y1="49.5238" x2="462.222" y2="49.5238"  stroke="#ffe100" />
<line x1="462.222" y1="49.5238" x2="472.381" y2="49.5238"  stroke="#ffe100" />
<line x1="472.381" y1="49.5238" x2="482.54" y2="49.5238"  stroke="#ffe100" />
<line x1="482.54" y1="49.5238" x2="492.698" y2="49.5238"  stroke="#ffe100" />
<line x1="492.698" y1="49.5238" x2="502.857" y2="49.5238"  stroke="#ffe100" />
<line x1="502.857" y1="49.5238" x2="513.016" y2="49.5238"  stroke="#ffe100" />
<line x1="513.016" y1="49.5238" x2="523.175" y2="49.5238"  stroke="#ffe100" />
<line x1="523.175" y1="49.5238" x2="533.333" y2="49.5238"  stroke="#ffe100" />
<line x1="533.333" y1="49.5238" x2="543.492" y2="49.5238"  stroke="#ffe100" />
<line x1="543.492" y1="49.5238" x2="553.651" y2="49.5238"  stroke="#ffe100" />
<line x1="553.651" y1="49.5238" x2="563.81" y2="49.5238"  stroke="#ffe100" />
<line x1="563.81" y1="49.5238" x2="573.968" y2="49.5238"  stroke="#ffe100" />
<line x1="66.0317" y1="430.476" x2="76.1905" y2="430.476"  stroke="#ff0000" />
<line x1="76.1905" y1="430.476" x2="86.3492" y2="430.476"  stroke="#ff0000" />
<line x1="86.3492" y1="430.476" x2="96.5079" y2="424.074"  stroke="#ff0000" />
<line x1="96.5079" y1="424.074" x2="106.667" y2="411.269"  stroke="#ff0000" />
<line x1="106.667" y1="411.269" x2="116.825" y2="395.262"  stroke="#ff0000" />
<line x1="116.825" y1="395.262" x2="126.984" y2="369.652"  stroke="#ff0000" />
<line x1="126.984" y1="369.652" x2="137.143" y2="353.645"  stroke="#ff0000" />
<line x1="137.143" y1="353.645" x2="147.302" y2="340.84"  stroke="#ff0000" />
<line x1="147.302" y1="340.84" x2="157.46" y2="334.438"  stroke="#ff0000" />
<line x1="157.46" y1="334.438" x2="167.619" y2="321.633"  stroke="#ff0000" />
<line x1="167.619" y1="321.633" x2="177.778" y2="315.23"  stroke="#ff0000" />
<line x1="177.778" y1="315.23" x2="187.937" y2="299.224"  stroke="#ff0000" />
<line x1="187.937" y1="299.224" x2="198.095" y2="273.613"  stroke="#ff0000" />
<line x1="198.095" y1="273.613" x2="208.254" y2="238.399"  stroke="#ff0000" />
<line x1="208.254" y1="238.399" x2="218.413" y2="212.789"  stroke="#ff0000" />
<line x1="218.413" y1="212.789" x2="228.571" y2="177.575"  stroke="#ff0000" />
<line x1="228.571" y1="177.575" x2="238.73" y2="164.77"  stroke="#ff0000" />
<line x1="238.73" y1="164.77" x2="248.889" y2="164.77"  stroke="#ff0000" />
<line x1="248.889" y1="164.77" x2="259.048" y2="164.77"  stroke="#ff0000" />
<line x1="259.048" y1="164.77" x2="269.206" y2="151.965"  stroke="#ff0000" />
<line x1="269.206" y1="151.965" x2="279.365" y2="145.562"  stroke="#ff0000" />
<line x1="279.365" y1="145.562" x2="289.524" y2="139.16"  stroke="#ff0000" />
<line x1="289.524" y1="139.16" x2="299.683" y2="132.757"  stroke="#ff0000" />
<line x1="299.683" y1="132.757" x2="309.841" y2="132.757"  stroke="#ff0000" />
<line x1="309.841" y1="132.757" x2="320" y2="126.355"  stroke="#ff0000" />
<line x1="320" y1="126.355" x2="330.159" y2="119.952"  stroke="#ff0000" />
<line x1="330.159" y1="119.952" x2="340.317" y2="119.952"  stroke="#ff0000" />
<line x1="340.317" y1="119.952" x2="350.476" y2="119.952"  stroke="#ff0000" />
<line x1="350.476" y1="119.952" x2="360.635" y2="119.952"  stroke="#ff0000" />
<line x1="360.635" y1="119.952" x2="370.794" y2="113.549"  stroke="#ff0000" />
<line x1="370.794" y1="113.549" x2="380.952" y2="113.549"  stroke="#ff0000" />
<line x1="380.952" y1="113.549" x2="391.111" y2="107.147"  stroke="#ff0000" />
<line x1="391.111" y1="107.147" x2="401.27" y2="100.744"  stroke="#ff0000" />
<line x1="401.27" y1="100.744" x2="411.429" y2="100.744"  stroke="#ff0000" />
<line x1="411.429" y1="100.744" x2="421.587" y2="100.744"  stroke="#ff0000" />
<line x1="421.587" y1="100.744" x2="431.746" y2="100.744"  stroke="#ff0000" />
<line x1="431.746" y1="100.744" x2="441.905" y2="87.9392"  stroke="#ff0000" />
<line x1="441.905" y1="87.9392" x2="452.063" y2="87.9392"  stroke="#ff0000" />
<line x1="452.063" y1="87.9392" x2="462.222" y2="87.9392"  stroke="#ff0000" />
<line x1="462.222" y1="87.9392" x2="472.381" y2="87.9392"  stroke="#ff0000" />
<line x1="472.381" y1="87.9392" x2="482.54" y2="87.9392"  stroke="#ff0000" />
<line x1="482.54" y1="87.9392" x2="492.698" y2="75.1341"  stroke="#ff0000" />
<line x1="492.698" y1="75.1341" x2="502.857" y2="68.7315"  stroke="#ff0000" />
<line x1="502.857" y1="68.7315" x2="513.016" y2="68.7315"  stroke="#ff0000" />
<line x1="513.016" y1="68.7315" x2="523.175" y2="62.3289"  stroke="#ff0000" />
<line x1="523.175" y1="62.3289" x2="533.333" y2="62.3289"  stroke="#ff0000" />
<line x1="533.333" y1="62.3289" x2="543.492" y2="62.3289"  stroke="#ff0000" />
<line x1="543.492" y1="62.3289" x2="553.651" y2="62.3289"  stroke="#ff0000" />
<line x1="553.651" y1="62.3289" x2="563.81" y2="52.7251"  stroke="#ff0000" />
<line x1="563.81" y1="52.7251" x2="573.968" y2="49.5238"  stroke="#ff0000" />
</svg>
