<?xml version="1.0" standalone="no"?>
<svg width="300px" height="300px" version="1.1" xmlns="http://www.w3.org/2000/svg" xmlns:xlink="http://www.w3.org/1999/xlink">
<rect x="0" y="0" width="300" height="300"  fill="#000000" />
<defs>
<g id="dot">
<line x1="1" y1="1" x2="0" y2="0"  />
</g>
<g id="cross">
<line x1="-3" y1="0" x2="3" y2="0"  />
<line x1="0" y1="-3" x2="0" y2="3"  />
</g>
<g id="square">
<line x1="-3" y1="-3" x2="-3" y2="3"  />
<line x1="-3" y1="3" x2="3" y2="3"  />
<line x1="3" y1="3" x2="3" y2="-3"  />
<line x1="3" y1="-3" x2="-3" y2="-3"  />
</g>
<g id="round">
<ellipse cx="0" cy="0" rx="3" ry="3"  fill="none" /></g>
<g id="triangle">
<line x1="0" y1="-3" x2="-3" y2="3"  />
<line x1="-3" y1="3" x2="3" y2="3"  />
<line x1="0" y1="-3" x2="3" y2="3"  />
</g>
</defs>
<polygon fill="none" stroke="#ffffff" points="30.9524,269.048 30.9524,30.9524 269.048,30.9524 269.048,269.048 " />
<text style="font-size:12;text-align:center;text-anchor:middle;" x="150" y="298.262" fill="#ffffff">Saggital distance (um)</text>
<use x="70.6349" y="30.9524" xlink:href="#cross"  stroke="#ffffff" />
<use x="70.6349" y="269.048" xlink:href="#cross"  stroke="#ffffff" />
<text style="font-size:12;text-align:center;text-anchor:middle;" x="70.6349" y="287.048" fill="#ffffff">-24.4</text>
<use x="150" y="30.9524" xlink:href="#cross"  stroke="#ffffff" />
<use x="150" y="269.048" xlink:href="#cross"  stroke="#ffffff" />
<text style="font-size:12;text-align:center;text-anchor:middle;" x="150" y="287.048" fill="#ffffff">0</text>
<use x="229.365" y="30.9524" xlink:href="#cross"  stroke="#ffffff" />
<use x="229.365" y="269.048" xlink:href="#cross"  stroke="#ffffff" />
<text style="font-size:12;text-align:center;text-anchor:middle;" x="229.365" y="287.048" fill="#ffffff">24.4</text>
<text style="font-size:12;text-align:center;text-anchor:middle;" x="7.7381" y="156" transform="rotate(-90,7.7381,150)" fill="#ffffff">Tangential distance (um)</text>
<use x="269.048" y="232.1" xlink:href="#cross"  stroke="#ffffff" />
<use x="30.9524" y="232.1" xlink:href="#cross"  stroke="#ffffff" />
<text style="font-size:12;text-align:right;text-anchor:end;" x="24.9524" y="238.1" fill="#ffffff">-24.4</text>
<use x="269.048" y="152.735" xlink:href="#cross"  stroke="#ffffff" />
<use x="30.9524" y="152.735" xlink:href="#cross"  stroke="#ffffff" />
<text style="font-size:12;text-align:right;text-anchor:end;" x="24.9524" y="158.735" fill="#ffffff">0</text>
<use x="269.048" y="73.3702" xlink:href="#cross"  stroke="#ffffff" />
<use x="30.9524" y="73.3702" xlink:href="#cross"  stroke="#ffffff" />
<text style="font-size:12;text-align:right;text-anchor:end;" x="24.9524" y="79.3702" fill="#ffffff">24.4</text>
<use x="172.719" y="125.213" xlink:href="#dot"  stroke="#ffe100" />
<use x="195.79" y="143.424" xlink:href="#dot"  stroke="#ff0000" />
<use x="172.055" y="89.6677" xlink:href="#dot"  stroke="#00ebff" />
<use x="154.58" y="133.809" xlink:href="#dot"  stroke="#ffe100" />
<use x="172.545" y="152.838" xlink:href="#dot"  stroke="#ff0000" />
<use x="155.546" y="97.6044" xlink:href="#dot"  stroke="#00ebff" />
<use x="142.958" y="140.471" xlink:href="#dot"  stroke="#ffe100" />
<use x="156.636" y="160.191" xlink:href="#dot"  stroke="#ff0000" />
<use x="144.489" y="103.613" xlink:href="#dot"  stroke="#00ebff" />
<use x="137.746" y="144.843" xlink:href="#dot"  stroke="#ffe100" />
<use x="147.651" y="165.116" xlink:href="#dot"  stroke="#ff0000" />
<use x="139.245" y="107.405" xlink:href="#dot"  stroke="#00ebff" />
<use x="138.197" y="147.267" xlink:href="#dot"  stroke="#ffe100" />
<use x="144.648" y="167.945" xlink:href="#dot"  stroke="#ff0000" />
<use x="139.335" y="109.378" xlink:href="#dot"  stroke="#00ebff" />
<use x="142.935" y="148.361" xlink:href="#dot"  stroke="#ffe100" />
<use x="146.118" y="169.284" xlink:href="#dot"  stroke="#ff0000" />
<use x="143.541" y="110.184" xlink:href="#dot"  stroke="#00ebff" />
<use x="150" y="148.657" xlink:href="#dot"  stroke="#ffe100" />
<use x="150" y="169.663" xlink:href="#dot"  stroke="#ff0000" />
<use x="150" y="110.381" xlink:href="#dot"  stroke="#00ebff" />
<use x="157.065" y="148.361" xlink:href="#dot"  stroke="#ffe100" />
<use x="153.882" y="169.284" xlink:href="#dot"  stroke="#ff0000" />
<use x="156.459" y="110.184" xlink:href="#dot"  stroke="#00ebff" />
<use x="161.803" y="147.267" xlink:href="#dot"  stroke="#ffe100" />
<use x="155.352" y="167.945" xlink:href="#dot"  stroke="#ff0000" />
<use x="160.665" y="109.378" xlink:href="#dot"  stroke="#00ebff" />
<use x="162.254" y="144.843" xlink:href="#dot"  stroke="#ffe100" />
<use x="152.349" y="165.116" xlink:href="#dot"  stroke="#ff0000" />
<use x="160.755" y="107.405" xlink:href="#dot"  stroke="#00ebff" />
<use x="157.042" y="140.471" xlink:href="#dot"  stroke="#ffe100" />
<use x="143.364" y="160.191" xlink:href="#dot"  stroke="#ff0000" />
<use x="155.511" y="103.613" xlink:href="#dot"  stroke="#00ebff" />
<use x="145.42" y="133.809" xlink:href="#dot"  stroke="#ffe100" />
<use x="127.455" y="152.838" xlink:href="#dot"  stroke="#ff0000" />
<use x="144.454" y="97.6044" xlink:href="#dot"  stroke="#00ebff" />
<use x="127.281" y="125.213" xlink:href="#dot"  stroke="#ffe100" />
<use x="104.21" y="143.424" xlink:href="#dot"  stroke="#ff0000" />
<use x="127.945" y="89.6677" xlink:href="#dot"  stroke="#00ebff" />
<use x="228.799" y="123.959" xlink:href="#dot"  stroke="#ffe100" />
<use x="264.261" y="129.244" xlink:href="#dot"  stroke="#ff0000" />
<use x="220.695" y="100.431" xlink:href="#dot"  stroke="#00ebff" />
<use x="210.858" y="132.745" xlink:href="#dot"  stroke="#ffe100" />
<use x="238.45" y="140.062" xlink:href="#dot"  stroke="#ff0000" />
<use x="208.602" y="107.3" xlink:href="#dot"  stroke="#00ebff" />
<use x="187.798" y="145.591" xlink:href="#dot"  stroke="#ffe100" />
<use x="209.477" y="154.592" xlink:href="#dot"  stroke="#ff0000" />
<use x="188.338" y="118.441" xlink:href="#dot"  stroke="#00ebff" />
<use x="167.388" y="157.291" xlink:href="#dot"  stroke="#ffe100" />
<use x="184.341" y="167.689" xlink:href="#dot"  stroke="#ff0000" />
<use x="169.064" y="128.611" xlink:href="#dot"  stroke="#00ebff" />
<use x="152.526" y="165.98" xlink:href="#dot"  stroke="#ffe100" />
<use x="165.485" y="177.52" xlink:href="#dot"  stroke="#ff0000" />
<use x="154.441" y="135.96" xlink:href="#dot"  stroke="#00ebff" />
<use x="144.13" y="171.486" xlink:href="#dot"  stroke="#ffe100" />
<use x="153.548" y="183.92" xlink:href="#dot"  stroke="#ff0000" />
<use x="145.811" y="140.356" xlink:href="#dot"  stroke="#00ebff" />
<use x="141.928" y="174.448" xlink:href="#dot"  stroke="#ffe100" />
<use x="148.079" y="187.527" xlink:href="#dot"  stroke="#ff0000" />
<use x="143.138" y="142.482" xlink:href="#dot"  stroke="#00ebff" />
<use x="144.613" y="175.746" xlink:href="#dot"  stroke="#ffe100" />
<use x="147.653" y="189.216" xlink:href="#dot"  stroke="#ff0000" />
<use x="145.239" y="143.261" xlink:href="#dot"  stroke="#00ebff" />
<use x="150" y="176.089" xlink:href="#dot"  stroke="#ffe100" />
<use x="150" y="189.69" xlink:href="#dot"  stroke="#ff0000" />
<use x="150" y="143.428" xlink:href="#dot"  stroke="#00ebff" />
<use x="155.387" y="175.746" xlink:href="#dot"  stroke="#ffe100" />
<use x="152.347" y="189.216" xlink:href="#dot"  stroke="#ff0000" />
<use x="154.761" y="143.261" xlink:href="#dot"  stroke="#00ebff" />
<use x="158.072" y="174.448" xlink:href="#dot"  stroke="#ffe100" />
<use x="151.921" y="187.527" xlink:href="#dot"  stroke="#ff0000" />
<use x="156.862" y="142.482" xlink:href="#dot"  stroke="#00ebff" />
<use x="155.87" y="171.486" xlink:href="#dot"  stroke="#ffe100" />
<use x="146.452" y="183.92" xlink:href="#dot"  stroke="#ff0000" />
<use x="154.189" y="140.356" xlink:href="#dot"  stroke="#00ebff" />
<use x="147.474" y="165.98" xlink:href="#dot"  stroke="#ffe100" />
<use x="134.515" y="177.52" xlink:href="#dot"  stroke="#ff0000" />
<use x="145.559" y="135.96" xlink:href="#dot"  stroke="#00ebff" />
<use x="132.612" y="157.291" xlink:href="#dot"  stroke="#ffe100" />
<use x="115.659" y="167.689" xlink:href="#dot"  stroke="#ff0000" />
<use x="130.936" y="128.611" xlink:href="#dot"  stroke="#00ebff" />
<use x="112.202" y="145.591" xlink:href="#dot"  stroke="#ffe100" />
<use x="90.5234" y="154.592" xlink:href="#dot"  stroke="#ff0000" />
<use x="111.662" y="118.441" xlink:href="#dot"  stroke="#00ebff" />
<use x="89.1422" y="132.745" xlink:href="#dot"  stroke="#ffe100" />
<use x="61.5496" y="140.062" xlink:href="#dot"  stroke="#ff0000" />
<use x="91.3978" y="107.3" xlink:href="#dot"  stroke="#00ebff" />
<use x="71.2013" y="123.959" xlink:href="#dot"  stroke="#ffe100" />
<use x="35.7387" y="129.244" xlink:href="#dot"  stroke="#ff0000" />
<use x="79.3047" y="100.431" xlink:href="#dot"  stroke="#00ebff" />
<use x="204.49" y="175.61" xlink:href="#dot"  stroke="#ffe100" />
<use x="249.098" y="166.966" xlink:href="#dot"  stroke="#ff0000" />
<use x="187.12" y="166.777" xlink:href="#dot"  stroke="#00ebff" />
<use x="234.368" y="144.886" xlink:href="#dot"  stroke="#ffe100" />
<use x="268.372" y="140.066" xlink:href="#dot"  stroke="#ff0000" />
<use x="227.61" y="131.646" xlink:href="#dot"  stroke="#00ebff" />
<use x="223.288" y="144.264" xlink:href="#dot"  stroke="#ffe100" />
<use x="249.82" y="142.433" xlink:href="#dot"  stroke="#ff0000" />
<use x="221.773" y="127.653" xlink:href="#dot"  stroke="#00ebff" />
<use x="200.426" y="153.661" xlink:href="#dot"  stroke="#ffe100" />
<use x="221.344" y="154.233" xlink:href="#dot"  stroke="#ff0000" />
<use x="201.288" y="134.284" xlink:href="#dot"  stroke="#00ebff" />
<use x="177.631" y="164.459" xlink:href="#dot"  stroke="#ffe100" />
<use x="194.055" y="166.985" xlink:href="#dot"  stroke="#ff0000" />
<use x="179.349" y="142.74" xlink:href="#dot"  stroke="#00ebff" />
<use x="159.768" y="173.315" xlink:href="#dot"  stroke="#ffe100" />
<use x="172.374" y="177.413" xlink:href="#dot"  stroke="#ff0000" />
<use x="161.562" y="149.623" xlink:href="#dot"  stroke="#00ebff" />
<use x="148.669" y="179.368" xlink:href="#dot"  stroke="#ffe100" />
<use x="157.866" y="184.685" xlink:href="#dot"  stroke="#ff0000" />
<use x="150.166" y="154.08" xlink:href="#dot"  stroke="#00ebff" />
<use x="144.41" y="182.906" xlink:href="#dot"  stroke="#ffe100" />
<use x="150.435" y="189.097" xlink:href="#dot"  stroke="#ff0000" />
<use x="145.449" y="156.435" xlink:href="#dot"  stroke="#00ebff" />
<use x="145.666" y="184.616" xlink:href="#dot"  stroke="#ffe100" />
<use x="148.65" y="191.335" xlink:href="#dot"  stroke="#ff0000" />
<use x="146.193" y="157.416" xlink:href="#dot"  stroke="#00ebff" />
<use x="150" y="185.107" xlink:href="#dot"  stroke="#ffe100" />
<use x="150" y="192.002" xlink:href="#dot"  stroke="#ff0000" />
<use x="150" y="157.661" xlink:href="#dot"  stroke="#00ebff" />
<use x="154.334" y="184.616" xlink:href="#dot"  stroke="#ffe100" />
<use x="151.35" y="191.335" xlink:href="#dot"  stroke="#ff0000" />
<use x="153.807" y="157.416" xlink:href="#dot"  stroke="#00ebff" />
<use x="155.59" y="182.906" xlink:href="#dot"  stroke="#ffe100" />
<use x="149.565" y="189.097" xlink:href="#dot"  stroke="#ff0000" />
<use x="154.551" y="156.435" xlink:href="#dot"  stroke="#00ebff" />
<use x="151.331" y="179.368" xlink:href="#dot"  stroke="#ffe100" />
<use x="142.134" y="184.685" xlink:href="#dot"  stroke="#ff0000" />
<use x="149.834" y="154.08" xlink:href="#dot"  stroke="#00ebff" />
<use x="140.232" y="173.315" xlink:href="#dot"  stroke="#ffe100" />
<use x="127.626" y="177.413" xlink:href="#dot"  stroke="#ff0000" />
<use x="138.438" y="149.623" xlink:href="#dot"  stroke="#00ebff" />
<use x="122.369" y="164.459" xlink:href="#dot"  stroke="#ffe100" />
<use x="105.945" y="166.985" xlink:href="#dot"  stroke="#ff0000" />
<use x="120.651" y="142.74" xlink:href="#dot"  stroke="#00ebff" />
<use x="99.5736" y="153.661" xlink:href="#dot"  stroke="#ffe100" />
<use x="78.6556" y="154.233" xlink:href="#dot"  stroke="#ff0000" />
<use x="98.7124" y="134.284" xlink:href="#dot"  stroke="#00ebff" />
<use x="76.7116" y="144.264" xlink:href="#dot"  stroke="#ffe100" />
<use x="50.1801" y="142.433" xlink:href="#dot"  stroke="#ff0000" />
<use x="78.2265" y="127.653" xlink:href="#dot"  stroke="#00ebff" />
<use x="65.6317" y="144.886" xlink:href="#dot"  stroke="#ffe100" />
<use x="31.6284" y="140.066" xlink:href="#dot"  stroke="#ff0000" />
<use x="72.3903" y="131.646" xlink:href="#dot"  stroke="#00ebff" />
<use x="95.51" y="175.61" xlink:href="#dot"  stroke="#ffe100" />
<use x="50.902" y="166.966" xlink:href="#dot"  stroke="#ff0000" />
<use x="112.88" y="166.777" xlink:href="#dot"  stroke="#00ebff" />
<use x="223.165" y="178.2" xlink:href="#dot"  stroke="#ffe100" />
<use x="256.714" y="163.761" xlink:href="#dot"  stroke="#ff0000" />
<use x="216.182" y="174.871" xlink:href="#dot"  stroke="#00ebff" />
<use x="225.91" y="154.083" xlink:href="#dot"  stroke="#ffe100" />
<use x="252.098" y="143.58" xlink:href="#dot"  stroke="#ff0000" />
<use x="224.095" y="145.969" xlink:href="#dot"  stroke="#00ebff" />
<use x="206.86" y="152.734" xlink:href="#dot"  stroke="#ffe100" />
<use x="227.544" y="145.334" xlink:href="#dot"  stroke="#ff0000" />
<use x="207.322" y="140.873" xlink:href="#dot"  stroke="#00ebff" />
<use x="183.925" y="159.146" xlink:href="#dot"  stroke="#ffe100" />
<use x="200.211" y="154.227" xlink:href="#dot"  stroke="#ff0000" />
<use x="185.173" y="144.225" xlink:href="#dot"  stroke="#00ebff" />
<use x="164.612" y="166.855" xlink:href="#dot"  stroke="#ffe100" />
<use x="177.152" y="163.908" xlink:href="#dot"  stroke="#ff0000" />
<use x="165.922" y="149.422" xlink:href="#dot"  stroke="#00ebff" />
<use x="151.883" y="173.307" xlink:href="#dot"  stroke="#ffe100" />
<use x="161.059" y="171.874" xlink:href="#dot"  stroke="#ff0000" />
<use x="152.944" y="153.878" xlink:href="#dot"  stroke="#00ebff" />
<use x="146.25" y="177.763" xlink:href="#dot"  stroke="#ffe100" />
<use x="152.278" y="177.41" xlink:href="#dot"  stroke="#ff0000" />
<use x="146.962" y="156.873" xlink:href="#dot"  stroke="#00ebff" />
<use x="146.476" y="180.268" xlink:href="#dot"  stroke="#ffe100" />
<use x="149.466" y="180.563" xlink:href="#dot"  stroke="#ff0000" />
<use x="146.826" y="158.482" xlink:href="#dot"  stroke="#00ebff" />
<use x="150" y="181.064" xlink:href="#dot"  stroke="#ffe100" />
<use x="150" y="181.576" xlink:href="#dot"  stroke="#ff0000" />
<use x="150" y="158.975" xlink:href="#dot"  stroke="#00ebff" />
<use x="153.524" y="180.268" xlink:href="#dot"  stroke="#ffe100" />
<use x="150.534" y="180.563" xlink:href="#dot"  stroke="#ff0000" />
<use x="153.174" y="158.482" xlink:href="#dot"  stroke="#00ebff" />
<use x="153.75" y="177.763" xlink:href="#dot"  stroke="#ffe100" />
<use x="147.722" y="177.41" xlink:href="#dot"  stroke="#ff0000" />
<use x="153.038" y="156.873" xlink:href="#dot"  stroke="#00ebff" />
<use x="148.117" y="173.307" xlink:href="#dot"  stroke="#ffe100" />
<use x="138.941" y="171.874" xlink:href="#dot"  stroke="#ff0000" />
<use x="147.056" y="153.878" xlink:href="#dot"  stroke="#00ebff" />
<use x="135.388" y="166.855" xlink:href="#dot"  stroke="#ffe100" />
<use x="122.848" y="163.908" xlink:href="#dot"  stroke="#ff0000" />
<use x="134.078" y="149.422" xlink:href="#dot"  stroke="#00ebff" />
<use x="116.075" y="159.146" xlink:href="#dot"  stroke="#ffe100" />
<use x="99.7894" y="154.227" xlink:href="#dot"  stroke="#ff0000" />
<use x="114.827" y="144.225" xlink:href="#dot"  stroke="#00ebff" />
<use x="93.14" y="152.734" xlink:href="#dot"  stroke="#ffe100" />
<use x="72.4556" y="145.334" xlink:href="#dot"  stroke="#ff0000" />
<use x="92.6785" y="140.873" xlink:href="#dot"  stroke="#00ebff" />
<use x="74.0898" y="154.083" xlink:href="#dot"  stroke="#ffe100" />
<use x="47.9021" y="143.58" xlink:href="#dot"  stroke="#ff0000" />
<use x="75.9049" y="145.969" xlink:href="#dot"  stroke="#00ebff" />
<use x="76.8345" y="178.2" xlink:href="#dot"  stroke="#ffe100" />
<use x="43.2862" y="163.761" xlink:href="#dot"  stroke="#ff0000" />
<use x="83.8182" y="174.871" xlink:href="#dot"  stroke="#00ebff" />
<use x="212.806" y="178.252" xlink:href="#dot"  stroke="#ffe100" />
<use x="239.256" y="159.2" xlink:href="#dot"  stroke="#ff0000" />
<use x="209.822" y="178.78" xlink:href="#dot"  stroke="#00ebff" />
<use x="204.671" y="154.504" xlink:href="#dot"  stroke="#ffe100" />
<use x="225.546" y="139.272" xlink:href="#dot"  stroke="#ff0000" />
<use x="204.191" y="150.303" xlink:href="#dot"  stroke="#00ebff" />
<use x="185.608" y="150.442" xlink:href="#dot"  stroke="#ffe100" />
<use x="202.053" y="138.213" xlink:href="#dot"  stroke="#ff0000" />
<use x="186.047" y="142.523" xlink:href="#dot"  stroke="#00ebff" />
<use x="167.244" y="153.96" xlink:href="#dot"  stroke="#ffe100" />
<use x="179.925" y="144.082" xlink:href="#dot"  stroke="#ff0000" />
<use x="167.86" y="143.072" xlink:href="#dot"  stroke="#00ebff" />
<use x="154.27" y="159.451" xlink:href="#dot"  stroke="#ffe100" />
<use x="163.566" y="151.361" xlink:href="#dot"  stroke="#ff0000" />
<use x="154.769" y="146.251" xlink:href="#dot"  stroke="#00ebff" />
<use x="147.941" y="164.347" xlink:href="#dot"  stroke="#ffe100" />
<use x="154.056" y="157.522" xlink:href="#dot"  stroke="#ff0000" />
<use x="148.253" y="149.472" xlink:href="#dot"  stroke="#00ebff" />
<use x="147.333" y="167.548" xlink:href="#dot"  stroke="#ffe100" />
<use x="150.369" y="161.479" xlink:href="#dot"  stroke="#ff0000" />
<use x="147.475" y="151.653" xlink:href="#dot"  stroke="#00ebff" />
<use x="150" y="168.646" xlink:href="#dot"  stroke="#ffe100" />
<use x="150" y="162.829" xlink:href="#dot"  stroke="#ff0000" />
<use x="150" y="152.409" xlink:href="#dot"  stroke="#00ebff" />
<use x="152.667" y="167.548" xlink:href="#dot"  stroke="#ffe100" />
<use x="149.631" y="161.479" xlink:href="#dot"  stroke="#ff0000" />
<use x="152.525" y="151.653" xlink:href="#dot"  stroke="#00ebff" />
<use x="152.059" y="164.347" xlink:href="#dot"  stroke="#ffe100" />
<use x="145.944" y="157.522" xlink:href="#dot"  stroke="#ff0000" />
<use x="151.747" y="149.472" xlink:href="#dot"  stroke="#00ebff" />
<use x="145.73" y="159.451" xlink:href="#dot"  stroke="#ffe100" />
<use x="136.434" y="151.361" xlink:href="#dot"  stroke="#ff0000" />
<use x="145.231" y="146.251" xlink:href="#dot"  stroke="#00ebff" />
<use x="132.756" y="153.96" xlink:href="#dot"  stroke="#ffe100" />
<use x="120.075" y="144.082" xlink:href="#dot"  stroke="#ff0000" />
<use x="132.14" y="143.072" xlink:href="#dot"  stroke="#00ebff" />
<use x="114.392" y="150.442" xlink:href="#dot"  stroke="#ffe100" />
<use x="97.9471" y="138.213" xlink:href="#dot"  stroke="#ff0000" />
<use x="113.953" y="142.523" xlink:href="#dot"  stroke="#00ebff" />
<use x="95.3286" y="154.504" xlink:href="#dot"  stroke="#ffe100" />
<use x="74.4543" y="139.272" xlink:href="#dot"  stroke="#ff0000" />
<use x="95.8093" y="150.303" xlink:href="#dot"  stroke="#00ebff" />
<use x="87.1938" y="178.252" xlink:href="#dot"  stroke="#ffe100" />
<use x="60.744" y="159.2" xlink:href="#dot"  stroke="#ff0000" />
<use x="90.1775" y="178.78" xlink:href="#dot"  stroke="#00ebff" />
<use x="189.762" y="177.536" xlink:href="#dot"  stroke="#ffe100" />
<use x="211.185" y="154.363" xlink:href="#dot"  stroke="#ff0000" />
<use x="187.896" y="181.453" xlink:href="#dot"  stroke="#00ebff" />
<use x="180.748" y="151.442" xlink:href="#dot"  stroke="#ffe100" />
<use x="197.585" y="131.829" xlink:href="#dot"  stroke="#ff0000" />
<use x="180.147" y="150.947" xlink:href="#dot"  stroke="#00ebff" />
<use x="166.761" y="144.176" xlink:href="#dot"  stroke="#ffe100" />
<use x="179.733" y="127.307" xlink:href="#dot"  stroke="#ff0000" />
<use x="166.575" y="140.28" xlink:href="#dot"  stroke="#00ebff" />
<use x="155.431" y="144.943" xlink:href="#dot"  stroke="#ffe100" />
<use x="164.94" y="130.132" xlink:href="#dot"  stroke="#ff0000" />
<use x="155.327" y="138.46" xlink:href="#dot"  stroke="#00ebff" />
<use x="149.323" y="148.208" xlink:href="#dot"  stroke="#ffe100" />
<use x="155.579" y="134.84" xlink:href="#dot"  stroke="#ff0000" />
<use x="149.225" y="139.884" xlink:href="#dot"  stroke="#00ebff" />
<use x="148.187" y="151.087" xlink:href="#dot"  stroke="#ffe100" />
<use x="151.295" y="138.576" xlink:href="#dot"  stroke="#ff0000" />
<use x="148.121" y="141.652" xlink:href="#dot"  stroke="#00ebff" />
<use x="150" y="152.185" xlink:href="#dot"  stroke="#ffe100" />
<use x="150" y="139.959" xlink:href="#dot"  stroke="#ff0000" />
<use x="150" y="142.378" xlink:href="#dot"  stroke="#00ebff" />
<use x="151.813" y="151.087" xlink:href="#dot"  stroke="#ffe100" />
<use x="148.705" y="138.576" xlink:href="#dot"  stroke="#ff0000" />
<use x="151.879" y="141.652" xlink:href="#dot"  stroke="#00ebff" />
<use x="150.677" y="148.208" xlink:href="#dot"  stroke="#ffe100" />
<use x="144.421" y="134.84" xlink:href="#dot"  stroke="#ff0000" />
<use x="150.775" y="139.884" xlink:href="#dot"  stroke="#00ebff" />
<use x="144.569" y="144.943" xlink:href="#dot"  stroke="#ffe100" />
<use x="135.06" y="130.132" xlink:href="#dot"  stroke="#ff0000" />
<use x="144.673" y="138.46" xlink:href="#dot"  stroke="#00ebff" />
<use x="133.239" y="144.176" xlink:href="#dot"  stroke="#ffe100" />
<use x="120.267" y="127.307" xlink:href="#dot"  stroke="#ff0000" />
<use x="133.425" y="140.28" xlink:href="#dot"  stroke="#00ebff" />
<use x="119.252" y="151.442" xlink:href="#dot"  stroke="#ffe100" />
<use x="102.415" y="131.829" xlink:href="#dot"  stroke="#ff0000" />
<use x="119.853" y="150.947" xlink:href="#dot"  stroke="#00ebff" />
<use x="110.238" y="177.536" xlink:href="#dot"  stroke="#ffe100" />
<use x="88.8147" y="154.363" xlink:href="#dot"  stroke="#ff0000" />
<use x="112.104" y="181.453" xlink:href="#dot"  stroke="#00ebff" />
<use x="165.181" y="181.936" xlink:href="#dot"  stroke="#ffe100" />
<use x="182.626" y="154.72" xlink:href="#dot"  stroke="#ff0000" />
<use x="163.33" y="189.424" xlink:href="#dot"  stroke="#00ebff" />
<use x="160.715" y="151.649" xlink:href="#dot"  stroke="#ffe100" />
<use x="174.106" y="127.623" xlink:href="#dot"  stroke="#ff0000" />
<use x="159.654" y="155.224" xlink:href="#dot"  stroke="#00ebff" />
<use x="153.853" y="140.323" xlink:href="#dot"  stroke="#ffe100" />
<use x="163.647" y="118.654" xlink:href="#dot"  stroke="#ff0000" />
<use x="153.14" y="141.017" xlink:href="#dot"  stroke="#00ebff" />
<use x="149.494" y="137.598" xlink:href="#dot"  stroke="#ffe100" />
<use x="155.931" y="117.562" xlink:href="#dot"  stroke="#ff0000" />
<use x="149.005" y="136.286" xlink:href="#dot"  stroke="#00ebff" />
<use x="148.612" y="137.851" xlink:href="#dot"  stroke="#ffe100" />
<use x="151.808" y="118.778" xlink:href="#dot"  stroke="#ff0000" />
<use x="148.353" y="135.347" xlink:href="#dot"  stroke="#00ebff" />
<use x="150" y="138.229" xlink:href="#dot"  stroke="#ffe100" />
<use x="150" y="119.474" xlink:href="#dot"  stroke="#ff0000" />
<use x="150" y="135.328" xlink:href="#dot"  stroke="#00ebff" />
<use x="151.388" y="137.851" xlink:href="#dot"  stroke="#ffe100" />
<use x="148.192" y="118.778" xlink:href="#dot"  stroke="#ff0000" />
<use x="151.647" y="135.347" xlink:href="#dot"  stroke="#00ebff" />
<use x="150.506" y="137.598" xlink:href="#dot"  stroke="#ffe100" />
<use x="144.069" y="117.562" xlink:href="#dot"  stroke="#ff0000" />
<use x="150.995" y="136.286" xlink:href="#dot"  stroke="#00ebff" />
<use x="146.147" y="140.323" xlink:href="#dot"  stroke="#ffe100" />
<use x="136.353" y="118.654" xlink:href="#dot"  stroke="#ff0000" />
<use x="146.86" y="141.017" xlink:href="#dot"  stroke="#00ebff" />
<use x="139.285" y="151.649" xlink:href="#dot"  stroke="#ffe100" />
<use x="125.894" y="127.623" xlink:href="#dot"  stroke="#ff0000" />
<use x="140.346" y="155.224" xlink:href="#dot"  stroke="#00ebff" />
<use x="134.819" y="181.936" xlink:href="#dot"  stroke="#ffe100" />
<use x="117.374" y="154.72" xlink:href="#dot"  stroke="#ff0000" />
<use x="136.67" y="189.424" xlink:href="#dot"  stroke="#00ebff" />
<use x="144.844" y="198.764" xlink:href="#dot"  stroke="#ffe100" />
<use x="158.79" y="167.326" xlink:href="#dot"  stroke="#ff0000" />
<use x="142.794" y="210.332" xlink:href="#dot"  stroke="#00ebff" />
<use x="146.906" y="162.596" xlink:href="#dot"  stroke="#ffe100" />
<use x="157.06" y="133.885" xlink:href="#dot"  stroke="#ff0000" />
<use x="145.559" y="170.87" xlink:href="#dot"  stroke="#00ebff" />
<use x="146.876" y="146.307" xlink:href="#dot"  stroke="#ffe100" />
<use x="153.532" y="119.461" xlink:href="#dot"  stroke="#ff0000" />
<use x="146.005" y="152.355" xlink:href="#dot"  stroke="#00ebff" />
<use x="147.858" y="139.891" xlink:href="#dot"  stroke="#ffe100" />
<use x="151.158" y="114.134" xlink:href="#dot"  stroke="#ff0000" />
<use x="147.418" y="144.639" xlink:href="#dot"  stroke="#00ebff" />
<use x="150" y="138.275" xlink:href="#dot"  stroke="#ffe100" />
<use x="150" y="112.876" xlink:href="#dot"  stroke="#ff0000" />
<use x="150" y="142.595" xlink:href="#dot"  stroke="#00ebff" />
<use x="152.142" y="139.891" xlink:href="#dot"  stroke="#ffe100" />
<use x="148.842" y="114.134" xlink:href="#dot"  stroke="#ff0000" />
<use x="152.582" y="144.639" xlink:href="#dot"  stroke="#00ebff" />
<use x="153.124" y="146.307" xlink:href="#dot"  stroke="#ffe100" />
<use x="146.468" y="119.461" xlink:href="#dot"  stroke="#ff0000" />
<use x="153.995" y="152.355" xlink:href="#dot"  stroke="#00ebff" />
<use x="153.094" y="162.596" xlink:href="#dot"  stroke="#ffe100" />
<use x="142.94" y="133.885" xlink:href="#dot"  stroke="#ff0000" />
<use x="154.441" y="170.87" xlink:href="#dot"  stroke="#00ebff" />
<use x="155.156" y="198.764" xlink:href="#dot"  stroke="#ffe100" />
<use x="141.21" y="167.326" xlink:href="#dot"  stroke="#ff0000" />
<use x="157.206" y="210.332" xlink:href="#dot"  stroke="#00ebff" />
<use x="139.241" y="196.36" xlink:href="#dot"  stroke="#ffe100" />
<use x="146.168" y="162.522" xlink:href="#dot"  stroke="#ff0000" />
<use x="137.96" y="210.076" xlink:href="#dot"  stroke="#00ebff" />
<use x="144.89" y="176.712" xlink:href="#dot"  stroke="#ffe100" />
<use x="148.316" y="144.132" xlink:href="#dot"  stroke="#ff0000" />
<use x="144.264" y="188.95" xlink:href="#dot"  stroke="#00ebff" />
<use x="150" y="171.047" xlink:href="#dot"  stroke="#ffe100" />
<use x="150" y="138.879" xlink:href="#dot"  stroke="#ff0000" />
<use x="150" y="182.803" xlink:href="#dot"  stroke="#00ebff" />
<use x="155.11" y="176.712" xlink:href="#dot"  stroke="#ffe100" />
<use x="151.684" y="144.132" xlink:href="#dot"  stroke="#ff0000" />
<use x="155.736" y="188.95" xlink:href="#dot"  stroke="#00ebff" />
<use x="160.759" y="196.36" xlink:href="#dot"  stroke="#ffe100" />
<use x="153.832" y="162.522" xlink:href="#dot"  stroke="#ff0000" />
<use x="162.04" y="210.076" xlink:href="#dot"  stroke="#00ebff" />
</svg>
