<?xml version="1.0" standalone="no"?>
<svg width="640px" height="480px" version="1.1" xmlns="http://www.w3.org/2000/svg" xmlns:xlink="http://www.w3.org/1999/xlink">
<rect x="0" y="0" width="640" height="480"  fill="#ffffff" />
<defs>
<g id="dot">
<line x1="1" y1="1" x2="0" y2="0"  />
</g>
<g id="cross">
<line x1="-3" y1="0" x2="3" y2="0"  />
<line x1="0" y1="-3" x2="0" y2="3"  />
</g>
<g id="square">
<line x1="-3" y1="-3" x2="-3" y2="3"  />
<line x1="-3" y1="3" x2="3" y2="3"  />
<line x1="3" y1="3" x2="3" y2="-3"  />
<line x1="3" y1="-3" x2="-3" y2="-3"  />
</g>
<g id="round">
<ellipse cx="0" cy="0" rx="3" ry="3"  fill="none" /></g>
<g id="triangle">
<line x1="0" y1="-3" x2="-3" y2="3"  />
<line x1="-3" y1="3" x2="3" y2="3"  />
<line x1="0" y1="-3" x2="3" y2="3"  />
</g>
</defs>
<polygon fill="none" stroke="#000000" points="66.0317,430.476 66.0317,49.5238 573.968,49.5238 573.968,430.476 " />
<text style="font-size:12;text-align:center;text-anchor:middle;" x="320" y="473.619" fill="#000000">Distance from spot centroid (um)</text>
<use x="66.0317" y="49.5238" xlink:href="#cross"  stroke="#000000" />
<use x="66.0317" y="430.476" xlink:href="#cross"  stroke="#000000" />
<text style="font-size:12;text-align:center;text-anchor:middle;" x="66.0317" y="448.476" fill="#000000">0</text>
<use x="119.879" y="49.5238" xlink:href="#cross"  stroke="#000000" />
<use x="119.879" y="430.476" xlink:href="#cross"  stroke="#000000" />
<text style="font-size:12;text-align:center;text-anchor:middle;" x="119.879" y="448.476" fill="#000000">2</text>
<use x="173.726" y="49.5238" xlink:href="#cross"  stroke="#000000" />
<use x="173.726" y="430.476" xlink:href="#cross"  stroke="#000000" />
<text style="font-size:12;text-align:center;text-anchor:middle;" x="173.726" y="448.476" fill="#000000">4</text>
<use x="227.574" y="49.5238" xlink:href="#cross"  stroke="#000000" />
<use x="227.574" y="430.476" xlink:href="#cross"  stroke="#000000" />
<text style="font-size:12;text-align:center;text-anchor:middle;" x="227.574" y="448.476" fill="#000000">6</text>
<use x="281.421" y="49.5238" xlink:href="#cross"  stroke="#000000" />
<use x="281.421" y="430.476" xlink:href="#cross"  stroke="#000000" />
<text style="font-size:12;text-align:center;text-anchor:middle;" x="281.421" y="448.476" fill="#000000">8</text>
<use x="335.269" y="49.5238" xlink:href="#cross"  stroke="#000000" />
<use x="335.269" y="430.476" xlink:href="#cross"  stroke="#000000" />
<text style="font-size:12;text-align:center;text-anchor:middle;" x="335.269" y="448.476" fill="#000000">10</text>
<use x="389.116" y="49.5238" xlink:href="#cross"  stroke="#000000" />
<use x="389.116" y="430.476" xlink:href="#cross"  stroke="#000000" />
<text style="font-size:12;text-align:center;text-anchor:middle;" x="389.116" y="448.476" fill="#000000">12</text>
<use x="442.963" y="49.5238" xlink:href="#cross"  stroke="#000000" />
<use x="442.963" y="430.476" xlink:href="#cross"  stroke="#000000" />
<text style="font-size:12;text-align:center;text-anchor:middle;" x="442.963" y="448.476" fill="#000000">14</text>
<use x="496.811" y="49.5238" xlink:href="#cross"  stroke="#000000" />
<use x="496.811" y="430.476" xlink:href="#cross"  stroke="#000000" />
<text style="font-size:12;text-align:center;text-anchor:middle;" x="496.811" y="448.476" fill="#000000">16</text>
<use x="550.658" y="49.5238" xlink:href="#cross"  stroke="#000000" />
<use x="550.658" y="430.476" xlink:href="#cross"  stroke="#000000" />
<text style="font-size:12;text-align:center;text-anchor:middle;" x="550.658" y="448.476" fill="#000000">18</text>
<text style="font-size:12;text-align:center;text-anchor:middle;" x="16.5079" y="246" transform="rotate(-90,16.5079,240)" fill="#000000">Encircled intensity</text>
<use x="573.968" y="430.476" xlink:href="#cross"  stroke="#000000" />
<use x="66.0317" y="430.476" xlink:href="#cross"  stroke="#000000" />
<text style="font-size:12;text-align:right;text-anchor:end;" x="60.0317" y="436.476" fill="#000000">0</text>
<use x="573.968" y="372.931" xlink:href="#cross"  stroke="#000000" />
<use x="66.0317" y="372.931" xlink:href="#cross"  stroke="#000000" />
<text style="font-size:12;text-align:right;text-anchor:end;" x="60.0317" y="378.931" fill="#000000">50</text>
<use x="573.968" y="315.385" xlink:href="#cross"  stroke="#000000" />
<use x="66.0317" y="315.385" xlink:href="#cross"  stroke="#000000" />
<text style="font-size:12;text-align:right;text-anchor:end;" x="60.0317" y="321.385" fill="#000000">100</text>
<use x="573.968" y="257.839" xlink:href="#cross"  stroke="#000000" />
<use x="66.0317" y="257.839" xlink:href="#cross"  stroke="#000000" />
<text style="font-size:12;text-align:right;text-anchor:end;" x="60.0317" y="263.839" fill="#000000">150</text>
<use x="573.968" y="200.293" xlink:href="#cross"  stroke="#000000" />
<use x="66.0317" y="200.293" xlink:href="#cross"  stroke="#000000" />
<text style="font-size:12;text-align:right;text-anchor:end;" x="60.0317" y="206.293" fill="#000000">200</text>
<use x="573.968" y="142.748" xlink:href="#cross"  stroke="#000000" />
<use x="66.0317" y="142.748" xlink:href="#cross"  stroke="#000000" />
<text style="font-size:12;text-align:right;text-anchor:end;" x="60.0317" y="148.748" fill="#000000">250</text>
<use x="573.968" y="85.2021" xlink:href="#cross"  stroke="#000000" />
<use x="66.0317" y="85.2021" xlink:href="#cross"  stroke="#000000" />
<text style="font-size:12;text-align:right;text-anchor:end;" x="60.0317" y="91.2021" fill="#000000">300</text>
<text style="font-size:18;text-align:center;text-anchor:middle;" x="320" y="33.7619" fill="#000000">Spot diagram encircled rays intensity</text>
<line x1="66.0317" y1="430.476" x2="76.1905" y2="429.325"  stroke="#00ebff" />
<line x1="76.1905" y1="429.325" x2="86.3492" y2="408.609"  stroke="#00ebff" />
<line x1="86.3492" y1="408.609" x2="96.5079" y2="325.743"  stroke="#00ebff" />
<line x1="96.5079" y1="325.743" x2="106.667" y2="325.743"  stroke="#00ebff" />
<line x1="106.667" y1="325.743" x2="116.825" y2="284.31"  stroke="#00ebff" />
<line x1="116.825" y1="284.31" x2="126.984" y2="284.31"  stroke="#00ebff" />
<line x1="126.984" y1="284.31" x2="137.143" y2="284.31"  stroke="#00ebff" />
<line x1="137.143" y1="284.31" x2="147.302" y2="284.31"  stroke="#00ebff" />
<line x1="147.302" y1="284.31" x2="157.46" y2="284.31"  stroke="#00ebff" />
<line x1="157.46" y1="284.31" x2="167.619" y2="235.972"  stroke="#00ebff" />
<line x1="167.619" y1="235.972" x2="177.778" y2="235.972"  stroke="#00ebff" />
<line x1="177.778" y1="235.972" x2="187.937" y2="235.972"  stroke="#00ebff" />
<line x1="187.937" y1="235.972" x2="198.095" y2="235.972"  stroke="#00ebff" />
<line x1="198.095" y1="235.972" x2="208.254" y2="235.972"  stroke="#00ebff" />
<line x1="208.254" y1="235.972" x2="218.413" y2="235.972"  stroke="#00ebff" />
<line x1="218.413" y1="235.972" x2="228.571" y2="235.972"  stroke="#00ebff" />
<line x1="228.571" y1="235.972" x2="238.73" y2="180.728"  stroke="#00ebff" />
<line x1="238.73" y1="180.728" x2="248.889" y2="180.728"  stroke="#00ebff" />
<line x1="248.889" y1="180.728" x2="259.048" y2="180.728"  stroke="#00ebff" />
<line x1="259.048" y1="180.728" x2="269.206" y2="180.728"  stroke="#00ebff" />
<line x1="269.206" y1="180.728" x2="279.365" y2="180.728"  stroke="#00ebff" />
<line x1="279.365" y1="180.728" x2="289.524" y2="180.728"  stroke="#00ebff" />
<line x1="289.524" y1="180.728" x2="299.683" y2="180.728"  stroke="#00ebff" />
<line x1="299.683" y1="180.728" x2="309.841" y2="180.728"  stroke="#00ebff" />
<line x1="309.841" y1="180.728" x2="320" y2="180.728"  stroke="#00ebff" />
<line x1="320" y1="180.728" x2="330.159" y2="118.579"  stroke="#00ebff" />
<line x1="330.159" y1="118.579" x2="340.317" y2="118.579"  stroke="#00ebff" />
<line x1="340.317" y1="118.579" x2="350.476" y2="118.579"  stroke="#00ebff" />
<line x1="350.476" y1="118.579" x2="360.635" y2="118.579"  stroke="#00ebff" />
<line x1="360.635" y1="118.579" x2="370.794" y2="118.579"  stroke="#00ebff" />
<line x1="370.794" y1="118.579" x2="380.952" y2="49.5238"  stroke="#00ebff" />
<line x1="380.952" y1="49.5238" x2="391.111" y2="49.5238"  stroke="#00ebff" />
<line x1="391.111" y1="49.5238" x2="401.27" y2="49.5238"  stroke="#00ebff" />
<line x1="401.27" y1="49.5238" x2="411.429" y2="49.5238"  stroke="#00ebff" />
<line x1="411.429" y1="49.5238" x2="421.587" y2="49.5238"  stroke="#00ebff" />
<line x1="421.587" y1="49.5238" x2="431.746" y2="49.5238"  stroke="#00ebff" />
<line x1="431.746" y1="49.5238" x2="441.905" y2="49.5238"  stroke="#00ebff" />
<line x1="441.905" y1="49.5238" x2="452.063" y2="49.5238"  stroke="#00ebff" />
<line x1="452.063" y1="49.5238" x2="462.222" y2="49.5238"  stroke="#00ebff" />
<line x1="462.222" y1="49.5238" x2="472.381" y2="49.5238"  stroke="#00ebff" />
<line x1="472.381" y1="49.5238" x2="482.54" y2="49.5238"  stroke="#00ebff" />
<line x1="482.54" y1="49.5238" x2="492.698" y2="49.5238"  stroke="#00ebff" />
<line x1="492.698" y1="49.5238" x2="502.857" y2="49.5238"  stroke="#00ebff" />
<line x1="502.857" y1="49.5238" x2="513.016" y2="49.5238"  stroke="#00ebff" />
<line x1="513.016" y1="49.5238" x2="523.175" y2="49.5238"  stroke="#00ebff" />
<line x1="523.175" y1="49.5238" x2="533.333" y2="49.5238"  stroke="#00ebff" />
<line x1="533.333" y1="49.5238" x2="543.492" y2="49.5238"  stroke="#00ebff" />
<line x1="543.492" y1="49.5238" x2="553.651" y2="49.5238"  stroke="#00ebff" />
<line x1="553.651" y1="49.5238" x2="563.81" y2="49.5238"  stroke="#00ebff" />
<line x1="563.81" y1="49.5238" x2="573.968" y2="49.5238"  stroke="#00ebff" />
<line x1="66.0317" y1="430.476" x2="76.1905" y2="360.27"  stroke="#ffe100" />
<line x1="76.1905" y1="360.27" x2="86.3492" y2="270.499"  stroke="#ffe100" />
<line x1="86.3492" y1="270.499" x2="96.5079" y2="201.444"  stroke="#ffe100" />
<line x1="96.5079" y1="201.444" x2="106.667" y2="166.917"  stroke="#ffe100" />
<line x1="106.667" y1="166.917" x2="116.825" y2="166.917"  stroke="#ffe100" />
<line x1="116.825" y1="166.917" x2="126.984" y2="111.673"  stroke="#ffe100" />
<line x1="126.984" y1="111.673" x2="137.143" y2="111.673"  stroke="#ffe100" />
<line x1="137.143" y1="111.673" x2="147.302" y2="49.5238"  stroke="#ffe100" />
<line x1="147.302" y1="49.5238" x2="157.46" y2="49.5238"  stroke="#ffe100" />
<line x1="157.46" y1="49.5238" x2="167.619" y2="49.5238"  stroke="#ffe100" />
<line x1="167.619" y1="49.5238" x2="177.778" y2="49.5238"  stroke="#ffe100" />
<line x1="177.778" y1="49.5238" x2="187.937" y2="49.5238"  stroke="#ffe100" />
<line x1="187.937" y1="49.5238" x2="198.095" y2="49.5238"  stroke="#ffe100" />
<line x1="198.095" y1="49.5238" x2="208.254" y2="49.5238"  stroke="#ffe100" />
<line x1="208.254" y1="49.5238" x2="218.413" y2="49.5238"  stroke="#ffe100" />
<line x1="218.413" y1="49.5238" x2="228.571" y2="49.5238"  stroke="#ffe100" />
<line x1="228.571" y1="49.5238" x2="238.73" y2="49.5238"  stroke="#ffe100" />
<line x1="238.73" y1="49.5238" x2="248.889" y2="49.5238"  stroke="#ffe100" />
<line x1="248.889" y1="49.5238" x2="259.048" y2="49.5238"  stroke="#ffe100" />
<line x1="259.048" y1="49.5238" x2="269.206" y2="49.5238"  stroke="#ffe100" />
<line x1="269.206" y1="49.5238" x2="279.365" y2="49.5238"  stroke="#ffe100" />
<line x1="279.365" y1="49.5238" x2="289.524" y2="49.5238"  stroke="#ffe100" />
<line x1="289.524" y1="49.5238" x2="299.683" y2="49.5238"  stroke="#ffe100" />
<line x1="299.683" y1="49.5238" x2="309.841" y2="49.5238"  stroke="#ffe100" />
<line x1="309.841" y1="49.5238" x2="320" y2="49.5238"  stroke="#ffe100" />
<line x1="320" y1="49.5238" x2="330.159" y2="49.5238"  stroke="#ffe100" />
<line x1="330.159" y1="49.5238" x2="340.317" y2="49.5238"  stroke="#ffe100" />
<line x1="340.317" y1="49.5238" x2="350.476" y2="49.5238"  stroke="#ffe100" />
<line x1="350.476" y1="49.5238" x2="360.635" y2="49.5238"  stroke="#ffe100" />
<line x1="360.635" y1="49.5238" x2="370.794" y2="49.5238"  stroke="#ffe100" />
<line x1="370.794" y1="49.5238" x2="380.952" y2="49.5238"  stroke="#ffe100" />
<line x1="380.952" y1="49.5238" x2="391.111" y2="49.5238"  stroke="#ffe100" />
<line x1="391.111" y1="49.5238" x2="401.27" y2="49.5238"  stroke="#ffe100" />
<line x1="401.27" y1="49.5238" x2="411.429" y2="49.5238"  stroke="#ffe100" />
<line x1="411.429" y1="49.5238" x2="421.587" y2="49.5238"  stroke="#ffe100" />
<line x1="421.587" y1="49.5238" x2="431.746" y2="49.5238"  stroke="#ffe100" />
<line x1="431.746" y1="49.5238" x2="441.905" y2="49.5238"  stroke="#ffe100" />
<line x1="441.905" y1="49.5238" x2="452.063" y2="49.5238"  stroke="#ffe100" />
<line x1="452.063" y1="49.5238" x2="462.222" y2="49.5238"  stroke="#ffe100" />
<line x1="462.222" y1="49.5238" x2="472.381" y2="49.5238"  stroke="#ffe100" />
<line x1="472.381" y1="49.5238" x2="482.54" y2="49.5238"  stroke="#ffe100" />
<line x1="482.54" y1="49.5238" x2="492.698" y2="49.5238"  stroke="#ffe100" />
<line x1="492.698" y1="49.5238" x2="502.857" y2="49.5238"  stroke="#ffe100" />
<line x1="502.857" y1="49.5238" x2="513.016" y2="49.5238"  stroke="#ffe100" />
<line x1="513.016" y1="49.5238" x2="523.175" y2="49.5238"  stroke="#ffe100" />
<line x1="523.175" y1="49.5238" x2="533.333" y2="49.5238"  stroke="#ffe100" />
<line x1="533.333" y1="49.5238" x2="543.492" y2="49.5238"  stroke="#ffe100" />
<line x1="543.492" y1="49.5238" x2="553.651" y2="49.5238"  stroke="#ffe100" />
<line x1="553.651" y1="49.5238" x2="563.81" y2="49.5238"  stroke="#ffe100" />
<line x1="563.81" y1="49.5238" x2="573.968" y2="49.5238"  stroke="#ffe100" />
<line x1="66.0317" y1="430.476" x2="76.1905" y2="429.325"  stroke="#ff0000" />
<line x1="76.1905" y1="429.325" x2="86.3492" y2="429.325"  stroke="#ff0000" />
<line x1="86.3492" y1="429.325" x2="96.5079" y2="429.325"  stroke="#ff0000" />
<line x1="96.5079" y1="429.325" x2="106.667" y2="422.42"  stroke="#ff0000" />
<line x1="106.667" y1="422.42" x2="116.825" y2="422.42"  stroke="#ff0000" />
<line x1="116.825" y1="422.42" x2="126.984" y2="422.42"  stroke="#ff0000" />
<line x1="126.984" y1="422.42" x2="137.143" y2="408.609"  stroke="#ff0000" />
<line x1="137.143" y1="408.609" x2="147.302" y2="408.609"  stroke="#ff0000" />
<line x1="147.302" y1="408.609" x2="157.46" y2="408.609"  stroke="#ff0000" />
<line x1="157.46" y1="408.609" x2="167.619" y2="387.892"  stroke="#ff0000" />
<line x1="167.619" y1="387.892" x2="177.778" y2="387.892"  stroke="#ff0000" />
<line x1="177.778" y1="387.892" x2="187.937" y2="387.892"  stroke="#ff0000" />
<line x1="187.937" y1="387.892" x2="198.095" y2="387.892"  stroke="#ff0000" />
<line x1="198.095" y1="387.892" x2="208.254" y2="360.27"  stroke="#ff0000" />
<line x1="208.254" y1="360.27" x2="218.413" y2="360.27"  stroke="#ff0000" />
<line x1="218.413" y1="360.27" x2="228.571" y2="360.27"  stroke="#ff0000" />
<line x1="228.571" y1="360.27" x2="238.73" y2="360.27"  stroke="#ff0000" />
<line x1="238.73" y1="360.27" x2="248.889" y2="325.743"  stroke="#ff0000" />
<line x1="248.889" y1="325.743" x2="259.048" y2="325.743"  stroke="#ff0000" />
<line x1="259.048" y1="325.743" x2="269.206" y2="284.31"  stroke="#ff0000" />
<line x1="269.206" y1="284.31" x2="279.365" y2="235.972"  stroke="#ff0000" />
<line x1="279.365" y1="235.972" x2="289.524" y2="180.728"  stroke="#ff0000" />
<line x1="289.524" y1="180.728" x2="299.683" y2="180.728"  stroke="#ff0000" />
<line x1="299.683" y1="180.728" x2="309.841" y2="180.728"  stroke="#ff0000" />
<line x1="309.841" y1="180.728" x2="320" y2="180.728"  stroke="#ff0000" />
<line x1="320" y1="180.728" x2="330.159" y2="180.728"  stroke="#ff0000" />
<line x1="330.159" y1="180.728" x2="340.317" y2="180.728"  stroke="#ff0000" />
<line x1="340.317" y1="180.728" x2="350.476" y2="118.579"  stroke="#ff0000" />
<line x1="350.476" y1="118.579" x2="360.635" y2="118.579"  stroke="#ff0000" />
<line x1="360.635" y1="118.579" x2="370.794" y2="118.579"  stroke="#ff0000" />
<line x1="370.794" y1="118.579" x2="380.952" y2="118.579"  stroke="#ff0000" />
<line x1="380.952" y1="118.579" x2="391.111" y2="118.579"  stroke="#ff0000" />
<line x1="391.111" y1="118.579" x2="401.27" y2="118.579"  stroke="#ff0000" />
<line x1="401.27" y1="118.579" x2="411.429" y2="118.579"  stroke="#ff0000" />
<line x1="411.429" y1="118.579" x2="421.587" y2="118.579"  stroke="#ff0000" />
<line x1="421.587" y1="118.579" x2="431.746" y2="118.579"  stroke="#ff0000" />
<line x1="431.746" y1="118.579" x2="441.905" y2="118.579"  stroke="#ff0000" />
<line x1="441.905" y1="118.579" x2="452.063" y2="118.579"  stroke="#ff0000" />
<line x1="452.063" y1="118.579" x2="462.222" y2="118.579"  stroke="#ff0000" />
<line x1="462.222" y1="118.579" x2="472.381" y2="118.579"  stroke="#ff0000" />
<line x1="472.381" y1="118.579" x2="482.54" y2="118.579"  stroke="#ff0000" />
<line x1="482.54" y1="118.579" x2="492.698" y2="118.579"  stroke="#ff0000" />
<line x1="492.698" y1="118.579" x2="502.857" y2="118.579"  stroke="#ff0000" />
<line x1="502.857" y1="118.579" x2="513.016" y2="118.579"  stroke="#ff0000" />
<line x1="513.016" y1="118.579" x2="523.175" y2="118.579"  stroke="#ff0000" />
<line x1="523.175" y1="118.579" x2="533.333" y2="118.579"  stroke="#ff0000" />
<line x1="533.333" y1="118.579" x2="543.492" y2="118.579"  stroke="#ff0000" />
<line x1="543.492" y1="118.579" x2="553.651" y2="118.579"  stroke="#ff0000" />
<line x1="553.651" y1="118.579" x2="563.81" y2="50.6747"  stroke="#ff0000" />
<line x1="563.81" y1="50.6747" x2="573.968" y2="49.5238"  stroke="#ff0000" />
</svg>
