<?xml version="1.0" standalone="no"?>
<svg width="800px" height="400px" version="1.1" xmlns="http://www.w3.org/2000/svg" xmlns:xlink="http://www.w3.org/1999/xlink">
<rect x="0" y="0" width="800" height="400"  fill="#ffffff" />
<defs>
<g id="dot">
<line x1="1" y1="1" x2="0" y2="0"  />
</g>
<g id="cross">
<line x1="-3" y1="0" x2="3" y2="0"  />
<line x1="0" y1="-3" x2="0" y2="3"  />
</g>
<g id="square">
<line x1="-3" y1="-3" x2="-3" y2="3"  />
<line x1="-3" y1="3" x2="3" y2="3"  />
<line x1="3" y1="3" x2="3" y2="-3"  />
<line x1="3" y1="-3" x2="-3" y2="-3"  />
</g>
<g id="round">
<ellipse cx="0" cy="0" rx="3" ry="3"  fill="none" /></g>
<g id="triangle">
<line x1="0" y1="-3" x2="-3" y2="3"  />
<line x1="-3" y1="3" x2="3" y2="3"  />
<line x1="0" y1="-3" x2="3" y2="3"  />
</g>
</defs>
<line x1="211.71" y1="200" x2="588.29" y2="200"  stroke="#7f7f7f" />
<g><title>element</title>
<g>
<line x1="393.423" y1="155.936" x2="393.423" y2="111.872"  stroke="#7f7fff" />
<line x1="393.423" y1="244.064" x2="393.423" y2="288.128"  stroke="#7f7fff" />
</g>
<g>
<polyline fill="none" stroke="#7f7fff" points="217.95,131.217 217.699,132.606 217.452,133.996 217.211,135.386 216.976,136.775 216.745,138.165 216.52,139.554 216.3,140.944 216.085,142.333 215.876,143.723 215.672,145.113 215.473,146.502 215.279,147.892 215.09,149.281 214.907,150.671 214.728,152.06 214.555,153.45 214.387,154.839 214.225,156.229 214.067,157.619 213.915,159.008 213.767,160.398 213.625,161.787 213.488,163.177 213.356,164.566 213.229,165.956 213.108,167.345 212.991,168.735 212.879,170.125 212.773,171.514 212.672,172.904 212.576,174.293 212.484,175.683 212.398,177.072 212.317,178.462 212.241,179.851 212.171,181.241 212.105,182.631 212.044,184.02 211.989,185.41 211.938,186.799 211.893,188.189 211.852,189.578 211.817,190.968 211.786,192.357 211.761,193.747 211.741,195.137 211.726,196.526 211.716,197.916 211.711,199.305 211.711,200.695 211.716,202.084 211.726,203.474 211.741,204.863 211.761,206.253 211.786,207.643 211.817,209.032 211.852,210.422 211.893,211.811 211.938,213.201 211.989,214.59 212.044,215.98 212.105,217.369 212.171,218.759 212.241,220.149 212.317,221.538 212.398,222.928 212.484,224.317 212.576,225.707 212.672,227.096 212.773,228.486 212.879,229.875 212.991,231.265 213.108,232.655 213.229,234.044 213.356,235.434 213.488,236.823 213.625,238.213 213.767,239.602 213.915,240.992 214.067,242.381 214.225,243.771 214.387,245.161 214.555,246.55 214.728,247.94 214.907,249.329 215.09,250.719 215.279,252.108 215.473,253.498 215.672,254.887 215.876,256.277 216.085,257.667 216.3,259.056 216.52,260.446 216.745,261.835 216.976,263.225 217.211,264.614 217.452,266.004 217.699,267.394 217.95,268.783 " />
<line x1="246.093" y1="131.217" x2="246.093" y2="144.362"  stroke="#7f7fff" />
<line x1="217.95" y1="131.217" x2="246.093" y2="131.217"  stroke="#7f7fff" />
<line x1="246.093" y1="268.783" x2="246.093" y2="255.638"  stroke="#7f7fff" />
<line x1="217.95" y1="268.783" x2="246.093" y2="268.783"  stroke="#7f7fff" />
<polyline fill="none" stroke="#7f7fff" points="246.093,144.362 244.785,145.486 243.538,146.61 242.346,147.734 241.206,148.858 240.115,149.982 239.069,151.106 238.067,152.23 237.105,153.354 236.182,154.478 235.296,155.602 234.445,156.726 233.627,157.85 232.842,158.974 232.088,160.098 231.363,161.222 230.667,162.346 230,163.47 229.359,164.594 228.744,165.718 228.155,166.842 227.59,167.966 227.049,169.09 226.532,170.214 226.038,171.338 225.567,172.462 225.117,173.586 224.689,174.71 224.281,175.834 223.895,176.958 223.529,178.082 223.183,179.206 222.857,180.33 222.551,181.454 222.263,182.578 221.995,183.702 221.746,184.826 221.515,185.95 221.302,187.074 221.108,188.198 220.932,189.322 220.774,190.446 220.634,191.57 220.511,192.694 220.406,193.818 220.319,194.942 220.249,196.066 220.197,197.19 220.162,198.314 220.145,199.438 220.145,200.562 220.162,201.686 220.197,202.81 220.249,203.934 220.319,205.058 220.406,206.182 220.511,207.306 220.634,208.43 220.774,209.554 220.932,210.678 221.108,211.802 221.302,212.926 221.515,214.05 221.746,215.174 221.995,216.298 222.263,217.422 222.551,218.546 222.857,219.67 223.183,220.794 223.529,221.918 223.895,223.042 224.281,224.166 224.689,225.29 225.117,226.414 225.567,227.538 226.038,228.662 226.532,229.786 227.049,230.91 227.59,232.034 228.155,233.158 228.744,234.282 229.359,235.406 230,236.53 230.667,237.654 231.363,238.778 232.088,239.902 232.842,241.026 233.627,242.15 234.445,243.274 235.296,244.398 236.182,245.522 237.105,246.646 238.067,247.77 239.069,248.894 240.115,250.018 241.206,251.142 242.346,252.266 243.538,253.39 244.785,254.514 246.093,255.638 " />
</g>
<g>
<polyline fill="none" stroke="#7f7fff" points="253.818,145.685 253.641,146.782 253.467,147.879 253.297,148.976 253.13,150.074 252.968,151.171 252.809,152.268 252.653,153.366 252.502,154.463 252.354,155.56 252.21,156.657 252.069,157.755 251.932,158.852 251.799,159.949 251.669,161.046 251.543,162.144 251.421,163.241 251.302,164.338 251.187,165.436 251.076,166.533 250.968,167.63 250.864,168.727 250.763,169.825 250.666,170.922 250.573,172.019 250.483,173.117 250.397,174.214 250.315,175.311 250.236,176.408 250.161,177.506 250.089,178.603 250.021,179.7 249.956,180.798 249.896,181.895 249.838,182.992 249.785,184.089 249.734,185.187 249.688,186.284 249.645,187.381 249.606,188.479 249.57,189.576 249.538,190.673 249.509,191.77 249.484,192.868 249.463,193.965 249.445,195.062 249.43,196.16 249.42,197.257 249.412,198.354 249.409,199.451 249.409,200.549 249.412,201.646 249.42,202.743 249.43,203.84 249.445,204.938 249.463,206.035 249.484,207.132 249.509,208.23 249.538,209.327 249.57,210.424 249.606,211.521 249.645,212.619 249.688,213.716 249.734,214.813 249.785,215.911 249.838,217.008 249.896,218.105 249.956,219.202 250.021,220.3 250.089,221.397 250.161,222.494 250.236,223.592 250.315,224.689 250.397,225.786 250.483,226.883 250.573,227.981 250.666,229.078 250.763,230.175 250.864,231.273 250.968,232.37 251.076,233.467 251.187,234.564 251.302,235.662 251.421,236.759 251.543,237.856 251.669,238.954 251.799,240.051 251.932,241.148 252.069,242.245 252.21,243.343 252.354,244.44 252.502,245.537 252.653,246.634 252.809,247.732 252.968,248.829 253.13,249.926 253.297,251.024 253.467,252.121 253.641,253.218 253.818,254.315 " />
<line x1="262.175" y1="145.685" x2="262.175" y2="147.09"  stroke="#7f7fff" />
<line x1="253.818" y1="145.685" x2="262.175" y2="145.685"  stroke="#7f7fff" />
<line x1="262.175" y1="254.315" x2="262.175" y2="252.91"  stroke="#7f7fff" />
<line x1="253.818" y1="254.315" x2="262.175" y2="254.315"  stroke="#7f7fff" />
<polyline fill="none" stroke="#7f7fff" points="262.175,147.09 262.526,148.159 262.869,149.228 263.205,150.297 263.533,151.366 263.853,152.434 264.165,153.503 264.469,154.572 264.766,155.641 265.055,156.71 265.337,157.779 265.611,158.848 265.878,159.917 266.138,160.986 266.39,162.054 266.634,163.123 266.871,164.192 267.101,165.261 267.324,166.33 267.539,167.399 267.747,168.468 267.948,169.537 268.142,170.606 268.329,171.674 268.508,172.743 268.681,173.812 268.846,174.881 269.005,175.95 269.156,177.019 269.3,178.088 269.438,179.157 269.568,180.226 269.692,181.294 269.808,182.363 269.918,183.432 270.02,184.501 270.116,185.57 270.205,186.639 270.287,187.708 270.362,188.777 270.43,189.846 270.492,190.914 270.546,191.983 270.594,193.052 270.635,194.121 270.669,195.19 270.696,196.259 270.717,197.328 270.73,198.397 270.737,199.466 270.737,200.534 270.73,201.603 270.717,202.672 270.696,203.741 270.669,204.81 270.635,205.879 270.594,206.948 270.546,208.017 270.492,209.086 270.43,210.154 270.362,211.223 270.287,212.292 270.205,213.361 270.116,214.43 270.02,215.499 269.918,216.568 269.808,217.637 269.692,218.706 269.568,219.774 269.438,220.843 269.3,221.912 269.156,222.981 269.005,224.05 268.846,225.119 268.681,226.188 268.508,227.257 268.329,228.326 268.142,229.394 267.948,230.463 267.747,231.532 267.539,232.601 267.324,233.67 267.101,234.739 266.871,235.808 266.634,236.877 266.39,237.946 266.138,239.014 265.878,240.083 265.611,241.152 265.337,242.221 265.055,243.29 264.766,244.359 264.469,245.428 264.165,246.497 263.853,247.566 263.533,248.634 263.205,249.703 262.869,250.772 262.526,251.841 262.175,252.91 " />
<line x1="281.768" y1="147.09" x2="281.768" y2="152.96"  stroke="#7f7fff" />
<line x1="262.175" y1="147.09" x2="281.768" y2="147.09"  stroke="#7f7fff" />
<line x1="281.768" y1="252.91" x2="281.768" y2="247.04"  stroke="#7f7fff" />
<line x1="262.175" y1="252.91" x2="281.768" y2="252.91"  stroke="#7f7fff" />
<polyline fill="none" stroke="#7f7fff" points="281.768,152.96 281.6,153.91 281.436,154.86 281.275,155.811 281.117,156.761 280.963,157.711 280.813,158.662 280.666,159.612 280.523,160.562 280.383,161.512 280.246,162.463 280.113,163.413 279.984,164.363 279.858,165.314 279.735,166.264 279.616,167.214 279.501,168.165 279.388,169.115 279.28,170.065 279.174,171.016 279.073,171.966 278.974,172.916 278.879,173.866 278.788,174.817 278.699,175.767 278.615,176.717 278.533,177.668 278.455,178.618 278.381,179.568 278.31,180.519 278.242,181.469 278.178,182.419 278.117,183.37 278.06,184.32 278.005,185.27 277.955,186.221 277.907,187.171 277.863,188.121 277.823,189.071 277.786,190.022 277.752,190.972 277.722,191.922 277.695,192.873 277.671,193.823 277.651,194.773 277.634,195.724 277.62,196.674 277.61,197.624 277.603,198.575 277.6,199.525 277.6,200.475 277.603,201.425 277.61,202.376 277.62,203.326 277.634,204.276 277.651,205.227 277.671,206.177 277.695,207.127 277.722,208.078 277.752,209.028 277.786,209.978 277.823,210.929 277.863,211.879 277.907,212.829 277.955,213.779 278.005,214.73 278.06,215.68 278.117,216.63 278.178,217.581 278.242,218.531 278.31,219.481 278.381,220.432 278.455,221.382 278.533,222.332 278.615,223.283 278.699,224.233 278.788,225.183 278.879,226.134 278.974,227.084 279.073,228.034 279.174,228.984 279.28,229.935 279.388,230.885 279.501,231.835 279.616,232.786 279.735,233.736 279.858,234.686 279.984,235.637 280.113,236.587 280.246,237.537 280.383,238.488 280.523,239.438 280.666,240.388 280.813,241.338 280.963,242.289 281.117,243.239 281.275,244.189 281.436,245.14 281.6,246.09 281.768,247.04 " />
</g>
<g>
<polyline fill="none" stroke="#7f7fff" points="289.115,154.696 289.537,155.611 289.949,156.526 290.351,157.441 290.742,158.357 291.124,159.272 291.496,160.187 291.858,161.102 292.21,162.018 292.553,162.933 292.886,163.848 293.21,164.763 293.524,165.679 293.829,166.594 294.126,167.509 294.413,168.424 294.691,169.34 294.96,170.255 295.221,171.17 295.472,172.085 295.715,173.001 295.949,173.916 296.175,174.831 296.392,175.746 296.601,176.661 296.801,177.577 296.993,178.492 297.177,179.407 297.352,180.322 297.519,181.238 297.678,182.153 297.829,183.068 297.972,183.983 298.106,184.899 298.233,185.814 298.351,186.729 298.461,187.644 298.564,188.56 298.658,189.475 298.745,190.39 298.823,191.305 298.894,192.22 298.957,193.136 299.011,194.051 299.059,194.966 299.098,195.881 299.129,196.797 299.152,197.712 299.168,198.627 299.176,199.542 299.176,200.458 299.168,201.373 299.152,202.288 299.129,203.203 299.098,204.119 299.059,205.034 299.011,205.949 298.957,206.864 298.894,207.78 298.823,208.695 298.745,209.61 298.658,210.525 298.564,211.44 298.461,212.356 298.351,213.271 298.233,214.186 298.106,215.101 297.972,216.017 297.829,216.932 297.678,217.847 297.519,218.762 297.352,219.678 297.177,220.593 296.993,221.508 296.801,222.423 296.601,223.339 296.392,224.254 296.175,225.169 295.949,226.084 295.715,226.999 295.472,227.915 295.221,228.83 294.96,229.745 294.691,230.66 294.413,231.576 294.126,232.491 293.829,233.406 293.524,234.321 293.21,235.237 292.886,236.152 292.553,237.067 292.21,237.982 291.858,238.898 291.496,239.813 291.124,240.728 290.742,241.643 290.351,242.559 289.949,243.474 289.537,244.389 289.115,245.304 " />
<line x1="289.115" y1="147.834" x2="289.115" y2="154.696"  stroke="#7f7fff" />
<line x1="289.115" y1="147.834" x2="323.119" y2="147.834"  stroke="#7f7fff" />
<line x1="289.115" y1="252.166" x2="289.115" y2="245.304"  stroke="#7f7fff" />
<line x1="289.115" y1="252.166" x2="323.119" y2="252.166"  stroke="#7f7fff" />
<polyline fill="none" stroke="#7f7fff" points="323.119,147.834 322.716,148.888 322.323,149.942 321.94,150.996 321.565,152.049 321.2,153.103 320.844,154.157 320.497,155.211 320.158,156.265 319.829,157.319 319.508,158.373 319.196,159.426 318.893,160.48 318.599,161.534 318.312,162.588 318.035,163.642 317.766,164.696 317.505,165.75 317.253,166.803 317.009,167.857 316.773,168.911 316.545,169.965 316.326,171.019 316.115,172.073 315.912,173.127 315.717,174.18 315.53,175.234 315.351,176.288 315.18,177.342 315.017,178.396 314.862,179.45 314.715,180.504 314.576,181.557 314.444,182.611 314.321,183.665 314.205,184.719 314.097,185.773 313.997,186.827 313.905,187.881 313.82,188.934 313.743,189.988 313.674,191.042 313.612,192.096 313.559,193.15 313.513,194.204 313.474,195.258 313.444,196.311 313.42,197.365 313.405,198.419 313.397,199.473 313.397,200.527 313.405,201.581 313.42,202.635 313.444,203.689 313.474,204.742 313.513,205.796 313.559,206.85 313.612,207.904 313.674,208.958 313.743,210.012 313.82,211.066 313.905,212.119 313.997,213.173 314.097,214.227 314.205,215.281 314.321,216.335 314.444,217.389 314.576,218.443 314.715,219.496 314.862,220.55 315.017,221.604 315.18,222.658 315.351,223.712 315.53,224.766 315.717,225.82 315.912,226.873 316.115,227.927 316.326,228.981 316.545,230.035 316.773,231.089 317.009,232.143 317.253,233.197 317.505,234.25 317.766,235.304 318.035,236.358 318.312,237.412 318.599,238.466 318.893,239.52 319.196,240.574 319.508,241.627 319.829,242.681 320.158,243.735 320.497,244.789 320.844,245.843 321.2,246.897 321.565,247.951 321.94,249.004 322.323,250.058 322.716,251.112 323.119,252.166 " />
<line x1="323.119" y1="146.677" x2="323.119" y2="147.834"  stroke="#7f7fff" />
<line x1="323.119" y1="146.677" x2="330.421" y2="146.677"  stroke="#7f7fff" />
<line x1="323.119" y1="253.323" x2="323.119" y2="252.166"  stroke="#7f7fff" />
<line x1="323.119" y1="253.323" x2="330.421" y2="253.323"  stroke="#7f7fff" />
<polyline fill="none" stroke="#7f7fff" points="330.421,146.677 330.843,147.754 331.254,148.831 331.656,149.908 332.049,150.986 332.431,152.063 332.805,153.14 333.168,154.217 333.522,155.295 333.867,156.372 334.203,157.449 334.53,158.526 334.847,159.603 335.156,160.681 335.455,161.758 335.746,162.835 336.027,163.912 336.3,164.99 336.564,166.067 336.819,167.144 337.066,168.221 337.304,169.299 337.533,170.376 337.754,171.453 337.966,172.53 338.17,173.608 338.366,174.685 338.553,175.762 338.732,176.839 338.902,177.917 339.064,178.994 339.218,180.071 339.363,181.148 339.501,182.226 339.63,183.303 339.751,184.38 339.864,185.457 339.968,186.534 340.065,187.612 340.153,188.689 340.234,189.766 340.306,190.843 340.37,191.921 340.426,192.998 340.474,194.075 340.514,195.152 340.547,196.23 340.571,197.307 340.587,198.384 340.595,199.461 340.595,200.539 340.587,201.616 340.571,202.693 340.547,203.77 340.514,204.848 340.474,205.925 340.426,207.002 340.37,208.079 340.306,209.157 340.234,210.234 340.153,211.311 340.065,212.388 339.968,213.466 339.864,214.543 339.751,215.62 339.63,216.697 339.501,217.774 339.363,218.852 339.218,219.929 339.064,221.006 338.902,222.083 338.732,223.161 338.553,224.238 338.366,225.315 338.17,226.392 337.966,227.47 337.754,228.547 337.533,229.624 337.304,230.701 337.066,231.779 336.819,232.856 336.564,233.933 336.3,235.01 336.027,236.088 335.746,237.165 335.455,238.242 335.156,239.319 334.847,240.397 334.53,241.474 334.203,242.551 333.867,243.628 333.522,244.705 333.168,245.783 332.805,246.86 332.431,247.937 332.049,249.014 331.656,250.092 331.254,251.169 330.843,252.246 330.421,253.323 " />
</g>
<g>
<polyline fill="none" stroke="#7f7fff" points="358.191,146.015 357.487,147.106 356.803,148.196 356.138,149.287 355.493,150.378 354.867,151.468 354.258,152.559 353.668,153.649 353.095,154.74 352.54,155.831 352.001,156.921 351.479,158.012 350.973,159.102 350.484,160.193 350.01,161.284 349.552,162.374 349.108,163.465 348.68,164.555 348.267,165.646 347.869,166.737 347.485,167.827 347.115,168.918 346.76,170.008 346.418,171.099 346.09,172.19 345.776,173.28 345.476,174.371 345.189,175.461 344.915,176.552 344.654,177.643 344.406,178.733 344.172,179.824 343.95,180.914 343.741,182.005 343.545,183.096 343.361,184.186 343.19,185.277 343.031,186.367 342.885,187.458 342.751,188.549 342.63,189.639 342.521,190.73 342.424,191.82 342.339,192.911 342.266,194.002 342.206,195.092 342.158,196.183 342.121,197.273 342.097,198.364 342.085,199.455 342.085,200.545 342.097,201.636 342.121,202.727 342.158,203.817 342.206,204.908 342.266,205.998 342.339,207.089 342.424,208.18 342.521,209.27 342.63,210.361 342.751,211.451 342.885,212.542 343.031,213.633 343.19,214.723 343.361,215.814 343.545,216.904 343.741,217.995 343.95,219.086 344.172,220.176 344.406,221.267 344.654,222.357 344.915,223.448 345.189,224.539 345.476,225.629 345.776,226.72 346.09,227.81 346.418,228.901 346.76,229.992 347.115,231.082 347.485,232.173 347.869,233.263 348.267,234.354 348.68,235.445 349.108,236.535 349.552,237.626 350.01,238.716 350.484,239.807 350.973,240.898 351.479,241.988 352.001,243.079 352.54,244.169 353.095,245.26 353.668,246.351 354.258,247.441 354.867,248.532 355.493,249.622 356.138,250.713 356.803,251.804 357.487,252.894 358.191,253.985 " />
<line x1="367.837" y1="146.015" x2="367.837" y2="147.834"  stroke="#7f7fff" />
<line x1="358.191" y1="146.015" x2="367.837" y2="146.015"  stroke="#7f7fff" />
<line x1="367.837" y1="253.985" x2="367.837" y2="252.166"  stroke="#7f7fff" />
<line x1="358.191" y1="253.985" x2="367.837" y2="253.985"  stroke="#7f7fff" />
<polyline fill="none" stroke="#7f7fff" points="367.837,147.834 368.026,148.888 368.21,149.942 368.39,150.996 368.566,152.049 368.739,153.103 368.907,154.157 369.072,155.211 369.233,156.265 369.389,157.319 369.542,158.373 369.691,159.426 369.836,160.48 369.977,161.534 370.115,162.588 370.248,163.642 370.378,164.696 370.503,165.75 370.625,166.803 370.743,167.857 370.857,168.911 370.967,169.965 371.074,171.019 371.176,172.073 371.275,173.127 371.37,174.18 371.461,175.234 371.548,176.288 371.632,177.342 371.711,178.396 371.787,179.45 371.859,180.504 371.927,181.557 371.992,182.611 372.052,183.665 372.109,184.719 372.162,185.773 372.211,186.827 372.257,187.881 372.298,188.934 372.336,189.988 372.37,191.042 372.401,192.096 372.427,193.15 372.45,194.204 372.469,195.258 372.484,196.311 372.495,197.365 372.503,198.419 372.507,199.473 372.507,200.527 372.503,201.581 372.495,202.635 372.484,203.689 372.469,204.742 372.45,205.796 372.427,206.85 372.401,207.904 372.37,208.958 372.336,210.012 372.298,211.066 372.257,212.119 372.211,213.173 372.162,214.227 372.109,215.281 372.052,216.335 371.992,217.389 371.927,218.443 371.859,219.496 371.787,220.55 371.711,221.604 371.632,222.658 371.548,223.712 371.461,224.766 371.37,225.82 371.275,226.873 371.176,227.927 371.074,228.981 370.967,230.035 370.857,231.089 370.743,232.143 370.625,233.197 370.503,234.25 370.378,235.304 370.248,236.358 370.115,237.412 369.977,238.466 369.836,239.52 369.691,240.574 369.542,241.627 369.389,242.681 369.233,243.735 369.072,244.789 368.907,245.843 368.739,246.897 368.566,247.951 368.39,249.004 368.21,250.058 368.026,251.112 367.837,252.166 " />
</g>
<g>
<polyline fill="none" stroke="#7f7fff" points="376.841,151.472 376.667,152.452 376.499,153.432 376.338,154.413 376.184,155.393 376.035,156.373 375.892,157.354 375.755,158.334 375.624,159.315 375.498,160.295 375.377,161.275 375.262,162.256 375.151,163.236 375.044,164.216 374.942,165.197 374.844,166.177 374.75,167.158 374.66,168.138 374.573,169.118 374.489,170.099 374.409,171.079 374.332,172.059 374.258,173.04 374.187,174.02 374.119,175.001 374.053,175.981 373.991,176.961 373.93,177.942 373.873,178.922 373.817,179.902 373.765,180.883 373.715,181.863 373.667,182.843 373.622,183.824 373.579,184.804 373.539,185.785 373.501,186.765 373.466,187.745 373.433,188.726 373.403,189.706 373.376,190.686 373.351,191.667 373.329,192.647 373.31,193.628 373.293,194.608 373.279,195.588 373.268,196.569 373.26,197.549 373.254,198.529 373.251,199.51 373.251,200.49 373.254,201.471 373.26,202.451 373.268,203.431 373.279,204.412 373.293,205.392 373.31,206.372 373.329,207.353 373.351,208.333 373.376,209.314 373.403,210.294 373.433,211.274 373.466,212.255 373.501,213.235 373.539,214.215 373.579,215.196 373.622,216.176 373.667,217.157 373.715,218.137 373.765,219.117 373.817,220.098 373.873,221.078 373.93,222.058 373.991,223.039 374.053,224.019 374.119,224.999 374.187,225.98 374.258,226.96 374.332,227.941 374.409,228.921 374.489,229.901 374.573,230.882 374.66,231.862 374.75,232.842 374.844,233.823 374.942,234.803 375.044,235.784 375.151,236.764 375.262,237.744 375.377,238.725 375.498,239.705 375.624,240.685 375.755,241.666 375.892,242.646 376.035,243.627 376.184,244.607 376.338,245.587 376.499,246.568 376.667,247.548 376.841,248.528 " />
<line x1="385.014" y1="151.472" x2="385.014" y2="153.952"  stroke="#7f7fff" />
<line x1="376.841" y1="151.472" x2="385.014" y2="151.472"  stroke="#7f7fff" />
<line x1="385.014" y1="248.528" x2="385.014" y2="246.048"  stroke="#7f7fff" />
<line x1="376.841" y1="248.528" x2="385.014" y2="248.528"  stroke="#7f7fff" />
<polyline fill="none" stroke="#7f7fff" points="385.014,153.952 384.674,154.882 384.348,155.812 384.034,156.743 383.734,157.673 383.445,158.603 383.168,159.533 382.902,160.464 382.646,161.394 382.401,162.324 382.164,163.254 381.937,164.185 381.719,165.115 381.509,166.045 381.306,166.975 381.112,167.906 380.924,168.836 380.744,169.766 380.571,170.697 380.404,171.627 380.244,172.557 380.089,173.487 379.941,174.418 379.799,175.348 379.662,176.278 379.531,177.208 379.406,178.139 379.286,179.069 379.171,179.999 379.062,180.93 378.957,181.86 378.858,182.79 378.765,183.72 378.676,184.651 378.593,185.581 378.515,186.511 378.441,187.441 378.374,188.372 378.311,189.302 378.253,190.232 378.201,191.162 378.153,192.093 378.111,193.023 378.075,193.953 378.043,194.884 378.017,195.814 377.996,196.744 377.98,197.674 377.969,198.605 377.964,199.535 377.964,200.465 377.969,201.395 377.98,202.326 377.996,203.256 378.017,204.186 378.043,205.116 378.075,206.047 378.111,206.977 378.153,207.907 378.201,208.838 378.253,209.768 378.311,210.698 378.374,211.628 378.441,212.559 378.515,213.489 378.593,214.419 378.676,215.349 378.765,216.28 378.858,217.21 378.957,218.14 379.062,219.07 379.171,220.001 379.286,220.931 379.406,221.861 379.531,222.792 379.662,223.722 379.799,224.652 379.941,225.582 380.089,226.513 380.244,227.443 380.404,228.373 380.571,229.303 380.744,230.234 380.924,231.164 381.112,232.094 381.306,233.025 381.509,233.955 381.719,234.885 381.937,235.815 382.164,236.746 382.401,237.676 382.646,238.606 382.902,239.536 383.168,240.467 383.445,241.397 383.734,242.327 384.034,243.257 384.348,244.188 384.674,245.118 385.014,246.048 " />
</g>
<g>
<polyline fill="none" stroke="#7f7fff" points="425.764,160.483 426.198,161.281 426.62,162.079 427.031,162.878 427.431,163.676 427.82,164.474 428.198,165.273 428.566,166.071 428.924,166.869 429.272,167.668 429.609,168.466 429.937,169.264 430.255,170.063 430.563,170.861 430.862,171.659 431.152,172.458 431.432,173.256 431.703,174.054 431.964,174.853 432.217,175.651 432.461,176.449 432.696,177.248 432.922,178.046 433.14,178.844 433.349,179.643 433.549,180.441 433.741,181.239 433.924,182.038 434.1,182.836 434.266,183.634 434.425,184.433 434.575,185.231 434.717,186.029 434.851,186.828 434.977,187.626 435.095,188.424 435.205,189.223 435.307,190.021 435.401,190.819 435.487,191.618 435.565,192.416 435.635,193.214 435.697,194.013 435.752,194.811 435.799,195.609 435.838,196.408 435.869,197.206 435.892,198.004 435.908,198.803 435.915,199.601 435.915,200.399 435.908,201.197 435.892,201.996 435.869,202.794 435.838,203.592 435.799,204.391 435.752,205.189 435.697,205.987 435.635,206.786 435.565,207.584 435.487,208.382 435.401,209.181 435.307,209.979 435.205,210.777 435.095,211.576 434.977,212.374 434.851,213.172 434.717,213.971 434.575,214.769 434.425,215.567 434.266,216.366 434.1,217.164 433.924,217.962 433.741,218.761 433.549,219.559 433.349,220.357 433.14,221.156 432.922,221.954 432.696,222.752 432.461,223.551 432.217,224.349 431.964,225.147 431.703,225.946 431.432,226.744 431.152,227.542 430.862,228.341 430.563,229.139 430.255,229.937 429.937,230.736 429.609,231.534 429.272,232.332 428.924,233.131 428.566,233.929 428.198,234.727 427.82,235.526 427.431,236.324 427.031,237.122 426.62,237.921 426.198,238.719 425.764,239.517 " />
<line x1="425.764" y1="159.077" x2="425.764" y2="160.483"  stroke="#7f7fff" />
<line x1="425.764" y1="159.077" x2="439.286" y2="159.077"  stroke="#7f7fff" />
<line x1="425.764" y1="240.923" x2="425.764" y2="239.517"  stroke="#7f7fff" />
<line x1="425.764" y1="240.923" x2="439.286" y2="240.923"  stroke="#7f7fff" />
<polyline fill="none" stroke="#7f7fff" points="439.286,159.077 439.357,159.904 439.425,160.731 439.493,161.558 439.559,162.384 439.623,163.211 439.687,164.038 439.748,164.864 439.809,165.691 439.867,166.518 439.925,167.345 439.981,168.171 440.035,168.998 440.088,169.825 440.14,170.651 440.19,171.478 440.239,172.305 440.286,173.132 440.332,173.958 440.376,174.785 440.419,175.612 440.461,176.438 440.501,177.265 440.539,178.092 440.577,178.919 440.612,179.745 440.647,180.572 440.68,181.399 440.711,182.226 440.741,183.052 440.77,183.879 440.797,184.706 440.823,185.532 440.847,186.359 440.87,187.186 440.892,188.013 440.912,188.839 440.93,189.666 440.947,190.493 440.963,191.319 440.977,192.146 440.99,192.973 441.002,193.8 441.012,194.626 441.02,195.453 441.028,196.28 441.033,197.106 441.038,197.933 441.04,198.76 441.042,199.587 441.042,200.413 441.04,201.24 441.038,202.067 441.033,202.894 441.028,203.72 441.02,204.547 441.012,205.374 441.002,206.2 440.99,207.027 440.977,207.854 440.963,208.681 440.947,209.507 440.93,210.334 440.912,211.161 440.892,211.987 440.87,212.814 440.847,213.641 440.823,214.468 440.797,215.294 440.77,216.121 440.741,216.948 440.711,217.774 440.68,218.601 440.647,219.428 440.612,220.255 440.577,221.081 440.539,221.908 440.501,222.735 440.461,223.562 440.419,224.388 440.376,225.215 440.332,226.042 440.286,226.868 440.239,227.695 440.19,228.522 440.14,229.349 440.088,230.175 440.035,231.002 439.981,231.829 439.925,232.655 439.867,233.482 439.809,234.309 439.748,235.136 439.687,235.962 439.623,236.789 439.559,237.616 439.493,238.442 439.425,239.269 439.357,240.096 439.286,240.923 " />
</g>
<g>
<polyline fill="none" stroke="#7f7fff" points="447.89,155.026 447.652,155.935 447.419,156.844 447.191,157.752 446.969,158.661 446.751,159.569 446.539,160.478 446.331,161.386 446.129,162.295 445.932,163.203 445.74,164.112 445.553,165.021 445.371,165.929 445.193,166.838 445.021,167.746 444.854,168.655 444.692,169.563 444.534,170.472 444.382,171.38 444.234,172.289 444.091,173.198 443.953,174.106 443.82,175.015 443.692,175.923 443.569,176.832 443.45,177.74 443.337,178.649 443.228,179.557 443.124,180.466 443.025,181.375 442.93,182.283 442.84,183.192 442.755,184.1 442.675,185.009 442.6,185.917 442.529,186.826 442.463,187.734 442.402,188.643 442.345,189.552 442.293,190.46 442.246,191.369 442.204,192.277 442.166,193.186 442.133,194.094 442.105,195.003 442.082,195.911 442.063,196.82 442.049,197.729 442.039,198.637 442.035,199.546 442.035,200.454 442.039,201.363 442.049,202.271 442.063,203.18 442.082,204.089 442.105,204.997 442.133,205.906 442.166,206.814 442.204,207.723 442.246,208.631 442.293,209.54 442.345,210.448 442.402,211.357 442.463,212.266 442.529,213.174 442.6,214.083 442.675,214.991 442.755,215.9 442.84,216.808 442.93,217.717 443.025,218.625 443.124,219.534 443.228,220.443 443.337,221.351 443.45,222.26 443.569,223.168 443.692,224.077 443.82,224.985 443.953,225.894 444.091,226.802 444.234,227.711 444.382,228.62 444.534,229.528 444.692,230.437 444.854,231.345 445.021,232.254 445.193,233.162 445.371,234.071 445.553,234.979 445.74,235.888 445.932,236.797 446.129,237.705 446.331,238.614 446.539,239.522 446.751,240.431 446.969,241.339 447.191,242.248 447.419,243.156 447.652,244.065 447.89,244.974 " />
<line x1="447.89" y1="153.538" x2="447.89" y2="155.026"  stroke="#7f7fff" />
<line x1="447.89" y1="153.538" x2="455.55" y2="153.538"  stroke="#7f7fff" />
<line x1="447.89" y1="246.462" x2="447.89" y2="244.974"  stroke="#7f7fff" />
<line x1="447.89" y1="246.462" x2="455.55" y2="246.462"  stroke="#7f7fff" />
<polyline fill="none" stroke="#7f7fff" points="455.55,153.538 455.959,154.477 456.359,155.416 456.748,156.354 457.128,157.293 457.499,158.231 457.86,159.17 458.211,160.109 458.554,161.047 458.887,161.986 459.211,162.925 459.526,163.863 459.832,164.802 460.129,165.74 460.417,166.679 460.697,167.618 460.968,168.556 461.23,169.495 461.484,170.434 461.729,171.372 461.966,172.311 462.195,173.249 462.415,174.188 462.627,175.127 462.831,176.065 463.026,177.004 463.214,177.942 463.393,178.881 463.564,179.82 463.727,180.758 463.883,181.697 464.03,182.636 464.169,183.574 464.301,184.513 464.424,185.451 464.54,186.39 464.648,187.329 464.748,188.267 464.84,189.206 464.925,190.145 465.002,191.083 465.071,192.022 465.132,192.96 465.186,193.899 465.232,194.838 465.27,195.776 465.301,196.715 465.324,197.653 465.339,198.592 465.347,199.531 465.347,200.469 465.339,201.408 465.324,202.347 465.301,203.285 465.27,204.224 465.232,205.162 465.186,206.101 465.132,207.04 465.071,207.978 465.002,208.917 464.925,209.855 464.84,210.794 464.748,211.733 464.648,212.671 464.54,213.61 464.424,214.549 464.301,215.487 464.169,216.426 464.03,217.364 463.883,218.303 463.727,219.242 463.564,220.18 463.393,221.119 463.214,222.058 463.026,222.996 462.831,223.935 462.627,224.873 462.415,225.812 462.195,226.751 461.966,227.689 461.729,228.628 461.484,229.566 461.23,230.505 460.968,231.444 460.697,232.382 460.417,233.321 460.129,234.26 459.832,235.198 459.526,236.137 459.211,237.075 458.887,238.014 458.554,238.953 458.211,239.891 457.86,240.83 457.499,241.769 457.128,242.707 456.748,243.646 456.359,244.584 455.959,245.523 455.55,246.462 " />
</g>
<g>
<polyline fill="none" stroke="#7f7fff" points="478.893,150.479 479.109,151.48 479.315,152.48 479.513,153.481 479.702,154.481 479.882,155.482 480.055,156.482 480.219,157.482 480.376,158.483 480.525,159.483 480.666,160.484 480.801,161.484 480.929,162.484 481.05,163.485 481.165,164.485 481.273,165.486 481.376,166.486 481.473,167.487 481.564,168.487 481.65,169.487 481.73,170.488 481.806,171.488 481.877,172.489 481.944,173.489 482.006,174.489 482.064,175.49 482.118,176.49 482.169,177.491 482.216,178.491 482.259,179.492 482.3,180.492 482.337,181.492 482.371,182.493 482.403,183.493 482.432,184.494 482.459,185.494 482.483,186.494 482.505,187.495 482.524,188.495 482.542,189.496 482.558,190.496 482.572,191.496 482.584,192.497 482.595,193.497 482.604,194.498 482.611,195.498 482.617,196.499 482.622,197.499 482.624,198.499 482.626,199.5 482.626,200.5 482.624,201.501 482.622,202.501 482.617,203.501 482.611,204.502 482.604,205.502 482.595,206.503 482.584,207.503 482.572,208.504 482.558,209.504 482.542,210.504 482.524,211.505 482.505,212.505 482.483,213.506 482.459,214.506 482.432,215.506 482.403,216.507 482.371,217.507 482.337,218.508 482.3,219.508 482.259,220.508 482.216,221.509 482.169,222.509 482.118,223.51 482.064,224.51 482.006,225.511 481.944,226.511 481.877,227.511 481.806,228.512 481.73,229.512 481.65,230.513 481.564,231.513 481.473,232.513 481.376,233.514 481.273,234.514 481.165,235.515 481.05,236.515 480.929,237.516 480.801,238.516 480.666,239.516 480.525,240.517 480.376,241.517 480.219,242.518 480.055,243.518 479.882,244.518 479.702,245.519 479.513,246.519 479.315,247.52 479.109,248.52 478.893,249.521 " />
<line x1="478.893" y1="149.239" x2="478.893" y2="150.479"  stroke="#7f7fff" />
<line x1="478.893" y1="149.239" x2="485.937" y2="149.239"  stroke="#7f7fff" />
<line x1="478.893" y1="250.761" x2="478.893" y2="249.521"  stroke="#7f7fff" />
<line x1="478.893" y1="250.761" x2="485.937" y2="250.761"  stroke="#7f7fff" />
<polyline fill="none" stroke="#7f7fff" points="485.937,149.239 486.065,150.265 486.199,151.29 486.337,152.316 486.479,153.341 486.624,154.367 486.772,155.392 486.921,156.418 487.071,157.443 487.222,158.469 487.372,159.494 487.522,160.52 487.671,161.545 487.819,162.57 487.965,163.596 488.109,164.621 488.25,165.647 488.389,166.672 488.525,167.698 488.658,168.723 488.787,169.749 488.913,170.774 489.036,171.8 489.154,172.825 489.269,173.851 489.38,174.876 489.486,175.902 489.589,176.927 489.687,177.952 489.781,178.978 489.871,180.003 489.956,181.029 490.037,182.054 490.114,183.08 490.186,184.105 490.253,185.131 490.317,186.156 490.375,187.182 490.429,188.207 490.479,189.233 490.524,190.258 490.565,191.284 490.601,192.309 490.633,193.334 490.66,194.36 490.682,195.385 490.7,196.411 490.714,197.436 490.723,198.462 490.727,199.487 490.727,200.513 490.723,201.538 490.714,202.564 490.7,203.589 490.682,204.615 490.66,205.64 490.633,206.666 490.601,207.691 490.565,208.716 490.524,209.742 490.479,210.767 490.429,211.793 490.375,212.818 490.317,213.844 490.253,214.869 490.186,215.895 490.114,216.92 490.037,217.946 489.956,218.971 489.871,219.997 489.781,221.022 489.687,222.048 489.589,223.073 489.486,224.098 489.38,225.124 489.269,226.149 489.154,227.175 489.036,228.2 488.913,229.226 488.787,230.251 488.658,231.277 488.525,232.302 488.389,233.328 488.25,234.353 488.109,235.379 487.965,236.404 487.819,237.43 487.671,238.455 487.522,239.48 487.372,240.506 487.222,241.531 487.071,242.557 486.921,243.582 486.772,244.608 486.624,245.633 486.479,246.659 486.337,247.684 486.199,248.71 486.065,249.735 485.937,250.761 " />
</g>
<g>
<polyline fill="none" stroke="#7f7fff" points="497.815,146.677 498.43,147.754 499.018,148.831 499.581,149.908 500.12,150.986 500.635,152.063 501.128,153.14 501.6,154.217 502.052,155.295 502.484,156.372 502.898,157.449 503.294,158.526 503.673,159.603 504.035,160.681 504.382,161.758 504.714,162.835 505.031,163.912 505.334,164.99 505.624,166.067 505.901,167.144 506.166,168.221 506.418,169.299 506.659,170.376 506.888,171.453 507.107,172.53 507.315,173.608 507.512,174.685 507.7,175.762 507.878,176.839 508.046,177.917 508.205,178.994 508.355,180.071 508.496,181.148 508.629,182.226 508.752,183.303 508.868,184.38 508.975,185.457 509.074,186.534 509.165,187.612 509.248,188.689 509.323,189.766 509.391,190.843 509.451,191.921 509.503,192.998 509.548,194.075 509.585,195.152 509.614,196.23 509.637,197.307 509.651,198.384 509.659,199.461 509.659,200.539 509.651,201.616 509.637,202.693 509.614,203.77 509.585,204.848 509.548,205.925 509.503,207.002 509.451,208.079 509.391,209.157 509.323,210.234 509.248,211.311 509.165,212.388 509.074,213.466 508.975,214.543 508.868,215.62 508.752,216.697 508.629,217.774 508.496,218.852 508.355,219.929 508.205,221.006 508.046,222.083 507.878,223.161 507.7,224.238 507.512,225.315 507.315,226.392 507.107,227.47 506.888,228.547 506.659,229.624 506.418,230.701 506.166,231.779 505.901,232.856 505.624,233.933 505.334,235.01 505.031,236.088 504.714,237.165 504.382,238.242 504.035,239.319 503.673,240.397 503.294,241.474 502.898,242.551 502.484,243.628 502.052,244.705 501.6,245.783 501.128,246.86 500.635,247.937 500.12,249.014 499.581,250.092 499.018,251.169 498.43,252.246 497.815,253.323 " />
<line x1="497.815" y1="141.799" x2="497.815" y2="146.677"  stroke="#7f7fff" />
<line x1="497.815" y1="141.799" x2="510.405" y2="141.799"  stroke="#7f7fff" />
<line x1="497.815" y1="258.201" x2="497.815" y2="253.323"  stroke="#7f7fff" />
<line x1="497.815" y1="258.201" x2="510.405" y2="258.201"  stroke="#7f7fff" />
<polyline fill="none" stroke="#7f7fff" points="510.405,141.799 510.806,142.975 511.184,144.15 511.539,145.326 511.873,146.502 512.188,147.678 512.484,148.854 512.763,150.029 513.025,151.205 513.271,152.381 513.503,153.557 513.72,154.733 513.924,155.908 514.116,157.084 514.296,158.26 514.464,159.436 514.622,160.611 514.771,161.787 514.909,162.963 515.039,164.139 515.16,165.315 515.274,166.49 515.38,167.666 515.48,168.842 515.572,170.018 515.659,171.193 515.739,172.369 515.815,173.545 515.885,174.721 515.95,175.897 516.011,177.072 516.067,178.248 516.119,179.424 516.167,180.6 516.212,181.775 516.253,182.951 516.29,184.127 516.325,185.303 516.356,186.479 516.385,187.654 516.41,188.83 516.433,190.006 516.453,191.182 516.47,192.357 516.485,193.533 516.497,194.709 516.507,195.885 516.514,197.061 516.519,198.236 516.521,199.412 516.521,200.588 516.519,201.764 516.514,202.939 516.507,204.115 516.497,205.291 516.485,206.467 516.47,207.643 516.453,208.818 516.433,209.994 516.41,211.17 516.385,212.346 516.356,213.521 516.325,214.697 516.29,215.873 516.253,217.049 516.212,218.225 516.167,219.4 516.119,220.576 516.067,221.752 516.011,222.928 515.95,224.103 515.885,225.279 515.815,226.455 515.739,227.631 515.659,228.807 515.572,229.982 515.48,231.158 515.38,232.334 515.274,233.51 515.16,234.685 515.039,235.861 514.909,237.037 514.771,238.213 514.622,239.389 514.464,240.564 514.296,241.74 514.116,242.916 513.924,244.092 513.72,245.267 513.503,246.443 513.271,247.619 513.025,248.795 512.763,249.971 512.484,251.146 512.188,252.322 511.873,253.498 511.539,254.674 511.184,255.85 510.806,257.025 510.405,258.201 " />
</g>
<g>
<polyline fill="none" stroke="#7f7fff" points="578.608,100.794 578.608,102.798 578.608,104.802 578.608,106.806 578.608,108.81 578.608,110.814 578.608,112.819 578.608,114.823 578.608,116.827 578.608,118.831 578.608,120.835 578.608,122.84 578.608,124.844 578.608,126.848 578.608,128.852 578.608,130.856 578.608,132.86 578.608,134.865 578.608,136.869 578.608,138.873 578.608,140.877 578.608,142.881 578.608,144.885 578.608,146.89 578.608,148.894 578.608,150.898 578.608,152.902 578.608,154.906 578.608,156.91 578.608,158.915 578.608,160.919 578.608,162.923 578.608,164.927 578.608,166.931 578.608,168.935 578.608,170.94 578.608,172.944 578.608,174.948 578.608,176.952 578.608,178.956 578.608,180.96 578.608,182.965 578.608,184.969 578.608,186.973 578.608,188.977 578.608,190.981 578.608,192.985 578.608,194.99 578.608,196.994 578.608,198.998 578.608,201.002 578.608,203.006 578.608,205.01 578.608,207.015 578.608,209.019 578.608,211.023 578.608,213.027 578.608,215.031 578.608,217.035 578.608,219.04 578.608,221.044 578.608,223.048 578.608,225.052 578.608,227.056 578.608,229.06 578.608,231.065 578.608,233.069 578.608,235.073 578.608,237.077 578.608,239.081 578.608,241.085 578.608,243.09 578.608,245.094 578.608,247.098 578.608,249.102 578.608,251.106 578.608,253.11 578.608,255.115 578.608,257.119 578.608,259.123 578.608,261.127 578.608,263.131 578.608,265.135 578.608,267.14 578.608,269.144 578.608,271.148 578.608,273.152 578.608,275.156 578.608,277.16 578.608,279.165 578.608,281.169 578.608,283.173 578.608,285.177 578.608,287.181 578.608,289.186 578.608,291.19 578.608,293.194 578.608,295.198 578.608,297.202 578.608,299.206 " />
<line x1="578.608" y1="100.794" x2="584.726" y2="100.794"  stroke="#7f7fff" />
<line x1="578.608" y1="299.206" x2="584.726" y2="299.206"  stroke="#7f7fff" />
<polyline fill="none" stroke="#7f7fff" points="584.726,100.794 584.726,102.798 584.726,104.802 584.726,106.806 584.726,108.81 584.726,110.814 584.726,112.819 584.726,114.823 584.726,116.827 584.726,118.831 584.726,120.835 584.726,122.84 584.726,124.844 584.726,126.848 584.726,128.852 584.726,130.856 584.726,132.86 584.726,134.865 584.726,136.869 584.726,138.873 584.726,140.877 584.726,142.881 584.726,144.885 584.726,146.89 584.726,148.894 584.726,150.898 584.726,152.902 584.726,154.906 584.726,156.91 584.726,158.915 584.726,160.919 584.726,162.923 584.726,164.927 584.726,166.931 584.726,168.935 584.726,170.94 584.726,172.944 584.726,174.948 584.726,176.952 584.726,178.956 584.726,180.96 584.726,182.965 584.726,184.969 584.726,186.973 584.726,188.977 584.726,190.981 584.726,192.985 584.726,194.99 584.726,196.994 584.726,198.998 584.726,201.002 584.726,203.006 584.726,205.01 584.726,207.015 584.726,209.019 584.726,211.023 584.726,213.027 584.726,215.031 584.726,217.035 584.726,219.04 584.726,221.044 584.726,223.048 584.726,225.052 584.726,227.056 584.726,229.06 584.726,231.065 584.726,233.069 584.726,235.073 584.726,237.077 584.726,239.081 584.726,241.085 584.726,243.09 584.726,245.094 584.726,247.098 584.726,249.102 584.726,251.106 584.726,253.11 584.726,255.115 584.726,257.119 584.726,259.123 584.726,261.127 584.726,263.131 584.726,265.135 584.726,267.14 584.726,269.144 584.726,271.148 584.726,273.152 584.726,275.156 584.726,277.16 584.726,279.165 584.726,281.169 584.726,283.173 584.726,285.177 584.726,287.181 584.726,289.186 584.726,291.19 584.726,293.194 584.726,295.198 584.726,297.202 584.726,299.206 " />
</g>
</g>
<g><title>element</title>
<polyline fill="none" stroke="#7f7fff" points="588.29,41.2698 588.29,44.4765 588.29,47.6832 588.29,50.8899 588.29,54.0965 588.29,57.3032 588.29,60.5099 588.29,63.7165 588.29,66.9232 588.29,70.1299 588.29,73.3365 588.29,76.5432 588.29,79.7499 588.29,82.9565 588.29,86.1632 588.29,89.3699 588.29,92.5766 588.29,95.7832 588.29,98.9899 588.29,102.197 588.29,105.403 588.29,108.61 588.29,111.817 588.29,115.023 588.29,118.23 588.29,121.437 588.29,124.643 588.29,127.85 588.29,131.057 588.29,134.263 588.29,137.47 588.29,140.677 588.29,143.883 588.29,147.09 588.29,150.297 588.29,153.503 588.29,156.71 588.29,159.917 588.29,163.123 588.29,166.33 588.29,169.537 588.29,172.743 588.29,175.95 588.29,179.157 588.29,182.363 588.29,185.57 588.29,188.777 588.29,191.983 588.29,195.19 588.29,198.397 588.29,201.603 588.29,204.81 588.29,208.017 588.29,211.223 588.29,214.43 588.29,217.637 588.29,220.843 588.29,224.05 588.29,227.257 588.29,230.463 588.29,233.67 588.29,236.877 588.29,240.083 588.29,243.29 588.29,246.497 588.29,249.703 588.29,252.91 588.29,256.117 588.29,259.323 588.29,262.53 588.29,265.737 588.29,268.943 588.29,272.15 588.29,275.357 588.29,278.563 588.29,281.77 588.29,284.977 588.29,288.183 588.29,291.39 588.29,294.597 588.29,297.803 588.29,301.01 588.29,304.217 588.29,307.423 588.29,310.63 588.29,313.837 588.29,317.043 588.29,320.25 588.29,323.457 588.29,326.663 588.29,329.87 588.29,333.077 588.29,336.283 588.29,339.49 588.29,342.697 588.29,345.903 588.29,349.11 588.29,352.317 588.29,355.523 588.29,358.73 " />
</g>
<g><title>element</title>
</g>
<g><title>rays</title>
<g><title>ray</title>
<line x1="279.45" y1="168.592" x2="291.904" y2="161.222"  stroke="#ffe100" />
<line x1="268.329" y1="171.675" x2="279.45" y2="168.592"  stroke="#ffe100" />
<line x1="250.241" y1="176.339" x2="268.329" y2="171.675"  stroke="#ffe100" />
<line x1="220.214" y1="196.784" x2="250.241" y2="176.339"  stroke="#ffe100" />
<line x1="211.71" y1="200" x2="220.214" y2="196.784"  stroke="#ffe100" />
<line x1="-2888.89" y1="2171.5" x2="211.71" y2="200"  stroke="#ffe100" />
</g>
<g><title>ray</title>
<line x1="279.456" y1="168.542" x2="291.885" y2="161.172"  stroke="#ff0000" />
<line x1="268.324" y1="171.647" x2="279.456" y2="168.542"  stroke="#ff0000" />
<line x1="250.241" y1="176.336" x2="268.324" y2="171.647"  stroke="#ff0000" />
<line x1="220.214" y1="196.778" x2="250.241" y2="176.336"  stroke="#ff0000" />
<line x1="211.71" y1="200" x2="220.214" y2="196.778"  stroke="#ff0000" />
<line x1="-2888.89" y1="2171.5" x2="211.71" y2="200"  stroke="#ff0000" />
</g>
<g><title>ray</title>
<line x1="279.436" y1="168.713" x2="291.951" y2="161.342"  stroke="#00ebff" />
<line x1="268.341" y1="171.744" x2="279.436" y2="168.713"  stroke="#00ebff" />
<line x1="250.24" y1="176.344" x2="268.341" y2="171.744"  stroke="#00ebff" />
<line x1="220.213" y1="196.798" x2="250.24" y2="176.344"  stroke="#00ebff" />
<line x1="211.71" y1="200" x2="220.213" y2="196.798"  stroke="#00ebff" />
<line x1="-2888.89" y1="2171.5" x2="211.71" y2="200"  stroke="#00ebff" />
</g>
<g><title>ray</title>
<line x1="-2918.21" y1="2125.39" x2="217.938" y2="131.286"  stroke="#ffe100" />
</g>
<g><title>ray</title>
<line x1="-2918.21" y1="2125.39" x2="217.938" y2="131.286"  stroke="#ff0000" />
</g>
<g><title>ray</title>
<line x1="-2918.21" y1="2125.39" x2="217.938" y2="131.286"  stroke="#00ebff" />
</g>
<g><title>ray</title>
<line x1="-2855.99" y1="2223.25" x2="217.938" y2="268.714"  stroke="#ffe100" />
</g>
<g><title>ray</title>
<line x1="-2855.99" y1="2223.25" x2="217.938" y2="268.714"  stroke="#ff0000" />
</g>
<g><title>ray</title>
<line x1="-2855.99" y1="2223.25" x2="217.938" y2="268.714"  stroke="#00ebff" />
</g>
<g><title>ray</title>
<line x1="-2915.44" y1="2129.74" x2="216.746" y2="138.157"  stroke="#ffe100" />
</g>
<g><title>ray</title>
<line x1="-2915.44" y1="2129.74" x2="216.746" y2="138.157"  stroke="#ff0000" />
</g>
<g><title>ray</title>
<line x1="-2915.44" y1="2129.74" x2="216.746" y2="138.157"  stroke="#00ebff" />
</g>
<g><title>ray</title>
<line x1="584.726" y1="120.412" x2="588.29" y2="118.639"  stroke="#ffe100" />
<line x1="578.608" y1="122.292" x2="584.726" y2="120.412"  stroke="#ffe100" />
<line x1="513.694" y1="154.588" x2="578.608" y2="122.292"  stroke="#ffe100" />
<line x1="503.271" y1="158.463" x2="513.694" y2="154.588"  stroke="#ffe100" />
<line x1="488.053" y1="164.223" x2="503.271" y2="158.463"  stroke="#ffe100" />
<line x1="481.335" y1="166.082" x2="488.053" y2="164.223"  stroke="#ffe100" />
<line x1="462.342" y1="173.873" x2="481.335" y2="166.082"  stroke="#ffe100" />
<line x1="443.126" y1="180.442" x2="462.342" y2="173.873"  stroke="#ffe100" />
<line x1="440.711" y1="182.226" x2="443.126" y2="180.442"  stroke="#ffe100" />
<line x1="434.497" y1="184.811" x2="440.711" y2="182.226"  stroke="#ffe100" />
<line x1="393.423" y1="208.637" x2="434.497" y2="184.811"  stroke="#ffe100" />
<line x1="378.846" y1="217.093" x2="393.423" y2="208.637"  stroke="#ffe100" />
<line x1="373.75" y1="218.829" x2="378.846" y2="217.093"  stroke="#ffe100" />
<line x1="371.82" y1="220.083" x2="373.75" y2="218.829"  stroke="#ffe100" />
<line x1="346.502" y1="229.174" x2="371.82" y2="220.083"  stroke="#ffe100" />
<line x1="336.81" y1="232.895" x2="346.502" y2="229.174"  stroke="#ffe100" />
<line x1="317.546" y1="234.416" x2="336.81" y2="232.895"  stroke="#ffe100" />
<line x1="292.951" y1="235.97" x2="317.546" y2="234.416"  stroke="#ffe100" />
<line x1="280.752" y1="240.945" x2="292.951" y2="235.97"  stroke="#ffe100" />
<line x1="264.306" y1="246.005" x2="280.752" y2="240.945"  stroke="#ffe100" />
<line x1="252.87" y1="248.155" x2="264.306" y2="246.005"  stroke="#ffe100" />
<line x1="240.962" y1="250.896" x2="252.87" y2="248.155"  stroke="#ffe100" />
<line x1="216.746" y1="261.843" x2="240.962" y2="250.896"  stroke="#ffe100" />
<line x1="-2859.44" y1="2217.82" x2="216.746" y2="261.843"  stroke="#ffe100" />
</g>
<g><title>ray</title>
<line x1="584.726" y1="120.424" x2="588.29" y2="118.655"  stroke="#ff0000" />
<line x1="578.608" y1="122.303" x2="584.726" y2="120.424"  stroke="#ff0000" />
<line x1="513.685" y1="154.537" x2="578.608" y2="122.303"  stroke="#ff0000" />
<line x1="503.254" y1="158.415" x2="513.685" y2="154.537"  stroke="#ff0000" />
<line x1="488.045" y1="164.165" x2="503.254" y2="158.415"  stroke="#ff0000" />
<line x1="481.329" y1="166.024" x2="488.045" y2="164.165"  stroke="#ff0000" />
<line x1="462.326" y1="173.804" x2="481.329" y2="166.024"  stroke="#ff0000" />
<line x1="443.135" y1="180.364" x2="462.326" y2="173.804"  stroke="#ff0000" />
<line x1="440.709" y1="182.151" x2="443.135" y2="180.364"  stroke="#ff0000" />
<line x1="434.484" y1="184.744" x2="440.709" y2="182.151"  stroke="#ff0000" />
<line x1="393.423" y1="208.525" x2="434.484" y2="184.744"  stroke="#ff0000" />
<line x1="378.834" y1="216.974" x2="393.423" y2="208.525"  stroke="#ff0000" />
<line x1="373.744" y1="218.709" x2="378.834" y2="216.974"  stroke="#ff0000" />
<line x1="371.829" y1="219.949" x2="373.744" y2="218.709"  stroke="#ff0000" />
<line x1="346.465" y1="229.053" x2="371.829" y2="219.949"  stroke="#ff0000" />
<line x1="336.844" y1="232.751" x2="346.465" y2="229.053"  stroke="#ff0000" />
<line x1="317.52" y1="234.311" x2="336.844" y2="232.751"  stroke="#ff0000" />
<line x1="292.972" y1="235.91" x2="317.52" y2="234.311"  stroke="#ff0000" />
<line x1="280.744" y1="240.896" x2="292.972" y2="235.91"  stroke="#ff0000" />
<line x1="264.32" y1="245.956" x2="280.744" y2="240.896"  stroke="#ff0000" />
<line x1="252.865" y1="248.122" x2="264.32" y2="245.956"  stroke="#ff0000" />
<line x1="240.954" y1="250.887" x2="252.865" y2="248.122"  stroke="#ff0000" />
<line x1="216.746" y1="261.843" x2="240.954" y2="250.887"  stroke="#ff0000" />
<line x1="-2859.44" y1="2217.82" x2="216.746" y2="261.843"  stroke="#ff0000" />
</g>
<g><title>ray</title>
<line x1="584.726" y1="120.384" x2="588.29" y2="118.602"  stroke="#00ebff" />
<line x1="578.608" y1="122.264" x2="584.726" y2="120.384"  stroke="#00ebff" />
<line x1="513.715" y1="154.705" x2="578.608" y2="122.264"  stroke="#00ebff" />
<line x1="503.311" y1="158.573" x2="513.715" y2="154.705"  stroke="#00ebff" />
<line x1="488.072" y1="164.356" x2="503.311" y2="158.573"  stroke="#00ebff" />
<line x1="481.349" y1="166.214" x2="488.072" y2="164.356"  stroke="#00ebff" />
<line x1="462.379" y1="174.032" x2="481.349" y2="166.214"  stroke="#00ebff" />
<line x1="443.106" y1="180.622" x2="462.379" y2="174.032"  stroke="#00ebff" />
<line x1="440.718" y1="182.396" x2="443.106" y2="180.622"  stroke="#00ebff" />
<line x1="434.525" y1="184.961" x2="440.718" y2="182.396"  stroke="#00ebff" />
<line x1="393.423" y1="208.886" x2="434.525" y2="184.961"  stroke="#00ebff" />
<line x1="378.874" y1="217.355" x2="393.423" y2="208.886"  stroke="#00ebff" />
<line x1="373.763" y1="219.093" x2="378.874" y2="217.355"  stroke="#00ebff" />
<line x1="371.799" y1="220.379" x2="373.763" y2="219.093"  stroke="#00ebff" />
<line x1="346.585" y1="229.44" x2="371.799" y2="220.379"  stroke="#00ebff" />
<line x1="336.735" y1="233.214" x2="346.585" y2="229.44"  stroke="#00ebff" />
<line x1="317.602" y1="234.646" x2="336.735" y2="233.214"  stroke="#00ebff" />
<line x1="292.905" y1="236.097" x2="317.602" y2="234.646"  stroke="#00ebff" />
<line x1="280.768" y1="241.052" x2="292.905" y2="236.097"  stroke="#00ebff" />
<line x1="264.274" y1="246.116" x2="280.768" y2="241.052"  stroke="#00ebff" />
<line x1="252.88" y1="248.229" x2="264.274" y2="246.116"  stroke="#00ebff" />
<line x1="240.982" y1="250.915" x2="252.88" y2="248.229"  stroke="#00ebff" />
<line x1="216.746" y1="261.843" x2="240.982" y2="250.915"  stroke="#00ebff" />
<line x1="-2859.44" y1="2217.82" x2="216.746" y2="261.843"  stroke="#00ebff" />
</g>
<g><title>ray</title>
<line x1="-2912.64" y1="2134.15" x2="215.684" y2="145.029"  stroke="#ffe100" />
</g>
<g><title>ray</title>
<line x1="-2912.64" y1="2134.15" x2="215.684" y2="145.029"  stroke="#ff0000" />
</g>
<g><title>ray</title>
<line x1="-2912.64" y1="2134.15" x2="215.684" y2="145.029"  stroke="#00ebff" />
</g>
<g><title>ray</title>
<line x1="584.726" y1="120.24" x2="588.29" y2="118.645"  stroke="#ffe100" />
<line x1="578.608" y1="121.951" x2="584.726" y2="120.24"  stroke="#ffe100" />
<line x1="513.044" y1="151.292" x2="578.608" y2="121.951"  stroke="#ffe100" />
<line x1="502.026" y1="155.23" x2="513.044" y2="151.292"  stroke="#ffe100" />
<line x1="487.446" y1="159.995" x2="502.026" y2="155.23"  stroke="#ffe100" />
<line x1="480.824" y1="161.655" x2="487.446" y2="159.995"  stroke="#ffe100" />
<line x1="460.926" y1="168.411" x2="480.824" y2="161.655"  stroke="#ffe100" />
<line x1="443.997" y1="173.815" x2="460.926" y2="168.411"  stroke="#ffe100" />
<line x1="440.459" y1="176.41" x2="443.997" y2="173.815"  stroke="#ffe100" />
<line x1="433.292" y1="179.424" x2="440.459" y2="176.41"  stroke="#ffe100" />
<line x1="393.423" y1="200.583" x2="433.292" y2="179.424"  stroke="#ffe100" />
<line x1="378.192" y1="208.666" x2="393.423" y2="200.583"  stroke="#ffe100" />
<line x1="373.397" y1="210.068" x2="378.192" y2="208.666"  stroke="#ffe100" />
<line x1="372.313" y1="210.676" x2="373.397" y2="210.068"  stroke="#ffe100" />
<line x1="344.132" y1="219.983" x2="372.313" y2="210.676"  stroke="#ffe100" />
<line x1="338.907" y1="222.048" x2="344.132" y2="219.983"  stroke="#ffe100" />
<line x1="315.561" y1="224.943" x2="338.907" y2="222.048"  stroke="#ffe100" />
<line x1="295.632" y1="227.317" x2="315.561" y2="224.943"  stroke="#ffe100" />
<line x1="279.8" y1="234.24" x2="295.632" y2="227.317"  stroke="#ffe100" />
<line x1="266.263" y1="238.485" x2="279.8" y2="234.24"  stroke="#ffe100" />
<line x1="251.962" y1="241.392" x2="266.263" y2="238.485"  stroke="#ffe100" />
<line x1="236.39" y1="245.78" x2="251.962" y2="241.392"  stroke="#ffe100" />
<line x1="215.684" y1="254.971" x2="236.39" y2="245.78"  stroke="#ffe100" />
<line x1="-2862.86" y1="2212.44" x2="215.684" y2="254.971"  stroke="#ffe100" />
</g>
<g><title>ray</title>
<line x1="584.726" y1="120.237" x2="588.29" y2="118.645"  stroke="#ff0000" />
<line x1="578.608" y1="121.948" x2="584.726" y2="120.237"  stroke="#ff0000" />
<line x1="513.031" y1="151.234" x2="578.608" y2="121.948"  stroke="#ff0000" />
<line x1="502.003" y1="155.176" x2="513.031" y2="151.234"  stroke="#ff0000" />
<line x1="487.436" y1="159.931" x2="502.003" y2="155.176"  stroke="#ff0000" />
<line x1="480.815" y1="161.592" x2="487.436" y2="159.931"  stroke="#ff0000" />
<line x1="460.905" y1="168.337" x2="480.815" y2="161.592"  stroke="#ff0000" />
<line x1="444.01" y1="173.729" x2="460.905" y2="168.337"  stroke="#ff0000" />
<line x1="440.455" y1="176.329" x2="444.01" y2="173.729"  stroke="#ff0000" />
<line x1="433.274" y1="179.353" x2="440.455" y2="176.329"  stroke="#ff0000" />
<line x1="393.423" y1="200.47" x2="433.274" y2="179.353"  stroke="#ff0000" />
<line x1="378.185" y1="208.545" x2="393.423" y2="200.47"  stroke="#ff0000" />
<line x1="373.393" y1="209.947" x2="378.185" y2="208.545"  stroke="#ff0000" />
<line x1="372.317" y1="210.55" x2="373.393" y2="209.947"  stroke="#ff0000" />
<line x1="344.107" y1="219.863" x2="372.317" y2="210.55"  stroke="#ff0000" />
<line x1="338.928" y1="221.912" x2="344.107" y2="219.863"  stroke="#ff0000" />
<line x1="315.544" y1="224.849" x2="338.928" y2="221.912"  stroke="#ff0000" />
<line x1="295.648" y1="227.255" x2="315.544" y2="224.849"  stroke="#ff0000" />
<line x1="279.793" y1="234.186" x2="295.648" y2="227.255"  stroke="#ff0000" />
<line x1="266.276" y1="238.431" x2="279.793" y2="234.186"  stroke="#ff0000" />
<line x1="251.958" y1="241.357" x2="266.276" y2="238.431"  stroke="#ff0000" />
<line x1="236.383" y1="245.771" x2="251.958" y2="241.357"  stroke="#ff0000" />
<line x1="215.684" y1="254.971" x2="236.383" y2="245.771"  stroke="#ff0000" />
<line x1="-2862.86" y1="2212.44" x2="215.684" y2="254.971"  stroke="#ff0000" />
</g>
<g><title>ray</title>
<line x1="584.726" y1="120.223" x2="588.29" y2="118.62"  stroke="#00ebff" />
<line x1="578.608" y1="121.934" x2="584.726" y2="120.223"  stroke="#00ebff" />
<line x1="513.069" y1="151.411" x2="578.608" y2="121.934"  stroke="#00ebff" />
<line x1="502.072" y1="155.343" x2="513.069" y2="151.411"  stroke="#00ebff" />
<line x1="487.465" y1="160.129" x2="502.072" y2="155.343"  stroke="#00ebff" />
<line x1="480.841" y1="161.79" x2="487.465" y2="160.129"  stroke="#00ebff" />
<line x1="460.972" y1="168.57" x2="480.841" y2="161.79"  stroke="#00ebff" />
<line x1="443.969" y1="174.003" x2="460.972" y2="168.57"  stroke="#00ebff" />
<line x1="440.468" y1="176.589" x2="443.969" y2="174.003"  stroke="#00ebff" />
<line x1="433.333" y1="179.581" x2="440.468" y2="176.589"  stroke="#00ebff" />
<line x1="393.423" y1="200.83" x2="433.333" y2="179.581"  stroke="#00ebff" />
<line x1="378.206" y1="208.932" x2="393.423" y2="200.83"  stroke="#00ebff" />
<line x1="373.405" y1="210.333" x2="378.206" y2="208.932"  stroke="#00ebff" />
<line x1="372.303" y1="210.956" x2="373.405" y2="210.333"  stroke="#00ebff" />
<line x1="344.187" y1="220.247" x2="372.303" y2="210.956"  stroke="#00ebff" />
<line x1="338.861" y1="222.349" x2="344.187" y2="220.247"  stroke="#00ebff" />
<line x1="315.597" y1="225.148" x2="338.861" y2="222.349"  stroke="#00ebff" />
<line x1="295.597" y1="227.449" x2="315.597" y2="225.148"  stroke="#00ebff" />
<line x1="279.815" y1="234.359" x2="295.597" y2="227.449"  stroke="#00ebff" />
<line x1="266.234" y1="238.608" x2="279.815" y2="234.359"  stroke="#00ebff" />
<line x1="251.972" y1="241.47" x2="266.234" y2="238.608"  stroke="#00ebff" />
<line x1="236.405" y1="245.799" x2="251.972" y2="241.47"  stroke="#00ebff" />
<line x1="215.684" y1="254.971" x2="236.405" y2="245.799"  stroke="#00ebff" />
<line x1="-2862.86" y1="2212.44" x2="215.684" y2="254.971"  stroke="#00ebff" />
</g>
<g><title>ray</title>
<line x1="-2909.8" y1="2138.62" x2="214.749" y2="151.9"  stroke="#ffe100" />
</g>
<g><title>ray</title>
<line x1="-2909.8" y1="2138.62" x2="214.749" y2="151.9"  stroke="#ff0000" />
</g>
<g><title>ray</title>
<line x1="-2909.8" y1="2138.62" x2="214.749" y2="151.9"  stroke="#00ebff" />
</g>
<g><title>ray</title>
<line x1="584.726" y1="120.041" x2="588.29" y2="118.612"  stroke="#ffe100" />
<line x1="578.608" y1="121.589" x2="584.726" y2="120.041"  stroke="#ffe100" />
<line x1="512.313" y1="148.165" x2="578.608" y2="121.589"  stroke="#ffe100" />
<line x1="500.687" y1="152.173" x2="512.313" y2="148.165"  stroke="#ffe100" />
<line x1="486.862" y1="156.014" x2="500.687" y2="152.173"  stroke="#ffe100" />
<line x1="480.221" y1="157.493" x2="486.862" y2="156.014"  stroke="#ffe100" />
<line x1="459.266" y1="163.087" x2="480.221" y2="157.493"  stroke="#ffe100" />
<line x1="445.117" y1="167.238" x2="459.266" y2="163.087"  stroke="#ffe100" />
<line x1="440.15" y1="170.816" x2="445.117" y2="167.238"  stroke="#ffe100" />
<line x1="431.795" y1="174.333" x2="440.15" y2="170.816"  stroke="#ffe100" />
<line x1="393.423" y1="192.763" x2="431.795" y2="174.333"  stroke="#ffe100" />
<line x1="377.963" y1="200.188" x2="393.423" y2="192.763"  stroke="#ffe100" />
<line x1="373.254" y1="201.335" x2="377.963" y2="200.188"  stroke="#ffe100" />
<line x1="372.502" y1="201.693" x2="373.254" y2="201.335"  stroke="#ffe100" />
<line x1="342.654" y1="210.587" x2="372.502" y2="201.693"  stroke="#ffe100" />
<line x1="340.13" y1="211.6" x2="342.654" y2="210.587"  stroke="#ffe100" />
<line x1="314.267" y1="215.854" x2="340.13" y2="211.6"  stroke="#ffe100" />
<line x1="297.531" y1="218.695" x2="314.267" y2="215.854"  stroke="#ffe100" />
<line x1="278.986" y1="227.197" x2="297.531" y2="218.695"  stroke="#ffe100" />
<line x1="267.909" y1="230.674" x2="278.986" y2="227.197"  stroke="#ffe100" />
<line x1="251.156" y1="234.265" x2="267.909" y2="230.674"  stroke="#ffe100" />
<line x1="232.418" y1="240.401" x2="251.156" y2="234.265"  stroke="#ffe100" />
<line x1="214.749" y1="248.1" x2="232.418" y2="240.401"  stroke="#ffe100" />
<line x1="-2866.24" y1="2207.13" x2="214.749" y2="248.1"  stroke="#ffe100" />
</g>
<g><title>ray</title>
<line x1="584.726" y1="120.024" x2="588.29" y2="118.598"  stroke="#ff0000" />
<line x1="578.608" y1="121.572" x2="584.726" y2="120.024"  stroke="#ff0000" />
<line x1="512.297" y1="148.101" x2="578.608" y2="121.572"  stroke="#ff0000" />
<line x1="500.659" y1="152.114" x2="512.297" y2="148.101"  stroke="#ff0000" />
<line x1="486.852" y1="155.946" x2="500.659" y2="152.114"  stroke="#ff0000" />
<line x1="480.21" y1="157.425" x2="486.852" y2="155.946"  stroke="#ff0000" />
<line x1="459.24" y1="163.011" x2="480.21" y2="157.425"  stroke="#ff0000" />
<line x1="445.134" y1="167.146" x2="459.24" y2="163.011"  stroke="#ff0000" />
<line x1="440.145" y1="170.729" x2="445.134" y2="167.146"  stroke="#ff0000" />
<line x1="431.77" y1="174.257" x2="440.145" y2="170.729"  stroke="#ff0000" />
<line x1="393.423" y1="192.65" x2="431.77" y2="174.257"  stroke="#ff0000" />
<line x1="377.963" y1="200.065" x2="393.423" y2="192.65"  stroke="#ff0000" />
<line x1="373.253" y1="201.213" x2="377.963" y2="200.065"  stroke="#ff0000" />
<line x1="372.503" y1="201.57" x2="373.253" y2="201.213"  stroke="#ff0000" />
<line x1="342.641" y1="210.467" x2="372.503" y2="201.57"  stroke="#ff0000" />
<line x1="340.14" y1="211.472" x2="342.641" y2="210.467"  stroke="#ff0000" />
<line x1="314.257" y1="215.766" x2="340.14" y2="211.472"  stroke="#ff0000" />
<line x1="297.543" y1="218.631" x2="314.257" y2="215.766"  stroke="#ff0000" />
<line x1="278.98" y1="227.14" x2="297.543" y2="218.631"  stroke="#ff0000" />
<line x1="267.92" y1="230.618" x2="278.98" y2="227.14"  stroke="#ff0000" />
<line x1="251.153" y1="234.23" x2="267.92" y2="230.618"  stroke="#ff0000" />
<line x1="232.413" y1="240.393" x2="251.153" y2="234.23"  stroke="#ff0000" />
<line x1="214.749" y1="248.1" x2="232.413" y2="240.393"  stroke="#ff0000" />
<line x1="-2866.24" y1="2207.13" x2="214.749" y2="248.1"  stroke="#ff0000" />
</g>
<g><title>ray</title>
<line x1="584.726" y1="120.037" x2="588.29" y2="118.601"  stroke="#00ebff" />
<line x1="578.608" y1="121.587" x2="584.726" y2="120.037"  stroke="#00ebff" />
<line x1="512.344" y1="148.288" x2="578.608" y2="121.587"  stroke="#00ebff" />
<line x1="500.741" y1="152.291" x2="512.344" y2="148.288"  stroke="#00ebff" />
<line x1="486.882" y1="156.152" x2="500.741" y2="152.291"  stroke="#00ebff" />
<line x1="480.243" y1="157.63" x2="486.882" y2="156.152"  stroke="#00ebff" />
<line x1="459.32" y1="163.247" x2="480.243" y2="157.63"  stroke="#00ebff" />
<line x1="445.08" y1="167.432" x2="459.32" y2="163.247"  stroke="#00ebff" />
<line x1="440.161" y1="171.004" x2="445.08" y2="167.432"  stroke="#00ebff" />
<line x1="431.849" y1="174.497" x2="440.161" y2="171.004"  stroke="#00ebff" />
<line x1="393.423" y1="193.012" x2="431.849" y2="174.497"  stroke="#00ebff" />
<line x1="377.964" y1="200.46" x2="393.423" y2="193.012"  stroke="#00ebff" />
<line x1="373.255" y1="201.604" x2="377.964" y2="200.46"  stroke="#00ebff" />
<line x1="372.5" y1="201.966" x2="373.255" y2="201.604"  stroke="#00ebff" />
<line x1="342.683" y1="210.853" x2="372.5" y2="201.966"  stroke="#00ebff" />
<line x1="340.107" y1="211.886" x2="342.683" y2="210.853"  stroke="#00ebff" />
<line x1="314.288" y1="216.048" x2="340.107" y2="211.886"  stroke="#00ebff" />
<line x1="297.507" y1="218.832" x2="314.288" y2="216.048"  stroke="#00ebff" />
<line x1="278.999" y1="227.326" x2="297.507" y2="218.832"  stroke="#00ebff" />
<line x1="267.885" y1="230.803" x2="278.999" y2="227.326"  stroke="#00ebff" />
<line x1="251.164" y1="234.343" x2="267.885" y2="230.803"  stroke="#00ebff" />
<line x1="232.43" y1="240.418" x2="251.164" y2="234.343"  stroke="#00ebff" />
<line x1="214.749" y1="248.1" x2="232.43" y2="240.418"  stroke="#00ebff" />
<line x1="-2866.24" y1="2207.13" x2="214.749" y2="248.1"  stroke="#00ebff" />
</g>
<g><title>ray</title>
<line x1="213.94" y1="158.771" x2="239.807" y2="150.307"  stroke="#ffe100" />
<line x1="-2906.92" y1="2143.15" x2="213.94" y2="158.771"  stroke="#ffe100" />
</g>
<g><title>ray</title>
<line x1="213.94" y1="158.771" x2="239.836" y2="150.277"  stroke="#ff0000" />
<line x1="-2906.92" y1="2143.15" x2="213.94" y2="158.771"  stroke="#ff0000" />
</g>
<g><title>ray</title>
<line x1="213.94" y1="158.771" x2="239.743" y2="150.376"  stroke="#00ebff" />
<line x1="-2906.92" y1="2143.15" x2="213.94" y2="158.771"  stroke="#00ebff" />
</g>
<g><title>ray</title>
<line x1="584.726" y1="119.868" x2="588.29" y2="118.596"  stroke="#ffe100" />
<line x1="578.608" y1="121.258" x2="584.726" y2="119.868"  stroke="#ffe100" />
<line x1="511.502" y1="145.201" x2="578.608" y2="121.258"  stroke="#ffe100" />
<line x1="499.26" y1="149.288" x2="511.502" y2="145.201"  stroke="#ffe100" />
<line x1="486.331" y1="152.271" x2="499.26" y2="149.288"  stroke="#ffe100" />
<line x1="479.531" y1="153.575" x2="486.331" y2="152.271"  stroke="#ffe100" />
<line x1="457.338" y1="157.821" x2="479.531" y2="153.575"  stroke="#ffe100" />
<line x1="446.489" y1="160.694" x2="457.338" y2="157.821"  stroke="#ffe100" />
<line x1="439.786" y1="165.38" x2="446.489" y2="160.694"  stroke="#ffe100" />
<line x1="430.016" y1="169.461" x2="439.786" y2="165.38"  stroke="#ffe100" />
<line x1="393.423" y1="185.112" x2="430.016" y2="169.461"  stroke="#ffe100" />
<line x1="378.176" y1="191.634" x2="393.423" y2="185.112"  stroke="#ffe100" />
<line x1="373.331" y1="192.572" x2="378.176" y2="191.634"  stroke="#ffe100" />
<line x1="372.422" y1="192.93" x2="373.331" y2="192.572"  stroke="#ffe100" />
<line x1="342.088" y1="200.882" x2="372.422" y2="192.93"  stroke="#ffe100" />
<line x1="340.588" y1="201.488" x2="342.088" y2="200.882"  stroke="#ffe100" />
<line x1="313.563" y1="206.935" x2="340.588" y2="201.488"  stroke="#ffe100" />
<line x1="298.694" y1="210.159" x2="313.563" y2="206.935"  stroke="#ffe100" />
<line x1="278.336" y1="219.833" x2="298.694" y2="210.159"  stroke="#ffe100" />
<line x1="269.199" y1="222.672" x2="278.336" y2="219.833"  stroke="#ffe100" />
<line x1="250.48" y1="226.839" x2="269.199" y2="222.672"  stroke="#ffe100" />
<line x1="229.015" y1="234.783" x2="250.48" y2="226.839"  stroke="#ffe100" />
<line x1="213.94" y1="241.229" x2="229.015" y2="234.783"  stroke="#ffe100" />
<line x1="-2869.58" y1="2201.87" x2="213.94" y2="241.229"  stroke="#ffe100" />
</g>
<g><title>ray</title>
<line x1="584.726" y1="119.837" x2="588.29" y2="118.568"  stroke="#ff0000" />
<line x1="578.608" y1="121.227" x2="584.726" y2="119.837"  stroke="#ff0000" />
<line x1="511.481" y1="145.131" x2="578.608" y2="121.227"  stroke="#ff0000" />
<line x1="499.226" y1="149.223" x2="511.481" y2="145.131"  stroke="#ff0000" />
<line x1="486.321" y1="152.199" x2="499.226" y2="149.223"  stroke="#ff0000" />
<line x1="479.517" y1="153.503" x2="486.321" y2="152.199"  stroke="#ff0000" />
<line x1="457.307" y1="157.742" x2="479.517" y2="153.503"  stroke="#ff0000" />
<line x1="446.511" y1="160.598" x2="457.307" y2="157.742"  stroke="#ff0000" />
<line x1="439.779" y1="165.287" x2="446.511" y2="160.598"  stroke="#ff0000" />
<line x1="429.984" y1="169.38" x2="439.779" y2="165.287"  stroke="#ff0000" />
<line x1="393.423" y1="184.998" x2="429.984" y2="169.38"  stroke="#ff0000" />
<line x1="378.183" y1="191.508" x2="393.423" y2="184.998"  stroke="#ff0000" />
<line x1="373.333" y1="192.448" x2="378.183" y2="191.508"  stroke="#ff0000" />
<line x1="372.419" y1="192.808" x2="373.333" y2="192.448"  stroke="#ff0000" />
<line x1="342.087" y1="200.76" x2="372.419" y2="192.808"  stroke="#ff0000" />
<line x1="340.589" y1="201.366" x2="342.087" y2="200.76"  stroke="#ff0000" />
<line x1="313.559" y1="206.849" x2="340.589" y2="201.366"  stroke="#ff0000" />
<line x1="298.7" y1="210.095" x2="313.559" y2="206.849"  stroke="#ff0000" />
<line x1="278.331" y1="219.773" x2="298.7" y2="210.095"  stroke="#ff0000" />
<line x1="269.206" y1="222.615" x2="278.331" y2="219.773"  stroke="#ff0000" />
<line x1="250.477" y1="226.806" x2="269.206" y2="222.615"  stroke="#ff0000" />
<line x1="229.011" y1="234.776" x2="250.477" y2="226.806"  stroke="#ff0000" />
<line x1="213.94" y1="241.229" x2="229.011" y2="234.776"  stroke="#ff0000" />
<line x1="-2869.58" y1="2201.87" x2="213.94" y2="241.229"  stroke="#ff0000" />
</g>
<g><title>ray</title>
<line x1="584.726" y1="119.88" x2="588.29" y2="118.601"  stroke="#00ebff" />
<line x1="578.608" y1="121.271" x2="584.726" y2="119.88"  stroke="#00ebff" />
<line x1="511.54" y1="145.329" x2="578.608" y2="121.271"  stroke="#00ebff" />
<line x1="499.324" y1="149.41" x2="511.54" y2="145.329"  stroke="#00ebff" />
<line x1="486.35" y1="152.411" x2="499.324" y2="149.41"  stroke="#00ebff" />
<line x1="479.558" y1="153.715" x2="486.35" y2="152.411"  stroke="#00ebff" />
<line x1="457.402" y1="157.984" x2="479.558" y2="153.715"  stroke="#00ebff" />
<line x1="446.444" y1="160.892" x2="457.402" y2="157.984"  stroke="#00ebff" />
<line x1="439.8" y1="165.578" x2="446.444" y2="160.892"  stroke="#00ebff" />
<line x1="430.085" y1="169.633" x2="439.8" y2="165.578"  stroke="#00ebff" />
<line x1="393.423" y1="185.365" x2="430.085" y2="169.633"  stroke="#00ebff" />
<line x1="378.162" y1="191.914" x2="393.423" y2="185.365"  stroke="#00ebff" />
<line x1="373.325" y1="192.846" x2="378.162" y2="191.914"  stroke="#00ebff" />
<line x1="372.428" y1="193.202" x2="373.325" y2="192.846"  stroke="#00ebff" />
<line x1="342.09" y1="201.154" x2="372.428" y2="193.202"  stroke="#00ebff" />
<line x1="340.585" y1="201.762" x2="342.09" y2="201.154"  stroke="#00ebff" />
<line x1="313.572" y1="207.126" x2="340.585" y2="201.762"  stroke="#00ebff" />
<line x1="298.68" y1="210.302" x2="313.572" y2="207.126"  stroke="#00ebff" />
<line x1="278.346" y1="219.968" x2="298.68" y2="210.302"  stroke="#00ebff" />
<line x1="269.181" y1="222.803" x2="278.346" y2="219.968"  stroke="#00ebff" />
<line x1="250.486" y1="226.915" x2="269.181" y2="222.803"  stroke="#00ebff" />
<line x1="229.024" y1="234.799" x2="250.486" y2="226.915"  stroke="#00ebff" />
<line x1="213.94" y1="241.229" x2="229.024" y2="234.799"  stroke="#00ebff" />
<line x1="-2869.58" y1="2201.87" x2="213.94" y2="241.229"  stroke="#00ebff" />
</g>
<g><title>ray</title>
<line x1="213.257" y1="165.643" x2="232.761" y2="159.092"  stroke="#ffe100" />
<line x1="-2904" y1="2147.73" x2="213.257" y2="165.643"  stroke="#ffe100" />
</g>
<g><title>ray</title>
<line x1="213.257" y1="165.643" x2="232.775" y2="159.072"  stroke="#ff0000" />
<line x1="-2904" y1="2147.73" x2="213.257" y2="165.643"  stroke="#ff0000" />
</g>
<g><title>ray</title>
<line x1="213.257" y1="165.643" x2="232.73" y2="159.137"  stroke="#00ebff" />
<line x1="-2904" y1="2147.73" x2="213.257" y2="165.643"  stroke="#00ebff" />
</g>
<g><title>ray</title>
<line x1="427.936" y1="164.717" x2="439.366" y2="160.021"  stroke="#ffe100" />
<line x1="393.423" y1="177.55" x2="427.936" y2="164.717"  stroke="#ffe100" />
<line x1="378.84" y1="182.973" x2="393.423" y2="177.55"  stroke="#ffe100" />
<line x1="373.627" y1="183.715" x2="378.84" y2="182.973"  stroke="#ffe100" />
<line x1="372.082" y1="184.196" x2="373.627" y2="183.715"  stroke="#ffe100" />
<line x1="342.518" y1="190.764" x2="372.082" y2="184.196"  stroke="#ffe100" />
<line x1="340.354" y1="191.639" x2="342.518" y2="190.764"  stroke="#ffe100" />
<line x1="313.41" y1="198.003" x2="340.354" y2="191.639"  stroke="#ffe100" />
<line x1="299.163" y1="201.734" x2="313.41" y2="198.003"  stroke="#ffe100" />
<line x1="277.876" y1="212.159" x2="299.163" y2="201.734"  stroke="#ffe100" />
<line x1="270.107" y1="214.533" x2="277.876" y2="212.159"  stroke="#ffe100" />
<line x1="249.954" y1="219.152" x2="270.107" y2="214.533"  stroke="#ffe100" />
<line x1="226.161" y1="228.945" x2="249.954" y2="219.152"  stroke="#ffe100" />
<line x1="213.257" y1="234.357" x2="226.161" y2="228.945"  stroke="#ffe100" />
<line x1="-2872.89" y1="2196.67" x2="213.257" y2="234.357"  stroke="#ffe100" />
</g>
<g><title>ray</title>
<line x1="427.895" y1="164.632" x2="439.358" y2="159.922"  stroke="#ff0000" />
<line x1="393.423" y1="177.434" x2="427.895" y2="164.632"  stroke="#ff0000" />
<line x1="378.853" y1="182.844" x2="393.423" y2="177.434"  stroke="#ff0000" />
<line x1="373.632" y1="183.589" x2="378.853" y2="182.844"  stroke="#ff0000" />
<line x1="372.075" y1="184.073" x2="373.632" y2="183.589"  stroke="#ff0000" />
<line x1="342.529" y1="190.64" x2="372.075" y2="184.073"  stroke="#ff0000" />
<line x1="340.347" y1="191.523" x2="342.529" y2="190.64"  stroke="#ff0000" />
<line x1="313.412" y1="197.916" x2="340.347" y2="191.523"  stroke="#ff0000" />
<line x1="299.164" y1="201.669" x2="313.412" y2="197.916"  stroke="#ff0000" />
<line x1="277.873" y1="212.098" x2="299.164" y2="201.669"  stroke="#ff0000" />
<line x1="270.112" y1="214.477" x2="277.873" y2="212.098"  stroke="#ff0000" />
<line x1="249.952" y1="219.121" x2="270.112" y2="214.477"  stroke="#ff0000" />
<line x1="226.158" y1="228.939" x2="249.952" y2="219.121"  stroke="#ff0000" />
<line x1="213.257" y1="234.357" x2="226.158" y2="228.939"  stroke="#ff0000" />
<line x1="-2872.89" y1="2196.67" x2="213.257" y2="234.357"  stroke="#ff0000" />
</g>
<g><title>ray</title>
<line x1="428.023" y1="164.9" x2="439.384" y2="160.231"  stroke="#00ebff" />
<line x1="393.423" y1="177.809" x2="428.023" y2="164.9"  stroke="#00ebff" />
<line x1="378.81" y1="183.26" x2="393.423" y2="177.809"  stroke="#00ebff" />
<line x1="373.614" y1="183.996" x2="378.81" y2="183.26"  stroke="#00ebff" />
<line x1="372.096" y1="184.471" x2="373.614" y2="183.996"  stroke="#00ebff" />
<line x1="342.492" y1="191.045" x2="372.096" y2="184.471"  stroke="#00ebff" />
<line x1="340.369" y1="191.902" x2="342.492" y2="191.045"  stroke="#00ebff" />
<line x1="313.408" y1="198.198" x2="340.369" y2="191.902"  stroke="#00ebff" />
<line x1="299.16" y1="201.88" x2="313.408" y2="198.198"  stroke="#00ebff" />
<line x1="277.882" y1="212.297" x2="299.16" y2="201.88"  stroke="#00ebff" />
<line x1="270.096" y1="214.664" x2="277.882" y2="212.297"  stroke="#00ebff" />
<line x1="249.958" y1="219.223" x2="270.096" y2="214.664"  stroke="#00ebff" />
<line x1="226.167" y1="228.96" x2="249.958" y2="219.223"  stroke="#00ebff" />
<line x1="213.257" y1="234.357" x2="226.167" y2="228.96"  stroke="#00ebff" />
<line x1="-2872.89" y1="2196.67" x2="213.257" y2="234.357"  stroke="#00ebff" />
</g>
<g><title>ray</title>
<line x1="212.7" y1="172.514" x2="227.939" y2="167.265"  stroke="#ffe100" />
<line x1="-2901.05" y1="2152.38" x2="212.7" y2="172.514"  stroke="#ffe100" />
</g>
<g><title>ray</title>
<line x1="212.7" y1="172.514" x2="227.947" y2="167.25"  stroke="#ff0000" />
<line x1="-2901.05" y1="2152.38" x2="212.7" y2="172.514"  stroke="#ff0000" />
</g>
<g><title>ray</title>
<line x1="212.7" y1="172.514" x2="227.923" y2="167.297"  stroke="#00ebff" />
<line x1="-2901.05" y1="2152.38" x2="212.7" y2="172.514"  stroke="#00ebff" />
</g>
<g><title>ray</title>
<line x1="379.981" y1="174.167" x2="393.423" y2="169.98"  stroke="#ffe100" />
<line x1="374.141" y1="174.677" x2="379.981" y2="174.167"  stroke="#ffe100" />
<line x1="371.465" y1="175.277" x2="374.141" y2="174.677"  stroke="#ffe100" />
<line x1="344.112" y1="180.112" x2="371.465" y2="175.277"  stroke="#ffe100" />
<line x1="339.47" y1="181.98" x2="344.112" y2="180.112"  stroke="#ffe100" />
<line x1="313.824" y1="188.881" x2="339.47" y2="181.98"  stroke="#ffe100" />
<line x1="298.975" y1="193.427" x2="313.824" y2="188.881"  stroke="#ffe100" />
<line x1="277.632" y1="204.182" x2="298.975" y2="193.427"  stroke="#ffe100" />
<line x1="270.62" y1="206.282" x2="277.632" y2="204.182"  stroke="#ffe100" />
<line x1="249.595" y1="211.216" x2="270.62" y2="206.282"  stroke="#ffe100" />
<line x1="223.848" y1="222.901" x2="249.595" y2="211.216"  stroke="#ffe100" />
<line x1="212.7" y1="227.486" x2="223.848" y2="222.901"  stroke="#ffe100" />
<line x1="-2876.16" y1="2191.52" x2="212.7" y2="227.486"  stroke="#ffe100" />
</g>
<g><title>ray</title>
<line x1="380.001" y1="174.036" x2="393.423" y2="169.86"  stroke="#ff0000" />
<line x1="374.15" y1="174.549" x2="380.001" y2="174.036"  stroke="#ff0000" />
<line x1="371.454" y1="175.152" x2="374.15" y2="174.549"  stroke="#ff0000" />
<line x1="344.138" y1="179.984" x2="371.454" y2="175.152"  stroke="#ff0000" />
<line x1="339.456" y1="181.869" x2="344.138" y2="179.984"  stroke="#ff0000" />
<line x1="313.831" y1="188.791" x2="339.456" y2="181.869"  stroke="#ff0000" />
<line x1="298.971" y1="193.362" x2="313.831" y2="188.791"  stroke="#ff0000" />
<line x1="277.631" y1="204.121" x2="298.971" y2="193.362"  stroke="#ff0000" />
<line x1="270.622" y1="206.227" x2="277.631" y2="204.121"  stroke="#ff0000" />
<line x1="249.594" y1="211.187" x2="270.622" y2="206.227"  stroke="#ff0000" />
<line x1="223.846" y1="222.895" x2="249.594" y2="211.187"  stroke="#ff0000" />
<line x1="212.7" y1="227.486" x2="223.846" y2="222.895"  stroke="#ff0000" />
<line x1="-2876.16" y1="2191.52" x2="212.7" y2="227.486"  stroke="#ff0000" />
</g>
<g><title>ray</title>
<line x1="379.934" y1="174.463" x2="393.423" y2="170.245"  stroke="#00ebff" />
<line x1="374.121" y1="174.967" x2="379.934" y2="174.463"  stroke="#00ebff" />
<line x1="371.488" y1="175.558" x2="374.121" y2="174.967"  stroke="#00ebff" />
<line x1="344.052" y1="180.404" x2="371.488" y2="175.558"  stroke="#00ebff" />
<line x1="339.501" y1="182.232" x2="344.052" y2="180.404"  stroke="#00ebff" />
<line x1="313.808" y1="189.086" x2="339.501" y2="182.232"  stroke="#00ebff" />
<line x1="298.984" y1="193.575" x2="313.808" y2="189.086"  stroke="#00ebff" />
<line x1="277.634" y1="204.321" x2="298.984" y2="193.575"  stroke="#00ebff" />
<line x1="270.615" y1="206.408" x2="277.634" y2="204.321"  stroke="#00ebff" />
<line x1="249.597" y1="211.279" x2="270.615" y2="206.408"  stroke="#00ebff" />
<line x1="223.853" y1="222.915" x2="249.597" y2="211.279"  stroke="#00ebff" />
<line x1="212.7" y1="227.486" x2="223.853" y2="222.915"  stroke="#00ebff" />
<line x1="-2876.16" y1="2191.52" x2="212.7" y2="227.486"  stroke="#00ebff" />
</g>
<g><title>ray</title>
<line x1="212.266" y1="179.386" x2="224.565" y2="175.044"  stroke="#ffe100" />
<line x1="-2898.07" y1="2157.07" x2="212.266" y2="179.386"  stroke="#ffe100" />
</g>
<g><title>ray</title>
<line x1="212.266" y1="179.386" x2="224.569" y2="175.034"  stroke="#ff0000" />
<line x1="-2898.07" y1="2157.07" x2="212.266" y2="179.386"  stroke="#ff0000" />
</g>
<g><title>ray</title>
<line x1="212.266" y1="179.386" x2="224.556" y2="175.068"  stroke="#00ebff" />
<line x1="-2898.07" y1="2157.07" x2="212.266" y2="179.386"  stroke="#00ebff" />
</g>
<g><title>ray</title>
<line x1="381.707" y1="165.165" x2="393.423" y2="162.285"  stroke="#ffe100" />
<line x1="374.93" y1="165.314" x2="381.707" y2="165.165"  stroke="#ffe100" />
<line x1="370.518" y1="165.874" x2="374.93" y2="165.314"  stroke="#ffe100" />
<line x1="347.168" y1="168.761" x2="370.518" y2="165.874"  stroke="#ffe100" />
<line x1="337.947" y1="172.43" x2="347.168" y2="168.761"  stroke="#ffe100" />
<line x1="314.873" y1="179.371" x2="337.947" y2="172.43"  stroke="#ffe100" />
<line x1="298.154" y1="185.238" x2="314.873" y2="179.371"  stroke="#ffe100" />
<line x1="277.631" y1="195.894" x2="298.154" y2="185.238"  stroke="#ffe100" />
<line x1="270.725" y1="197.918" x2="277.631" y2="195.894"  stroke="#ffe100" />
<line x1="249.422" y1="203.023" x2="270.725" y2="197.918"  stroke="#ffe100" />
<line x1="222.079" y1="216.66" x2="249.422" y2="203.023"  stroke="#ffe100" />
<line x1="212.266" y1="220.614" x2="222.079" y2="216.66"  stroke="#ffe100" />
<line x1="-2879.4" y1="2186.43" x2="212.266" y2="220.614"  stroke="#ffe100" />
</g>
<g><title>ray</title>
<line x1="381.738" y1="165.031" x2="393.423" y2="162.162"  stroke="#ff0000" />
<line x1="374.944" y1="165.181" x2="381.738" y2="165.031"  stroke="#ff0000" />
<line x1="370.503" y1="165.745" x2="374.944" y2="165.181"  stroke="#ff0000" />
<line x1="347.213" y1="168.627" x2="370.503" y2="165.745"  stroke="#ff0000" />
<line x1="337.926" y1="172.324" x2="347.213" y2="168.627"  stroke="#ff0000" />
<line x1="314.887" y1="179.276" x2="337.926" y2="172.324"  stroke="#ff0000" />
<line x1="298.145" y1="185.173" x2="314.887" y2="179.276"  stroke="#ff0000" />
<line x1="277.632" y1="195.835" x2="298.145" y2="185.173"  stroke="#ff0000" />
<line x1="270.724" y1="197.866" x2="277.632" y2="195.835"  stroke="#ff0000" />
<line x1="249.422" y1="202.999" x2="270.724" y2="197.866"  stroke="#ff0000" />
<line x1="222.078" y1="216.654" x2="249.422" y2="202.999"  stroke="#ff0000" />
<line x1="212.266" y1="220.614" x2="222.078" y2="216.654"  stroke="#ff0000" />
<line x1="-2879.4" y1="2186.43" x2="212.266" y2="220.614"  stroke="#ff0000" />
</g>
<g><title>ray</title>
<line x1="381.638" y1="165.469" x2="393.423" y2="162.56"  stroke="#00ebff" />
<line x1="374.9" y1="165.615" x2="381.638" y2="165.469"  stroke="#00ebff" />
<line x1="370.552" y1="166.168" x2="374.9" y2="165.615"  stroke="#00ebff" />
<line x1="347.066" y1="169.068" x2="370.552" y2="166.168"  stroke="#00ebff" />
<line x1="337.994" y1="172.673" x2="347.066" y2="169.068"  stroke="#00ebff" />
<line x1="314.842" y1="179.591" x2="337.994" y2="172.673"  stroke="#00ebff" />
<line x1="298.174" y1="185.385" x2="314.842" y2="179.591"  stroke="#00ebff" />
<line x1="277.629" y1="196.033" x2="298.174" y2="185.385"  stroke="#00ebff" />
<line x1="270.726" y1="198.037" x2="277.629" y2="196.033"  stroke="#00ebff" />
<line x1="249.422" y1="203.077" x2="270.726" y2="198.037"  stroke="#00ebff" />
<line x1="222.082" y1="216.673" x2="249.422" y2="203.077"  stroke="#00ebff" />
<line x1="212.266" y1="220.614" x2="222.082" y2="216.673"  stroke="#00ebff" />
<line x1="-2879.4" y1="2186.43" x2="212.266" y2="220.614"  stroke="#00ebff" />
</g>
<g><title>ray</title>
<line x1="252.617" y1="153.626" x2="263.305" y2="150.621"  stroke="#ffe100" />
<line x1="222.276" y1="182.527" x2="252.617" y2="153.626"  stroke="#ffe100" />
<line x1="211.957" y1="186.257" x2="222.276" y2="182.527"  stroke="#ffe100" />
<line x1="-2895.04" y1="2161.83" x2="211.957" y2="186.257"  stroke="#ffe100" />
</g>
<g><title>ray</title>
<line x1="252.61" y1="153.676" x2="263.313" y2="150.646"  stroke="#ff0000" />
<line x1="222.278" y1="182.519" x2="252.61" y2="153.676"  stroke="#ff0000" />
<line x1="211.957" y1="186.257" x2="222.278" y2="182.519"  stroke="#ff0000" />
<line x1="-2895.04" y1="2161.83" x2="211.957" y2="186.257"  stroke="#ff0000" />
</g>
<g><title>ray</title>
<line x1="252.633" y1="153.513" x2="263.288" y2="150.564"  stroke="#00ebff" />
<line x1="222.271" y1="182.546" x2="252.633" y2="153.513"  stroke="#00ebff" />
<line x1="211.957" y1="186.257" x2="222.271" y2="182.546"  stroke="#00ebff" />
<line x1="-2895.04" y1="2161.83" x2="211.957" y2="186.257"  stroke="#00ebff" />
</g>
<g><title>ray</title>
<line x1="384.31" y1="155.923" x2="393.423" y2="154.339"  stroke="#ffe100" />
<line x1="376.182" y1="155.4" x2="384.31" y2="155.923"  stroke="#ffe100" />
<line x1="369.113" y1="155.476" x2="376.182" y2="155.4"  stroke="#ffe100" />
<line x1="352.23" y1="156.453" x2="369.113" y2="155.476"  stroke="#ffe100" />
<line x1="335.76" y1="162.889" x2="352.23" y2="156.453"  stroke="#ffe100" />
<line x1="316.708" y1="169.209" x2="335.76" y2="162.889"  stroke="#ffe100" />
<line x1="296.711" y1="177.158" x2="316.708" y2="169.209"  stroke="#ffe100" />
<line x1="277.903" y1="187.265" x2="296.711" y2="177.158"  stroke="#ffe100" />
<line x1="270.404" y1="189.415" x2="277.903" y2="187.265"  stroke="#ffe100" />
<line x1="249.453" y1="194.542" x2="270.404" y2="189.415"  stroke="#ffe100" />
<line x1="220.866" y1="210.226" x2="249.453" y2="194.542"  stroke="#ffe100" />
<line x1="211.957" y1="213.743" x2="220.866" y2="210.226"  stroke="#ffe100" />
<line x1="-2882.6" y1="2181.4" x2="211.957" y2="213.743"  stroke="#ffe100" />
</g>
<g><title>ray</title>
<line x1="384.357" y1="155.786" x2="393.423" y2="154.212"  stroke="#ff0000" />
<line x1="376.204" y1="155.261" x2="384.357" y2="155.786"  stroke="#ff0000" />
<line x1="369.091" y1="155.337" x2="376.204" y2="155.261"  stroke="#ff0000" />
<line x1="352.301" y1="156.31" x2="369.091" y2="155.337"  stroke="#ff0000" />
<line x1="335.733" y1="162.789" x2="352.301" y2="156.31"  stroke="#ff0000" />
<line x1="316.73" y1="169.106" x2="335.733" y2="162.789"  stroke="#ff0000" />
<line x1="296.697" y1="177.096" x2="316.73" y2="169.106"  stroke="#ff0000" />
<line x1="277.906" y1="187.207" x2="296.697" y2="177.096"  stroke="#ff0000" />
<line x1="270.401" y1="189.369" x2="277.906" y2="187.207"  stroke="#ff0000" />
<line x1="249.453" y1="194.524" x2="270.401" y2="189.369"  stroke="#ff0000" />
<line x1="220.865" y1="210.22" x2="249.453" y2="194.524"  stroke="#ff0000" />
<line x1="211.957" y1="213.743" x2="220.865" y2="210.22"  stroke="#ff0000" />
<line x1="-2882.6" y1="2181.4" x2="211.957" y2="213.743"  stroke="#ff0000" />
</g>
<g><title>ray</title>
<line x1="384.204" y1="156.235" x2="393.423" y2="154.624"  stroke="#00ebff" />
<line x1="376.134" y1="155.717" x2="384.204" y2="156.235"  stroke="#00ebff" />
<line x1="369.161" y1="155.793" x2="376.134" y2="155.717"  stroke="#00ebff" />
<line x1="352.069" y1="156.782" x2="369.161" y2="155.793"  stroke="#00ebff" />
<line x1="335.822" y1="163.124" x2="352.069" y2="156.782"  stroke="#00ebff" />
<line x1="316.655" y1="169.45" x2="335.822" y2="163.124"  stroke="#00ebff" />
<line x1="296.742" y1="177.301" x2="316.655" y2="169.45"  stroke="#00ebff" />
<line x1="277.896" y1="187.4" x2="296.742" y2="177.301"  stroke="#00ebff" />
<line x1="270.41" y1="189.524" x2="277.896" y2="187.4"  stroke="#00ebff" />
<line x1="249.452" y1="194.585" x2="270.41" y2="189.524"  stroke="#00ebff" />
<line x1="220.868" y1="210.239" x2="249.452" y2="194.585"  stroke="#00ebff" />
<line x1="211.957" y1="213.743" x2="220.868" y2="210.239"  stroke="#00ebff" />
<line x1="-2882.6" y1="2181.4" x2="211.957" y2="213.743"  stroke="#00ebff" />
</g>
<g><title>ray</title>
<line x1="266.374" y1="161.986" x2="280.92" y2="157.98"  stroke="#ffe100" />
<line x1="251.122" y1="166.068" x2="266.374" y2="161.986"  stroke="#ffe100" />
<line x1="220.868" y1="189.765" x2="251.122" y2="166.068"  stroke="#ffe100" />
<line x1="211.772" y1="193.129" x2="220.868" y2="189.765"  stroke="#ffe100" />
<line x1="-2891.99" y1="2166.63" x2="211.772" y2="193.129"  stroke="#ffe100" />
</g>
<g><title>ray</title>
<line x1="266.371" y1="161.974" x2="280.927" y2="157.937"  stroke="#ff0000" />
<line x1="251.121" y1="166.081" x2="266.371" y2="161.974"  stroke="#ff0000" />
<line x1="220.869" y1="189.758" x2="251.121" y2="166.081"  stroke="#ff0000" />
<line x1="211.772" y1="193.129" x2="220.869" y2="189.758"  stroke="#ff0000" />
<line x1="-2891.99" y1="2166.63" x2="211.772" y2="193.129"  stroke="#ff0000" />
</g>
<g><title>ray</title>
<line x1="266.38" y1="162.015" x2="280.904" y2="158.083"  stroke="#00ebff" />
<line x1="251.126" y1="166.037" x2="266.38" y2="162.015"  stroke="#00ebff" />
<line x1="220.865" y1="189.78" x2="251.126" y2="166.037"  stroke="#00ebff" />
<line x1="211.772" y1="193.129" x2="220.865" y2="189.78"  stroke="#00ebff" />
<line x1="-2891.99" y1="2166.63" x2="211.772" y2="193.129"  stroke="#00ebff" />
</g>
<g><title>ray</title>
<line x1="319.627" y1="157.978" x2="332.827" y2="153.205"  stroke="#ffe100" />
<line x1="294.639" y1="169.167" x2="319.627" y2="157.978"  stroke="#ffe100" />
<line x1="278.488" y1="178.22" x2="294.639" y2="169.167"  stroke="#ffe100" />
<line x1="269.625" y1="180.712" x2="278.488" y2="178.22"  stroke="#ffe100" />
<line x1="249.712" y1="185.701" x2="269.625" y2="180.712"  stroke="#ffe100" />
<line x1="220.232" y1="203.602" x2="249.712" y2="185.701"  stroke="#ffe100" />
<line x1="211.772" y1="206.871" x2="220.232" y2="203.602"  stroke="#ffe100" />
<line x1="-2885.76" y1="2176.42" x2="211.772" y2="206.871"  stroke="#ffe100" />
</g>
<g><title>ray</title>
<line x1="319.662" y1="157.864" x2="332.794" y2="153.108"  stroke="#ff0000" />
<line x1="294.622" y1="169.11" x2="319.662" y2="157.864"  stroke="#ff0000" />
<line x1="278.492" y1="178.165" x2="294.622" y2="169.11"  stroke="#ff0000" />
<line x1="269.621" y1="180.673" x2="278.492" y2="178.165"  stroke="#ff0000" />
<line x1="249.713" y1="185.689" x2="269.621" y2="180.673"  stroke="#ff0000" />
<line x1="220.232" y1="203.596" x2="249.713" y2="185.689"  stroke="#ff0000" />
<line x1="211.772" y1="206.871" x2="220.232" y2="203.596"  stroke="#ff0000" />
<line x1="-2885.76" y1="2176.42" x2="211.772" y2="206.871"  stroke="#ff0000" />
</g>
<g><title>ray</title>
<line x1="319.546" y1="158.248" x2="332.905" y2="153.433"  stroke="#00ebff" />
<line x1="294.68" y1="169.303" x2="319.546" y2="158.248"  stroke="#00ebff" />
<line x1="278.477" y1="178.349" x2="294.68" y2="169.303"  stroke="#00ebff" />
<line x1="269.636" y1="180.805" x2="278.477" y2="178.349"  stroke="#00ebff" />
<line x1="249.711" y1="185.728" x2="269.636" y2="180.805"  stroke="#00ebff" />
<line x1="220.233" y1="203.614" x2="249.711" y2="185.728"  stroke="#00ebff" />
<line x1="211.772" y1="206.871" x2="220.233" y2="203.614"  stroke="#00ebff" />
<line x1="-2885.76" y1="2176.42" x2="211.772" y2="206.871"  stroke="#00ebff" />
</g>
</g>
</svg>
