<?xml version="1.0" standalone="no"?>
<svg width="640px" height="480px" version="1.1" xmlns="http://www.w3.org/2000/svg" xmlns:xlink="http://www.w3.org/1999/xlink">
<rect x="0" y="0" width="640" height="480"  fill="#ffffff" />
<defs>
<g id="dot">
<line x1="1" y1="1" x2="0" y2="0"  />
</g>
<g id="cross">
<line x1="-3" y1="0" x2="3" y2="0"  />
<line x1="0" y1="-3" x2="0" y2="3"  />
</g>
<g id="square">
<line x1="-3" y1="-3" x2="-3" y2="3"  />
<line x1="-3" y1="3" x2="3" y2="3"  />
<line x1="3" y1="3" x2="3" y2="-3"  />
<line x1="3" y1="-3" x2="-3" y2="-3"  />
</g>
<g id="round">
<ellipse cx="0" cy="0" rx="3" ry="3"  fill="none" /></g>
<g id="triangle">
<line x1="0" y1="-3" x2="-3" y2="3"  />
<line x1="-3" y1="3" x2="3" y2="3"  />
<line x1="0" y1="-3" x2="3" y2="3"  />
</g>
</defs>
<polygon fill="none" stroke="#000000" points="66.0317,430.476 66.0317,49.5238 573.968,49.5238 573.968,430.476 " />
<text style="font-size:12;text-align:center;text-anchor:middle;" x="320" y="473.619" fill="#000000">Entrance ray height (normalized)</text>
<line x1="66.0317" y1="149.903" x2="573.968" y2="149.903"  stroke="#000000" />
<use x="66.0317" y="149.903" xlink:href="#cross"  stroke="#000000" />
<use x="66.0317" y="49.5238" xlink:href="#cross"  stroke="#000000" />
<use x="66.0317" y="430.476" xlink:href="#cross"  stroke="#000000" />
<text style="font-size:12;text-align:center;text-anchor:middle;" x="66.0317" y="448.476" fill="#000000">-1</text>
<use x="320" y="149.903" xlink:href="#cross"  stroke="#000000" />
<use x="320" y="49.5238" xlink:href="#cross"  stroke="#000000" />
<use x="320" y="430.476" xlink:href="#cross"  stroke="#000000" />
<text style="font-size:12;text-align:center;text-anchor:middle;" x="320" y="448.476" fill="#000000">0</text>
<use x="573.968" y="149.903" xlink:href="#cross"  stroke="#000000" />
<use x="573.968" y="49.5238" xlink:href="#cross"  stroke="#000000" />
<use x="573.968" y="430.476" xlink:href="#cross"  stroke="#000000" />
<text style="font-size:12;text-align:center;text-anchor:middle;" x="573.968" y="448.476" fill="#000000">1</text>
<text style="font-size:12;text-align:center;text-anchor:middle;" x="16.5079" y="246" transform="rotate(-90,16.5079,240)" fill="#000000">Longitudinal ray aberration (um)</text>
<line x1="320" y1="430.476" x2="320" y2="49.5238"  stroke="#000000" />
<use x="320" y="429.992" xlink:href="#cross"  stroke="#000000" />
<use x="573.968" y="429.992" xlink:href="#cross"  stroke="#000000" />
<use x="66.0317" y="429.992" xlink:href="#cross"  stroke="#000000" />
<text style="font-size:12;text-align:right;text-anchor:end;" x="60.0317" y="435.992" fill="#000000">-160</text>
<use x="320" y="394.981" xlink:href="#cross"  stroke="#000000" />
<use x="573.968" y="394.981" xlink:href="#cross"  stroke="#000000" />
<use x="66.0317" y="394.981" xlink:href="#cross"  stroke="#000000" />
<text style="font-size:12;text-align:right;text-anchor:end;" x="60.0317" y="400.981" fill="#000000">-140</text>
<use x="320" y="359.97" xlink:href="#cross"  stroke="#000000" />
<use x="573.968" y="359.97" xlink:href="#cross"  stroke="#000000" />
<use x="66.0317" y="359.97" xlink:href="#cross"  stroke="#000000" />
<text style="font-size:12;text-align:right;text-anchor:end;" x="60.0317" y="365.97" fill="#000000">-120</text>
<use x="320" y="324.959" xlink:href="#cross"  stroke="#000000" />
<use x="573.968" y="324.959" xlink:href="#cross"  stroke="#000000" />
<use x="66.0317" y="324.959" xlink:href="#cross"  stroke="#000000" />
<text style="font-size:12;text-align:right;text-anchor:end;" x="60.0317" y="330.959" fill="#000000">-100</text>
<use x="320" y="289.948" xlink:href="#cross"  stroke="#000000" />
<use x="573.968" y="289.948" xlink:href="#cross"  stroke="#000000" />
<use x="66.0317" y="289.948" xlink:href="#cross"  stroke="#000000" />
<text style="font-size:12;text-align:right;text-anchor:end;" x="60.0317" y="295.948" fill="#000000">-80</text>
<use x="320" y="254.936" xlink:href="#cross"  stroke="#000000" />
<use x="573.968" y="254.936" xlink:href="#cross"  stroke="#000000" />
<use x="66.0317" y="254.936" xlink:href="#cross"  stroke="#000000" />
<text style="font-size:12;text-align:right;text-anchor:end;" x="60.0317" y="260.936" fill="#000000">-60</text>
<use x="320" y="219.925" xlink:href="#cross"  stroke="#000000" />
<use x="573.968" y="219.925" xlink:href="#cross"  stroke="#000000" />
<use x="66.0317" y="219.925" xlink:href="#cross"  stroke="#000000" />
<text style="font-size:12;text-align:right;text-anchor:end;" x="60.0317" y="225.925" fill="#000000">-40</text>
<use x="320" y="184.914" xlink:href="#cross"  stroke="#000000" />
<use x="573.968" y="184.914" xlink:href="#cross"  stroke="#000000" />
<use x="66.0317" y="184.914" xlink:href="#cross"  stroke="#000000" />
<text style="font-size:12;text-align:right;text-anchor:end;" x="60.0317" y="190.914" fill="#000000">-20</text>
<use x="320" y="149.903" xlink:href="#cross"  stroke="#000000" />
<use x="573.968" y="149.903" xlink:href="#cross"  stroke="#000000" />
<use x="66.0317" y="149.903" xlink:href="#cross"  stroke="#000000" />
<text style="font-size:12;text-align:right;text-anchor:end;" x="60.0317" y="155.903" fill="#000000">0</text>
<use x="320" y="114.892" xlink:href="#cross"  stroke="#000000" />
<use x="573.968" y="114.892" xlink:href="#cross"  stroke="#000000" />
<use x="66.0317" y="114.892" xlink:href="#cross"  stroke="#000000" />
<text style="font-size:12;text-align:right;text-anchor:end;" x="60.0317" y="120.892" fill="#000000">20</text>
<use x="320" y="79.8805" xlink:href="#cross"  stroke="#000000" />
<use x="573.968" y="79.8805" xlink:href="#cross"  stroke="#000000" />
<use x="66.0317" y="79.8805" xlink:href="#cross"  stroke="#000000" />
<text style="font-size:12;text-align:right;text-anchor:end;" x="60.0317" y="85.8805" fill="#000000">40</text>
<text style="font-size:18;text-align:center;text-anchor:middle;" x="320" y="33.7619" fill="#000000">Longitudinal ray aberration fan (tangential)</text>
<path fill="none"  stroke="#00ebff" d="M83.2,154.649 S94.4762,245.486 100.114,279.569 S111.39,338.2 117.029,359.148 S128.305,393.999 133.943,405.262 S145.219,422.524 150.857,426.727 S162.133,431.251 167.771,430.476 S179.048,426.154 184.686,422.078 S195.962,412.047 201.6,406.018 S212.876,392.804 218.514,385.902 S229.79,371.523 235.429,364.603 S246.705,350.653 252.343,344.381 S263.619,332.093 269.257,326.973 S280.533,317.269 286.171,313.663 S294.629,306.721 303.086,305.333 S328.457,303.945 336.914,305.333 S348.19,310.056 353.829,313.663 S365.105,321.853 370.743,326.973 S382.019,338.11 387.657,344.381 S398.933,357.683 404.571,364.603 S415.848,379 421.486,385.902 S432.762,399.989 438.4,406.018 S449.676,418.001 455.314,422.078 S466.59,429.701 472.229,430.476 S483.505,430.929 489.143,426.727 S500.419,416.525 506.057,405.262 S517.333,380.097 522.971,359.148 S534.248,313.653 539.886,279.569 S553.981,175.469 556.8,154.649 " />
<path fill="none"  stroke="#ffe100" d="M83.2,240.28 S94.4762,302.814 100.114,324.506 S111.39,359.854 117.029,370.431 S128.305,385.571 133.943,387.968 S145.219,388.271 150.857,384.816 S162.133,374.643 167.771,367.235 S179.048,350.171 184.686,340.37 S195.962,319.35 201.6,308.424 S212.876,285.837 218.514,274.811 S229.79,252.577 235.429,242.268 S246.705,221.91 252.343,212.956 S263.619,195.658 269.257,188.542 S280.533,175.191 286.171,170.261 S294.629,160.844 303.086,158.961 S328.457,157.077 336.914,158.961 S348.19,165.33 353.829,170.261 S365.105,181.426 370.743,188.542 S382.019,204.002 387.657,212.956 S398.933,231.959 404.571,242.268 S415.848,263.785 421.486,274.811 S432.762,297.498 438.4,308.424 S449.676,330.568 455.314,340.37 S466.59,359.828 472.229,367.235 S483.505,381.36 489.143,384.816 S500.419,390.366 506.057,387.968 S517.333,381.008 522.971,370.431 S534.248,346.198 539.886,324.506 S553.981,254.317 556.8,240.28 " />
<path fill="none"  stroke="#ff0000" d="M83.2,212.799 S94.4762,265.859 100.114,283.359 S111.39,310.789 117.029,317.8 S128.305,326.123 133.943,325.422 S145.219,319.765 150.857,313.593 S162.133,298.183 167.771,288.392 S179.048,266.732 184.686,254.85 S195.962,229.826 201.6,217.105 S212.876,191.073 218.514,178.525 S229.79,153.384 235.429,141.816 S246.705,119.074 252.343,109.119 S263.619,89.9489 269.257,82.0856 S280.533,67.3667 286.171,61.9397 S294.629,51.5931 303.086,49.5238 S328.457,47.4545 336.914,49.5238 S348.19,56.5127 353.829,61.9397 S365.105,74.2224 370.743,82.0856 S382.019,99.164 387.657,109.119 S398.933,130.248 404.571,141.816 S415.848,165.977 421.486,178.525 S432.762,204.384 438.4,217.105 S449.676,242.969 455.314,254.85 S466.59,278.602 472.229,288.392 S483.505,307.422 489.143,313.593 S500.419,324.72 506.057,325.422 S517.333,324.81 522.971,317.8 S534.248,300.859 539.886,283.359 S553.981,224.559 556.8,212.799 " />
</svg>
