<?xml version="1.0" standalone="no"?>
<svg width="640px" height="480px" version="1.1" xmlns="http://www.w3.org/2000/svg" xmlns:xlink="http://www.w3.org/1999/xlink">
<rect x="0" y="0" width="640" height="480"  fill="#ffffff" />
<defs>
<g id="dot">
<line x1="1" y1="1" x2="0" y2="0"  />
</g>
<g id="cross">
<line x1="-3" y1="0" x2="3" y2="0"  />
<line x1="0" y1="-3" x2="0" y2="3"  />
</g>
<g id="square">
<line x1="-3" y1="-3" x2="-3" y2="3"  />
<line x1="-3" y1="3" x2="3" y2="3"  />
<line x1="3" y1="3" x2="3" y2="-3"  />
<line x1="3" y1="-3" x2="-3" y2="-3"  />
</g>
<g id="round">
<ellipse cx="0" cy="0" rx="3" ry="3"  fill="none" /></g>
<g id="triangle">
<line x1="0" y1="-3" x2="-3" y2="3"  />
<line x1="-3" y1="3" x2="3" y2="3"  />
<line x1="0" y1="-3" x2="3" y2="3"  />
</g>
</defs>
<polygon fill="none" stroke="#000000" points="66.0317,430.476 66.0317,49.5238 573.968,49.5238 573.968,430.476 " />
<text style="font-size:12;text-align:center;text-anchor:middle;" x="320" y="473.619" fill="#000000">Distance from spot centroid (um)</text>
<use x="66.0317" y="49.5238" xlink:href="#cross"  stroke="#000000" />
<use x="66.0317" y="430.476" xlink:href="#cross"  stroke="#000000" />
<text style="font-size:12;text-align:center;text-anchor:middle;" x="66.0317" y="448.476" fill="#000000">0</text>
<use x="129.586" y="49.5238" xlink:href="#cross"  stroke="#000000" />
<use x="129.586" y="430.476" xlink:href="#cross"  stroke="#000000" />
<text style="font-size:12;text-align:center;text-anchor:middle;" x="129.586" y="448.476" fill="#000000">50</text>
<use x="193.141" y="49.5238" xlink:href="#cross"  stroke="#000000" />
<use x="193.141" y="430.476" xlink:href="#cross"  stroke="#000000" />
<text style="font-size:12;text-align:center;text-anchor:middle;" x="193.141" y="448.476" fill="#000000">100</text>
<use x="256.695" y="49.5238" xlink:href="#cross"  stroke="#000000" />
<use x="256.695" y="430.476" xlink:href="#cross"  stroke="#000000" />
<text style="font-size:12;text-align:center;text-anchor:middle;" x="256.695" y="448.476" fill="#000000">150</text>
<use x="320.25" y="49.5238" xlink:href="#cross"  stroke="#000000" />
<use x="320.25" y="430.476" xlink:href="#cross"  stroke="#000000" />
<text style="font-size:12;text-align:center;text-anchor:middle;" x="320.25" y="448.476" fill="#000000">200</text>
<use x="383.804" y="49.5238" xlink:href="#cross"  stroke="#000000" />
<use x="383.804" y="430.476" xlink:href="#cross"  stroke="#000000" />
<text style="font-size:12;text-align:center;text-anchor:middle;" x="383.804" y="448.476" fill="#000000">250</text>
<use x="447.359" y="49.5238" xlink:href="#cross"  stroke="#000000" />
<use x="447.359" y="430.476" xlink:href="#cross"  stroke="#000000" />
<text style="font-size:12;text-align:center;text-anchor:middle;" x="447.359" y="448.476" fill="#000000">300</text>
<use x="510.913" y="49.5238" xlink:href="#cross"  stroke="#000000" />
<use x="510.913" y="430.476" xlink:href="#cross"  stroke="#000000" />
<text style="font-size:12;text-align:center;text-anchor:middle;" x="510.913" y="448.476" fill="#000000">350</text>
<text style="font-size:12;text-align:center;text-anchor:middle;" x="16.5079" y="246" transform="rotate(-90,16.5079,240)" fill="#000000">Encircled intensity</text>
<use x="573.968" y="430.476" xlink:href="#cross"  stroke="#000000" />
<use x="66.0317" y="430.476" xlink:href="#cross"  stroke="#000000" />
<text style="font-size:12;text-align:right;text-anchor:end;" x="60.0317" y="436.476" fill="#000000">0</text>
<use x="573.968" y="365.578" xlink:href="#cross"  stroke="#000000" />
<use x="66.0317" y="365.578" xlink:href="#cross"  stroke="#000000" />
<text style="font-size:12;text-align:right;text-anchor:end;" x="60.0317" y="371.578" fill="#000000">100</text>
<use x="573.968" y="300.68" xlink:href="#cross"  stroke="#000000" />
<use x="66.0317" y="300.68" xlink:href="#cross"  stroke="#000000" />
<text style="font-size:12;text-align:right;text-anchor:end;" x="60.0317" y="306.68" fill="#000000">200</text>
<use x="573.968" y="235.782" xlink:href="#cross"  stroke="#000000" />
<use x="66.0317" y="235.782" xlink:href="#cross"  stroke="#000000" />
<text style="font-size:12;text-align:right;text-anchor:end;" x="60.0317" y="241.782" fill="#000000">300</text>
<use x="573.968" y="170.883" xlink:href="#cross"  stroke="#000000" />
<use x="66.0317" y="170.883" xlink:href="#cross"  stroke="#000000" />
<text style="font-size:12;text-align:right;text-anchor:end;" x="60.0317" y="176.883" fill="#000000">400</text>
<use x="573.968" y="105.985" xlink:href="#cross"  stroke="#000000" />
<use x="66.0317" y="105.985" xlink:href="#cross"  stroke="#000000" />
<text style="font-size:12;text-align:right;text-anchor:end;" x="60.0317" y="111.985" fill="#000000">500</text>
<text style="font-size:18;text-align:center;text-anchor:middle;" x="320" y="33.7619" fill="#000000">Spot diagram encircled rays intensity</text>
<line x1="66.0317" y1="430.476" x2="76.1905" y2="387.643"  stroke="#00ebff" />
<line x1="76.1905" y1="387.643" x2="86.3492" y2="301.329"  stroke="#00ebff" />
<line x1="86.3492" y1="301.329" x2="96.5079" y2="237.08"  stroke="#00ebff" />
<line x1="96.5079" y1="237.08" x2="106.667" y2="205.928"  stroke="#00ebff" />
<line x1="106.667" y1="205.928" x2="116.825" y2="179.969"  stroke="#00ebff" />
<line x1="116.825" y1="179.969" x2="126.984" y2="158.553"  stroke="#00ebff" />
<line x1="126.984" y1="158.553" x2="137.143" y2="148.169"  stroke="#00ebff" />
<line x1="137.143" y1="148.169" x2="147.302" y2="140.381"  stroke="#00ebff" />
<line x1="147.302" y1="140.381" x2="157.46" y2="132.593"  stroke="#00ebff" />
<line x1="157.46" y1="132.593" x2="167.619" y2="126.104"  stroke="#00ebff" />
<line x1="167.619" y1="126.104" x2="177.778" y2="118.316"  stroke="#00ebff" />
<line x1="177.778" y1="118.316" x2="187.937" y2="111.826"  stroke="#00ebff" />
<line x1="187.937" y1="111.826" x2="198.095" y2="107.932"  stroke="#00ebff" />
<line x1="198.095" y1="107.932" x2="208.254" y2="102.74"  stroke="#00ebff" />
<line x1="208.254" y1="102.74" x2="218.413" y2="97.5485"  stroke="#00ebff" />
<line x1="218.413" y1="97.5485" x2="228.571" y2="94.9525"  stroke="#00ebff" />
<line x1="228.571" y1="94.9525" x2="238.73" y2="92.3566"  stroke="#00ebff" />
<line x1="238.73" y1="92.3566" x2="248.889" y2="88.4627"  stroke="#00ebff" />
<line x1="248.889" y1="88.4627" x2="259.048" y2="85.8668"  stroke="#00ebff" />
<line x1="259.048" y1="85.8668" x2="269.206" y2="83.2709"  stroke="#00ebff" />
<line x1="269.206" y1="83.2709" x2="279.365" y2="79.377"  stroke="#00ebff" />
<line x1="279.365" y1="79.377" x2="289.524" y2="79.377"  stroke="#00ebff" />
<line x1="289.524" y1="79.377" x2="299.683" y2="76.781"  stroke="#00ebff" />
<line x1="299.683" y1="76.781" x2="309.841" y2="74.1851"  stroke="#00ebff" />
<line x1="309.841" y1="74.1851" x2="320" y2="71.5892"  stroke="#00ebff" />
<line x1="320" y1="71.5892" x2="330.159" y2="71.5892"  stroke="#00ebff" />
<line x1="330.159" y1="71.5892" x2="340.317" y2="68.9933"  stroke="#00ebff" />
<line x1="340.317" y1="68.9933" x2="350.476" y2="68.9933"  stroke="#00ebff" />
<line x1="350.476" y1="68.9933" x2="360.635" y2="66.3973"  stroke="#00ebff" />
<line x1="360.635" y1="66.3973" x2="370.794" y2="65.0994"  stroke="#00ebff" />
<line x1="370.794" y1="65.0994" x2="380.952" y2="63.8014"  stroke="#00ebff" />
<line x1="380.952" y1="63.8014" x2="391.111" y2="62.5034"  stroke="#00ebff" />
<line x1="391.111" y1="62.5034" x2="401.27" y2="62.5034"  stroke="#00ebff" />
<line x1="401.27" y1="62.5034" x2="411.429" y2="61.2055"  stroke="#00ebff" />
<line x1="411.429" y1="61.2055" x2="421.587" y2="61.2055"  stroke="#00ebff" />
<line x1="421.587" y1="61.2055" x2="431.746" y2="58.6096"  stroke="#00ebff" />
<line x1="431.746" y1="58.6096" x2="441.905" y2="58.6096"  stroke="#00ebff" />
<line x1="441.905" y1="58.6096" x2="452.063" y2="57.3116"  stroke="#00ebff" />
<line x1="452.063" y1="57.3116" x2="462.222" y2="57.3116"  stroke="#00ebff" />
<line x1="462.222" y1="57.3116" x2="472.381" y2="56.0136"  stroke="#00ebff" />
<line x1="472.381" y1="56.0136" x2="482.54" y2="56.0136"  stroke="#00ebff" />
<line x1="482.54" y1="56.0136" x2="492.698" y2="54.7157"  stroke="#00ebff" />
<line x1="492.698" y1="54.7157" x2="502.857" y2="54.7157"  stroke="#00ebff" />
<line x1="502.857" y1="54.7157" x2="513.016" y2="54.7157"  stroke="#00ebff" />
<line x1="513.016" y1="54.7157" x2="523.175" y2="54.7157"  stroke="#00ebff" />
<line x1="523.175" y1="54.7157" x2="533.333" y2="54.7157"  stroke="#00ebff" />
<line x1="533.333" y1="54.7157" x2="543.492" y2="53.4177"  stroke="#00ebff" />
<line x1="543.492" y1="53.4177" x2="553.651" y2="53.4177"  stroke="#00ebff" />
<line x1="553.651" y1="53.4177" x2="563.81" y2="52.7687"  stroke="#00ebff" />
<line x1="563.81" y1="52.7687" x2="573.968" y2="52.1197"  stroke="#00ebff" />
<line x1="66.0317" y1="430.476" x2="76.1905" y2="360.386"  stroke="#ffe100" />
<line x1="76.1905" y1="360.386" x2="86.3492" y2="270.178"  stroke="#ffe100" />
<line x1="86.3492" y1="270.178" x2="96.5079" y2="230.59"  stroke="#ffe100" />
<line x1="96.5079" y1="230.59" x2="106.667" y2="205.279"  stroke="#ffe100" />
<line x1="106.667" y1="205.279" x2="116.825" y2="172.83"  stroke="#ffe100" />
<line x1="116.825" y1="172.83" x2="126.984" y2="159.851"  stroke="#ffe100" />
<line x1="126.984" y1="159.851" x2="137.143" y2="145.573"  stroke="#ffe100" />
<line x1="137.143" y1="145.573" x2="147.302" y2="139.083"  stroke="#ffe100" />
<line x1="147.302" y1="139.083" x2="157.46" y2="131.296"  stroke="#ffe100" />
<line x1="157.46" y1="131.296" x2="167.619" y2="122.21"  stroke="#ffe100" />
<line x1="167.619" y1="122.21" x2="177.778" y2="115.72"  stroke="#ffe100" />
<line x1="177.778" y1="115.72" x2="187.937" y2="109.23"  stroke="#ffe100" />
<line x1="187.937" y1="109.23" x2="198.095" y2="104.038"  stroke="#ffe100" />
<line x1="198.095" y1="104.038" x2="208.254" y2="100.144"  stroke="#ffe100" />
<line x1="208.254" y1="100.144" x2="218.413" y2="93.6546"  stroke="#ffe100" />
<line x1="218.413" y1="93.6546" x2="228.571" y2="91.0587"  stroke="#ffe100" />
<line x1="228.571" y1="91.0587" x2="238.73" y2="88.4627"  stroke="#ffe100" />
<line x1="238.73" y1="88.4627" x2="248.889" y2="84.5688"  stroke="#ffe100" />
<line x1="248.889" y1="84.5688" x2="259.048" y2="81.9729"  stroke="#ffe100" />
<line x1="259.048" y1="81.9729" x2="269.206" y2="79.377"  stroke="#ffe100" />
<line x1="269.206" y1="79.377" x2="279.365" y2="78.079"  stroke="#ffe100" />
<line x1="279.365" y1="78.079" x2="289.524" y2="76.781"  stroke="#ffe100" />
<line x1="289.524" y1="76.781" x2="299.683" y2="72.8872"  stroke="#ffe100" />
<line x1="299.683" y1="72.8872" x2="309.841" y2="70.2912"  stroke="#ffe100" />
<line x1="309.841" y1="70.2912" x2="320" y2="70.2912"  stroke="#ffe100" />
<line x1="320" y1="70.2912" x2="330.159" y2="67.6953"  stroke="#ffe100" />
<line x1="330.159" y1="67.6953" x2="340.317" y2="67.6953"  stroke="#ffe100" />
<line x1="340.317" y1="67.6953" x2="350.476" y2="65.0994"  stroke="#ffe100" />
<line x1="350.476" y1="65.0994" x2="360.635" y2="63.8014"  stroke="#ffe100" />
<line x1="360.635" y1="63.8014" x2="370.794" y2="62.5034"  stroke="#ffe100" />
<line x1="370.794" y1="62.5034" x2="380.952" y2="61.2055"  stroke="#ffe100" />
<line x1="380.952" y1="61.2055" x2="391.111" y2="59.9075"  stroke="#ffe100" />
<line x1="391.111" y1="59.9075" x2="401.27" y2="59.9075"  stroke="#ffe100" />
<line x1="401.27" y1="59.9075" x2="411.429" y2="59.9075"  stroke="#ffe100" />
<line x1="411.429" y1="59.9075" x2="421.587" y2="57.3116"  stroke="#ffe100" />
<line x1="421.587" y1="57.3116" x2="431.746" y2="57.3116"  stroke="#ffe100" />
<line x1="431.746" y1="57.3116" x2="441.905" y2="56.0136"  stroke="#ffe100" />
<line x1="441.905" y1="56.0136" x2="452.063" y2="54.7157"  stroke="#ffe100" />
<line x1="452.063" y1="54.7157" x2="462.222" y2="54.7157"  stroke="#ffe100" />
<line x1="462.222" y1="54.7157" x2="472.381" y2="53.4177"  stroke="#ffe100" />
<line x1="472.381" y1="53.4177" x2="482.54" y2="53.4177"  stroke="#ffe100" />
<line x1="482.54" y1="53.4177" x2="492.698" y2="53.4177"  stroke="#ffe100" />
<line x1="492.698" y1="53.4177" x2="502.857" y2="53.4177"  stroke="#ffe100" />
<line x1="502.857" y1="53.4177" x2="513.016" y2="53.4177"  stroke="#ffe100" />
<line x1="513.016" y1="53.4177" x2="523.175" y2="52.1197"  stroke="#ffe100" />
<line x1="523.175" y1="52.1197" x2="533.333" y2="52.1197"  stroke="#ffe100" />
<line x1="533.333" y1="52.1197" x2="543.492" y2="50.8218"  stroke="#ffe100" />
<line x1="543.492" y1="50.8218" x2="553.651" y2="50.8218"  stroke="#ffe100" />
<line x1="553.651" y1="50.8218" x2="563.81" y2="50.8218"  stroke="#ffe100" />
<line x1="563.81" y1="50.8218" x2="573.968" y2="50.8218"  stroke="#ffe100" />
<line x1="66.0317" y1="430.476" x2="76.1905" y2="337.023"  stroke="#ff0000" />
<line x1="76.1905" y1="337.023" x2="86.3492" y2="279.263"  stroke="#ff0000" />
<line x1="86.3492" y1="279.263" x2="96.5079" y2="236.431"  stroke="#ff0000" />
<line x1="96.5079" y1="236.431" x2="106.667" y2="207.875"  stroke="#ff0000" />
<line x1="106.667" y1="207.875" x2="116.825" y2="183.214"  stroke="#ff0000" />
<line x1="116.825" y1="183.214" x2="126.984" y2="167.639"  stroke="#ff0000" />
<line x1="126.984" y1="167.639" x2="137.143" y2="154.659"  stroke="#ff0000" />
<line x1="137.143" y1="154.659" x2="147.302" y2="144.275"  stroke="#ff0000" />
<line x1="147.302" y1="144.275" x2="157.46" y2="133.891"  stroke="#ff0000" />
<line x1="157.46" y1="133.891" x2="167.619" y2="126.104"  stroke="#ff0000" />
<line x1="167.619" y1="126.104" x2="177.778" y2="122.21"  stroke="#ff0000" />
<line x1="177.778" y1="122.21" x2="187.937" y2="111.826"  stroke="#ff0000" />
<line x1="187.937" y1="111.826" x2="198.095" y2="107.932"  stroke="#ff0000" />
<line x1="198.095" y1="107.932" x2="208.254" y2="102.74"  stroke="#ff0000" />
<line x1="208.254" y1="102.74" x2="218.413" y2="98.8464"  stroke="#ff0000" />
<line x1="218.413" y1="98.8464" x2="228.571" y2="93.6546"  stroke="#ff0000" />
<line x1="228.571" y1="93.6546" x2="238.73" y2="91.0587"  stroke="#ff0000" />
<line x1="238.73" y1="91.0587" x2="248.889" y2="87.1648"  stroke="#ff0000" />
<line x1="248.889" y1="87.1648" x2="259.048" y2="81.9729"  stroke="#ff0000" />
<line x1="259.048" y1="81.9729" x2="269.206" y2="79.377"  stroke="#ff0000" />
<line x1="269.206" y1="79.377" x2="279.365" y2="76.781"  stroke="#ff0000" />
<line x1="279.365" y1="76.781" x2="289.524" y2="75.4831"  stroke="#ff0000" />
<line x1="289.524" y1="75.4831" x2="299.683" y2="72.8872"  stroke="#ff0000" />
<line x1="299.683" y1="72.8872" x2="309.841" y2="70.2912"  stroke="#ff0000" />
<line x1="309.841" y1="70.2912" x2="320" y2="68.9933"  stroke="#ff0000" />
<line x1="320" y1="68.9933" x2="330.159" y2="67.6953"  stroke="#ff0000" />
<line x1="330.159" y1="67.6953" x2="340.317" y2="66.3973"  stroke="#ff0000" />
<line x1="340.317" y1="66.3973" x2="350.476" y2="65.0994"  stroke="#ff0000" />
<line x1="350.476" y1="65.0994" x2="360.635" y2="62.5034"  stroke="#ff0000" />
<line x1="360.635" y1="62.5034" x2="370.794" y2="61.2055"  stroke="#ff0000" />
<line x1="370.794" y1="61.2055" x2="380.952" y2="59.9075"  stroke="#ff0000" />
<line x1="380.952" y1="59.9075" x2="391.111" y2="59.9075"  stroke="#ff0000" />
<line x1="391.111" y1="59.9075" x2="401.27" y2="58.6096"  stroke="#ff0000" />
<line x1="401.27" y1="58.6096" x2="411.429" y2="58.6096"  stroke="#ff0000" />
<line x1="411.429" y1="58.6096" x2="421.587" y2="56.0136"  stroke="#ff0000" />
<line x1="421.587" y1="56.0136" x2="431.746" y2="56.0136"  stroke="#ff0000" />
<line x1="431.746" y1="56.0136" x2="441.905" y2="54.7157"  stroke="#ff0000" />
<line x1="441.905" y1="54.7157" x2="452.063" y2="53.4177"  stroke="#ff0000" />
<line x1="452.063" y1="53.4177" x2="462.222" y2="53.4177"  stroke="#ff0000" />
<line x1="462.222" y1="53.4177" x2="472.381" y2="53.4177"  stroke="#ff0000" />
<line x1="472.381" y1="53.4177" x2="482.54" y2="52.1197"  stroke="#ff0000" />
<line x1="482.54" y1="52.1197" x2="492.698" y2="52.1197"  stroke="#ff0000" />
<line x1="492.698" y1="52.1197" x2="502.857" y2="52.1197"  stroke="#ff0000" />
<line x1="502.857" y1="52.1197" x2="513.016" y2="52.1197"  stroke="#ff0000" />
<line x1="513.016" y1="52.1197" x2="523.175" y2="50.8218"  stroke="#ff0000" />
<line x1="523.175" y1="50.8218" x2="533.333" y2="50.8218"  stroke="#ff0000" />
<line x1="533.333" y1="50.8218" x2="543.492" y2="49.5238"  stroke="#ff0000" />
<line x1="543.492" y1="49.5238" x2="553.651" y2="49.5238"  stroke="#ff0000" />
<line x1="553.651" y1="49.5238" x2="563.81" y2="49.5238"  stroke="#ff0000" />
<line x1="563.81" y1="49.5238" x2="573.968" y2="49.5238"  stroke="#ff0000" />
</svg>
