<?xml version="1.0" standalone="no"?>
<svg width="640px" height="480px" version="1.1" xmlns="http://www.w3.org/2000/svg" xmlns:xlink="http://www.w3.org/1999/xlink">
<rect x="0" y="0" width="640" height="480"  fill="#ffffff" />
<defs>
<g id="dot">
<line x1="1" y1="1" x2="0" y2="0"  />
</g>
<g id="cross">
<line x1="-3" y1="0" x2="3" y2="0"  />
<line x1="0" y1="-3" x2="0" y2="3"  />
</g>
<g id="square">
<line x1="-3" y1="-3" x2="-3" y2="3"  />
<line x1="-3" y1="3" x2="3" y2="3"  />
<line x1="3" y1="3" x2="3" y2="-3"  />
<line x1="3" y1="-3" x2="-3" y2="-3"  />
</g>
<g id="round">
<ellipse cx="0" cy="0" rx="3" ry="3"  fill="none" /></g>
<g id="triangle">
<line x1="0" y1="-3" x2="-3" y2="3"  />
<line x1="-3" y1="3" x2="3" y2="3"  />
<line x1="0" y1="-3" x2="3" y2="3"  />
</g>
</defs>
<polygon fill="none" stroke="#000000" points="66.0317,430.476 66.0317,49.5238 573.968,49.5238 573.968,430.476 " />
<text style="font-size:12;text-align:center;text-anchor:middle;" x="320" y="473.619" fill="#000000">Entrance ray height (normalized)</text>
<line x1="66.0317" y1="240" x2="573.968" y2="240"  stroke="#000000" />
<use x="66.0317" y="240" xlink:href="#cross"  stroke="#000000" />
<use x="66.0317" y="49.5238" xlink:href="#cross"  stroke="#000000" />
<use x="66.0317" y="430.476" xlink:href="#cross"  stroke="#000000" />
<text style="font-size:12;text-align:center;text-anchor:middle;" x="66.0317" y="448.476" fill="#000000">-1</text>
<use x="320" y="240" xlink:href="#cross"  stroke="#000000" />
<use x="320" y="49.5238" xlink:href="#cross"  stroke="#000000" />
<use x="320" y="430.476" xlink:href="#cross"  stroke="#000000" />
<text style="font-size:12;text-align:center;text-anchor:middle;" x="320" y="448.476" fill="#000000">0</text>
<use x="573.968" y="240" xlink:href="#cross"  stroke="#000000" />
<use x="573.968" y="49.5238" xlink:href="#cross"  stroke="#000000" />
<use x="573.968" y="430.476" xlink:href="#cross"  stroke="#000000" />
<text style="font-size:12;text-align:center;text-anchor:middle;" x="573.968" y="448.476" fill="#000000">1</text>
<text style="font-size:12;text-align:center;text-anchor:middle;" x="16.5079" y="246" transform="rotate(-90,16.5079,240)" fill="#000000">Transverse ray aberration (um)</text>
<line x1="320" y1="430.476" x2="320" y2="49.5238"  stroke="#000000" />
<use x="320" y="415.934" xlink:href="#cross"  stroke="#000000" />
<use x="573.968" y="415.934" xlink:href="#cross"  stroke="#000000" />
<use x="66.0317" y="415.934" xlink:href="#cross"  stroke="#000000" />
<text style="font-size:12;text-align:right;text-anchor:end;" x="60.0317" y="421.934" fill="#000000">-30</text>
<use x="320" y="357.289" xlink:href="#cross"  stroke="#000000" />
<use x="573.968" y="357.289" xlink:href="#cross"  stroke="#000000" />
<use x="66.0317" y="357.289" xlink:href="#cross"  stroke="#000000" />
<text style="font-size:12;text-align:right;text-anchor:end;" x="60.0317" y="363.289" fill="#000000">-20</text>
<use x="320" y="298.645" xlink:href="#cross"  stroke="#000000" />
<use x="573.968" y="298.645" xlink:href="#cross"  stroke="#000000" />
<use x="66.0317" y="298.645" xlink:href="#cross"  stroke="#000000" />
<text style="font-size:12;text-align:right;text-anchor:end;" x="60.0317" y="304.645" fill="#000000">-10</text>
<use x="320" y="240" xlink:href="#cross"  stroke="#000000" />
<use x="573.968" y="240" xlink:href="#cross"  stroke="#000000" />
<use x="66.0317" y="240" xlink:href="#cross"  stroke="#000000" />
<text style="font-size:12;text-align:right;text-anchor:end;" x="60.0317" y="246" fill="#000000">0</text>
<use x="320" y="181.355" xlink:href="#cross"  stroke="#000000" />
<use x="573.968" y="181.355" xlink:href="#cross"  stroke="#000000" />
<use x="66.0317" y="181.355" xlink:href="#cross"  stroke="#000000" />
<text style="font-size:12;text-align:right;text-anchor:end;" x="60.0317" y="187.355" fill="#000000">10</text>
<use x="320" y="122.711" xlink:href="#cross"  stroke="#000000" />
<use x="573.968" y="122.711" xlink:href="#cross"  stroke="#000000" />
<use x="66.0317" y="122.711" xlink:href="#cross"  stroke="#000000" />
<text style="font-size:12;text-align:right;text-anchor:end;" x="60.0317" y="128.711" fill="#000000">20</text>
<use x="320" y="64.0658" xlink:href="#cross"  stroke="#000000" />
<use x="573.968" y="64.0658" xlink:href="#cross"  stroke="#000000" />
<use x="66.0317" y="64.0658" xlink:href="#cross"  stroke="#000000" />
<text style="font-size:12;text-align:right;text-anchor:end;" x="60.0317" y="70.0658" fill="#000000">30</text>
<text style="font-size:18;text-align:center;text-anchor:middle;" x="320" y="33.7619" fill="#000000">Transverse ray aberration fan (tangential)</text>
<path fill="none"  stroke="#00ebff" d="M83.2,235.45 S94.4762,152.611 100.114,124.886 S111.39,81.6587 117.029,69.0984 S128.305,52.2064 133.943,49.5238 S145.219,49.5793 150.857,53.0029 S162.133,63.2339 167.771,70.0658 S179.048,85.6415 184.686,93.9939 S195.962,111.572 201.6,120.181 S212.876,137.566 218.514,145.645 S229.79,161.524 235.429,168.651 S246.705,182.378 252.343,188.408 S263.619,199.84 269.257,204.829 S280.533,214.192 286.171,218.342 S297.448,226.119 303.086,229.729 S314.362,236.576 320,240 S331.276,246.661 336.914,250.271 S348.19,257.508 353.829,261.658 S365.105,270.182 370.743,275.171 S382.019,285.563 387.657,291.592 S398.933,304.222 404.571,311.349 S415.848,326.277 421.486,334.355 S432.762,351.211 438.4,359.819 S449.676,377.654 455.314,386.006 S466.59,403.102 472.229,409.934 S483.505,423.573 489.143,426.997 S500.419,433.159 506.057,430.476 S517.333,423.462 522.971,410.902 S534.248,382.84 539.886,355.114 S553.981,262.977 556.8,244.55 " />
<path fill="none"  stroke="#ffe100" d="M83.2,153.304 S94.4762,100.519 100.114,84.9539 S111.39,63.6531 117.029,59.9125 S128.305,58.9237 133.943,62.5107 S145.219,73.7699 150.857,81.4343 S162.133,99.0789 167.771,108.497 S179.048,128.371 184.686,137.944 S195.962,157.237 201.6,165.935 S212.876,182.895 218.514,190.131 S229.79,203.824 235.429,209.352 S246.705,219.469 252.343,223.3 S263.619,230.002 269.257,232.338 S280.533,236.135 286.171,237.312 S297.448,238.955 303.086,239.402 S314.362,239.801 320,240 S331.276,240.15 336.914,240.598 S348.19,241.51 353.829,242.688 S365.105,245.327 370.743,247.662 S382.019,252.869 387.657,256.7 S398.933,265.12 404.571,270.648 S415.848,282.633 421.486,289.869 S432.762,305.367 438.4,314.065 S449.676,332.483 455.314,342.056 S466.59,362.085 472.229,371.503 S483.505,390.901 489.143,398.566 S500.419,413.902 506.057,417.489 S517.333,423.828 522.971,420.087 S534.248,410.611 539.886,395.046 S553.981,338.088 556.8,326.696 " />
<path fill="none"  stroke="#ff0000" d="M83.2,179.69 S94.4762,134.345 100.114,121.562 S111.39,105.044 117.029,102.992 S128.305,104.815 133.943,109.252 S145.219,121.772 150.857,129.611 S162.133,147.251 167.771,156.286 S179.048,175.101 184.686,183.826 S195.962,201.176 201.6,208.636 S212.876,222.912 218.514,228.586 S229.79,238.98 235.429,242.68 S246.705,248.997 252.343,250.789 S263.619,253.297 269.257,253.432 S280.533,252.736 286.171,251.6 S297.448,248.547 303.086,246.613 S314.362,242.204 320,240 S331.276,235.32 336.914,233.387 S348.19,229.537 353.829,228.4 S365.105,226.433 370.743,226.568 S382.019,227.419 387.657,229.211 S398.933,233.619 404.571,237.32 S415.848,245.74 421.486,251.414 S432.762,263.904 438.4,271.364 S449.676,287.449 455.314,296.174 S466.59,314.678 472.229,323.714 S483.505,342.55 489.143,350.389 S500.419,366.312 506.057,370.748 S517.333,379.06 522.971,377.008 S534.248,371.221 539.886,358.438 S553.981,309.998 556.8,300.31 " />
</svg>
