<?xml version="1.0" standalone="no"?>
<svg width="640px" height="480px" version="1.1" xmlns="http://www.w3.org/2000/svg" xmlns:xlink="http://www.w3.org/1999/xlink">
<rect x="0" y="0" width="640" height="480"  fill="#ffffff" />
<defs>
<g id="dot">
<line x1="1" y1="1" x2="0" y2="0"  />
</g>
<g id="cross">
<line x1="-3" y1="0" x2="3" y2="0"  />
<line x1="0" y1="-3" x2="0" y2="3"  />
</g>
<g id="square">
<line x1="-3" y1="-3" x2="-3" y2="3"  />
<line x1="-3" y1="3" x2="3" y2="3"  />
<line x1="3" y1="3" x2="3" y2="-3"  />
<line x1="3" y1="-3" x2="-3" y2="-3"  />
</g>
<g id="round">
<ellipse cx="0" cy="0" rx="3" ry="3"  fill="none" /></g>
<g id="triangle">
<line x1="0" y1="-3" x2="-3" y2="3"  />
<line x1="-3" y1="3" x2="3" y2="3"  />
<line x1="0" y1="-3" x2="3" y2="3"  />
</g>
</defs>
<polygon fill="none" stroke="#000000" points="66.0317,430.476 66.0317,49.5238 573.968,49.5238 573.968,430.476 " />
<text style="font-size:12;text-align:center;text-anchor:middle;" x="320" y="473.619" fill="#000000">Distance from spot centroid (um)</text>
<use x="66.0317" y="49.5238" xlink:href="#cross"  stroke="#000000" />
<use x="66.0317" y="430.476" xlink:href="#cross"  stroke="#000000" />
<text style="font-size:12;text-align:center;text-anchor:middle;" x="66.0317" y="448.476" fill="#000000">0</text>
<use x="144.029" y="49.5238" xlink:href="#cross"  stroke="#000000" />
<use x="144.029" y="430.476" xlink:href="#cross"  stroke="#000000" />
<text style="font-size:12;text-align:center;text-anchor:middle;" x="144.029" y="448.476" fill="#000000">5</text>
<use x="222.027" y="49.5238" xlink:href="#cross"  stroke="#000000" />
<use x="222.027" y="430.476" xlink:href="#cross"  stroke="#000000" />
<text style="font-size:12;text-align:center;text-anchor:middle;" x="222.027" y="448.476" fill="#000000">10</text>
<use x="300.025" y="49.5238" xlink:href="#cross"  stroke="#000000" />
<use x="300.025" y="430.476" xlink:href="#cross"  stroke="#000000" />
<text style="font-size:12;text-align:center;text-anchor:middle;" x="300.025" y="448.476" fill="#000000">15</text>
<use x="378.023" y="49.5238" xlink:href="#cross"  stroke="#000000" />
<use x="378.023" y="430.476" xlink:href="#cross"  stroke="#000000" />
<text style="font-size:12;text-align:center;text-anchor:middle;" x="378.023" y="448.476" fill="#000000">20</text>
<use x="456.02" y="49.5238" xlink:href="#cross"  stroke="#000000" />
<use x="456.02" y="430.476" xlink:href="#cross"  stroke="#000000" />
<text style="font-size:12;text-align:center;text-anchor:middle;" x="456.02" y="448.476" fill="#000000">25</text>
<use x="534.018" y="49.5238" xlink:href="#cross"  stroke="#000000" />
<use x="534.018" y="430.476" xlink:href="#cross"  stroke="#000000" />
<text style="font-size:12;text-align:center;text-anchor:middle;" x="534.018" y="448.476" fill="#000000">30</text>
<text style="font-size:12;text-align:center;text-anchor:middle;" x="16.5079" y="246" transform="rotate(-90,16.5079,240)" fill="#000000">Encircled intensity</text>
<use x="573.968" y="430.476" xlink:href="#cross"  stroke="#000000" />
<use x="66.0317" y="430.476" xlink:href="#cross"  stroke="#000000" />
<text style="font-size:12;text-align:right;text-anchor:end;" x="60.0317" y="436.476" fill="#000000">0</text>
<use x="573.968" y="362.991" xlink:href="#cross"  stroke="#000000" />
<use x="66.0317" y="362.991" xlink:href="#cross"  stroke="#000000" />
<text style="font-size:12;text-align:right;text-anchor:end;" x="60.0317" y="368.991" fill="#000000">200</text>
<use x="573.968" y="295.506" xlink:href="#cross"  stroke="#000000" />
<use x="66.0317" y="295.506" xlink:href="#cross"  stroke="#000000" />
<text style="font-size:12;text-align:right;text-anchor:end;" x="60.0317" y="301.506" fill="#000000">400</text>
<use x="573.968" y="228.021" xlink:href="#cross"  stroke="#000000" />
<use x="66.0317" y="228.021" xlink:href="#cross"  stroke="#000000" />
<text style="font-size:12;text-align:right;text-anchor:end;" x="60.0317" y="234.021" fill="#000000">600</text>
<use x="573.968" y="160.537" xlink:href="#cross"  stroke="#000000" />
<use x="66.0317" y="160.537" xlink:href="#cross"  stroke="#000000" />
<text style="font-size:12;text-align:right;text-anchor:end;" x="60.0317" y="166.537" fill="#000000">800</text>
<use x="573.968" y="93.0516" xlink:href="#cross"  stroke="#000000" />
<use x="66.0317" y="93.0516" xlink:href="#cross"  stroke="#000000" />
<text style="font-size:12;text-align:right;text-anchor:end;" x="60.0317" y="99.0516" fill="#000000">1e+03</text>
<text style="font-size:18;text-align:center;text-anchor:middle;" x="320" y="33.7619" fill="#000000">Spot diagram encircled rays intensity</text>
<line x1="66.0317" y1="430.476" x2="76.1905" y2="430.139"  stroke="#00ebff" />
<line x1="76.1905" y1="430.139" x2="86.3492" y2="426.09"  stroke="#00ebff" />
<line x1="86.3492" y1="426.09" x2="96.5079" y2="426.09"  stroke="#00ebff" />
<line x1="96.5079" y1="426.09" x2="106.667" y2="426.09"  stroke="#00ebff" />
<line x1="106.667" y1="426.09" x2="116.825" y2="420.016"  stroke="#00ebff" />
<line x1="116.825" y1="420.016" x2="126.984" y2="420.016"  stroke="#00ebff" />
<line x1="126.984" y1="420.016" x2="137.143" y2="411.918"  stroke="#00ebff" />
<line x1="137.143" y1="411.918" x2="147.302" y2="411.918"  stroke="#00ebff" />
<line x1="147.302" y1="411.918" x2="157.46" y2="411.918"  stroke="#00ebff" />
<line x1="157.46" y1="411.918" x2="167.619" y2="401.795"  stroke="#00ebff" />
<line x1="167.619" y1="401.795" x2="177.778" y2="401.795"  stroke="#00ebff" />
<line x1="177.778" y1="401.795" x2="187.937" y2="401.795"  stroke="#00ebff" />
<line x1="187.937" y1="401.795" x2="198.095" y2="389.648"  stroke="#00ebff" />
<line x1="198.095" y1="389.648" x2="208.254" y2="389.648"  stroke="#00ebff" />
<line x1="208.254" y1="389.648" x2="218.413" y2="389.648"  stroke="#00ebff" />
<line x1="218.413" y1="389.648" x2="228.571" y2="375.476"  stroke="#00ebff" />
<line x1="228.571" y1="375.476" x2="238.73" y2="375.476"  stroke="#00ebff" />
<line x1="238.73" y1="375.476" x2="248.889" y2="339.034"  stroke="#00ebff" />
<line x1="248.889" y1="339.034" x2="259.048" y2="339.034"  stroke="#00ebff" />
<line x1="259.048" y1="339.034" x2="269.206" y2="322.838"  stroke="#00ebff" />
<line x1="269.206" y1="322.838" x2="279.365" y2="322.838"  stroke="#00ebff" />
<line x1="279.365" y1="322.838" x2="289.524" y2="322.838"  stroke="#00ebff" />
<line x1="289.524" y1="322.838" x2="299.683" y2="322.838"  stroke="#00ebff" />
<line x1="299.683" y1="322.838" x2="309.841" y2="322.838"  stroke="#00ebff" />
<line x1="309.841" y1="322.838" x2="320" y2="304.617"  stroke="#00ebff" />
<line x1="320" y1="304.617" x2="330.159" y2="304.617"  stroke="#00ebff" />
<line x1="330.159" y1="304.617" x2="340.317" y2="304.617"  stroke="#00ebff" />
<line x1="340.317" y1="304.617" x2="350.476" y2="304.617"  stroke="#00ebff" />
<line x1="350.476" y1="304.617" x2="360.635" y2="304.617"  stroke="#00ebff" />
<line x1="360.635" y1="304.617" x2="370.794" y2="284.371"  stroke="#00ebff" />
<line x1="370.794" y1="284.371" x2="380.952" y2="284.371"  stroke="#00ebff" />
<line x1="380.952" y1="284.371" x2="391.111" y2="284.371"  stroke="#00ebff" />
<line x1="391.111" y1="284.371" x2="401.27" y2="284.371"  stroke="#00ebff" />
<line x1="401.27" y1="284.371" x2="411.429" y2="284.371"  stroke="#00ebff" />
<line x1="411.429" y1="284.371" x2="421.587" y2="225.659"  stroke="#00ebff" />
<line x1="421.587" y1="225.659" x2="431.746" y2="225.659"  stroke="#00ebff" />
<line x1="431.746" y1="225.659" x2="441.905" y2="225.659"  stroke="#00ebff" />
<line x1="441.905" y1="225.659" x2="452.063" y2="225.659"  stroke="#00ebff" />
<line x1="452.063" y1="225.659" x2="462.222" y2="225.659"  stroke="#00ebff" />
<line x1="462.222" y1="225.659" x2="472.381" y2="201.365"  stroke="#00ebff" />
<line x1="472.381" y1="201.365" x2="482.54" y2="201.365"  stroke="#00ebff" />
<line x1="482.54" y1="201.365" x2="492.698" y2="201.365"  stroke="#00ebff" />
<line x1="492.698" y1="201.365" x2="502.857" y2="201.365"  stroke="#00ebff" />
<line x1="502.857" y1="201.365" x2="513.016" y2="140.628"  stroke="#00ebff" />
<line x1="513.016" y1="140.628" x2="523.175" y2="140.628"  stroke="#00ebff" />
<line x1="523.175" y1="140.628" x2="533.333" y2="140.628"  stroke="#00ebff" />
<line x1="533.333" y1="140.628" x2="543.492" y2="140.628"  stroke="#00ebff" />
<line x1="543.492" y1="140.628" x2="553.651" y2="112.285"  stroke="#00ebff" />
<line x1="553.651" y1="112.285" x2="563.81" y2="49.8612"  stroke="#00ebff" />
<line x1="563.81" y1="49.8612" x2="573.968" y2="49.5238"  stroke="#00ebff" />
<line x1="66.0317" y1="430.476" x2="76.1905" y2="411.918"  stroke="#ffe100" />
<line x1="76.1905" y1="411.918" x2="86.3492" y2="401.795"  stroke="#ffe100" />
<line x1="86.3492" y1="401.795" x2="96.5079" y2="401.795"  stroke="#ffe100" />
<line x1="96.5079" y1="401.795" x2="106.667" y2="389.648"  stroke="#ffe100" />
<line x1="106.667" y1="389.648" x2="116.825" y2="389.648"  stroke="#ffe100" />
<line x1="116.825" y1="389.648" x2="126.984" y2="375.476"  stroke="#ffe100" />
<line x1="126.984" y1="375.476" x2="137.143" y2="375.476"  stroke="#ffe100" />
<line x1="137.143" y1="375.476" x2="147.302" y2="375.476"  stroke="#ffe100" />
<line x1="147.302" y1="375.476" x2="157.46" y2="359.28"  stroke="#ffe100" />
<line x1="157.46" y1="359.28" x2="167.619" y2="359.28"  stroke="#ffe100" />
<line x1="167.619" y1="359.28" x2="177.778" y2="359.28"  stroke="#ffe100" />
<line x1="177.778" y1="359.28" x2="187.937" y2="359.28"  stroke="#ffe100" />
<line x1="187.937" y1="359.28" x2="198.095" y2="341.059"  stroke="#ffe100" />
<line x1="198.095" y1="341.059" x2="208.254" y2="341.059"  stroke="#ffe100" />
<line x1="208.254" y1="341.059" x2="218.413" y2="341.059"  stroke="#ffe100" />
<line x1="218.413" y1="341.059" x2="228.571" y2="341.059"  stroke="#ffe100" />
<line x1="228.571" y1="341.059" x2="238.73" y2="341.059"  stroke="#ffe100" />
<line x1="238.73" y1="341.059" x2="248.889" y2="320.813"  stroke="#ffe100" />
<line x1="248.889" y1="320.813" x2="259.048" y2="320.813"  stroke="#ffe100" />
<line x1="259.048" y1="320.813" x2="269.206" y2="320.813"  stroke="#ffe100" />
<line x1="269.206" y1="320.813" x2="279.365" y2="320.813"  stroke="#ffe100" />
<line x1="279.365" y1="320.813" x2="289.524" y2="320.813"  stroke="#ffe100" />
<line x1="289.524" y1="320.813" x2="299.683" y2="298.543"  stroke="#ffe100" />
<line x1="299.683" y1="298.543" x2="309.841" y2="298.543"  stroke="#ffe100" />
<line x1="309.841" y1="298.543" x2="320" y2="298.543"  stroke="#ffe100" />
<line x1="320" y1="298.543" x2="330.159" y2="298.543"  stroke="#ffe100" />
<line x1="330.159" y1="298.543" x2="340.317" y2="298.543"  stroke="#ffe100" />
<line x1="340.317" y1="298.543" x2="350.476" y2="298.543"  stroke="#ffe100" />
<line x1="350.476" y1="298.543" x2="360.635" y2="274.249"  stroke="#ffe100" />
<line x1="360.635" y1="274.249" x2="370.794" y2="274.249"  stroke="#ffe100" />
<line x1="370.794" y1="274.249" x2="380.952" y2="274.249"  stroke="#ffe100" />
<line x1="380.952" y1="274.249" x2="391.111" y2="274.249"  stroke="#ffe100" />
<line x1="391.111" y1="274.249" x2="401.27" y2="237.807"  stroke="#ffe100" />
<line x1="401.27" y1="237.807" x2="411.429" y2="211.488"  stroke="#ffe100" />
<line x1="411.429" y1="211.488" x2="421.587" y2="211.488"  stroke="#ffe100" />
<line x1="421.587" y1="211.488" x2="431.746" y2="211.488"  stroke="#ffe100" />
<line x1="431.746" y1="211.488" x2="441.905" y2="211.488"  stroke="#ffe100" />
<line x1="441.905" y1="211.488" x2="452.063" y2="211.488"  stroke="#ffe100" />
<line x1="452.063" y1="211.488" x2="462.222" y2="211.488"  stroke="#ffe100" />
<line x1="462.222" y1="211.488" x2="472.381" y2="183.144"  stroke="#ffe100" />
<line x1="472.381" y1="183.144" x2="482.54" y2="183.144"  stroke="#ffe100" />
<line x1="482.54" y1="183.144" x2="492.698" y2="183.144"  stroke="#ffe100" />
<line x1="492.698" y1="183.144" x2="502.857" y2="146.702"  stroke="#ffe100" />
<line x1="502.857" y1="146.702" x2="513.016" y2="116.334"  stroke="#ffe100" />
<line x1="513.016" y1="116.334" x2="523.175" y2="116.334"  stroke="#ffe100" />
<line x1="523.175" y1="116.334" x2="533.333" y2="116.334"  stroke="#ffe100" />
<line x1="533.333" y1="116.334" x2="543.492" y2="49.5238"  stroke="#ffe100" />
<line x1="543.492" y1="49.5238" x2="553.651" y2="49.5238"  stroke="#ffe100" />
<line x1="553.651" y1="49.5238" x2="563.81" y2="49.5238"  stroke="#ffe100" />
<line x1="563.81" y1="49.5238" x2="573.968" y2="49.5238"  stroke="#ffe100" />
<line x1="66.0317" y1="430.476" x2="76.1905" y2="413.942"  stroke="#ff0000" />
<line x1="76.1905" y1="413.942" x2="86.3492" y2="395.721"  stroke="#ff0000" />
<line x1="86.3492" y1="395.721" x2="96.5079" y2="371.427"  stroke="#ff0000" />
<line x1="96.5079" y1="371.427" x2="106.667" y2="341.059"  stroke="#ff0000" />
<line x1="106.667" y1="341.059" x2="116.825" y2="341.059"  stroke="#ff0000" />
<line x1="116.825" y1="341.059" x2="126.984" y2="341.059"  stroke="#ff0000" />
<line x1="126.984" y1="341.059" x2="137.143" y2="320.813"  stroke="#ff0000" />
<line x1="137.143" y1="320.813" x2="147.302" y2="320.813"  stroke="#ff0000" />
<line x1="147.302" y1="320.813" x2="157.46" y2="320.813"  stroke="#ff0000" />
<line x1="157.46" y1="320.813" x2="167.619" y2="320.813"  stroke="#ff0000" />
<line x1="167.619" y1="320.813" x2="177.778" y2="320.813"  stroke="#ff0000" />
<line x1="177.778" y1="320.813" x2="187.937" y2="298.543"  stroke="#ff0000" />
<line x1="187.937" y1="298.543" x2="198.095" y2="298.543"  stroke="#ff0000" />
<line x1="198.095" y1="298.543" x2="208.254" y2="298.543"  stroke="#ff0000" />
<line x1="208.254" y1="298.543" x2="218.413" y2="298.543"  stroke="#ff0000" />
<line x1="218.413" y1="298.543" x2="228.571" y2="298.543"  stroke="#ff0000" />
<line x1="228.571" y1="298.543" x2="238.73" y2="274.249"  stroke="#ff0000" />
<line x1="238.73" y1="274.249" x2="248.889" y2="274.249"  stroke="#ff0000" />
<line x1="248.889" y1="274.249" x2="259.048" y2="274.249"  stroke="#ff0000" />
<line x1="259.048" y1="274.249" x2="269.206" y2="274.249"  stroke="#ff0000" />
<line x1="269.206" y1="274.249" x2="279.365" y2="274.249"  stroke="#ff0000" />
<line x1="279.365" y1="274.249" x2="289.524" y2="247.929"  stroke="#ff0000" />
<line x1="289.524" y1="247.929" x2="299.683" y2="247.929"  stroke="#ff0000" />
<line x1="299.683" y1="247.929" x2="309.841" y2="247.929"  stroke="#ff0000" />
<line x1="309.841" y1="247.929" x2="320" y2="211.488"  stroke="#ff0000" />
<line x1="320" y1="211.488" x2="330.159" y2="211.488"  stroke="#ff0000" />
<line x1="330.159" y1="211.488" x2="340.317" y2="183.144"  stroke="#ff0000" />
<line x1="340.317" y1="183.144" x2="350.476" y2="183.144"  stroke="#ff0000" />
<line x1="350.476" y1="183.144" x2="360.635" y2="183.144"  stroke="#ff0000" />
<line x1="360.635" y1="183.144" x2="370.794" y2="183.144"  stroke="#ff0000" />
<line x1="370.794" y1="183.144" x2="380.952" y2="183.144"  stroke="#ff0000" />
<line x1="380.952" y1="183.144" x2="391.111" y2="152.776"  stroke="#ff0000" />
<line x1="391.111" y1="152.776" x2="401.27" y2="116.334"  stroke="#ff0000" />
<line x1="401.27" y1="116.334" x2="411.429" y2="116.334"  stroke="#ff0000" />
<line x1="411.429" y1="116.334" x2="421.587" y2="83.9411"  stroke="#ff0000" />
<line x1="421.587" y1="83.9411" x2="431.746" y2="49.5238"  stroke="#ff0000" />
<line x1="431.746" y1="49.5238" x2="441.905" y2="49.5238"  stroke="#ff0000" />
<line x1="441.905" y1="49.5238" x2="452.063" y2="49.5238"  stroke="#ff0000" />
<line x1="452.063" y1="49.5238" x2="462.222" y2="49.5238"  stroke="#ff0000" />
<line x1="462.222" y1="49.5238" x2="472.381" y2="49.5238"  stroke="#ff0000" />
<line x1="472.381" y1="49.5238" x2="482.54" y2="49.5238"  stroke="#ff0000" />
<line x1="482.54" y1="49.5238" x2="492.698" y2="49.5238"  stroke="#ff0000" />
<line x1="492.698" y1="49.5238" x2="502.857" y2="49.5238"  stroke="#ff0000" />
<line x1="502.857" y1="49.5238" x2="513.016" y2="49.5238"  stroke="#ff0000" />
<line x1="513.016" y1="49.5238" x2="523.175" y2="49.5238"  stroke="#ff0000" />
<line x1="523.175" y1="49.5238" x2="533.333" y2="49.5238"  stroke="#ff0000" />
<line x1="533.333" y1="49.5238" x2="543.492" y2="49.5238"  stroke="#ff0000" />
<line x1="543.492" y1="49.5238" x2="553.651" y2="49.5238"  stroke="#ff0000" />
<line x1="553.651" y1="49.5238" x2="563.81" y2="49.5238"  stroke="#ff0000" />
<line x1="563.81" y1="49.5238" x2="573.968" y2="49.5238"  stroke="#ff0000" />
</svg>
