<?xml version="1.0" standalone="no"?>
<svg width="640px" height="480px" version="1.1" xmlns="http://www.w3.org/2000/svg" xmlns:xlink="http://www.w3.org/1999/xlink">
<rect x="0" y="0" width="640" height="480"  fill="#ffffff" />
<defs>
<g id="dot">
<line x1="1" y1="1" x2="0" y2="0"  />
</g>
<g id="cross">
<line x1="-3" y1="0" x2="3" y2="0"  />
<line x1="0" y1="-3" x2="0" y2="3"  />
</g>
<g id="square">
<line x1="-3" y1="-3" x2="-3" y2="3"  />
<line x1="-3" y1="3" x2="3" y2="3"  />
<line x1="3" y1="3" x2="3" y2="-3"  />
<line x1="3" y1="-3" x2="-3" y2="-3"  />
</g>
<g id="round">
<ellipse cx="0" cy="0" rx="3" ry="3"  fill="none" /></g>
<g id="triangle">
<line x1="0" y1="-3" x2="-3" y2="3"  />
<line x1="-3" y1="3" x2="3" y2="3"  />
<line x1="0" y1="-3" x2="3" y2="3"  />
</g>
</defs>
<polygon fill="none" stroke="#000000" points="66.0317,430.476 66.0317,49.5238 573.968,49.5238 573.968,430.476 " />
<text style="font-size:12;text-align:center;text-anchor:middle;" x="320" y="473.619" fill="#000000">Entrance ray height (normalized)</text>
<line x1="66.0317" y1="221.395" x2="573.968" y2="221.395"  stroke="#000000" />
<use x="66.0317" y="221.395" xlink:href="#cross"  stroke="#000000" />
<use x="66.0317" y="49.5238" xlink:href="#cross"  stroke="#000000" />
<use x="66.0317" y="430.476" xlink:href="#cross"  stroke="#000000" />
<text style="font-size:12;text-align:center;text-anchor:middle;" x="66.0317" y="448.476" fill="#000000">-1</text>
<use x="320" y="221.395" xlink:href="#cross"  stroke="#000000" />
<use x="320" y="49.5238" xlink:href="#cross"  stroke="#000000" />
<use x="320" y="430.476" xlink:href="#cross"  stroke="#000000" />
<text style="font-size:12;text-align:center;text-anchor:middle;" x="320" y="448.476" fill="#000000">0</text>
<use x="573.968" y="221.395" xlink:href="#cross"  stroke="#000000" />
<use x="573.968" y="49.5238" xlink:href="#cross"  stroke="#000000" />
<use x="573.968" y="430.476" xlink:href="#cross"  stroke="#000000" />
<text style="font-size:12;text-align:center;text-anchor:middle;" x="573.968" y="448.476" fill="#000000">1</text>
<text style="font-size:12;text-align:center;text-anchor:middle;" x="16.5079" y="246" transform="rotate(-90,16.5079,240)" fill="#000000">Optical path difference (waves)</text>
<line x1="320" y1="430.476" x2="320" y2="49.5238"  stroke="#000000" />
<use x="320" y="403.132" xlink:href="#cross"  stroke="#000000" />
<use x="573.968" y="403.132" xlink:href="#cross"  stroke="#000000" />
<use x="66.0317" y="403.132" xlink:href="#cross"  stroke="#000000" />
<text style="font-size:12;text-align:right;text-anchor:end;" x="60.0317" y="409.132" fill="#000000">-8</text>
<use x="320" y="357.698" xlink:href="#cross"  stroke="#000000" />
<use x="573.968" y="357.698" xlink:href="#cross"  stroke="#000000" />
<use x="66.0317" y="357.698" xlink:href="#cross"  stroke="#000000" />
<text style="font-size:12;text-align:right;text-anchor:end;" x="60.0317" y="363.698" fill="#000000">-6</text>
<use x="320" y="312.263" xlink:href="#cross"  stroke="#000000" />
<use x="573.968" y="312.263" xlink:href="#cross"  stroke="#000000" />
<use x="66.0317" y="312.263" xlink:href="#cross"  stroke="#000000" />
<text style="font-size:12;text-align:right;text-anchor:end;" x="60.0317" y="318.263" fill="#000000">-4</text>
<use x="320" y="266.829" xlink:href="#cross"  stroke="#000000" />
<use x="573.968" y="266.829" xlink:href="#cross"  stroke="#000000" />
<use x="66.0317" y="266.829" xlink:href="#cross"  stroke="#000000" />
<text style="font-size:12;text-align:right;text-anchor:end;" x="60.0317" y="272.829" fill="#000000">-2</text>
<use x="320" y="221.395" xlink:href="#cross"  stroke="#000000" />
<use x="573.968" y="221.395" xlink:href="#cross"  stroke="#000000" />
<use x="66.0317" y="221.395" xlink:href="#cross"  stroke="#000000" />
<text style="font-size:12;text-align:right;text-anchor:end;" x="60.0317" y="227.395" fill="#000000">0</text>
<use x="320" y="175.96" xlink:href="#cross"  stroke="#000000" />
<use x="573.968" y="175.96" xlink:href="#cross"  stroke="#000000" />
<use x="66.0317" y="175.96" xlink:href="#cross"  stroke="#000000" />
<text style="font-size:12;text-align:right;text-anchor:end;" x="60.0317" y="181.96" fill="#000000">2</text>
<use x="320" y="130.526" xlink:href="#cross"  stroke="#000000" />
<use x="573.968" y="130.526" xlink:href="#cross"  stroke="#000000" />
<use x="66.0317" y="130.526" xlink:href="#cross"  stroke="#000000" />
<text style="font-size:12;text-align:right;text-anchor:end;" x="60.0317" y="136.526" fill="#000000">4</text>
<use x="320" y="85.0918" xlink:href="#cross"  stroke="#000000" />
<use x="573.968" y="85.0918" xlink:href="#cross"  stroke="#000000" />
<use x="66.0317" y="85.0918" xlink:href="#cross"  stroke="#000000" />
<text style="font-size:12;text-align:right;text-anchor:end;" x="60.0317" y="91.0918" fill="#000000">6</text>
<text style="font-size:18;text-align:center;text-anchor:middle;" x="320" y="33.7619" fill="#000000">Optical path difference fan (tangential)</text>
<path fill="none"  stroke="#00ebff" d="M83.2,430.476 S94.4762,253.048 100.114,195.524 S111.39,109.666 117.029,85.3325 S128.305,54.5715 133.943,49.5238 S145.219,49.8907 150.857,55.0463 S162.133,70.8909 167.771,80.4575 S179.048,101.96 184.686,112.446 S195.962,133.872 201.6,143.374 S212.876,161.786 218.514,169.459 S229.79,183.75 235.429,189.414 S246.705,199.594 252.343,203.447 S263.619,210.123 269.257,212.528 S280.533,216.531 286.171,217.873 S297.448,219.993 303.086,220.58 S314.362,221.395 320,221.395 S331.276,221.167 336.914,220.58 S348.19,219.215 353.829,217.873 S365.105,214.932 370.743,212.528 S382.019,207.299 387.657,203.447 S398.933,195.079 404.571,189.414 S415.848,177.132 421.486,169.459 S432.762,152.876 438.4,143.374 S449.676,122.932 455.314,112.446 S466.59,90.0241 472.229,80.4575 S483.505,60.2019 489.143,55.0463 S500.419,44.4761 506.057,49.5238 S517.333,60.9992 522.971,85.3325 S534.248,138 539.886,195.524 S553.981,391.317 556.8,430.476 " />
<path fill="none"  stroke="#ffe100" d="M83.2,211.218 S94.4762,117.768 100.114,90.8622 S111.39,56.0173 117.029,49.7804 S128.305,48.5385 133.943,53.4408 S145.219,69.3295 150.857,79.194 S162.133,101.624 167.771,112.628 S179.048,135.227 184.686,145.219 S195.962,164.598 201.6,172.576 S212.876,187.368 218.514,193.087 S229.79,203.221 235.429,206.89 S246.705,213.042 252.343,215.104 S263.619,218.295 269.257,219.263 S280.533,220.569 286.171,220.917 S297.448,221.268 303.086,221.348 S314.362,221.395 320,221.395 S331.276,221.427 336.914,221.348 S348.19,221.264 353.829,220.917 S365.105,220.232 370.743,219.263 S382.019,217.166 387.657,215.104 S398.933,210.56 404.571,206.89 S415.848,198.806 421.486,193.087 S432.762,180.554 438.4,172.576 S449.676,155.21 455.314,145.219 S466.59,123.632 472.229,112.628 S483.505,89.0585 489.143,79.194 S500.419,58.3431 506.057,53.4408 S517.333,43.5435 522.971,49.7804 S534.248,63.9559 539.886,90.8622 S553.981,191.159 556.8,211.218 " />
<path fill="none"  stroke="#ff0000" d="M83.2,200.933 S94.4762,129.127 100.114,109.303 S111.39,85.1742 117.029,81.989 S128.305,84.689 133.943,90.1917 S145.219,105.954 150.857,115.005 S162.133,135.037 167.771,144.498 S179.048,163.611 184.686,171.773 S195.962,187.334 201.6,193.474 S212.876,204.58 218.514,208.616 S229.79,215.46 235.429,217.689 S246.705,221.083 252.343,221.987 S263.619,223.005 269.257,223.11 S280.533,222.839 286.171,222.616 S297.448,221.974 303.086,221.771 S314.362,221.395 320,221.395 S331.276,221.567 336.914,221.771 S348.19,222.392 353.829,222.616 S365.105,223.215 370.743,223.11 S382.019,222.89 387.657,221.987 S398.933,219.917 404.571,217.689 S415.848,212.651 421.486,208.616 S432.762,199.614 438.4,193.474 S449.676,179.936 455.314,171.773 S466.59,153.959 472.229,144.498 S483.505,124.056 489.143,115.005 S500.419,95.6944 506.057,90.1917 S517.333,78.8038 522.971,81.989 S534.248,89.4788 539.886,109.303 S553.981,185.662 556.8,200.933 " />
</svg>
