<?xml version="1.0" standalone="no"?>
<svg width="640px" height="480px" version="1.1" xmlns="http://www.w3.org/2000/svg" xmlns:xlink="http://www.w3.org/1999/xlink">
<rect x="0" y="0" width="640" height="480"  fill="#ffffff" />
<defs>
<g id="dot">
<line x1="1" y1="1" x2="0" y2="0"  />
</g>
<g id="cross">
<line x1="-3" y1="0" x2="3" y2="0"  />
<line x1="0" y1="-3" x2="0" y2="3"  />
</g>
<g id="square">
<line x1="-3" y1="-3" x2="-3" y2="3"  />
<line x1="-3" y1="3" x2="3" y2="3"  />
<line x1="3" y1="3" x2="3" y2="-3"  />
<line x1="3" y1="-3" x2="-3" y2="-3"  />
</g>
<g id="round">
<ellipse cx="0" cy="0" rx="3" ry="3"  fill="none" /></g>
<g id="triangle">
<line x1="0" y1="-3" x2="-3" y2="3"  />
<line x1="-3" y1="3" x2="3" y2="3"  />
<line x1="0" y1="-3" x2="3" y2="3"  />
</g>
</defs>
<polygon fill="none" stroke="#000000" points="66.0317,430.476 66.0317,49.5238 573.968,49.5238 573.968,430.476 " />
<text style="font-size:12;text-align:center;text-anchor:middle;" x="320" y="473.619" fill="#000000">Entrance ray height (normalized)</text>
<line x1="66.0317" y1="102.276" x2="573.968" y2="102.276"  stroke="#000000" />
<use x="66.0317" y="102.276" xlink:href="#cross"  stroke="#000000" />
<use x="66.0317" y="49.5238" xlink:href="#cross"  stroke="#000000" />
<use x="66.0317" y="430.476" xlink:href="#cross"  stroke="#000000" />
<text style="font-size:12;text-align:center;text-anchor:middle;" x="66.0317" y="448.476" fill="#000000">-1</text>
<use x="320" y="102.276" xlink:href="#cross"  stroke="#000000" />
<use x="320" y="49.5238" xlink:href="#cross"  stroke="#000000" />
<use x="320" y="430.476" xlink:href="#cross"  stroke="#000000" />
<text style="font-size:12;text-align:center;text-anchor:middle;" x="320" y="448.476" fill="#000000">0</text>
<use x="573.968" y="102.276" xlink:href="#cross"  stroke="#000000" />
<use x="573.968" y="49.5238" xlink:href="#cross"  stroke="#000000" />
<use x="573.968" y="430.476" xlink:href="#cross"  stroke="#000000" />
<text style="font-size:12;text-align:center;text-anchor:middle;" x="573.968" y="448.476" fill="#000000">1</text>
<text style="font-size:12;text-align:center;text-anchor:middle;" x="16.5079" y="246" transform="rotate(-90,16.5079,240)" fill="#000000">Optical path difference (waves)</text>
<line x1="320" y1="430.476" x2="320" y2="49.5238"  stroke="#000000" />
<use x="320" y="405.194" xlink:href="#cross"  stroke="#000000" />
<use x="573.968" y="405.194" xlink:href="#cross"  stroke="#000000" />
<use x="66.0317" y="405.194" xlink:href="#cross"  stroke="#000000" />
<text style="font-size:12;text-align:right;text-anchor:end;" x="60.0317" y="411.194" fill="#000000">-4</text>
<use x="320" y="329.465" xlink:href="#cross"  stroke="#000000" />
<use x="573.968" y="329.465" xlink:href="#cross"  stroke="#000000" />
<use x="66.0317" y="329.465" xlink:href="#cross"  stroke="#000000" />
<text style="font-size:12;text-align:right;text-anchor:end;" x="60.0317" y="335.465" fill="#000000">-3</text>
<use x="320" y="253.735" xlink:href="#cross"  stroke="#000000" />
<use x="573.968" y="253.735" xlink:href="#cross"  stroke="#000000" />
<use x="66.0317" y="253.735" xlink:href="#cross"  stroke="#000000" />
<text style="font-size:12;text-align:right;text-anchor:end;" x="60.0317" y="259.735" fill="#000000">-2</text>
<use x="320" y="178.006" xlink:href="#cross"  stroke="#000000" />
<use x="573.968" y="178.006" xlink:href="#cross"  stroke="#000000" />
<use x="66.0317" y="178.006" xlink:href="#cross"  stroke="#000000" />
<text style="font-size:12;text-align:right;text-anchor:end;" x="60.0317" y="184.006" fill="#000000">-1</text>
<use x="320" y="102.276" xlink:href="#cross"  stroke="#000000" />
<use x="573.968" y="102.276" xlink:href="#cross"  stroke="#000000" />
<use x="66.0317" y="102.276" xlink:href="#cross"  stroke="#000000" />
<text style="font-size:12;text-align:right;text-anchor:end;" x="60.0317" y="108.276" fill="#000000">0</text>
<text style="font-size:18;text-align:center;text-anchor:middle;" x="320" y="33.7619" fill="#000000">Optical path difference fan (tangential)</text>
<path fill="none"  stroke="#00ebff" d="M83.2,295.913 S94.4762,347.981 100.114,358.7 S111.39,364.501 117.029,360.225 S128.305,343.912 133.943,333.047 S145.219,307.938 150.857,295.032 S162.133,268.218 167.771,255.611 S179.048,230.612 184.686,219.39 S195.962,197.721 201.6,188.28 S212.876,170.367 218.514,162.741 S229.79,148.465 235.429,142.52 S246.705,131.526 252.343,127.071 S263.619,118.946 269.257,115.791 S280.533,110.155 286.171,108.144 S297.448,104.7 303.086,103.722 S314.362,102.276 320,102.276 S331.276,102.744 336.914,103.722 S348.19,106.132 353.829,108.144 S365.105,112.637 370.743,115.791 S382.019,122.617 387.657,127.071 S398.933,136.575 404.571,142.52 S415.848,155.114 421.486,162.741 S432.762,178.838 438.4,188.28 S449.676,208.168 455.314,219.39 S466.59,243.004 472.229,255.611 S483.505,282.126 489.143,295.032 S500.419,322.181 506.057,333.047 S517.333,355.95 522.971,360.225 S534.248,369.418 539.886,358.7 S553.981,306.378 556.8,295.913 " />
<path fill="none"  stroke="#ffe100" d="M83.2,49.5238 S94.4762,107.221 100.114,123.884 S111.39,144.876 117.029,149.499 S128.305,152.548 133.943,151.618 S145.219,146.941 150.857,143.919 S162.133,136.858 167.771,133.486 S179.048,126.626 184.686,123.684 S195.962,118.083 201.6,115.833 S212.876,111.741 218.514,110.181 S229.79,107.459 235.429,106.472 S246.705,104.826 252.343,104.261 S263.619,103.369 269.257,103.081 S280.533,102.66 286.171,102.534 S297.448,102.369 303.086,102.326 S314.362,102.276 320,102.276 S331.276,102.283 336.914,102.326 S348.19,102.409 353.829,102.534 S365.105,102.793 370.743,103.081 S382.019,103.695 387.657,104.261 S398.933,105.486 404.571,106.472 S415.848,108.621 421.486,110.181 S432.762,113.582 438.4,115.833 S449.676,120.742 455.314,123.684 S466.59,130.113 472.229,133.486 S483.505,140.897 489.143,143.919 S500.419,150.688 506.057,151.618 S517.333,154.121 522.971,149.499 S534.248,140.546 539.886,123.884 S553.981,61.9172 556.8,49.5238 " />
<path fill="none"  stroke="#ff0000" d="M83.2,419.82 S94.4762,433.143 100.114,430.476 S111.39,415.286 117.029,403.821 S128.305,376.369 133.943,361.686 S145.219,330.698 150.857,315.72 S162.133,285.662 167.771,271.817 S179.048,244.764 184.686,232.656 S195.962,209.378 201.6,199.17 S212.876,179.767 218.514,171.408 S229.79,155.665 235.429,149.016 S246.705,136.61 252.343,131.511 S263.619,122.114 269.257,118.422 S280.533,111.756 286.171,109.357 S297.448,105.213 303.086,104.033 S314.362,102.276 320,102.276 S331.276,102.852 336.914,104.033 S348.19,106.959 353.829,109.357 S365.105,114.73 370.743,118.422 S382.019,126.412 387.657,131.511 S398.933,142.366 404.571,149.016 S415.848,163.049 421.486,171.408 S432.762,188.962 438.4,199.17 S449.676,220.548 455.314,232.656 S466.59,257.973 472.229,271.817 S483.505,300.742 489.143,315.72 S500.419,347.002 506.057,361.686 S517.333,392.356 522.971,403.821 S534.248,427.81 539.886,430.476 S553.981,421.596 556.8,419.82 " />
</svg>
