<?xml version="1.0" standalone="no"?>
<svg width="640px" height="480px" version="1.1" xmlns="http://www.w3.org/2000/svg" xmlns:xlink="http://www.w3.org/1999/xlink">
<rect x="0" y="0" width="640" height="480"  fill="#ffffff" />
<defs>
<g id="dot">
<line x1="1" y1="1" x2="0" y2="0"  />
</g>
<g id="cross">
<line x1="-3" y1="0" x2="3" y2="0"  />
<line x1="0" y1="-3" x2="0" y2="3"  />
</g>
<g id="square">
<line x1="-3" y1="-3" x2="-3" y2="3"  />
<line x1="-3" y1="3" x2="3" y2="3"  />
<line x1="3" y1="3" x2="3" y2="-3"  />
<line x1="3" y1="-3" x2="-3" y2="-3"  />
</g>
<g id="round">
<ellipse cx="0" cy="0" rx="3" ry="3"  fill="none" /></g>
<g id="triangle">
<line x1="0" y1="-3" x2="-3" y2="3"  />
<line x1="-3" y1="3" x2="3" y2="3"  />
<line x1="0" y1="-3" x2="3" y2="3"  />
</g>
</defs>
<polygon fill="none" stroke="#000000" points="66.0317,430.476 66.0317,49.5238 573.968,49.5238 573.968,430.476 " />
<text style="font-size:12;text-align:center;text-anchor:middle;" x="320" y="473.619" fill="#000000">Entrance ray height (normalized)</text>
<line x1="66.0317" y1="240" x2="573.968" y2="240"  stroke="#000000" />
<use x="66.0317" y="240" xlink:href="#cross"  stroke="#000000" />
<use x="66.0317" y="49.5238" xlink:href="#cross"  stroke="#000000" />
<use x="66.0317" y="430.476" xlink:href="#cross"  stroke="#000000" />
<text style="font-size:12;text-align:center;text-anchor:middle;" x="66.0317" y="448.476" fill="#000000">-1</text>
<use x="320" y="240" xlink:href="#cross"  stroke="#000000" />
<use x="320" y="49.5238" xlink:href="#cross"  stroke="#000000" />
<use x="320" y="430.476" xlink:href="#cross"  stroke="#000000" />
<text style="font-size:12;text-align:center;text-anchor:middle;" x="320" y="448.476" fill="#000000">0</text>
<use x="573.968" y="240" xlink:href="#cross"  stroke="#000000" />
<use x="573.968" y="49.5238" xlink:href="#cross"  stroke="#000000" />
<use x="573.968" y="430.476" xlink:href="#cross"  stroke="#000000" />
<text style="font-size:12;text-align:center;text-anchor:middle;" x="573.968" y="448.476" fill="#000000">1</text>
<text style="font-size:12;text-align:center;text-anchor:middle;" x="16.5079" y="246" transform="rotate(-90,16.5079,240)" fill="#000000">Transverse ray aberration (um)</text>
<line x1="320" y1="430.476" x2="320" y2="49.5238"  stroke="#000000" />
<use x="320" y="394.303" xlink:href="#cross"  stroke="#000000" />
<use x="573.968" y="394.303" xlink:href="#cross"  stroke="#000000" />
<use x="66.0317" y="394.303" xlink:href="#cross"  stroke="#000000" />
<text style="font-size:12;text-align:right;text-anchor:end;" x="60.0317" y="400.303" fill="#000000">-30</text>
<use x="320" y="342.869" xlink:href="#cross"  stroke="#000000" />
<use x="573.968" y="342.869" xlink:href="#cross"  stroke="#000000" />
<use x="66.0317" y="342.869" xlink:href="#cross"  stroke="#000000" />
<text style="font-size:12;text-align:right;text-anchor:end;" x="60.0317" y="348.869" fill="#000000">-20</text>
<use x="320" y="291.434" xlink:href="#cross"  stroke="#000000" />
<use x="573.968" y="291.434" xlink:href="#cross"  stroke="#000000" />
<use x="66.0317" y="291.434" xlink:href="#cross"  stroke="#000000" />
<text style="font-size:12;text-align:right;text-anchor:end;" x="60.0317" y="297.434" fill="#000000">-10</text>
<use x="320" y="240" xlink:href="#cross"  stroke="#000000" />
<use x="573.968" y="240" xlink:href="#cross"  stroke="#000000" />
<use x="66.0317" y="240" xlink:href="#cross"  stroke="#000000" />
<text style="font-size:12;text-align:right;text-anchor:end;" x="60.0317" y="246" fill="#000000">0</text>
<use x="320" y="188.566" xlink:href="#cross"  stroke="#000000" />
<use x="573.968" y="188.566" xlink:href="#cross"  stroke="#000000" />
<use x="66.0317" y="188.566" xlink:href="#cross"  stroke="#000000" />
<text style="font-size:12;text-align:right;text-anchor:end;" x="60.0317" y="194.566" fill="#000000">10</text>
<use x="320" y="137.131" xlink:href="#cross"  stroke="#000000" />
<use x="573.968" y="137.131" xlink:href="#cross"  stroke="#000000" />
<use x="66.0317" y="137.131" xlink:href="#cross"  stroke="#000000" />
<text style="font-size:12;text-align:right;text-anchor:end;" x="60.0317" y="143.131" fill="#000000">20</text>
<use x="320" y="85.6966" xlink:href="#cross"  stroke="#000000" />
<use x="573.968" y="85.6966" xlink:href="#cross"  stroke="#000000" />
<use x="66.0317" y="85.6966" xlink:href="#cross"  stroke="#000000" />
<text style="font-size:12;text-align:right;text-anchor:end;" x="60.0317" y="91.6966" fill="#000000">30</text>
<text style="font-size:18;text-align:center;text-anchor:middle;" x="320" y="33.7619" fill="#000000">Transverse ray aberration fan (tangential)</text>
<path fill="none"  stroke="#00ebff" d="M83.2,343.26 S94.4762,353.951 100.114,356.145 S111.39,357.483 117.029,356.424 S128.305,352.583 133.943,349.789 S145.219,343.281 150.857,339.66 S162.133,331.981 167.771,328.066 S179.048,320.08 184.686,316.167 S195.962,308.346 201.6,304.589 S212.876,297.163 218.514,293.626 S229.79,286.676 235.429,283.37 S246.705,276.889 252.343,273.796 S263.619,267.728 269.257,264.808 S280.533,259.07 286.171,256.279 S297.448,250.774 303.086,248.061 S314.362,242.687 320,240 S331.276,234.652 336.914,231.939 S348.19,226.512 353.829,223.721 S365.105,218.111 370.743,215.192 S382.019,209.298 387.657,206.204 S398.933,199.935 404.571,196.63 S415.848,189.91 421.486,186.374 S432.762,179.168 438.4,175.411 S449.676,167.746 455.314,163.833 S466.59,155.85 472.229,151.934 S483.505,143.96 489.143,140.34 S500.419,133.005 506.057,130.211 S517.333,124.635 522.971,123.576 S534.248,121.661 539.886,123.855 S553.981,134.592 556.8,136.74 " />
<path fill="none"  stroke="#ffe100" d="M83.2,237.152 S94.4762,251.413 100.114,255.637 S111.39,261.252 117.029,262.493 S128.305,263.4 133.943,263.083 S145.219,261.627 150.857,260.594 S162.133,258.151 167.771,256.884 S179.048,254.231 184.686,252.996 S195.962,250.545 201.6,249.47 S212.876,247.41 218.514,246.545 S229.79,244.932 235.429,244.28 S246.705,243.095 252.343,242.633 S263.619,241.816 269.257,241.507 S280.533,240.978 286.171,240.781 S297.448,240.453 303.086,240.323 S314.362,240.108 320,240 S331.276,239.807 336.914,239.677 S348.19,239.416 353.829,239.219 S365.105,238.802 370.743,238.493 S382.019,237.829 387.657,237.367 S398.933,236.372 404.571,235.72 S415.848,234.32 421.486,233.455 S432.762,231.605 438.4,230.53 S449.676,228.24 455.314,227.004 S466.59,224.382 472.229,223.116 S483.505,220.439 489.143,219.406 S500.419,217.233 506.057,216.917 S517.333,216.266 522.971,217.507 S534.248,220.139 539.886,224.363 S553.981,239.767 556.8,242.848 " />
<path fill="none"  stroke="#ff0000" d="M83.2,427.591 S94.4762,431.344 100.114,430.476 S111.39,426.041 117.029,422.385 S128.305,413.604 133.943,408.545 S145.219,397.686 150.857,392.029 S162.133,380.403 167.771,374.605 S179.048,362.939 184.686,357.241 S195.962,345.904 201.6,340.418 S212.876,329.565 218.514,324.327 S229.79,313.989 235.429,308.991 S246.705,299.128 252.343,294.339 S263.619,284.877 269.257,280.254 S280.533,271.102 286.171,266.598 S297.448,257.661 303.086,253.228 S314.362,244.409 320,240 S331.276,231.205 336.914,226.772 S348.19,217.907 353.829,213.402 S365.105,204.37 370.743,199.746 S382.019,190.451 387.657,185.661 S398.933,176.007 404.571,171.009 S415.848,160.911 421.486,155.673 S432.762,145.068 438.4,139.582 S449.676,128.457 455.314,122.759 S466.59,111.193 472.229,105.395 S483.505,93.6273 489.143,87.9707 S500.419,76.5145 506.057,71.4552 S517.333,61.2699 522.971,57.6146 S534.248,50.3914 539.886,49.5238 S553.981,51.9283 556.8,52.4092 " />
</svg>
