<?xml version="1.0" standalone="no"?>
<svg width="640px" height="480px" version="1.1" xmlns="http://www.w3.org/2000/svg" xmlns:xlink="http://www.w3.org/1999/xlink">
<rect x="0" y="0" width="640" height="480"  fill="#ffffff" />
<defs>
<g id="dot">
<line x1="1" y1="1" x2="0" y2="0"  />
</g>
<g id="cross">
<line x1="-3" y1="0" x2="3" y2="0"  />
<line x1="0" y1="-3" x2="0" y2="3"  />
</g>
<g id="square">
<line x1="-3" y1="-3" x2="-3" y2="3"  />
<line x1="-3" y1="3" x2="3" y2="3"  />
<line x1="3" y1="3" x2="3" y2="-3"  />
<line x1="3" y1="-3" x2="-3" y2="-3"  />
</g>
<g id="round">
<ellipse cx="0" cy="0" rx="3" ry="3"  fill="none" /></g>
<g id="triangle">
<line x1="0" y1="-3" x2="-3" y2="3"  />
<line x1="-3" y1="3" x2="3" y2="3"  />
<line x1="0" y1="-3" x2="3" y2="3"  />
</g>
</defs>
<polygon fill="none" stroke="#000000" points="66.0317,430.476 66.0317,49.5238 573.968,49.5238 573.968,430.476 " />
<text style="font-size:12;text-align:center;text-anchor:middle;" x="320" y="473.619" fill="#000000">Entrance ray height (normalized)</text>
<line x1="66.0317" y1="425.514" x2="573.968" y2="425.514"  stroke="#000000" />
<use x="66.0317" y="425.514" xlink:href="#cross"  stroke="#000000" />
<use x="66.0317" y="49.5238" xlink:href="#cross"  stroke="#000000" />
<use x="66.0317" y="430.476" xlink:href="#cross"  stroke="#000000" />
<text style="font-size:12;text-align:center;text-anchor:middle;" x="66.0317" y="448.476" fill="#000000">-1</text>
<use x="320" y="425.514" xlink:href="#cross"  stroke="#000000" />
<use x="320" y="49.5238" xlink:href="#cross"  stroke="#000000" />
<use x="320" y="430.476" xlink:href="#cross"  stroke="#000000" />
<text style="font-size:12;text-align:center;text-anchor:middle;" x="320" y="448.476" fill="#000000">0</text>
<use x="573.968" y="425.514" xlink:href="#cross"  stroke="#000000" />
<use x="573.968" y="49.5238" xlink:href="#cross"  stroke="#000000" />
<use x="573.968" y="430.476" xlink:href="#cross"  stroke="#000000" />
<text style="font-size:12;text-align:center;text-anchor:middle;" x="573.968" y="448.476" fill="#000000">1</text>
<text style="font-size:12;text-align:center;text-anchor:middle;" x="16.5079" y="246" transform="rotate(-90,16.5079,240)" fill="#000000">Longitudinal ray aberration (um)</text>
<line x1="320" y1="430.476" x2="320" y2="49.5238"  stroke="#000000" />
<use x="320" y="425.514" xlink:href="#cross"  stroke="#000000" />
<use x="573.968" y="425.514" xlink:href="#cross"  stroke="#000000" />
<use x="66.0317" y="425.514" xlink:href="#cross"  stroke="#000000" />
<text style="font-size:12;text-align:right;text-anchor:end;" x="60.0317" y="431.514" fill="#000000">0</text>
<use x="320" y="350.278" xlink:href="#cross"  stroke="#000000" />
<use x="573.968" y="350.278" xlink:href="#cross"  stroke="#000000" />
<use x="66.0317" y="350.278" xlink:href="#cross"  stroke="#000000" />
<text style="font-size:12;text-align:right;text-anchor:end;" x="60.0317" y="356.278" fill="#000000">50</text>
<use x="320" y="275.042" xlink:href="#cross"  stroke="#000000" />
<use x="573.968" y="275.042" xlink:href="#cross"  stroke="#000000" />
<use x="66.0317" y="275.042" xlink:href="#cross"  stroke="#000000" />
<text style="font-size:12;text-align:right;text-anchor:end;" x="60.0317" y="281.042" fill="#000000">100</text>
<use x="320" y="199.807" xlink:href="#cross"  stroke="#000000" />
<use x="573.968" y="199.807" xlink:href="#cross"  stroke="#000000" />
<use x="66.0317" y="199.807" xlink:href="#cross"  stroke="#000000" />
<text style="font-size:12;text-align:right;text-anchor:end;" x="60.0317" y="205.807" fill="#000000">150</text>
<use x="320" y="124.571" xlink:href="#cross"  stroke="#000000" />
<use x="573.968" y="124.571" xlink:href="#cross"  stroke="#000000" />
<use x="66.0317" y="124.571" xlink:href="#cross"  stroke="#000000" />
<text style="font-size:12;text-align:right;text-anchor:end;" x="60.0317" y="130.571" fill="#000000">200</text>
<text style="font-size:18;text-align:center;text-anchor:middle;" x="320" y="33.7619" fill="#000000">Longitudinal ray aberration fan (tangential)</text>
<path fill="none"  stroke="#00ebff" d="M83.2,245.514 S94.4762,216.649 100.114,207.033 S111.39,192.229 117.029,187.821 S128.305,181.792 133.943,180.585 S145.219,179.896 150.857,180.583 S162.133,182.984 167.771,184.709 S179.048,188.728 184.686,190.932 S195.962,195.61 201.6,197.933 S212.876,202.656 218.514,204.869 S229.79,209.25 235.429,211.212 S246.705,215.016 252.343,216.644 S263.619,219.734 269.257,220.981 S280.533,223.283 286.171,224.123 S294.629,225.706 303.086,226.023 S328.457,226.34 336.914,226.023 S348.19,224.964 353.829,224.123 S365.105,222.227 370.743,220.981 S382.019,218.272 387.657,216.644 S398.933,213.175 404.571,211.212 S415.848,207.083 421.486,204.869 S432.762,200.256 438.4,197.933 S449.676,193.136 455.314,190.932 S466.59,186.433 472.229,184.709 S483.505,181.27 489.143,180.583 S500.419,179.379 506.057,180.585 S517.333,183.413 522.971,187.821 S534.248,197.418 539.886,207.033 S553.981,239.1 556.8,245.514 " />
<path fill="none"  stroke="#ffe100" d="M83.2,430.476 S94.4762,404.591 100.114,396.114 S111.39,383.293 117.029,379.615 S128.305,374.825 133.943,374.044 S145.219,374.039 150.857,374.927 S162.133,377.606 167.771,379.37 S179.048,383.377 184.686,385.509 S195.962,389.982 201.6,392.163 S212.876,396.562 218.514,398.597 S229.79,402.599 235.429,404.374 S246.705,407.795 252.343,409.249 S263.619,411.994 269.257,413.095 S280.533,415.12 286.171,415.857 S294.629,417.24 303.086,417.517 S328.457,417.793 336.914,417.517 S348.19,416.594 353.829,415.857 S365.105,414.197 370.743,413.095 S382.019,410.702 387.657,409.249 S398.933,406.149 404.571,404.374 S415.848,400.632 421.486,398.597 S432.762,394.344 438.4,392.163 S449.676,387.642 455.314,385.509 S466.59,381.133 472.229,379.37 S483.505,375.814 489.143,374.927 S500.419,373.262 506.057,374.044 S517.333,375.937 522.971,379.615 S534.248,387.637 539.886,396.114 S553.981,424.749 556.8,430.476 " />
<path fill="none"  stroke="#ff0000" d="M83.2,98.5156 S94.4762,74.7759 100.114,67.2179 S111.39,56.1171 117.029,53.168 S128.305,49.7357 133.943,49.5238 S145.219,50.5725 150.857,51.8969 S162.133,55.3781 167.771,57.4699 S179.048,62.075 184.686,64.4479 S195.962,69.3543 201.6,71.7074 S212.876,76.4124 218.514,78.5664 S229.79,82.7771 235.429,84.6317 S246.705,88.1898 252.343,89.6939 S263.619,92.5243 269.257,93.6562 S280.533,95.7317 286.171,96.4854 S294.629,97.8963 303.086,98.1785 S328.457,98.4607 336.914,98.1785 S348.19,97.2391 353.829,96.4854 S365.105,94.7881 370.743,93.6562 S382.019,91.198 387.657,89.6939 S398.933,86.4863 404.571,84.6317 S415.848,80.7205 421.486,78.5664 S432.762,74.0604 438.4,71.7074 S449.676,66.8208 455.314,64.4479 S466.59,59.5618 472.229,57.4699 S483.505,53.2212 489.143,51.8969 S500.419,49.3119 506.057,49.5238 S517.333,50.219 522.971,53.168 S534.248,59.66 539.886,67.2179 S553.981,93.2993 556.8,98.5156 " />
</svg>
