<?xml version="1.0" standalone="no"?>
<svg width="640px" height="480px" version="1.1" xmlns="http://www.w3.org/2000/svg" xmlns:xlink="http://www.w3.org/1999/xlink">
<rect x="0" y="0" width="640" height="480"  fill="#ffffff" />
<defs>
<g id="dot">
<line x1="1" y1="1" x2="0" y2="0"  />
</g>
<g id="cross">
<line x1="-3" y1="0" x2="3" y2="0"  />
<line x1="0" y1="-3" x2="0" y2="3"  />
</g>
<g id="square">
<line x1="-3" y1="-3" x2="-3" y2="3"  />
<line x1="-3" y1="3" x2="3" y2="3"  />
<line x1="3" y1="3" x2="3" y2="-3"  />
<line x1="3" y1="-3" x2="-3" y2="-3"  />
</g>
<g id="round">
<ellipse cx="0" cy="0" rx="3" ry="3"  fill="none" /></g>
<g id="triangle">
<line x1="0" y1="-3" x2="-3" y2="3"  />
<line x1="-3" y1="3" x2="3" y2="3"  />
<line x1="0" y1="-3" x2="3" y2="3"  />
</g>
</defs>
<polygon fill="none" stroke="#000000" points="66.0317,430.476 66.0317,49.5238 573.968,49.5238 573.968,430.476 " />
<text style="font-size:12;text-align:center;text-anchor:middle;" x="320" y="473.619" fill="#000000">Distance from spot centroid (um)</text>
<use x="66.0317" y="49.5238" xlink:href="#cross"  stroke="#000000" />
<use x="66.0317" y="430.476" xlink:href="#cross"  stroke="#000000" />
<text style="font-size:12;text-align:center;text-anchor:middle;" x="66.0317" y="448.476" fill="#000000">0</text>
<use x="135.711" y="49.5238" xlink:href="#cross"  stroke="#000000" />
<use x="135.711" y="430.476" xlink:href="#cross"  stroke="#000000" />
<text style="font-size:12;text-align:center;text-anchor:middle;" x="135.711" y="448.476" fill="#000000">5</text>
<use x="205.39" y="49.5238" xlink:href="#cross"  stroke="#000000" />
<use x="205.39" y="430.476" xlink:href="#cross"  stroke="#000000" />
<text style="font-size:12;text-align:center;text-anchor:middle;" x="205.39" y="448.476" fill="#000000">10</text>
<use x="275.069" y="49.5238" xlink:href="#cross"  stroke="#000000" />
<use x="275.069" y="430.476" xlink:href="#cross"  stroke="#000000" />
<text style="font-size:12;text-align:center;text-anchor:middle;" x="275.069" y="448.476" fill="#000000">15</text>
<use x="344.747" y="49.5238" xlink:href="#cross"  stroke="#000000" />
<use x="344.747" y="430.476" xlink:href="#cross"  stroke="#000000" />
<text style="font-size:12;text-align:center;text-anchor:middle;" x="344.747" y="448.476" fill="#000000">20</text>
<use x="414.426" y="49.5238" xlink:href="#cross"  stroke="#000000" />
<use x="414.426" y="430.476" xlink:href="#cross"  stroke="#000000" />
<text style="font-size:12;text-align:center;text-anchor:middle;" x="414.426" y="448.476" fill="#000000">25</text>
<use x="484.105" y="49.5238" xlink:href="#cross"  stroke="#000000" />
<use x="484.105" y="430.476" xlink:href="#cross"  stroke="#000000" />
<text style="font-size:12;text-align:center;text-anchor:middle;" x="484.105" y="448.476" fill="#000000">30</text>
<use x="553.784" y="49.5238" xlink:href="#cross"  stroke="#000000" />
<use x="553.784" y="430.476" xlink:href="#cross"  stroke="#000000" />
<text style="font-size:12;text-align:center;text-anchor:middle;" x="553.784" y="448.476" fill="#000000">35</text>
<text style="font-size:12;text-align:center;text-anchor:middle;" x="16.5079" y="246" transform="rotate(-90,16.5079,240)" fill="#000000">Encircled intensity</text>
<use x="573.968" y="430.476" xlink:href="#cross"  stroke="#000000" />
<use x="66.0317" y="430.476" xlink:href="#cross"  stroke="#000000" />
<text style="font-size:12;text-align:right;text-anchor:end;" x="60.0317" y="436.476" fill="#000000">0</text>
<use x="573.968" y="387.186" xlink:href="#cross"  stroke="#000000" />
<use x="66.0317" y="387.186" xlink:href="#cross"  stroke="#000000" />
<text style="font-size:12;text-align:right;text-anchor:end;" x="60.0317" y="393.186" fill="#000000">50</text>
<use x="573.968" y="343.896" xlink:href="#cross"  stroke="#000000" />
<use x="66.0317" y="343.896" xlink:href="#cross"  stroke="#000000" />
<text style="font-size:12;text-align:right;text-anchor:end;" x="60.0317" y="349.896" fill="#000000">100</text>
<use x="573.968" y="300.606" xlink:href="#cross"  stroke="#000000" />
<use x="66.0317" y="300.606" xlink:href="#cross"  stroke="#000000" />
<text style="font-size:12;text-align:right;text-anchor:end;" x="60.0317" y="306.606" fill="#000000">150</text>
<use x="573.968" y="257.316" xlink:href="#cross"  stroke="#000000" />
<use x="66.0317" y="257.316" xlink:href="#cross"  stroke="#000000" />
<text style="font-size:12;text-align:right;text-anchor:end;" x="60.0317" y="263.316" fill="#000000">200</text>
<use x="573.968" y="214.026" xlink:href="#cross"  stroke="#000000" />
<use x="66.0317" y="214.026" xlink:href="#cross"  stroke="#000000" />
<text style="font-size:12;text-align:right;text-anchor:end;" x="60.0317" y="220.026" fill="#000000">250</text>
<use x="573.968" y="170.736" xlink:href="#cross"  stroke="#000000" />
<use x="66.0317" y="170.736" xlink:href="#cross"  stroke="#000000" />
<text style="font-size:12;text-align:right;text-anchor:end;" x="60.0317" y="176.736" fill="#000000">300</text>
<use x="573.968" y="127.446" xlink:href="#cross"  stroke="#000000" />
<use x="66.0317" y="127.446" xlink:href="#cross"  stroke="#000000" />
<text style="font-size:12;text-align:right;text-anchor:end;" x="60.0317" y="133.446" fill="#000000">350</text>
<use x="573.968" y="84.1558" xlink:href="#cross"  stroke="#000000" />
<use x="66.0317" y="84.1558" xlink:href="#cross"  stroke="#000000" />
<text style="font-size:12;text-align:right;text-anchor:end;" x="60.0317" y="90.1558" fill="#000000">400</text>
<text style="font-size:18;text-align:center;text-anchor:middle;" x="320" y="33.7619" fill="#000000">Spot diagram encircled rays intensity</text>
<line x1="66.0317" y1="430.476" x2="76.1905" y2="429.61"  stroke="#00ebff" />
<line x1="76.1905" y1="429.61" x2="86.3492" y2="429.61"  stroke="#00ebff" />
<line x1="86.3492" y1="429.61" x2="96.5079" y2="424.416"  stroke="#00ebff" />
<line x1="96.5079" y1="424.416" x2="106.667" y2="420.952"  stroke="#00ebff" />
<line x1="106.667" y1="420.952" x2="116.825" y2="415.758"  stroke="#00ebff" />
<line x1="116.825" y1="415.758" x2="126.984" y2="410.563"  stroke="#00ebff" />
<line x1="126.984" y1="410.563" x2="137.143" y2="402.771"  stroke="#00ebff" />
<line x1="137.143" y1="402.771" x2="147.302" y2="391.515"  stroke="#00ebff" />
<line x1="147.302" y1="391.515" x2="157.46" y2="381.991"  stroke="#00ebff" />
<line x1="157.46" y1="381.991" x2="167.619" y2="369.004"  stroke="#00ebff" />
<line x1="167.619" y1="369.004" x2="177.778" y2="356.017"  stroke="#00ebff" />
<line x1="177.778" y1="356.017" x2="187.937" y2="343.896"  stroke="#00ebff" />
<line x1="187.937" y1="343.896" x2="198.095" y2="326.58"  stroke="#00ebff" />
<line x1="198.095" y1="326.58" x2="208.254" y2="306.667"  stroke="#00ebff" />
<line x1="208.254" y1="306.667" x2="218.413" y2="290.216"  stroke="#00ebff" />
<line x1="218.413" y1="290.216" x2="228.571" y2="271.169"  stroke="#00ebff" />
<line x1="228.571" y1="271.169" x2="238.73" y2="251.255"  stroke="#00ebff" />
<line x1="238.73" y1="251.255" x2="248.889" y2="233.074"  stroke="#00ebff" />
<line x1="248.889" y1="233.074" x2="259.048" y2="214.892"  stroke="#00ebff" />
<line x1="259.048" y1="214.892" x2="269.206" y2="201.039"  stroke="#00ebff" />
<line x1="269.206" y1="201.039" x2="279.365" y2="180.26"  stroke="#00ebff" />
<line x1="279.365" y1="180.26" x2="289.524" y2="166.407"  stroke="#00ebff" />
<line x1="289.524" y1="166.407" x2="299.683" y2="154.286"  stroke="#00ebff" />
<line x1="299.683" y1="154.286" x2="309.841" y2="143.896"  stroke="#00ebff" />
<line x1="309.841" y1="143.896" x2="320" y2="131.775"  stroke="#00ebff" />
<line x1="320" y1="131.775" x2="330.159" y2="121.385"  stroke="#00ebff" />
<line x1="330.159" y1="121.385" x2="340.317" y2="112.727"  stroke="#00ebff" />
<line x1="340.317" y1="112.727" x2="350.476" y2="102.338"  stroke="#00ebff" />
<line x1="350.476" y1="102.338" x2="360.635" y2="93.6797"  stroke="#00ebff" />
<line x1="360.635" y1="93.6797" x2="370.794" y2="85.0216"  stroke="#00ebff" />
<line x1="370.794" y1="85.0216" x2="380.952" y2="78.0952"  stroke="#00ebff" />
<line x1="380.952" y1="78.0952" x2="391.111" y2="69.4372"  stroke="#00ebff" />
<line x1="391.111" y1="69.4372" x2="401.27" y2="64.2424"  stroke="#00ebff" />
<line x1="401.27" y1="64.2424" x2="411.429" y2="57.316"  stroke="#00ebff" />
<line x1="411.429" y1="57.316" x2="421.587" y2="52.1212"  stroke="#00ebff" />
<line x1="421.587" y1="52.1212" x2="431.746" y2="52.1212"  stroke="#00ebff" />
<line x1="431.746" y1="52.1212" x2="441.905" y2="52.1212"  stroke="#00ebff" />
<line x1="441.905" y1="52.1212" x2="452.063" y2="52.1212"  stroke="#00ebff" />
<line x1="452.063" y1="52.1212" x2="462.222" y2="52.1212"  stroke="#00ebff" />
<line x1="462.222" y1="52.1212" x2="472.381" y2="52.1212"  stroke="#00ebff" />
<line x1="472.381" y1="52.1212" x2="482.54" y2="52.1212"  stroke="#00ebff" />
<line x1="482.54" y1="52.1212" x2="492.698" y2="52.1212"  stroke="#00ebff" />
<line x1="492.698" y1="52.1212" x2="502.857" y2="52.1212"  stroke="#00ebff" />
<line x1="502.857" y1="52.1212" x2="513.016" y2="52.1212"  stroke="#00ebff" />
<line x1="513.016" y1="52.1212" x2="523.175" y2="52.1212"  stroke="#00ebff" />
<line x1="523.175" y1="52.1212" x2="533.333" y2="52.1212"  stroke="#00ebff" />
<line x1="533.333" y1="52.1212" x2="543.492" y2="52.1212"  stroke="#00ebff" />
<line x1="543.492" y1="52.1212" x2="553.651" y2="52.1212"  stroke="#00ebff" />
<line x1="553.651" y1="52.1212" x2="563.81" y2="52.1212"  stroke="#00ebff" />
<line x1="563.81" y1="52.1212" x2="573.968" y2="52.1212"  stroke="#00ebff" />
<line x1="66.0317" y1="430.476" x2="76.1905" y2="430.476"  stroke="#ffe100" />
<line x1="76.1905" y1="430.476" x2="86.3492" y2="430.476"  stroke="#ffe100" />
<line x1="86.3492" y1="430.476" x2="96.5079" y2="430.476"  stroke="#ffe100" />
<line x1="96.5079" y1="430.476" x2="106.667" y2="430.476"  stroke="#ffe100" />
<line x1="106.667" y1="430.476" x2="116.825" y2="430.476"  stroke="#ffe100" />
<line x1="116.825" y1="430.476" x2="126.984" y2="430.476"  stroke="#ffe100" />
<line x1="126.984" y1="430.476" x2="137.143" y2="430.476"  stroke="#ffe100" />
<line x1="137.143" y1="430.476" x2="147.302" y2="430.476"  stroke="#ffe100" />
<line x1="147.302" y1="430.476" x2="157.46" y2="430.476"  stroke="#ffe100" />
<line x1="157.46" y1="430.476" x2="167.619" y2="430.476"  stroke="#ffe100" />
<line x1="167.619" y1="430.476" x2="177.778" y2="430.476"  stroke="#ffe100" />
<line x1="177.778" y1="430.476" x2="187.937" y2="429.61"  stroke="#ffe100" />
<line x1="187.937" y1="429.61" x2="198.095" y2="264.242"  stroke="#ffe100" />
<line x1="198.095" y1="264.242" x2="208.254" y2="87.619"  stroke="#ffe100" />
<line x1="208.254" y1="87.619" x2="218.413" y2="51.2554"  stroke="#ffe100" />
<line x1="218.413" y1="51.2554" x2="228.571" y2="51.2554"  stroke="#ffe100" />
<line x1="228.571" y1="51.2554" x2="238.73" y2="51.2554"  stroke="#ffe100" />
<line x1="238.73" y1="51.2554" x2="248.889" y2="51.2554"  stroke="#ffe100" />
<line x1="248.889" y1="51.2554" x2="259.048" y2="51.2554"  stroke="#ffe100" />
<line x1="259.048" y1="51.2554" x2="269.206" y2="51.2554"  stroke="#ffe100" />
<line x1="269.206" y1="51.2554" x2="279.365" y2="51.2554"  stroke="#ffe100" />
<line x1="279.365" y1="51.2554" x2="289.524" y2="51.2554"  stroke="#ffe100" />
<line x1="289.524" y1="51.2554" x2="299.683" y2="51.2554"  stroke="#ffe100" />
<line x1="299.683" y1="51.2554" x2="309.841" y2="51.2554"  stroke="#ffe100" />
<line x1="309.841" y1="51.2554" x2="320" y2="51.2554"  stroke="#ffe100" />
<line x1="320" y1="51.2554" x2="330.159" y2="51.2554"  stroke="#ffe100" />
<line x1="330.159" y1="51.2554" x2="340.317" y2="51.2554"  stroke="#ffe100" />
<line x1="340.317" y1="51.2554" x2="350.476" y2="51.2554"  stroke="#ffe100" />
<line x1="350.476" y1="51.2554" x2="360.635" y2="51.2554"  stroke="#ffe100" />
<line x1="360.635" y1="51.2554" x2="370.794" y2="51.2554"  stroke="#ffe100" />
<line x1="370.794" y1="51.2554" x2="380.952" y2="51.2554"  stroke="#ffe100" />
<line x1="380.952" y1="51.2554" x2="391.111" y2="51.2554"  stroke="#ffe100" />
<line x1="391.111" y1="51.2554" x2="401.27" y2="51.2554"  stroke="#ffe100" />
<line x1="401.27" y1="51.2554" x2="411.429" y2="51.2554"  stroke="#ffe100" />
<line x1="411.429" y1="51.2554" x2="421.587" y2="51.2554"  stroke="#ffe100" />
<line x1="421.587" y1="51.2554" x2="431.746" y2="51.2554"  stroke="#ffe100" />
<line x1="431.746" y1="51.2554" x2="441.905" y2="51.2554"  stroke="#ffe100" />
<line x1="441.905" y1="51.2554" x2="452.063" y2="51.2554"  stroke="#ffe100" />
<line x1="452.063" y1="51.2554" x2="462.222" y2="51.2554"  stroke="#ffe100" />
<line x1="462.222" y1="51.2554" x2="472.381" y2="51.2554"  stroke="#ffe100" />
<line x1="472.381" y1="51.2554" x2="482.54" y2="51.2554"  stroke="#ffe100" />
<line x1="482.54" y1="51.2554" x2="492.698" y2="51.2554"  stroke="#ffe100" />
<line x1="492.698" y1="51.2554" x2="502.857" y2="51.2554"  stroke="#ffe100" />
<line x1="502.857" y1="51.2554" x2="513.016" y2="51.2554"  stroke="#ffe100" />
<line x1="513.016" y1="51.2554" x2="523.175" y2="51.2554"  stroke="#ffe100" />
<line x1="523.175" y1="51.2554" x2="533.333" y2="51.2554"  stroke="#ffe100" />
<line x1="533.333" y1="51.2554" x2="543.492" y2="51.2554"  stroke="#ffe100" />
<line x1="543.492" y1="51.2554" x2="553.651" y2="51.2554"  stroke="#ffe100" />
<line x1="553.651" y1="51.2554" x2="563.81" y2="51.2554"  stroke="#ffe100" />
<line x1="563.81" y1="51.2554" x2="573.968" y2="51.2554"  stroke="#ffe100" />
<line x1="66.0317" y1="430.476" x2="76.1905" y2="430.476"  stroke="#ff0000" />
<line x1="76.1905" y1="430.476" x2="86.3492" y2="428.745"  stroke="#ff0000" />
<line x1="86.3492" y1="428.745" x2="96.5079" y2="425.281"  stroke="#ff0000" />
<line x1="96.5079" y1="425.281" x2="106.667" y2="423.55"  stroke="#ff0000" />
<line x1="106.667" y1="423.55" x2="116.825" y2="416.623"  stroke="#ff0000" />
<line x1="116.825" y1="416.623" x2="126.984" y2="409.697"  stroke="#ff0000" />
<line x1="126.984" y1="409.697" x2="137.143" y2="407.965"  stroke="#ff0000" />
<line x1="137.143" y1="407.965" x2="147.302" y2="394.978"  stroke="#ff0000" />
<line x1="147.302" y1="394.978" x2="157.46" y2="388.052"  stroke="#ff0000" />
<line x1="157.46" y1="388.052" x2="167.619" y2="377.662"  stroke="#ff0000" />
<line x1="167.619" y1="377.662" x2="177.778" y2="369.87"  stroke="#ff0000" />
<line x1="177.778" y1="369.87" x2="187.937" y2="359.481"  stroke="#ff0000" />
<line x1="187.937" y1="359.481" x2="198.095" y2="354.286"  stroke="#ff0000" />
<line x1="198.095" y1="354.286" x2="208.254" y2="344.762"  stroke="#ff0000" />
<line x1="208.254" y1="344.762" x2="218.413" y2="336.104"  stroke="#ff0000" />
<line x1="218.413" y1="336.104" x2="228.571" y2="327.446"  stroke="#ff0000" />
<line x1="228.571" y1="327.446" x2="238.73" y2="319.654"  stroke="#ff0000" />
<line x1="238.73" y1="319.654" x2="248.889" y2="309.264"  stroke="#ff0000" />
<line x1="248.889" y1="309.264" x2="259.048" y2="304.069"  stroke="#ff0000" />
<line x1="259.048" y1="304.069" x2="269.206" y2="292.814"  stroke="#ff0000" />
<line x1="269.206" y1="292.814" x2="279.365" y2="282.424"  stroke="#ff0000" />
<line x1="279.365" y1="282.424" x2="289.524" y2="274.632"  stroke="#ff0000" />
<line x1="289.524" y1="274.632" x2="299.683" y2="260.779"  stroke="#ff0000" />
<line x1="299.683" y1="260.779" x2="309.841" y2="255.584"  stroke="#ff0000" />
<line x1="309.841" y1="255.584" x2="320" y2="242.597"  stroke="#ff0000" />
<line x1="320" y1="242.597" x2="330.159" y2="232.208"  stroke="#ff0000" />
<line x1="330.159" y1="232.208" x2="340.317" y2="224.416"  stroke="#ff0000" />
<line x1="340.317" y1="224.416" x2="350.476" y2="212.294"  stroke="#ff0000" />
<line x1="350.476" y1="212.294" x2="360.635" y2="199.307"  stroke="#ff0000" />
<line x1="360.635" y1="199.307" x2="370.794" y2="187.186"  stroke="#ff0000" />
<line x1="370.794" y1="187.186" x2="380.952" y2="174.199"  stroke="#ff0000" />
<line x1="380.952" y1="174.199" x2="391.111" y2="160.346"  stroke="#ff0000" />
<line x1="391.111" y1="160.346" x2="401.27" y2="151.688"  stroke="#ff0000" />
<line x1="401.27" y1="151.688" x2="411.429" y2="141.299"  stroke="#ff0000" />
<line x1="411.429" y1="141.299" x2="421.587" y2="130.909"  stroke="#ff0000" />
<line x1="421.587" y1="130.909" x2="431.746" y2="122.251"  stroke="#ff0000" />
<line x1="431.746" y1="122.251" x2="441.905" y2="113.593"  stroke="#ff0000" />
<line x1="441.905" y1="113.593" x2="452.063" y2="104.935"  stroke="#ff0000" />
<line x1="452.063" y1="104.935" x2="462.222" y2="101.472"  stroke="#ff0000" />
<line x1="462.222" y1="101.472" x2="472.381" y2="92.8139"  stroke="#ff0000" />
<line x1="472.381" y1="92.8139" x2="482.54" y2="85.8874"  stroke="#ff0000" />
<line x1="482.54" y1="85.8874" x2="492.698" y2="78.961"  stroke="#ff0000" />
<line x1="492.698" y1="78.961" x2="502.857" y2="73.7662"  stroke="#ff0000" />
<line x1="502.857" y1="73.7662" x2="513.016" y2="70.303"  stroke="#ff0000" />
<line x1="513.016" y1="70.303" x2="523.175" y2="65.1082"  stroke="#ff0000" />
<line x1="523.175" y1="65.1082" x2="533.333" y2="59.9134"  stroke="#ff0000" />
<line x1="533.333" y1="59.9134" x2="543.492" y2="56.4502"  stroke="#ff0000" />
<line x1="543.492" y1="56.4502" x2="553.651" y2="52.987"  stroke="#ff0000" />
<line x1="553.651" y1="52.987" x2="563.81" y2="50.3896"  stroke="#ff0000" />
<line x1="563.81" y1="50.3896" x2="573.968" y2="49.5238"  stroke="#ff0000" />
</svg>
