<?xml version="1.0" standalone="no"?>
<svg width="640px" height="480px" version="1.1" xmlns="http://www.w3.org/2000/svg" xmlns:xlink="http://www.w3.org/1999/xlink">
<rect x="0" y="0" width="640" height="480"  fill="#ffffff" />
<defs>
<g id="dot">
<line x1="1" y1="1" x2="0" y2="0"  />
</g>
<g id="cross">
<line x1="-3" y1="0" x2="3" y2="0"  />
<line x1="0" y1="-3" x2="0" y2="3"  />
</g>
<g id="square">
<line x1="-3" y1="-3" x2="-3" y2="3"  />
<line x1="-3" y1="3" x2="3" y2="3"  />
<line x1="3" y1="3" x2="3" y2="-3"  />
<line x1="3" y1="-3" x2="-3" y2="-3"  />
</g>
<g id="round">
<ellipse cx="0" cy="0" rx="3" ry="3"  fill="none" /></g>
<g id="triangle">
<line x1="0" y1="-3" x2="-3" y2="3"  />
<line x1="-3" y1="3" x2="3" y2="3"  />
<line x1="0" y1="-3" x2="3" y2="3"  />
</g>
</defs>
<polygon fill="none" stroke="#000000" points="66.0317,430.476 66.0317,49.5238 573.968,49.5238 573.968,430.476 " />
<text style="font-size:12;text-align:center;text-anchor:middle;" x="320" y="473.619" fill="#000000">Entrance ray height (normalized)</text>
<line x1="66.0317" y1="218.67" x2="573.968" y2="218.67"  stroke="#000000" />
<use x="66.0317" y="218.67" xlink:href="#cross"  stroke="#000000" />
<use x="66.0317" y="49.5238" xlink:href="#cross"  stroke="#000000" />
<use x="66.0317" y="430.476" xlink:href="#cross"  stroke="#000000" />
<text style="font-size:12;text-align:center;text-anchor:middle;" x="66.0317" y="448.476" fill="#000000">-1</text>
<use x="320" y="218.67" xlink:href="#cross"  stroke="#000000" />
<use x="320" y="49.5238" xlink:href="#cross"  stroke="#000000" />
<use x="320" y="430.476" xlink:href="#cross"  stroke="#000000" />
<text style="font-size:12;text-align:center;text-anchor:middle;" x="320" y="448.476" fill="#000000">0</text>
<use x="573.968" y="218.67" xlink:href="#cross"  stroke="#000000" />
<use x="573.968" y="49.5238" xlink:href="#cross"  stroke="#000000" />
<use x="573.968" y="430.476" xlink:href="#cross"  stroke="#000000" />
<text style="font-size:12;text-align:center;text-anchor:middle;" x="573.968" y="448.476" fill="#000000">1</text>
<text style="font-size:12;text-align:center;text-anchor:middle;" x="16.5079" y="246" transform="rotate(-90,16.5079,240)" fill="#000000">Optical path difference (waves)</text>
<line x1="320" y1="430.476" x2="320" y2="49.5238"  stroke="#000000" />
<use x="320" y="412.268" xlink:href="#cross"  stroke="#000000" />
<use x="573.968" y="412.268" xlink:href="#cross"  stroke="#000000" />
<use x="66.0317" y="412.268" xlink:href="#cross"  stroke="#000000" />
<text style="font-size:12;text-align:right;text-anchor:end;" x="60.0317" y="418.268" fill="#000000">-6</text>
<use x="320" y="347.735" xlink:href="#cross"  stroke="#000000" />
<use x="573.968" y="347.735" xlink:href="#cross"  stroke="#000000" />
<use x="66.0317" y="347.735" xlink:href="#cross"  stroke="#000000" />
<text style="font-size:12;text-align:right;text-anchor:end;" x="60.0317" y="353.735" fill="#000000">-4</text>
<use x="320" y="283.203" xlink:href="#cross"  stroke="#000000" />
<use x="573.968" y="283.203" xlink:href="#cross"  stroke="#000000" />
<use x="66.0317" y="283.203" xlink:href="#cross"  stroke="#000000" />
<text style="font-size:12;text-align:right;text-anchor:end;" x="60.0317" y="289.203" fill="#000000">-2</text>
<use x="320" y="218.67" xlink:href="#cross"  stroke="#000000" />
<use x="573.968" y="218.67" xlink:href="#cross"  stroke="#000000" />
<use x="66.0317" y="218.67" xlink:href="#cross"  stroke="#000000" />
<text style="font-size:12;text-align:right;text-anchor:end;" x="60.0317" y="224.67" fill="#000000">0</text>
<use x="320" y="154.137" xlink:href="#cross"  stroke="#000000" />
<use x="573.968" y="154.137" xlink:href="#cross"  stroke="#000000" />
<use x="66.0317" y="154.137" xlink:href="#cross"  stroke="#000000" />
<text style="font-size:12;text-align:right;text-anchor:end;" x="60.0317" y="160.137" fill="#000000">2</text>
<use x="320" y="89.6048" xlink:href="#cross"  stroke="#000000" />
<use x="573.968" y="89.6048" xlink:href="#cross"  stroke="#000000" />
<use x="66.0317" y="89.6048" xlink:href="#cross"  stroke="#000000" />
<text style="font-size:12;text-align:right;text-anchor:end;" x="60.0317" y="95.6048" fill="#000000">4</text>
<text style="font-size:18;text-align:center;text-anchor:middle;" x="320" y="33.7619" fill="#000000">Optical path difference fan (tangential)</text>
<path fill="none"  stroke="#00ebff" d="M100.114,430.476 S111.39,241.838 117.029,182.674 S128.305,97.6856 133.943,75.4939 S145.219,51.2127 150.857,49.5238 S162.133,57.2435 167.771,65.3603 S179.048,86.8387 184.686,98.2244 S195.962,122.66 201.6,133.675 S212.876,155.372 218.514,164.313 S229.79,180.933 235.429,187.319 S246.705,198.579 252.343,202.632 S263.619,209.37 269.257,211.636 S280.533,215.138 286.171,216.226 S297.448,217.759 303.086,218.167 S314.362,218.67 320,218.67 S331.276,218.574 336.914,218.167 S348.19,217.315 353.829,216.226 S365.105,213.902 370.743,211.636 S382.019,206.685 387.657,202.632 S398.933,193.706 404.571,187.319 S415.848,173.254 421.486,164.313 S432.762,144.689 438.4,133.675 S449.676,109.61 455.314,98.2244 S466.59,73.4771 472.229,65.3603 S483.505,47.8349 489.143,49.5238 S500.419,53.3021 506.057,75.4939 S517.333,123.51 522.971,182.674 S537.067,389.176 539.886,430.476 " />
<path fill="none"  stroke="#ffe100" d="M100.114,294.521 S111.39,172.034 117.029,136.202 S128.305,89.1099 133.943,79.5284 S145.219,74.6534 150.857,78.7131 S162.133,94.205 167.771,103.887 S179.048,126.22 184.686,136.803 S195.962,158.342 201.6,167.381 S212.876,184.488 218.514,191.042 S229.79,202.659 235.429,206.708 S246.705,213.312 252.343,215.338 S263.619,218.181 269.257,218.868 S280.533,219.439 286.171,219.457 S297.448,219.107 303.086,218.976 S314.362,218.67 320,218.67 S331.276,218.844 336.914,218.976 S348.19,219.475 353.829,219.457 S365.105,219.554 370.743,218.868 S382.019,217.365 387.657,215.338 S398.933,210.757 404.571,206.708 S415.848,197.597 421.486,191.042 S432.762,176.421 438.4,167.381 S449.676,147.385 455.314,136.803 S466.59,113.568 472.229,103.887 S483.505,82.7728 489.143,78.7131 S500.419,69.947 506.057,79.5284 S517.333,100.37 522.971,136.202 S537.067,268.134 539.886,294.521 " />
<path fill="none"  stroke="#ff0000" d="M100.114,308.71 S111.39,203.193 117.029,172.36 S128.305,132.004 133.943,123.71 S145.219,119.387 150.857,122.599 S162.133,135.228 167.771,142.981 S179.048,160.864 184.686,169.113 S195.962,185.762 201.6,192.475 S212.876,204.93 218.514,209.393 S229.79,216.952 235.429,219.253 S246.705,222.545 252.343,223.202 S263.619,223.508 269.257,223.199 S280.533,221.974 286.171,221.348 S297.448,219.889 303.086,219.443 S314.362,218.67 320,218.67 S331.276,218.996 336.914,219.443 S348.19,220.722 353.829,221.348 S365.105,222.89 370.743,223.199 S382.019,223.86 387.657,223.202 S398.933,221.555 404.571,219.253 S415.848,213.856 421.486,209.393 S432.762,199.189 438.4,192.475 S449.676,177.362 455.314,169.113 S466.59,150.733 472.229,142.981 S483.505,125.811 489.143,122.599 S500.419,115.417 506.057,123.71 S517.333,141.527 522.971,172.36 S537.067,285.985 539.886,308.71 " />
</svg>
