<?xml version="1.0" standalone="no"?>
<svg width="640px" height="480px" version="1.1" xmlns="http://www.w3.org/2000/svg" xmlns:xlink="http://www.w3.org/1999/xlink">
<rect x="0" y="0" width="640" height="480"  fill="#ffffff" />
<defs>
<g id="dot">
<line x1="1" y1="1" x2="0" y2="0"  />
</g>
<g id="cross">
<line x1="-3" y1="0" x2="3" y2="0"  />
<line x1="0" y1="-3" x2="0" y2="3"  />
</g>
<g id="square">
<line x1="-3" y1="-3" x2="-3" y2="3"  />
<line x1="-3" y1="3" x2="3" y2="3"  />
<line x1="3" y1="3" x2="3" y2="-3"  />
<line x1="3" y1="-3" x2="-3" y2="-3"  />
</g>
<g id="round">
<ellipse cx="0" cy="0" rx="3" ry="3"  fill="none" /></g>
<g id="triangle">
<line x1="0" y1="-3" x2="-3" y2="3"  />
<line x1="-3" y1="3" x2="3" y2="3"  />
<line x1="0" y1="-3" x2="3" y2="3"  />
</g>
</defs>
<polygon fill="none" stroke="#000000" points="66.0317,430.476 66.0317,49.5238 573.968,49.5238 573.968,430.476 " />
<text style="font-size:12;text-align:center;text-anchor:middle;" x="320" y="473.619" fill="#000000">Distance from spot centroid (um)</text>
<use x="66.0317" y="49.5238" xlink:href="#cross"  stroke="#000000" />
<use x="66.0317" y="430.476" xlink:href="#cross"  stroke="#000000" />
<text style="font-size:12;text-align:center;text-anchor:middle;" x="66.0317" y="448.476" fill="#000000">0</text>
<use x="109.111" y="49.5238" xlink:href="#cross"  stroke="#000000" />
<use x="109.111" y="430.476" xlink:href="#cross"  stroke="#000000" />
<text style="font-size:12;text-align:center;text-anchor:middle;" x="109.111" y="448.476" fill="#000000">2</text>
<use x="152.19" y="49.5238" xlink:href="#cross"  stroke="#000000" />
<use x="152.19" y="430.476" xlink:href="#cross"  stroke="#000000" />
<text style="font-size:12;text-align:center;text-anchor:middle;" x="152.19" y="448.476" fill="#000000">4</text>
<use x="195.269" y="49.5238" xlink:href="#cross"  stroke="#000000" />
<use x="195.269" y="430.476" xlink:href="#cross"  stroke="#000000" />
<text style="font-size:12;text-align:center;text-anchor:middle;" x="195.269" y="448.476" fill="#000000">6</text>
<use x="238.349" y="49.5238" xlink:href="#cross"  stroke="#000000" />
<use x="238.349" y="430.476" xlink:href="#cross"  stroke="#000000" />
<text style="font-size:12;text-align:center;text-anchor:middle;" x="238.349" y="448.476" fill="#000000">8</text>
<use x="281.428" y="49.5238" xlink:href="#cross"  stroke="#000000" />
<use x="281.428" y="430.476" xlink:href="#cross"  stroke="#000000" />
<text style="font-size:12;text-align:center;text-anchor:middle;" x="281.428" y="448.476" fill="#000000">10</text>
<use x="324.507" y="49.5238" xlink:href="#cross"  stroke="#000000" />
<use x="324.507" y="430.476" xlink:href="#cross"  stroke="#000000" />
<text style="font-size:12;text-align:center;text-anchor:middle;" x="324.507" y="448.476" fill="#000000">12</text>
<use x="367.586" y="49.5238" xlink:href="#cross"  stroke="#000000" />
<use x="367.586" y="430.476" xlink:href="#cross"  stroke="#000000" />
<text style="font-size:12;text-align:center;text-anchor:middle;" x="367.586" y="448.476" fill="#000000">14</text>
<use x="410.665" y="49.5238" xlink:href="#cross"  stroke="#000000" />
<use x="410.665" y="430.476" xlink:href="#cross"  stroke="#000000" />
<text style="font-size:12;text-align:center;text-anchor:middle;" x="410.665" y="448.476" fill="#000000">16</text>
<use x="453.744" y="49.5238" xlink:href="#cross"  stroke="#000000" />
<use x="453.744" y="430.476" xlink:href="#cross"  stroke="#000000" />
<text style="font-size:12;text-align:center;text-anchor:middle;" x="453.744" y="448.476" fill="#000000">18</text>
<use x="496.824" y="49.5238" xlink:href="#cross"  stroke="#000000" />
<use x="496.824" y="430.476" xlink:href="#cross"  stroke="#000000" />
<text style="font-size:12;text-align:center;text-anchor:middle;" x="496.824" y="448.476" fill="#000000">20</text>
<use x="539.903" y="49.5238" xlink:href="#cross"  stroke="#000000" />
<use x="539.903" y="430.476" xlink:href="#cross"  stroke="#000000" />
<text style="font-size:12;text-align:center;text-anchor:middle;" x="539.903" y="448.476" fill="#000000">22</text>
<text style="font-size:12;text-align:center;text-anchor:middle;" x="16.5079" y="246" transform="rotate(-90,16.5079,240)" fill="#000000">Encircled intensity</text>
<use x="573.968" y="430.476" xlink:href="#cross"  stroke="#000000" />
<use x="66.0317" y="430.476" xlink:href="#cross"  stroke="#000000" />
<text style="font-size:12;text-align:right;text-anchor:end;" x="60.0317" y="436.476" fill="#000000">0</text>
<use x="573.968" y="356.289" xlink:href="#cross"  stroke="#000000" />
<use x="66.0317" y="356.289" xlink:href="#cross"  stroke="#000000" />
<text style="font-size:12;text-align:right;text-anchor:end;" x="60.0317" y="362.289" fill="#000000">200</text>
<use x="573.968" y="282.101" xlink:href="#cross"  stroke="#000000" />
<use x="66.0317" y="282.101" xlink:href="#cross"  stroke="#000000" />
<text style="font-size:12;text-align:right;text-anchor:end;" x="60.0317" y="288.101" fill="#000000">400</text>
<use x="573.968" y="207.914" xlink:href="#cross"  stroke="#000000" />
<use x="66.0317" y="207.914" xlink:href="#cross"  stroke="#000000" />
<text style="font-size:12;text-align:right;text-anchor:end;" x="60.0317" y="213.914" fill="#000000">600</text>
<use x="573.968" y="133.727" xlink:href="#cross"  stroke="#000000" />
<use x="66.0317" y="133.727" xlink:href="#cross"  stroke="#000000" />
<text style="font-size:12;text-align:right;text-anchor:end;" x="60.0317" y="139.727" fill="#000000">800</text>
<use x="573.968" y="59.5391" xlink:href="#cross"  stroke="#000000" />
<use x="66.0317" y="59.5391" xlink:href="#cross"  stroke="#000000" />
<text style="font-size:12;text-align:right;text-anchor:end;" x="60.0317" y="65.5391" fill="#000000">1e+03</text>
<text style="font-size:18;text-align:center;text-anchor:middle;" x="320" y="33.7619" fill="#000000">Spot diagram encircled rays intensity</text>
<line x1="66.0317" y1="430.476" x2="76.1905" y2="430.105"  stroke="#00ebff" />
<line x1="76.1905" y1="430.105" x2="86.3492" y2="427.88"  stroke="#00ebff" />
<line x1="86.3492" y1="427.88" x2="96.5079" y2="423.428"  stroke="#00ebff" />
<line x1="96.5079" y1="423.428" x2="106.667" y2="423.428"  stroke="#00ebff" />
<line x1="106.667" y1="423.428" x2="116.825" y2="416.752"  stroke="#00ebff" />
<line x1="116.825" y1="416.752" x2="126.984" y2="416.752"  stroke="#00ebff" />
<line x1="126.984" y1="416.752" x2="137.143" y2="370.013"  stroke="#00ebff" />
<line x1="137.143" y1="370.013" x2="147.302" y2="370.013"  stroke="#00ebff" />
<line x1="147.302" y1="370.013" x2="157.46" y2="370.013"  stroke="#00ebff" />
<line x1="157.46" y1="370.013" x2="167.619" y2="358.885"  stroke="#00ebff" />
<line x1="167.619" y1="358.885" x2="177.778" y2="358.885"  stroke="#00ebff" />
<line x1="177.778" y1="358.885" x2="187.937" y2="358.885"  stroke="#00ebff" />
<line x1="187.937" y1="358.885" x2="198.095" y2="358.885"  stroke="#00ebff" />
<line x1="198.095" y1="358.885" x2="208.254" y2="345.532"  stroke="#00ebff" />
<line x1="208.254" y1="345.532" x2="218.413" y2="345.532"  stroke="#00ebff" />
<line x1="218.413" y1="345.532" x2="228.571" y2="345.532"  stroke="#00ebff" />
<line x1="228.571" y1="345.532" x2="238.73" y2="345.532"  stroke="#00ebff" />
<line x1="238.73" y1="345.532" x2="248.889" y2="345.532"  stroke="#00ebff" />
<line x1="248.889" y1="345.532" x2="259.048" y2="329.952"  stroke="#00ebff" />
<line x1="259.048" y1="329.952" x2="269.206" y2="329.952"  stroke="#00ebff" />
<line x1="269.206" y1="329.952" x2="279.365" y2="329.952"  stroke="#00ebff" />
<line x1="279.365" y1="329.952" x2="289.524" y2="329.952"  stroke="#00ebff" />
<line x1="289.524" y1="329.952" x2="299.683" y2="329.952"  stroke="#00ebff" />
<line x1="299.683" y1="329.952" x2="309.841" y2="312.147"  stroke="#00ebff" />
<line x1="309.841" y1="312.147" x2="320" y2="312.147"  stroke="#00ebff" />
<line x1="320" y1="312.147" x2="330.159" y2="312.147"  stroke="#00ebff" />
<line x1="330.159" y1="312.147" x2="340.317" y2="312.147"  stroke="#00ebff" />
<line x1="340.317" y1="312.147" x2="350.476" y2="312.147"  stroke="#00ebff" />
<line x1="350.476" y1="312.147" x2="360.635" y2="312.147"  stroke="#00ebff" />
<line x1="360.635" y1="312.147" x2="370.794" y2="216.445"  stroke="#00ebff" />
<line x1="370.794" y1="216.445" x2="380.952" y2="216.445"  stroke="#00ebff" />
<line x1="380.952" y1="216.445" x2="391.111" y2="216.445"  stroke="#00ebff" />
<line x1="391.111" y1="216.445" x2="401.27" y2="216.445"  stroke="#00ebff" />
<line x1="401.27" y1="216.445" x2="411.429" y2="216.445"  stroke="#00ebff" />
<line x1="411.429" y1="216.445" x2="421.587" y2="216.445"  stroke="#00ebff" />
<line x1="421.587" y1="216.445" x2="431.746" y2="194.189"  stroke="#00ebff" />
<line x1="431.746" y1="194.189" x2="441.905" y2="194.189"  stroke="#00ebff" />
<line x1="441.905" y1="194.189" x2="452.063" y2="194.189"  stroke="#00ebff" />
<line x1="452.063" y1="194.189" x2="462.222" y2="194.189"  stroke="#00ebff" />
<line x1="462.222" y1="194.189" x2="472.381" y2="194.189"  stroke="#00ebff" />
<line x1="472.381" y1="194.189" x2="482.54" y2="194.189"  stroke="#00ebff" />
<line x1="482.54" y1="194.189" x2="492.698" y2="169.707"  stroke="#00ebff" />
<line x1="492.698" y1="169.707" x2="502.857" y2="136.323"  stroke="#00ebff" />
<line x1="502.857" y1="136.323" x2="513.016" y2="136.323"  stroke="#00ebff" />
<line x1="513.016" y1="136.323" x2="523.175" y2="136.323"  stroke="#00ebff" />
<line x1="523.175" y1="136.323" x2="533.333" y2="136.323"  stroke="#00ebff" />
<line x1="533.333" y1="136.323" x2="543.492" y2="109.616"  stroke="#00ebff" />
<line x1="543.492" y1="109.616" x2="553.651" y2="109.616"  stroke="#00ebff" />
<line x1="553.651" y1="109.616" x2="563.81" y2="49.8947"  stroke="#00ebff" />
<line x1="563.81" y1="49.8947" x2="573.968" y2="49.5238"  stroke="#00ebff" />
<line x1="66.0317" y1="430.476" x2="76.1905" y2="418.977"  stroke="#ffe100" />
<line x1="76.1905" y1="418.977" x2="86.3492" y2="403.398"  stroke="#ffe100" />
<line x1="86.3492" y1="403.398" x2="96.5079" y2="383.367"  stroke="#ffe100" />
<line x1="96.5079" y1="383.367" x2="106.667" y2="383.367"  stroke="#ffe100" />
<line x1="106.667" y1="383.367" x2="116.825" y2="383.367"  stroke="#ffe100" />
<line x1="116.825" y1="383.367" x2="126.984" y2="367.788"  stroke="#ffe100" />
<line x1="126.984" y1="367.788" x2="137.143" y2="367.788"  stroke="#ffe100" />
<line x1="137.143" y1="367.788" x2="147.302" y2="367.788"  stroke="#ffe100" />
<line x1="147.302" y1="367.788" x2="157.46" y2="367.788"  stroke="#ffe100" />
<line x1="157.46" y1="367.788" x2="167.619" y2="367.788"  stroke="#ffe100" />
<line x1="167.619" y1="367.788" x2="177.778" y2="349.983"  stroke="#ffe100" />
<line x1="177.778" y1="349.983" x2="187.937" y2="312.147"  stroke="#ffe100" />
<line x1="187.937" y1="312.147" x2="198.095" y2="312.147"  stroke="#ffe100" />
<line x1="198.095" y1="312.147" x2="208.254" y2="312.147"  stroke="#ffe100" />
<line x1="208.254" y1="312.147" x2="218.413" y2="312.147"  stroke="#ffe100" />
<line x1="218.413" y1="312.147" x2="228.571" y2="292.117"  stroke="#ffe100" />
<line x1="228.571" y1="292.117" x2="238.73" y2="292.117"  stroke="#ffe100" />
<line x1="238.73" y1="292.117" x2="248.889" y2="292.117"  stroke="#ffe100" />
<line x1="248.889" y1="292.117" x2="259.048" y2="292.117"  stroke="#ffe100" />
<line x1="259.048" y1="292.117" x2="269.206" y2="292.117"  stroke="#ffe100" />
<line x1="269.206" y1="292.117" x2="279.365" y2="292.117"  stroke="#ffe100" />
<line x1="279.365" y1="292.117" x2="289.524" y2="269.86"  stroke="#ffe100" />
<line x1="289.524" y1="269.86" x2="299.683" y2="269.86"  stroke="#ffe100" />
<line x1="299.683" y1="269.86" x2="309.841" y2="269.86"  stroke="#ffe100" />
<line x1="309.841" y1="269.86" x2="320" y2="269.86"  stroke="#ffe100" />
<line x1="320" y1="269.86" x2="330.159" y2="269.86"  stroke="#ffe100" />
<line x1="330.159" y1="269.86" x2="340.317" y2="269.86"  stroke="#ffe100" />
<line x1="340.317" y1="269.86" x2="350.476" y2="245.379"  stroke="#ffe100" />
<line x1="350.476" y1="245.379" x2="360.635" y2="245.379"  stroke="#ffe100" />
<line x1="360.635" y1="245.379" x2="370.794" y2="209.769"  stroke="#ffe100" />
<line x1="370.794" y1="209.769" x2="380.952" y2="209.769"  stroke="#ffe100" />
<line x1="380.952" y1="209.769" x2="391.111" y2="209.769"  stroke="#ffe100" />
<line x1="391.111" y1="209.769" x2="401.27" y2="209.769"  stroke="#ffe100" />
<line x1="401.27" y1="209.769" x2="411.429" y2="183.061"  stroke="#ffe100" />
<line x1="411.429" y1="183.061" x2="421.587" y2="183.061"  stroke="#ffe100" />
<line x1="421.587" y1="183.061" x2="431.746" y2="183.061"  stroke="#ffe100" />
<line x1="431.746" y1="183.061" x2="441.905" y2="183.061"  stroke="#ffe100" />
<line x1="441.905" y1="183.061" x2="452.063" y2="149.677"  stroke="#ffe100" />
<line x1="452.063" y1="149.677" x2="462.222" y2="120.744"  stroke="#ffe100" />
<line x1="462.222" y1="120.744" x2="472.381" y2="120.744"  stroke="#ffe100" />
<line x1="472.381" y1="120.744" x2="482.54" y2="89.585"  stroke="#ffe100" />
<line x1="482.54" y1="89.585" x2="492.698" y2="89.585"  stroke="#ffe100" />
<line x1="492.698" y1="89.585" x2="502.857" y2="89.585"  stroke="#ffe100" />
<line x1="502.857" y1="89.585" x2="513.016" y2="89.585"  stroke="#ffe100" />
<line x1="513.016" y1="89.585" x2="523.175" y2="89.585"  stroke="#ffe100" />
<line x1="523.175" y1="89.585" x2="533.333" y2="89.585"  stroke="#ffe100" />
<line x1="533.333" y1="89.585" x2="543.492" y2="89.585"  stroke="#ffe100" />
<line x1="543.492" y1="89.585" x2="553.651" y2="89.585"  stroke="#ffe100" />
<line x1="553.651" y1="89.585" x2="563.81" y2="89.585"  stroke="#ffe100" />
<line x1="563.81" y1="89.585" x2="573.968" y2="89.585"  stroke="#ffe100" />
<line x1="66.0317" y1="430.476" x2="76.1905" y2="430.105"  stroke="#ff0000" />
<line x1="76.1905" y1="430.105" x2="86.3492" y2="410.075"  stroke="#ff0000" />
<line x1="86.3492" y1="410.075" x2="96.5079" y2="390.044"  stroke="#ff0000" />
<line x1="96.5079" y1="390.044" x2="106.667" y2="352.208"  stroke="#ff0000" />
<line x1="106.667" y1="352.208" x2="116.825" y2="352.208"  stroke="#ff0000" />
<line x1="116.825" y1="352.208" x2="126.984" y2="332.178"  stroke="#ff0000" />
<line x1="126.984" y1="332.178" x2="137.143" y2="332.178"  stroke="#ff0000" />
<line x1="137.143" y1="332.178" x2="147.302" y2="289.891"  stroke="#ff0000" />
<line x1="147.302" y1="289.891" x2="157.46" y2="269.86"  stroke="#ff0000" />
<line x1="157.46" y1="269.86" x2="167.619" y2="269.86"  stroke="#ff0000" />
<line x1="167.619" y1="269.86" x2="177.778" y2="269.86"  stroke="#ff0000" />
<line x1="177.778" y1="269.86" x2="187.937" y2="269.86"  stroke="#ff0000" />
<line x1="187.937" y1="269.86" x2="198.095" y2="209.769"  stroke="#ff0000" />
<line x1="198.095" y1="209.769" x2="208.254" y2="209.769"  stroke="#ff0000" />
<line x1="208.254" y1="209.769" x2="218.413" y2="209.769"  stroke="#ff0000" />
<line x1="218.413" y1="209.769" x2="228.571" y2="209.769"  stroke="#ff0000" />
<line x1="228.571" y1="209.769" x2="238.73" y2="209.769"  stroke="#ff0000" />
<line x1="238.73" y1="209.769" x2="248.889" y2="183.061"  stroke="#ff0000" />
<line x1="248.889" y1="183.061" x2="259.048" y2="183.061"  stroke="#ff0000" />
<line x1="259.048" y1="183.061" x2="269.206" y2="183.061"  stroke="#ff0000" />
<line x1="269.206" y1="183.061" x2="279.365" y2="183.061"  stroke="#ff0000" />
<line x1="279.365" y1="183.061" x2="289.524" y2="120.744"  stroke="#ff0000" />
<line x1="289.524" y1="120.744" x2="299.683" y2="120.744"  stroke="#ff0000" />
<line x1="299.683" y1="120.744" x2="309.841" y2="89.585"  stroke="#ff0000" />
<line x1="309.841" y1="89.585" x2="320" y2="89.585"  stroke="#ff0000" />
<line x1="320" y1="89.585" x2="330.159" y2="89.585"  stroke="#ff0000" />
<line x1="330.159" y1="89.585" x2="340.317" y2="89.585"  stroke="#ff0000" />
<line x1="340.317" y1="89.585" x2="350.476" y2="89.585"  stroke="#ff0000" />
<line x1="350.476" y1="89.585" x2="360.635" y2="89.585"  stroke="#ff0000" />
<line x1="360.635" y1="89.585" x2="370.794" y2="89.585"  stroke="#ff0000" />
<line x1="370.794" y1="89.585" x2="380.952" y2="89.585"  stroke="#ff0000" />
<line x1="380.952" y1="89.585" x2="391.111" y2="89.585"  stroke="#ff0000" />
<line x1="391.111" y1="89.585" x2="401.27" y2="89.585"  stroke="#ff0000" />
<line x1="401.27" y1="89.585" x2="411.429" y2="89.585"  stroke="#ff0000" />
<line x1="411.429" y1="89.585" x2="421.587" y2="89.585"  stroke="#ff0000" />
<line x1="421.587" y1="89.585" x2="431.746" y2="89.585"  stroke="#ff0000" />
<line x1="431.746" y1="89.585" x2="441.905" y2="89.585"  stroke="#ff0000" />
<line x1="441.905" y1="89.585" x2="452.063" y2="89.585"  stroke="#ff0000" />
<line x1="452.063" y1="89.585" x2="462.222" y2="89.585"  stroke="#ff0000" />
<line x1="462.222" y1="89.585" x2="472.381" y2="89.585"  stroke="#ff0000" />
<line x1="472.381" y1="89.585" x2="482.54" y2="89.585"  stroke="#ff0000" />
<line x1="482.54" y1="89.585" x2="492.698" y2="89.585"  stroke="#ff0000" />
<line x1="492.698" y1="89.585" x2="502.857" y2="89.585"  stroke="#ff0000" />
<line x1="502.857" y1="89.585" x2="513.016" y2="89.585"  stroke="#ff0000" />
<line x1="513.016" y1="89.585" x2="523.175" y2="89.585"  stroke="#ff0000" />
<line x1="523.175" y1="89.585" x2="533.333" y2="89.585"  stroke="#ff0000" />
<line x1="533.333" y1="89.585" x2="543.492" y2="89.585"  stroke="#ff0000" />
<line x1="543.492" y1="89.585" x2="553.651" y2="89.585"  stroke="#ff0000" />
<line x1="553.651" y1="89.585" x2="563.81" y2="89.585"  stroke="#ff0000" />
<line x1="563.81" y1="89.585" x2="573.968" y2="89.585"  stroke="#ff0000" />
</svg>
