<?xml version="1.0" standalone="no"?>
<svg width="640px" height="480px" version="1.1" xmlns="http://www.w3.org/2000/svg" xmlns:xlink="http://www.w3.org/1999/xlink">
<rect x="0" y="0" width="640" height="480"  fill="#ffffff" />
<defs>
<g id="dot">
<line x1="1" y1="1" x2="0" y2="0"  />
</g>
<g id="cross">
<line x1="-3" y1="0" x2="3" y2="0"  />
<line x1="0" y1="-3" x2="0" y2="3"  />
</g>
<g id="square">
<line x1="-3" y1="-3" x2="-3" y2="3"  />
<line x1="-3" y1="3" x2="3" y2="3"  />
<line x1="3" y1="3" x2="3" y2="-3"  />
<line x1="3" y1="-3" x2="-3" y2="-3"  />
</g>
<g id="round">
<ellipse cx="0" cy="0" rx="3" ry="3"  fill="none" /></g>
<g id="triangle">
<line x1="0" y1="-3" x2="-3" y2="3"  />
<line x1="-3" y1="3" x2="3" y2="3"  />
<line x1="0" y1="-3" x2="3" y2="3"  />
</g>
</defs>
<polygon fill="none" stroke="#000000" points="66.0317,430.476 66.0317,49.5238 573.968,49.5238 573.968,430.476 " />
<text style="font-size:12;text-align:center;text-anchor:middle;" x="320" y="473.619" fill="#000000">Distance from spot centroid (um)</text>
<use x="66.0317" y="49.5238" xlink:href="#cross"  stroke="#000000" />
<use x="66.0317" y="430.476" xlink:href="#cross"  stroke="#000000" />
<text style="font-size:12;text-align:center;text-anchor:middle;" x="66.0317" y="448.476" fill="#000000">0</text>
<use x="134.88" y="49.5238" xlink:href="#cross"  stroke="#000000" />
<use x="134.88" y="430.476" xlink:href="#cross"  stroke="#000000" />
<text style="font-size:12;text-align:center;text-anchor:middle;" x="134.88" y="448.476" fill="#000000">20</text>
<use x="203.728" y="49.5238" xlink:href="#cross"  stroke="#000000" />
<use x="203.728" y="430.476" xlink:href="#cross"  stroke="#000000" />
<text style="font-size:12;text-align:center;text-anchor:middle;" x="203.728" y="448.476" fill="#000000">40</text>
<use x="272.575" y="49.5238" xlink:href="#cross"  stroke="#000000" />
<use x="272.575" y="430.476" xlink:href="#cross"  stroke="#000000" />
<text style="font-size:12;text-align:center;text-anchor:middle;" x="272.575" y="448.476" fill="#000000">60</text>
<use x="341.423" y="49.5238" xlink:href="#cross"  stroke="#000000" />
<use x="341.423" y="430.476" xlink:href="#cross"  stroke="#000000" />
<text style="font-size:12;text-align:center;text-anchor:middle;" x="341.423" y="448.476" fill="#000000">80</text>
<use x="410.271" y="49.5238" xlink:href="#cross"  stroke="#000000" />
<use x="410.271" y="430.476" xlink:href="#cross"  stroke="#000000" />
<text style="font-size:12;text-align:center;text-anchor:middle;" x="410.271" y="448.476" fill="#000000">100</text>
<use x="479.119" y="49.5238" xlink:href="#cross"  stroke="#000000" />
<use x="479.119" y="430.476" xlink:href="#cross"  stroke="#000000" />
<text style="font-size:12;text-align:center;text-anchor:middle;" x="479.119" y="448.476" fill="#000000">120</text>
<use x="547.967" y="49.5238" xlink:href="#cross"  stroke="#000000" />
<use x="547.967" y="430.476" xlink:href="#cross"  stroke="#000000" />
<text style="font-size:12;text-align:center;text-anchor:middle;" x="547.967" y="448.476" fill="#000000">140</text>
<text style="font-size:12;text-align:center;text-anchor:middle;" x="16.5079" y="246" transform="rotate(-90,16.5079,240)" fill="#000000">Encircled intensity</text>
<use x="573.968" y="430.476" xlink:href="#cross"  stroke="#000000" />
<use x="66.0317" y="430.476" xlink:href="#cross"  stroke="#000000" />
<text style="font-size:12;text-align:right;text-anchor:end;" x="60.0317" y="436.476" fill="#000000">0</text>
<use x="573.968" y="364.339" xlink:href="#cross"  stroke="#000000" />
<use x="66.0317" y="364.339" xlink:href="#cross"  stroke="#000000" />
<text style="font-size:12;text-align:right;text-anchor:end;" x="60.0317" y="370.339" fill="#000000">50</text>
<use x="573.968" y="298.201" xlink:href="#cross"  stroke="#000000" />
<use x="66.0317" y="298.201" xlink:href="#cross"  stroke="#000000" />
<text style="font-size:12;text-align:right;text-anchor:end;" x="60.0317" y="304.201" fill="#000000">100</text>
<use x="573.968" y="232.063" xlink:href="#cross"  stroke="#000000" />
<use x="66.0317" y="232.063" xlink:href="#cross"  stroke="#000000" />
<text style="font-size:12;text-align:right;text-anchor:end;" x="60.0317" y="238.063" fill="#000000">150</text>
<use x="573.968" y="165.926" xlink:href="#cross"  stroke="#000000" />
<use x="66.0317" y="165.926" xlink:href="#cross"  stroke="#000000" />
<text style="font-size:12;text-align:right;text-anchor:end;" x="60.0317" y="171.926" fill="#000000">200</text>
<use x="573.968" y="99.7884" xlink:href="#cross"  stroke="#000000" />
<use x="66.0317" y="99.7884" xlink:href="#cross"  stroke="#000000" />
<text style="font-size:12;text-align:right;text-anchor:end;" x="60.0317" y="105.788" fill="#000000">250</text>
<text style="font-size:18;text-align:center;text-anchor:middle;" x="320" y="33.7619" fill="#000000">Spot diagram encircled rays intensity</text>
<line x1="66.0317" y1="430.476" x2="76.1905" y2="423.862"  stroke="#00ebff" />
<line x1="76.1905" y1="423.862" x2="86.3492" y2="393.439"  stroke="#00ebff" />
<line x1="86.3492" y1="393.439" x2="96.5079" y2="357.725"  stroke="#00ebff" />
<line x1="96.5079" y1="357.725" x2="106.667" y2="322.011"  stroke="#00ebff" />
<line x1="106.667" y1="322.011" x2="116.825" y2="296.878"  stroke="#00ebff" />
<line x1="116.825" y1="296.878" x2="126.984" y2="247.937"  stroke="#00ebff" />
<line x1="126.984" y1="247.937" x2="137.143" y2="212.222"  stroke="#00ebff" />
<line x1="137.143" y1="212.222" x2="147.302" y2="168.571"  stroke="#00ebff" />
<line x1="147.302" y1="168.571" x2="157.46" y2="138.148"  stroke="#00ebff" />
<line x1="157.46" y1="138.148" x2="167.619" y2="120.952"  stroke="#00ebff" />
<line x1="167.619" y1="120.952" x2="177.778" y2="115.661"  stroke="#00ebff" />
<line x1="177.778" y1="115.661" x2="187.937" y2="113.016"  stroke="#00ebff" />
<line x1="187.937" y1="113.016" x2="198.095" y2="102.434"  stroke="#00ebff" />
<line x1="198.095" y1="102.434" x2="208.254" y2="99.7884"  stroke="#00ebff" />
<line x1="208.254" y1="99.7884" x2="218.413" y2="99.7884"  stroke="#00ebff" />
<line x1="218.413" y1="99.7884" x2="228.571" y2="94.4974"  stroke="#00ebff" />
<line x1="228.571" y1="94.4974" x2="238.73" y2="91.8519"  stroke="#00ebff" />
<line x1="238.73" y1="91.8519" x2="248.889" y2="89.2063"  stroke="#00ebff" />
<line x1="248.889" y1="89.2063" x2="259.048" y2="86.5608"  stroke="#00ebff" />
<line x1="259.048" y1="86.5608" x2="269.206" y2="81.2698"  stroke="#00ebff" />
<line x1="269.206" y1="81.2698" x2="279.365" y2="78.6243"  stroke="#00ebff" />
<line x1="279.365" y1="78.6243" x2="289.524" y2="78.6243"  stroke="#00ebff" />
<line x1="289.524" y1="78.6243" x2="299.683" y2="78.6243"  stroke="#00ebff" />
<line x1="299.683" y1="78.6243" x2="309.841" y2="73.3333"  stroke="#00ebff" />
<line x1="309.841" y1="73.3333" x2="320" y2="70.6878"  stroke="#00ebff" />
<line x1="320" y1="70.6878" x2="330.159" y2="70.6878"  stroke="#00ebff" />
<line x1="330.159" y1="70.6878" x2="340.317" y2="68.0423"  stroke="#00ebff" />
<line x1="340.317" y1="68.0423" x2="350.476" y2="68.0423"  stroke="#00ebff" />
<line x1="350.476" y1="68.0423" x2="360.635" y2="65.3968"  stroke="#00ebff" />
<line x1="360.635" y1="65.3968" x2="370.794" y2="62.7513"  stroke="#00ebff" />
<line x1="370.794" y1="62.7513" x2="380.952" y2="62.7513"  stroke="#00ebff" />
<line x1="380.952" y1="62.7513" x2="391.111" y2="62.7513"  stroke="#00ebff" />
<line x1="391.111" y1="62.7513" x2="401.27" y2="62.7513"  stroke="#00ebff" />
<line x1="401.27" y1="62.7513" x2="411.429" y2="62.7513"  stroke="#00ebff" />
<line x1="411.429" y1="62.7513" x2="421.587" y2="60.1058"  stroke="#00ebff" />
<line x1="421.587" y1="60.1058" x2="431.746" y2="60.1058"  stroke="#00ebff" />
<line x1="431.746" y1="60.1058" x2="441.905" y2="57.4603"  stroke="#00ebff" />
<line x1="441.905" y1="57.4603" x2="452.063" y2="57.4603"  stroke="#00ebff" />
<line x1="452.063" y1="57.4603" x2="462.222" y2="57.4603"  stroke="#00ebff" />
<line x1="462.222" y1="57.4603" x2="472.381" y2="57.4603"  stroke="#00ebff" />
<line x1="472.381" y1="57.4603" x2="482.54" y2="57.4603"  stroke="#00ebff" />
<line x1="482.54" y1="57.4603" x2="492.698" y2="54.8148"  stroke="#00ebff" />
<line x1="492.698" y1="54.8148" x2="502.857" y2="54.8148"  stroke="#00ebff" />
<line x1="502.857" y1="54.8148" x2="513.016" y2="54.8148"  stroke="#00ebff" />
<line x1="513.016" y1="54.8148" x2="523.175" y2="54.8148"  stroke="#00ebff" />
<line x1="523.175" y1="54.8148" x2="533.333" y2="54.8148"  stroke="#00ebff" />
<line x1="533.333" y1="54.8148" x2="543.492" y2="54.8148"  stroke="#00ebff" />
<line x1="543.492" y1="54.8148" x2="553.651" y2="54.8148"  stroke="#00ebff" />
<line x1="553.651" y1="54.8148" x2="563.81" y2="53.4921"  stroke="#00ebff" />
<line x1="563.81" y1="53.4921" x2="573.968" y2="52.1693"  stroke="#00ebff" />
<line x1="66.0317" y1="430.476" x2="76.1905" y2="415.926"  stroke="#ffe100" />
<line x1="76.1905" y1="415.926" x2="86.3492" y2="380.212"  stroke="#ffe100" />
<line x1="86.3492" y1="380.212" x2="96.5079" y2="341.852"  stroke="#ffe100" />
<line x1="96.5079" y1="341.852" x2="106.667" y2="288.942"  stroke="#ffe100" />
<line x1="106.667" y1="288.942" x2="116.825" y2="229.418"  stroke="#ffe100" />
<line x1="116.825" y1="229.418" x2="126.984" y2="171.217"  stroke="#ffe100" />
<line x1="126.984" y1="171.217" x2="137.143" y2="144.762"  stroke="#ffe100" />
<line x1="137.143" y1="144.762" x2="147.302" y2="134.18"  stroke="#ffe100" />
<line x1="147.302" y1="134.18" x2="157.46" y2="128.889"  stroke="#ffe100" />
<line x1="157.46" y1="128.889" x2="167.619" y2="118.307"  stroke="#ffe100" />
<line x1="167.619" y1="118.307" x2="177.778" y2="115.661"  stroke="#ffe100" />
<line x1="177.778" y1="115.661" x2="187.937" y2="115.661"  stroke="#ffe100" />
<line x1="187.937" y1="115.661" x2="198.095" y2="102.434"  stroke="#ffe100" />
<line x1="198.095" y1="102.434" x2="208.254" y2="99.7884"  stroke="#ffe100" />
<line x1="208.254" y1="99.7884" x2="218.413" y2="99.7884"  stroke="#ffe100" />
<line x1="218.413" y1="99.7884" x2="228.571" y2="94.4974"  stroke="#ffe100" />
<line x1="228.571" y1="94.4974" x2="238.73" y2="91.8519"  stroke="#ffe100" />
<line x1="238.73" y1="91.8519" x2="248.889" y2="89.2063"  stroke="#ffe100" />
<line x1="248.889" y1="89.2063" x2="259.048" y2="86.5608"  stroke="#ffe100" />
<line x1="259.048" y1="86.5608" x2="269.206" y2="81.2698"  stroke="#ffe100" />
<line x1="269.206" y1="81.2698" x2="279.365" y2="78.6243"  stroke="#ffe100" />
<line x1="279.365" y1="78.6243" x2="289.524" y2="78.6243"  stroke="#ffe100" />
<line x1="289.524" y1="78.6243" x2="299.683" y2="78.6243"  stroke="#ffe100" />
<line x1="299.683" y1="78.6243" x2="309.841" y2="70.6878"  stroke="#ffe100" />
<line x1="309.841" y1="70.6878" x2="320" y2="70.6878"  stroke="#ffe100" />
<line x1="320" y1="70.6878" x2="330.159" y2="68.0423"  stroke="#ffe100" />
<line x1="330.159" y1="68.0423" x2="340.317" y2="68.0423"  stroke="#ffe100" />
<line x1="340.317" y1="68.0423" x2="350.476" y2="65.3968"  stroke="#ffe100" />
<line x1="350.476" y1="65.3968" x2="360.635" y2="62.7513"  stroke="#ffe100" />
<line x1="360.635" y1="62.7513" x2="370.794" y2="62.7513"  stroke="#ffe100" />
<line x1="370.794" y1="62.7513" x2="380.952" y2="62.7513"  stroke="#ffe100" />
<line x1="380.952" y1="62.7513" x2="391.111" y2="62.7513"  stroke="#ffe100" />
<line x1="391.111" y1="62.7513" x2="401.27" y2="62.7513"  stroke="#ffe100" />
<line x1="401.27" y1="62.7513" x2="411.429" y2="60.1058"  stroke="#ffe100" />
<line x1="411.429" y1="60.1058" x2="421.587" y2="60.1058"  stroke="#ffe100" />
<line x1="421.587" y1="60.1058" x2="431.746" y2="57.4603"  stroke="#ffe100" />
<line x1="431.746" y1="57.4603" x2="441.905" y2="57.4603"  stroke="#ffe100" />
<line x1="441.905" y1="57.4603" x2="452.063" y2="57.4603"  stroke="#ffe100" />
<line x1="452.063" y1="57.4603" x2="462.222" y2="57.4603"  stroke="#ffe100" />
<line x1="462.222" y1="57.4603" x2="472.381" y2="54.8148"  stroke="#ffe100" />
<line x1="472.381" y1="54.8148" x2="482.54" y2="54.8148"  stroke="#ffe100" />
<line x1="482.54" y1="54.8148" x2="492.698" y2="54.8148"  stroke="#ffe100" />
<line x1="492.698" y1="54.8148" x2="502.857" y2="54.8148"  stroke="#ffe100" />
<line x1="502.857" y1="54.8148" x2="513.016" y2="54.8148"  stroke="#ffe100" />
<line x1="513.016" y1="54.8148" x2="523.175" y2="54.8148"  stroke="#ffe100" />
<line x1="523.175" y1="54.8148" x2="533.333" y2="54.8148"  stroke="#ffe100" />
<line x1="533.333" y1="54.8148" x2="543.492" y2="54.8148"  stroke="#ffe100" />
<line x1="543.492" y1="54.8148" x2="553.651" y2="52.1693"  stroke="#ffe100" />
<line x1="553.651" y1="52.1693" x2="563.81" y2="52.1693"  stroke="#ffe100" />
<line x1="563.81" y1="52.1693" x2="573.968" y2="52.1693"  stroke="#ffe100" />
<line x1="66.0317" y1="430.476" x2="76.1905" y2="406.667"  stroke="#ff0000" />
<line x1="76.1905" y1="406.667" x2="86.3492" y2="365.661"  stroke="#ff0000" />
<line x1="86.3492" y1="365.661" x2="96.5079" y2="314.074"  stroke="#ff0000" />
<line x1="96.5079" y1="314.074" x2="106.667" y2="257.196"  stroke="#ff0000" />
<line x1="106.667" y1="257.196" x2="116.825" y2="192.381"  stroke="#ff0000" />
<line x1="116.825" y1="192.381" x2="126.984" y2="163.28"  stroke="#ff0000" />
<line x1="126.984" y1="163.28" x2="137.143" y2="155.344"  stroke="#ff0000" />
<line x1="137.143" y1="155.344" x2="147.302" y2="142.116"  stroke="#ff0000" />
<line x1="147.302" y1="142.116" x2="157.46" y2="134.18"  stroke="#ff0000" />
<line x1="157.46" y1="134.18" x2="167.619" y2="131.534"  stroke="#ff0000" />
<line x1="167.619" y1="131.534" x2="177.778" y2="118.307"  stroke="#ff0000" />
<line x1="177.778" y1="118.307" x2="187.937" y2="113.016"  stroke="#ff0000" />
<line x1="187.937" y1="113.016" x2="198.095" y2="113.016"  stroke="#ff0000" />
<line x1="198.095" y1="113.016" x2="208.254" y2="105.079"  stroke="#ff0000" />
<line x1="208.254" y1="105.079" x2="218.413" y2="99.7884"  stroke="#ff0000" />
<line x1="218.413" y1="99.7884" x2="228.571" y2="97.1429"  stroke="#ff0000" />
<line x1="228.571" y1="97.1429" x2="238.73" y2="91.8519"  stroke="#ff0000" />
<line x1="238.73" y1="91.8519" x2="248.889" y2="89.2063"  stroke="#ff0000" />
<line x1="248.889" y1="89.2063" x2="259.048" y2="89.2063"  stroke="#ff0000" />
<line x1="259.048" y1="89.2063" x2="269.206" y2="83.9153"  stroke="#ff0000" />
<line x1="269.206" y1="83.9153" x2="279.365" y2="78.6243"  stroke="#ff0000" />
<line x1="279.365" y1="78.6243" x2="289.524" y2="75.9788"  stroke="#ff0000" />
<line x1="289.524" y1="75.9788" x2="299.683" y2="75.9788"  stroke="#ff0000" />
<line x1="299.683" y1="75.9788" x2="309.841" y2="75.9788"  stroke="#ff0000" />
<line x1="309.841" y1="75.9788" x2="320" y2="70.6878"  stroke="#ff0000" />
<line x1="320" y1="70.6878" x2="330.159" y2="68.0423"  stroke="#ff0000" />
<line x1="330.159" y1="68.0423" x2="340.317" y2="68.0423"  stroke="#ff0000" />
<line x1="340.317" y1="68.0423" x2="350.476" y2="65.3968"  stroke="#ff0000" />
<line x1="350.476" y1="65.3968" x2="360.635" y2="65.3968"  stroke="#ff0000" />
<line x1="360.635" y1="65.3968" x2="370.794" y2="62.7513"  stroke="#ff0000" />
<line x1="370.794" y1="62.7513" x2="380.952" y2="60.1058"  stroke="#ff0000" />
<line x1="380.952" y1="60.1058" x2="391.111" y2="60.1058"  stroke="#ff0000" />
<line x1="391.111" y1="60.1058" x2="401.27" y2="60.1058"  stroke="#ff0000" />
<line x1="401.27" y1="60.1058" x2="411.429" y2="60.1058"  stroke="#ff0000" />
<line x1="411.429" y1="60.1058" x2="421.587" y2="57.4603"  stroke="#ff0000" />
<line x1="421.587" y1="57.4603" x2="431.746" y2="57.4603"  stroke="#ff0000" />
<line x1="431.746" y1="57.4603" x2="441.905" y2="54.8148"  stroke="#ff0000" />
<line x1="441.905" y1="54.8148" x2="452.063" y2="54.8148"  stroke="#ff0000" />
<line x1="452.063" y1="54.8148" x2="462.222" y2="54.8148"  stroke="#ff0000" />
<line x1="462.222" y1="54.8148" x2="472.381" y2="54.8148"  stroke="#ff0000" />
<line x1="472.381" y1="54.8148" x2="482.54" y2="54.8148"  stroke="#ff0000" />
<line x1="482.54" y1="54.8148" x2="492.698" y2="52.1693"  stroke="#ff0000" />
<line x1="492.698" y1="52.1693" x2="502.857" y2="52.1693"  stroke="#ff0000" />
<line x1="502.857" y1="52.1693" x2="513.016" y2="52.1693"  stroke="#ff0000" />
<line x1="513.016" y1="52.1693" x2="523.175" y2="52.1693"  stroke="#ff0000" />
<line x1="523.175" y1="52.1693" x2="533.333" y2="52.1693"  stroke="#ff0000" />
<line x1="533.333" y1="52.1693" x2="543.492" y2="52.1693"  stroke="#ff0000" />
<line x1="543.492" y1="52.1693" x2="553.651" y2="52.1693"  stroke="#ff0000" />
<line x1="553.651" y1="52.1693" x2="563.81" y2="49.5238"  stroke="#ff0000" />
<line x1="563.81" y1="49.5238" x2="573.968" y2="49.5238"  stroke="#ff0000" />
</svg>
