<?xml version="1.0" standalone="no"?>
<svg width="640px" height="480px" version="1.1" xmlns="http://www.w3.org/2000/svg" xmlns:xlink="http://www.w3.org/1999/xlink">
<rect x="0" y="0" width="640" height="480"  fill="#ffffff" />
<defs>
<g id="dot">
<line x1="1" y1="1" x2="0" y2="0"  />
</g>
<g id="cross">
<line x1="-3" y1="0" x2="3" y2="0"  />
<line x1="0" y1="-3" x2="0" y2="3"  />
</g>
<g id="square">
<line x1="-3" y1="-3" x2="-3" y2="3"  />
<line x1="-3" y1="3" x2="3" y2="3"  />
<line x1="3" y1="3" x2="3" y2="-3"  />
<line x1="3" y1="-3" x2="-3" y2="-3"  />
</g>
<g id="round">
<ellipse cx="0" cy="0" rx="3" ry="3"  fill="none" /></g>
<g id="triangle">
<line x1="0" y1="-3" x2="-3" y2="3"  />
<line x1="-3" y1="3" x2="3" y2="3"  />
<line x1="0" y1="-3" x2="3" y2="3"  />
</g>
</defs>
<polygon fill="none" stroke="#000000" points="66.0317,430.476 66.0317,49.5238 573.968,49.5238 573.968,430.476 " />
<text style="font-size:12;text-align:center;text-anchor:middle;" x="320" y="473.619" fill="#000000">Distance from spot centroid (um)</text>
<use x="66.0317" y="49.5238" xlink:href="#cross"  stroke="#000000" />
<use x="66.0317" y="430.476" xlink:href="#cross"  stroke="#000000" />
<text style="font-size:12;text-align:center;text-anchor:middle;" x="66.0317" y="448.476" fill="#000000">0</text>
<use x="131.754" y="49.5238" xlink:href="#cross"  stroke="#000000" />
<use x="131.754" y="430.476" xlink:href="#cross"  stroke="#000000" />
<text style="font-size:12;text-align:center;text-anchor:middle;" x="131.754" y="448.476" fill="#000000">5</text>
<use x="197.477" y="49.5238" xlink:href="#cross"  stroke="#000000" />
<use x="197.477" y="430.476" xlink:href="#cross"  stroke="#000000" />
<text style="font-size:12;text-align:center;text-anchor:middle;" x="197.477" y="448.476" fill="#000000">10</text>
<use x="263.199" y="49.5238" xlink:href="#cross"  stroke="#000000" />
<use x="263.199" y="430.476" xlink:href="#cross"  stroke="#000000" />
<text style="font-size:12;text-align:center;text-anchor:middle;" x="263.199" y="448.476" fill="#000000">15</text>
<use x="328.922" y="49.5238" xlink:href="#cross"  stroke="#000000" />
<use x="328.922" y="430.476" xlink:href="#cross"  stroke="#000000" />
<text style="font-size:12;text-align:center;text-anchor:middle;" x="328.922" y="448.476" fill="#000000">20</text>
<use x="394.644" y="49.5238" xlink:href="#cross"  stroke="#000000" />
<use x="394.644" y="430.476" xlink:href="#cross"  stroke="#000000" />
<text style="font-size:12;text-align:center;text-anchor:middle;" x="394.644" y="448.476" fill="#000000">25</text>
<use x="460.367" y="49.5238" xlink:href="#cross"  stroke="#000000" />
<use x="460.367" y="430.476" xlink:href="#cross"  stroke="#000000" />
<text style="font-size:12;text-align:center;text-anchor:middle;" x="460.367" y="448.476" fill="#000000">30</text>
<use x="526.089" y="49.5238" xlink:href="#cross"  stroke="#000000" />
<use x="526.089" y="430.476" xlink:href="#cross"  stroke="#000000" />
<text style="font-size:12;text-align:center;text-anchor:middle;" x="526.089" y="448.476" fill="#000000">35</text>
<text style="font-size:12;text-align:center;text-anchor:middle;" x="16.5079" y="246" transform="rotate(-90,16.5079,240)" fill="#000000">Encircled intensity</text>
<use x="573.968" y="430.476" xlink:href="#cross"  stroke="#000000" />
<use x="66.0317" y="430.476" xlink:href="#cross"  stroke="#000000" />
<text style="font-size:12;text-align:right;text-anchor:end;" x="60.0317" y="436.476" fill="#000000">0</text>
<use x="573.968" y="386.689" xlink:href="#cross"  stroke="#000000" />
<use x="66.0317" y="386.689" xlink:href="#cross"  stroke="#000000" />
<text style="font-size:12;text-align:right;text-anchor:end;" x="60.0317" y="392.689" fill="#000000">100</text>
<use x="573.968" y="342.901" xlink:href="#cross"  stroke="#000000" />
<use x="66.0317" y="342.901" xlink:href="#cross"  stroke="#000000" />
<text style="font-size:12;text-align:right;text-anchor:end;" x="60.0317" y="348.901" fill="#000000">200</text>
<use x="573.968" y="299.113" xlink:href="#cross"  stroke="#000000" />
<use x="66.0317" y="299.113" xlink:href="#cross"  stroke="#000000" />
<text style="font-size:12;text-align:right;text-anchor:end;" x="60.0317" y="305.113" fill="#000000">300</text>
<use x="573.968" y="255.326" xlink:href="#cross"  stroke="#000000" />
<use x="66.0317" y="255.326" xlink:href="#cross"  stroke="#000000" />
<text style="font-size:12;text-align:right;text-anchor:end;" x="60.0317" y="261.326" fill="#000000">400</text>
<use x="573.968" y="211.538" xlink:href="#cross"  stroke="#000000" />
<use x="66.0317" y="211.538" xlink:href="#cross"  stroke="#000000" />
<text style="font-size:12;text-align:right;text-anchor:end;" x="60.0317" y="217.538" fill="#000000">500</text>
<use x="573.968" y="167.75" xlink:href="#cross"  stroke="#000000" />
<use x="66.0317" y="167.75" xlink:href="#cross"  stroke="#000000" />
<text style="font-size:12;text-align:right;text-anchor:end;" x="60.0317" y="173.75" fill="#000000">600</text>
<use x="573.968" y="123.963" xlink:href="#cross"  stroke="#000000" />
<use x="66.0317" y="123.963" xlink:href="#cross"  stroke="#000000" />
<text style="font-size:12;text-align:right;text-anchor:end;" x="60.0317" y="129.963" fill="#000000">700</text>
<use x="573.968" y="80.1752" xlink:href="#cross"  stroke="#000000" />
<use x="66.0317" y="80.1752" xlink:href="#cross"  stroke="#000000" />
<text style="font-size:12;text-align:right;text-anchor:end;" x="60.0317" y="86.1752" fill="#000000">800</text>
<text style="font-size:18;text-align:center;text-anchor:middle;" x="320" y="33.7619" fill="#000000">Spot diagram encircled rays intensity</text>
<line x1="66.0317" y1="430.476" x2="76.1905" y2="428.725"  stroke="#00ebff" />
<line x1="76.1905" y1="428.725" x2="86.3492" y2="422.594"  stroke="#00ebff" />
<line x1="86.3492" y1="422.594" x2="96.5079" y2="413.399"  stroke="#00ebff" />
<line x1="96.5079" y1="413.399" x2="106.667" y2="398.073"  stroke="#00ebff" />
<line x1="106.667" y1="398.073" x2="116.825" y2="380.996"  stroke="#00ebff" />
<line x1="116.825" y1="380.996" x2="126.984" y2="363.043"  stroke="#00ebff" />
<line x1="126.984" y1="363.043" x2="137.143" y2="346.404"  stroke="#00ebff" />
<line x1="137.143" y1="346.404" x2="147.302" y2="335.019"  stroke="#00ebff" />
<line x1="147.302" y1="335.019" x2="157.46" y2="311.812"  stroke="#00ebff" />
<line x1="157.46" y1="311.812" x2="167.619" y2="290.356"  stroke="#00ebff" />
<line x1="167.619" y1="290.356" x2="177.778" y2="254.012"  stroke="#00ebff" />
<line x1="177.778" y1="254.012" x2="187.937" y2="233.87"  stroke="#00ebff" />
<line x1="187.937" y1="233.87" x2="198.095" y2="211.1"  stroke="#00ebff" />
<line x1="198.095" y1="211.1" x2="208.254" y2="200.591"  stroke="#00ebff" />
<line x1="208.254" y1="200.591" x2="218.413" y2="190.082"  stroke="#00ebff" />
<line x1="218.413" y1="190.082" x2="228.571" y2="173.005"  stroke="#00ebff" />
<line x1="228.571" y1="173.005" x2="238.73" y2="158.993"  stroke="#00ebff" />
<line x1="238.73" y1="158.993" x2="248.889" y2="151.111"  stroke="#00ebff" />
<line x1="248.889" y1="151.111" x2="259.048" y2="142.354"  stroke="#00ebff" />
<line x1="259.048" y1="142.354" x2="269.206" y2="133.596"  stroke="#00ebff" />
<line x1="269.206" y1="133.596" x2="279.365" y2="124.839"  stroke="#00ebff" />
<line x1="279.365" y1="124.839" x2="289.524" y2="118.708"  stroke="#00ebff" />
<line x1="289.524" y1="118.708" x2="299.683" y2="111.702"  stroke="#00ebff" />
<line x1="299.683" y1="111.702" x2="309.841" y2="106.448"  stroke="#00ebff" />
<line x1="309.841" y1="106.448" x2="320" y2="101.193"  stroke="#00ebff" />
<line x1="320" y1="101.193" x2="330.159" y2="95.9387"  stroke="#00ebff" />
<line x1="330.159" y1="95.9387" x2="340.317" y2="89.8084"  stroke="#00ebff" />
<line x1="340.317" y1="89.8084" x2="350.476" y2="86.3054"  stroke="#00ebff" />
<line x1="350.476" y1="86.3054" x2="360.635" y2="83.6782"  stroke="#00ebff" />
<line x1="360.635" y1="83.6782" x2="370.794" y2="79.2994"  stroke="#00ebff" />
<line x1="370.794" y1="79.2994" x2="380.952" y2="75.7964"  stroke="#00ebff" />
<line x1="380.952" y1="75.7964" x2="391.111" y2="72.2934"  stroke="#00ebff" />
<line x1="391.111" y1="72.2934" x2="401.27" y2="69.6661"  stroke="#00ebff" />
<line x1="401.27" y1="69.6661" x2="411.429" y2="66.1631"  stroke="#00ebff" />
<line x1="411.429" y1="66.1631" x2="421.587" y2="64.4116"  stroke="#00ebff" />
<line x1="421.587" y1="64.4116" x2="431.746" y2="62.6601"  stroke="#00ebff" />
<line x1="431.746" y1="62.6601" x2="441.905" y2="60.9086"  stroke="#00ebff" />
<line x1="441.905" y1="60.9086" x2="452.063" y2="58.2813"  stroke="#00ebff" />
<line x1="452.063" y1="58.2813" x2="462.222" y2="57.4056"  stroke="#00ebff" />
<line x1="462.222" y1="57.4056" x2="472.381" y2="56.5298"  stroke="#00ebff" />
<line x1="472.381" y1="56.5298" x2="482.54" y2="53.9026"  stroke="#00ebff" />
<line x1="482.54" y1="53.9026" x2="492.698" y2="53.9026"  stroke="#00ebff" />
<line x1="492.698" y1="53.9026" x2="502.857" y2="51.2753"  stroke="#00ebff" />
<line x1="502.857" y1="51.2753" x2="513.016" y2="51.2753"  stroke="#00ebff" />
<line x1="513.016" y1="51.2753" x2="523.175" y2="50.3996"  stroke="#00ebff" />
<line x1="523.175" y1="50.3996" x2="533.333" y2="49.5238"  stroke="#00ebff" />
<line x1="533.333" y1="49.5238" x2="543.492" y2="49.5238"  stroke="#00ebff" />
<line x1="543.492" y1="49.5238" x2="553.651" y2="49.5238"  stroke="#00ebff" />
<line x1="553.651" y1="49.5238" x2="563.81" y2="49.5238"  stroke="#00ebff" />
<line x1="563.81" y1="49.5238" x2="573.968" y2="49.5238"  stroke="#00ebff" />
<line x1="66.0317" y1="430.476" x2="76.1905" y2="427.411"  stroke="#ffe100" />
<line x1="76.1905" y1="427.411" x2="86.3492" y2="419.091"  stroke="#ffe100" />
<line x1="86.3492" y1="419.091" x2="96.5079" y2="406.393"  stroke="#ffe100" />
<line x1="96.5079" y1="406.393" x2="106.667" y2="392.819"  stroke="#ffe100" />
<line x1="106.667" y1="392.819" x2="116.825" y2="376.617"  stroke="#ffe100" />
<line x1="116.825" y1="376.617" x2="126.984" y2="362.167"  stroke="#ffe100" />
<line x1="126.984" y1="362.167" x2="137.143" y2="345.966"  stroke="#ffe100" />
<line x1="137.143" y1="345.966" x2="147.302" y2="329.765"  stroke="#ffe100" />
<line x1="147.302" y1="329.765" x2="157.46" y2="310.06"  stroke="#ffe100" />
<line x1="157.46" y1="310.06" x2="167.619" y2="290.356"  stroke="#ffe100" />
<line x1="167.619" y1="290.356" x2="177.778" y2="271.089"  stroke="#ffe100" />
<line x1="177.778" y1="271.089" x2="187.937" y2="249.633"  stroke="#ffe100" />
<line x1="187.937" y1="249.633" x2="198.095" y2="222.923"  stroke="#ffe100" />
<line x1="198.095" y1="222.923" x2="208.254" y2="193.147"  stroke="#ffe100" />
<line x1="208.254" y1="193.147" x2="218.413" y2="166.875"  stroke="#ffe100" />
<line x1="218.413" y1="166.875" x2="228.571" y2="144.981"  stroke="#ffe100" />
<line x1="228.571" y1="144.981" x2="238.73" y2="130.093"  stroke="#ffe100" />
<line x1="238.73" y1="130.093" x2="248.889" y2="122.211"  stroke="#ffe100" />
<line x1="248.889" y1="122.211" x2="259.048" y2="113.892"  stroke="#ffe100" />
<line x1="259.048" y1="113.892" x2="269.206" y2="107.761"  stroke="#ffe100" />
<line x1="269.206" y1="107.761" x2="279.365" y2="101.631"  stroke="#ffe100" />
<line x1="279.365" y1="101.631" x2="289.524" y2="95.9387"  stroke="#ffe100" />
<line x1="289.524" y1="95.9387" x2="299.683" y2="93.3114"  stroke="#ffe100" />
<line x1="299.683" y1="93.3114" x2="309.841" y2="88.9327"  stroke="#ffe100" />
<line x1="309.841" y1="88.9327" x2="320" y2="84.116"  stroke="#ffe100" />
<line x1="320" y1="84.116" x2="330.159" y2="82.3645"  stroke="#ffe100" />
<line x1="330.159" y1="82.3645" x2="340.317" y2="80.613"  stroke="#ffe100" />
<line x1="340.317" y1="80.613" x2="350.476" y2="78.8615"  stroke="#ffe100" />
<line x1="350.476" y1="78.8615" x2="360.635" y2="75.3585"  stroke="#ffe100" />
<line x1="360.635" y1="75.3585" x2="370.794" y2="72.2934"  stroke="#ffe100" />
<line x1="370.794" y1="72.2934" x2="380.952" y2="71.4176"  stroke="#ffe100" />
<line x1="380.952" y1="71.4176" x2="391.111" y2="69.6661"  stroke="#ffe100" />
<line x1="391.111" y1="69.6661" x2="401.27" y2="68.7904"  stroke="#ffe100" />
<line x1="401.27" y1="68.7904" x2="411.429" y2="67.0389"  stroke="#ffe100" />
<line x1="411.429" y1="67.0389" x2="421.587" y2="66.1631"  stroke="#ffe100" />
<line x1="421.587" y1="66.1631" x2="431.746" y2="64.4116"  stroke="#ffe100" />
<line x1="431.746" y1="64.4116" x2="441.905" y2="62.6601"  stroke="#ffe100" />
<line x1="441.905" y1="62.6601" x2="452.063" y2="59.595"  stroke="#ffe100" />
<line x1="452.063" y1="59.595" x2="462.222" y2="59.595"  stroke="#ffe100" />
<line x1="462.222" y1="59.595" x2="472.381" y2="58.7192"  stroke="#ffe100" />
<line x1="472.381" y1="58.7192" x2="482.54" y2="58.7192"  stroke="#ffe100" />
<line x1="482.54" y1="58.7192" x2="492.698" y2="57.8435"  stroke="#ffe100" />
<line x1="492.698" y1="57.8435" x2="502.857" y2="56.9677"  stroke="#ffe100" />
<line x1="502.857" y1="56.9677" x2="513.016" y2="56.092"  stroke="#ffe100" />
<line x1="513.016" y1="56.092" x2="523.175" y2="56.092"  stroke="#ffe100" />
<line x1="523.175" y1="56.092" x2="533.333" y2="55.2162"  stroke="#ffe100" />
<line x1="533.333" y1="55.2162" x2="543.492" y2="54.3404"  stroke="#ffe100" />
<line x1="543.492" y1="54.3404" x2="553.651" y2="52.5889"  stroke="#ffe100" />
<line x1="553.651" y1="52.5889" x2="563.81" y2="50.3996"  stroke="#ffe100" />
<line x1="563.81" y1="50.3996" x2="573.968" y2="50.3996"  stroke="#ffe100" />
<line x1="66.0317" y1="430.476" x2="76.1905" y2="430.038"  stroke="#ff0000" />
<line x1="76.1905" y1="430.038" x2="86.3492" y2="429.163"  stroke="#ff0000" />
<line x1="86.3492" y1="429.163" x2="96.5079" y2="428.287"  stroke="#ff0000" />
<line x1="96.5079" y1="428.287" x2="106.667" y2="426.097"  stroke="#ff0000" />
<line x1="106.667" y1="426.097" x2="116.825" y2="424.346"  stroke="#ff0000" />
<line x1="116.825" y1="424.346" x2="126.984" y2="422.157"  stroke="#ff0000" />
<line x1="126.984" y1="422.157" x2="137.143" y2="419.091"  stroke="#ff0000" />
<line x1="137.143" y1="419.091" x2="147.302" y2="410.772"  stroke="#ff0000" />
<line x1="147.302" y1="410.772" x2="157.46" y2="403.766"  stroke="#ff0000" />
<line x1="157.46" y1="403.766" x2="167.619" y2="395.446"  stroke="#ff0000" />
<line x1="167.619" y1="395.446" x2="177.778" y2="388.002"  stroke="#ff0000" />
<line x1="177.778" y1="388.002" x2="187.937" y2="376.18"  stroke="#ff0000" />
<line x1="187.937" y1="376.18" x2="198.095" y2="361.292"  stroke="#ff0000" />
<line x1="198.095" y1="361.292" x2="208.254" y2="345.09"  stroke="#ff0000" />
<line x1="208.254" y1="345.09" x2="218.413" y2="325.824"  stroke="#ff0000" />
<line x1="218.413" y1="325.824" x2="228.571" y2="305.244"  stroke="#ff0000" />
<line x1="228.571" y1="305.244" x2="238.73" y2="276.782"  stroke="#ff0000" />
<line x1="238.73" y1="276.782" x2="248.889" y2="247.882"  stroke="#ff0000" />
<line x1="248.889" y1="247.882" x2="259.048" y2="225.55"  stroke="#ff0000" />
<line x1="259.048" y1="225.55" x2="269.206" y2="206.284"  stroke="#ff0000" />
<line x1="269.206" y1="206.284" x2="279.365" y2="190.52"  stroke="#ff0000" />
<line x1="279.365" y1="190.52" x2="289.524" y2="176.508"  stroke="#ff0000" />
<line x1="289.524" y1="176.508" x2="299.683" y2="164.247"  stroke="#ff0000" />
<line x1="299.683" y1="164.247" x2="309.841" y2="153.738"  stroke="#ff0000" />
<line x1="309.841" y1="153.738" x2="320" y2="141.478"  stroke="#ff0000" />
<line x1="320" y1="141.478" x2="330.159" y2="136.223"  stroke="#ff0000" />
<line x1="330.159" y1="136.223" x2="340.317" y2="123.963"  stroke="#ff0000" />
<line x1="340.317" y1="123.963" x2="350.476" y2="119.584"  stroke="#ff0000" />
<line x1="350.476" y1="119.584" x2="360.635" y2="110.826"  stroke="#ff0000" />
<line x1="360.635" y1="110.826" x2="370.794" y2="106.448"  stroke="#ff0000" />
<line x1="370.794" y1="106.448" x2="380.952" y2="101.193"  stroke="#ff0000" />
<line x1="380.952" y1="101.193" x2="391.111" y2="92.4357"  stroke="#ff0000" />
<line x1="391.111" y1="92.4357" x2="401.27" y2="88.9327"  stroke="#ff0000" />
<line x1="401.27" y1="88.9327" x2="411.429" y2="85.4297"  stroke="#ff0000" />
<line x1="411.429" y1="85.4297" x2="421.587" y2="81.9267"  stroke="#ff0000" />
<line x1="421.587" y1="81.9267" x2="431.746" y2="79.2994"  stroke="#ff0000" />
<line x1="431.746" y1="79.2994" x2="441.905" y2="73.1691"  stroke="#ff0000" />
<line x1="441.905" y1="73.1691" x2="452.063" y2="71.4176"  stroke="#ff0000" />
<line x1="452.063" y1="71.4176" x2="462.222" y2="68.7904"  stroke="#ff0000" />
<line x1="462.222" y1="68.7904" x2="472.381" y2="66.1631"  stroke="#ff0000" />
<line x1="472.381" y1="66.1631" x2="482.54" y2="63.5359"  stroke="#ff0000" />
<line x1="482.54" y1="63.5359" x2="492.698" y2="61.7843"  stroke="#ff0000" />
<line x1="492.698" y1="61.7843" x2="502.857" y2="58.2813"  stroke="#ff0000" />
<line x1="502.857" y1="58.2813" x2="513.016" y2="57.4056"  stroke="#ff0000" />
<line x1="513.016" y1="57.4056" x2="523.175" y2="54.7783"  stroke="#ff0000" />
<line x1="523.175" y1="54.7783" x2="533.333" y2="53.9026"  stroke="#ff0000" />
<line x1="533.333" y1="53.9026" x2="543.492" y2="52.1511"  stroke="#ff0000" />
<line x1="543.492" y1="52.1511" x2="553.651" y2="52.1511"  stroke="#ff0000" />
<line x1="553.651" y1="52.1511" x2="563.81" y2="50.8374"  stroke="#ff0000" />
<line x1="563.81" y1="50.8374" x2="573.968" y2="50.3996"  stroke="#ff0000" />
</svg>
