<?xml version="1.0" standalone="no"?>
<svg width="640px" height="480px" version="1.1" xmlns="http://www.w3.org/2000/svg" xmlns:xlink="http://www.w3.org/1999/xlink">
<rect x="0" y="0" width="640" height="480"  fill="#ffffff" />
<defs>
<g id="dot">
<line x1="1" y1="1" x2="0" y2="0"  />
</g>
<g id="cross">
<line x1="-3" y1="0" x2="3" y2="0"  />
<line x1="0" y1="-3" x2="0" y2="3"  />
</g>
<g id="square">
<line x1="-3" y1="-3" x2="-3" y2="3"  />
<line x1="-3" y1="3" x2="3" y2="3"  />
<line x1="3" y1="3" x2="3" y2="-3"  />
<line x1="3" y1="-3" x2="-3" y2="-3"  />
</g>
<g id="round">
<ellipse cx="0" cy="0" rx="3" ry="3"  fill="none" /></g>
<g id="triangle">
<line x1="0" y1="-3" x2="-3" y2="3"  />
<line x1="-3" y1="3" x2="3" y2="3"  />
<line x1="0" y1="-3" x2="3" y2="3"  />
</g>
</defs>
<polygon fill="none" stroke="#000000" points="66.0317,430.476 66.0317,49.5238 573.968,49.5238 573.968,430.476 " />
<text style="font-size:12;text-align:center;text-anchor:middle;" x="320" y="473.619" fill="#000000">Entrance ray height (normalized)</text>
<line x1="66.0317" y1="393.382" x2="573.968" y2="393.382"  stroke="#000000" />
<use x="66.0317" y="393.382" xlink:href="#cross"  stroke="#000000" />
<use x="66.0317" y="49.5238" xlink:href="#cross"  stroke="#000000" />
<use x="66.0317" y="430.476" xlink:href="#cross"  stroke="#000000" />
<text style="font-size:12;text-align:center;text-anchor:middle;" x="66.0317" y="448.476" fill="#000000">-1</text>
<use x="320" y="393.382" xlink:href="#cross"  stroke="#000000" />
<use x="320" y="49.5238" xlink:href="#cross"  stroke="#000000" />
<use x="320" y="430.476" xlink:href="#cross"  stroke="#000000" />
<text style="font-size:12;text-align:center;text-anchor:middle;" x="320" y="448.476" fill="#000000">0</text>
<use x="573.968" y="393.382" xlink:href="#cross"  stroke="#000000" />
<use x="573.968" y="49.5238" xlink:href="#cross"  stroke="#000000" />
<use x="573.968" y="430.476" xlink:href="#cross"  stroke="#000000" />
<text style="font-size:12;text-align:center;text-anchor:middle;" x="573.968" y="448.476" fill="#000000">1</text>
<text style="font-size:12;text-align:center;text-anchor:middle;" x="16.5079" y="246" transform="rotate(-90,16.5079,240)" fill="#000000">Longitudinal ray aberration (um)</text>
<line x1="320" y1="430.476" x2="320" y2="49.5238"  stroke="#000000" />
<use x="320" y="393.382" xlink:href="#cross"  stroke="#000000" />
<use x="573.968" y="393.382" xlink:href="#cross"  stroke="#000000" />
<use x="66.0317" y="393.382" xlink:href="#cross"  stroke="#000000" />
<text style="font-size:12;text-align:right;text-anchor:end;" x="60.0317" y="399.382" fill="#000000">0</text>
<use x="320" y="317.723" xlink:href="#cross"  stroke="#000000" />
<use x="573.968" y="317.723" xlink:href="#cross"  stroke="#000000" />
<use x="66.0317" y="317.723" xlink:href="#cross"  stroke="#000000" />
<text style="font-size:12;text-align:right;text-anchor:end;" x="60.0317" y="323.723" fill="#000000">50</text>
<use x="320" y="242.064" xlink:href="#cross"  stroke="#000000" />
<use x="573.968" y="242.064" xlink:href="#cross"  stroke="#000000" />
<use x="66.0317" y="242.064" xlink:href="#cross"  stroke="#000000" />
<text style="font-size:12;text-align:right;text-anchor:end;" x="60.0317" y="248.064" fill="#000000">100</text>
<use x="320" y="166.405" xlink:href="#cross"  stroke="#000000" />
<use x="573.968" y="166.405" xlink:href="#cross"  stroke="#000000" />
<use x="66.0317" y="166.405" xlink:href="#cross"  stroke="#000000" />
<text style="font-size:12;text-align:right;text-anchor:end;" x="60.0317" y="172.405" fill="#000000">150</text>
<use x="320" y="90.746" xlink:href="#cross"  stroke="#000000" />
<use x="573.968" y="90.746" xlink:href="#cross"  stroke="#000000" />
<use x="66.0317" y="90.746" xlink:href="#cross"  stroke="#000000" />
<text style="font-size:12;text-align:right;text-anchor:end;" x="60.0317" y="96.746" fill="#000000">200</text>
<text style="font-size:18;text-align:center;text-anchor:middle;" x="320" y="33.7619" fill="#000000">Longitudinal ray aberration fan (tangential)</text>
<path fill="none"  stroke="#00ebff" d="M83.2,124.604 S94.4762,149.159 100.114,161.09 S111.39,185.229 117.029,196.193 S128.305,217.591 133.943,226.875 S145.219,244.525 150.857,251.895 S162.133,265.587 167.771,271.092 S179.048,281.077 184.686,284.926 S195.962,291.707 201.6,294.186 S212.876,298.377 218.514,299.795 S229.79,302.033 235.429,302.694 S246.705,303.583 252.343,303.76 S263.619,303.833 269.257,303.756 S280.533,303.452 286.171,303.299 S294.629,302.917 303.086,302.841 S328.457,302.765 336.914,302.841 S348.19,303.147 353.829,303.299 S365.105,303.679 370.743,303.756 S382.019,303.937 387.657,303.76 S398.933,303.355 404.571,302.694 S415.848,301.213 421.486,299.795 S432.762,296.664 438.4,294.186 S449.676,288.775 455.314,284.926 S466.59,276.597 472.229,271.092 S483.505,259.264 489.143,251.895 S500.419,236.159 506.057,226.875 S517.333,207.157 522.971,196.193 S534.248,173.022 539.886,161.09 S553.981,130.685 556.8,124.604 " />
<path fill="none"  stroke="#ffe100" d="M83.2,391.353 S94.4762,399.464 100.114,403.463 S111.39,411.868 117.029,415.346 S128.305,421.988 133.943,424.328 S145.219,428.36 150.857,429.385 S162.133,430.686 167.771,430.476 S179.048,429.346 184.686,428.123 S195.962,425.084 201.6,423.138 S212.876,418.807 218.514,416.447 S229.79,411.455 235.429,408.98 S246.705,403.92 252.343,401.597 S263.619,396.99 269.257,395.044 S280.533,391.317 286.171,389.922 S294.629,387.212 303.086,386.67 S328.457,386.128 336.914,386.67 S348.19,388.526 353.829,389.922 S365.105,393.098 370.743,395.044 S382.019,399.274 387.657,401.597 S398.933,406.505 404.571,408.98 S415.848,414.087 421.486,416.447 S432.762,421.192 438.4,423.138 S449.676,426.9 455.314,428.123 S466.59,430.266 472.229,430.476 S483.505,430.41 489.143,429.385 S500.419,426.668 506.057,424.328 S517.333,418.823 522.971,415.346 S534.248,407.462 539.886,403.463 S553.981,393.371 556.8,391.353 " />
<path fill="none"  stroke="#ff0000" d="M83.2,96.4423 S94.4762,101.402 100.114,103.793 S111.39,108.929 117.029,110.79 S128.305,114.191 133.943,114.964 S145.219,115.882 150.857,115.425 S162.133,113.806 167.771,112.227 S179.048,108.415 184.686,105.952 S195.962,100.499 201.6,97.4543 S212.876,90.9962 218.514,87.6868 S229.79,80.8691 235.429,77.5979 S246.705,71.0219 252.343,68.0596 S263.619,62.2514 269.257,59.8246 S280.533,55.2154 286.171,53.4986 S294.629,50.1863 303.086,49.5238 S328.457,48.8613 336.914,49.5238 S348.19,51.7818 353.829,53.4986 S365.105,57.3978 370.743,59.8246 S382.019,65.0974 387.657,68.0596 S398.933,74.3267 404.571,77.5979 S415.848,84.3775 421.486,87.6868 S432.762,94.41 438.4,97.4543 S449.676,103.49 455.314,105.952 S466.59,110.648 472.229,112.227 S483.505,114.969 489.143,115.425 S500.419,115.736 506.057,114.964 S517.333,112.652 522.971,110.79 S534.248,106.184 539.886,103.793 S553.981,97.6674 556.8,96.4423 " />
</svg>
