<?xml version="1.0" standalone="no"?>
<svg width="640px" height="480px" version="1.1" xmlns="http://www.w3.org/2000/svg" xmlns:xlink="http://www.w3.org/1999/xlink">
<rect x="0" y="0" width="640" height="480"  fill="#ffffff" />
<defs>
<g id="dot">
<line x1="1" y1="1" x2="0" y2="0"  />
</g>
<g id="cross">
<line x1="-3" y1="0" x2="3" y2="0"  />
<line x1="0" y1="-3" x2="0" y2="3"  />
</g>
<g id="square">
<line x1="-3" y1="-3" x2="-3" y2="3"  />
<line x1="-3" y1="3" x2="3" y2="3"  />
<line x1="3" y1="3" x2="3" y2="-3"  />
<line x1="3" y1="-3" x2="-3" y2="-3"  />
</g>
<g id="round">
<ellipse cx="0" cy="0" rx="3" ry="3"  fill="none" /></g>
<g id="triangle">
<line x1="0" y1="-3" x2="-3" y2="3"  />
<line x1="-3" y1="3" x2="3" y2="3"  />
<line x1="0" y1="-3" x2="3" y2="3"  />
</g>
</defs>
<polygon fill="none" stroke="#000000" points="66.0317,430.476 66.0317,49.5238 573.968,49.5238 573.968,430.476 " />
<text style="font-size:12;text-align:center;text-anchor:middle;" x="320" y="473.619" fill="#000000">Entrance ray height (normalized)</text>
<line x1="66.0317" y1="68.3169" x2="573.968" y2="68.3169"  stroke="#000000" />
<use x="66.0317" y="68.3169" xlink:href="#cross"  stroke="#000000" />
<use x="66.0317" y="49.5238" xlink:href="#cross"  stroke="#000000" />
<use x="66.0317" y="430.476" xlink:href="#cross"  stroke="#000000" />
<text style="font-size:12;text-align:center;text-anchor:middle;" x="66.0317" y="448.476" fill="#000000">-1</text>
<use x="320" y="68.3169" xlink:href="#cross"  stroke="#000000" />
<use x="320" y="49.5238" xlink:href="#cross"  stroke="#000000" />
<use x="320" y="430.476" xlink:href="#cross"  stroke="#000000" />
<text style="font-size:12;text-align:center;text-anchor:middle;" x="320" y="448.476" fill="#000000">0</text>
<use x="573.968" y="68.3169" xlink:href="#cross"  stroke="#000000" />
<use x="573.968" y="49.5238" xlink:href="#cross"  stroke="#000000" />
<use x="573.968" y="430.476" xlink:href="#cross"  stroke="#000000" />
<text style="font-size:12;text-align:center;text-anchor:middle;" x="573.968" y="448.476" fill="#000000">1</text>
<text style="font-size:12;text-align:center;text-anchor:middle;" x="16.5079" y="246" transform="rotate(-90,16.5079,240)" fill="#000000">Optical path difference (x10^-1 waves)</text>
<line x1="320" y1="430.476" x2="320" y2="49.5238"  stroke="#000000" />
<use x="320" y="428.54" xlink:href="#cross"  stroke="#000000" />
<use x="573.968" y="428.54" xlink:href="#cross"  stroke="#000000" />
<use x="66.0317" y="428.54" xlink:href="#cross"  stroke="#000000" />
<text style="font-size:12;text-align:right;text-anchor:end;" x="60.0317" y="434.54" fill="#000000">-30</text>
<use x="320" y="368.503" xlink:href="#cross"  stroke="#000000" />
<use x="573.968" y="368.503" xlink:href="#cross"  stroke="#000000" />
<use x="66.0317" y="368.503" xlink:href="#cross"  stroke="#000000" />
<text style="font-size:12;text-align:right;text-anchor:end;" x="60.0317" y="374.503" fill="#000000">-25</text>
<use x="320" y="308.466" xlink:href="#cross"  stroke="#000000" />
<use x="573.968" y="308.466" xlink:href="#cross"  stroke="#000000" />
<use x="66.0317" y="308.466" xlink:href="#cross"  stroke="#000000" />
<text style="font-size:12;text-align:right;text-anchor:end;" x="60.0317" y="314.466" fill="#000000">-20</text>
<use x="320" y="248.429" xlink:href="#cross"  stroke="#000000" />
<use x="573.968" y="248.429" xlink:href="#cross"  stroke="#000000" />
<use x="66.0317" y="248.429" xlink:href="#cross"  stroke="#000000" />
<text style="font-size:12;text-align:right;text-anchor:end;" x="60.0317" y="254.429" fill="#000000">-15</text>
<use x="320" y="188.391" xlink:href="#cross"  stroke="#000000" />
<use x="573.968" y="188.391" xlink:href="#cross"  stroke="#000000" />
<use x="66.0317" y="188.391" xlink:href="#cross"  stroke="#000000" />
<text style="font-size:12;text-align:right;text-anchor:end;" x="60.0317" y="194.391" fill="#000000">-10</text>
<use x="320" y="128.354" xlink:href="#cross"  stroke="#000000" />
<use x="573.968" y="128.354" xlink:href="#cross"  stroke="#000000" />
<use x="66.0317" y="128.354" xlink:href="#cross"  stroke="#000000" />
<text style="font-size:12;text-align:right;text-anchor:end;" x="60.0317" y="134.354" fill="#000000">-5</text>
<use x="320" y="68.3169" xlink:href="#cross"  stroke="#000000" />
<use x="573.968" y="68.3169" xlink:href="#cross"  stroke="#000000" />
<use x="66.0317" y="68.3169" xlink:href="#cross"  stroke="#000000" />
<text style="font-size:12;text-align:right;text-anchor:end;" x="60.0317" y="74.3169" fill="#000000">0</text>
<text style="font-size:18;text-align:center;text-anchor:middle;" x="320" y="33.7619" fill="#000000">Optical path difference fan (tangential)</text>
<path fill="none"  stroke="#00ebff" d="M83.2,430.476 S94.4762,363.024 100.114,333.79 S111.39,278.063 117.029,255.068 S128.305,212.72 133.943,195.818 S145.219,165.48 150.857,153.659 S162.133,132.867 167.771,124.893 S179.048,111.081 184.686,105.815 S195.962,96.7685 201.6,93.2967 S212.876,87.3217 218.514,84.9834 S229.79,80.9034 235.429,79.2669 S246.705,76.3492 252.343,75.1644 S263.619,73.0129 269.257,72.1581 S280.533,70.6033 286.171,70.0352 S297.448,69.036 303.086,68.7496 S314.362,68.3169 320,68.3169 S331.276,68.4633 336.914,68.7496 S348.19,69.4672 353.829,70.0352 S365.105,71.3032 370.743,72.1581 S382.019,73.9796 387.657,75.1644 S398.933,77.6304 404.571,79.2669 S415.848,82.6451 421.486,84.9834 S432.762,89.8248 438.4,93.2967 S449.676,100.548 455.314,105.815 S466.59,116.919 472.229,124.893 S483.505,141.838 489.143,153.659 S500.419,178.917 506.057,195.818 S517.333,232.073 522.971,255.068 S534.248,304.555 539.886,333.79 S553.981,414.362 556.8,430.476 " />
<path fill="none"  stroke="#ffe100" d="M83.2,88.6166 S94.4762,76.5205 100.114,71.4579 S111.39,61.6203 117.029,58.2409 S128.305,52.6343 133.943,51.1814 S145.219,49.4721 150.857,49.5238 S162.133,50.5344 167.771,51.4916 S179.048,53.9454 184.686,55.2667 S195.962,58.1247 201.6,59.4195 S212.876,61.9915 218.514,63.0354 S229.79,64.9713 235.429,65.6831 S246.705,66.905 252.343,67.3065 S263.619,67.9201 269.257,68.0919 S280.533,68.296 286.171,68.3375 S297.448,68.3448 303.086,68.3413 S314.362,68.3169 320,68.3169 S331.276,68.3379 336.914,68.3413 S348.19,68.3791 353.829,68.3375 S365.105,68.2638 370.743,68.0919 S382.019,67.708 387.657,67.3065 S398.933,66.395 404.571,65.6831 S415.848,64.0794 421.486,63.0354 S432.762,60.7142 438.4,59.4195 S449.676,56.588 455.314,55.2667 S466.59,52.4487 472.229,51.4916 S483.505,49.5755 489.143,49.5238 S500.419,49.7286 506.057,51.1814 S517.333,54.8615 522.971,58.2409 S534.248,66.3953 539.886,71.4579 S553.981,85.7568 556.8,88.6166 " />
<path fill="none"  stroke="#ff0000" d="M83.2,278.947 S94.4762,252.864 100.114,240.955 S111.39,217.58 117.029,207.492 S128.305,188.485 133.943,180.428 S145.219,165.517 150.857,159.148 S162.133,147.374 167.771,142.215 S179.048,132.561 184.686,128.193 S195.962,119.867 201.6,116.008 S212.876,108.525 218.514,105.036 S229.79,98.2069 235.429,95.0703 S246.705,88.9329 252.343,86.2159 S263.619,80.9549 269.257,78.7679 S280.533,74.633 286.171,73.0937 S297.448,70.3281 303.086,69.532 S314.362,68.3169 320,68.3169 S331.276,68.7358 336.914,69.532 S348.19,71.5544 353.829,73.0937 S365.105,76.5809 370.743,78.7679 S382.019,83.4988 387.657,86.2159 S398.933,91.9336 404.571,95.0703 S415.848,101.546 421.486,105.036 S432.762,112.148 438.4,116.008 S449.676,123.825 455.314,128.193 S466.59,137.055 472.229,142.215 S483.505,152.779 489.143,159.148 S500.419,172.371 506.057,180.428 S517.333,197.404 522.971,207.492 S534.248,229.046 539.886,240.955 S553.981,272.615 556.8,278.947 " />
</svg>
