<?xml version="1.0" standalone="no"?>
<svg width="300px" height="300px" version="1.1" xmlns="http://www.w3.org/2000/svg" xmlns:xlink="http://www.w3.org/1999/xlink">
<rect x="0" y="0" width="300" height="300"  fill="#000000" />
<defs>
<g id="dot">
<line x1="1" y1="1" x2="0" y2="0"  />
</g>
<g id="cross">
<line x1="-3" y1="0" x2="3" y2="0"  />
<line x1="0" y1="-3" x2="0" y2="3"  />
</g>
<g id="square">
<line x1="-3" y1="-3" x2="-3" y2="3"  />
<line x1="-3" y1="3" x2="3" y2="3"  />
<line x1="3" y1="3" x2="3" y2="-3"  />
<line x1="3" y1="-3" x2="-3" y2="-3"  />
</g>
<g id="round">
<ellipse cx="0" cy="0" rx="3" ry="3"  fill="none" /></g>
<g id="triangle">
<line x1="0" y1="-3" x2="-3" y2="3"  />
<line x1="-3" y1="3" x2="3" y2="3"  />
<line x1="0" y1="-3" x2="3" y2="3"  />
</g>
</defs>
<polygon fill="none" stroke="#ffffff" points="30.9524,269.048 30.9524,30.9524 269.048,30.9524 269.048,269.048 " />
<text style="font-size:12;text-align:center;text-anchor:middle;" x="150" y="298.262" fill="#ffffff">Saggital distance (um)</text>
<use x="70.6349" y="30.9524" xlink:href="#cross"  stroke="#ffffff" />
<use x="70.6349" y="269.048" xlink:href="#cross"  stroke="#ffffff" />
<text style="font-size:12;text-align:center;text-anchor:middle;" x="70.6349" y="287.048" fill="#ffffff">-5.22</text>
<use x="150" y="30.9524" xlink:href="#cross"  stroke="#ffffff" />
<use x="150" y="269.048" xlink:href="#cross"  stroke="#ffffff" />
<text style="font-size:12;text-align:center;text-anchor:middle;" x="150" y="287.048" fill="#ffffff">0</text>
<use x="229.365" y="30.9524" xlink:href="#cross"  stroke="#ffffff" />
<use x="229.365" y="269.048" xlink:href="#cross"  stroke="#ffffff" />
<text style="font-size:12;text-align:center;text-anchor:middle;" x="229.365" y="287.048" fill="#ffffff">5.22</text>
<text style="font-size:12;text-align:center;text-anchor:middle;" x="7.7381" y="156" transform="rotate(-90,7.7381,150)" fill="#ffffff">Tangential distance (um)</text>
<use x="269.048" y="229.365" xlink:href="#cross"  stroke="#ffffff" />
<use x="30.9524" y="229.365" xlink:href="#cross"  stroke="#ffffff" />
<text style="font-size:12;text-align:right;text-anchor:end;" x="24.9524" y="235.365" fill="#ffffff">-5.22</text>
<use x="269.048" y="150" xlink:href="#cross"  stroke="#ffffff" />
<use x="30.9524" y="150" xlink:href="#cross"  stroke="#ffffff" />
<text style="font-size:12;text-align:right;text-anchor:end;" x="24.9524" y="156" fill="#ffffff">0</text>
<use x="269.048" y="70.6349" xlink:href="#cross"  stroke="#ffffff" />
<use x="30.9524" y="70.6349" xlink:href="#cross"  stroke="#ffffff" />
<text style="font-size:12;text-align:right;text-anchor:end;" x="24.9524" y="76.6349" fill="#ffffff">5.22</text>
<use x="150" y="150" xlink:href="#dot"  stroke="#ffe100" />
<use x="150" y="150" xlink:href="#dot"  stroke="#ff0000" />
<use x="150" y="150" xlink:href="#dot"  stroke="#00ebff" />
<use x="150" y="211.989" xlink:href="#dot"  stroke="#ffe100" />
<use x="150" y="30.9524" xlink:href="#dot"  stroke="#ff0000" />
<use x="150" y="226.654" xlink:href="#dot"  stroke="#00ebff" />
<use x="137.112" y="210.634" xlink:href="#dot"  stroke="#ffe100" />
<use x="174.751" y="33.5539" xlink:href="#dot"  stroke="#ff0000" />
<use x="134.063" y="224.979" xlink:href="#dot"  stroke="#00ebff" />
<use x="124.787" y="206.63" xlink:href="#dot"  stroke="#ffe100" />
<use x="198.421" y="41.2446" xlink:href="#dot"  stroke="#ff0000" />
<use x="118.822" y="220.027" xlink:href="#dot"  stroke="#00ebff" />
<use x="113.564" y="200.15" xlink:href="#dot"  stroke="#ffe100" />
<use x="219.974" y="53.6885" xlink:href="#dot"  stroke="#ff0000" />
<use x="104.944" y="212.014" xlink:href="#dot"  stroke="#00ebff" />
<use x="103.933" y="191.479" xlink:href="#dot"  stroke="#ffe100" />
<use x="238.47" y="70.3416" xlink:href="#dot"  stroke="#ff0000" />
<use x="93.0351" y="201.291" xlink:href="#dot"  stroke="#00ebff" />
<use x="96.3161" y="180.994" xlink:href="#dot"  stroke="#ffe100" />
<use x="253.098" y="90.4762" xlink:href="#dot"  stroke="#ff0000" />
<use x="83.6158" y="188.327" xlink:href="#dot"  stroke="#00ebff" />
<use x="91.0451" y="169.156" xlink:href="#dot"  stroke="#ffe100" />
<use x="263.221" y="113.212" xlink:href="#dot"  stroke="#ff0000" />
<use x="77.0978" y="173.687" xlink:href="#dot"  stroke="#00ebff" />
<use x="88.3507" y="156.48" xlink:href="#dot"  stroke="#ffe100" />
<use x="268.395" y="137.556" xlink:href="#dot"  stroke="#ff0000" />
<use x="73.766" y="158.013" xlink:href="#dot"  stroke="#00ebff" />
<use x="88.3507" y="143.52" xlink:href="#dot"  stroke="#ffe100" />
<use x="268.395" y="162.444" xlink:href="#dot"  stroke="#ff0000" />
<use x="73.766" y="141.987" xlink:href="#dot"  stroke="#00ebff" />
<use x="91.0451" y="130.844" xlink:href="#dot"  stroke="#ffe100" />
<use x="263.221" y="186.788" xlink:href="#dot"  stroke="#ff0000" />
<use x="77.0978" y="126.313" xlink:href="#dot"  stroke="#00ebff" />
<use x="96.3161" y="119.006" xlink:href="#dot"  stroke="#ffe100" />
<use x="253.098" y="209.524" xlink:href="#dot"  stroke="#ff0000" />
<use x="83.6158" y="111.673" xlink:href="#dot"  stroke="#00ebff" />
<use x="103.933" y="108.521" xlink:href="#dot"  stroke="#ffe100" />
<use x="238.47" y="229.658" xlink:href="#dot"  stroke="#ff0000" />
<use x="93.0351" y="98.7085" xlink:href="#dot"  stroke="#00ebff" />
<use x="113.564" y="99.85" xlink:href="#dot"  stroke="#ffe100" />
<use x="219.974" y="246.312" xlink:href="#dot"  stroke="#ff0000" />
<use x="104.944" y="87.9857" xlink:href="#dot"  stroke="#00ebff" />
<use x="124.787" y="93.3704" xlink:href="#dot"  stroke="#ffe100" />
<use x="198.421" y="258.755" xlink:href="#dot"  stroke="#ff0000" />
<use x="118.822" y="79.9732" xlink:href="#dot"  stroke="#00ebff" />
<use x="137.112" y="89.3657" xlink:href="#dot"  stroke="#ffe100" />
<use x="174.751" y="266.446" xlink:href="#dot"  stroke="#ff0000" />
<use x="134.063" y="75.0212" xlink:href="#dot"  stroke="#00ebff" />
<use x="150" y="88.0111" xlink:href="#dot"  stroke="#ffe100" />
<use x="150" y="269.048" xlink:href="#dot"  stroke="#ff0000" />
<use x="150" y="73.3461" xlink:href="#dot"  stroke="#00ebff" />
<use x="162.888" y="89.3657" xlink:href="#dot"  stroke="#ffe100" />
<use x="125.249" y="266.446" xlink:href="#dot"  stroke="#ff0000" />
<use x="165.937" y="75.0212" xlink:href="#dot"  stroke="#00ebff" />
<use x="175.213" y="93.3704" xlink:href="#dot"  stroke="#ffe100" />
<use x="101.579" y="258.755" xlink:href="#dot"  stroke="#ff0000" />
<use x="181.178" y="79.9732" xlink:href="#dot"  stroke="#00ebff" />
<use x="186.436" y="99.85" xlink:href="#dot"  stroke="#ffe100" />
<use x="80.0256" y="246.312" xlink:href="#dot"  stroke="#ff0000" />
<use x="195.056" y="87.9857" xlink:href="#dot"  stroke="#00ebff" />
<use x="196.067" y="108.521" xlink:href="#dot"  stroke="#ffe100" />
<use x="61.5304" y="229.658" xlink:href="#dot"  stroke="#ff0000" />
<use x="206.965" y="98.7085" xlink:href="#dot"  stroke="#00ebff" />
<use x="203.684" y="119.006" xlink:href="#dot"  stroke="#ffe100" />
<use x="46.9017" y="209.524" xlink:href="#dot"  stroke="#ff0000" />
<use x="216.384" y="111.673" xlink:href="#dot"  stroke="#00ebff" />
<use x="208.955" y="130.844" xlink:href="#dot"  stroke="#ffe100" />
<use x="36.779" y="186.788" xlink:href="#dot"  stroke="#ff0000" />
<use x="222.902" y="126.313" xlink:href="#dot"  stroke="#00ebff" />
<use x="211.649" y="143.52" xlink:href="#dot"  stroke="#ffe100" />
<use x="31.6045" y="162.444" xlink:href="#dot"  stroke="#ff0000" />
<use x="226.234" y="141.987" xlink:href="#dot"  stroke="#00ebff" />
<use x="211.649" y="156.48" xlink:href="#dot"  stroke="#ffe100" />
<use x="31.6045" y="137.556" xlink:href="#dot"  stroke="#ff0000" />
<use x="226.234" y="158.013" xlink:href="#dot"  stroke="#00ebff" />
<use x="208.955" y="169.156" xlink:href="#dot"  stroke="#ffe100" />
<use x="36.779" y="113.212" xlink:href="#dot"  stroke="#ff0000" />
<use x="222.902" y="173.687" xlink:href="#dot"  stroke="#00ebff" />
<use x="203.684" y="180.994" xlink:href="#dot"  stroke="#ffe100" />
<use x="46.9017" y="90.4762" xlink:href="#dot"  stroke="#ff0000" />
<use x="216.384" y="188.327" xlink:href="#dot"  stroke="#00ebff" />
<use x="196.067" y="191.479" xlink:href="#dot"  stroke="#ffe100" />
<use x="61.5304" y="70.3416" xlink:href="#dot"  stroke="#ff0000" />
<use x="206.965" y="201.291" xlink:href="#dot"  stroke="#00ebff" />
<use x="186.436" y="200.15" xlink:href="#dot"  stroke="#ffe100" />
<use x="80.0256" y="53.6885" xlink:href="#dot"  stroke="#ff0000" />
<use x="195.056" y="212.014" xlink:href="#dot"  stroke="#00ebff" />
<use x="175.213" y="206.63" xlink:href="#dot"  stroke="#ffe100" />
<use x="101.579" y="41.2446" xlink:href="#dot"  stroke="#ff0000" />
<use x="181.178" y="220.027" xlink:href="#dot"  stroke="#00ebff" />
<use x="162.888" y="210.634" xlink:href="#dot"  stroke="#ffe100" />
<use x="125.249" y="33.5539" xlink:href="#dot"  stroke="#ff0000" />
<use x="165.937" y="224.979" xlink:href="#dot"  stroke="#00ebff" />
<use x="150" y="191.394" xlink:href="#dot"  stroke="#ffe100" />
<use x="150" y="53.0427" xlink:href="#dot"  stroke="#ff0000" />
<use x="150" y="212.296" xlink:href="#dot"  stroke="#00ebff" />
<use x="139.286" y="189.984" xlink:href="#dot"  stroke="#ffe100" />
<use x="175.094" y="56.3464" xlink:href="#dot"  stroke="#ff0000" />
<use x="133.877" y="210.173" xlink:href="#dot"  stroke="#00ebff" />
<use x="129.303" y="185.848" xlink:href="#dot"  stroke="#ffe100" />
<use x="198.479" y="66.0325" xlink:href="#dot"  stroke="#ff0000" />
<use x="118.852" y="203.95" xlink:href="#dot"  stroke="#00ebff" />
<use x="120.73" y="179.27" xlink:href="#dot"  stroke="#ffe100" />
<use x="218.559" y="81.4408" xlink:href="#dot"  stroke="#ff0000" />
<use x="105.95" y="194.05" xlink:href="#dot"  stroke="#00ebff" />
<use x="114.152" y="170.697" xlink:href="#dot"  stroke="#ffe100" />
<use x="233.967" y="101.521" xlink:href="#dot"  stroke="#ff0000" />
<use x="96.05" y="181.148" xlink:href="#dot"  stroke="#00ebff" />
<use x="110.016" y="160.714" xlink:href="#dot"  stroke="#ffe100" />
<use x="243.654" y="124.906" xlink:href="#dot"  stroke="#ff0000" />
<use x="89.8266" y="166.123" xlink:href="#dot"  stroke="#00ebff" />
<use x="108.606" y="150" xlink:href="#dot"  stroke="#ffe100" />
<use x="246.957" y="150" xlink:href="#dot"  stroke="#ff0000" />
<use x="87.704" y="150" xlink:href="#dot"  stroke="#00ebff" />
<use x="110.016" y="139.286" xlink:href="#dot"  stroke="#ffe100" />
<use x="243.654" y="175.094" xlink:href="#dot"  stroke="#ff0000" />
<use x="89.8266" y="133.877" xlink:href="#dot"  stroke="#00ebff" />
<use x="114.152" y="129.303" xlink:href="#dot"  stroke="#ffe100" />
<use x="233.967" y="198.479" xlink:href="#dot"  stroke="#ff0000" />
<use x="96.05" y="118.852" xlink:href="#dot"  stroke="#00ebff" />
<use x="120.73" y="120.73" xlink:href="#dot"  stroke="#ffe100" />
<use x="218.559" y="218.559" xlink:href="#dot"  stroke="#ff0000" />
<use x="105.95" y="105.95" xlink:href="#dot"  stroke="#00ebff" />
<use x="129.303" y="114.152" xlink:href="#dot"  stroke="#ffe100" />
<use x="198.479" y="233.967" xlink:href="#dot"  stroke="#ff0000" />
<use x="118.852" y="96.05" xlink:href="#dot"  stroke="#00ebff" />
<use x="139.286" y="110.016" xlink:href="#dot"  stroke="#ffe100" />
<use x="175.094" y="243.654" xlink:href="#dot"  stroke="#ff0000" />
<use x="133.877" y="89.8266" xlink:href="#dot"  stroke="#00ebff" />
<use x="150" y="108.606" xlink:href="#dot"  stroke="#ffe100" />
<use x="150" y="246.957" xlink:href="#dot"  stroke="#ff0000" />
<use x="150" y="87.704" xlink:href="#dot"  stroke="#00ebff" />
<use x="160.714" y="110.016" xlink:href="#dot"  stroke="#ffe100" />
<use x="124.906" y="243.654" xlink:href="#dot"  stroke="#ff0000" />
<use x="166.123" y="89.8266" xlink:href="#dot"  stroke="#00ebff" />
<use x="170.697" y="114.152" xlink:href="#dot"  stroke="#ffe100" />
<use x="101.521" y="233.967" xlink:href="#dot"  stroke="#ff0000" />
<use x="181.148" y="96.05" xlink:href="#dot"  stroke="#00ebff" />
<use x="179.27" y="120.73" xlink:href="#dot"  stroke="#ffe100" />
<use x="81.4408" y="218.559" xlink:href="#dot"  stroke="#ff0000" />
<use x="194.05" y="105.95" xlink:href="#dot"  stroke="#00ebff" />
<use x="185.848" y="129.303" xlink:href="#dot"  stroke="#ffe100" />
<use x="66.0325" y="198.479" xlink:href="#dot"  stroke="#ff0000" />
<use x="203.95" y="118.852" xlink:href="#dot"  stroke="#00ebff" />
<use x="189.984" y="139.286" xlink:href="#dot"  stroke="#ffe100" />
<use x="56.3464" y="175.094" xlink:href="#dot"  stroke="#ff0000" />
<use x="210.173" y="133.877" xlink:href="#dot"  stroke="#00ebff" />
<use x="191.394" y="150" xlink:href="#dot"  stroke="#ffe100" />
<use x="53.0427" y="150" xlink:href="#dot"  stroke="#ff0000" />
<use x="212.296" y="150" xlink:href="#dot"  stroke="#00ebff" />
<use x="189.984" y="160.714" xlink:href="#dot"  stroke="#ffe100" />
<use x="56.3464" y="124.906" xlink:href="#dot"  stroke="#ff0000" />
<use x="210.173" y="166.123" xlink:href="#dot"  stroke="#00ebff" />
<use x="185.848" y="170.697" xlink:href="#dot"  stroke="#ffe100" />
<use x="66.0325" y="101.521" xlink:href="#dot"  stroke="#ff0000" />
<use x="203.95" y="181.148" xlink:href="#dot"  stroke="#00ebff" />
<use x="179.27" y="179.27" xlink:href="#dot"  stroke="#ffe100" />
<use x="81.4408" y="81.4408" xlink:href="#dot"  stroke="#ff0000" />
<use x="194.05" y="194.05" xlink:href="#dot"  stroke="#00ebff" />
<use x="170.697" y="185.848" xlink:href="#dot"  stroke="#ffe100" />
<use x="101.521" y="66.0325" xlink:href="#dot"  stroke="#ff0000" />
<use x="181.148" y="203.95" xlink:href="#dot"  stroke="#00ebff" />
<use x="160.714" y="189.984" xlink:href="#dot"  stroke="#ffe100" />
<use x="124.906" y="56.3464" xlink:href="#dot"  stroke="#ff0000" />
<use x="166.123" y="210.173" xlink:href="#dot"  stroke="#00ebff" />
<use x="150" y="166.637" xlink:href="#dot"  stroke="#ffe100" />
<use x="150" y="71.958" xlink:href="#dot"  stroke="#ff0000" />
<use x="150" y="188.725" xlink:href="#dot"  stroke="#00ebff" />
<use x="144.31" y="165.634" xlink:href="#dot"  stroke="#ffe100" />
<use x="176.692" y="76.6645" xlink:href="#dot"  stroke="#ff0000" />
<use x="136.755" y="186.39" xlink:href="#dot"  stroke="#00ebff" />
<use x="139.306" y="162.745" xlink:href="#dot"  stroke="#ffe100" />
<use x="200.164" y="90.2163" xlink:href="#dot"  stroke="#ff0000" />
<use x="125.108" y="179.665" xlink:href="#dot"  stroke="#00ebff" />
<use x="135.592" y="158.319" xlink:href="#dot"  stroke="#ffe100" />
<use x="217.586" y="110.979" xlink:href="#dot"  stroke="#ff0000" />
<use x="116.463" y="169.363" xlink:href="#dot"  stroke="#00ebff" />
<use x="133.616" y="152.889" xlink:href="#dot"  stroke="#ffe100" />
<use x="226.856" y="136.448" xlink:href="#dot"  stroke="#ff0000" />
<use x="111.863" y="156.725" xlink:href="#dot"  stroke="#00ebff" />
<use x="133.616" y="147.111" xlink:href="#dot"  stroke="#ffe100" />
<use x="226.856" y="163.552" xlink:href="#dot"  stroke="#ff0000" />
<use x="111.863" y="143.275" xlink:href="#dot"  stroke="#00ebff" />
<use x="135.592" y="141.681" xlink:href="#dot"  stroke="#ffe100" />
<use x="217.586" y="189.021" xlink:href="#dot"  stroke="#ff0000" />
<use x="116.463" y="130.637" xlink:href="#dot"  stroke="#00ebff" />
<use x="139.306" y="137.255" xlink:href="#dot"  stroke="#ffe100" />
<use x="200.164" y="209.784" xlink:href="#dot"  stroke="#ff0000" />
<use x="125.108" y="120.335" xlink:href="#dot"  stroke="#00ebff" />
<use x="144.31" y="134.366" xlink:href="#dot"  stroke="#ffe100" />
<use x="176.692" y="223.336" xlink:href="#dot"  stroke="#ff0000" />
<use x="136.755" y="113.61" xlink:href="#dot"  stroke="#00ebff" />
<use x="150" y="133.363" xlink:href="#dot"  stroke="#ffe100" />
<use x="150" y="228.042" xlink:href="#dot"  stroke="#ff0000" />
<use x="150" y="111.275" xlink:href="#dot"  stroke="#00ebff" />
<use x="155.69" y="134.366" xlink:href="#dot"  stroke="#ffe100" />
<use x="123.308" y="223.336" xlink:href="#dot"  stroke="#ff0000" />
<use x="163.245" y="113.61" xlink:href="#dot"  stroke="#00ebff" />
<use x="160.694" y="137.255" xlink:href="#dot"  stroke="#ffe100" />
<use x="99.8356" y="209.784" xlink:href="#dot"  stroke="#ff0000" />
<use x="174.892" y="120.335" xlink:href="#dot"  stroke="#00ebff" />
<use x="164.408" y="141.681" xlink:href="#dot"  stroke="#ffe100" />
<use x="82.4136" y="189.021" xlink:href="#dot"  stroke="#ff0000" />
<use x="183.537" y="130.637" xlink:href="#dot"  stroke="#00ebff" />
<use x="166.384" y="147.111" xlink:href="#dot"  stroke="#ffe100" />
<use x="73.1436" y="163.552" xlink:href="#dot"  stroke="#ff0000" />
<use x="188.137" y="143.275" xlink:href="#dot"  stroke="#00ebff" />
<use x="166.384" y="152.889" xlink:href="#dot"  stroke="#ffe100" />
<use x="73.1436" y="136.448" xlink:href="#dot"  stroke="#ff0000" />
<use x="188.137" y="156.725" xlink:href="#dot"  stroke="#00ebff" />
<use x="164.408" y="158.319" xlink:href="#dot"  stroke="#ffe100" />
<use x="82.4136" y="110.979" xlink:href="#dot"  stroke="#ff0000" />
<use x="183.537" y="169.363" xlink:href="#dot"  stroke="#00ebff" />
<use x="160.694" y="162.745" xlink:href="#dot"  stroke="#ffe100" />
<use x="99.8356" y="90.2163" xlink:href="#dot"  stroke="#ff0000" />
<use x="174.892" y="179.665" xlink:href="#dot"  stroke="#00ebff" />
<use x="155.69" y="165.634" xlink:href="#dot"  stroke="#ffe100" />
<use x="123.308" y="76.6645" xlink:href="#dot"  stroke="#ff0000" />
<use x="163.245" y="186.39" xlink:href="#dot"  stroke="#00ebff" />
<use x="150" y="152.858" xlink:href="#dot"  stroke="#ffe100" />
<use x="150" y="104.641" xlink:href="#dot"  stroke="#ff0000" />
<use x="150" y="166.759" xlink:href="#dot"  stroke="#00ebff" />
<use x="148.571" y="152.475" xlink:href="#dot"  stroke="#ffe100" />
<use x="172.68" y="110.718" xlink:href="#dot"  stroke="#ff0000" />
<use x="141.621" y="164.513" xlink:href="#dot"  stroke="#00ebff" />
<use x="147.525" y="151.429" xlink:href="#dot"  stroke="#ffe100" />
<use x="189.282" y="127.32" xlink:href="#dot"  stroke="#ff0000" />
<use x="135.487" y="158.379" xlink:href="#dot"  stroke="#00ebff" />
<use x="147.142" y="150" xlink:href="#dot"  stroke="#ffe100" />
<use x="195.359" y="150" xlink:href="#dot"  stroke="#ff0000" />
<use x="133.241" y="150" xlink:href="#dot"  stroke="#00ebff" />
<use x="147.525" y="148.571" xlink:href="#dot"  stroke="#ffe100" />
<use x="189.282" y="172.68" xlink:href="#dot"  stroke="#ff0000" />
<use x="135.487" y="141.621" xlink:href="#dot"  stroke="#00ebff" />
<use x="148.571" y="147.525" xlink:href="#dot"  stroke="#ffe100" />
<use x="172.68" y="189.282" xlink:href="#dot"  stroke="#ff0000" />
<use x="141.621" y="135.487" xlink:href="#dot"  stroke="#00ebff" />
<use x="150" y="147.142" xlink:href="#dot"  stroke="#ffe100" />
<use x="150" y="195.359" xlink:href="#dot"  stroke="#ff0000" />
<use x="150" y="133.241" xlink:href="#dot"  stroke="#00ebff" />
<use x="151.429" y="147.525" xlink:href="#dot"  stroke="#ffe100" />
<use x="127.32" y="189.282" xlink:href="#dot"  stroke="#ff0000" />
<use x="158.379" y="135.487" xlink:href="#dot"  stroke="#00ebff" />
<use x="152.475" y="148.571" xlink:href="#dot"  stroke="#ffe100" />
<use x="110.718" y="172.68" xlink:href="#dot"  stroke="#ff0000" />
<use x="164.513" y="141.621" xlink:href="#dot"  stroke="#00ebff" />
<use x="152.858" y="150" xlink:href="#dot"  stroke="#ffe100" />
<use x="104.641" y="150" xlink:href="#dot"  stroke="#ff0000" />
<use x="166.759" y="150" xlink:href="#dot"  stroke="#00ebff" />
<use x="152.475" y="151.429" xlink:href="#dot"  stroke="#ffe100" />
<use x="110.718" y="127.32" xlink:href="#dot"  stroke="#ff0000" />
<use x="164.513" y="158.379" xlink:href="#dot"  stroke="#00ebff" />
<use x="151.429" y="152.475" xlink:href="#dot"  stroke="#ffe100" />
<use x="127.32" y="110.718" xlink:href="#dot"  stroke="#ff0000" />
<use x="158.379" y="164.513" xlink:href="#dot"  stroke="#00ebff" />
</svg>
