<?xml version="1.0" standalone="no"?>
<svg width="640px" height="480px" version="1.1" xmlns="http://www.w3.org/2000/svg" xmlns:xlink="http://www.w3.org/1999/xlink">
<rect x="0" y="0" width="640" height="480"  fill="#ffffff" />
<defs>
<g id="dot">
<line x1="1" y1="1" x2="0" y2="0"  />
</g>
<g id="cross">
<line x1="-3" y1="0" x2="3" y2="0"  />
<line x1="0" y1="-3" x2="0" y2="3"  />
</g>
<g id="square">
<line x1="-3" y1="-3" x2="-3" y2="3"  />
<line x1="-3" y1="3" x2="3" y2="3"  />
<line x1="3" y1="3" x2="3" y2="-3"  />
<line x1="3" y1="-3" x2="-3" y2="-3"  />
</g>
<g id="round">
<ellipse cx="0" cy="0" rx="3" ry="3"  fill="none" /></g>
<g id="triangle">
<line x1="0" y1="-3" x2="-3" y2="3"  />
<line x1="-3" y1="3" x2="3" y2="3"  />
<line x1="0" y1="-3" x2="3" y2="3"  />
</g>
</defs>
<polygon fill="none" stroke="#000000" points="66.0317,430.476 66.0317,49.5238 573.968,49.5238 573.968,430.476 " />
<text style="font-size:12;text-align:center;text-anchor:middle;" x="320" y="473.619" fill="#000000">Distance from spot centroid (um)</text>
<use x="66.0317" y="49.5238" xlink:href="#cross"  stroke="#000000" />
<use x="66.0317" y="430.476" xlink:href="#cross"  stroke="#000000" />
<text style="font-size:12;text-align:center;text-anchor:middle;" x="66.0317" y="448.476" fill="#000000">0</text>
<use x="141.914" y="49.5238" xlink:href="#cross"  stroke="#000000" />
<use x="141.914" y="430.476" xlink:href="#cross"  stroke="#000000" />
<text style="font-size:12;text-align:center;text-anchor:middle;" x="141.914" y="448.476" fill="#000000">5</text>
<use x="217.796" y="49.5238" xlink:href="#cross"  stroke="#000000" />
<use x="217.796" y="430.476" xlink:href="#cross"  stroke="#000000" />
<text style="font-size:12;text-align:center;text-anchor:middle;" x="217.796" y="448.476" fill="#000000">10</text>
<use x="293.678" y="49.5238" xlink:href="#cross"  stroke="#000000" />
<use x="293.678" y="430.476" xlink:href="#cross"  stroke="#000000" />
<text style="font-size:12;text-align:center;text-anchor:middle;" x="293.678" y="448.476" fill="#000000">15</text>
<use x="369.56" y="49.5238" xlink:href="#cross"  stroke="#000000" />
<use x="369.56" y="430.476" xlink:href="#cross"  stroke="#000000" />
<text style="font-size:12;text-align:center;text-anchor:middle;" x="369.56" y="448.476" fill="#000000">20</text>
<use x="445.441" y="49.5238" xlink:href="#cross"  stroke="#000000" />
<use x="445.441" y="430.476" xlink:href="#cross"  stroke="#000000" />
<text style="font-size:12;text-align:center;text-anchor:middle;" x="445.441" y="448.476" fill="#000000">25</text>
<use x="521.323" y="49.5238" xlink:href="#cross"  stroke="#000000" />
<use x="521.323" y="430.476" xlink:href="#cross"  stroke="#000000" />
<text style="font-size:12;text-align:center;text-anchor:middle;" x="521.323" y="448.476" fill="#000000">30</text>
<text style="font-size:12;text-align:center;text-anchor:middle;" x="16.5079" y="246" transform="rotate(-90,16.5079,240)" fill="#000000">Encircled intensity</text>
<use x="573.968" y="430.476" xlink:href="#cross"  stroke="#000000" />
<use x="66.0317" y="430.476" xlink:href="#cross"  stroke="#000000" />
<text style="font-size:12;text-align:right;text-anchor:end;" x="60.0317" y="436.476" fill="#000000">0</text>
<use x="573.968" y="358.598" xlink:href="#cross"  stroke="#000000" />
<use x="66.0317" y="358.598" xlink:href="#cross"  stroke="#000000" />
<text style="font-size:12;text-align:right;text-anchor:end;" x="60.0317" y="364.598" fill="#000000">10</text>
<use x="573.968" y="286.721" xlink:href="#cross"  stroke="#000000" />
<use x="66.0317" y="286.721" xlink:href="#cross"  stroke="#000000" />
<text style="font-size:12;text-align:right;text-anchor:end;" x="60.0317" y="292.721" fill="#000000">20</text>
<use x="573.968" y="214.843" xlink:href="#cross"  stroke="#000000" />
<use x="66.0317" y="214.843" xlink:href="#cross"  stroke="#000000" />
<text style="font-size:12;text-align:right;text-anchor:end;" x="60.0317" y="220.843" fill="#000000">30</text>
<use x="573.968" y="142.965" xlink:href="#cross"  stroke="#000000" />
<use x="66.0317" y="142.965" xlink:href="#cross"  stroke="#000000" />
<text style="font-size:12;text-align:right;text-anchor:end;" x="60.0317" y="148.965" fill="#000000">40</text>
<use x="573.968" y="71.0872" xlink:href="#cross"  stroke="#000000" />
<use x="66.0317" y="71.0872" xlink:href="#cross"  stroke="#000000" />
<text style="font-size:12;text-align:right;text-anchor:end;" x="60.0317" y="77.0872" fill="#000000">50</text>
<text style="font-size:18;text-align:center;text-anchor:middle;" x="320" y="33.7619" fill="#000000">Spot diagram encircled rays intensity</text>
<line x1="66.0317" y1="430.476" x2="76.1905" y2="430.476"  stroke="#00ebff" />
<line x1="76.1905" y1="430.476" x2="86.3492" y2="430.476"  stroke="#00ebff" />
<line x1="86.3492" y1="430.476" x2="96.5079" y2="430.476"  stroke="#00ebff" />
<line x1="96.5079" y1="430.476" x2="106.667" y2="430.476"  stroke="#00ebff" />
<line x1="106.667" y1="430.476" x2="116.825" y2="423.288"  stroke="#00ebff" />
<line x1="116.825" y1="423.288" x2="126.984" y2="394.537"  stroke="#00ebff" />
<line x1="126.984" y1="394.537" x2="137.143" y2="394.537"  stroke="#00ebff" />
<line x1="137.143" y1="394.537" x2="147.302" y2="365.786"  stroke="#00ebff" />
<line x1="147.302" y1="365.786" x2="157.46" y2="365.786"  stroke="#00ebff" />
<line x1="157.46" y1="365.786" x2="167.619" y2="351.411"  stroke="#00ebff" />
<line x1="167.619" y1="351.411" x2="177.778" y2="351.411"  stroke="#00ebff" />
<line x1="177.778" y1="351.411" x2="187.937" y2="351.411"  stroke="#00ebff" />
<line x1="187.937" y1="351.411" x2="198.095" y2="337.035"  stroke="#00ebff" />
<line x1="198.095" y1="337.035" x2="208.254" y2="337.035"  stroke="#00ebff" />
<line x1="208.254" y1="337.035" x2="218.413" y2="315.472"  stroke="#00ebff" />
<line x1="218.413" y1="315.472" x2="228.571" y2="301.096"  stroke="#00ebff" />
<line x1="228.571" y1="301.096" x2="238.73" y2="286.721"  stroke="#00ebff" />
<line x1="238.73" y1="286.721" x2="248.889" y2="265.157"  stroke="#00ebff" />
<line x1="248.889" y1="265.157" x2="259.048" y2="250.782"  stroke="#00ebff" />
<line x1="259.048" y1="250.782" x2="269.206" y2="250.782"  stroke="#00ebff" />
<line x1="269.206" y1="250.782" x2="279.365" y2="222.031"  stroke="#00ebff" />
<line x1="279.365" y1="222.031" x2="289.524" y2="193.279"  stroke="#00ebff" />
<line x1="289.524" y1="193.279" x2="299.683" y2="193.279"  stroke="#00ebff" />
<line x1="299.683" y1="193.279" x2="309.841" y2="178.904"  stroke="#00ebff" />
<line x1="309.841" y1="178.904" x2="320" y2="171.716"  stroke="#00ebff" />
<line x1="320" y1="171.716" x2="330.159" y2="171.716"  stroke="#00ebff" />
<line x1="330.159" y1="171.716" x2="340.317" y2="157.341"  stroke="#00ebff" />
<line x1="340.317" y1="157.341" x2="350.476" y2="135.777"  stroke="#00ebff" />
<line x1="350.476" y1="135.777" x2="360.635" y2="135.777"  stroke="#00ebff" />
<line x1="360.635" y1="135.777" x2="370.794" y2="135.777"  stroke="#00ebff" />
<line x1="370.794" y1="135.777" x2="380.952" y2="135.777"  stroke="#00ebff" />
<line x1="380.952" y1="135.777" x2="391.111" y2="135.777"  stroke="#00ebff" />
<line x1="391.111" y1="135.777" x2="401.27" y2="135.777"  stroke="#00ebff" />
<line x1="401.27" y1="135.777" x2="411.429" y2="135.777"  stroke="#00ebff" />
<line x1="411.429" y1="135.777" x2="421.587" y2="135.777"  stroke="#00ebff" />
<line x1="421.587" y1="135.777" x2="431.746" y2="135.777"  stroke="#00ebff" />
<line x1="431.746" y1="135.777" x2="441.905" y2="135.777"  stroke="#00ebff" />
<line x1="441.905" y1="135.777" x2="452.063" y2="135.777"  stroke="#00ebff" />
<line x1="452.063" y1="135.777" x2="462.222" y2="135.777"  stroke="#00ebff" />
<line x1="462.222" y1="135.777" x2="472.381" y2="135.777"  stroke="#00ebff" />
<line x1="472.381" y1="135.777" x2="482.54" y2="128.589"  stroke="#00ebff" />
<line x1="482.54" y1="128.589" x2="492.698" y2="114.214"  stroke="#00ebff" />
<line x1="492.698" y1="114.214" x2="502.857" y2="114.214"  stroke="#00ebff" />
<line x1="502.857" y1="114.214" x2="513.016" y2="99.8383"  stroke="#00ebff" />
<line x1="513.016" y1="99.8383" x2="523.175" y2="99.8383"  stroke="#00ebff" />
<line x1="523.175" y1="99.8383" x2="533.333" y2="99.8383"  stroke="#00ebff" />
<line x1="533.333" y1="99.8383" x2="543.492" y2="85.4627"  stroke="#00ebff" />
<line x1="543.492" y1="85.4627" x2="553.651" y2="85.4627"  stroke="#00ebff" />
<line x1="553.651" y1="85.4627" x2="563.81" y2="78.2749"  stroke="#00ebff" />
<line x1="563.81" y1="78.2749" x2="573.968" y2="71.0872"  stroke="#00ebff" />
<line x1="66.0317" y1="430.476" x2="76.1905" y2="430.476"  stroke="#ffe100" />
<line x1="76.1905" y1="430.476" x2="86.3492" y2="408.913"  stroke="#ffe100" />
<line x1="86.3492" y1="408.913" x2="96.5079" y2="380.162"  stroke="#ffe100" />
<line x1="96.5079" y1="380.162" x2="106.667" y2="380.162"  stroke="#ffe100" />
<line x1="106.667" y1="380.162" x2="116.825" y2="380.162"  stroke="#ffe100" />
<line x1="116.825" y1="380.162" x2="126.984" y2="380.162"  stroke="#ffe100" />
<line x1="126.984" y1="380.162" x2="137.143" y2="380.162"  stroke="#ffe100" />
<line x1="137.143" y1="380.162" x2="147.302" y2="380.162"  stroke="#ffe100" />
<line x1="147.302" y1="380.162" x2="157.46" y2="301.096"  stroke="#ffe100" />
<line x1="157.46" y1="301.096" x2="167.619" y2="279.533"  stroke="#ffe100" />
<line x1="167.619" y1="279.533" x2="177.778" y2="279.533"  stroke="#ffe100" />
<line x1="177.778" y1="279.533" x2="187.937" y2="279.533"  stroke="#ffe100" />
<line x1="187.937" y1="279.533" x2="198.095" y2="236.406"  stroke="#ffe100" />
<line x1="198.095" y1="236.406" x2="208.254" y2="222.031"  stroke="#ffe100" />
<line x1="208.254" y1="222.031" x2="218.413" y2="207.655"  stroke="#ffe100" />
<line x1="218.413" y1="207.655" x2="228.571" y2="200.467"  stroke="#ffe100" />
<line x1="228.571" y1="200.467" x2="238.73" y2="200.467"  stroke="#ffe100" />
<line x1="238.73" y1="200.467" x2="248.889" y2="157.341"  stroke="#ffe100" />
<line x1="248.889" y1="157.341" x2="259.048" y2="135.777"  stroke="#ffe100" />
<line x1="259.048" y1="135.777" x2="269.206" y2="135.777"  stroke="#ffe100" />
<line x1="269.206" y1="135.777" x2="279.365" y2="135.777"  stroke="#ffe100" />
<line x1="279.365" y1="135.777" x2="289.524" y2="135.777"  stroke="#ffe100" />
<line x1="289.524" y1="135.777" x2="299.683" y2="114.214"  stroke="#ffe100" />
<line x1="299.683" y1="114.214" x2="309.841" y2="85.4627"  stroke="#ffe100" />
<line x1="309.841" y1="85.4627" x2="320" y2="71.0872"  stroke="#ffe100" />
<line x1="320" y1="71.0872" x2="330.159" y2="56.7116"  stroke="#ffe100" />
<line x1="330.159" y1="56.7116" x2="340.317" y2="56.7116"  stroke="#ffe100" />
<line x1="340.317" y1="56.7116" x2="350.476" y2="56.7116"  stroke="#ffe100" />
<line x1="350.476" y1="56.7116" x2="360.635" y2="56.7116"  stroke="#ffe100" />
<line x1="360.635" y1="56.7116" x2="370.794" y2="49.5238"  stroke="#ffe100" />
<line x1="370.794" y1="49.5238" x2="380.952" y2="49.5238"  stroke="#ffe100" />
<line x1="380.952" y1="49.5238" x2="391.111" y2="49.5238"  stroke="#ffe100" />
<line x1="391.111" y1="49.5238" x2="401.27" y2="49.5238"  stroke="#ffe100" />
<line x1="401.27" y1="49.5238" x2="411.429" y2="49.5238"  stroke="#ffe100" />
<line x1="411.429" y1="49.5238" x2="421.587" y2="49.5238"  stroke="#ffe100" />
<line x1="421.587" y1="49.5238" x2="431.746" y2="49.5238"  stroke="#ffe100" />
<line x1="431.746" y1="49.5238" x2="441.905" y2="49.5238"  stroke="#ffe100" />
<line x1="441.905" y1="49.5238" x2="452.063" y2="49.5238"  stroke="#ffe100" />
<line x1="452.063" y1="49.5238" x2="462.222" y2="49.5238"  stroke="#ffe100" />
<line x1="462.222" y1="49.5238" x2="472.381" y2="49.5238"  stroke="#ffe100" />
<line x1="472.381" y1="49.5238" x2="482.54" y2="49.5238"  stroke="#ffe100" />
<line x1="482.54" y1="49.5238" x2="492.698" y2="49.5238"  stroke="#ffe100" />
<line x1="492.698" y1="49.5238" x2="502.857" y2="49.5238"  stroke="#ffe100" />
<line x1="502.857" y1="49.5238" x2="513.016" y2="49.5238"  stroke="#ffe100" />
<line x1="513.016" y1="49.5238" x2="523.175" y2="49.5238"  stroke="#ffe100" />
<line x1="523.175" y1="49.5238" x2="533.333" y2="49.5238"  stroke="#ffe100" />
<line x1="533.333" y1="49.5238" x2="543.492" y2="49.5238"  stroke="#ffe100" />
<line x1="543.492" y1="49.5238" x2="553.651" y2="49.5238"  stroke="#ffe100" />
<line x1="553.651" y1="49.5238" x2="563.81" y2="49.5238"  stroke="#ffe100" />
<line x1="563.81" y1="49.5238" x2="573.968" y2="49.5238"  stroke="#ffe100" />
<line x1="66.0317" y1="430.476" x2="76.1905" y2="430.476"  stroke="#ff0000" />
<line x1="76.1905" y1="430.476" x2="86.3492" y2="430.476"  stroke="#ff0000" />
<line x1="86.3492" y1="430.476" x2="96.5079" y2="416.101"  stroke="#ff0000" />
<line x1="96.5079" y1="416.101" x2="106.667" y2="416.101"  stroke="#ff0000" />
<line x1="106.667" y1="416.101" x2="116.825" y2="401.725"  stroke="#ff0000" />
<line x1="116.825" y1="401.725" x2="126.984" y2="358.598"  stroke="#ff0000" />
<line x1="126.984" y1="358.598" x2="137.143" y2="329.847"  stroke="#ff0000" />
<line x1="137.143" y1="329.847" x2="147.302" y2="301.096"  stroke="#ff0000" />
<line x1="147.302" y1="301.096" x2="157.46" y2="293.908"  stroke="#ff0000" />
<line x1="157.46" y1="293.908" x2="167.619" y2="265.157"  stroke="#ff0000" />
<line x1="167.619" y1="265.157" x2="177.778" y2="250.782"  stroke="#ff0000" />
<line x1="177.778" y1="250.782" x2="187.937" y2="236.406"  stroke="#ff0000" />
<line x1="187.937" y1="236.406" x2="198.095" y2="222.031"  stroke="#ff0000" />
<line x1="198.095" y1="222.031" x2="208.254" y2="207.655"  stroke="#ff0000" />
<line x1="208.254" y1="207.655" x2="218.413" y2="193.279"  stroke="#ff0000" />
<line x1="218.413" y1="193.279" x2="228.571" y2="193.279"  stroke="#ff0000" />
<line x1="228.571" y1="193.279" x2="238.73" y2="178.904"  stroke="#ff0000" />
<line x1="238.73" y1="178.904" x2="248.889" y2="178.904"  stroke="#ff0000" />
<line x1="248.889" y1="178.904" x2="259.048" y2="164.528"  stroke="#ff0000" />
<line x1="259.048" y1="164.528" x2="269.206" y2="164.528"  stroke="#ff0000" />
<line x1="269.206" y1="164.528" x2="279.365" y2="150.153"  stroke="#ff0000" />
<line x1="279.365" y1="150.153" x2="289.524" y2="135.777"  stroke="#ff0000" />
<line x1="289.524" y1="135.777" x2="299.683" y2="121.402"  stroke="#ff0000" />
<line x1="299.683" y1="121.402" x2="309.841" y2="121.402"  stroke="#ff0000" />
<line x1="309.841" y1="121.402" x2="320" y2="121.402"  stroke="#ff0000" />
<line x1="320" y1="121.402" x2="330.159" y2="107.026"  stroke="#ff0000" />
<line x1="330.159" y1="107.026" x2="340.317" y2="107.026"  stroke="#ff0000" />
<line x1="340.317" y1="107.026" x2="350.476" y2="107.026"  stroke="#ff0000" />
<line x1="350.476" y1="107.026" x2="360.635" y2="107.026"  stroke="#ff0000" />
<line x1="360.635" y1="107.026" x2="370.794" y2="92.6505"  stroke="#ff0000" />
<line x1="370.794" y1="92.6505" x2="380.952" y2="92.6505"  stroke="#ff0000" />
<line x1="380.952" y1="92.6505" x2="391.111" y2="92.6505"  stroke="#ff0000" />
<line x1="391.111" y1="92.6505" x2="401.27" y2="92.6505"  stroke="#ff0000" />
<line x1="401.27" y1="92.6505" x2="411.429" y2="78.2749"  stroke="#ff0000" />
<line x1="411.429" y1="78.2749" x2="421.587" y2="63.8994"  stroke="#ff0000" />
<line x1="421.587" y1="63.8994" x2="431.746" y2="63.8994"  stroke="#ff0000" />
<line x1="431.746" y1="63.8994" x2="441.905" y2="63.8994"  stroke="#ff0000" />
<line x1="441.905" y1="63.8994" x2="452.063" y2="63.8994"  stroke="#ff0000" />
<line x1="452.063" y1="63.8994" x2="462.222" y2="49.5238"  stroke="#ff0000" />
<line x1="462.222" y1="49.5238" x2="472.381" y2="49.5238"  stroke="#ff0000" />
<line x1="472.381" y1="49.5238" x2="482.54" y2="49.5238"  stroke="#ff0000" />
<line x1="482.54" y1="49.5238" x2="492.698" y2="49.5238"  stroke="#ff0000" />
<line x1="492.698" y1="49.5238" x2="502.857" y2="49.5238"  stroke="#ff0000" />
<line x1="502.857" y1="49.5238" x2="513.016" y2="49.5238"  stroke="#ff0000" />
<line x1="513.016" y1="49.5238" x2="523.175" y2="49.5238"  stroke="#ff0000" />
<line x1="523.175" y1="49.5238" x2="533.333" y2="49.5238"  stroke="#ff0000" />
<line x1="533.333" y1="49.5238" x2="543.492" y2="49.5238"  stroke="#ff0000" />
<line x1="543.492" y1="49.5238" x2="553.651" y2="49.5238"  stroke="#ff0000" />
<line x1="553.651" y1="49.5238" x2="563.81" y2="49.5238"  stroke="#ff0000" />
<line x1="563.81" y1="49.5238" x2="573.968" y2="49.5238"  stroke="#ff0000" />
</svg>
