<?xml version="1.0" standalone="no"?>
<svg width="640px" height="480px" version="1.1" xmlns="http://www.w3.org/2000/svg" xmlns:xlink="http://www.w3.org/1999/xlink">
<rect x="0" y="0" width="640" height="480"  fill="#ffffff" />
<defs>
<g id="dot">
<line x1="1" y1="1" x2="0" y2="0"  />
</g>
<g id="cross">
<line x1="-3" y1="0" x2="3" y2="0"  />
<line x1="0" y1="-3" x2="0" y2="3"  />
</g>
<g id="square">
<line x1="-3" y1="-3" x2="-3" y2="3"  />
<line x1="-3" y1="3" x2="3" y2="3"  />
<line x1="3" y1="3" x2="3" y2="-3"  />
<line x1="3" y1="-3" x2="-3" y2="-3"  />
</g>
<g id="round">
<ellipse cx="0" cy="0" rx="3" ry="3"  fill="none" /></g>
<g id="triangle">
<line x1="0" y1="-3" x2="-3" y2="3"  />
<line x1="-3" y1="3" x2="3" y2="3"  />
<line x1="0" y1="-3" x2="3" y2="3"  />
</g>
</defs>
<polygon fill="none" stroke="#000000" points="66.0317,430.476 66.0317,49.5238 573.968,49.5238 573.968,430.476 " />
<text style="font-size:12;text-align:center;text-anchor:middle;" x="320" y="473.619" fill="#000000">Entrance ray height (normalized)</text>
<line x1="66.0317" y1="308.434" x2="573.968" y2="308.434"  stroke="#000000" />
<use x="66.0317" y="308.434" xlink:href="#cross"  stroke="#000000" />
<use x="66.0317" y="49.5238" xlink:href="#cross"  stroke="#000000" />
<use x="66.0317" y="430.476" xlink:href="#cross"  stroke="#000000" />
<text style="font-size:12;text-align:center;text-anchor:middle;" x="66.0317" y="448.476" fill="#000000">-1</text>
<use x="320" y="308.434" xlink:href="#cross"  stroke="#000000" />
<use x="320" y="49.5238" xlink:href="#cross"  stroke="#000000" />
<use x="320" y="430.476" xlink:href="#cross"  stroke="#000000" />
<text style="font-size:12;text-align:center;text-anchor:middle;" x="320" y="448.476" fill="#000000">0</text>
<use x="573.968" y="308.434" xlink:href="#cross"  stroke="#000000" />
<use x="573.968" y="49.5238" xlink:href="#cross"  stroke="#000000" />
<use x="573.968" y="430.476" xlink:href="#cross"  stroke="#000000" />
<text style="font-size:12;text-align:center;text-anchor:middle;" x="573.968" y="448.476" fill="#000000">1</text>
<text style="font-size:12;text-align:center;text-anchor:middle;" x="16.5079" y="246" transform="rotate(-90,16.5079,240)" fill="#000000">Longitudinal ray aberration (um)</text>
<line x1="320" y1="430.476" x2="320" y2="49.5238"  stroke="#000000" />
<use x="320" y="391.524" xlink:href="#cross"  stroke="#000000" />
<use x="573.968" y="391.524" xlink:href="#cross"  stroke="#000000" />
<use x="66.0317" y="391.524" xlink:href="#cross"  stroke="#000000" />
<text style="font-size:12;text-align:right;text-anchor:end;" x="60.0317" y="397.524" fill="#000000">-40</text>
<use x="320" y="349.979" xlink:href="#cross"  stroke="#000000" />
<use x="573.968" y="349.979" xlink:href="#cross"  stroke="#000000" />
<use x="66.0317" y="349.979" xlink:href="#cross"  stroke="#000000" />
<text style="font-size:12;text-align:right;text-anchor:end;" x="60.0317" y="355.979" fill="#000000">-20</text>
<use x="320" y="308.434" xlink:href="#cross"  stroke="#000000" />
<use x="573.968" y="308.434" xlink:href="#cross"  stroke="#000000" />
<use x="66.0317" y="308.434" xlink:href="#cross"  stroke="#000000" />
<text style="font-size:12;text-align:right;text-anchor:end;" x="60.0317" y="314.434" fill="#000000">0</text>
<use x="320" y="266.889" xlink:href="#cross"  stroke="#000000" />
<use x="573.968" y="266.889" xlink:href="#cross"  stroke="#000000" />
<use x="66.0317" y="266.889" xlink:href="#cross"  stroke="#000000" />
<text style="font-size:12;text-align:right;text-anchor:end;" x="60.0317" y="272.889" fill="#000000">20</text>
<use x="320" y="225.344" xlink:href="#cross"  stroke="#000000" />
<use x="573.968" y="225.344" xlink:href="#cross"  stroke="#000000" />
<use x="66.0317" y="225.344" xlink:href="#cross"  stroke="#000000" />
<text style="font-size:12;text-align:right;text-anchor:end;" x="60.0317" y="231.344" fill="#000000">40</text>
<use x="320" y="183.799" xlink:href="#cross"  stroke="#000000" />
<use x="573.968" y="183.799" xlink:href="#cross"  stroke="#000000" />
<use x="66.0317" y="183.799" xlink:href="#cross"  stroke="#000000" />
<text style="font-size:12;text-align:right;text-anchor:end;" x="60.0317" y="189.799" fill="#000000">60</text>
<use x="320" y="142.254" xlink:href="#cross"  stroke="#000000" />
<use x="573.968" y="142.254" xlink:href="#cross"  stroke="#000000" />
<use x="66.0317" y="142.254" xlink:href="#cross"  stroke="#000000" />
<text style="font-size:12;text-align:right;text-anchor:end;" x="60.0317" y="148.254" fill="#000000">80</text>
<use x="320" y="100.709" xlink:href="#cross"  stroke="#000000" />
<use x="573.968" y="100.709" xlink:href="#cross"  stroke="#000000" />
<use x="66.0317" y="100.709" xlink:href="#cross"  stroke="#000000" />
<text style="font-size:12;text-align:right;text-anchor:end;" x="60.0317" y="106.709" fill="#000000">100</text>
<use x="320" y="59.1636" xlink:href="#cross"  stroke="#000000" />
<use x="573.968" y="59.1636" xlink:href="#cross"  stroke="#000000" />
<use x="66.0317" y="59.1636" xlink:href="#cross"  stroke="#000000" />
<text style="font-size:12;text-align:right;text-anchor:end;" x="60.0317" y="65.1636" fill="#000000">120</text>
<text style="font-size:18;text-align:center;text-anchor:middle;" x="320" y="33.7619" fill="#000000">Longitudinal ray aberration fan (tangential)</text>
<path fill="none"  stroke="#00ebff" d="M269.257,421.662 S280.533,431.98 286.171,430.476 S294.629,415.614 303.086,412.641 S328.457,409.669 336.914,412.641 S348.19,428.973 353.829,430.476 S367.924,423.131 370.743,421.662 " />
<path fill="none"  stroke="#ffe100" d="M269.257,400.051 S280.533,391.778 286.171,380.899 S294.629,342.465 303.086,334.778 S328.457,327.091 336.914,334.778 S348.19,370.021 353.829,380.899 S367.924,396.859 370.743,400.051 " />
<path fill="none"  stroke="#ff0000" d="M269.257,132.201 S280.533,118.574 286.171,104.795 S294.629,58.7356 303.086,49.5238 S328.457,40.312 336.914,49.5238 S348.19,91.0153 353.829,104.795 S367.924,127.633 370.743,132.201 " />
</svg>
