<?xml version="1.0" standalone="no"?>
<svg width="300px" height="300px" version="1.1" xmlns="http://www.w3.org/2000/svg" xmlns:xlink="http://www.w3.org/1999/xlink">
<rect x="0" y="0" width="300" height="300"  fill="#000000" />
<defs>
<g id="dot">
<line x1="1" y1="1" x2="0" y2="0"  />
</g>
<g id="cross">
<line x1="-3" y1="0" x2="3" y2="0"  />
<line x1="0" y1="-3" x2="0" y2="3"  />
</g>
<g id="square">
<line x1="-3" y1="-3" x2="-3" y2="3"  />
<line x1="-3" y1="3" x2="3" y2="3"  />
<line x1="3" y1="3" x2="3" y2="-3"  />
<line x1="3" y1="-3" x2="-3" y2="-3"  />
</g>
<g id="round">
<ellipse cx="0" cy="0" rx="3" ry="3"  fill="none" /></g>
<g id="triangle">
<line x1="0" y1="-3" x2="-3" y2="3"  />
<line x1="-3" y1="3" x2="3" y2="3"  />
<line x1="0" y1="-3" x2="3" y2="3"  />
</g>
</defs>
<polygon fill="none" stroke="#ffffff" points="30.9524,269.048 30.9524,30.9524 269.048,30.9524 269.048,269.048 " />
<text style="font-size:12;text-align:center;text-anchor:middle;" x="150" y="298.262" fill="#ffffff">Saggital distance (um)</text>
<use x="70.6349" y="30.9524" xlink:href="#cross"  stroke="#ffffff" />
<use x="70.6349" y="269.048" xlink:href="#cross"  stroke="#ffffff" />
<text style="font-size:12;text-align:center;text-anchor:middle;" x="70.6349" y="287.048" fill="#ffffff">-9.82</text>
<use x="150" y="30.9524" xlink:href="#cross"  stroke="#ffffff" />
<use x="150" y="269.048" xlink:href="#cross"  stroke="#ffffff" />
<text style="font-size:12;text-align:center;text-anchor:middle;" x="150" y="287.048" fill="#ffffff">0</text>
<use x="229.365" y="30.9524" xlink:href="#cross"  stroke="#ffffff" />
<use x="229.365" y="269.048" xlink:href="#cross"  stroke="#ffffff" />
<text style="font-size:12;text-align:center;text-anchor:middle;" x="229.365" y="287.048" fill="#ffffff">9.82</text>
<text style="font-size:12;text-align:center;text-anchor:middle;" x="7.7381" y="156" transform="rotate(-90,7.7381,150)" fill="#ffffff">Tangential distance (um)</text>
<use x="269.048" y="229.365" xlink:href="#cross"  stroke="#ffffff" />
<use x="30.9524" y="229.365" xlink:href="#cross"  stroke="#ffffff" />
<text style="font-size:12;text-align:right;text-anchor:end;" x="24.9524" y="235.365" fill="#ffffff">-9.82</text>
<use x="269.048" y="150" xlink:href="#cross"  stroke="#ffffff" />
<use x="30.9524" y="150" xlink:href="#cross"  stroke="#ffffff" />
<text style="font-size:12;text-align:right;text-anchor:end;" x="24.9524" y="156" fill="#ffffff">0</text>
<use x="269.048" y="70.6349" xlink:href="#cross"  stroke="#ffffff" />
<use x="30.9524" y="70.6349" xlink:href="#cross"  stroke="#ffffff" />
<text style="font-size:12;text-align:right;text-anchor:end;" x="24.9524" y="76.6349" fill="#ffffff">9.82</text>
<use x="150" y="150" xlink:href="#dot"  stroke="#ffe100" />
<use x="150" y="150" xlink:href="#dot"  stroke="#ff0000" />
<use x="150" y="150" xlink:href="#dot"  stroke="#00ebff" />
<use x="150" y="269.048" xlink:href="#dot"  stroke="#ffe100" />
<use x="150" y="200.759" xlink:href="#dot"  stroke="#ff0000" />
<use x="150" y="201.361" xlink:href="#dot"  stroke="#00ebff" />
<use x="125.249" y="266.446" xlink:href="#dot"  stroke="#ffe100" />
<use x="139.447" y="199.65" xlink:href="#dot"  stroke="#ff0000" />
<use x="139.321" y="200.239" xlink:href="#dot"  stroke="#00ebff" />
<use x="101.579" y="258.755" xlink:href="#dot"  stroke="#ffe100" />
<use x="129.354" y="196.371" xlink:href="#dot"  stroke="#ff0000" />
<use x="129.11" y="196.921" xlink:href="#dot"  stroke="#00ebff" />
<use x="80.0256" y="246.312" xlink:href="#dot"  stroke="#ffe100" />
<use x="120.165" y="191.065" xlink:href="#dot"  stroke="#ff0000" />
<use x="119.811" y="191.552" xlink:href="#dot"  stroke="#00ebff" />
<use x="61.5304" y="229.658" xlink:href="#dot"  stroke="#ffe100" />
<use x="112.279" y="183.964" xlink:href="#dot"  stroke="#ff0000" />
<use x="111.831" y="184.367" xlink:href="#dot"  stroke="#00ebff" />
<use x="46.9017" y="209.524" xlink:href="#dot"  stroke="#ffe100" />
<use x="106.041" y="175.38" xlink:href="#dot"  stroke="#ff0000" />
<use x="105.52" y="175.681" xlink:href="#dot"  stroke="#00ebff" />
<use x="36.779" y="186.788" xlink:href="#dot"  stroke="#ffe100" />
<use x="101.725" y="165.685" xlink:href="#dot"  stroke="#ff0000" />
<use x="101.153" y="165.871" xlink:href="#dot"  stroke="#00ebff" />
<use x="31.6045" y="162.444" xlink:href="#dot"  stroke="#ffe100" />
<use x="99.5189" y="155.306" xlink:href="#dot"  stroke="#ff0000" />
<use x="98.9202" y="155.369" xlink:href="#dot"  stroke="#00ebff" />
<use x="31.6045" y="137.556" xlink:href="#dot"  stroke="#ffe100" />
<use x="99.5189" y="144.694" xlink:href="#dot"  stroke="#ff0000" />
<use x="98.9202" y="144.631" xlink:href="#dot"  stroke="#00ebff" />
<use x="36.779" y="113.212" xlink:href="#dot"  stroke="#ffe100" />
<use x="101.725" y="134.315" xlink:href="#dot"  stroke="#ff0000" />
<use x="101.153" y="134.129" xlink:href="#dot"  stroke="#00ebff" />
<use x="46.9017" y="90.4762" xlink:href="#dot"  stroke="#ffe100" />
<use x="106.041" y="124.62" xlink:href="#dot"  stroke="#ff0000" />
<use x="105.52" y="124.319" xlink:href="#dot"  stroke="#00ebff" />
<use x="61.5304" y="70.3416" xlink:href="#dot"  stroke="#ffe100" />
<use x="112.279" y="116.036" xlink:href="#dot"  stroke="#ff0000" />
<use x="111.831" y="115.633" xlink:href="#dot"  stroke="#00ebff" />
<use x="80.0256" y="53.6885" xlink:href="#dot"  stroke="#ffe100" />
<use x="120.165" y="108.935" xlink:href="#dot"  stroke="#ff0000" />
<use x="119.811" y="108.448" xlink:href="#dot"  stroke="#00ebff" />
<use x="101.579" y="41.2446" xlink:href="#dot"  stroke="#ffe100" />
<use x="129.354" y="103.629" xlink:href="#dot"  stroke="#ff0000" />
<use x="129.11" y="103.079" xlink:href="#dot"  stroke="#00ebff" />
<use x="125.249" y="33.5539" xlink:href="#dot"  stroke="#ffe100" />
<use x="139.447" y="100.35" xlink:href="#dot"  stroke="#ff0000" />
<use x="139.321" y="99.7612" xlink:href="#dot"  stroke="#00ebff" />
<use x="150" y="30.9524" xlink:href="#dot"  stroke="#ffe100" />
<use x="150" y="99.2409" xlink:href="#dot"  stroke="#ff0000" />
<use x="150" y="98.6388" xlink:href="#dot"  stroke="#00ebff" />
<use x="174.751" y="33.5539" xlink:href="#dot"  stroke="#ffe100" />
<use x="160.553" y="100.35" xlink:href="#dot"  stroke="#ff0000" />
<use x="160.679" y="99.7612" xlink:href="#dot"  stroke="#00ebff" />
<use x="198.421" y="41.2446" xlink:href="#dot"  stroke="#ffe100" />
<use x="170.646" y="103.629" xlink:href="#dot"  stroke="#ff0000" />
<use x="170.89" y="103.079" xlink:href="#dot"  stroke="#00ebff" />
<use x="219.974" y="53.6885" xlink:href="#dot"  stroke="#ffe100" />
<use x="179.835" y="108.935" xlink:href="#dot"  stroke="#ff0000" />
<use x="180.189" y="108.448" xlink:href="#dot"  stroke="#00ebff" />
<use x="238.47" y="70.3416" xlink:href="#dot"  stroke="#ffe100" />
<use x="187.721" y="116.036" xlink:href="#dot"  stroke="#ff0000" />
<use x="188.169" y="115.633" xlink:href="#dot"  stroke="#00ebff" />
<use x="253.098" y="90.4762" xlink:href="#dot"  stroke="#ffe100" />
<use x="193.959" y="124.62" xlink:href="#dot"  stroke="#ff0000" />
<use x="194.48" y="124.319" xlink:href="#dot"  stroke="#00ebff" />
<use x="263.221" y="113.212" xlink:href="#dot"  stroke="#ffe100" />
<use x="198.275" y="134.315" xlink:href="#dot"  stroke="#ff0000" />
<use x="198.847" y="134.129" xlink:href="#dot"  stroke="#00ebff" />
<use x="268.395" y="137.556" xlink:href="#dot"  stroke="#ffe100" />
<use x="200.481" y="144.694" xlink:href="#dot"  stroke="#ff0000" />
<use x="201.08" y="144.631" xlink:href="#dot"  stroke="#00ebff" />
<use x="268.395" y="162.444" xlink:href="#dot"  stroke="#ffe100" />
<use x="200.481" y="155.306" xlink:href="#dot"  stroke="#ff0000" />
<use x="201.08" y="155.369" xlink:href="#dot"  stroke="#00ebff" />
<use x="263.221" y="186.788" xlink:href="#dot"  stroke="#ffe100" />
<use x="198.275" y="165.685" xlink:href="#dot"  stroke="#ff0000" />
<use x="198.847" y="165.871" xlink:href="#dot"  stroke="#00ebff" />
<use x="253.098" y="209.524" xlink:href="#dot"  stroke="#ffe100" />
<use x="193.959" y="175.38" xlink:href="#dot"  stroke="#ff0000" />
<use x="194.48" y="175.681" xlink:href="#dot"  stroke="#00ebff" />
<use x="238.47" y="229.658" xlink:href="#dot"  stroke="#ffe100" />
<use x="187.721" y="183.964" xlink:href="#dot"  stroke="#ff0000" />
<use x="188.169" y="184.367" xlink:href="#dot"  stroke="#00ebff" />
<use x="219.974" y="246.312" xlink:href="#dot"  stroke="#ffe100" />
<use x="179.835" y="191.065" xlink:href="#dot"  stroke="#ff0000" />
<use x="180.189" y="191.552" xlink:href="#dot"  stroke="#00ebff" />
<use x="198.421" y="258.755" xlink:href="#dot"  stroke="#ffe100" />
<use x="170.646" y="196.371" xlink:href="#dot"  stroke="#ff0000" />
<use x="170.89" y="196.921" xlink:href="#dot"  stroke="#00ebff" />
<use x="174.751" y="266.446" xlink:href="#dot"  stroke="#ffe100" />
<use x="160.553" y="199.65" xlink:href="#dot"  stroke="#ff0000" />
<use x="160.679" y="200.239" xlink:href="#dot"  stroke="#00ebff" />
<use x="150" y="236.577" xlink:href="#dot"  stroke="#ffe100" />
<use x="150" y="173.163" xlink:href="#dot"  stroke="#ff0000" />
<use x="150" y="209.894" xlink:href="#dot"  stroke="#00ebff" />
<use x="127.592" y="233.627" xlink:href="#dot"  stroke="#ffe100" />
<use x="144.005" y="172.373" xlink:href="#dot"  stroke="#ff0000" />
<use x="134.498" y="207.854" xlink:href="#dot"  stroke="#00ebff" />
<use x="106.712" y="224.978" xlink:href="#dot"  stroke="#ffe100" />
<use x="138.419" y="170.059" xlink:href="#dot"  stroke="#ff0000" />
<use x="120.053" y="201.87" xlink:href="#dot"  stroke="#00ebff" />
<use x="88.7809" y="211.219" xlink:href="#dot"  stroke="#ffe100" />
<use x="133.621" y="166.379" xlink:href="#dot"  stroke="#ff0000" />
<use x="107.648" y="192.352" xlink:href="#dot"  stroke="#00ebff" />
<use x="75.0222" y="193.288" xlink:href="#dot"  stroke="#ffe100" />
<use x="129.941" y="161.581" xlink:href="#dot"  stroke="#ff0000" />
<use x="98.1299" y="179.947" xlink:href="#dot"  stroke="#00ebff" />
<use x="66.3732" y="172.408" xlink:href="#dot"  stroke="#ffe100" />
<use x="127.627" y="155.995" xlink:href="#dot"  stroke="#ff0000" />
<use x="92.1464" y="165.502" xlink:href="#dot"  stroke="#00ebff" />
<use x="63.4231" y="150" xlink:href="#dot"  stroke="#ffe100" />
<use x="126.837" y="150" xlink:href="#dot"  stroke="#ff0000" />
<use x="90.1056" y="150" xlink:href="#dot"  stroke="#00ebff" />
<use x="66.3732" y="127.592" xlink:href="#dot"  stroke="#ffe100" />
<use x="127.627" y="144.005" xlink:href="#dot"  stroke="#ff0000" />
<use x="92.1464" y="134.498" xlink:href="#dot"  stroke="#00ebff" />
<use x="75.0222" y="106.712" xlink:href="#dot"  stroke="#ffe100" />
<use x="129.941" y="138.419" xlink:href="#dot"  stroke="#ff0000" />
<use x="98.1299" y="120.053" xlink:href="#dot"  stroke="#00ebff" />
<use x="88.7809" y="88.7809" xlink:href="#dot"  stroke="#ffe100" />
<use x="133.621" y="133.621" xlink:href="#dot"  stroke="#ff0000" />
<use x="107.648" y="107.648" xlink:href="#dot"  stroke="#00ebff" />
<use x="106.712" y="75.0222" xlink:href="#dot"  stroke="#ffe100" />
<use x="138.419" y="129.941" xlink:href="#dot"  stroke="#ff0000" />
<use x="120.053" y="98.1299" xlink:href="#dot"  stroke="#00ebff" />
<use x="127.592" y="66.3732" xlink:href="#dot"  stroke="#ffe100" />
<use x="144.005" y="127.627" xlink:href="#dot"  stroke="#ff0000" />
<use x="134.498" y="92.1464" xlink:href="#dot"  stroke="#00ebff" />
<use x="150" y="63.4231" xlink:href="#dot"  stroke="#ffe100" />
<use x="150" y="126.837" xlink:href="#dot"  stroke="#ff0000" />
<use x="150" y="90.1056" xlink:href="#dot"  stroke="#00ebff" />
<use x="172.408" y="66.3732" xlink:href="#dot"  stroke="#ffe100" />
<use x="155.995" y="127.627" xlink:href="#dot"  stroke="#ff0000" />
<use x="165.502" y="92.1464" xlink:href="#dot"  stroke="#00ebff" />
<use x="193.288" y="75.0222" xlink:href="#dot"  stroke="#ffe100" />
<use x="161.581" y="129.941" xlink:href="#dot"  stroke="#ff0000" />
<use x="179.947" y="98.1299" xlink:href="#dot"  stroke="#00ebff" />
<use x="211.219" y="88.7809" xlink:href="#dot"  stroke="#ffe100" />
<use x="166.379" y="133.621" xlink:href="#dot"  stroke="#ff0000" />
<use x="192.352" y="107.648" xlink:href="#dot"  stroke="#00ebff" />
<use x="224.978" y="106.712" xlink:href="#dot"  stroke="#ffe100" />
<use x="170.059" y="138.419" xlink:href="#dot"  stroke="#ff0000" />
<use x="201.87" y="120.053" xlink:href="#dot"  stroke="#00ebff" />
<use x="233.627" y="127.592" xlink:href="#dot"  stroke="#ffe100" />
<use x="172.373" y="144.005" xlink:href="#dot"  stroke="#ff0000" />
<use x="207.854" y="134.498" xlink:href="#dot"  stroke="#00ebff" />
<use x="236.577" y="150" xlink:href="#dot"  stroke="#ffe100" />
<use x="173.163" y="150" xlink:href="#dot"  stroke="#ff0000" />
<use x="209.894" y="150" xlink:href="#dot"  stroke="#00ebff" />
<use x="233.627" y="172.408" xlink:href="#dot"  stroke="#ffe100" />
<use x="172.373" y="155.995" xlink:href="#dot"  stroke="#ff0000" />
<use x="207.854" y="165.502" xlink:href="#dot"  stroke="#00ebff" />
<use x="224.978" y="193.288" xlink:href="#dot"  stroke="#ffe100" />
<use x="170.059" y="161.581" xlink:href="#dot"  stroke="#ff0000" />
<use x="201.87" y="179.947" xlink:href="#dot"  stroke="#00ebff" />
<use x="211.219" y="211.219" xlink:href="#dot"  stroke="#ffe100" />
<use x="166.379" y="166.379" xlink:href="#dot"  stroke="#ff0000" />
<use x="192.352" y="192.352" xlink:href="#dot"  stroke="#00ebff" />
<use x="193.288" y="224.978" xlink:href="#dot"  stroke="#ffe100" />
<use x="161.581" y="170.059" xlink:href="#dot"  stroke="#ff0000" />
<use x="179.947" y="201.87" xlink:href="#dot"  stroke="#00ebff" />
<use x="172.408" y="233.627" xlink:href="#dot"  stroke="#ffe100" />
<use x="155.995" y="172.373" xlink:href="#dot"  stroke="#ff0000" />
<use x="165.502" y="207.854" xlink:href="#dot"  stroke="#00ebff" />
<use x="150" y="195.843" xlink:href="#dot"  stroke="#ffe100" />
<use x="150" y="142.638" xlink:href="#dot"  stroke="#ff0000" />
<use x="150" y="193.057" xlink:href="#dot"  stroke="#00ebff" />
<use x="134.321" y="193.079" xlink:href="#dot"  stroke="#ffe100" />
<use x="152.518" y="143.082" xlink:href="#dot"  stroke="#ff0000" />
<use x="135.274" y="190.461" xlink:href="#dot"  stroke="#00ebff" />
<use x="120.532" y="185.118" xlink:href="#dot"  stroke="#ffe100" />
<use x="154.732" y="144.36" xlink:href="#dot"  stroke="#ff0000" />
<use x="122.323" y="182.984" xlink:href="#dot"  stroke="#00ebff" />
<use x="110.299" y="172.922" xlink:href="#dot"  stroke="#ffe100" />
<use x="156.376" y="146.319" xlink:href="#dot"  stroke="#ff0000" />
<use x="112.711" y="171.529" xlink:href="#dot"  stroke="#00ebff" />
<use x="104.853" y="157.961" xlink:href="#dot"  stroke="#ffe100" />
<use x="157.25" y="148.722" xlink:href="#dot"  stroke="#ff0000" />
<use x="107.597" y="157.477" xlink:href="#dot"  stroke="#00ebff" />
<use x="104.853" y="142.039" xlink:href="#dot"  stroke="#ffe100" />
<use x="157.25" y="151.278" xlink:href="#dot"  stroke="#ff0000" />
<use x="107.597" y="142.523" xlink:href="#dot"  stroke="#00ebff" />
<use x="110.299" y="127.078" xlink:href="#dot"  stroke="#ffe100" />
<use x="156.376" y="153.681" xlink:href="#dot"  stroke="#ff0000" />
<use x="112.711" y="128.471" xlink:href="#dot"  stroke="#00ebff" />
<use x="120.532" y="114.882" xlink:href="#dot"  stroke="#ffe100" />
<use x="154.732" y="155.64" xlink:href="#dot"  stroke="#ff0000" />
<use x="122.323" y="117.016" xlink:href="#dot"  stroke="#00ebff" />
<use x="134.321" y="106.921" xlink:href="#dot"  stroke="#ffe100" />
<use x="152.518" y="156.918" xlink:href="#dot"  stroke="#ff0000" />
<use x="135.274" y="109.539" xlink:href="#dot"  stroke="#00ebff" />
<use x="150" y="104.157" xlink:href="#dot"  stroke="#ffe100" />
<use x="150" y="157.362" xlink:href="#dot"  stroke="#ff0000" />
<use x="150" y="106.943" xlink:href="#dot"  stroke="#00ebff" />
<use x="165.679" y="106.921" xlink:href="#dot"  stroke="#ffe100" />
<use x="147.482" y="156.918" xlink:href="#dot"  stroke="#ff0000" />
<use x="164.726" y="109.539" xlink:href="#dot"  stroke="#00ebff" />
<use x="179.468" y="114.882" xlink:href="#dot"  stroke="#ffe100" />
<use x="145.268" y="155.64" xlink:href="#dot"  stroke="#ff0000" />
<use x="177.677" y="117.016" xlink:href="#dot"  stroke="#00ebff" />
<use x="189.701" y="127.078" xlink:href="#dot"  stroke="#ffe100" />
<use x="143.624" y="153.681" xlink:href="#dot"  stroke="#ff0000" />
<use x="187.289" y="128.471" xlink:href="#dot"  stroke="#00ebff" />
<use x="195.147" y="142.039" xlink:href="#dot"  stroke="#ffe100" />
<use x="142.75" y="151.278" xlink:href="#dot"  stroke="#ff0000" />
<use x="192.403" y="142.523" xlink:href="#dot"  stroke="#00ebff" />
<use x="195.147" y="157.961" xlink:href="#dot"  stroke="#ffe100" />
<use x="142.75" y="148.722" xlink:href="#dot"  stroke="#ff0000" />
<use x="192.403" y="157.477" xlink:href="#dot"  stroke="#00ebff" />
<use x="189.701" y="172.922" xlink:href="#dot"  stroke="#ffe100" />
<use x="143.624" y="146.319" xlink:href="#dot"  stroke="#ff0000" />
<use x="187.289" y="171.529" xlink:href="#dot"  stroke="#00ebff" />
<use x="179.468" y="185.118" xlink:href="#dot"  stroke="#ffe100" />
<use x="145.268" y="144.36" xlink:href="#dot"  stroke="#ff0000" />
<use x="177.677" y="182.984" xlink:href="#dot"  stroke="#00ebff" />
<use x="165.679" y="193.079" xlink:href="#dot"  stroke="#ffe100" />
<use x="147.482" y="143.082" xlink:href="#dot"  stroke="#ff0000" />
<use x="164.726" y="190.461" xlink:href="#dot"  stroke="#00ebff" />
<use x="150" y="165.283" xlink:href="#dot"  stroke="#ffe100" />
<use x="150" y="127.065" xlink:href="#dot"  stroke="#ff0000" />
<use x="150" y="171.751" xlink:href="#dot"  stroke="#00ebff" />
<use x="142.359" y="163.235" xlink:href="#dot"  stroke="#ffe100" />
<use x="161.467" y="130.138" xlink:href="#dot"  stroke="#ff0000" />
<use x="139.125" y="168.837" xlink:href="#dot"  stroke="#00ebff" />
<use x="136.765" y="157.641" xlink:href="#dot"  stroke="#ffe100" />
<use x="169.862" y="138.533" xlink:href="#dot"  stroke="#ff0000" />
<use x="131.163" y="160.875" xlink:href="#dot"  stroke="#00ebff" />
<use x="134.717" y="150" xlink:href="#dot"  stroke="#ffe100" />
<use x="172.935" y="150" xlink:href="#dot"  stroke="#ff0000" />
<use x="128.249" y="150" xlink:href="#dot"  stroke="#00ebff" />
<use x="136.765" y="142.359" xlink:href="#dot"  stroke="#ffe100" />
<use x="169.862" y="161.467" xlink:href="#dot"  stroke="#ff0000" />
<use x="131.163" y="139.125" xlink:href="#dot"  stroke="#00ebff" />
<use x="142.359" y="136.765" xlink:href="#dot"  stroke="#ffe100" />
<use x="161.467" y="169.862" xlink:href="#dot"  stroke="#ff0000" />
<use x="139.125" y="131.163" xlink:href="#dot"  stroke="#00ebff" />
<use x="150" y="134.717" xlink:href="#dot"  stroke="#ffe100" />
<use x="150" y="172.935" xlink:href="#dot"  stroke="#ff0000" />
<use x="150" y="128.249" xlink:href="#dot"  stroke="#00ebff" />
<use x="157.641" y="136.765" xlink:href="#dot"  stroke="#ffe100" />
<use x="138.533" y="169.862" xlink:href="#dot"  stroke="#ff0000" />
<use x="160.875" y="131.163" xlink:href="#dot"  stroke="#00ebff" />
<use x="163.235" y="142.359" xlink:href="#dot"  stroke="#ffe100" />
<use x="130.138" y="161.467" xlink:href="#dot"  stroke="#ff0000" />
<use x="168.837" y="139.125" xlink:href="#dot"  stroke="#00ebff" />
<use x="165.283" y="150" xlink:href="#dot"  stroke="#ffe100" />
<use x="127.065" y="150" xlink:href="#dot"  stroke="#ff0000" />
<use x="171.751" y="150" xlink:href="#dot"  stroke="#00ebff" />
<use x="163.235" y="157.641" xlink:href="#dot"  stroke="#ffe100" />
<use x="130.138" y="138.533" xlink:href="#dot"  stroke="#ff0000" />
<use x="168.837" y="160.875" xlink:href="#dot"  stroke="#00ebff" />
<use x="157.641" y="163.235" xlink:href="#dot"  stroke="#ffe100" />
<use x="138.533" y="130.138" xlink:href="#dot"  stroke="#ff0000" />
<use x="160.875" y="168.837" xlink:href="#dot"  stroke="#00ebff" />
<use x="150" y="151.746" xlink:href="#dot"  stroke="#ffe100" />
<use x="150" y="131.813" xlink:href="#dot"  stroke="#ff0000" />
<use x="150" y="157.47" xlink:href="#dot"  stroke="#00ebff" />
<use x="148.488" y="150.873" xlink:href="#dot"  stroke="#ffe100" />
<use x="165.75" y="140.907" xlink:href="#dot"  stroke="#ff0000" />
<use x="143.53" y="153.735" xlink:href="#dot"  stroke="#00ebff" />
<use x="148.488" y="149.127" xlink:href="#dot"  stroke="#ffe100" />
<use x="165.75" y="159.093" xlink:href="#dot"  stroke="#ff0000" />
<use x="143.53" y="146.265" xlink:href="#dot"  stroke="#00ebff" />
<use x="150" y="148.254" xlink:href="#dot"  stroke="#ffe100" />
<use x="150" y="168.187" xlink:href="#dot"  stroke="#ff0000" />
<use x="150" y="142.53" xlink:href="#dot"  stroke="#00ebff" />
<use x="151.512" y="149.127" xlink:href="#dot"  stroke="#ffe100" />
<use x="134.25" y="159.093" xlink:href="#dot"  stroke="#ff0000" />
<use x="156.47" y="146.265" xlink:href="#dot"  stroke="#00ebff" />
<use x="151.512" y="150.873" xlink:href="#dot"  stroke="#ffe100" />
<use x="134.25" y="140.907" xlink:href="#dot"  stroke="#ff0000" />
<use x="156.47" y="153.735" xlink:href="#dot"  stroke="#00ebff" />
</svg>
