<?xml version="1.0" standalone="no"?>
<svg width="640px" height="480px" version="1.1" xmlns="http://www.w3.org/2000/svg" xmlns:xlink="http://www.w3.org/1999/xlink">
<rect x="0" y="0" width="640" height="480"  fill="#ffffff" />
<defs>
<g id="dot">
<line x1="1" y1="1" x2="0" y2="0"  />
</g>
<g id="cross">
<line x1="-3" y1="0" x2="3" y2="0"  />
<line x1="0" y1="-3" x2="0" y2="3"  />
</g>
<g id="square">
<line x1="-3" y1="-3" x2="-3" y2="3"  />
<line x1="-3" y1="3" x2="3" y2="3"  />
<line x1="3" y1="3" x2="3" y2="-3"  />
<line x1="3" y1="-3" x2="-3" y2="-3"  />
</g>
<g id="round">
<ellipse cx="0" cy="0" rx="3" ry="3"  fill="none" /></g>
<g id="triangle">
<line x1="0" y1="-3" x2="-3" y2="3"  />
<line x1="-3" y1="3" x2="3" y2="3"  />
<line x1="0" y1="-3" x2="3" y2="3"  />
</g>
</defs>
<polygon fill="none" stroke="#000000" points="66.0317,430.476 66.0317,49.5238 573.968,49.5238 573.968,430.476 " />
<text style="font-size:12;text-align:center;text-anchor:middle;" x="320" y="473.619" fill="#000000">Entrance ray height (normalized)</text>
<line x1="66.0317" y1="420.548" x2="573.968" y2="420.548"  stroke="#000000" />
<use x="66.0317" y="420.548" xlink:href="#cross"  stroke="#000000" />
<use x="66.0317" y="49.5238" xlink:href="#cross"  stroke="#000000" />
<use x="66.0317" y="430.476" xlink:href="#cross"  stroke="#000000" />
<text style="font-size:12;text-align:center;text-anchor:middle;" x="66.0317" y="448.476" fill="#000000">-1</text>
<use x="320" y="420.548" xlink:href="#cross"  stroke="#000000" />
<use x="320" y="49.5238" xlink:href="#cross"  stroke="#000000" />
<use x="320" y="430.476" xlink:href="#cross"  stroke="#000000" />
<text style="font-size:12;text-align:center;text-anchor:middle;" x="320" y="448.476" fill="#000000">0</text>
<use x="573.968" y="420.548" xlink:href="#cross"  stroke="#000000" />
<use x="573.968" y="49.5238" xlink:href="#cross"  stroke="#000000" />
<use x="573.968" y="430.476" xlink:href="#cross"  stroke="#000000" />
<text style="font-size:12;text-align:center;text-anchor:middle;" x="573.968" y="448.476" fill="#000000">1</text>
<text style="font-size:12;text-align:center;text-anchor:middle;" x="16.5079" y="246" transform="rotate(-90,16.5079,240)" fill="#000000">Optical path difference (x10^-1 waves)</text>
<line x1="320" y1="430.476" x2="320" y2="49.5238"  stroke="#000000" />
<use x="320" y="420.548" xlink:href="#cross"  stroke="#000000" />
<use x="573.968" y="420.548" xlink:href="#cross"  stroke="#000000" />
<use x="66.0317" y="420.548" xlink:href="#cross"  stroke="#000000" />
<text style="font-size:12;text-align:right;text-anchor:end;" x="60.0317" y="426.548" fill="#000000">0</text>
<use x="320" y="376.139" xlink:href="#cross"  stroke="#000000" />
<use x="573.968" y="376.139" xlink:href="#cross"  stroke="#000000" />
<use x="66.0317" y="376.139" xlink:href="#cross"  stroke="#000000" />
<text style="font-size:12;text-align:right;text-anchor:end;" x="60.0317" y="382.139" fill="#000000">2</text>
<use x="320" y="331.73" xlink:href="#cross"  stroke="#000000" />
<use x="573.968" y="331.73" xlink:href="#cross"  stroke="#000000" />
<use x="66.0317" y="331.73" xlink:href="#cross"  stroke="#000000" />
<text style="font-size:12;text-align:right;text-anchor:end;" x="60.0317" y="337.73" fill="#000000">4</text>
<use x="320" y="287.32" xlink:href="#cross"  stroke="#000000" />
<use x="573.968" y="287.32" xlink:href="#cross"  stroke="#000000" />
<use x="66.0317" y="287.32" xlink:href="#cross"  stroke="#000000" />
<text style="font-size:12;text-align:right;text-anchor:end;" x="60.0317" y="293.32" fill="#000000">6</text>
<use x="320" y="242.911" xlink:href="#cross"  stroke="#000000" />
<use x="573.968" y="242.911" xlink:href="#cross"  stroke="#000000" />
<use x="66.0317" y="242.911" xlink:href="#cross"  stroke="#000000" />
<text style="font-size:12;text-align:right;text-anchor:end;" x="60.0317" y="248.911" fill="#000000">8</text>
<use x="320" y="198.502" xlink:href="#cross"  stroke="#000000" />
<use x="573.968" y="198.502" xlink:href="#cross"  stroke="#000000" />
<use x="66.0317" y="198.502" xlink:href="#cross"  stroke="#000000" />
<text style="font-size:12;text-align:right;text-anchor:end;" x="60.0317" y="204.502" fill="#000000">10</text>
<use x="320" y="154.093" xlink:href="#cross"  stroke="#000000" />
<use x="573.968" y="154.093" xlink:href="#cross"  stroke="#000000" />
<use x="66.0317" y="154.093" xlink:href="#cross"  stroke="#000000" />
<text style="font-size:12;text-align:right;text-anchor:end;" x="60.0317" y="160.093" fill="#000000">12</text>
<use x="320" y="109.683" xlink:href="#cross"  stroke="#000000" />
<use x="573.968" y="109.683" xlink:href="#cross"  stroke="#000000" />
<use x="66.0317" y="109.683" xlink:href="#cross"  stroke="#000000" />
<text style="font-size:12;text-align:right;text-anchor:end;" x="60.0317" y="115.683" fill="#000000">14</text>
<use x="320" y="65.2739" xlink:href="#cross"  stroke="#000000" />
<use x="573.968" y="65.2739" xlink:href="#cross"  stroke="#000000" />
<use x="66.0317" y="65.2739" xlink:href="#cross"  stroke="#000000" />
<text style="font-size:12;text-align:right;text-anchor:end;" x="60.0317" y="71.2739" fill="#000000">16</text>
<text style="font-size:18;text-align:center;text-anchor:middle;" x="320" y="33.7619" fill="#000000">Optical path difference fan (tangential)</text>
<path fill="none"  stroke="#00ebff" d="M252.343,375.296 S263.619,277.248 269.257,274.395 S280.533,335.327 286.171,358.176 S297.448,401.096 303.086,411.491 S314.362,420.548 320,420.548 S331.276,421.887 336.914,411.491 S348.19,381.025 353.829,358.176 S365.105,271.541 370.743,274.395 S384.838,358.479 387.657,375.296 " />
<path fill="none"  stroke="#ffe100" d="M252.343,49.5238 S263.619,154.429 269.257,206.466 S280.533,326.747 286.171,361.745 S297.448,406.652 303.086,416.453 S314.362,420.548 320,420.548 S331.276,426.253 336.914,416.453 S348.19,396.743 353.829,361.745 S365.105,258.503 370.743,206.466 S384.838,75.6809 387.657,49.5238 " />
<path fill="none"  stroke="#ff0000" d="M252.343,194.793 S263.619,278.299 269.257,315.203 S280.533,397.004 286.171,416.216 S297.448,429.754 303.086,430.476 S314.362,420.548 320,420.548 S331.276,431.198 336.914,430.476 S348.19,435.428 353.829,416.216 S365.105,352.107 370.743,315.203 S384.838,214.861 387.657,194.793 " />
</svg>
