<?xml version="1.0" standalone="no"?>
<svg width="640px" height="480px" version="1.1" xmlns="http://www.w3.org/2000/svg" xmlns:xlink="http://www.w3.org/1999/xlink">
<rect x="0" y="0" width="640" height="480"  fill="#ffffff" />
<defs>
<g id="dot">
<line x1="1" y1="1" x2="0" y2="0"  />
</g>
<g id="cross">
<line x1="-3" y1="0" x2="3" y2="0"  />
<line x1="0" y1="-3" x2="0" y2="3"  />
</g>
<g id="square">
<line x1="-3" y1="-3" x2="-3" y2="3"  />
<line x1="-3" y1="3" x2="3" y2="3"  />
<line x1="3" y1="3" x2="3" y2="-3"  />
<line x1="3" y1="-3" x2="-3" y2="-3"  />
</g>
<g id="round">
<ellipse cx="0" cy="0" rx="3" ry="3"  fill="none" /></g>
<g id="triangle">
<line x1="0" y1="-3" x2="-3" y2="3"  />
<line x1="-3" y1="3" x2="3" y2="3"  />
<line x1="0" y1="-3" x2="3" y2="3"  />
</g>
</defs>
<polygon fill="none" stroke="#000000" points="66.0317,430.476 66.0317,49.5238 573.968,49.5238 573.968,430.476 " />
<text style="font-size:12;text-align:center;text-anchor:middle;" x="320" y="473.619" fill="#000000">Entrance ray height (normalized)</text>
<line x1="66.0317" y1="240" x2="573.968" y2="240"  stroke="#000000" />
<use x="66.0317" y="240" xlink:href="#cross"  stroke="#000000" />
<use x="66.0317" y="49.5238" xlink:href="#cross"  stroke="#000000" />
<use x="66.0317" y="430.476" xlink:href="#cross"  stroke="#000000" />
<text style="font-size:12;text-align:center;text-anchor:middle;" x="66.0317" y="448.476" fill="#000000">-1</text>
<use x="320" y="240" xlink:href="#cross"  stroke="#000000" />
<use x="320" y="49.5238" xlink:href="#cross"  stroke="#000000" />
<use x="320" y="430.476" xlink:href="#cross"  stroke="#000000" />
<text style="font-size:12;text-align:center;text-anchor:middle;" x="320" y="448.476" fill="#000000">0</text>
<use x="573.968" y="240" xlink:href="#cross"  stroke="#000000" />
<use x="573.968" y="49.5238" xlink:href="#cross"  stroke="#000000" />
<use x="573.968" y="430.476" xlink:href="#cross"  stroke="#000000" />
<text style="font-size:12;text-align:center;text-anchor:middle;" x="573.968" y="448.476" fill="#000000">1</text>
<text style="font-size:12;text-align:center;text-anchor:middle;" x="16.5079" y="246" transform="rotate(-90,16.5079,240)" fill="#000000">Transverse ray aberration (um)</text>
<line x1="320" y1="430.476" x2="320" y2="49.5238"  stroke="#000000" />
<use x="320" y="399.537" xlink:href="#cross"  stroke="#000000" />
<use x="573.968" y="399.537" xlink:href="#cross"  stroke="#000000" />
<use x="66.0317" y="399.537" xlink:href="#cross"  stroke="#000000" />
<text style="font-size:12;text-align:right;text-anchor:end;" x="60.0317" y="405.537" fill="#000000">-40</text>
<use x="320" y="359.653" xlink:href="#cross"  stroke="#000000" />
<use x="573.968" y="359.653" xlink:href="#cross"  stroke="#000000" />
<use x="66.0317" y="359.653" xlink:href="#cross"  stroke="#000000" />
<text style="font-size:12;text-align:right;text-anchor:end;" x="60.0317" y="365.653" fill="#000000">-30</text>
<use x="320" y="319.768" xlink:href="#cross"  stroke="#000000" />
<use x="573.968" y="319.768" xlink:href="#cross"  stroke="#000000" />
<use x="66.0317" y="319.768" xlink:href="#cross"  stroke="#000000" />
<text style="font-size:12;text-align:right;text-anchor:end;" x="60.0317" y="325.768" fill="#000000">-20</text>
<use x="320" y="279.884" xlink:href="#cross"  stroke="#000000" />
<use x="573.968" y="279.884" xlink:href="#cross"  stroke="#000000" />
<use x="66.0317" y="279.884" xlink:href="#cross"  stroke="#000000" />
<text style="font-size:12;text-align:right;text-anchor:end;" x="60.0317" y="285.884" fill="#000000">-10</text>
<use x="320" y="240" xlink:href="#cross"  stroke="#000000" />
<use x="573.968" y="240" xlink:href="#cross"  stroke="#000000" />
<use x="66.0317" y="240" xlink:href="#cross"  stroke="#000000" />
<text style="font-size:12;text-align:right;text-anchor:end;" x="60.0317" y="246" fill="#000000">0</text>
<use x="320" y="200.116" xlink:href="#cross"  stroke="#000000" />
<use x="573.968" y="200.116" xlink:href="#cross"  stroke="#000000" />
<use x="66.0317" y="200.116" xlink:href="#cross"  stroke="#000000" />
<text style="font-size:12;text-align:right;text-anchor:end;" x="60.0317" y="206.116" fill="#000000">10</text>
<use x="320" y="160.232" xlink:href="#cross"  stroke="#000000" />
<use x="573.968" y="160.232" xlink:href="#cross"  stroke="#000000" />
<use x="66.0317" y="160.232" xlink:href="#cross"  stroke="#000000" />
<text style="font-size:12;text-align:right;text-anchor:end;" x="60.0317" y="166.232" fill="#000000">20</text>
<use x="320" y="120.347" xlink:href="#cross"  stroke="#000000" />
<use x="573.968" y="120.347" xlink:href="#cross"  stroke="#000000" />
<use x="66.0317" y="120.347" xlink:href="#cross"  stroke="#000000" />
<text style="font-size:12;text-align:right;text-anchor:end;" x="60.0317" y="126.347" fill="#000000">30</text>
<use x="320" y="80.4631" xlink:href="#cross"  stroke="#000000" />
<use x="573.968" y="80.4631" xlink:href="#cross"  stroke="#000000" />
<use x="66.0317" y="80.4631" xlink:href="#cross"  stroke="#000000" />
<text style="font-size:12;text-align:right;text-anchor:end;" x="60.0317" y="86.4631" fill="#000000">40</text>
<text style="font-size:18;text-align:center;text-anchor:middle;" x="320" y="33.7619" fill="#000000">Transverse ray aberration fan (tangential)</text>
<path fill="none"  stroke="#00ebff" d="M150.857,167.907 S162.133,108.181 167.771,104.316 S179.048,132.201 184.686,144.717 S195.962,171.504 201.6,179.408 S212.876,188.891 218.514,192.135 S229.79,196.168 235.429,198.876 S246.705,204.838 252.343,208.378 S263.619,216.46 269.257,220.115 S280.533,227.552 286.171,230.31 S297.448,235.053 303.086,236.668 S314.362,238.889 320,240 S331.276,241.717 336.914,243.332 S348.19,246.931 353.829,249.69 S365.105,256.23 370.743,259.885 S382.019,268.082 387.657,271.622 S398.933,278.417 404.571,281.124 S415.848,284.62 421.486,287.865 S432.762,292.689 438.4,300.592 S449.676,322.768 455.314,335.283 S466.59,379.549 472.229,375.684 S486.324,322.691 489.143,312.093 " />
<path fill="none"  stroke="#ffe100" d="M150.857,307.197 S162.133,199.693 167.771,181.309 S179.048,190.757 184.686,196.894 S195.962,213.904 201.6,218.129 S212.876,221.509 218.514,222.243 S229.79,221.804 235.429,222.531 S246.705,224.785 252.343,226.604 S263.619,231.37 269.257,233.444 S280.533,237.79 286.171,239.048 S297.448,240.836 303.086,240.995 S314.362,240.332 320,240 S331.276,238.847 336.914,239.005 S348.19,239.693 353.829,240.952 S365.105,244.482 370.743,246.556 S382.019,251.577 387.657,253.396 S398.933,256.742 404.571,257.469 S415.848,257.024 421.486,257.757 S432.762,257.646 438.4,261.871 S449.676,276.969 455.314,283.106 S466.59,317.075 472.229,298.691 S486.324,193.785 489.143,172.803 " />
<path fill="none"  stroke="#ff0000" d="M150.857,430.476 S162.133,290.434 167.771,261.267 S179.048,255.131 184.686,255.474 S195.962,262.933 201.6,263.325 S212.876,259.97 218.514,257.829 S229.79,252.108 235.429,250.474 S246.705,248.267 252.343,248.026 S263.619,248.83 269.257,249.03 S280.533,249.73 286.171,249.229 S297.448,247.563 303.086,246.025 S314.362,242.008 320,240 S331.276,235.513 336.914,233.975 S348.19,231.272 353.829,230.771 S365.105,230.769 370.743,230.97 S382.019,232.215 387.657,231.974 S398.933,231.16 404.571,229.526 S415.848,224.313 421.486,222.171 S432.762,216.282 438.4,216.675 S449.676,224.183 455.314,224.526 S466.59,247.9 472.229,218.733 S486.324,77.7253 489.143,49.5238 " />
</svg>
