<?xml version="1.0" standalone="no"?>
<svg width="640px" height="480px" version="1.1" xmlns="http://www.w3.org/2000/svg" xmlns:xlink="http://www.w3.org/1999/xlink">
<rect x="0" y="0" width="640" height="480"  fill="#ffffff" />
<defs>
<g id="dot">
<line x1="1" y1="1" x2="0" y2="0"  />
</g>
<g id="cross">
<line x1="-3" y1="0" x2="3" y2="0"  />
<line x1="0" y1="-3" x2="0" y2="3"  />
</g>
<g id="square">
<line x1="-3" y1="-3" x2="-3" y2="3"  />
<line x1="-3" y1="3" x2="3" y2="3"  />
<line x1="3" y1="3" x2="3" y2="-3"  />
<line x1="3" y1="-3" x2="-3" y2="-3"  />
</g>
<g id="round">
<ellipse cx="0" cy="0" rx="3" ry="3"  fill="none" /></g>
<g id="triangle">
<line x1="0" y1="-3" x2="-3" y2="3"  />
<line x1="-3" y1="3" x2="3" y2="3"  />
<line x1="0" y1="-3" x2="3" y2="3"  />
</g>
</defs>
<polygon fill="none" stroke="#000000" points="66.0317,430.476 66.0317,49.5238 573.968,49.5238 573.968,430.476 " />
<text style="font-size:12;text-align:center;text-anchor:middle;" x="320" y="473.619" fill="#000000">Distance from spot centroid (um)</text>
<use x="66.0317" y="49.5238" xlink:href="#cross"  stroke="#000000" />
<use x="66.0317" y="430.476" xlink:href="#cross"  stroke="#000000" />
<text style="font-size:12;text-align:center;text-anchor:middle;" x="66.0317" y="448.476" fill="#000000">0</text>
<use x="108.394" y="49.5238" xlink:href="#cross"  stroke="#000000" />
<use x="108.394" y="430.476" xlink:href="#cross"  stroke="#000000" />
<text style="font-size:12;text-align:center;text-anchor:middle;" x="108.394" y="448.476" fill="#000000">20</text>
<use x="150.756" y="49.5238" xlink:href="#cross"  stroke="#000000" />
<use x="150.756" y="430.476" xlink:href="#cross"  stroke="#000000" />
<text style="font-size:12;text-align:center;text-anchor:middle;" x="150.756" y="448.476" fill="#000000">40</text>
<use x="193.119" y="49.5238" xlink:href="#cross"  stroke="#000000" />
<use x="193.119" y="430.476" xlink:href="#cross"  stroke="#000000" />
<text style="font-size:12;text-align:center;text-anchor:middle;" x="193.119" y="448.476" fill="#000000">60</text>
<use x="235.481" y="49.5238" xlink:href="#cross"  stroke="#000000" />
<use x="235.481" y="430.476" xlink:href="#cross"  stroke="#000000" />
<text style="font-size:12;text-align:center;text-anchor:middle;" x="235.481" y="448.476" fill="#000000">80</text>
<use x="277.843" y="49.5238" xlink:href="#cross"  stroke="#000000" />
<use x="277.843" y="430.476" xlink:href="#cross"  stroke="#000000" />
<text style="font-size:12;text-align:center;text-anchor:middle;" x="277.843" y="448.476" fill="#000000">100</text>
<use x="320.205" y="49.5238" xlink:href="#cross"  stroke="#000000" />
<use x="320.205" y="430.476" xlink:href="#cross"  stroke="#000000" />
<text style="font-size:12;text-align:center;text-anchor:middle;" x="320.205" y="448.476" fill="#000000">120</text>
<use x="362.568" y="49.5238" xlink:href="#cross"  stroke="#000000" />
<use x="362.568" y="430.476" xlink:href="#cross"  stroke="#000000" />
<text style="font-size:12;text-align:center;text-anchor:middle;" x="362.568" y="448.476" fill="#000000">140</text>
<use x="404.93" y="49.5238" xlink:href="#cross"  stroke="#000000" />
<use x="404.93" y="430.476" xlink:href="#cross"  stroke="#000000" />
<text style="font-size:12;text-align:center;text-anchor:middle;" x="404.93" y="448.476" fill="#000000">160</text>
<use x="447.292" y="49.5238" xlink:href="#cross"  stroke="#000000" />
<use x="447.292" y="430.476" xlink:href="#cross"  stroke="#000000" />
<text style="font-size:12;text-align:center;text-anchor:middle;" x="447.292" y="448.476" fill="#000000">180</text>
<use x="489.654" y="49.5238" xlink:href="#cross"  stroke="#000000" />
<use x="489.654" y="430.476" xlink:href="#cross"  stroke="#000000" />
<text style="font-size:12;text-align:center;text-anchor:middle;" x="489.654" y="448.476" fill="#000000">200</text>
<use x="532.017" y="49.5238" xlink:href="#cross"  stroke="#000000" />
<use x="532.017" y="430.476" xlink:href="#cross"  stroke="#000000" />
<text style="font-size:12;text-align:center;text-anchor:middle;" x="532.017" y="448.476" fill="#000000">220</text>
<text style="font-size:12;text-align:center;text-anchor:middle;" x="16.5079" y="246" transform="rotate(-90,16.5079,240)" fill="#000000">Encircled intensity</text>
<use x="573.968" y="430.476" xlink:href="#cross"  stroke="#000000" />
<use x="66.0317" y="430.476" xlink:href="#cross"  stroke="#000000" />
<text style="font-size:12;text-align:right;text-anchor:end;" x="60.0317" y="436.476" fill="#000000">0</text>
<use x="573.968" y="389.949" xlink:href="#cross"  stroke="#000000" />
<use x="66.0317" y="389.949" xlink:href="#cross"  stroke="#000000" />
<text style="font-size:12;text-align:right;text-anchor:end;" x="60.0317" y="395.949" fill="#000000">20</text>
<use x="573.968" y="349.422" xlink:href="#cross"  stroke="#000000" />
<use x="66.0317" y="349.422" xlink:href="#cross"  stroke="#000000" />
<text style="font-size:12;text-align:right;text-anchor:end;" x="60.0317" y="355.422" fill="#000000">40</text>
<use x="573.968" y="308.896" xlink:href="#cross"  stroke="#000000" />
<use x="66.0317" y="308.896" xlink:href="#cross"  stroke="#000000" />
<text style="font-size:12;text-align:right;text-anchor:end;" x="60.0317" y="314.896" fill="#000000">60</text>
<use x="573.968" y="268.369" xlink:href="#cross"  stroke="#000000" />
<use x="66.0317" y="268.369" xlink:href="#cross"  stroke="#000000" />
<text style="font-size:12;text-align:right;text-anchor:end;" x="60.0317" y="274.369" fill="#000000">80</text>
<use x="573.968" y="227.842" xlink:href="#cross"  stroke="#000000" />
<use x="66.0317" y="227.842" xlink:href="#cross"  stroke="#000000" />
<text style="font-size:12;text-align:right;text-anchor:end;" x="60.0317" y="233.842" fill="#000000">100</text>
<use x="573.968" y="187.315" xlink:href="#cross"  stroke="#000000" />
<use x="66.0317" y="187.315" xlink:href="#cross"  stroke="#000000" />
<text style="font-size:12;text-align:right;text-anchor:end;" x="60.0317" y="193.315" fill="#000000">120</text>
<use x="573.968" y="146.788" xlink:href="#cross"  stroke="#000000" />
<use x="66.0317" y="146.788" xlink:href="#cross"  stroke="#000000" />
<text style="font-size:12;text-align:right;text-anchor:end;" x="60.0317" y="152.788" fill="#000000">140</text>
<use x="573.968" y="106.261" xlink:href="#cross"  stroke="#000000" />
<use x="66.0317" y="106.261" xlink:href="#cross"  stroke="#000000" />
<text style="font-size:12;text-align:right;text-anchor:end;" x="60.0317" y="112.261" fill="#000000">160</text>
<use x="573.968" y="65.7345" xlink:href="#cross"  stroke="#000000" />
<use x="66.0317" y="65.7345" xlink:href="#cross"  stroke="#000000" />
<text style="font-size:12;text-align:right;text-anchor:end;" x="60.0317" y="71.7345" fill="#000000">180</text>
<text style="font-size:18;text-align:center;text-anchor:middle;" x="320" y="33.7619" fill="#000000">Spot diagram encircled rays intensity</text>
<line x1="66.0317" y1="430.476" x2="76.1905" y2="418.318"  stroke="#00ebff" />
<line x1="76.1905" y1="418.318" x2="86.3492" y2="365.633"  stroke="#00ebff" />
<line x1="86.3492" y1="365.633" x2="96.5079" y2="294.711"  stroke="#00ebff" />
<line x1="96.5079" y1="294.711" x2="106.667" y2="248.105"  stroke="#00ebff" />
<line x1="106.667" y1="248.105" x2="116.825" y2="227.842"  stroke="#00ebff" />
<line x1="116.825" y1="227.842" x2="126.984" y2="191.368"  stroke="#00ebff" />
<line x1="126.984" y1="191.368" x2="137.143" y2="169.078"  stroke="#00ebff" />
<line x1="137.143" y1="169.078" x2="147.302" y2="144.762"  stroke="#00ebff" />
<line x1="147.302" y1="144.762" x2="157.46" y2="138.683"  stroke="#00ebff" />
<line x1="157.46" y1="138.683" x2="167.619" y2="126.525"  stroke="#00ebff" />
<line x1="167.619" y1="126.525" x2="177.778" y2="114.367"  stroke="#00ebff" />
<line x1="177.778" y1="114.367" x2="187.937" y2="110.314"  stroke="#00ebff" />
<line x1="187.937" y1="110.314" x2="198.095" y2="110.314"  stroke="#00ebff" />
<line x1="198.095" y1="110.314" x2="208.254" y2="110.314"  stroke="#00ebff" />
<line x1="208.254" y1="110.314" x2="218.413" y2="102.209"  stroke="#00ebff" />
<line x1="218.413" y1="102.209" x2="228.571" y2="94.1033"  stroke="#00ebff" />
<line x1="228.571" y1="94.1033" x2="238.73" y2="90.0507"  stroke="#00ebff" />
<line x1="238.73" y1="90.0507" x2="248.889" y2="90.0507"  stroke="#00ebff" />
<line x1="248.889" y1="90.0507" x2="259.048" y2="81.9453"  stroke="#00ebff" />
<line x1="259.048" y1="81.9453" x2="269.206" y2="81.9453"  stroke="#00ebff" />
<line x1="269.206" y1="81.9453" x2="279.365" y2="77.8926"  stroke="#00ebff" />
<line x1="279.365" y1="77.8926" x2="289.524" y2="69.7872"  stroke="#00ebff" />
<line x1="289.524" y1="69.7872" x2="299.683" y2="69.7872"  stroke="#00ebff" />
<line x1="299.683" y1="69.7872" x2="309.841" y2="69.7872"  stroke="#00ebff" />
<line x1="309.841" y1="69.7872" x2="320" y2="69.7872"  stroke="#00ebff" />
<line x1="320" y1="69.7872" x2="330.159" y2="69.7872"  stroke="#00ebff" />
<line x1="330.159" y1="69.7872" x2="340.317" y2="69.7872"  stroke="#00ebff" />
<line x1="340.317" y1="69.7872" x2="350.476" y2="61.6819"  stroke="#00ebff" />
<line x1="350.476" y1="61.6819" x2="360.635" y2="57.6292"  stroke="#00ebff" />
<line x1="360.635" y1="57.6292" x2="370.794" y2="57.6292"  stroke="#00ebff" />
<line x1="370.794" y1="57.6292" x2="380.952" y2="57.6292"  stroke="#00ebff" />
<line x1="380.952" y1="57.6292" x2="391.111" y2="57.6292"  stroke="#00ebff" />
<line x1="391.111" y1="57.6292" x2="401.27" y2="57.6292"  stroke="#00ebff" />
<line x1="401.27" y1="57.6292" x2="411.429" y2="57.6292"  stroke="#00ebff" />
<line x1="411.429" y1="57.6292" x2="421.587" y2="57.6292"  stroke="#00ebff" />
<line x1="421.587" y1="57.6292" x2="431.746" y2="57.6292"  stroke="#00ebff" />
<line x1="431.746" y1="57.6292" x2="441.905" y2="57.6292"  stroke="#00ebff" />
<line x1="441.905" y1="57.6292" x2="452.063" y2="57.6292"  stroke="#00ebff" />
<line x1="452.063" y1="57.6292" x2="462.222" y2="57.6292"  stroke="#00ebff" />
<line x1="462.222" y1="57.6292" x2="472.381" y2="57.6292"  stroke="#00ebff" />
<line x1="472.381" y1="57.6292" x2="482.54" y2="53.5765"  stroke="#00ebff" />
<line x1="482.54" y1="53.5765" x2="492.698" y2="53.5765"  stroke="#00ebff" />
<line x1="492.698" y1="53.5765" x2="502.857" y2="53.5765"  stroke="#00ebff" />
<line x1="502.857" y1="53.5765" x2="513.016" y2="53.5765"  stroke="#00ebff" />
<line x1="513.016" y1="53.5765" x2="523.175" y2="53.5765"  stroke="#00ebff" />
<line x1="523.175" y1="53.5765" x2="533.333" y2="53.5765"  stroke="#00ebff" />
<line x1="533.333" y1="53.5765" x2="543.492" y2="53.5765"  stroke="#00ebff" />
<line x1="543.492" y1="53.5765" x2="553.651" y2="53.5765"  stroke="#00ebff" />
<line x1="553.651" y1="53.5765" x2="563.81" y2="51.5502"  stroke="#00ebff" />
<line x1="563.81" y1="51.5502" x2="573.968" y2="49.5238"  stroke="#00ebff" />
<line x1="66.0317" y1="430.476" x2="76.1905" y2="422.371"  stroke="#ffe100" />
<line x1="76.1905" y1="422.371" x2="86.3492" y2="387.923"  stroke="#ffe100" />
<line x1="86.3492" y1="387.923" x2="96.5079" y2="317.001"  stroke="#ffe100" />
<line x1="96.5079" y1="317.001" x2="106.667" y2="282.553"  stroke="#ffe100" />
<line x1="106.667" y1="282.553" x2="116.825" y2="262.29"  stroke="#ffe100" />
<line x1="116.825" y1="262.29" x2="126.984" y2="237.974"  stroke="#ffe100" />
<line x1="126.984" y1="237.974" x2="137.143" y2="221.763"  stroke="#ffe100" />
<line x1="137.143" y1="221.763" x2="147.302" y2="221.763"  stroke="#ffe100" />
<line x1="147.302" y1="221.763" x2="157.46" y2="203.526"  stroke="#ffe100" />
<line x1="157.46" y1="203.526" x2="167.619" y2="177.183"  stroke="#ffe100" />
<line x1="167.619" y1="177.183" x2="177.778" y2="152.867"  stroke="#ffe100" />
<line x1="177.778" y1="152.867" x2="187.937" y2="136.657"  stroke="#ffe100" />
<line x1="187.937" y1="136.657" x2="198.095" y2="132.604"  stroke="#ffe100" />
<line x1="198.095" y1="132.604" x2="208.254" y2="110.314"  stroke="#ffe100" />
<line x1="208.254" y1="110.314" x2="218.413" y2="110.314"  stroke="#ffe100" />
<line x1="218.413" y1="110.314" x2="228.571" y2="98.156"  stroke="#ffe100" />
<line x1="228.571" y1="98.156" x2="238.73" y2="94.1033"  stroke="#ffe100" />
<line x1="238.73" y1="94.1033" x2="248.889" y2="94.1033"  stroke="#ffe100" />
<line x1="248.889" y1="94.1033" x2="259.048" y2="90.0507"  stroke="#ffe100" />
<line x1="259.048" y1="90.0507" x2="269.206" y2="81.9453"  stroke="#ffe100" />
<line x1="269.206" y1="81.9453" x2="279.365" y2="81.9453"  stroke="#ffe100" />
<line x1="279.365" y1="81.9453" x2="289.524" y2="81.9453"  stroke="#ffe100" />
<line x1="289.524" y1="81.9453" x2="299.683" y2="69.7872"  stroke="#ffe100" />
<line x1="299.683" y1="69.7872" x2="309.841" y2="69.7872"  stroke="#ffe100" />
<line x1="309.841" y1="69.7872" x2="320" y2="69.7872"  stroke="#ffe100" />
<line x1="320" y1="69.7872" x2="330.159" y2="69.7872"  stroke="#ffe100" />
<line x1="330.159" y1="69.7872" x2="340.317" y2="69.7872"  stroke="#ffe100" />
<line x1="340.317" y1="69.7872" x2="350.476" y2="69.7872"  stroke="#ffe100" />
<line x1="350.476" y1="69.7872" x2="360.635" y2="61.6819"  stroke="#ffe100" />
<line x1="360.635" y1="61.6819" x2="370.794" y2="57.6292"  stroke="#ffe100" />
<line x1="370.794" y1="57.6292" x2="380.952" y2="57.6292"  stroke="#ffe100" />
<line x1="380.952" y1="57.6292" x2="391.111" y2="57.6292"  stroke="#ffe100" />
<line x1="391.111" y1="57.6292" x2="401.27" y2="57.6292"  stroke="#ffe100" />
<line x1="401.27" y1="57.6292" x2="411.429" y2="57.6292"  stroke="#ffe100" />
<line x1="411.429" y1="57.6292" x2="421.587" y2="57.6292"  stroke="#ffe100" />
<line x1="421.587" y1="57.6292" x2="431.746" y2="57.6292"  stroke="#ffe100" />
<line x1="431.746" y1="57.6292" x2="441.905" y2="57.6292"  stroke="#ffe100" />
<line x1="441.905" y1="57.6292" x2="452.063" y2="57.6292"  stroke="#ffe100" />
<line x1="452.063" y1="57.6292" x2="462.222" y2="57.6292"  stroke="#ffe100" />
<line x1="462.222" y1="57.6292" x2="472.381" y2="57.6292"  stroke="#ffe100" />
<line x1="472.381" y1="57.6292" x2="482.54" y2="57.6292"  stroke="#ffe100" />
<line x1="482.54" y1="57.6292" x2="492.698" y2="53.5765"  stroke="#ffe100" />
<line x1="492.698" y1="53.5765" x2="502.857" y2="53.5765"  stroke="#ffe100" />
<line x1="502.857" y1="53.5765" x2="513.016" y2="53.5765"  stroke="#ffe100" />
<line x1="513.016" y1="53.5765" x2="523.175" y2="53.5765"  stroke="#ffe100" />
<line x1="523.175" y1="53.5765" x2="533.333" y2="53.5765"  stroke="#ffe100" />
<line x1="533.333" y1="53.5765" x2="543.492" y2="53.5765"  stroke="#ffe100" />
<line x1="543.492" y1="53.5765" x2="553.651" y2="53.5765"  stroke="#ffe100" />
<line x1="553.651" y1="53.5765" x2="563.81" y2="53.5765"  stroke="#ffe100" />
<line x1="563.81" y1="53.5765" x2="573.968" y2="53.5765"  stroke="#ffe100" />
<line x1="66.0317" y1="430.476" x2="76.1905" y2="418.318"  stroke="#ff0000" />
<line x1="76.1905" y1="418.318" x2="86.3492" y2="381.844"  stroke="#ff0000" />
<line x1="86.3492" y1="381.844" x2="96.5079" y2="319.027"  stroke="#ff0000" />
<line x1="96.5079" y1="319.027" x2="106.667" y2="290.659"  stroke="#ff0000" />
<line x1="106.667" y1="290.659" x2="116.825" y2="276.474"  stroke="#ff0000" />
<line x1="116.825" y1="276.474" x2="126.984" y2="256.211"  stroke="#ff0000" />
<line x1="126.984" y1="256.211" x2="137.143" y2="248.105"  stroke="#ff0000" />
<line x1="137.143" y1="248.105" x2="147.302" y2="229.868"  stroke="#ff0000" />
<line x1="147.302" y1="229.868" x2="157.46" y2="221.763"  stroke="#ff0000" />
<line x1="157.46" y1="221.763" x2="167.619" y2="221.763"  stroke="#ff0000" />
<line x1="167.619" y1="221.763" x2="177.778" y2="207.579"  stroke="#ff0000" />
<line x1="177.778" y1="207.579" x2="187.937" y2="191.368"  stroke="#ff0000" />
<line x1="187.937" y1="191.368" x2="198.095" y2="165.025"  stroke="#ff0000" />
<line x1="198.095" y1="165.025" x2="208.254" y2="140.709"  stroke="#ff0000" />
<line x1="208.254" y1="140.709" x2="218.413" y2="136.657"  stroke="#ff0000" />
<line x1="218.413" y1="136.657" x2="228.571" y2="132.604"  stroke="#ff0000" />
<line x1="228.571" y1="132.604" x2="238.73" y2="124.498"  stroke="#ff0000" />
<line x1="238.73" y1="124.498" x2="248.889" y2="102.209"  stroke="#ff0000" />
<line x1="248.889" y1="102.209" x2="259.048" y2="94.1033"  stroke="#ff0000" />
<line x1="259.048" y1="94.1033" x2="269.206" y2="94.1033"  stroke="#ff0000" />
<line x1="269.206" y1="94.1033" x2="279.365" y2="94.1033"  stroke="#ff0000" />
<line x1="279.365" y1="94.1033" x2="289.524" y2="85.998"  stroke="#ff0000" />
<line x1="289.524" y1="85.998" x2="299.683" y2="81.9453"  stroke="#ff0000" />
<line x1="299.683" y1="81.9453" x2="309.841" y2="81.9453"  stroke="#ff0000" />
<line x1="309.841" y1="81.9453" x2="320" y2="77.8926"  stroke="#ff0000" />
<line x1="320" y1="77.8926" x2="330.159" y2="69.7872"  stroke="#ff0000" />
<line x1="330.159" y1="69.7872" x2="340.317" y2="69.7872"  stroke="#ff0000" />
<line x1="340.317" y1="69.7872" x2="350.476" y2="69.7872"  stroke="#ff0000" />
<line x1="350.476" y1="69.7872" x2="360.635" y2="69.7872"  stroke="#ff0000" />
<line x1="360.635" y1="69.7872" x2="370.794" y2="69.7872"  stroke="#ff0000" />
<line x1="370.794" y1="69.7872" x2="380.952" y2="61.6819"  stroke="#ff0000" />
<line x1="380.952" y1="61.6819" x2="391.111" y2="57.6292"  stroke="#ff0000" />
<line x1="391.111" y1="57.6292" x2="401.27" y2="57.6292"  stroke="#ff0000" />
<line x1="401.27" y1="57.6292" x2="411.429" y2="57.6292"  stroke="#ff0000" />
<line x1="411.429" y1="57.6292" x2="421.587" y2="57.6292"  stroke="#ff0000" />
<line x1="421.587" y1="57.6292" x2="431.746" y2="57.6292"  stroke="#ff0000" />
<line x1="431.746" y1="57.6292" x2="441.905" y2="57.6292"  stroke="#ff0000" />
<line x1="441.905" y1="57.6292" x2="452.063" y2="57.6292"  stroke="#ff0000" />
<line x1="452.063" y1="57.6292" x2="462.222" y2="57.6292"  stroke="#ff0000" />
<line x1="462.222" y1="57.6292" x2="472.381" y2="57.6292"  stroke="#ff0000" />
<line x1="472.381" y1="57.6292" x2="482.54" y2="57.6292"  stroke="#ff0000" />
<line x1="482.54" y1="57.6292" x2="492.698" y2="57.6292"  stroke="#ff0000" />
<line x1="492.698" y1="57.6292" x2="502.857" y2="57.6292"  stroke="#ff0000" />
<line x1="502.857" y1="57.6292" x2="513.016" y2="53.5765"  stroke="#ff0000" />
<line x1="513.016" y1="53.5765" x2="523.175" y2="53.5765"  stroke="#ff0000" />
<line x1="523.175" y1="53.5765" x2="533.333" y2="53.5765"  stroke="#ff0000" />
<line x1="533.333" y1="53.5765" x2="543.492" y2="53.5765"  stroke="#ff0000" />
<line x1="543.492" y1="53.5765" x2="553.651" y2="53.5765"  stroke="#ff0000" />
<line x1="553.651" y1="53.5765" x2="563.81" y2="53.5765"  stroke="#ff0000" />
<line x1="563.81" y1="53.5765" x2="573.968" y2="53.5765"  stroke="#ff0000" />
</svg>
