<?xml version="1.0" standalone="no"?>
<svg width="300px" height="300px" version="1.1" xmlns="http://www.w3.org/2000/svg" xmlns:xlink="http://www.w3.org/1999/xlink">
<rect x="0" y="0" width="300" height="300"  fill="#000000" />
<defs>
<g id="dot">
<line x1="1" y1="1" x2="0" y2="0"  />
</g>
<g id="cross">
<line x1="-3" y1="0" x2="3" y2="0"  />
<line x1="0" y1="-3" x2="0" y2="3"  />
</g>
<g id="square">
<line x1="-3" y1="-3" x2="-3" y2="3"  />
<line x1="-3" y1="3" x2="3" y2="3"  />
<line x1="3" y1="3" x2="3" y2="-3"  />
<line x1="3" y1="-3" x2="-3" y2="-3"  />
</g>
<g id="round">
<ellipse cx="0" cy="0" rx="3" ry="3"  fill="none" /></g>
<g id="triangle">
<line x1="0" y1="-3" x2="-3" y2="3"  />
<line x1="-3" y1="3" x2="3" y2="3"  />
<line x1="0" y1="-3" x2="3" y2="3"  />
</g>
</defs>
<polygon fill="none" stroke="#ffffff" points="30.9524,269.048 30.9524,30.9524 269.048,30.9524 269.048,269.048 " />
<text style="font-size:12;text-align:center;text-anchor:middle;" x="150" y="298.262" fill="#ffffff">Saggital distance (um)</text>
<use x="70.6349" y="30.9524" xlink:href="#cross"  stroke="#ffffff" />
<use x="70.6349" y="269.048" xlink:href="#cross"  stroke="#ffffff" />
<text style="font-size:12;text-align:center;text-anchor:middle;" x="70.6349" y="287.048" fill="#ffffff">-160</text>
<use x="150" y="30.9524" xlink:href="#cross"  stroke="#ffffff" />
<use x="150" y="269.048" xlink:href="#cross"  stroke="#ffffff" />
<text style="font-size:12;text-align:center;text-anchor:middle;" x="150" y="287.048" fill="#ffffff">0</text>
<use x="229.365" y="30.9524" xlink:href="#cross"  stroke="#ffffff" />
<use x="229.365" y="269.048" xlink:href="#cross"  stroke="#ffffff" />
<text style="font-size:12;text-align:center;text-anchor:middle;" x="229.365" y="287.048" fill="#ffffff">160</text>
<text style="font-size:12;text-align:center;text-anchor:middle;" x="7.7381" y="156" transform="rotate(-90,7.7381,150)" fill="#ffffff">Tangential distance (um)</text>
<use x="269.048" y="259.09" xlink:href="#cross"  stroke="#ffffff" />
<use x="30.9524" y="259.09" xlink:href="#cross"  stroke="#ffffff" />
<text style="font-size:12;text-align:right;text-anchor:end;" x="24.9524" y="265.09" fill="#ffffff">-160</text>
<use x="269.048" y="179.725" xlink:href="#cross"  stroke="#ffffff" />
<use x="30.9524" y="179.725" xlink:href="#cross"  stroke="#ffffff" />
<text style="font-size:12;text-align:right;text-anchor:end;" x="24.9524" y="185.725" fill="#ffffff">0</text>
<use x="269.048" y="100.36" xlink:href="#cross"  stroke="#ffffff" />
<use x="30.9524" y="100.36" xlink:href="#cross"  stroke="#ffffff" />
<text style="font-size:12;text-align:right;text-anchor:end;" x="24.9524" y="106.36" fill="#ffffff">160</text>
<use x="173.877" y="190.723" xlink:href="#dot"  stroke="#ffe100" />
<use x="179.542" y="196.317" xlink:href="#dot"  stroke="#ff0000" />
<use x="172.103" y="179.979" xlink:href="#dot"  stroke="#00ebff" />
<use x="170.07" y="195.031" xlink:href="#dot"  stroke="#ffe100" />
<use x="174.872" y="201.363" xlink:href="#dot"  stroke="#ff0000" />
<use x="168.894" y="183.092" xlink:href="#dot"  stroke="#00ebff" />
<use x="164.611" y="199.507" xlink:href="#dot"  stroke="#ffe100" />
<use x="168.694" y="206.481" xlink:href="#dot"  stroke="#ff0000" />
<use x="163.801" y="186.531" xlink:href="#dot"  stroke="#00ebff" />
<use x="158.434" y="203.903" xlink:href="#dot"  stroke="#ffe100" />
<use x="161.897" y="211.432" xlink:href="#dot"  stroke="#ff0000" />
<use x="157.838" y="190.032" xlink:href="#dot"  stroke="#00ebff" />
<use x="152.774" y="207.699" xlink:href="#dot"  stroke="#ffe100" />
<use x="155.683" y="215.703" xlink:href="#dot"  stroke="#ff0000" />
<use x="152.303" y="193.062" xlink:href="#dot"  stroke="#00ebff" />
<use x="148.556" y="210.511" xlink:href="#dot"  stroke="#ffe100" />
<use x="150.952" y="218.915" xlink:href="#dot"  stroke="#ff0000" />
<use x="148.165" y="195.227" xlink:href="#dot"  stroke="#00ebff" />
<use x="146.17" y="212.237" xlink:href="#dot"  stroke="#ffe100" />
<use x="148.075" y="220.969" xlink:href="#dot"  stroke="#ff0000" />
<use x="145.842" y="196.42" xlink:href="#dot"  stroke="#00ebff" />
<use x="145.531" y="213.041" xlink:href="#dot"  stroke="#ffe100" />
<use x="146.957" y="222.029" xlink:href="#dot"  stroke="#ff0000" />
<use x="145.269" y="196.805" xlink:href="#dot"  stroke="#00ebff" />
<use x="146.272" y="213.243" xlink:href="#dot"  stroke="#ffe100" />
<use x="147.223" y="222.415" xlink:href="#dot"  stroke="#ff0000" />
<use x="146.087" y="196.704" xlink:href="#dot"  stroke="#00ebff" />
<use x="147.917" y="213.19" xlink:href="#dot"  stroke="#ffe100" />
<use x="148.393" y="222.473" xlink:href="#dot"  stroke="#ff0000" />
<use x="147.821" y="196.467" xlink:href="#dot"  stroke="#00ebff" />
<use x="150" y="213.141" xlink:href="#dot"  stroke="#ffe100" />
<use x="150" y="222.461" xlink:href="#dot"  stroke="#ff0000" />
<use x="150" y="196.356" xlink:href="#dot"  stroke="#00ebff" />
<use x="152.083" y="213.19" xlink:href="#dot"  stroke="#ffe100" />
<use x="151.607" y="222.473" xlink:href="#dot"  stroke="#ff0000" />
<use x="152.179" y="196.467" xlink:href="#dot"  stroke="#00ebff" />
<use x="153.728" y="213.243" xlink:href="#dot"  stroke="#ffe100" />
<use x="152.777" y="222.415" xlink:href="#dot"  stroke="#ff0000" />
<use x="153.913" y="196.704" xlink:href="#dot"  stroke="#00ebff" />
<use x="154.469" y="213.041" xlink:href="#dot"  stroke="#ffe100" />
<use x="153.043" y="222.029" xlink:href="#dot"  stroke="#ff0000" />
<use x="154.731" y="196.805" xlink:href="#dot"  stroke="#00ebff" />
<use x="153.83" y="212.237" xlink:href="#dot"  stroke="#ffe100" />
<use x="151.925" y="220.969" xlink:href="#dot"  stroke="#ff0000" />
<use x="154.158" y="196.42" xlink:href="#dot"  stroke="#00ebff" />
<use x="151.444" y="210.511" xlink:href="#dot"  stroke="#ffe100" />
<use x="149.048" y="218.915" xlink:href="#dot"  stroke="#ff0000" />
<use x="151.835" y="195.227" xlink:href="#dot"  stroke="#00ebff" />
<use x="147.226" y="207.699" xlink:href="#dot"  stroke="#ffe100" />
<use x="144.317" y="215.703" xlink:href="#dot"  stroke="#ff0000" />
<use x="147.697" y="193.062" xlink:href="#dot"  stroke="#00ebff" />
<use x="141.566" y="203.903" xlink:href="#dot"  stroke="#ffe100" />
<use x="138.103" y="211.432" xlink:href="#dot"  stroke="#ff0000" />
<use x="142.162" y="190.032" xlink:href="#dot"  stroke="#00ebff" />
<use x="135.389" y="199.507" xlink:href="#dot"  stroke="#ffe100" />
<use x="131.306" y="206.481" xlink:href="#dot"  stroke="#ff0000" />
<use x="136.199" y="186.531" xlink:href="#dot"  stroke="#00ebff" />
<use x="129.93" y="195.031" xlink:href="#dot"  stroke="#ffe100" />
<use x="125.128" y="201.363" xlink:href="#dot"  stroke="#ff0000" />
<use x="131.106" y="183.092" xlink:href="#dot"  stroke="#00ebff" />
<use x="126.123" y="190.723" xlink:href="#dot"  stroke="#ffe100" />
<use x="120.458" y="196.317" xlink:href="#dot"  stroke="#ff0000" />
<use x="127.897" y="179.979" xlink:href="#dot"  stroke="#00ebff" />
<use x="203.13" y="169.595" xlink:href="#dot"  stroke="#ffe100" />
<use x="211.852" y="169.114" xlink:href="#dot"  stroke="#ff0000" />
<use x="198.635" y="167.664" xlink:href="#dot"  stroke="#00ebff" />
<use x="194.089" y="187.104" xlink:href="#dot"  stroke="#ffe100" />
<use x="201.326" y="187.722" xlink:href="#dot"  stroke="#ff0000" />
<use x="191.061" y="183.865" xlink:href="#dot"  stroke="#00ebff" />
<use x="184.798" y="194.435" xlink:href="#dot"  stroke="#ffe100" />
<use x="190.82" y="196.096" xlink:href="#dot"  stroke="#ff0000" />
<use x="182.933" y="189.635" xlink:href="#dot"  stroke="#00ebff" />
<use x="178.064" y="196.1" xlink:href="#dot"  stroke="#ffe100" />
<use x="183.097" y="198.681" xlink:href="#dot"  stroke="#ff0000" />
<use x="177.045" y="189.843" xlink:href="#dot"  stroke="#00ebff" />
<use x="172.072" y="196.027" xlink:href="#dot"  stroke="#ffe100" />
<use x="176.299" y="199.397" xlink:href="#dot"  stroke="#ff0000" />
<use x="171.615" y="188.512" xlink:href="#dot"  stroke="#00ebff" />
<use x="165.599" y="196.383" xlink:href="#dot"  stroke="#ffe100" />
<use x="169.159" y="200.42" xlink:href="#dot"  stroke="#ff0000" />
<use x="165.478" y="187.816" xlink:href="#dot"  stroke="#00ebff" />
<use x="158.845" y="197.658" xlink:href="#dot"  stroke="#ffe100" />
<use x="161.837" y="202.254" xlink:href="#dot"  stroke="#ff0000" />
<use x="158.899" y="188.225" xlink:href="#dot"  stroke="#00ebff" />
<use x="152.709" y="199.466" xlink:href="#dot"  stroke="#ffe100" />
<use x="155.201" y="204.526" xlink:href="#dot"  stroke="#ff0000" />
<use x="152.833" y="189.323" xlink:href="#dot"  stroke="#00ebff" />
<use x="148.055" y="201.227" xlink:href="#dot"  stroke="#ffe100" />
<use x="150.093" y="206.669" xlink:href="#dot"  stroke="#ff0000" />
<use x="148.188" y="190.509" xlink:href="#dot"  stroke="#00ebff" />
<use x="145.346" y="202.541" xlink:href="#dot"  stroke="#ffe100" />
<use x="146.958" y="208.288" xlink:href="#dot"  stroke="#ff0000" />
<use x="145.459" y="191.364" xlink:href="#dot"  stroke="#00ebff" />
<use x="144.589" y="203.287" xlink:href="#dot"  stroke="#ffe100" />
<use x="145.79" y="209.269" xlink:href="#dot"  stroke="#ff0000" />
<use x="144.67" y="191.76" xlink:href="#dot"  stroke="#00ebff" />
<use x="145.456" y="203.576" xlink:href="#dot"  stroke="#ffe100" />
<use x="146.254" y="209.723" xlink:href="#dot"  stroke="#ff0000" />
<use x="145.507" y="191.8" xlink:href="#dot"  stroke="#00ebff" />
<use x="147.446" y="203.62" xlink:href="#dot"  stroke="#ffe100" />
<use x="147.844" y="209.866" xlink:href="#dot"  stroke="#ff0000" />
<use x="147.47" y="191.695" xlink:href="#dot"  stroke="#00ebff" />
<use x="150" y="203.61" xlink:href="#dot"  stroke="#ffe100" />
<use x="150" y="209.889" xlink:href="#dot"  stroke="#ff0000" />
<use x="150" y="191.635" xlink:href="#dot"  stroke="#00ebff" />
<use x="152.554" y="203.62" xlink:href="#dot"  stroke="#ffe100" />
<use x="152.156" y="209.866" xlink:href="#dot"  stroke="#ff0000" />
<use x="152.53" y="191.695" xlink:href="#dot"  stroke="#00ebff" />
<use x="154.544" y="203.576" xlink:href="#dot"  stroke="#ffe100" />
<use x="153.746" y="209.723" xlink:href="#dot"  stroke="#ff0000" />
<use x="154.493" y="191.8" xlink:href="#dot"  stroke="#00ebff" />
<use x="155.411" y="203.287" xlink:href="#dot"  stroke="#ffe100" />
<use x="154.21" y="209.269" xlink:href="#dot"  stroke="#ff0000" />
<use x="155.33" y="191.76" xlink:href="#dot"  stroke="#00ebff" />
<use x="154.654" y="202.541" xlink:href="#dot"  stroke="#ffe100" />
<use x="153.042" y="208.288" xlink:href="#dot"  stroke="#ff0000" />
<use x="154.541" y="191.364" xlink:href="#dot"  stroke="#00ebff" />
<use x="151.945" y="201.227" xlink:href="#dot"  stroke="#ffe100" />
<use x="149.907" y="206.669" xlink:href="#dot"  stroke="#ff0000" />
<use x="151.812" y="190.509" xlink:href="#dot"  stroke="#00ebff" />
<use x="147.291" y="199.466" xlink:href="#dot"  stroke="#ffe100" />
<use x="144.799" y="204.526" xlink:href="#dot"  stroke="#ff0000" />
<use x="147.167" y="189.323" xlink:href="#dot"  stroke="#00ebff" />
<use x="141.155" y="197.658" xlink:href="#dot"  stroke="#ffe100" />
<use x="138.163" y="202.254" xlink:href="#dot"  stroke="#ff0000" />
<use x="141.101" y="188.225" xlink:href="#dot"  stroke="#00ebff" />
<use x="134.401" y="196.383" xlink:href="#dot"  stroke="#ffe100" />
<use x="130.841" y="200.42" xlink:href="#dot"  stroke="#ff0000" />
<use x="134.522" y="187.816" xlink:href="#dot"  stroke="#00ebff" />
<use x="127.928" y="196.027" xlink:href="#dot"  stroke="#ffe100" />
<use x="123.701" y="199.397" xlink:href="#dot"  stroke="#ff0000" />
<use x="128.385" y="188.512" xlink:href="#dot"  stroke="#00ebff" />
<use x="121.936" y="196.1" xlink:href="#dot"  stroke="#ffe100" />
<use x="116.903" y="198.681" xlink:href="#dot"  stroke="#ff0000" />
<use x="122.955" y="189.843" xlink:href="#dot"  stroke="#00ebff" />
<use x="115.202" y="194.435" xlink:href="#dot"  stroke="#ffe100" />
<use x="109.18" y="196.096" xlink:href="#dot"  stroke="#ff0000" />
<use x="117.067" y="189.635" xlink:href="#dot"  stroke="#00ebff" />
<use x="105.911" y="187.104" xlink:href="#dot"  stroke="#ffe100" />
<use x="98.6741" y="187.722" xlink:href="#dot"  stroke="#ff0000" />
<use x="108.939" y="183.865" xlink:href="#dot"  stroke="#00ebff" />
<use x="96.8704" y="169.595" xlink:href="#dot"  stroke="#ffe100" />
<use x="88.1477" y="169.114" xlink:href="#dot"  stroke="#ff0000" />
<use x="101.365" y="167.664" xlink:href="#dot"  stroke="#00ebff" />
<use x="202.164" y="166.087" xlink:href="#dot"  stroke="#ffe100" />
<use x="209.033" y="164.295" xlink:href="#dot"  stroke="#ff0000" />
<use x="199.467" y="165.789" xlink:href="#dot"  stroke="#00ebff" />
<use x="186.127" y="185.925" xlink:href="#dot"  stroke="#ffe100" />
<use x="191.874" y="185.242" xlink:href="#dot"  stroke="#ff0000" />
<use x="184.346" y="184.253" xlink:href="#dot"  stroke="#00ebff" />
<use x="175.482" y="191.838" xlink:href="#dot"  stroke="#ffe100" />
<use x="180.265" y="192.171" xlink:href="#dot"  stroke="#ff0000" />
<use x="174.527" y="188.636" xlink:href="#dot"  stroke="#00ebff" />
<use x="168.171" y="191.439" xlink:href="#dot"  stroke="#ffe100" />
<use x="172.152" y="192.643" xlink:href="#dot"  stroke="#ff0000" />
<use x="167.827" y="186.865" xlink:href="#dot"  stroke="#00ebff" />
<use x="161.935" y="189.568" xlink:href="#dot"  stroke="#ffe100" />
<use x="165.251" y="191.496" xlink:href="#dot"  stroke="#ff0000" />
<use x="161.982" y="183.856" xlink:href="#dot"  stroke="#00ebff" />
<use x="155.954" y="188.463" xlink:href="#dot"  stroke="#ffe100" />
<use x="158.712" y="190.983" xlink:href="#dot"  stroke="#ff0000" />
<use x="156.215" y="181.84" xlink:href="#dot"  stroke="#00ebff" />
<use x="150.549" y="188.554" xlink:href="#dot"  stroke="#ffe100" />
<use x="152.825" y="191.555" xlink:href="#dot"  stroke="#ff0000" />
<use x="150.898" y="181.214" xlink:href="#dot"  stroke="#00ebff" />
<use x="146.402" y="189.436" xlink:href="#dot"  stroke="#ffe100" />
<use x="148.247" y="192.822" xlink:href="#dot"  stroke="#ff0000" />
<use x="146.755" y="181.537" xlink:href="#dot"  stroke="#00ebff" />
<use x="144.015" y="190.548" xlink:href="#dot"  stroke="#ffe100" />
<use x="145.464" y="194.236" xlink:href="#dot"  stroke="#ff0000" />
<use x="144.326" y="182.221" xlink:href="#dot"  stroke="#00ebff" />
<use x="143.513" y="191.498" xlink:href="#dot"  stroke="#ffe100" />
<use x="144.588" y="195.413" xlink:href="#dot"  stroke="#ff0000" />
<use x="143.757" y="182.852" xlink:href="#dot"  stroke="#00ebff" />
<use x="144.67" y="192.131" xlink:href="#dot"  stroke="#ffe100" />
<use x="145.381" y="196.205" xlink:href="#dot"  stroke="#ff0000" />
<use x="144.835" y="183.265" xlink:href="#dot"  stroke="#00ebff" />
<use x="147.025" y="192.461" xlink:href="#dot"  stroke="#ffe100" />
<use x="147.379" y="196.63" xlink:href="#dot"  stroke="#ff0000" />
<use x="147.108" y="183.465" xlink:href="#dot"  stroke="#00ebff" />
<use x="150" y="192.559" xlink:href="#dot"  stroke="#ffe100" />
<use x="150" y="196.759" xlink:href="#dot"  stroke="#ff0000" />
<use x="150" y="183.521" xlink:href="#dot"  stroke="#00ebff" />
<use x="152.975" y="192.461" xlink:href="#dot"  stroke="#ffe100" />
<use x="152.621" y="196.63" xlink:href="#dot"  stroke="#ff0000" />
<use x="152.892" y="183.465" xlink:href="#dot"  stroke="#00ebff" />
<use x="155.33" y="192.131" xlink:href="#dot"  stroke="#ffe100" />
<use x="154.619" y="196.205" xlink:href="#dot"  stroke="#ff0000" />
<use x="155.165" y="183.265" xlink:href="#dot"  stroke="#00ebff" />
<use x="156.487" y="191.498" xlink:href="#dot"  stroke="#ffe100" />
<use x="155.412" y="195.413" xlink:href="#dot"  stroke="#ff0000" />
<use x="156.243" y="182.852" xlink:href="#dot"  stroke="#00ebff" />
<use x="155.985" y="190.548" xlink:href="#dot"  stroke="#ffe100" />
<use x="154.536" y="194.236" xlink:href="#dot"  stroke="#ff0000" />
<use x="155.674" y="182.221" xlink:href="#dot"  stroke="#00ebff" />
<use x="153.598" y="189.436" xlink:href="#dot"  stroke="#ffe100" />
<use x="151.753" y="192.822" xlink:href="#dot"  stroke="#ff0000" />
<use x="153.245" y="181.537" xlink:href="#dot"  stroke="#00ebff" />
<use x="149.451" y="188.554" xlink:href="#dot"  stroke="#ffe100" />
<use x="147.175" y="191.555" xlink:href="#dot"  stroke="#ff0000" />
<use x="149.102" y="181.214" xlink:href="#dot"  stroke="#00ebff" />
<use x="144.046" y="188.463" xlink:href="#dot"  stroke="#ffe100" />
<use x="141.288" y="190.983" xlink:href="#dot"  stroke="#ff0000" />
<use x="143.785" y="181.84" xlink:href="#dot"  stroke="#00ebff" />
<use x="138.065" y="189.568" xlink:href="#dot"  stroke="#ffe100" />
<use x="134.749" y="191.496" xlink:href="#dot"  stroke="#ff0000" />
<use x="138.018" y="183.856" xlink:href="#dot"  stroke="#00ebff" />
<use x="131.829" y="191.439" xlink:href="#dot"  stroke="#ffe100" />
<use x="127.848" y="192.643" xlink:href="#dot"  stroke="#ff0000" />
<use x="132.173" y="186.865" xlink:href="#dot"  stroke="#00ebff" />
<use x="124.518" y="191.838" xlink:href="#dot"  stroke="#ffe100" />
<use x="119.735" y="192.171" xlink:href="#dot"  stroke="#ff0000" />
<use x="125.473" y="188.636" xlink:href="#dot"  stroke="#00ebff" />
<use x="113.873" y="185.925" xlink:href="#dot"  stroke="#ffe100" />
<use x="108.126" y="185.242" xlink:href="#dot"  stroke="#ff0000" />
<use x="115.654" y="184.253" xlink:href="#dot"  stroke="#00ebff" />
<use x="97.8356" y="166.087" xlink:href="#dot"  stroke="#ffe100" />
<use x="90.9671" y="164.295" xlink:href="#dot"  stroke="#ff0000" />
<use x="100.533" y="165.789" xlink:href="#dot"  stroke="#00ebff" />
<use x="191.787" y="156.802" xlink:href="#dot"  stroke="#ffe100" />
<use x="197.491" y="154.122" xlink:href="#dot"  stroke="#ff0000" />
<use x="189.81" y="157.397" xlink:href="#dot"  stroke="#00ebff" />
<use x="174.536" y="179.815" xlink:href="#dot"  stroke="#ffe100" />
<use x="179.303" y="178.233" xlink:href="#dot"  stroke="#ff0000" />
<use x="173.268" y="179.033" xlink:href="#dot"  stroke="#00ebff" />
<use x="164.335" y="186.346" xlink:href="#dot"  stroke="#ffe100" />
<use x="168.281" y="185.744" xlink:href="#dot"  stroke="#ff0000" />
<use x="163.733" y="184.089" xlink:href="#dot"  stroke="#00ebff" />
<use x="157.718" y="185.834" xlink:href="#dot"  stroke="#ffe100" />
<use x="160.973" y="186.051" xlink:href="#dot"  stroke="#ff0000" />
<use x="157.605" y="182.29" xlink:href="#dot"  stroke="#00ebff" />
<use x="152.561" y="183.637" xlink:href="#dot"  stroke="#ffe100" />
<use x="155.238" y="184.518" xlink:href="#dot"  stroke="#ff0000" />
<use x="152.751" y="179.059" xlink:href="#dot"  stroke="#00ebff" />
<use x="148.236" y="182.102" xlink:href="#dot"  stroke="#ffe100" />
<use x="150.422" y="183.51" xlink:href="#dot"  stroke="#ff0000" />
<use x="148.579" y="176.724" xlink:href="#dot"  stroke="#00ebff" />
<use x="144.968" y="181.72" xlink:href="#dot"  stroke="#ffe100" />
<use x="146.724" y="183.542" xlink:href="#dot"  stroke="#ff0000" />
<use x="145.355" y="175.739" xlink:href="#dot"  stroke="#00ebff" />
<use x="143.153" y="182.165" xlink:href="#dot"  stroke="#ffe100" />
<use x="144.522" y="184.306" xlink:href="#dot"  stroke="#ff0000" />
<use x="143.516" y="175.738" xlink:href="#dot"  stroke="#00ebff" />
<use x="142.987" y="182.94" xlink:href="#dot"  stroke="#ffe100" />
<use x="143.995" y="185.316" xlink:href="#dot"  stroke="#ff0000" />
<use x="143.283" y="176.192" xlink:href="#dot"  stroke="#00ebff" />
<use x="144.351" y="183.668" xlink:href="#dot"  stroke="#ffe100" />
<use x="145.016" y="186.207" xlink:href="#dot"  stroke="#ff0000" />
<use x="144.558" y="176.704" xlink:href="#dot"  stroke="#00ebff" />
<use x="146.869" y="184.152" xlink:href="#dot"  stroke="#ffe100" />
<use x="147.199" y="186.787" xlink:href="#dot"  stroke="#ff0000" />
<use x="146.975" y="177.062" xlink:href="#dot"  stroke="#00ebff" />
<use x="150" y="184.318" xlink:href="#dot"  stroke="#ffe100" />
<use x="150" y="186.984" xlink:href="#dot"  stroke="#ff0000" />
<use x="150" y="177.187" xlink:href="#dot"  stroke="#00ebff" />
<use x="153.131" y="184.152" xlink:href="#dot"  stroke="#ffe100" />
<use x="152.801" y="186.787" xlink:href="#dot"  stroke="#ff0000" />
<use x="153.025" y="177.062" xlink:href="#dot"  stroke="#00ebff" />
<use x="155.649" y="183.668" xlink:href="#dot"  stroke="#ffe100" />
<use x="154.984" y="186.207" xlink:href="#dot"  stroke="#ff0000" />
<use x="155.442" y="176.704" xlink:href="#dot"  stroke="#00ebff" />
<use x="157.013" y="182.94" xlink:href="#dot"  stroke="#ffe100" />
<use x="156.005" y="185.316" xlink:href="#dot"  stroke="#ff0000" />
<use x="156.717" y="176.192" xlink:href="#dot"  stroke="#00ebff" />
<use x="156.847" y="182.165" xlink:href="#dot"  stroke="#ffe100" />
<use x="155.478" y="184.306" xlink:href="#dot"  stroke="#ff0000" />
<use x="156.484" y="175.738" xlink:href="#dot"  stroke="#00ebff" />
<use x="155.032" y="181.72" xlink:href="#dot"  stroke="#ffe100" />
<use x="153.276" y="183.542" xlink:href="#dot"  stroke="#ff0000" />
<use x="154.645" y="175.739" xlink:href="#dot"  stroke="#00ebff" />
<use x="151.764" y="182.102" xlink:href="#dot"  stroke="#ffe100" />
<use x="149.578" y="183.51" xlink:href="#dot"  stroke="#ff0000" />
<use x="151.421" y="176.724" xlink:href="#dot"  stroke="#00ebff" />
<use x="147.439" y="183.637" xlink:href="#dot"  stroke="#ffe100" />
<use x="144.762" y="184.518" xlink:href="#dot"  stroke="#ff0000" />
<use x="147.249" y="179.059" xlink:href="#dot"  stroke="#00ebff" />
<use x="142.282" y="185.834" xlink:href="#dot"  stroke="#ffe100" />
<use x="139.027" y="186.051" xlink:href="#dot"  stroke="#ff0000" />
<use x="142.395" y="182.29" xlink:href="#dot"  stroke="#00ebff" />
<use x="135.665" y="186.346" xlink:href="#dot"  stroke="#ffe100" />
<use x="131.719" y="185.744" xlink:href="#dot"  stroke="#ff0000" />
<use x="136.267" y="184.089" xlink:href="#dot"  stroke="#00ebff" />
<use x="125.464" y="179.815" xlink:href="#dot"  stroke="#ffe100" />
<use x="120.697" y="178.233" xlink:href="#dot"  stroke="#ff0000" />
<use x="126.732" y="179.033" xlink:href="#dot"  stroke="#00ebff" />
<use x="108.213" y="156.802" xlink:href="#dot"  stroke="#ffe100" />
<use x="102.509" y="154.122" xlink:href="#dot"  stroke="#ff0000" />
<use x="110.19" y="157.397" xlink:href="#dot"  stroke="#00ebff" />
<use x="212.575" y="78.4491" xlink:href="#dot"  stroke="#00ebff" />
<use x="182.121" y="145.53" xlink:href="#dot"  stroke="#ffe100" />
<use x="187" y="142.154" xlink:href="#dot"  stroke="#ff0000" />
<use x="180.451" y="146.699" xlink:href="#dot"  stroke="#00ebff" />
<use x="165.047" y="173.461" xlink:href="#dot"  stroke="#ffe100" />
<use x="169.1" y="171.164" xlink:href="#dot"  stroke="#ff0000" />
<use x="163.98" y="173.29" xlink:href="#dot"  stroke="#00ebff" />
<use x="155.654" y="182.405" xlink:href="#dot"  stroke="#ffe100" />
<use x="158.978" y="181.055" xlink:href="#dot"  stroke="#ff0000" />
<use x="155.156" y="180.821" xlink:href="#dot"  stroke="#00ebff" />
<use x="150.107" y="183.129" xlink:href="#dot"  stroke="#ffe100" />
<use x="152.816" y="182.554" xlink:href="#dot"  stroke="#ff0000" />
<use x="150.024" y="180.332" xlink:href="#dot"  stroke="#00ebff" />
<use x="146.424" y="181.459" xlink:href="#dot"  stroke="#ffe100" />
<use x="148.611" y="181.497" xlink:href="#dot"  stroke="#ff0000" />
<use x="146.591" y="177.706" xlink:href="#dot"  stroke="#00ebff" />
<use x="143.971" y="179.968" xlink:href="#dot"  stroke="#ffe100" />
<use x="145.711" y="180.48" xlink:href="#dot"  stroke="#ff0000" />
<use x="144.258" y="175.496" xlink:href="#dot"  stroke="#00ebff" />
<use x="142.771" y="179.334" xlink:href="#dot"  stroke="#ffe100" />
<use x="144.116" y="180.204" xlink:href="#dot"  stroke="#ff0000" />
<use x="143.082" y="174.34" xlink:href="#dot"  stroke="#00ebff" />
<use x="142.941" y="179.391" xlink:href="#dot"  stroke="#ffe100" />
<use x="143.925" y="180.523" xlink:href="#dot"  stroke="#ff0000" />
<use x="143.216" y="174.032" xlink:href="#dot"  stroke="#00ebff" />
<use x="144.425" y="179.754" xlink:href="#dot"  stroke="#ffe100" />
<use x="145.071" y="181.064" xlink:href="#dot"  stroke="#ff0000" />
<use x="144.625" y="174.153" xlink:href="#dot"  stroke="#00ebff" />
<use x="146.934" y="180.098" xlink:href="#dot"  stroke="#ffe100" />
<use x="147.254" y="181.511" xlink:href="#dot"  stroke="#ff0000" />
<use x="147.038" y="174.36" xlink:href="#dot"  stroke="#00ebff" />
<use x="150" y="180.232" xlink:href="#dot"  stroke="#ffe100" />
<use x="150" y="181.679" xlink:href="#dot"  stroke="#ff0000" />
<use x="150" y="174.449" xlink:href="#dot"  stroke="#00ebff" />
<use x="153.066" y="180.098" xlink:href="#dot"  stroke="#ffe100" />
<use x="152.746" y="181.511" xlink:href="#dot"  stroke="#ff0000" />
<use x="152.962" y="174.36" xlink:href="#dot"  stroke="#00ebff" />
<use x="155.575" y="179.754" xlink:href="#dot"  stroke="#ffe100" />
<use x="154.929" y="181.064" xlink:href="#dot"  stroke="#ff0000" />
<use x="155.375" y="174.153" xlink:href="#dot"  stroke="#00ebff" />
<use x="157.059" y="179.391" xlink:href="#dot"  stroke="#ffe100" />
<use x="156.075" y="180.523" xlink:href="#dot"  stroke="#ff0000" />
<use x="156.784" y="174.032" xlink:href="#dot"  stroke="#00ebff" />
<use x="157.229" y="179.334" xlink:href="#dot"  stroke="#ffe100" />
<use x="155.884" y="180.204" xlink:href="#dot"  stroke="#ff0000" />
<use x="156.918" y="174.34" xlink:href="#dot"  stroke="#00ebff" />
<use x="156.029" y="179.968" xlink:href="#dot"  stroke="#ffe100" />
<use x="154.289" y="180.48" xlink:href="#dot"  stroke="#ff0000" />
<use x="155.742" y="175.496" xlink:href="#dot"  stroke="#00ebff" />
<use x="153.576" y="181.459" xlink:href="#dot"  stroke="#ffe100" />
<use x="151.389" y="181.497" xlink:href="#dot"  stroke="#ff0000" />
<use x="153.409" y="177.706" xlink:href="#dot"  stroke="#00ebff" />
<use x="149.893" y="183.129" xlink:href="#dot"  stroke="#ffe100" />
<use x="147.184" y="182.554" xlink:href="#dot"  stroke="#ff0000" />
<use x="149.976" y="180.332" xlink:href="#dot"  stroke="#00ebff" />
<use x="144.346" y="182.405" xlink:href="#dot"  stroke="#ffe100" />
<use x="141.022" y="181.055" xlink:href="#dot"  stroke="#ff0000" />
<use x="144.844" y="180.821" xlink:href="#dot"  stroke="#00ebff" />
<use x="134.953" y="173.461" xlink:href="#dot"  stroke="#ffe100" />
<use x="130.9" y="171.164" xlink:href="#dot"  stroke="#ff0000" />
<use x="136.02" y="173.29" xlink:href="#dot"  stroke="#00ebff" />
<use x="117.879" y="145.53" xlink:href="#dot"  stroke="#ffe100" />
<use x="113" y="142.154" xlink:href="#dot"  stroke="#ff0000" />
<use x="119.549" y="146.699" xlink:href="#dot"  stroke="#00ebff" />
<use x="87.4254" y="78.4491" xlink:href="#dot"  stroke="#00ebff" />
<use x="175.93" y="131.761" xlink:href="#dot"  stroke="#ffe100" />
<use x="180.167" y="127.767" xlink:href="#dot"  stroke="#ff0000" />
<use x="174.405" y="133.371" xlink:href="#dot"  stroke="#00ebff" />
<use x="159.132" y="166.965" xlink:href="#dot"  stroke="#ffe100" />
<use x="162.623" y="164.029" xlink:href="#dot"  stroke="#ff0000" />
<use x="158.13" y="167.317" xlink:href="#dot"  stroke="#00ebff" />
<use x="150.444" y="180.149" xlink:href="#dot"  stroke="#ffe100" />
<use x="153.274" y="178.127" xlink:href="#dot"  stroke="#ff0000" />
<use x="149.939" y="179.159" xlink:href="#dot"  stroke="#00ebff" />
<use x="145.924" y="183.349" xlink:href="#dot"  stroke="#ffe100" />
<use x="148.19" y="182.065" xlink:href="#dot"  stroke="#ff0000" />
<use x="145.779" y="181.21" xlink:href="#dot"  stroke="#00ebff" />
<use x="143.618" y="182.962" xlink:href="#dot"  stroke="#ffe100" />
<use x="145.403" y="182.249" xlink:href="#dot"  stroke="#ff0000" />
<use x="143.69" y="179.926" xlink:href="#dot"  stroke="#00ebff" />
<use x="142.777" y="181.931" xlink:href="#dot"  stroke="#ffe100" />
<use x="144.145" y="181.647" xlink:href="#dot"  stroke="#ff0000" />
<use x="142.949" y="178.237" xlink:href="#dot"  stroke="#00ebff" />
<use x="143.187" y="181.245" xlink:href="#dot"  stroke="#ffe100" />
<use x="144.181" y="181.271" xlink:href="#dot"  stroke="#ff0000" />
<use x="143.377" y="177.09" xlink:href="#dot"  stroke="#00ebff" />
<use x="144.717" y="180.99" xlink:href="#dot"  stroke="#ffe100" />
<use x="145.366" y="181.224" xlink:href="#dot"  stroke="#ff0000" />
<use x="144.869" y="176.533" xlink:href="#dot"  stroke="#00ebff" />
<use x="147.119" y="180.966" xlink:href="#dot"  stroke="#ffe100" />
<use x="147.439" y="181.319" xlink:href="#dot"  stroke="#ff0000" />
<use x="147.202" y="176.339" xlink:href="#dot"  stroke="#00ebff" />
<use x="150" y="180.981" xlink:href="#dot"  stroke="#ffe100" />
<use x="150" y="181.374" xlink:href="#dot"  stroke="#ff0000" />
<use x="150" y="176.3" xlink:href="#dot"  stroke="#00ebff" />
<use x="152.881" y="180.966" xlink:href="#dot"  stroke="#ffe100" />
<use x="152.561" y="181.319" xlink:href="#dot"  stroke="#ff0000" />
<use x="152.798" y="176.339" xlink:href="#dot"  stroke="#00ebff" />
<use x="155.283" y="180.99" xlink:href="#dot"  stroke="#ffe100" />
<use x="154.634" y="181.224" xlink:href="#dot"  stroke="#ff0000" />
<use x="155.131" y="176.533" xlink:href="#dot"  stroke="#00ebff" />
<use x="156.813" y="181.245" xlink:href="#dot"  stroke="#ffe100" />
<use x="155.819" y="181.271" xlink:href="#dot"  stroke="#ff0000" />
<use x="156.623" y="177.09" xlink:href="#dot"  stroke="#00ebff" />
<use x="157.223" y="181.931" xlink:href="#dot"  stroke="#ffe100" />
<use x="155.855" y="181.647" xlink:href="#dot"  stroke="#ff0000" />
<use x="157.051" y="178.237" xlink:href="#dot"  stroke="#00ebff" />
<use x="156.382" y="182.962" xlink:href="#dot"  stroke="#ffe100" />
<use x="154.597" y="182.249" xlink:href="#dot"  stroke="#ff0000" />
<use x="156.31" y="179.926" xlink:href="#dot"  stroke="#00ebff" />
<use x="154.076" y="183.349" xlink:href="#dot"  stroke="#ffe100" />
<use x="151.81" y="182.065" xlink:href="#dot"  stroke="#ff0000" />
<use x="154.221" y="181.21" xlink:href="#dot"  stroke="#00ebff" />
<use x="149.556" y="180.149" xlink:href="#dot"  stroke="#ffe100" />
<use x="146.726" y="178.127" xlink:href="#dot"  stroke="#ff0000" />
<use x="150.061" y="179.159" xlink:href="#dot"  stroke="#00ebff" />
<use x="140.868" y="166.965" xlink:href="#dot"  stroke="#ffe100" />
<use x="137.377" y="164.029" xlink:href="#dot"  stroke="#ff0000" />
<use x="141.87" y="167.317" xlink:href="#dot"  stroke="#00ebff" />
<use x="124.07" y="131.761" xlink:href="#dot"  stroke="#ffe100" />
<use x="119.833" y="127.767" xlink:href="#dot"  stroke="#ff0000" />
<use x="125.595" y="133.371" xlink:href="#dot"  stroke="#00ebff" />
<use x="173.636" y="112.563" xlink:href="#dot"  stroke="#ffe100" />
<use x="177.338" y="107.967" xlink:href="#dot"  stroke="#ff0000" />
<use x="172.203" y="114.557" xlink:href="#dot"  stroke="#00ebff" />
<use x="156.805" y="158.025" xlink:href="#dot"  stroke="#ffe100" />
<use x="159.824" y="154.457" xlink:href="#dot"  stroke="#ff0000" />
<use x="155.815" y="158.906" xlink:href="#dot"  stroke="#00ebff" />
<use x="148.528" y="177.544" xlink:href="#dot"  stroke="#ffe100" />
<use x="150.939" y="174.858" xlink:href="#dot"  stroke="#ff0000" />
<use x="147.972" y="177.179" xlink:href="#dot"  stroke="#00ebff" />
<use x="144.757" y="184.663" xlink:href="#dot"  stroke="#ffe100" />
<use x="146.644" y="182.679" xlink:href="#dot"  stroke="#ff0000" />
<use x="144.518" y="183.217" xlink:href="#dot"  stroke="#00ebff" />
<use x="143.475" y="186.529" xlink:href="#dot"  stroke="#ffe100" />
<use x="144.908" y="185.077" xlink:href="#dot"  stroke="#ff0000" />
<use x="143.428" y="184.246" xlink:href="#dot"  stroke="#00ebff" />
<use x="143.76" y="186.614" xlink:href="#dot"  stroke="#ffe100" />
<use x="144.794" y="185.546" xlink:href="#dot"  stroke="#ff0000" />
<use x="143.806" y="183.73" xlink:href="#dot"  stroke="#00ebff" />
<use x="145.171" y="186.34" xlink:href="#dot"  stroke="#ffe100" />
<use x="145.842" y="185.53" xlink:href="#dot"  stroke="#ff0000" />
<use x="145.237" y="183.058" xlink:href="#dot"  stroke="#00ebff" />
<use x="147.375" y="186.138" xlink:href="#dot"  stroke="#ffe100" />
<use x="147.705" y="185.476" xlink:href="#dot"  stroke="#ff0000" />
<use x="147.418" y="182.631" xlink:href="#dot"  stroke="#00ebff" />
<use x="150" y="186.074" xlink:href="#dot"  stroke="#ffe100" />
<use x="150" y="185.459" xlink:href="#dot"  stroke="#ff0000" />
<use x="150" y="182.493" xlink:href="#dot"  stroke="#00ebff" />
<use x="152.625" y="186.138" xlink:href="#dot"  stroke="#ffe100" />
<use x="152.295" y="185.476" xlink:href="#dot"  stroke="#ff0000" />
<use x="152.582" y="182.631" xlink:href="#dot"  stroke="#00ebff" />
<use x="154.829" y="186.34" xlink:href="#dot"  stroke="#ffe100" />
<use x="154.158" y="185.53" xlink:href="#dot"  stroke="#ff0000" />
<use x="154.763" y="183.058" xlink:href="#dot"  stroke="#00ebff" />
<use x="156.24" y="186.614" xlink:href="#dot"  stroke="#ffe100" />
<use x="155.206" y="185.546" xlink:href="#dot"  stroke="#ff0000" />
<use x="156.194" y="183.73" xlink:href="#dot"  stroke="#00ebff" />
<use x="156.525" y="186.529" xlink:href="#dot"  stroke="#ffe100" />
<use x="155.092" y="185.077" xlink:href="#dot"  stroke="#ff0000" />
<use x="156.572" y="184.246" xlink:href="#dot"  stroke="#00ebff" />
<use x="155.243" y="184.663" xlink:href="#dot"  stroke="#ffe100" />
<use x="153.356" y="182.679" xlink:href="#dot"  stroke="#ff0000" />
<use x="155.482" y="183.217" xlink:href="#dot"  stroke="#00ebff" />
<use x="151.472" y="177.544" xlink:href="#dot"  stroke="#ffe100" />
<use x="149.061" y="174.858" xlink:href="#dot"  stroke="#ff0000" />
<use x="152.028" y="177.179" xlink:href="#dot"  stroke="#00ebff" />
<use x="143.195" y="158.025" xlink:href="#dot"  stroke="#ffe100" />
<use x="140.176" y="154.457" xlink:href="#dot"  stroke="#ff0000" />
<use x="144.185" y="158.906" xlink:href="#dot"  stroke="#00ebff" />
<use x="126.364" y="112.563" xlink:href="#dot"  stroke="#ffe100" />
<use x="122.662" y="107.967" xlink:href="#dot"  stroke="#ff0000" />
<use x="127.797" y="114.557" xlink:href="#dot"  stroke="#00ebff" />
<use x="174.927" y="82.7488" xlink:href="#dot"  stroke="#ffe100" />
<use x="178.156" y="77.5271" xlink:href="#dot"  stroke="#ff0000" />
<use x="173.589" y="85.0687" xlink:href="#dot"  stroke="#00ebff" />
<use x="157.597" y="142.264" xlink:href="#dot"  stroke="#ffe100" />
<use x="160.198" y="138.025" xlink:href="#dot"  stroke="#ff0000" />
<use x="156.617" y="143.714" xlink:href="#dot"  stroke="#00ebff" />
<use x="149.342" y="170.654" xlink:href="#dot"  stroke="#ffe100" />
<use x="151.377" y="167.255" xlink:href="#dot"  stroke="#ff0000" />
<use x="148.733" y="171.006" xlink:href="#dot"  stroke="#00ebff" />
<use x="145.918" y="183.467" xlink:href="#dot"  stroke="#ffe100" />
<use x="147.458" y="180.728" xlink:href="#dot"  stroke="#ff0000" />
<use x="145.59" y="182.844" xlink:href="#dot"  stroke="#00ebff" />
<use x="145.178" y="188.855" xlink:href="#dot"  stroke="#ffe100" />
<use x="146.282" y="186.6" xlink:href="#dot"  stroke="#ff0000" />
<use x="145.028" y="187.48" xlink:href="#dot"  stroke="#00ebff" />
<use x="146.013" y="190.963" xlink:href="#dot"  stroke="#ffe100" />
<use x="146.726" y="189.035" xlink:href="#dot"  stroke="#ff0000" />
<use x="145.958" y="189.071" xlink:href="#dot"  stroke="#00ebff" />
<use x="147.781" y="191.72" xlink:href="#dot"  stroke="#ffe100" />
<use x="148.131" y="189.98" xlink:href="#dot"  stroke="#ff0000" />
<use x="147.767" y="189.53" xlink:href="#dot"  stroke="#00ebff" />
<use x="150" y="191.905" xlink:href="#dot"  stroke="#ffe100" />
<use x="150" y="190.227" xlink:href="#dot"  stroke="#ff0000" />
<use x="150" y="189.617" xlink:href="#dot"  stroke="#00ebff" />
<use x="152.219" y="191.72" xlink:href="#dot"  stroke="#ffe100" />
<use x="151.869" y="189.98" xlink:href="#dot"  stroke="#ff0000" />
<use x="152.233" y="189.53" xlink:href="#dot"  stroke="#00ebff" />
<use x="153.987" y="190.963" xlink:href="#dot"  stroke="#ffe100" />
<use x="153.274" y="189.035" xlink:href="#dot"  stroke="#ff0000" />
<use x="154.042" y="189.071" xlink:href="#dot"  stroke="#00ebff" />
<use x="154.822" y="188.855" xlink:href="#dot"  stroke="#ffe100" />
<use x="153.718" y="186.6" xlink:href="#dot"  stroke="#ff0000" />
<use x="154.972" y="187.48" xlink:href="#dot"  stroke="#00ebff" />
<use x="154.082" y="183.467" xlink:href="#dot"  stroke="#ffe100" />
<use x="152.542" y="180.728" xlink:href="#dot"  stroke="#ff0000" />
<use x="154.41" y="182.844" xlink:href="#dot"  stroke="#00ebff" />
<use x="150.658" y="170.654" xlink:href="#dot"  stroke="#ffe100" />
<use x="148.623" y="167.255" xlink:href="#dot"  stroke="#ff0000" />
<use x="151.267" y="171.006" xlink:href="#dot"  stroke="#00ebff" />
<use x="142.403" y="142.264" xlink:href="#dot"  stroke="#ffe100" />
<use x="139.802" y="138.025" xlink:href="#dot"  stroke="#ff0000" />
<use x="143.383" y="143.714" xlink:href="#dot"  stroke="#00ebff" />
<use x="125.073" y="82.7488" xlink:href="#dot"  stroke="#ffe100" />
<use x="121.844" y="77.5271" xlink:href="#dot"  stroke="#ff0000" />
<use x="126.411" y="85.0687" xlink:href="#dot"  stroke="#00ebff" />
<use x="160.898" y="112.339" xlink:href="#dot"  stroke="#ffe100" />
<use x="163.107" y="107.354" xlink:href="#dot"  stroke="#ff0000" />
<use x="159.959" y="114.367" xlink:href="#dot"  stroke="#00ebff" />
<use x="152.204" y="152.592" xlink:href="#dot"  stroke="#ffe100" />
<use x="153.881" y="148.383" xlink:href="#dot"  stroke="#ff0000" />
<use x="151.576" y="153.769" xlink:href="#dot"  stroke="#00ebff" />
<use x="148.646" y="173.017" xlink:href="#dot"  stroke="#ffe100" />
<use x="149.848" y="169.402" xlink:href="#dot"  stroke="#ff0000" />
<use x="148.269" y="173.395" xlink:href="#dot"  stroke="#00ebff" />
<use x="147.883" y="183.071" xlink:href="#dot"  stroke="#ffe100" />
<use x="148.658" y="179.868" xlink:href="#dot"  stroke="#ff0000" />
<use x="147.681" y="182.848" xlink:href="#dot"  stroke="#00ebff" />
<use x="148.612" y="187.618" xlink:href="#dot"  stroke="#ffe100" />
<use x="148.991" y="184.655" xlink:href="#dot"  stroke="#ff0000" />
<use x="148.526" y="187.032" xlink:href="#dot"  stroke="#00ebff" />
<use x="150" y="188.917" xlink:href="#dot"  stroke="#ffe100" />
<use x="150" y="186.032" xlink:href="#dot"  stroke="#ff0000" />
<use x="150" y="188.21" xlink:href="#dot"  stroke="#00ebff" />
<use x="151.388" y="187.618" xlink:href="#dot"  stroke="#ffe100" />
<use x="151.009" y="184.655" xlink:href="#dot"  stroke="#ff0000" />
<use x="151.474" y="187.032" xlink:href="#dot"  stroke="#00ebff" />
<use x="152.117" y="183.071" xlink:href="#dot"  stroke="#ffe100" />
<use x="151.342" y="179.868" xlink:href="#dot"  stroke="#ff0000" />
<use x="152.319" y="182.848" xlink:href="#dot"  stroke="#00ebff" />
<use x="151.354" y="173.017" xlink:href="#dot"  stroke="#ffe100" />
<use x="150.152" y="169.402" xlink:href="#dot"  stroke="#ff0000" />
<use x="151.731" y="173.395" xlink:href="#dot"  stroke="#00ebff" />
<use x="147.796" y="152.592" xlink:href="#dot"  stroke="#ffe100" />
<use x="146.119" y="148.383" xlink:href="#dot"  stroke="#ff0000" />
<use x="148.424" y="153.769" xlink:href="#dot"  stroke="#00ebff" />
<use x="139.102" y="112.339" xlink:href="#dot"  stroke="#ffe100" />
<use x="136.893" y="107.354" xlink:href="#dot"  stroke="#ff0000" />
<use x="140.041" y="114.367" xlink:href="#dot"  stroke="#00ebff" />
<use x="156.28" y="110.627" xlink:href="#dot"  stroke="#ffe100" />
<use x="157.593" y="105.469" xlink:href="#dot"  stroke="#ff0000" />
<use x="155.701" y="112.648" xlink:href="#dot"  stroke="#00ebff" />
<use x="151.954" y="139.793" xlink:href="#dot"  stroke="#ffe100" />
<use x="152.802" y="135.123" xlink:href="#dot"  stroke="#ff0000" />
<use x="151.605" y="141.309" xlink:href="#dot"  stroke="#00ebff" />
<use x="150.389" y="153.873" xlink:href="#dot"  stroke="#ffe100" />
<use x="150.805" y="149.495" xlink:href="#dot"  stroke="#ff0000" />
<use x="150.228" y="155.038" xlink:href="#dot"  stroke="#00ebff" />
<use x="150" y="158.056" xlink:href="#dot"  stroke="#ffe100" />
<use x="150" y="153.775" xlink:href="#dot"  stroke="#ff0000" />
<use x="150" y="159.098" xlink:href="#dot"  stroke="#00ebff" />
<use x="149.611" y="153.873" xlink:href="#dot"  stroke="#ffe100" />
<use x="149.195" y="149.495" xlink:href="#dot"  stroke="#ff0000" />
<use x="149.772" y="155.038" xlink:href="#dot"  stroke="#00ebff" />
<use x="148.046" y="139.793" xlink:href="#dot"  stroke="#ffe100" />
<use x="147.198" y="135.123" xlink:href="#dot"  stroke="#ff0000" />
<use x="148.395" y="141.309" xlink:href="#dot"  stroke="#00ebff" />
<use x="143.72" y="110.627" xlink:href="#dot"  stroke="#ffe100" />
<use x="142.407" y="105.469" xlink:href="#dot"  stroke="#ff0000" />
<use x="144.299" y="112.648" xlink:href="#dot"  stroke="#00ebff" />
</svg>
