<?xml version="1.0" standalone="no"?>
<svg width="640px" height="480px" version="1.1" xmlns="http://www.w3.org/2000/svg" xmlns:xlink="http://www.w3.org/1999/xlink">
<rect x="0" y="0" width="640" height="480"  fill="#ffffff" />
<defs>
<g id="dot">
<line x1="1" y1="1" x2="0" y2="0"  />
</g>
<g id="cross">
<line x1="-3" y1="0" x2="3" y2="0"  />
<line x1="0" y1="-3" x2="0" y2="3"  />
</g>
<g id="square">
<line x1="-3" y1="-3" x2="-3" y2="3"  />
<line x1="-3" y1="3" x2="3" y2="3"  />
<line x1="3" y1="3" x2="3" y2="-3"  />
<line x1="3" y1="-3" x2="-3" y2="-3"  />
</g>
<g id="round">
<ellipse cx="0" cy="0" rx="3" ry="3"  fill="none" /></g>
<g id="triangle">
<line x1="0" y1="-3" x2="-3" y2="3"  />
<line x1="-3" y1="3" x2="3" y2="3"  />
<line x1="0" y1="-3" x2="3" y2="3"  />
</g>
</defs>
<polygon fill="none" stroke="#000000" points="66.0317,430.476 66.0317,49.5238 573.968,49.5238 573.968,430.476 " />
<text style="font-size:12;text-align:center;text-anchor:middle;" x="320" y="473.619" fill="#000000">Entrance ray height (normalized)</text>
<line x1="66.0317" y1="202.357" x2="573.968" y2="202.357"  stroke="#000000" />
<use x="66.0317" y="202.357" xlink:href="#cross"  stroke="#000000" />
<use x="66.0317" y="49.5238" xlink:href="#cross"  stroke="#000000" />
<use x="66.0317" y="430.476" xlink:href="#cross"  stroke="#000000" />
<text style="font-size:12;text-align:center;text-anchor:middle;" x="66.0317" y="448.476" fill="#000000">-1</text>
<use x="320" y="202.357" xlink:href="#cross"  stroke="#000000" />
<use x="320" y="49.5238" xlink:href="#cross"  stroke="#000000" />
<use x="320" y="430.476" xlink:href="#cross"  stroke="#000000" />
<text style="font-size:12;text-align:center;text-anchor:middle;" x="320" y="448.476" fill="#000000">0</text>
<use x="573.968" y="202.357" xlink:href="#cross"  stroke="#000000" />
<use x="573.968" y="49.5238" xlink:href="#cross"  stroke="#000000" />
<use x="573.968" y="430.476" xlink:href="#cross"  stroke="#000000" />
<text style="font-size:12;text-align:center;text-anchor:middle;" x="573.968" y="448.476" fill="#000000">1</text>
<text style="font-size:12;text-align:center;text-anchor:middle;" x="16.5079" y="246" transform="rotate(-90,16.5079,240)" fill="#000000">Optical path difference (waves)</text>
<line x1="320" y1="430.476" x2="320" y2="49.5238"  stroke="#000000" />
<use x="320" y="424.731" xlink:href="#cross"  stroke="#000000" />
<use x="573.968" y="424.731" xlink:href="#cross"  stroke="#000000" />
<use x="66.0317" y="424.731" xlink:href="#cross"  stroke="#000000" />
<text style="font-size:12;text-align:right;text-anchor:end;" x="60.0317" y="430.731" fill="#000000">-25</text>
<use x="320" y="380.256" xlink:href="#cross"  stroke="#000000" />
<use x="573.968" y="380.256" xlink:href="#cross"  stroke="#000000" />
<use x="66.0317" y="380.256" xlink:href="#cross"  stroke="#000000" />
<text style="font-size:12;text-align:right;text-anchor:end;" x="60.0317" y="386.256" fill="#000000">-20</text>
<use x="320" y="335.781" xlink:href="#cross"  stroke="#000000" />
<use x="573.968" y="335.781" xlink:href="#cross"  stroke="#000000" />
<use x="66.0317" y="335.781" xlink:href="#cross"  stroke="#000000" />
<text style="font-size:12;text-align:right;text-anchor:end;" x="60.0317" y="341.781" fill="#000000">-15</text>
<use x="320" y="291.306" xlink:href="#cross"  stroke="#000000" />
<use x="573.968" y="291.306" xlink:href="#cross"  stroke="#000000" />
<use x="66.0317" y="291.306" xlink:href="#cross"  stroke="#000000" />
<text style="font-size:12;text-align:right;text-anchor:end;" x="60.0317" y="297.306" fill="#000000">-10</text>
<use x="320" y="246.831" xlink:href="#cross"  stroke="#000000" />
<use x="573.968" y="246.831" xlink:href="#cross"  stroke="#000000" />
<use x="66.0317" y="246.831" xlink:href="#cross"  stroke="#000000" />
<text style="font-size:12;text-align:right;text-anchor:end;" x="60.0317" y="252.831" fill="#000000">-5</text>
<use x="320" y="202.357" xlink:href="#cross"  stroke="#000000" />
<use x="573.968" y="202.357" xlink:href="#cross"  stroke="#000000" />
<use x="66.0317" y="202.357" xlink:href="#cross"  stroke="#000000" />
<text style="font-size:12;text-align:right;text-anchor:end;" x="60.0317" y="208.357" fill="#000000">0</text>
<use x="320" y="157.882" xlink:href="#cross"  stroke="#000000" />
<use x="573.968" y="157.882" xlink:href="#cross"  stroke="#000000" />
<use x="66.0317" y="157.882" xlink:href="#cross"  stroke="#000000" />
<text style="font-size:12;text-align:right;text-anchor:end;" x="60.0317" y="163.882" fill="#000000">5</text>
<use x="320" y="113.407" xlink:href="#cross"  stroke="#000000" />
<use x="573.968" y="113.407" xlink:href="#cross"  stroke="#000000" />
<use x="66.0317" y="113.407" xlink:href="#cross"  stroke="#000000" />
<text style="font-size:12;text-align:right;text-anchor:end;" x="60.0317" y="119.407" fill="#000000">10</text>
<use x="320" y="68.932" xlink:href="#cross"  stroke="#000000" />
<use x="573.968" y="68.932" xlink:href="#cross"  stroke="#000000" />
<use x="66.0317" y="68.932" xlink:href="#cross"  stroke="#000000" />
<text style="font-size:12;text-align:right;text-anchor:end;" x="60.0317" y="74.932" fill="#000000">15</text>
<text style="font-size:18;text-align:center;text-anchor:middle;" x="320" y="33.7619" fill="#000000">Optical path difference fan (tangential)</text>
<path fill="none"  stroke="#00ebff" d="M150.857,160.436 S162.133,57.7375 167.771,49.5238 S179.048,92.9707 184.686,111.154 S195.962,148.185 201.6,158.624 S212.876,170.148 218.514,173.792 S229.79,178.091 235.429,180.486 S246.705,185.647 252.343,188.164 S263.619,193.573 269.257,195.587 S280.533,199.171 286.171,200.245 S297.448,201.677 303.086,202.029 S314.362,202.357 320,202.357 S331.276,202.381 336.914,202.029 S348.19,201.318 353.829,200.245 S365.105,197.6 370.743,195.587 S382.019,190.68 387.657,188.164 S398.933,182.882 404.571,180.486 S415.848,177.435 421.486,173.792 S432.762,169.064 438.4,158.624 S449.676,129.338 455.314,111.154 S466.59,41.3101 472.229,49.5238 S486.324,141.951 489.143,160.436 " />
<path fill="none"  stroke="#ffe100" d="M150.857,326.753 S162.133,172.95 167.771,146.019 S179.048,157.97 184.686,165.167 S195.962,184.51 201.6,189.205 S212.876,192.609 218.514,193.333 S229.79,193.062 235.429,193.545 S246.705,195.187 252.343,196.228 S263.619,198.845 269.257,199.795 S280.533,201.49 286.171,201.925 S297.448,202.338 303.086,202.41 S314.362,202.357 320,202.357 S331.276,202.481 336.914,202.41 S348.19,202.361 353.829,201.925 S365.105,200.745 370.743,199.795 S382.019,197.27 387.657,196.228 S398.933,194.028 404.571,193.545 S415.848,194.056 421.486,193.333 S432.762,193.899 438.4,189.205 S449.676,172.365 455.314,165.167 S466.59,119.088 472.229,146.019 S486.324,296.63 489.143,326.753 " />
<path fill="none"  stroke="#ff0000" d="M150.857,430.476 S162.133,251.036 167.771,213.691 S179.048,206.284 184.686,206.408 S195.962,213.878 201.6,214.437 S212.876,211.445 218.514,209.759 S229.79,205.482 235.429,204.32 S246.705,202.97 252.343,202.791 S263.619,203.154 269.257,203.246 S280.533,203.426 286.171,203.342 S297.448,202.905 303.086,202.741 S314.362,202.357 320,202.357 S331.276,202.576 336.914,202.741 S348.19,203.257 353.829,203.342 S365.105,203.337 370.743,203.246 S382.019,202.612 387.657,202.791 S398.933,203.159 404.571,204.32 S415.848,208.073 421.486,209.759 S432.762,214.995 438.4,214.437 S449.676,206.533 455.314,206.408 S466.59,176.347 472.229,213.691 S486.324,394.345 489.143,430.476 " />
</svg>
