<?xml version="1.0" standalone="no"?>
<svg width="640px" height="480px" version="1.1" xmlns="http://www.w3.org/2000/svg" xmlns:xlink="http://www.w3.org/1999/xlink">
<rect x="0" y="0" width="640" height="480"  fill="#ffffff" />
<defs>
<g id="dot">
<line x1="1" y1="1" x2="0" y2="0"  />
</g>
<g id="cross">
<line x1="-3" y1="0" x2="3" y2="0"  />
<line x1="0" y1="-3" x2="0" y2="3"  />
</g>
<g id="square">
<line x1="-3" y1="-3" x2="-3" y2="3"  />
<line x1="-3" y1="3" x2="3" y2="3"  />
<line x1="3" y1="3" x2="3" y2="-3"  />
<line x1="3" y1="-3" x2="-3" y2="-3"  />
</g>
<g id="round">
<ellipse cx="0" cy="0" rx="3" ry="3"  fill="none" /></g>
<g id="triangle">
<line x1="0" y1="-3" x2="-3" y2="3"  />
<line x1="-3" y1="3" x2="3" y2="3"  />
<line x1="0" y1="-3" x2="3" y2="3"  />
</g>
</defs>
<polygon fill="none" stroke="#000000" points="66.0317,430.476 66.0317,49.5238 573.968,49.5238 573.968,430.476 " />
<text style="font-size:12;text-align:center;text-anchor:middle;" x="320" y="473.619" fill="#000000">Entrance ray height (normalized)</text>
<line x1="66.0317" y1="224.484" x2="573.968" y2="224.484"  stroke="#000000" />
<use x="66.0317" y="224.484" xlink:href="#cross"  stroke="#000000" />
<use x="66.0317" y="49.5238" xlink:href="#cross"  stroke="#000000" />
<use x="66.0317" y="430.476" xlink:href="#cross"  stroke="#000000" />
<text style="font-size:12;text-align:center;text-anchor:middle;" x="66.0317" y="448.476" fill="#000000">-1</text>
<use x="320" y="224.484" xlink:href="#cross"  stroke="#000000" />
<use x="320" y="49.5238" xlink:href="#cross"  stroke="#000000" />
<use x="320" y="430.476" xlink:href="#cross"  stroke="#000000" />
<text style="font-size:12;text-align:center;text-anchor:middle;" x="320" y="448.476" fill="#000000">0</text>
<use x="573.968" y="224.484" xlink:href="#cross"  stroke="#000000" />
<use x="573.968" y="49.5238" xlink:href="#cross"  stroke="#000000" />
<use x="573.968" y="430.476" xlink:href="#cross"  stroke="#000000" />
<text style="font-size:12;text-align:center;text-anchor:middle;" x="573.968" y="448.476" fill="#000000">1</text>
<text style="font-size:12;text-align:center;text-anchor:middle;" x="16.5079" y="246" transform="rotate(-90,16.5079,240)" fill="#000000">Longitudinal ray aberration (um)</text>
<line x1="320" y1="430.476" x2="320" y2="49.5238"  stroke="#000000" />
<use x="320" y="368.067" xlink:href="#cross"  stroke="#000000" />
<use x="573.968" y="368.067" xlink:href="#cross"  stroke="#000000" />
<use x="66.0317" y="368.067" xlink:href="#cross"  stroke="#000000" />
<text style="font-size:12;text-align:right;text-anchor:end;" x="60.0317" y="374.067" fill="#000000">-20</text>
<use x="320" y="296.275" xlink:href="#cross"  stroke="#000000" />
<use x="573.968" y="296.275" xlink:href="#cross"  stroke="#000000" />
<use x="66.0317" y="296.275" xlink:href="#cross"  stroke="#000000" />
<text style="font-size:12;text-align:right;text-anchor:end;" x="60.0317" y="302.275" fill="#000000">-10</text>
<use x="320" y="224.484" xlink:href="#cross"  stroke="#000000" />
<use x="573.968" y="224.484" xlink:href="#cross"  stroke="#000000" />
<use x="66.0317" y="224.484" xlink:href="#cross"  stroke="#000000" />
<text style="font-size:12;text-align:right;text-anchor:end;" x="60.0317" y="230.484" fill="#000000">0</text>
<use x="320" y="152.692" xlink:href="#cross"  stroke="#000000" />
<use x="573.968" y="152.692" xlink:href="#cross"  stroke="#000000" />
<use x="66.0317" y="152.692" xlink:href="#cross"  stroke="#000000" />
<text style="font-size:12;text-align:right;text-anchor:end;" x="60.0317" y="158.692" fill="#000000">10</text>
<use x="320" y="80.8999" xlink:href="#cross"  stroke="#000000" />
<use x="573.968" y="80.8999" xlink:href="#cross"  stroke="#000000" />
<use x="66.0317" y="80.8999" xlink:href="#cross"  stroke="#000000" />
<text style="font-size:12;text-align:right;text-anchor:end;" x="60.0317" y="86.8999" fill="#000000">20</text>
<text style="font-size:18;text-align:center;text-anchor:middle;" x="320" y="33.7619" fill="#000000">Longitudinal ray aberration fan (tangential)</text>
<path fill="none"  stroke="#00ebff" d="M100.114,430.476 S111.39,399.365 117.029,388.108 S128.305,367.979 133.943,362.932 S145.219,357.422 150.857,357.83 S162.133,362.023 167.771,365.376 S179.048,373.823 184.686,377.949 S195.962,386.63 201.6,390.13 S212.876,396.729 218.514,398.951 S229.79,402.599 235.429,403.464 S246.705,404.34 252.343,404.141 S263.619,403.057 269.257,402.272 S280.533,400.303 286.171,399.436 S294.629,397.465 303.086,397.071 S328.457,396.677 336.914,397.071 S348.19,398.569 353.829,399.436 S365.105,401.488 370.743,402.272 S382.019,403.942 387.657,404.141 S398.933,404.329 404.571,403.464 S415.848,401.173 421.486,398.951 S432.762,393.631 438.4,390.13 S449.676,382.074 455.314,377.949 S466.59,368.73 472.229,365.376 S483.505,358.237 489.143,357.83 S500.419,357.886 506.057,362.932 S517.333,376.851 522.971,388.108 S537.067,423.415 539.886,430.476 " />
<path fill="none"  stroke="#ffe100" d="M100.114,358.903 S111.39,332.048 117.029,321.821 S128.305,302.861 133.943,297.542 S145.219,290.751 150.857,289.904 S162.133,291.029 167.771,292.46 S179.048,296.674 184.686,298.492 S195.962,302.323 201.6,303.369 S212.876,304.953 218.514,304.768 S229.79,303.601 235.429,302.258 S246.705,298.803 252.343,296.714 S263.619,291.996 269.257,289.725 S280.533,284.977 286.171,283.087 S294.629,279.169 303.086,278.386 S328.457,277.602 336.914,278.386 S348.19,281.198 353.829,283.087 S365.105,287.454 370.743,289.725 S382.019,294.625 387.657,296.714 S398.933,300.916 404.571,302.258 S415.848,304.583 421.486,304.768 S432.762,304.415 438.4,303.369 S449.676,300.311 455.314,298.492 S466.59,293.891 472.229,292.46 S483.505,289.057 489.143,289.904 S500.419,292.222 506.057,297.542 S517.333,311.594 522.971,321.821 S537.067,352.723 539.886,358.903 " />
<path fill="none"  stroke="#ff0000" d="M100.114,88.1933 S111.39,72.1832 117.029,66.2184 S128.305,54.7942 133.943,52.4044 S145.219,50.7656 150.857,51.8799 S162.133,56.4053 167.771,59.0902 S179.048,65.4269 184.686,67.9893 S195.962,73.03 201.6,74.4649 S212.876,76.6309 218.514,76.5987 S229.79,75.6057 235.429,74.2719 S246.705,70.7511 252.343,68.5955 S263.619,63.7005 269.257,61.3386 S280.533,56.3936 286.171,54.4245 S294.629,50.3406 303.086,49.5238 S328.457,48.707 336.914,49.5238 S348.19,52.4553 353.829,54.4245 S365.105,58.9768 370.743,61.3386 S382.019,66.44 387.657,68.5955 S398.933,72.938 404.571,74.2719 S415.848,76.5665 421.486,76.5987 S432.762,75.8998 438.4,74.4649 S449.676,70.5518 455.314,67.9893 S466.59,61.7751 472.229,59.0902 S483.505,52.9942 489.143,51.8799 S500.419,50.0147 506.057,52.4044 S517.333,60.2536 522.971,66.2184 S537.067,84.5308 539.886,88.1933 " />
</svg>
