<?xml version="1.0" standalone="no"?>
<svg width="640px" height="480px" version="1.1" xmlns="http://www.w3.org/2000/svg" xmlns:xlink="http://www.w3.org/1999/xlink">
<rect x="0" y="0" width="640" height="480"  fill="#ffffff" />
<defs>
<g id="dot">
<line x1="1" y1="1" x2="0" y2="0"  />
</g>
<g id="cross">
<line x1="-3" y1="0" x2="3" y2="0"  />
<line x1="0" y1="-3" x2="0" y2="3"  />
</g>
<g id="square">
<line x1="-3" y1="-3" x2="-3" y2="3"  />
<line x1="-3" y1="3" x2="3" y2="3"  />
<line x1="3" y1="3" x2="3" y2="-3"  />
<line x1="3" y1="-3" x2="-3" y2="-3"  />
</g>
<g id="round">
<ellipse cx="0" cy="0" rx="3" ry="3"  fill="none" /></g>
<g id="triangle">
<line x1="0" y1="-3" x2="-3" y2="3"  />
<line x1="-3" y1="3" x2="3" y2="3"  />
<line x1="0" y1="-3" x2="3" y2="3"  />
</g>
</defs>
<polygon fill="none" stroke="#000000" points="66.0317,430.476 66.0317,49.5238 573.968,49.5238 573.968,430.476 " />
<text style="font-size:12;text-align:center;text-anchor:middle;" x="320" y="473.619" fill="#000000">Entrance ray height (normalized)</text>
<line x1="66.0317" y1="325.125" x2="573.968" y2="325.125"  stroke="#000000" />
<use x="66.0317" y="325.125" xlink:href="#cross"  stroke="#000000" />
<use x="66.0317" y="49.5238" xlink:href="#cross"  stroke="#000000" />
<use x="66.0317" y="430.476" xlink:href="#cross"  stroke="#000000" />
<text style="font-size:12;text-align:center;text-anchor:middle;" x="66.0317" y="448.476" fill="#000000">-1</text>
<use x="320" y="325.125" xlink:href="#cross"  stroke="#000000" />
<use x="320" y="49.5238" xlink:href="#cross"  stroke="#000000" />
<use x="320" y="430.476" xlink:href="#cross"  stroke="#000000" />
<text style="font-size:12;text-align:center;text-anchor:middle;" x="320" y="448.476" fill="#000000">0</text>
<use x="573.968" y="325.125" xlink:href="#cross"  stroke="#000000" />
<use x="573.968" y="49.5238" xlink:href="#cross"  stroke="#000000" />
<use x="573.968" y="430.476" xlink:href="#cross"  stroke="#000000" />
<text style="font-size:12;text-align:center;text-anchor:middle;" x="573.968" y="448.476" fill="#000000">1</text>
<text style="font-size:12;text-align:center;text-anchor:middle;" x="16.5079" y="246" transform="rotate(-90,16.5079,240)" fill="#000000">Optical path difference (waves)</text>
<line x1="320" y1="430.476" x2="320" y2="49.5238"  stroke="#000000" />
<use x="320" y="380.004" xlink:href="#cross"  stroke="#000000" />
<use x="573.968" y="380.004" xlink:href="#cross"  stroke="#000000" />
<use x="66.0317" y="380.004" xlink:href="#cross"  stroke="#000000" />
<text style="font-size:12;text-align:right;text-anchor:end;" x="60.0317" y="386.004" fill="#000000">-2</text>
<use x="320" y="325.125" xlink:href="#cross"  stroke="#000000" />
<use x="573.968" y="325.125" xlink:href="#cross"  stroke="#000000" />
<use x="66.0317" y="325.125" xlink:href="#cross"  stroke="#000000" />
<text style="font-size:12;text-align:right;text-anchor:end;" x="60.0317" y="331.125" fill="#000000">0</text>
<use x="320" y="270.246" xlink:href="#cross"  stroke="#000000" />
<use x="573.968" y="270.246" xlink:href="#cross"  stroke="#000000" />
<use x="66.0317" y="270.246" xlink:href="#cross"  stroke="#000000" />
<text style="font-size:12;text-align:right;text-anchor:end;" x="60.0317" y="276.246" fill="#000000">2</text>
<use x="320" y="215.367" xlink:href="#cross"  stroke="#000000" />
<use x="573.968" y="215.367" xlink:href="#cross"  stroke="#000000" />
<use x="66.0317" y="215.367" xlink:href="#cross"  stroke="#000000" />
<text style="font-size:12;text-align:right;text-anchor:end;" x="60.0317" y="221.367" fill="#000000">4</text>
<use x="320" y="160.488" xlink:href="#cross"  stroke="#000000" />
<use x="573.968" y="160.488" xlink:href="#cross"  stroke="#000000" />
<use x="66.0317" y="160.488" xlink:href="#cross"  stroke="#000000" />
<text style="font-size:12;text-align:right;text-anchor:end;" x="60.0317" y="166.488" fill="#000000">6</text>
<use x="320" y="105.609" xlink:href="#cross"  stroke="#000000" />
<use x="573.968" y="105.609" xlink:href="#cross"  stroke="#000000" />
<use x="66.0317" y="105.609" xlink:href="#cross"  stroke="#000000" />
<text style="font-size:12;text-align:right;text-anchor:end;" x="60.0317" y="111.609" fill="#000000">8</text>
<use x="320" y="50.7296" xlink:href="#cross"  stroke="#000000" />
<use x="573.968" y="50.7296" xlink:href="#cross"  stroke="#000000" />
<use x="66.0317" y="50.7296" xlink:href="#cross"  stroke="#000000" />
<text style="font-size:12;text-align:right;text-anchor:end;" x="60.0317" y="56.7296" fill="#000000">10</text>
<text style="font-size:18;text-align:center;text-anchor:middle;" x="320" y="33.7619" fill="#000000">Optical path difference fan (tangential)</text>
<path fill="none"  stroke="#00ebff" d="M100.114,49.5238 S111.39,136.562 117.029,167.137 S128.305,217.559 133.943,232.975 S145.219,253.619 150.857,259.63 S162.133,266.558 167.771,269.04 S179.048,272.463 184.686,274.522 S195.962,278.76 201.6,281.392 S212.876,287.205 218.514,290.309 S229.79,296.902 235.429,300.017 S246.705,306.298 252.343,308.998 S263.619,314.174 269.257,316.22 S280.533,319.946 286.171,321.274 S297.448,323.542 303.086,324.184 S314.362,325.125 320,325.125 S331.276,324.826 336.914,324.184 S348.19,322.601 353.829,321.274 S365.105,318.266 370.743,316.22 S382.019,311.699 387.657,308.998 S398.933,303.132 404.571,300.017 S415.848,293.413 421.486,290.309 S432.762,284.023 438.4,281.392 S449.676,276.58 455.314,274.522 S466.59,271.522 472.229,269.04 S483.505,265.641 489.143,259.63 S500.419,248.39 506.057,232.975 S517.333,197.713 522.971,167.137 S537.067,69.1261 539.886,49.5238 " />
<path fill="none"  stroke="#ffe100" d="M100.114,157.23 S111.39,214.555 117.029,234.818 S128.305,268.693 133.943,278.805 S145.219,291.917 150.857,295.493 S162.133,299.098 167.771,300.26 S179.048,301.562 184.686,302.465 S195.962,304.394 201.6,305.681 S212.876,308.632 218.514,310.19 S229.79,313.528 235.429,315.033 S246.705,318.02 252.343,319.217 S263.619,321.418 269.257,322.218 S280.533,323.569 286.171,324.012 S297.448,324.693 303.086,324.879 S314.362,325.125 320,325.125 S331.276,325.064 336.914,324.879 S348.19,324.456 353.829,324.012 S365.105,323.017 370.743,322.218 S382.019,320.415 387.657,319.217 S398.933,316.537 404.571,315.033 S415.848,311.749 421.486,310.19 S432.762,306.969 438.4,305.681 S449.676,303.369 455.314,302.465 S466.59,301.422 472.229,300.26 S483.505,299.069 489.143,295.493 S500.419,288.918 506.057,278.805 S517.333,255.08 522.971,234.818 S537.067,170.161 539.886,157.23 " />
<path fill="none"  stroke="#ff0000" d="M100.114,420.676 S111.39,429.553 117.029,430.476 S128.305,429.921 133.943,426.214 S145.219,414.775 150.857,408.237 S162.133,393.573 167.771,386.985 S179.048,373.998 184.686,368.708 S195.962,359.029 201.6,355.241 S212.876,348.596 218.514,345.979 S229.79,341.415 235.429,339.536 S246.705,336.157 252.343,334.707 S263.619,331.988 269.257,330.839 S280.533,328.648 286.171,327.813 S297.448,326.272 303.086,325.824 S314.362,325.125 320,325.125 S331.276,325.376 336.914,325.824 S348.19,326.977 353.829,327.813 S365.105,329.69 370.743,330.839 S382.019,333.258 387.657,334.707 S398.933,337.657 404.571,339.536 S415.848,343.362 421.486,345.979 S432.762,351.453 438.4,355.241 S449.676,363.417 455.314,368.708 S466.59,380.397 472.229,386.985 S483.505,401.698 489.143,408.237 S500.419,422.507 506.057,426.214 S517.333,431.399 522.971,430.476 S537.067,422.309 539.886,420.676 " />
</svg>
