<?xml version="1.0" standalone="no"?>
<svg width="640px" height="480px" version="1.1" xmlns="http://www.w3.org/2000/svg" xmlns:xlink="http://www.w3.org/1999/xlink">
<rect x="0" y="0" width="640" height="480"  fill="#ffffff" />
<defs>
<g id="dot">
<line x1="1" y1="1" x2="0" y2="0"  />
</g>
<g id="cross">
<line x1="-3" y1="0" x2="3" y2="0"  />
<line x1="0" y1="-3" x2="0" y2="3"  />
</g>
<g id="square">
<line x1="-3" y1="-3" x2="-3" y2="3"  />
<line x1="-3" y1="3" x2="3" y2="3"  />
<line x1="3" y1="3" x2="3" y2="-3"  />
<line x1="3" y1="-3" x2="-3" y2="-3"  />
</g>
<g id="round">
<ellipse cx="0" cy="0" rx="3" ry="3"  fill="none" /></g>
<g id="triangle">
<line x1="0" y1="-3" x2="-3" y2="3"  />
<line x1="-3" y1="3" x2="3" y2="3"  />
<line x1="0" y1="-3" x2="3" y2="3"  />
</g>
</defs>
<polygon fill="none" stroke="#000000" points="66.0317,430.476 66.0317,49.5238 573.968,49.5238 573.968,430.476 " />
<text style="font-size:12;text-align:center;text-anchor:middle;" x="320" y="473.619" fill="#000000">Entrance ray height (normalized)</text>
<line x1="66.0317" y1="240" x2="573.968" y2="240"  stroke="#000000" />
<use x="66.0317" y="240" xlink:href="#cross"  stroke="#000000" />
<use x="66.0317" y="49.5238" xlink:href="#cross"  stroke="#000000" />
<use x="66.0317" y="430.476" xlink:href="#cross"  stroke="#000000" />
<text style="font-size:12;text-align:center;text-anchor:middle;" x="66.0317" y="448.476" fill="#000000">-1</text>
<use x="320" y="240" xlink:href="#cross"  stroke="#000000" />
<use x="320" y="49.5238" xlink:href="#cross"  stroke="#000000" />
<use x="320" y="430.476" xlink:href="#cross"  stroke="#000000" />
<text style="font-size:12;text-align:center;text-anchor:middle;" x="320" y="448.476" fill="#000000">0</text>
<use x="573.968" y="240" xlink:href="#cross"  stroke="#000000" />
<use x="573.968" y="49.5238" xlink:href="#cross"  stroke="#000000" />
<use x="573.968" y="430.476" xlink:href="#cross"  stroke="#000000" />
<text style="font-size:12;text-align:center;text-anchor:middle;" x="573.968" y="448.476" fill="#000000">1</text>
<text style="font-size:12;text-align:center;text-anchor:middle;" x="16.5079" y="246" transform="rotate(-90,16.5079,240)" fill="#000000">Transverse ray aberration (um)</text>
<line x1="320" y1="430.476" x2="320" y2="49.5238"  stroke="#000000" />
<use x="320" y="420.529" xlink:href="#cross"  stroke="#000000" />
<use x="573.968" y="420.529" xlink:href="#cross"  stroke="#000000" />
<use x="66.0317" y="420.529" xlink:href="#cross"  stroke="#000000" />
<text style="font-size:12;text-align:right;text-anchor:end;" x="60.0317" y="426.529" fill="#000000">-15</text>
<use x="320" y="360.353" xlink:href="#cross"  stroke="#000000" />
<use x="573.968" y="360.353" xlink:href="#cross"  stroke="#000000" />
<use x="66.0317" y="360.353" xlink:href="#cross"  stroke="#000000" />
<text style="font-size:12;text-align:right;text-anchor:end;" x="60.0317" y="366.353" fill="#000000">-10</text>
<use x="320" y="300.176" xlink:href="#cross"  stroke="#000000" />
<use x="573.968" y="300.176" xlink:href="#cross"  stroke="#000000" />
<use x="66.0317" y="300.176" xlink:href="#cross"  stroke="#000000" />
<text style="font-size:12;text-align:right;text-anchor:end;" x="60.0317" y="306.176" fill="#000000">-5</text>
<use x="320" y="240" xlink:href="#cross"  stroke="#000000" />
<use x="573.968" y="240" xlink:href="#cross"  stroke="#000000" />
<use x="66.0317" y="240" xlink:href="#cross"  stroke="#000000" />
<text style="font-size:12;text-align:right;text-anchor:end;" x="60.0317" y="246" fill="#000000">0</text>
<use x="320" y="179.824" xlink:href="#cross"  stroke="#000000" />
<use x="573.968" y="179.824" xlink:href="#cross"  stroke="#000000" />
<use x="66.0317" y="179.824" xlink:href="#cross"  stroke="#000000" />
<text style="font-size:12;text-align:right;text-anchor:end;" x="60.0317" y="185.824" fill="#000000">5</text>
<use x="320" y="119.647" xlink:href="#cross"  stroke="#000000" />
<use x="573.968" y="119.647" xlink:href="#cross"  stroke="#000000" />
<use x="66.0317" y="119.647" xlink:href="#cross"  stroke="#000000" />
<text style="font-size:12;text-align:right;text-anchor:end;" x="60.0317" y="125.647" fill="#000000">10</text>
<use x="320" y="59.4708" xlink:href="#cross"  stroke="#000000" />
<use x="573.968" y="59.4708" xlink:href="#cross"  stroke="#000000" />
<use x="66.0317" y="59.4708" xlink:href="#cross"  stroke="#000000" />
<text style="font-size:12;text-align:right;text-anchor:end;" x="60.0317" y="65.4708" fill="#000000">15</text>
<text style="font-size:18;text-align:center;text-anchor:middle;" x="320" y="33.7619" fill="#000000">Transverse ray aberration fan (tangential)</text>
<path fill="none"  stroke="#00ebff" d="M100.114,49.5238 S111.39,88.9871 117.029,103.418 S128.305,128.251 133.943,136.11 S145.219,147.223 150.857,150.574 S162.133,154.66 167.771,156.218 S179.048,158.424 184.686,159.922 S195.962,163.007 201.6,165.205 S212.876,170.099 218.514,173.109 S229.79,179.659 235.429,183.262 S246.705,190.842 252.343,194.725 S263.619,202.657 269.257,206.56 S280.533,214.358 286.171,218.137 S297.448,225.595 303.086,229.239 S314.362,236.413 320,240 S331.276,247.118 336.914,250.761 S348.19,258.083 353.829,261.863 S365.105,269.538 370.743,273.44 S382.019,281.392 387.657,285.275 S398.933,293.136 404.571,296.738 S415.848,303.882 421.486,306.891 S432.762,312.598 438.4,314.795 S449.676,318.58 455.314,320.078 S466.59,322.224 472.229,323.782 S483.505,326.075 489.143,329.426 S500.419,336.03 506.057,343.89 S517.333,362.151 522.971,376.582 S537.067,421.494 539.886,430.476 " />
<path fill="none"  stroke="#ffe100" d="M100.114,115.795 S111.39,147.237 117.029,158.808 S128.305,178.993 133.943,185.218 S145.219,193.761 150.857,196.159 S162.133,198.732 167.771,199.607 S179.048,200.61 184.686,201.41 S195.962,203.101 201.6,204.406 S212.876,207.415 218.514,209.241 S229.79,213.267 235.429,215.362 S246.705,219.748 252.343,221.81 S263.619,225.926 269.257,227.737 S280.533,231.198 286.171,232.682 S297.448,235.422 303.086,236.641 S314.362,238.88 320,240 S331.276,242.139 336.914,243.359 S348.19,245.834 353.829,247.318 S365.105,250.451 370.743,252.263 S382.019,256.127 387.657,258.19 S398.933,262.543 404.571,264.638 S415.848,268.933 421.486,270.759 S432.762,274.289 438.4,275.594 S449.676,277.79 455.314,278.59 S466.59,279.518 472.229,280.393 S483.505,281.443 489.143,283.841 S500.419,288.557 506.057,294.782 S517.333,309.622 522.971,321.192 S537.067,357.037 539.886,364.205 " />
<path fill="none"  stroke="#ff0000" d="M100.114,365.781 S111.39,371.345 117.029,371.864 S128.305,371.614 133.943,368.895 S145.219,360.67 150.857,355.552 S162.133,343.856 167.771,338.185 S179.048,326.616 184.686,321.523 S195.962,311.781 201.6,307.628 S212.876,299.956 218.514,296.608 S229.79,290.44 235.429,287.543 S246.705,282.041 252.343,279.223 S263.619,273.639 269.257,270.638 S280.533,264.509 286.171,261.218 S297.448,254.429 303.086,250.892 S314.362,243.631 320,240 S331.276,232.644 336.914,229.108 S348.19,222.073 353.829,218.782 S365.105,212.363 370.743,209.362 S382.019,203.594 387.657,200.777 S398.933,195.355 404.571,192.457 S415.848,186.739 421.486,183.392 S432.762,176.524 438.4,172.372 S449.676,163.57 455.314,158.477 S466.59,147.487 472.229,141.815 S483.505,129.566 489.143,124.448 S500.419,113.824 506.057,111.105 S517.333,107.617 522.971,108.136 S537.067,113.205 539.886,114.219 " />
</svg>
