<?xml version="1.0" standalone="no"?>
<svg width="300px" height="300px" version="1.1" xmlns="http://www.w3.org/2000/svg" xmlns:xlink="http://www.w3.org/1999/xlink">
<rect x="0" y="0" width="300" height="300"  fill="#000000" />
<defs>
<g id="dot">
<line x1="1" y1="1" x2="0" y2="0"  />
</g>
<g id="cross">
<line x1="-3" y1="0" x2="3" y2="0"  />
<line x1="0" y1="-3" x2="0" y2="3"  />
</g>
<g id="square">
<line x1="-3" y1="-3" x2="-3" y2="3"  />
<line x1="-3" y1="3" x2="3" y2="3"  />
<line x1="3" y1="3" x2="3" y2="-3"  />
<line x1="3" y1="-3" x2="-3" y2="-3"  />
</g>
<g id="round">
<ellipse cx="0" cy="0" rx="3" ry="3"  fill="none" /></g>
<g id="triangle">
<line x1="0" y1="-3" x2="-3" y2="3"  />
<line x1="-3" y1="3" x2="3" y2="3"  />
<line x1="0" y1="-3" x2="3" y2="3"  />
</g>
</defs>
<polygon fill="none" stroke="#ffffff" points="30.9524,269.048 30.9524,30.9524 269.048,30.9524 269.048,269.048 " />
<text style="font-size:12;text-align:center;text-anchor:middle;" x="150" y="298.262" fill="#ffffff">Saggital distance (um)</text>
<use x="70.6349" y="30.9524" xlink:href="#cross"  stroke="#ffffff" />
<use x="70.6349" y="269.048" xlink:href="#cross"  stroke="#ffffff" />
<text style="font-size:12;text-align:center;text-anchor:middle;" x="70.6349" y="287.048" fill="#ffffff">-18.7</text>
<use x="150" y="30.9524" xlink:href="#cross"  stroke="#ffffff" />
<use x="150" y="269.048" xlink:href="#cross"  stroke="#ffffff" />
<text style="font-size:12;text-align:center;text-anchor:middle;" x="150" y="287.048" fill="#ffffff">0</text>
<use x="229.365" y="30.9524" xlink:href="#cross"  stroke="#ffffff" />
<use x="229.365" y="269.048" xlink:href="#cross"  stroke="#ffffff" />
<text style="font-size:12;text-align:center;text-anchor:middle;" x="229.365" y="287.048" fill="#ffffff">18.7</text>
<text style="font-size:12;text-align:center;text-anchor:middle;" x="7.7381" y="156" transform="rotate(-90,7.7381,150)" fill="#ffffff">Tangential distance (um)</text>
<use x="269.048" y="237.266" xlink:href="#cross"  stroke="#ffffff" />
<use x="30.9524" y="237.266" xlink:href="#cross"  stroke="#ffffff" />
<text style="font-size:12;text-align:right;text-anchor:end;" x="24.9524" y="243.266" fill="#ffffff">-18.7</text>
<use x="269.048" y="157.901" xlink:href="#cross"  stroke="#ffffff" />
<use x="30.9524" y="157.901" xlink:href="#cross"  stroke="#ffffff" />
<text style="font-size:12;text-align:right;text-anchor:end;" x="24.9524" y="163.901" fill="#ffffff">0</text>
<use x="269.048" y="78.5355" xlink:href="#cross"  stroke="#ffffff" />
<use x="30.9524" y="78.5355" xlink:href="#cross"  stroke="#ffffff" />
<text style="font-size:12;text-align:right;text-anchor:end;" x="24.9524" y="84.5355" fill="#ffffff">18.7</text>
<use x="126.95" y="219.271" xlink:href="#dot"  stroke="#00ebff" />
<use x="114.613" y="211.771" xlink:href="#dot"  stroke="#ffe100" />
<use x="123.788" y="223.479" xlink:href="#dot"  stroke="#ff0000" />
<use x="130.348" y="242.748" xlink:href="#dot"  stroke="#00ebff" />
<use x="130.512" y="224.147" xlink:href="#dot"  stroke="#ffe100" />
<use x="134.846" y="235.651" xlink:href="#dot"  stroke="#ff0000" />
<use x="138.794" y="256.405" xlink:href="#dot"  stroke="#00ebff" />
<use x="150" y="228.174" xlink:href="#dot"  stroke="#ffe100" />
<use x="150" y="239.599" xlink:href="#dot"  stroke="#ff0000" />
<use x="150" y="260.895" xlink:href="#dot"  stroke="#00ebff" />
<use x="169.488" y="224.147" xlink:href="#dot"  stroke="#ffe100" />
<use x="165.154" y="235.651" xlink:href="#dot"  stroke="#ff0000" />
<use x="161.206" y="256.405" xlink:href="#dot"  stroke="#00ebff" />
<use x="185.387" y="211.771" xlink:href="#dot"  stroke="#ffe100" />
<use x="176.212" y="223.479" xlink:href="#dot"  stroke="#ff0000" />
<use x="169.652" y="242.748" xlink:href="#dot"  stroke="#00ebff" />
<use x="173.05" y="219.271" xlink:href="#dot"  stroke="#00ebff" />
<use x="127.739" y="82.9667" xlink:href="#dot"  stroke="#ffe100" />
<use x="170.795" y="86.936" xlink:href="#dot"  stroke="#ff0000" />
<use x="149.504" y="96.8619" xlink:href="#dot"  stroke="#00ebff" />
<use x="134.74" y="114.059" xlink:href="#dot"  stroke="#ffe100" />
<use x="166.181" y="120.793" xlink:href="#dot"  stroke="#ff0000" />
<use x="158.186" y="124.917" xlink:href="#dot"  stroke="#00ebff" />
<use x="125.491" y="137.159" xlink:href="#dot"  stroke="#ffe100" />
<use x="147.559" y="145.357" xlink:href="#dot"  stroke="#ff0000" />
<use x="148.881" y="147.745" xlink:href="#dot"  stroke="#00ebff" />
<use x="119.666" y="155.785" xlink:href="#dot"  stroke="#ffe100" />
<use x="134.383" y="164.75" xlink:href="#dot"  stroke="#ff0000" />
<use x="140.24" y="167.159" xlink:href="#dot"  stroke="#00ebff" />
<use x="123.049" y="169.709" xlink:href="#dot"  stroke="#ffe100" />
<use x="131.984" y="179.06" xlink:href="#dot"  stroke="#ff0000" />
<use x="138.284" y="182.078" xlink:href="#dot"  stroke="#00ebff" />
<use x="134.42" y="178.242" xlink:href="#dot"  stroke="#ffe100" />
<use x="138.625" y="187.765" xlink:href="#dot"  stroke="#ff0000" />
<use x="142.504" y="191.358" xlink:href="#dot"  stroke="#00ebff" />
<use x="150" y="181.099" xlink:href="#dot"  stroke="#ffe100" />
<use x="150" y="190.671" xlink:href="#dot"  stroke="#ff0000" />
<use x="150" y="194.488" xlink:href="#dot"  stroke="#00ebff" />
<use x="165.58" y="178.242" xlink:href="#dot"  stroke="#ffe100" />
<use x="161.375" y="187.765" xlink:href="#dot"  stroke="#ff0000" />
<use x="157.496" y="191.358" xlink:href="#dot"  stroke="#00ebff" />
<use x="176.951" y="169.709" xlink:href="#dot"  stroke="#ffe100" />
<use x="168.016" y="179.06" xlink:href="#dot"  stroke="#ff0000" />
<use x="161.716" y="182.078" xlink:href="#dot"  stroke="#00ebff" />
<use x="180.334" y="155.785" xlink:href="#dot"  stroke="#ffe100" />
<use x="165.617" y="164.75" xlink:href="#dot"  stroke="#ff0000" />
<use x="159.76" y="167.159" xlink:href="#dot"  stroke="#00ebff" />
<use x="174.509" y="137.159" xlink:href="#dot"  stroke="#ffe100" />
<use x="152.441" y="145.357" xlink:href="#dot"  stroke="#ff0000" />
<use x="151.119" y="147.745" xlink:href="#dot"  stroke="#00ebff" />
<use x="165.26" y="114.059" xlink:href="#dot"  stroke="#ffe100" />
<use x="133.819" y="120.793" xlink:href="#dot"  stroke="#ff0000" />
<use x="141.814" y="124.917" xlink:href="#dot"  stroke="#00ebff" />
<use x="172.261" y="82.9667" xlink:href="#dot"  stroke="#ffe100" />
<use x="129.205" y="86.936" xlink:href="#dot"  stroke="#ff0000" />
<use x="150.496" y="96.8619" xlink:href="#dot"  stroke="#00ebff" />
<use x="117.038" y="117.574" xlink:href="#dot"  stroke="#ffe100" />
<use x="177.087" y="103.941" xlink:href="#dot"  stroke="#ff0000" />
<use x="124.768" y="140.177" xlink:href="#dot"  stroke="#00ebff" />
<use x="161.848" y="124.288" xlink:href="#dot"  stroke="#ffe100" />
<use x="206.007" y="117.794" xlink:href="#dot"  stroke="#ff0000" />
<use x="177.385" y="136.471" xlink:href="#dot"  stroke="#00ebff" />
<use x="155.393" y="133.223" xlink:href="#dot"  stroke="#ffe100" />
<use x="187.05" y="131.054" xlink:href="#dot"  stroke="#ff0000" />
<use x="176.022" y="140.575" xlink:href="#dot"  stroke="#00ebff" />
<use x="140.983" y="143.212" xlink:href="#dot"  stroke="#ffe100" />
<use x="162.975" y="143.775" xlink:href="#dot"  stroke="#ff0000" />
<use x="162.994" y="148.422" xlink:href="#dot"  stroke="#00ebff" />
<use x="131.627" y="154.064" xlink:href="#dot"  stroke="#ffe100" />
<use x="146.201" y="156.365" xlink:href="#dot"  stroke="#ff0000" />
<use x="151.483" y="158.46" xlink:href="#dot"  stroke="#00ebff" />
<use x="131.186" y="163.629" xlink:href="#dot"  stroke="#ffe100" />
<use x="139.999" y="166.998" xlink:href="#dot"  stroke="#ff0000" />
<use x="146.047" y="167.824" xlink:href="#dot"  stroke="#00ebff" />
<use x="138.488" y="169.987" xlink:href="#dot"  stroke="#ffe100" />
<use x="142.627" y="173.934" xlink:href="#dot"  stroke="#ff0000" />
<use x="146.409" y="174.198" xlink:href="#dot"  stroke="#00ebff" />
<use x="150" y="172.187" xlink:href="#dot"  stroke="#ffe100" />
<use x="150" y="176.316" xlink:href="#dot"  stroke="#ff0000" />
<use x="150" y="176.425" xlink:href="#dot"  stroke="#00ebff" />
<use x="161.512" y="169.987" xlink:href="#dot"  stroke="#ffe100" />
<use x="157.373" y="173.934" xlink:href="#dot"  stroke="#ff0000" />
<use x="153.591" y="174.198" xlink:href="#dot"  stroke="#00ebff" />
<use x="168.814" y="163.629" xlink:href="#dot"  stroke="#ffe100" />
<use x="160.001" y="166.998" xlink:href="#dot"  stroke="#ff0000" />
<use x="153.953" y="167.824" xlink:href="#dot"  stroke="#00ebff" />
<use x="168.373" y="154.064" xlink:href="#dot"  stroke="#ffe100" />
<use x="153.799" y="156.365" xlink:href="#dot"  stroke="#ff0000" />
<use x="148.517" y="158.46" xlink:href="#dot"  stroke="#00ebff" />
<use x="159.017" y="143.212" xlink:href="#dot"  stroke="#ffe100" />
<use x="137.025" y="143.775" xlink:href="#dot"  stroke="#ff0000" />
<use x="137.006" y="148.422" xlink:href="#dot"  stroke="#00ebff" />
<use x="144.607" y="133.223" xlink:href="#dot"  stroke="#ffe100" />
<use x="112.95" y="131.054" xlink:href="#dot"  stroke="#ff0000" />
<use x="123.978" y="140.575" xlink:href="#dot"  stroke="#00ebff" />
<use x="138.152" y="124.288" xlink:href="#dot"  stroke="#ffe100" />
<use x="93.9928" y="117.794" xlink:href="#dot"  stroke="#ff0000" />
<use x="122.615" y="136.471" xlink:href="#dot"  stroke="#00ebff" />
<use x="182.962" y="117.574" xlink:href="#dot"  stroke="#ffe100" />
<use x="122.913" y="103.941" xlink:href="#dot"  stroke="#ff0000" />
<use x="175.232" y="140.177" xlink:href="#dot"  stroke="#00ebff" />
<use x="111.426" y="183.68" xlink:href="#dot"  stroke="#ffe100" />
<use x="175.925" y="152.692" xlink:href="#dot"  stroke="#ff0000" />
<use x="105.969" y="220.265" xlink:href="#dot"  stroke="#00ebff" />
<use x="173.209" y="156.104" xlink:href="#dot"  stroke="#ffe100" />
<use x="219.299" y="135.608" xlink:href="#dot"  stroke="#ff0000" />
<use x="182.655" y="176.642" xlink:href="#dot"  stroke="#00ebff" />
<use x="164.939" y="154.5" xlink:href="#dot"  stroke="#ffe100" />
<use x="197.501" y="140.594" xlink:href="#dot"  stroke="#ff0000" />
<use x="182.301" y="166.391" xlink:href="#dot"  stroke="#00ebff" />
<use x="149.788" y="156.197" xlink:href="#dot"  stroke="#ffe100" />
<use x="172.233" y="146.625" xlink:href="#dot"  stroke="#ff0000" />
<use x="169.864" y="163.126" xlink:href="#dot"  stroke="#00ebff" />
<use x="139.535" y="160.208" xlink:href="#dot"  stroke="#ffe100" />
<use x="154.345" y="153.511" xlink:href="#dot"  stroke="#ff0000" />
<use x="158.198" y="164.255" xlink:href="#dot"  stroke="#00ebff" />
<use x="137.069" y="165.067" xlink:href="#dot"  stroke="#ffe100" />
<use x="146.002" y="160.203" xlink:href="#dot"  stroke="#ff0000" />
<use x="151.224" y="167.489" xlink:href="#dot"  stroke="#00ebff" />
<use x="141.565" y="168.813" xlink:href="#dot"  stroke="#ffe100" />
<use x="145.754" y="164.971" xlink:href="#dot"  stroke="#ff0000" />
<use x="149.155" y="170.415" xlink:href="#dot"  stroke="#00ebff" />
<use x="150" y="170.191" xlink:href="#dot"  stroke="#ffe100" />
<use x="150" y="166.678" xlink:href="#dot"  stroke="#ff0000" />
<use x="150" y="171.544" xlink:href="#dot"  stroke="#00ebff" />
<use x="158.435" y="168.813" xlink:href="#dot"  stroke="#ffe100" />
<use x="154.246" y="164.971" xlink:href="#dot"  stroke="#ff0000" />
<use x="150.845" y="170.415" xlink:href="#dot"  stroke="#00ebff" />
<use x="162.931" y="165.067" xlink:href="#dot"  stroke="#ffe100" />
<use x="153.998" y="160.203" xlink:href="#dot"  stroke="#ff0000" />
<use x="148.776" y="167.489" xlink:href="#dot"  stroke="#00ebff" />
<use x="160.465" y="160.208" xlink:href="#dot"  stroke="#ffe100" />
<use x="145.655" y="153.511" xlink:href="#dot"  stroke="#ff0000" />
<use x="141.802" y="164.255" xlink:href="#dot"  stroke="#00ebff" />
<use x="150.212" y="156.197" xlink:href="#dot"  stroke="#ffe100" />
<use x="127.767" y="146.625" xlink:href="#dot"  stroke="#ff0000" />
<use x="130.136" y="163.126" xlink:href="#dot"  stroke="#00ebff" />
<use x="135.061" y="154.5" xlink:href="#dot"  stroke="#ffe100" />
<use x="102.499" y="140.594" xlink:href="#dot"  stroke="#ff0000" />
<use x="117.699" y="166.391" xlink:href="#dot"  stroke="#00ebff" />
<use x="126.791" y="156.104" xlink:href="#dot"  stroke="#ffe100" />
<use x="80.7013" y="135.608" xlink:href="#dot"  stroke="#ff0000" />
<use x="117.345" y="176.642" xlink:href="#dot"  stroke="#00ebff" />
<use x="188.574" y="183.68" xlink:href="#dot"  stroke="#ffe100" />
<use x="124.075" y="152.692" xlink:href="#dot"  stroke="#ff0000" />
<use x="194.031" y="220.265" xlink:href="#dot"  stroke="#00ebff" />
<use x="165.594" y="175.739" xlink:href="#dot"  stroke="#ffe100" />
<use x="215.362" y="137.605" xlink:href="#dot"  stroke="#ff0000" />
<use x="166.178" y="213.514" xlink:href="#dot"  stroke="#00ebff" />
<use x="167.507" y="166.91" xlink:href="#dot"  stroke="#ffe100" />
<use x="202.107" y="138.599" xlink:href="#dot"  stroke="#ff0000" />
<use x="179.819" y="190.043" xlink:href="#dot"  stroke="#00ebff" />
<use x="152.7" y="166.682" xlink:href="#dot"  stroke="#ffe100" />
<use x="176.363" y="144.799" xlink:href="#dot"  stroke="#ff0000" />
<use x="169.593" y="181.045" xlink:href="#dot"  stroke="#00ebff" />
<use x="142.556" y="166.524" xlink:href="#dot"  stroke="#ffe100" />
<use x="158.112" y="148.914" xlink:href="#dot"  stroke="#ff0000" />
<use x="159.165" y="175.431" xlink:href="#dot"  stroke="#00ebff" />
<use x="139.641" y="167.103" xlink:href="#dot"  stroke="#ffe100" />
<use x="149.011" y="152.233" xlink:href="#dot"  stroke="#ff0000" />
<use x="152.547" y="172.693" xlink:href="#dot"  stroke="#00ebff" />
<use x="143.019" y="167.996" xlink:href="#dot"  stroke="#ffe100" />
<use x="147.41" y="154.662" xlink:href="#dot"  stroke="#ff0000" />
<use x="150.015" y="171.798" xlink:href="#dot"  stroke="#00ebff" />
<use x="150" y="168.404" xlink:href="#dot"  stroke="#ffe100" />
<use x="150" y="155.566" xlink:href="#dot"  stroke="#ff0000" />
<use x="150" y="171.641" xlink:href="#dot"  stroke="#00ebff" />
<use x="156.981" y="167.996" xlink:href="#dot"  stroke="#ffe100" />
<use x="152.59" y="154.662" xlink:href="#dot"  stroke="#ff0000" />
<use x="149.985" y="171.798" xlink:href="#dot"  stroke="#00ebff" />
<use x="160.359" y="167.103" xlink:href="#dot"  stroke="#ffe100" />
<use x="150.989" y="152.233" xlink:href="#dot"  stroke="#ff0000" />
<use x="147.453" y="172.693" xlink:href="#dot"  stroke="#00ebff" />
<use x="157.444" y="166.524" xlink:href="#dot"  stroke="#ffe100" />
<use x="141.888" y="148.914" xlink:href="#dot"  stroke="#ff0000" />
<use x="140.835" y="175.431" xlink:href="#dot"  stroke="#00ebff" />
<use x="147.3" y="166.682" xlink:href="#dot"  stroke="#ffe100" />
<use x="123.637" y="144.799" xlink:href="#dot"  stroke="#ff0000" />
<use x="130.407" y="181.045" xlink:href="#dot"  stroke="#00ebff" />
<use x="132.493" y="166.91" xlink:href="#dot"  stroke="#ffe100" />
<use x="97.8927" y="138.599" xlink:href="#dot"  stroke="#ff0000" />
<use x="120.181" y="190.043" xlink:href="#dot"  stroke="#00ebff" />
<use x="134.406" y="175.739" xlink:href="#dot"  stroke="#ffe100" />
<use x="84.638" y="137.605" xlink:href="#dot"  stroke="#ff0000" />
<use x="133.822" y="213.514" xlink:href="#dot"  stroke="#00ebff" />
<use x="164.369" y="158.579" xlink:href="#dot"  stroke="#ffe100" />
<use x="202.634" y="112.377" xlink:href="#dot"  stroke="#ff0000" />
<use x="168.643" y="200.823" xlink:href="#dot"  stroke="#00ebff" />
<use x="153.531" y="163.155" xlink:href="#dot"  stroke="#ffe100" />
<use x="179.42" y="126.359" xlink:href="#dot"  stroke="#ff0000" />
<use x="165.454" y="191.061" xlink:href="#dot"  stroke="#00ebff" />
<use x="142.781" y="166.976" xlink:href="#dot"  stroke="#ffe100" />
<use x="159.722" y="136.321" xlink:href="#dot"  stroke="#ff0000" />
<use x="156.204" y="186.017" xlink:href="#dot"  stroke="#00ebff" />
<use x="139.717" y="167.662" xlink:href="#dot"  stroke="#ffe100" />
<use x="149.906" y="140.909" xlink:href="#dot"  stroke="#ff0000" />
<use x="150.694" y="181.258" xlink:href="#dot"  stroke="#00ebff" />
<use x="143.088" y="167.494" xlink:href="#dot"  stroke="#ffe100" />
<use x="147.862" y="142.919" xlink:href="#dot"  stroke="#ff0000" />
<use x="149.168" y="178.117" xlink:href="#dot"  stroke="#00ebff" />
<use x="150" y="167.386" xlink:href="#dot"  stroke="#ffe100" />
<use x="150" y="143.513" xlink:href="#dot"  stroke="#ff0000" />
<use x="150" y="177.063" xlink:href="#dot"  stroke="#00ebff" />
<use x="156.912" y="167.494" xlink:href="#dot"  stroke="#ffe100" />
<use x="152.138" y="142.919" xlink:href="#dot"  stroke="#ff0000" />
<use x="150.832" y="178.117" xlink:href="#dot"  stroke="#00ebff" />
<use x="160.283" y="167.662" xlink:href="#dot"  stroke="#ffe100" />
<use x="150.094" y="140.909" xlink:href="#dot"  stroke="#ff0000" />
<use x="149.306" y="181.258" xlink:href="#dot"  stroke="#00ebff" />
<use x="157.219" y="166.976" xlink:href="#dot"  stroke="#ffe100" />
<use x="140.278" y="136.321" xlink:href="#dot"  stroke="#ff0000" />
<use x="143.796" y="186.017" xlink:href="#dot"  stroke="#00ebff" />
<use x="146.469" y="163.155" xlink:href="#dot"  stroke="#ffe100" />
<use x="120.58" y="126.359" xlink:href="#dot"  stroke="#ff0000" />
<use x="134.546" y="191.061" xlink:href="#dot"  stroke="#00ebff" />
<use x="135.631" y="158.579" xlink:href="#dot"  stroke="#ffe100" />
<use x="97.3658" y="112.377" xlink:href="#dot"  stroke="#ff0000" />
<use x="131.357" y="200.823" xlink:href="#dot"  stroke="#00ebff" />
<use x="154.556" y="127.955" xlink:href="#dot"  stroke="#ffe100" />
<use x="184.06" y="72.4184" xlink:href="#dot"  stroke="#ff0000" />
<use x="158.885" y="177.644" xlink:href="#dot"  stroke="#00ebff" />
<use x="144.757" y="143.805" xlink:href="#dot"  stroke="#ffe100" />
<use x="163.907" y="97.1674" xlink:href="#dot"  stroke="#ff0000" />
<use x="153.514" y="179.464" xlink:href="#dot"  stroke="#00ebff" />
<use x="140.204" y="154.102" xlink:href="#dot"  stroke="#ffe100" />
<use x="151.684" y="112.999" xlink:href="#dot"  stroke="#ff0000" />
<use x="148.412" y="181.364" xlink:href="#dot"  stroke="#00ebff" />
<use x="143.054" y="158.312" xlink:href="#dot"  stroke="#ffe100" />
<use x="148.428" y="120.262" xlink:href="#dot"  stroke="#ff0000" />
<use x="147.834" y="181.028" xlink:href="#dot"  stroke="#00ebff" />
<use x="150" y="159.361" xlink:href="#dot"  stroke="#ffe100" />
<use x="150" y="122.289" xlink:href="#dot"  stroke="#ff0000" />
<use x="150" y="180.633" xlink:href="#dot"  stroke="#00ebff" />
<use x="156.946" y="158.312" xlink:href="#dot"  stroke="#ffe100" />
<use x="151.572" y="120.262" xlink:href="#dot"  stroke="#ff0000" />
<use x="152.166" y="181.028" xlink:href="#dot"  stroke="#00ebff" />
<use x="159.796" y="154.102" xlink:href="#dot"  stroke="#ffe100" />
<use x="148.316" y="112.999" xlink:href="#dot"  stroke="#ff0000" />
<use x="151.588" y="181.364" xlink:href="#dot"  stroke="#00ebff" />
<use x="155.243" y="143.805" xlink:href="#dot"  stroke="#ffe100" />
<use x="136.093" y="97.1674" xlink:href="#dot"  stroke="#ff0000" />
<use x="146.486" y="179.464" xlink:href="#dot"  stroke="#00ebff" />
<use x="145.444" y="127.955" xlink:href="#dot"  stroke="#ffe100" />
<use x="115.94" y="72.4184" xlink:href="#dot"  stroke="#ff0000" />
<use x="141.115" y="177.644" xlink:href="#dot"  stroke="#00ebff" />
<use x="144.339" y="98.2213" xlink:href="#dot"  stroke="#ffe100" />
<use x="157.74" y="39.1048" xlink:href="#dot"  stroke="#ff0000" />
<use x="148.626" y="146.805" xlink:href="#dot"  stroke="#00ebff" />
<use x="144.866" y="113.426" xlink:href="#dot"  stroke="#ffe100" />
<use x="151.121" y="58.6763" xlink:href="#dot"  stroke="#ff0000" />
<use x="147.845" y="155.058" xlink:href="#dot"  stroke="#00ebff" />
<use x="150" y="118.236" xlink:href="#dot"  stroke="#ffe100" />
<use x="150" y="64.8717" xlink:href="#dot"  stroke="#ff0000" />
<use x="150" y="157.689" xlink:href="#dot"  stroke="#00ebff" />
<use x="155.134" y="113.426" xlink:href="#dot"  stroke="#ffe100" />
<use x="148.879" y="58.6763" xlink:href="#dot"  stroke="#ff0000" />
<use x="152.155" y="155.058" xlink:href="#dot"  stroke="#00ebff" />
<use x="155.661" y="98.2213" xlink:href="#dot"  stroke="#ffe100" />
<use x="142.26" y="39.1048" xlink:href="#dot"  stroke="#ff0000" />
<use x="151.374" y="146.805" xlink:href="#dot"  stroke="#00ebff" />
</svg>
