<?xml version="1.0" standalone="no"?>
<svg width="800px" height="400px" version="1.1" xmlns="http://www.w3.org/2000/svg" xmlns:xlink="http://www.w3.org/1999/xlink">
<rect x="0" y="0" width="800" height="400"  fill="#ffffff" />
<defs>
<g id="dot">
<line x1="1" y1="1" x2="0" y2="0"  />
</g>
<g id="cross">
<line x1="-3" y1="0" x2="3" y2="0"  />
<line x1="0" y1="-3" x2="0" y2="3"  />
</g>
<g id="square">
<line x1="-3" y1="-3" x2="-3" y2="3"  />
<line x1="-3" y1="3" x2="3" y2="3"  />
<line x1="3" y1="3" x2="3" y2="-3"  />
<line x1="3" y1="-3" x2="-3" y2="-3"  />
</g>
<g id="round">
<ellipse cx="0" cy="0" rx="3" ry="3"  fill="none" /></g>
<g id="triangle">
<line x1="0" y1="-3" x2="-3" y2="3"  />
<line x1="-3" y1="3" x2="3" y2="3"  />
<line x1="0" y1="-3" x2="3" y2="3"  />
</g>
</defs>
<line x1="251.778" y1="200" x2="548.222" y2="200"  stroke="#7f7f7f" />
<g><title>element</title>
<g>
<line x1="329.986" y1="155.725" x2="329.986" y2="111.449"  stroke="#7f7fff" />
<line x1="329.986" y1="244.275" x2="329.986" y2="288.551"  stroke="#7f7fff" />
</g>
<g>
<polyline fill="none" stroke="#7f7fff" points="264.163,129.27 263.653,130.698 263.154,132.127 262.667,133.556 262.192,134.985 261.727,136.414 261.275,137.843 260.833,139.272 260.403,140.701 259.984,142.13 259.576,143.559 259.179,144.987 258.793,146.416 258.418,147.845 258.053,149.274 257.7,150.703 257.357,152.132 257.024,153.561 256.703,154.99 256.392,156.419 256.091,157.848 255.801,159.276 255.521,160.705 255.251,162.134 254.992,163.563 254.743,164.992 254.505,166.421 254.276,167.85 254.058,169.279 253.85,170.708 253.652,172.136 253.464,173.565 253.286,174.994 253.118,176.423 252.96,177.852 252.812,179.281 252.674,180.71 252.546,182.139 252.428,183.568 252.32,184.997 252.221,186.425 252.133,187.854 252.054,189.283 251.986,190.712 251.927,192.141 251.878,193.57 251.838,194.999 251.809,196.428 251.789,197.857 251.78,199.286 251.78,200.714 251.789,202.143 251.809,203.572 251.838,205.001 251.878,206.43 251.927,207.859 251.986,209.288 252.054,210.717 252.133,212.146 252.221,213.575 252.32,215.003 252.428,216.432 252.546,217.861 252.674,219.29 252.812,220.719 252.96,222.148 253.118,223.577 253.286,225.006 253.464,226.435 253.652,227.864 253.85,229.292 254.058,230.721 254.276,232.15 254.505,233.579 254.743,235.008 254.992,236.437 255.251,237.866 255.521,239.295 255.801,240.724 256.091,242.152 256.392,243.581 256.703,245.01 257.024,246.439 257.357,247.868 257.7,249.297 258.053,250.726 258.418,252.155 258.793,253.584 259.179,255.013 259.576,256.441 259.984,257.87 260.403,259.299 260.833,260.728 261.275,262.157 261.727,263.586 262.192,265.015 262.667,266.444 263.154,267.873 263.653,269.302 264.163,270.73 " />
<line x1="264.163" y1="129.27" x2="272.167" y2="129.27"  stroke="#7f7fff" />
<line x1="264.163" y1="270.73" x2="272.167" y2="270.73"  stroke="#7f7fff" />
<polyline fill="none" stroke="#7f7fff" points="272.167,129.27 272.121,130.698 272.077,132.127 272.033,133.556 271.991,134.985 271.949,136.414 271.908,137.843 271.868,139.272 271.829,140.701 271.791,142.13 271.754,143.559 271.718,144.987 271.683,146.416 271.649,147.845 271.615,149.274 271.583,150.703 271.551,152.132 271.521,153.561 271.491,154.99 271.463,156.419 271.435,157.848 271.408,159.276 271.382,160.705 271.357,162.134 271.333,163.563 271.31,164.992 271.287,166.421 271.266,167.85 271.246,169.279 271.226,170.708 271.208,172.136 271.19,173.565 271.174,174.994 271.158,176.423 271.143,177.852 271.129,179.281 271.116,180.71 271.104,182.139 271.093,183.568 271.083,184.997 271.074,186.425 271.065,187.854 271.058,189.283 271.051,190.712 271.046,192.141 271.041,193.57 271.037,194.999 271.035,196.428 271.033,197.857 271.032,199.286 271.032,200.714 271.033,202.143 271.035,203.572 271.037,205.001 271.041,206.43 271.046,207.859 271.051,209.288 271.058,210.717 271.065,212.146 271.074,213.575 271.083,215.003 271.093,216.432 271.104,217.861 271.116,219.29 271.129,220.719 271.143,222.148 271.158,223.577 271.174,225.006 271.19,226.435 271.208,227.864 271.226,229.292 271.246,230.721 271.266,232.15 271.287,233.579 271.31,235.008 271.333,236.437 271.357,237.866 271.382,239.295 271.408,240.724 271.435,242.152 271.463,243.581 271.491,245.01 271.521,246.439 271.551,247.868 271.583,249.297 271.615,250.726 271.649,252.155 271.683,253.584 271.718,255.013 271.754,256.441 271.791,257.87 271.829,259.299 271.868,260.728 271.908,262.157 271.949,263.586 271.991,265.015 272.033,266.444 272.077,267.873 272.121,269.302 272.167,270.73 " />
</g>
<g>
<polyline fill="none" stroke="#7f7fff" points="295.942,138.455 294.891,139.699 293.876,140.942 292.895,142.185 291.947,143.429 291.032,144.672 290.147,145.915 289.292,147.159 288.466,148.402 287.667,149.645 286.896,150.889 286.151,152.132 285.432,153.375 284.738,154.619 284.068,155.862 283.421,157.105 282.798,158.349 282.198,159.592 281.62,160.835 281.063,162.079 280.528,163.322 280.014,164.565 279.521,165.809 279.047,167.052 278.594,168.295 278.16,169.538 277.746,170.782 277.35,172.025 276.973,173.268 276.615,174.512 276.276,175.755 275.954,176.998 275.651,178.242 275.365,179.485 275.097,180.728 274.846,181.972 274.613,183.215 274.396,184.458 274.197,185.702 274.015,186.945 273.85,188.188 273.701,189.432 273.57,190.675 273.454,191.918 273.356,193.162 273.274,194.405 273.208,195.648 273.159,196.892 273.126,198.135 273.11,199.378 273.11,200.622 273.126,201.865 273.159,203.108 273.208,204.352 273.274,205.595 273.356,206.838 273.454,208.082 273.57,209.325 273.701,210.568 273.85,211.812 274.015,213.055 274.197,214.298 274.396,215.542 274.613,216.785 274.846,218.028 275.097,219.272 275.365,220.515 275.651,221.758 275.954,223.002 276.276,224.245 276.615,225.488 276.973,226.732 277.35,227.975 277.746,229.218 278.16,230.462 278.594,231.705 279.047,232.948 279.521,234.191 280.014,235.435 280.528,236.678 281.063,237.921 281.62,239.165 282.198,240.408 282.798,241.651 283.421,242.895 284.068,244.138 284.738,245.381 285.432,246.625 286.151,247.868 286.896,249.111 287.667,250.355 288.466,251.598 289.292,252.841 290.147,254.085 291.032,255.328 291.947,256.571 292.895,257.815 293.876,259.058 294.891,260.301 295.942,261.545 " />
<line x1="304.658" y1="138.455" x2="304.658" y2="147.244"  stroke="#7f7fff" />
<line x1="295.942" y1="138.455" x2="304.658" y2="138.455"  stroke="#7f7fff" />
<line x1="304.658" y1="261.545" x2="304.658" y2="252.756"  stroke="#7f7fff" />
<line x1="295.942" y1="261.545" x2="304.658" y2="261.545"  stroke="#7f7fff" />
<polyline fill="none" stroke="#7f7fff" points="304.658,147.244 304.354,148.31 304.057,149.376 303.767,150.442 303.483,151.507 303.206,152.573 302.935,153.639 302.671,154.705 302.414,155.77 302.163,156.836 301.918,157.902 301.68,158.968 301.448,160.034 301.223,161.099 301.004,162.165 300.791,163.231 300.585,164.297 300.385,165.362 300.191,166.428 300.003,167.494 299.822,168.56 299.647,169.625 299.478,170.691 299.315,171.757 299.159,172.823 299.008,173.889 298.864,174.954 298.726,176.02 298.594,177.086 298.468,178.152 298.348,179.217 298.234,180.283 298.126,181.349 298.024,182.415 297.928,183.481 297.839,184.546 297.755,185.612 297.677,186.678 297.606,187.744 297.54,188.809 297.48,189.875 297.427,190.941 297.379,192.007 297.337,193.072 297.301,194.138 297.272,195.204 297.248,196.27 297.23,197.336 297.218,198.401 297.212,199.467 297.212,200.533 297.218,201.599 297.23,202.664 297.248,203.73 297.272,204.796 297.301,205.862 297.337,206.928 297.379,207.993 297.427,209.059 297.48,210.125 297.54,211.191 297.606,212.256 297.677,213.322 297.755,214.388 297.839,215.454 297.928,216.519 298.024,217.585 298.126,218.651 298.234,219.717 298.348,220.783 298.468,221.848 298.594,222.914 298.726,223.98 298.864,225.046 299.008,226.111 299.159,227.177 299.315,228.243 299.478,229.309 299.647,230.375 299.822,231.44 300.003,232.506 300.191,233.572 300.385,234.638 300.585,235.703 300.791,236.769 301.004,237.835 301.223,238.901 301.448,239.966 301.68,241.032 301.918,242.098 302.163,243.164 302.414,244.23 302.671,245.295 302.935,246.361 303.206,247.427 303.483,248.493 303.767,249.558 304.057,250.624 304.354,251.69 304.658,252.756 " />
</g>
<g>
<polyline fill="none" stroke="#7f7fff" points="306.491,137.537 306.235,138.799 305.984,140.061 305.739,141.322 305.499,142.584 305.265,143.846 305.036,145.108 304.812,146.37 304.594,147.632 304.381,148.894 304.173,150.156 303.971,151.417 303.774,152.679 303.582,153.941 303.395,155.203 303.214,156.465 303.038,157.727 302.868,158.989 302.703,160.251 302.543,161.513 302.388,162.774 302.238,164.036 302.094,165.298 301.955,166.56 301.821,167.822 301.692,169.084 301.568,170.346 301.45,171.608 301.337,172.869 301.229,174.131 301.126,175.393 301.028,176.655 300.936,177.917 300.849,179.179 300.767,180.441 300.69,181.703 300.618,182.965 300.551,184.226 300.49,185.488 300.433,186.75 300.382,188.012 300.336,189.274 300.295,190.536 300.259,191.798 300.228,193.06 300.203,194.322 300.182,195.583 300.167,196.845 300.156,198.107 300.151,199.369 300.151,200.631 300.156,201.893 300.167,203.155 300.182,204.417 300.203,205.678 300.228,206.94 300.259,208.202 300.295,209.464 300.336,210.726 300.382,211.988 300.433,213.25 300.49,214.512 300.551,215.774 300.618,217.035 300.69,218.297 300.767,219.559 300.849,220.821 300.936,222.083 301.028,223.345 301.126,224.607 301.229,225.869 301.337,227.131 301.45,228.392 301.568,229.654 301.692,230.916 301.821,232.178 301.955,233.44 302.094,234.702 302.238,235.964 302.388,237.226 302.543,238.487 302.703,239.749 302.868,241.011 303.038,242.273 303.214,243.535 303.395,244.797 303.582,246.059 303.774,247.321 303.971,248.583 304.173,249.844 304.381,251.106 304.594,252.368 304.812,253.63 305.036,254.892 305.265,256.154 305.499,257.416 305.739,258.678 305.984,259.939 306.235,261.201 306.491,262.463 " />
<line x1="327.125" y1="137.537" x2="327.125" y2="154.99"  stroke="#7f7fff" />
<line x1="306.491" y1="137.537" x2="327.125" y2="137.537"  stroke="#7f7fff" />
<line x1="327.125" y1="262.463" x2="327.125" y2="245.01"  stroke="#7f7fff" />
<line x1="306.491" y1="262.463" x2="327.125" y2="262.463"  stroke="#7f7fff" />
<polyline fill="none" stroke="#7f7fff" points="327.125,154.99 326.23,155.899 325.371,156.808 324.545,157.718 323.749,158.627 322.984,159.536 322.247,160.446 321.537,161.355 320.854,162.264 320.195,163.173 319.56,164.083 318.949,164.992 318.359,165.901 317.792,166.811 317.245,167.72 316.719,168.629 316.213,169.538 315.726,170.448 315.257,171.357 314.807,172.266 314.375,173.176 313.961,174.085 313.563,174.994 313.182,175.904 312.818,176.813 312.469,177.722 312.137,178.631 311.82,179.541 311.518,180.45 311.232,181.359 310.96,182.269 310.703,183.178 310.461,184.087 310.233,184.997 310.019,185.906 309.819,186.815 309.633,187.724 309.461,188.634 309.302,189.543 309.158,190.452 309.026,191.362 308.908,192.271 308.803,193.18 308.712,194.09 308.633,194.999 308.568,195.908 308.516,196.817 308.477,197.727 308.451,198.636 308.438,199.545 308.438,200.455 308.451,201.364 308.477,202.273 308.516,203.183 308.568,204.092 308.633,205.001 308.712,205.91 308.803,206.82 308.908,207.729 309.026,208.638 309.158,209.548 309.302,210.457 309.461,211.366 309.633,212.276 309.819,213.185 310.019,214.094 310.233,215.003 310.461,215.913 310.703,216.822 310.96,217.731 311.232,218.641 311.518,219.55 311.82,220.459 312.137,221.369 312.469,222.278 312.818,223.187 313.182,224.096 313.563,225.006 313.961,225.915 314.375,226.824 314.807,227.734 315.257,228.643 315.726,229.552 316.213,230.462 316.719,231.371 317.245,232.28 317.792,233.189 318.359,234.099 318.949,235.008 319.56,235.917 320.195,236.827 320.854,237.736 321.537,238.645 322.247,239.554 322.984,240.464 323.749,241.373 324.545,242.282 325.371,243.192 326.23,244.101 327.125,245.01 " />
</g>
<g>
<polyline fill="none" stroke="#7f7fff" points="335.236,155.908 335.921,156.799 336.585,157.69 337.228,158.581 337.85,159.471 338.452,160.362 339.035,161.253 339.6,162.143 340.146,163.034 340.675,163.925 341.186,164.816 341.681,165.706 342.159,166.597 342.621,167.488 343.068,168.379 343.499,169.269 343.915,170.16 344.316,171.051 344.703,171.942 345.076,172.832 345.434,173.723 345.779,174.614 346.11,175.505 346.428,176.395 346.733,177.286 347.025,178.177 347.303,179.068 347.57,179.958 347.823,180.849 348.065,181.74 348.293,182.631 348.51,183.521 348.715,184.412 348.908,185.303 349.089,186.194 349.258,187.084 349.416,187.975 349.562,188.866 349.697,189.756 349.82,190.647 349.931,191.538 350.032,192.429 350.121,193.319 350.199,194.21 350.266,195.101 350.321,195.992 350.366,196.882 350.399,197.773 350.421,198.664 350.432,199.555 350.432,200.445 350.421,201.336 350.399,202.227 350.366,203.118 350.321,204.008 350.266,204.899 350.199,205.79 350.121,206.681 350.032,207.571 349.931,208.462 349.82,209.353 349.697,210.244 349.562,211.134 349.416,212.025 349.258,212.916 349.089,213.806 348.908,214.697 348.715,215.588 348.51,216.479 348.293,217.369 348.065,218.26 347.823,219.151 347.57,220.042 347.303,220.932 347.025,221.823 346.733,222.714 346.428,223.605 346.11,224.495 345.779,225.386 345.434,226.277 345.076,227.168 344.703,228.058 344.316,228.949 343.915,229.84 343.499,230.731 343.068,231.621 342.621,232.512 342.159,233.403 341.681,234.294 341.186,235.184 340.675,236.075 340.146,236.966 339.6,237.857 339.035,238.747 338.452,239.638 337.85,240.529 337.228,241.419 336.585,242.31 335.921,243.201 335.236,244.092 " />
<line x1="335.236" y1="143.048" x2="335.236" y2="155.908"  stroke="#7f7fff" />
<line x1="335.236" y1="143.048" x2="362.72" y2="143.048"  stroke="#7f7fff" />
<line x1="335.236" y1="256.952" x2="335.236" y2="244.092"  stroke="#7f7fff" />
<line x1="335.236" y1="256.952" x2="362.72" y2="256.952"  stroke="#7f7fff" />
<polyline fill="none" stroke="#7f7fff" points="362.72,143.048 362.648,144.199 362.577,145.349 362.508,146.5 362.441,147.65 362.375,148.801 362.31,149.951 362.247,151.102 362.186,152.253 362.126,153.403 362.067,154.554 362.01,155.704 361.954,156.855 361.9,158.005 361.847,159.156 361.796,160.306 361.746,161.457 361.697,162.607 361.651,163.758 361.605,164.908 361.561,166.059 361.519,167.21 361.478,168.36 361.438,169.511 361.4,170.661 361.363,171.812 361.328,172.962 361.294,174.113 361.262,175.263 361.231,176.414 361.202,177.564 361.174,178.715 361.148,179.866 361.123,181.016 361.1,182.167 361.078,183.317 361.057,184.468 361.038,185.618 361.021,186.769 361.004,187.919 360.99,189.07 360.977,190.22 360.965,191.371 360.955,192.521 360.946,193.672 360.939,194.823 360.933,195.973 360.928,197.124 360.925,198.274 360.924,199.425 360.924,200.575 360.925,201.726 360.928,202.876 360.933,204.027 360.939,205.177 360.946,206.328 360.955,207.479 360.965,208.629 360.977,209.78 360.99,210.93 361.004,212.081 361.021,213.231 361.038,214.382 361.057,215.532 361.078,216.683 361.1,217.833 361.123,218.984 361.148,220.134 361.174,221.285 361.202,222.436 361.231,223.586 361.262,224.737 361.294,225.887 361.328,227.038 361.363,228.188 361.4,229.339 361.438,230.489 361.478,231.64 361.519,232.79 361.561,233.941 361.605,235.092 361.651,236.242 361.697,237.393 361.746,238.543 361.796,239.694 361.847,240.844 361.9,241.995 361.954,243.145 362.01,244.296 362.067,245.446 362.126,246.597 362.186,247.747 362.247,248.898 362.31,250.049 362.375,251.199 362.441,252.35 362.508,253.5 362.577,254.651 362.648,255.801 362.72,256.952 " />
<line x1="362.72" y1="143.048" x2="370.747" y2="143.048"  stroke="#7f7fff" />
<line x1="362.72" y1="256.952" x2="370.747" y2="256.952"  stroke="#7f7fff" />
<polyline fill="none" stroke="#7f7fff" points="370.747,143.048 371.29,144.199 371.819,145.349 372.335,146.5 372.838,147.65 373.328,148.801 373.805,149.951 374.27,151.102 374.722,152.253 375.161,153.403 375.589,154.554 376.004,155.704 376.408,156.855 376.799,158.005 377.179,159.156 377.547,160.306 377.903,161.457 378.249,162.607 378.582,163.758 378.905,164.908 379.216,166.059 379.516,167.21 379.806,168.36 380.084,169.511 380.351,170.661 380.608,171.812 380.854,172.962 381.089,174.113 381.313,175.263 381.527,176.414 381.731,177.564 381.924,178.715 382.106,179.866 382.279,181.016 382.44,182.167 382.592,183.317 382.733,184.468 382.864,185.618 382.985,186.769 383.096,187.919 383.197,189.07 383.287,190.22 383.367,191.371 383.438,192.521 383.498,193.672 383.548,194.823 383.588,195.973 383.618,197.124 383.638,198.274 383.648,199.425 383.648,200.575 383.638,201.726 383.618,202.876 383.588,204.027 383.548,205.177 383.498,206.328 383.438,207.479 383.367,208.629 383.287,209.78 383.197,210.93 383.096,212.081 382.985,213.231 382.864,214.382 382.733,215.532 382.592,216.683 382.44,217.833 382.279,218.984 382.106,220.134 381.924,221.285 381.731,222.436 381.527,223.586 381.313,224.737 381.089,225.887 380.854,227.038 380.608,228.188 380.351,229.339 380.084,230.489 379.806,231.64 379.516,232.79 379.216,233.941 378.905,235.092 378.582,236.242 378.249,237.393 377.903,238.543 377.547,239.694 377.179,240.844 376.799,241.995 376.408,243.145 376.004,244.296 375.589,245.446 375.161,246.597 374.722,247.747 374.27,248.898 373.805,250.049 373.328,251.199 372.838,252.35 372.335,253.5 371.819,254.651 371.29,255.801 370.747,256.952 " />
</g>
<g>
<polyline fill="none" stroke="#7f7fff" points="380.364,142.13 380.51,143.299 380.653,144.468 380.793,145.637 380.93,146.806 381.064,147.975 381.194,149.144 381.322,150.313 381.447,151.482 381.569,152.652 381.688,153.821 381.803,154.99 381.916,156.159 382.026,157.328 382.133,158.497 382.237,159.666 382.337,160.835 382.435,162.004 382.53,163.173 382.622,164.342 382.711,165.512 382.797,166.681 382.88,167.85 382.96,169.019 383.037,170.188 383.111,171.357 383.182,172.526 383.25,173.695 383.315,174.864 383.377,176.033 383.436,177.203 383.492,178.372 383.546,179.541 383.596,180.71 383.643,181.879 383.688,183.048 383.729,184.217 383.767,185.386 383.803,186.555 383.835,187.724 383.865,188.894 383.892,190.063 383.915,191.232 383.936,192.401 383.954,193.57 383.968,194.739 383.98,195.908 383.989,197.077 383.995,198.246 383.998,199.415 383.998,200.585 383.995,201.754 383.989,202.923 383.98,204.092 383.968,205.261 383.954,206.43 383.936,207.599 383.915,208.768 383.892,209.937 383.865,211.106 383.835,212.276 383.803,213.445 383.767,214.614 383.729,215.783 383.688,216.952 383.643,218.121 383.596,219.29 383.546,220.459 383.492,221.628 383.436,222.797 383.377,223.967 383.315,225.136 383.25,226.305 383.182,227.474 383.111,228.643 383.037,229.812 382.96,230.981 382.88,232.15 382.797,233.319 382.711,234.488 382.622,235.658 382.53,236.827 382.435,237.996 382.337,239.165 382.237,240.334 382.133,241.503 382.026,242.672 381.916,243.841 381.803,245.01 381.688,246.179 381.569,247.348 381.447,248.518 381.322,249.687 381.194,250.856 381.064,252.025 380.93,253.194 380.793,254.363 380.653,255.532 380.51,256.701 380.364,257.87 " />
<line x1="380.364" y1="142.13" x2="386.184" y2="142.13"  stroke="#7f7fff" />
<line x1="380.364" y1="257.87" x2="386.184" y2="257.87"  stroke="#7f7fff" />
<polyline fill="none" stroke="#7f7fff" points="386.184,142.13 386.716,143.299 387.236,144.468 387.742,145.637 388.236,146.806 388.717,147.975 389.185,149.144 389.642,150.313 390.086,151.482 390.518,152.652 390.938,153.821 391.347,154.99 391.744,156.159 392.129,157.328 392.502,158.497 392.865,159.666 393.216,160.835 393.555,162.004 393.884,163.173 394.202,164.342 394.508,165.512 394.804,166.681 395.089,167.85 395.363,169.019 395.627,170.188 395.88,171.357 396.122,172.526 396.354,173.695 396.575,174.864 396.786,176.033 396.987,177.203 397.177,178.372 397.357,179.541 397.527,180.71 397.687,181.879 397.836,183.048 397.975,184.217 398.105,185.386 398.224,186.555 398.333,187.724 398.432,188.894 398.522,190.063 398.601,191.232 398.67,192.401 398.73,193.57 398.779,194.739 398.819,195.908 398.848,197.077 398.868,198.246 398.878,199.415 398.878,200.585 398.868,201.754 398.848,202.923 398.819,204.092 398.779,205.261 398.73,206.43 398.67,207.599 398.601,208.768 398.522,209.937 398.432,211.106 398.333,212.276 398.224,213.445 398.105,214.614 397.975,215.783 397.836,216.952 397.687,218.121 397.527,219.29 397.357,220.459 397.177,221.628 396.987,222.797 396.786,223.967 396.575,225.136 396.354,226.305 396.122,227.474 395.88,228.643 395.627,229.812 395.363,230.981 395.089,232.15 394.804,233.319 394.508,234.488 394.202,235.658 393.884,236.827 393.555,237.996 393.216,239.165 392.865,240.334 392.502,241.503 392.129,242.672 391.744,243.841 391.347,245.01 390.938,246.179 390.518,247.348 390.086,248.518 389.642,249.687 389.185,250.856 388.717,252.025 388.236,253.194 387.742,254.363 387.236,255.532 386.716,256.701 386.184,257.87 " />
</g>
<g>
<polyline fill="none" stroke="#7f7fff" points="401.532,142.13 401.44,143.299 401.35,144.468 401.261,145.637 401.174,146.806 401.09,147.975 401.007,149.144 400.926,150.313 400.847,151.482 400.77,152.652 400.695,153.821 400.621,154.99 400.55,156.159 400.48,157.328 400.412,158.497 400.347,159.666 400.283,160.835 400.221,162.004 400.16,163.173 400.102,164.342 400.046,165.512 399.991,166.681 399.939,167.85 399.888,169.019 399.839,170.188 399.792,171.357 399.747,172.526 399.704,173.695 399.662,174.864 399.623,176.033 399.585,177.203 399.55,178.372 399.516,179.541 399.484,180.71 399.454,181.879 399.426,183.048 399.4,184.217 399.375,185.386 399.353,186.555 399.332,187.724 399.313,188.894 399.296,190.063 399.281,191.232 399.268,192.401 399.257,193.57 399.247,194.739 399.24,195.908 399.234,197.077 399.231,198.246 399.229,199.415 399.229,200.585 399.231,201.754 399.234,202.923 399.24,204.092 399.247,205.261 399.257,206.43 399.268,207.599 399.281,208.768 399.296,209.937 399.313,211.106 399.332,212.276 399.353,213.445 399.375,214.614 399.4,215.783 399.426,216.952 399.454,218.121 399.484,219.29 399.516,220.459 399.55,221.628 399.585,222.797 399.623,223.967 399.662,225.136 399.704,226.305 399.747,227.474 399.792,228.643 399.839,229.812 399.888,230.981 399.939,232.15 399.991,233.319 400.046,234.488 400.102,235.658 400.16,236.827 400.221,237.996 400.283,239.165 400.347,240.334 400.412,241.503 400.48,242.672 400.55,243.841 400.621,245.01 400.695,246.179 400.77,247.348 400.847,248.518 400.926,249.687 401.007,250.856 401.09,252.025 401.174,253.194 401.261,254.363 401.35,255.532 401.44,256.701 401.532,257.87 " />
<line x1="401.532" y1="142.13" x2="406.762" y2="142.13"  stroke="#7f7fff" />
<line x1="401.532" y1="257.87" x2="406.762" y2="257.87"  stroke="#7f7fff" />
<polyline fill="none" stroke="#7f7fff" points="406.762,142.13 407.06,143.299 407.352,144.468 407.638,145.637 407.917,146.806 408.19,147.975 408.456,149.144 408.716,150.313 408.97,151.482 409.217,152.652 409.458,153.821 409.693,154.99 409.921,156.159 410.144,157.328 410.36,158.497 410.57,159.666 410.773,160.835 410.971,162.004 411.162,163.173 411.348,164.342 411.527,165.512 411.7,166.681 411.867,167.85 412.028,169.019 412.182,170.188 412.331,171.357 412.474,172.526 412.611,173.695 412.741,174.864 412.866,176.033 412.984,177.203 413.097,178.372 413.204,179.541 413.305,180.71 413.399,181.879 413.488,183.048 413.571,184.217 413.648,185.386 413.719,186.555 413.784,187.724 413.843,188.894 413.896,190.063 413.943,191.232 413.985,192.401 414.02,193.57 414.05,194.739 414.073,195.908 414.091,197.077 414.103,198.246 414.109,199.415 414.109,200.585 414.103,201.754 414.091,202.923 414.073,204.092 414.05,205.261 414.02,206.43 413.985,207.599 413.943,208.768 413.896,209.937 413.843,211.106 413.784,212.276 413.719,213.445 413.648,214.614 413.571,215.783 413.488,216.952 413.399,218.121 413.305,219.29 413.204,220.459 413.097,221.628 412.984,222.797 412.866,223.967 412.741,225.136 412.611,226.305 412.474,227.474 412.331,228.643 412.182,229.812 412.028,230.981 411.867,232.15 411.7,233.319 411.527,234.488 411.348,235.658 411.162,236.827 410.971,237.996 410.773,239.165 410.57,240.334 410.36,241.503 410.144,242.672 409.921,243.841 409.693,245.01 409.458,246.179 409.217,247.348 408.97,248.518 408.716,249.687 408.456,250.856 408.19,252.025 407.917,253.194 407.638,254.363 407.352,255.532 407.06,256.701 406.762,257.87 " />
</g>
</g>
<g><title>element</title>
<polyline fill="none" stroke="#7f7fff" points="548.222,41.2698 548.222,44.4765 548.222,47.6832 548.222,50.8899 548.222,54.0965 548.222,57.3032 548.222,60.5099 548.222,63.7165 548.222,66.9232 548.222,70.1299 548.222,73.3365 548.222,76.5432 548.222,79.7499 548.222,82.9565 548.222,86.1632 548.222,89.3699 548.222,92.5766 548.222,95.7832 548.222,98.9899 548.222,102.197 548.222,105.403 548.222,108.61 548.222,111.817 548.222,115.023 548.222,118.23 548.222,121.437 548.222,124.643 548.222,127.85 548.222,131.057 548.222,134.263 548.222,137.47 548.222,140.677 548.222,143.883 548.222,147.09 548.222,150.297 548.222,153.503 548.222,156.71 548.222,159.917 548.222,163.123 548.222,166.33 548.222,169.537 548.222,172.743 548.222,175.95 548.222,179.157 548.222,182.363 548.222,185.57 548.222,188.777 548.222,191.983 548.222,195.19 548.222,198.397 548.222,201.603 548.222,204.81 548.222,208.017 548.222,211.223 548.222,214.43 548.222,217.637 548.222,220.843 548.222,224.05 548.222,227.257 548.222,230.463 548.222,233.67 548.222,236.877 548.222,240.083 548.222,243.29 548.222,246.497 548.222,249.703 548.222,252.91 548.222,256.117 548.222,259.323 548.222,262.53 548.222,265.737 548.222,268.943 548.222,272.15 548.222,275.357 548.222,278.563 548.222,281.77 548.222,284.977 548.222,288.183 548.222,291.39 548.222,294.597 548.222,297.803 548.222,301.01 548.222,304.217 548.222,307.423 548.222,310.63 548.222,313.837 548.222,317.043 548.222,320.25 548.222,323.457 548.222,326.663 548.222,329.87 548.222,333.077 548.222,336.283 548.222,339.49 548.222,342.697 548.222,345.903 548.222,349.11 548.222,352.317 548.222,355.523 548.222,358.73 " />
</g>
<g><title>element</title>
</g>
<g><title>rays</title>
<g><title>ray</title>
<line x1="407.292" y1="144.224" x2="548.222" y2="134.255"  stroke="#ffe100" />
<line x1="401.302" y1="145.086" x2="407.292" y2="144.224"  stroke="#ffe100" />
<line x1="389.103" y1="148.936" x2="401.302" y2="145.086"  stroke="#ffe100" />
<line x1="381.462" y1="151.621" x2="389.103" y2="148.936"  stroke="#ffe100" />
<line x1="375.751" y1="154.998" x2="381.462" y2="151.621"  stroke="#ffe100" />
<line x1="361.732" y1="161.78" x2="375.751" y2="154.998"  stroke="#ffe100" />
<line x1="344.026" y1="170.403" x2="361.732" y2="161.78"  stroke="#ffe100" />
<line x1="329.986" y1="177.613" x2="344.026" y2="170.403"  stroke="#ffe100" />
<line x1="309.56" y1="188.102" x2="329.986" y2="177.613"  stroke="#ffe100" />
<line x1="300.313" y1="189.964" x2="309.56" y2="188.102"  stroke="#ffe100" />
<line x1="297.423" y1="191.02" x2="300.313" y2="189.964"  stroke="#ffe100" />
<line x1="273.215" y1="195.508" x2="297.423" y2="191.02"  stroke="#ffe100" />
<line x1="271.035" y1="196.305" x2="273.215" y2="195.508"  stroke="#ffe100" />
<line x1="251.778" y1="200" x2="271.035" y2="196.305"  stroke="#ffe100" />
<line x1="-3200.94" y1="1456.69" x2="251.778" y2="200"  stroke="#ffe100" />
</g>
<g><title>ray</title>
<line x1="407.307" y1="144.285" x2="548.222" y2="134.196"  stroke="#ff0000" />
<line x1="401.298" y1="145.151" x2="407.307" y2="144.285"  stroke="#ff0000" />
<line x1="389.121" y1="148.983" x2="401.298" y2="145.151"  stroke="#ff0000" />
<line x1="381.466" y1="151.667" x2="389.121" y2="148.983"  stroke="#ff0000" />
<line x1="375.759" y1="155.021" x2="381.466" y2="151.667"  stroke="#ff0000" />
<line x1="361.732" y1="161.786" x2="375.759" y2="155.021"  stroke="#ff0000" />
<line x1="344.026" y1="170.403" x2="361.732" y2="161.786"  stroke="#ff0000" />
<line x1="329.986" y1="177.601" x2="344.026" y2="170.403"  stroke="#ff0000" />
<line x1="309.566" y1="188.071" x2="329.986" y2="177.601"  stroke="#ff0000" />
<line x1="300.313" y1="189.941" x2="309.566" y2="188.071"  stroke="#ff0000" />
<line x1="297.424" y1="190.996" x2="300.313" y2="189.941"  stroke="#ff0000" />
<line x1="273.215" y1="195.496" x2="297.424" y2="190.996"  stroke="#ff0000" />
<line x1="271.035" y1="196.294" x2="273.215" y2="195.496"  stroke="#ff0000" />
<line x1="251.778" y1="200" x2="271.035" y2="196.294"  stroke="#ff0000" />
<line x1="-3200.94" y1="1456.69" x2="251.778" y2="200"  stroke="#ff0000" />
</g>
<g><title>ray</title>
<line x1="407.252" y1="144.064" x2="548.222" y2="134.341"  stroke="#00ebff" />
<line x1="401.315" y1="144.918" x2="407.252" y2="144.064"  stroke="#00ebff" />
<line x1="389.055" y1="148.815" x2="401.315" y2="144.918"  stroke="#00ebff" />
<line x1="381.449" y1="151.504" x2="389.055" y2="148.815"  stroke="#00ebff" />
<line x1="375.729" y1="154.938" x2="381.449" y2="151.504"  stroke="#00ebff" />
<line x1="361.733" y1="161.763" x2="375.729" y2="154.938"  stroke="#00ebff" />
<line x1="344.024" y1="170.4" x2="361.733" y2="161.763"  stroke="#00ebff" />
<line x1="329.986" y1="177.637" x2="344.024" y2="170.4"  stroke="#00ebff" />
<line x1="309.546" y1="188.175" x2="329.986" y2="177.637"  stroke="#00ebff" />
<line x1="300.311" y1="190.018" x2="309.546" y2="188.175"  stroke="#00ebff" />
<line x1="297.42" y1="191.074" x2="300.311" y2="190.018"  stroke="#00ebff" />
<line x1="273.213" y1="195.535" x2="297.42" y2="191.074"  stroke="#00ebff" />
<line x1="271.035" y1="196.332" x2="273.213" y2="195.535"  stroke="#00ebff" />
<line x1="251.778" y1="200" x2="271.035" y2="196.332"  stroke="#00ebff" />
<line x1="-3200.94" y1="1456.69" x2="251.778" y2="200"  stroke="#00ebff" />
</g>
<g><title>ray</title>
<line x1="-3222.21" y1="1398.27" x2="264.137" y2="129.34"  stroke="#ffe100" />
</g>
<g><title>ray</title>
<line x1="-3222.21" y1="1398.27" x2="264.137" y2="129.34"  stroke="#ff0000" />
</g>
<g><title>ray</title>
<line x1="-3222.21" y1="1398.27" x2="264.137" y2="129.34"  stroke="#00ebff" />
</g>
<g><title>ray</title>
<line x1="414.097" y1="197.597" x2="548.222" y2="134.634"  stroke="#ffe100" />
<line x1="399.23" y1="201.472" x2="414.097" y2="197.597"  stroke="#ffe100" />
<line x1="398.87" y1="201.644" x2="399.23" y2="201.472"  stroke="#ffe100" />
<line x1="383.969" y1="205.229" x2="398.87" y2="201.644"  stroke="#ffe100" />
<line x1="383.538" y1="205.435" x2="383.969" y2="205.229"  stroke="#ffe100" />
<line x1="360.985" y1="210.514" x2="383.538" y2="205.435"  stroke="#ffe100" />
<line x1="349.209" y1="213.179" x2="360.985" y2="210.514"  stroke="#ffe100" />
<line x1="329.986" y1="226.476" x2="349.209" y2="213.179"  stroke="#ffe100" />
<line x1="318.545" y1="234.389" x2="329.986" y2="226.476"  stroke="#ffe100" />
<line x1="303.367" y1="244.601" x2="318.545" y2="234.389"  stroke="#ffe100" />
<line x1="302.715" y1="245.473" x2="303.367" y2="244.601"  stroke="#ffe100" />
<line x1="290.359" y1="254.386" x2="302.715" y2="245.473"  stroke="#ffe100" />
<line x1="272.074" y1="267.782" x2="290.359" y2="254.386"  stroke="#ffe100" />
<line x1="264.137" y1="270.66" x2="272.074" y2="267.782"  stroke="#ffe100" />
<line x1="-3176.79" y1="1523.05" x2="264.137" y2="270.66"  stroke="#ffe100" />
</g>
<g><title>ray</title>
<line x1="414.099" y1="197.763" x2="548.222" y2="134.683"  stroke="#ff0000" />
<line x1="399.23" y1="201.648" x2="414.099" y2="197.763"  stroke="#ff0000" />
<line x1="398.867" y1="201.822" x2="399.23" y2="201.648"  stroke="#ff0000" />
<line x1="383.967" y1="205.409" x2="398.867" y2="201.822"  stroke="#ff0000" />
<line x1="383.53" y1="205.617" x2="383.967" y2="205.409"  stroke="#ff0000" />
<line x1="360.987" y1="210.686" x2="383.53" y2="205.617"  stroke="#ff0000" />
<line x1="349.175" y1="213.36" x2="360.987" y2="210.686"  stroke="#ff0000" />
<line x1="329.986" y1="226.593" x2="349.175" y2="213.36"  stroke="#ff0000" />
<line x1="318.587" y1="234.453" x2="329.986" y2="226.593"  stroke="#ff0000" />
<line x1="303.378" y1="244.678" x2="318.587" y2="234.453"  stroke="#ff0000" />
<line x1="302.731" y1="245.537" x2="303.378" y2="244.678"  stroke="#ff0000" />
<line x1="290.385" y1="254.424" x2="302.731" y2="245.537"  stroke="#ff0000" />
<line x1="272.074" y1="267.782" x2="290.385" y2="254.424"  stroke="#ff0000" />
<line x1="264.137" y1="270.66" x2="272.074" y2="267.782"  stroke="#ff0000" />
<line x1="-3176.79" y1="1523.05" x2="264.137" y2="270.66"  stroke="#ff0000" />
</g>
<g><title>ray</title>
<line x1="414.093" y1="197.224" x2="548.222" y2="134.554"  stroke="#00ebff" />
<line x1="399.229" y1="201.072" x2="414.093" y2="197.224"  stroke="#00ebff" />
<line x1="398.874" y1="201.242" x2="399.229" y2="201.072"  stroke="#00ebff" />
<line x1="383.973" y1="204.822" x2="398.874" y2="201.242"  stroke="#00ebff" />
<line x1="383.554" y1="205.023" x2="383.973" y2="204.822"  stroke="#00ebff" />
<line x1="360.98" y1="210.122" x2="383.554" y2="205.023"  stroke="#00ebff" />
<line x1="349.286" y1="212.764" x2="360.98" y2="210.122"  stroke="#00ebff" />
<line x1="329.986" y1="226.205" x2="349.286" y2="212.764"  stroke="#00ebff" />
<line x1="318.449" y1="234.239" x2="329.986" y2="226.205"  stroke="#00ebff" />
<line x1="303.341" y1="244.42" x2="318.449" y2="234.239"  stroke="#00ebff" />
<line x1="302.678" y1="245.323" x2="303.341" y2="244.42"  stroke="#00ebff" />
<line x1="290.296" y1="254.298" x2="302.678" y2="245.323"  stroke="#00ebff" />
<line x1="272.074" y1="267.782" x2="290.296" y2="254.298"  stroke="#00ebff" />
<line x1="264.137" y1="270.66" x2="272.074" y2="267.782"  stroke="#00ebff" />
<line x1="-3176.79" y1="1523.05" x2="264.137" y2="270.66"  stroke="#00ebff" />
</g>
<g><title>ray</title>
<line x1="261.73" y1="136.406" x2="271.959" y2="136.059"  stroke="#ffe100" />
<line x1="-3220.22" y1="1403.73" x2="261.73" y2="136.406"  stroke="#ffe100" />
</g>
<g><title>ray</title>
<line x1="261.73" y1="136.406" x2="271.96" y2="136.048"  stroke="#ff0000" />
<line x1="-3220.22" y1="1403.73" x2="261.73" y2="136.406"  stroke="#ff0000" />
</g>
<g><title>ray</title>
<line x1="261.73" y1="136.406" x2="271.958" y2="136.085"  stroke="#00ebff" />
<line x1="-3220.22" y1="1403.73" x2="261.73" y2="136.406"  stroke="#00ebff" />
</g>
<g><title>ray</title>
<line x1="413.932" y1="190.944" x2="548.222" y2="134.444"  stroke="#ffe100" />
<line x1="399.248" y1="194.621" x2="413.932" y2="190.944"  stroke="#ffe100" />
<line x1="398.783" y1="194.838" x2="399.248" y2="194.621"  stroke="#ffe100" />
<line x1="383.997" y1="198.689" x2="398.783" y2="194.838"  stroke="#ffe100" />
<line x1="383.644" y1="198.867" x2="383.997" y2="198.689"  stroke="#ffe100" />
<line x1="360.937" y1="204.848" x2="383.644" y2="198.867"  stroke="#ffe100" />
<line x1="350.014" y1="207.74" x2="360.937" y2="204.848"  stroke="#ffe100" />
<line x1="329.986" y1="221.158" x2="350.014" y2="207.74"  stroke="#ffe100" />
<line x1="316.183" y1="230.406" x2="329.986" y2="221.158"  stroke="#ffe100" />
<line x1="302.586" y1="238.835" x2="316.183" y2="230.406"  stroke="#ffe100" />
<line x1="301.486" y1="240.143" x2="302.586" y2="238.835"  stroke="#ffe100" />
<line x1="287.175" y1="249.566" x2="301.486" y2="240.143"  stroke="#ffe100" />
<line x1="271.851" y1="260.107" x2="287.175" y2="249.566"  stroke="#ffe100" />
<line x1="261.73" y1="263.594" x2="271.851" y2="260.107"  stroke="#ffe100" />
<line x1="-3179.34" y1="1516.04" x2="261.73" y2="263.594"  stroke="#ffe100" />
</g>
<g><title>ray</title>
<line x1="413.938" y1="191.087" x2="548.222" y2="134.479"  stroke="#ff0000" />
<line x1="399.247" y1="194.775" x2="413.938" y2="191.087"  stroke="#ff0000" />
<line x1="398.788" y1="194.989" x2="399.247" y2="194.775"  stroke="#ff0000" />
<line x1="383.997" y1="198.842" x2="398.788" y2="194.989"  stroke="#ff0000" />
<line x1="383.646" y1="199.019" x2="383.997" y2="198.842"  stroke="#ff0000" />
<line x1="360.938" y1="204.993" x2="383.646" y2="199.019"  stroke="#ff0000" />
<line x1="349.997" y1="207.89" x2="360.938" y2="204.993"  stroke="#ff0000" />
<line x1="329.986" y1="221.259" x2="349.997" y2="207.89"  stroke="#ff0000" />
<line x1="316.212" y1="230.46" x2="329.986" y2="221.259"  stroke="#ff0000" />
<line x1="302.594" y1="238.897" x2="316.212" y2="230.46"  stroke="#ff0000" />
<line x1="301.497" y1="240.192" x2="302.594" y2="238.897"  stroke="#ff0000" />
<line x1="287.192" y1="249.594" x2="301.497" y2="240.192"  stroke="#ff0000" />
<line x1="271.851" y1="260.107" x2="287.192" y2="249.594"  stroke="#ff0000" />
<line x1="261.73" y1="263.594" x2="271.851" y2="260.107"  stroke="#ff0000" />
<line x1="-3179.34" y1="1516.04" x2="261.73" y2="263.594"  stroke="#ff0000" />
</g>
<g><title>ray</title>
<line x1="413.919" y1="190.622" x2="548.222" y2="134.387"  stroke="#00ebff" />
<line x1="399.251" y1="194.273" x2="413.919" y2="190.622"  stroke="#00ebff" />
<line x1="398.77" y1="194.497" x2="399.251" y2="194.273"  stroke="#00ebff" />
<line x1="383.995" y1="198.341" x2="398.77" y2="194.497"  stroke="#00ebff" />
<line x1="383.641" y1="198.521" x2="383.995" y2="198.341"  stroke="#00ebff" />
<line x1="360.935" y1="204.518" x2="383.641" y2="198.521"  stroke="#00ebff" />
<line x1="350.051" y1="207.393" x2="360.935" y2="204.518"  stroke="#00ebff" />
<line x1="329.986" y1="220.924" x2="350.051" y2="207.393"  stroke="#00ebff" />
<line x1="316.114" y1="230.279" x2="329.986" y2="220.924"  stroke="#00ebff" />
<line x1="302.567" y1="238.687" x2="316.114" y2="230.279"  stroke="#00ebff" />
<line x1="301.461" y1="240.026" x2="302.567" y2="238.687"  stroke="#00ebff" />
<line x1="287.134" y1="249.5" x2="301.461" y2="240.026"  stroke="#00ebff" />
<line x1="271.851" y1="260.109" x2="287.134" y2="249.5"  stroke="#00ebff" />
<line x1="261.73" y1="263.594" x2="271.851" y2="260.109"  stroke="#00ebff" />
<line x1="-3179.34" y1="1516.04" x2="261.73" y2="263.594"  stroke="#00ebff" />
</g>
<g><title>ray</title>
<line x1="271.773" y1="142.829" x2="294.519" y2="140.149"  stroke="#ffe100" />
<line x1="259.6" y1="143.472" x2="271.773" y2="142.829"  stroke="#ffe100" />
<line x1="-3218.2" y1="1409.29" x2="259.6" y2="143.472"  stroke="#ffe100" />
</g>
<g><title>ray</title>
<line x1="271.773" y1="142.817" x2="294.56" y2="140.099"  stroke="#ff0000" />
<line x1="259.6" y1="143.472" x2="271.773" y2="142.817"  stroke="#ff0000" />
<line x1="-3218.2" y1="1409.29" x2="259.6" y2="143.472"  stroke="#ff0000" />
</g>
<g><title>ray</title>
<line x1="271.772" y1="142.858" x2="294.424" y2="140.265"  stroke="#00ebff" />
<line x1="259.6" y1="143.472" x2="271.772" y2="142.858"  stroke="#00ebff" />
<line x1="-3218.2" y1="1409.29" x2="259.6" y2="143.472"  stroke="#00ebff" />
</g>
<g><title>ray</title>
<line x1="413.611" y1="184.82" x2="548.222" y2="134.361"  stroke="#ffe100" />
<line x1="399.323" y1="188.236" x2="413.611" y2="184.82"  stroke="#ffe100" />
<line x1="398.412" y1="188.648" x2="399.323" y2="188.236"  stroke="#ffe100" />
<line x1="383.94" y1="192.644" x2="398.412" y2="188.648"  stroke="#ffe100" />
<line x1="383.458" y1="192.898" x2="383.94" y2="192.644"  stroke="#ffe100" />
<line x1="360.924" y1="199.569" x2="383.458" y2="192.898"  stroke="#ffe100" />
<line x1="350.382" y1="202.705" x2="360.924" y2="199.569"  stroke="#ffe100" />
<line x1="329.986" y1="215.938" x2="350.382" y2="202.705"  stroke="#ffe100" />
<line x1="314.107" y1="226.24" x2="329.986" y2="215.938"  stroke="#ffe100" />
<line x1="301.926" y1="233.172" x2="314.107" y2="226.24"  stroke="#ffe100" />
<line x1="300.411" y1="234.78" x2="301.926" y2="233.172"  stroke="#ffe100" />
<line x1="284.24" y1="244.462" x2="300.411" y2="234.78"  stroke="#ffe100" />
<line x1="271.659" y1="252.588" x2="284.24" y2="244.462"  stroke="#ffe100" />
<line x1="259.6" y1="256.528" x2="271.659" y2="252.588"  stroke="#ffe100" />
<line x1="-3181.86" y1="1509.12" x2="259.6" y2="256.528"  stroke="#ffe100" />
</g>
<g><title>ray</title>
<line x1="413.619" y1="184.945" x2="548.222" y2="134.384"  stroke="#ff0000" />
<line x1="399.321" y1="188.373" x2="413.619" y2="184.945"  stroke="#ff0000" />
<line x1="398.423" y1="188.778" x2="399.321" y2="188.373"  stroke="#ff0000" />
<line x1="383.942" y1="192.777" x2="398.423" y2="188.778"  stroke="#ff0000" />
<line x1="383.465" y1="193.027" x2="383.942" y2="192.777"  stroke="#ff0000" />
<line x1="360.924" y1="199.691" x2="383.465" y2="193.027"  stroke="#ff0000" />
<line x1="350.378" y1="202.831" x2="360.924" y2="199.691"  stroke="#ff0000" />
<line x1="329.986" y1="216.024" x2="350.378" y2="202.831"  stroke="#ff0000" />
<line x1="314.127" y1="226.284" x2="329.986" y2="216.024"  stroke="#ff0000" />
<line x1="301.931" y1="233.222" x2="314.127" y2="226.284"  stroke="#ff0000" />
<line x1="300.418" y1="234.817" x2="301.931" y2="233.222"  stroke="#ff0000" />
<line x1="284.251" y1="244.482" x2="300.418" y2="234.817"  stroke="#ff0000" />
<line x1="271.659" y1="252.586" x2="284.251" y2="244.482"  stroke="#ff0000" />
<line x1="259.6" y1="256.528" x2="271.659" y2="252.586"  stroke="#ff0000" />
<line x1="-3181.86" y1="1509.12" x2="259.6" y2="256.528"  stroke="#ff0000" />
</g>
<g><title>ray</title>
<line x1="413.593" y1="184.537" x2="548.222" y2="134.322"  stroke="#00ebff" />
<line x1="399.328" y1="187.928" x2="413.593" y2="184.537"  stroke="#00ebff" />
<line x1="398.388" y1="188.353" x2="399.328" y2="187.928"  stroke="#00ebff" />
<line x1="383.935" y1="192.343" x2="398.388" y2="188.353"  stroke="#00ebff" />
<line x1="383.442" y1="192.604" x2="383.935" y2="192.343"  stroke="#00ebff" />
<line x1="360.924" y1="199.29" x2="383.442" y2="192.604"  stroke="#00ebff" />
<line x1="350.393" y1="202.418" x2="360.924" y2="199.29"  stroke="#00ebff" />
<line x1="329.986" y1="215.74" x2="350.393" y2="202.418"  stroke="#00ebff" />
<line x1="314.06" y1="226.137" x2="329.986" y2="215.74"  stroke="#00ebff" />
<line x1="301.913" y1="233.055" x2="314.06" y2="226.137"  stroke="#00ebff" />
<line x1="300.395" y1="234.692" x2="301.913" y2="233.055"  stroke="#00ebff" />
<line x1="284.216" y1="244.416" x2="300.395" y2="234.692"  stroke="#00ebff" />
<line x1="271.659" y1="252.592" x2="284.216" y2="244.416"  stroke="#00ebff" />
<line x1="259.6" y1="256.528" x2="271.659" y2="252.592"  stroke="#00ebff" />
<line x1="-3181.86" y1="1509.12" x2="259.6" y2="256.528"  stroke="#00ebff" />
</g>
<g><title>ray</title>
<line x1="303.995" y1="149.603" x2="304.258" y2="149.637"  stroke="#ffe100" />
<line x1="289.482" y1="146.878" x2="303.995" y2="149.603"  stroke="#ffe100" />
<line x1="271.609" y1="149.55" x2="289.482" y2="146.878"  stroke="#ffe100" />
<line x1="257.74" y1="150.538" x2="271.609" y2="149.55"  stroke="#ffe100" />
<line x1="-3216.14" y1="1414.93" x2="257.74" y2="150.538"  stroke="#ffe100" />
</g>
<g><title>ray</title>
<line x1="304.011" y1="149.541" x2="304.268" y2="149.574"  stroke="#ff0000" />
<line x1="289.509" y1="146.838" x2="304.011" y2="149.541"  stroke="#ff0000" />
<line x1="271.609" y1="149.536" x2="289.509" y2="146.838"  stroke="#ff0000" />
<line x1="257.74" y1="150.538" x2="271.609" y2="149.536"  stroke="#ff0000" />
<line x1="-3216.14" y1="1414.93" x2="257.74" y2="150.538"  stroke="#ff0000" />
</g>
<g><title>ray</title>
<line x1="303.955" y1="149.746" x2="304.234" y2="149.784"  stroke="#00ebff" />
<line x1="289.419" y1="146.972" x2="303.955" y2="149.746"  stroke="#00ebff" />
<line x1="271.608" y1="149.581" x2="289.419" y2="146.972"  stroke="#00ebff" />
<line x1="257.74" y1="150.538" x2="271.608" y2="149.581"  stroke="#00ebff" />
<line x1="-3216.14" y1="1414.93" x2="257.74" y2="150.538"  stroke="#00ebff" />
</g>
<g><title>ray</title>
<line x1="413.163" y1="179.087" x2="548.222" y2="134.329"  stroke="#ffe100" />
<line x1="399.446" y1="182.204" x2="413.163" y2="179.087"  stroke="#ffe100" />
<line x1="397.819" y1="182.911" x2="399.446" y2="182.204"  stroke="#ffe100" />
<line x1="383.815" y1="186.96" x2="397.819" y2="182.911"  stroke="#ffe100" />
<line x1="383.045" y1="187.376" x2="383.815" y2="186.96"  stroke="#ffe100" />
<line x1="360.94" y1="194.552" x2="383.045" y2="187.376"  stroke="#ffe100" />
<line x1="350.405" y1="197.991" x2="360.94" y2="194.552"  stroke="#ffe100" />
<line x1="329.986" y1="210.817" x2="350.405" y2="197.991"  stroke="#ffe100" />
<line x1="312.332" y1="221.907" x2="329.986" y2="210.817"  stroke="#ffe100" />
<line x1="301.379" y1="227.602" x2="312.332" y2="221.907"  stroke="#ffe100" />
<line x1="299.491" y1="229.391" x2="301.379" y2="227.602"  stroke="#ffe100" />
<line x1="281.587" y1="239.092" x2="299.491" y2="229.391"  stroke="#ffe100" />
<line x1="271.495" y1="245.207" x2="281.587" y2="239.092"  stroke="#ffe100" />
<line x1="257.74" y1="249.462" x2="271.495" y2="245.207"  stroke="#ffe100" />
<line x1="-3184.35" y1="1502.28" x2="257.74" y2="249.462"  stroke="#ffe100" />
</g>
<g><title>ray</title>
<line x1="413.173" y1="179.198" x2="548.222" y2="134.341"  stroke="#ff0000" />
<line x1="399.443" y1="182.325" x2="413.173" y2="179.198"  stroke="#ff0000" />
<line x1="397.833" y1="183.025" x2="399.443" y2="182.325"  stroke="#ff0000" />
<line x1="383.818" y1="187.075" x2="397.833" y2="183.025"  stroke="#ff0000" />
<line x1="383.055" y1="187.486" x2="383.818" y2="187.075"  stroke="#ff0000" />
<line x1="360.94" y1="194.655" x2="383.055" y2="187.486"  stroke="#ff0000" />
<line x1="350.408" y1="198.094" x2="360.94" y2="194.655"  stroke="#ff0000" />
<line x1="329.986" y1="210.888" x2="350.408" y2="198.094"  stroke="#ff0000" />
<line x1="312.344" y1="221.941" x2="329.986" y2="210.888"  stroke="#ff0000" />
<line x1="301.382" y1="227.64" x2="312.344" y2="221.941"  stroke="#ff0000" />
<line x1="299.495" y1="229.418" x2="301.382" y2="227.64"  stroke="#ff0000" />
<line x1="281.592" y1="239.104" x2="299.495" y2="229.418"  stroke="#ff0000" />
<line x1="271.495" y1="245.205" x2="281.592" y2="239.104"  stroke="#ff0000" />
<line x1="257.74" y1="249.462" x2="271.495" y2="245.205"  stroke="#ff0000" />
<line x1="-3184.35" y1="1502.28" x2="257.74" y2="249.462"  stroke="#ff0000" />
</g>
<g><title>ray</title>
<line x1="413.14" y1="178.835" x2="548.222" y2="134.306"  stroke="#00ebff" />
<line x1="399.453" y1="181.928" x2="413.14" y2="178.835"  stroke="#00ebff" />
<line x1="397.787" y1="182.654" x2="399.453" y2="181.928"  stroke="#00ebff" />
<line x1="383.807" y1="186.697" x2="397.787" y2="182.654"  stroke="#00ebff" />
<line x1="383.021" y1="187.126" x2="383.807" y2="186.697"  stroke="#00ebff" />
<line x1="360.942" y1="194.319" x2="383.021" y2="187.126"  stroke="#00ebff" />
<line x1="350.398" y1="197.754" x2="360.942" y2="194.319"  stroke="#00ebff" />
<line x1="329.986" y1="210.653" x2="350.398" y2="197.754"  stroke="#00ebff" />
<line x1="312.303" y1="221.828" x2="329.986" y2="210.653"  stroke="#00ebff" />
<line x1="301.371" y1="227.514" x2="312.303" y2="221.828"  stroke="#00ebff" />
<line x1="299.481" y1="229.328" x2="301.371" y2="227.514"  stroke="#00ebff" />
<line x1="281.573" y1="239.062" x2="299.481" y2="229.328"  stroke="#00ebff" />
<line x1="271.495" y1="245.214" x2="281.573" y2="239.062"  stroke="#00ebff" />
<line x1="257.74" y1="249.462" x2="271.495" y2="245.214"  stroke="#00ebff" />
<line x1="-3184.35" y1="1502.28" x2="257.74" y2="249.462"  stroke="#00ebff" />
</g>
<g><title>ray</title>
<line x1="324.452" y1="157.822" x2="329.986" y2="153.966"  stroke="#ffe100" />
<line x1="303.283" y1="155.981" x2="324.452" y2="157.822"  stroke="#ffe100" />
<line x1="302.375" y1="155.934" x2="303.283" y2="155.981"  stroke="#ffe100" />
<line x1="285.22" y1="153.751" x2="302.375" y2="155.934"  stroke="#ffe100" />
<line x1="271.466" y1="156.236" x2="285.22" y2="153.751"  stroke="#ffe100" />
<line x1="256.141" y1="157.604" x2="271.466" y2="156.236"  stroke="#ffe100" />
<line x1="-3214.06" y1="1420.65" x2="256.141" y2="157.604"  stroke="#ffe100" />
</g>
<g><title>ray</title>
<line x1="324.522" y1="157.743" x2="329.986" y2="153.924"  stroke="#ff0000" />
<line x1="303.291" y1="155.924" x2="324.522" y2="157.743"  stroke="#ff0000" />
<line x1="302.388" y1="155.879" x2="303.291" y2="155.924"  stroke="#ff0000" />
<line x1="285.238" y1="153.719" x2="302.388" y2="155.879"  stroke="#ff0000" />
<line x1="271.466" y1="156.222" x2="285.238" y2="153.719"  stroke="#ff0000" />
<line x1="256.141" y1="157.604" x2="271.466" y2="156.222"  stroke="#ff0000" />
<line x1="-3214.06" y1="1420.65" x2="256.141" y2="157.604"  stroke="#ff0000" />
</g>
<g><title>ray</title>
<line x1="324.291" y1="158.004" x2="329.986" y2="154.056"  stroke="#00ebff" />
<line x1="303.264" y1="156.112" x2="324.291" y2="158.004"  stroke="#00ebff" />
<line x1="302.345" y1="156.061" x2="303.264" y2="156.112"  stroke="#00ebff" />
<line x1="285.177" y1="153.826" x2="302.345" y2="156.061"  stroke="#00ebff" />
<line x1="271.466" y1="156.268" x2="285.177" y2="153.826"  stroke="#00ebff" />
<line x1="256.141" y1="157.604" x2="271.466" y2="156.268"  stroke="#00ebff" />
<line x1="-3214.06" y1="1420.65" x2="256.141" y2="157.604"  stroke="#00ebff" />
</g>
<g><title>ray</title>
<line x1="412.606" y1="173.654" x2="548.222" y2="134.325"  stroke="#ffe100" />
<line x1="399.609" y1="176.448" x2="412.606" y2="173.654"  stroke="#ffe100" />
<line x1="397.039" y1="177.52" x2="399.609" y2="176.448"  stroke="#ffe100" />
<line x1="383.63" y1="181.542" x2="397.039" y2="177.52"  stroke="#ffe100" />
<line x1="382.445" y1="182.197" x2="383.63" y2="181.542"  stroke="#ffe100" />
<line x1="360.982" y1="189.716" x2="382.445" y2="182.197"  stroke="#ffe100" />
<line x1="350.141" y1="193.536" x2="360.982" y2="189.716"  stroke="#ffe100" />
<line x1="329.986" y1="205.794" x2="350.141" y2="193.536"  stroke="#ffe100" />
<line x1="310.87" y1="217.419" x2="329.986" y2="205.794"  stroke="#ffe100" />
<line x1="300.938" y1="222.111" x2="310.87" y2="217.419"  stroke="#ffe100" />
<line x1="298.726" y1="223.981" x2="300.938" y2="222.111"  stroke="#ffe100" />
<line x1="279.244" y1="233.471" x2="298.726" y2="223.981"  stroke="#ffe100" />
<line x1="271.358" y1="237.95" x2="279.244" y2="233.471"  stroke="#ffe100" />
<line x1="256.141" y1="242.396" x2="271.358" y2="237.95"  stroke="#ffe100" />
<line x1="-3186.81" y1="1495.53" x2="256.141" y2="242.396"  stroke="#ffe100" />
</g>
<g><title>ray</title>
<line x1="412.617" y1="173.753" x2="548.222" y2="134.327"  stroke="#ff0000" />
<line x1="399.606" y1="176.556" x2="412.617" y2="173.753"  stroke="#ff0000" />
<line x1="397.056" y1="177.619" x2="399.606" y2="176.556"  stroke="#ff0000" />
<line x1="383.634" y1="181.643" x2="397.056" y2="177.619"  stroke="#ff0000" />
<line x1="382.457" y1="182.29" x2="383.634" y2="181.643"  stroke="#ff0000" />
<line x1="360.981" y1="189.801" x2="382.457" y2="182.29"  stroke="#ff0000" />
<line x1="350.149" y1="193.619" x2="360.981" y2="189.801"  stroke="#ff0000" />
<line x1="329.986" y1="205.851" x2="350.149" y2="193.619"  stroke="#ff0000" />
<line x1="310.877" y1="217.443" x2="329.986" y2="205.851"  stroke="#ff0000" />
<line x1="300.94" y1="222.137" x2="310.877" y2="217.443"  stroke="#ff0000" />
<line x1="298.728" y1="223.998" x2="300.94" y2="222.137"  stroke="#ff0000" />
<line x1="279.246" y1="233.478" x2="298.728" y2="223.998"  stroke="#ff0000" />
<line x1="271.358" y1="237.946" x2="279.246" y2="233.478"  stroke="#ff0000" />
<line x1="256.141" y1="242.396" x2="271.358" y2="237.946"  stroke="#ff0000" />
<line x1="-3186.81" y1="1495.53" x2="256.141" y2="242.396"  stroke="#ff0000" />
</g>
<g><title>ray</title>
<line x1="412.58" y1="173.426" x2="548.222" y2="134.317"  stroke="#00ebff" />
<line x1="399.618" y1="176.199" x2="412.58" y2="173.426"  stroke="#00ebff" />
<line x1="397.002" y1="177.294" x2="399.618" y2="176.199"  stroke="#00ebff" />
<line x1="383.621" y1="181.312" x2="397.002" y2="177.294"  stroke="#00ebff" />
<line x1="382.415" y1="181.983" x2="383.621" y2="181.312"  stroke="#00ebff" />
<line x1="360.984" y1="189.523" x2="382.415" y2="181.983"  stroke="#00ebff" />
<line x1="350.123" y1="193.345" x2="360.984" y2="189.523"  stroke="#00ebff" />
<line x1="329.986" y1="205.662" x2="350.123" y2="193.345"  stroke="#00ebff" />
<line x1="310.854" y1="217.364" x2="329.986" y2="205.662"  stroke="#00ebff" />
<line x1="300.934" y1="222.048" x2="310.854" y2="217.364"  stroke="#00ebff" />
<line x1="298.721" y1="223.94" x2="300.934" y2="222.048"  stroke="#00ebff" />
<line x1="279.238" y1="233.455" x2="298.721" y2="223.94"  stroke="#00ebff" />
<line x1="271.359" y1="237.959" x2="279.238" y2="233.455"  stroke="#00ebff" />
<line x1="256.141" y1="242.396" x2="271.359" y2="237.959"  stroke="#00ebff" />
<line x1="-3186.81" y1="1495.53" x2="256.141" y2="242.396"  stroke="#00ebff" />
</g>
<g><title>ray</title>
<line x1="320.558" y1="162.668" x2="329.986" y2="157.28"  stroke="#ffe100" />
<line x1="302.477" y1="162.045" x2="320.558" y2="162.668"  stroke="#ffe100" />
<line x1="301.022" y1="162.076" x2="302.477" y2="162.045"  stroke="#ffe100" />
<line x1="281.675" y1="160.715" x2="301.022" y2="162.076"  stroke="#ffe100" />
<line x1="271.344" y1="162.9" x2="281.675" y2="160.715"  stroke="#ffe100" />
<line x1="254.798" y1="164.67" x2="271.344" y2="162.9"  stroke="#ffe100" />
<line x1="-3211.94" y1="1426.46" x2="254.798" y2="164.67"  stroke="#ffe100" />
</g>
<g><title>ray</title>
<line x1="320.61" y1="162.596" x2="329.986" y2="157.237"  stroke="#ff0000" />
<line x1="302.483" y1="161.994" x2="320.61" y2="162.596"  stroke="#ff0000" />
<line x1="301.032" y1="162.027" x2="302.483" y2="161.994"  stroke="#ff0000" />
<line x1="281.687" y1="160.689" x2="301.032" y2="162.027"  stroke="#ff0000" />
<line x1="271.344" y1="162.886" x2="281.687" y2="160.689"  stroke="#ff0000" />
<line x1="254.798" y1="164.67" x2="271.344" y2="162.886"  stroke="#ff0000" />
<line x1="-3211.94" y1="1426.46" x2="254.798" y2="164.67"  stroke="#ff0000" />
</g>
<g><title>ray</title>
<line x1="320.438" y1="162.834" x2="329.986" y2="157.376"  stroke="#00ebff" />
<line x1="302.462" y1="162.163" x2="320.438" y2="162.834"  stroke="#00ebff" />
<line x1="300.999" y1="162.189" x2="302.462" y2="162.163"  stroke="#00ebff" />
<line x1="281.647" y1="160.776" x2="300.999" y2="162.189"  stroke="#00ebff" />
<line x1="271.343" y1="162.933" x2="281.647" y2="160.776"  stroke="#00ebff" />
<line x1="254.798" y1="164.67" x2="271.343" y2="162.933"  stroke="#00ebff" />
<line x1="-3211.94" y1="1426.46" x2="254.798" y2="164.67"  stroke="#00ebff" />
</g>
<g><title>ray</title>
<line x1="411.95" y1="168.452" x2="548.222" y2="134.336"  stroke="#ffe100" />
<line x1="399.81" y1="170.911" x2="411.95" y2="168.452"  stroke="#ffe100" />
<line x1="396.095" y1="172.395" x2="399.81" y2="170.911"  stroke="#ffe100" />
<line x1="383.392" y1="176.325" x2="396.095" y2="172.395"  stroke="#ffe100" />
<line x1="381.682" y1="177.283" x2="383.392" y2="176.325"  stroke="#ffe100" />
<line x1="361.048" y1="185.001" x2="381.682" y2="177.283"  stroke="#ffe100" />
<line x1="349.629" y1="189.296" x2="361.048" y2="185.001"  stroke="#ffe100" />
<line x1="329.986" y1="200.866" x2="349.629" y2="189.296"  stroke="#ffe100" />
<line x1="309.737" y1="212.793" x2="329.986" y2="200.866"  stroke="#ffe100" />
<line x1="300.599" y1="216.684" x2="309.737" y2="212.793"  stroke="#ffe100" />
<line x1="298.116" y1="218.551" x2="300.599" y2="216.684"  stroke="#ffe100" />
<line x1="277.24" y1="227.617" x2="298.116" y2="218.551"  stroke="#ffe100" />
<line x1="271.247" y1="230.803" x2="277.24" y2="227.617"  stroke="#ffe100" />
<line x1="254.798" y1="235.33" x2="271.247" y2="230.803"  stroke="#ffe100" />
<line x1="-3189.23" y1="1488.86" x2="254.798" y2="235.33"  stroke="#ffe100" />
</g>
<g><title>ray</title>
<line x1="411.963" y1="168.541" x2="548.222" y2="134.328"  stroke="#ff0000" />
<line x1="399.806" y1="171.009" x2="411.963" y2="168.541"  stroke="#ff0000" />
<line x1="396.113" y1="172.482" x2="399.806" y2="171.009"  stroke="#ff0000" />
<line x1="383.397" y1="176.413" x2="396.113" y2="172.482"  stroke="#ff0000" />
<line x1="381.696" y1="177.362" x2="383.397" y2="176.413"  stroke="#ff0000" />
<line x1="361.047" y1="185.069" x2="381.696" y2="177.362"  stroke="#ff0000" />
<line x1="349.638" y1="189.362" x2="361.047" y2="185.069"  stroke="#ff0000" />
<line x1="329.986" y1="200.91" x2="349.638" y2="189.362"  stroke="#ff0000" />
<line x1="309.74" y1="212.807" x2="329.986" y2="200.91"  stroke="#ff0000" />
<line x1="300.6" y1="216.701" x2="309.74" y2="212.807"  stroke="#ff0000" />
<line x1="298.117" y1="218.56" x2="300.6" y2="216.701"  stroke="#ff0000" />
<line x1="277.24" y1="227.619" x2="298.117" y2="218.56"  stroke="#ff0000" />
<line x1="271.247" y1="230.798" x2="277.24" y2="227.619"  stroke="#ff0000" />
<line x1="254.798" y1="235.33" x2="271.247" y2="230.798"  stroke="#ff0000" />
<line x1="-3189.23" y1="1488.86" x2="254.798" y2="235.33"  stroke="#ff0000" />
</g>
<g><title>ray</title>
<line x1="411.922" y1="168.244" x2="548.222" y2="134.344"  stroke="#00ebff" />
<line x1="399.819" y1="170.685" x2="411.922" y2="168.244"  stroke="#00ebff" />
<line x1="396.054" y1="172.194" x2="399.819" y2="170.685"  stroke="#00ebff" />
<line x1="383.382" y1="176.122" x2="396.054" y2="172.194"  stroke="#00ebff" />
<line x1="381.65" y1="177.102" x2="383.382" y2="176.122"  stroke="#00ebff" />
<line x1="361.051" y1="184.844" x2="381.65" y2="177.102"  stroke="#00ebff" />
<line x1="349.606" y1="189.146" x2="361.051" y2="184.844"  stroke="#00ebff" />
<line x1="329.986" y1="200.764" x2="349.606" y2="189.146"  stroke="#00ebff" />
<line x1="309.73" y1="212.76" x2="329.986" y2="200.764"  stroke="#00ebff" />
<line x1="300.597" y1="216.645" x2="309.73" y2="212.76"  stroke="#00ebff" />
<line x1="298.114" y1="218.53" x2="300.597" y2="216.645"  stroke="#00ebff" />
<line x1="277.239" y1="227.613" x2="298.114" y2="218.53"  stroke="#00ebff" />
<line x1="271.247" y1="230.815" x2="277.239" y2="227.613"  stroke="#00ebff" />
<line x1="254.798" y1="235.33" x2="271.247" y2="230.815"  stroke="#00ebff" />
<line x1="-3189.23" y1="1488.86" x2="254.798" y2="235.33"  stroke="#00ebff" />
</g>
<g><title>ray</title>
<line x1="329.986" y1="160.959" x2="336.475" y2="157.541"  stroke="#ffe100" />
<line x1="317.287" y1="167.65" x2="329.986" y2="160.959"  stroke="#ffe100" />
<line x1="301.813" y1="167.891" x2="317.287" y2="167.65"  stroke="#ffe100" />
<line x1="299.905" y1="168.066" x2="301.813" y2="167.891"  stroke="#ffe100" />
<line x1="278.799" y1="167.725" x2="299.905" y2="168.066"  stroke="#ffe100" />
<line x1="271.242" y1="169.556" x2="278.799" y2="167.725"  stroke="#ffe100" />
<line x1="253.706" y1="171.736" x2="271.242" y2="169.556"  stroke="#ffe100" />
<line x1="-3209.8" y1="1432.35" x2="253.706" y2="171.736"  stroke="#ffe100" />
</g>
<g><title>ray</title>
<line x1="329.986" y1="160.919" x2="336.455" y2="157.513"  stroke="#ff0000" />
<line x1="317.325" y1="167.585" x2="329.986" y2="160.919"  stroke="#ff0000" />
<line x1="301.818" y1="167.845" x2="317.325" y2="167.585"  stroke="#ff0000" />
<line x1="299.913" y1="168.022" x2="301.818" y2="167.845"  stroke="#ff0000" />
<line x1="278.807" y1="167.703" x2="299.913" y2="168.022"  stroke="#ff0000" />
<line x1="271.242" y1="169.541" x2="278.807" y2="167.703"  stroke="#ff0000" />
<line x1="253.706" y1="171.736" x2="271.242" y2="169.541"  stroke="#ff0000" />
<line x1="-3209.8" y1="1432.35" x2="253.706" y2="171.736"  stroke="#ff0000" />
</g>
<g><title>ray</title>
<line x1="329.986" y1="161.049" x2="336.52" y2="157.601"  stroke="#00ebff" />
<line x1="317.199" y1="167.799" x2="329.986" y2="161.049"  stroke="#00ebff" />
<line x1="301.802" y1="167.997" x2="317.199" y2="167.799"  stroke="#00ebff" />
<line x1="299.888" y1="168.167" x2="301.802" y2="167.997"  stroke="#00ebff" />
<line x1="278.781" y1="167.775" x2="299.888" y2="168.167"  stroke="#00ebff" />
<line x1="271.242" y1="169.588" x2="278.781" y2="167.775"  stroke="#00ebff" />
<line x1="253.706" y1="171.736" x2="271.242" y2="169.588"  stroke="#00ebff" />
<line x1="-3209.8" y1="1432.35" x2="253.706" y2="171.736"  stroke="#00ebff" />
</g>
<g><title>ray</title>
<line x1="411.203" y1="163.427" x2="548.222" y2="134.357"  stroke="#ffe100" />
<line x1="400.044" y1="165.55" x2="411.203" y2="163.427"  stroke="#ffe100" />
<line x1="394.999" y1="167.474" x2="400.044" y2="165.55"  stroke="#ffe100" />
<line x1="383.104" y1="171.256" x2="394.999" y2="167.474"  stroke="#ffe100" />
<line x1="380.773" y1="172.577" x2="383.104" y2="171.256"  stroke="#ffe100" />
<line x1="361.137" y1="180.358" x2="380.773" y2="172.577"  stroke="#ffe100" />
<line x1="348.895" y1="185.239" x2="361.137" y2="180.358"  stroke="#ffe100" />
<line x1="329.986" y1="196.032" x2="348.895" y2="185.239"  stroke="#ffe100" />
<line x1="308.947" y1="208.041" x2="329.986" y2="196.032"  stroke="#ffe100" />
<line x1="300.356" y1="211.307" x2="308.947" y2="208.041"  stroke="#ffe100" />
<line x1="297.662" y1="213.101" x2="300.356" y2="211.307"  stroke="#ffe100" />
<line x1="275.601" y1="221.548" x2="297.662" y2="213.101"  stroke="#ffe100" />
<line x1="271.16" y1="223.754" x2="275.601" y2="221.548"  stroke="#ffe100" />
<line x1="253.706" y1="228.264" x2="271.16" y2="223.754"  stroke="#ffe100" />
<line x1="-3191.63" y1="1482.26" x2="253.706" y2="228.264"  stroke="#ffe100" />
</g>
<g><title>ray</title>
<line x1="411.216" y1="163.509" x2="548.222" y2="134.339"  stroke="#ff0000" />
<line x1="400.04" y1="165.639" x2="411.216" y2="163.509"  stroke="#ff0000" />
<line x1="395.017" y1="167.551" x2="400.04" y2="165.639"  stroke="#ff0000" />
<line x1="383.109" y1="171.333" x2="395.017" y2="167.551"  stroke="#ff0000" />
<line x1="380.786" y1="172.642" x2="383.109" y2="171.333"  stroke="#ff0000" />
<line x1="361.136" y1="180.413" x2="380.786" y2="172.642"  stroke="#ff0000" />
<line x1="348.905" y1="185.289" x2="361.136" y2="180.413"  stroke="#ff0000" />
<line x1="329.986" y1="196.063" x2="348.905" y2="185.289"  stroke="#ff0000" />
<line x1="308.948" y1="208.045" x2="329.986" y2="196.063"  stroke="#ff0000" />
<line x1="300.357" y1="211.314" x2="308.948" y2="208.045"  stroke="#ff0000" />
<line x1="297.662" y1="213.102" x2="300.357" y2="211.314"  stroke="#ff0000" />
<line x1="275.601" y1="221.546" x2="297.662" y2="213.102"  stroke="#ff0000" />
<line x1="271.16" y1="223.748" x2="275.601" y2="221.546"  stroke="#ff0000" />
<line x1="253.706" y1="228.264" x2="271.16" y2="223.748"  stroke="#ff0000" />
<line x1="-3191.63" y1="1482.26" x2="253.706" y2="228.264"  stroke="#ff0000" />
</g>
<g><title>ray</title>
<line x1="411.172" y1="163.236" x2="548.222" y2="134.38"  stroke="#00ebff" />
<line x1="400.054" y1="165.343" x2="411.172" y2="163.236"  stroke="#00ebff" />
<line x1="394.955" y1="167.295" x2="400.054" y2="165.343"  stroke="#00ebff" />
<line x1="383.093" y1="171.077" x2="394.955" y2="167.295"  stroke="#00ebff" />
<line x1="380.74" y1="172.425" x2="383.093" y2="171.077"  stroke="#00ebff" />
<line x1="361.14" y1="180.235" x2="380.74" y2="172.425"  stroke="#00ebff" />
<line x1="348.87" y1="185.124" x2="361.14" y2="180.235"  stroke="#00ebff" />
<line x1="329.986" y1="195.959" x2="348.87" y2="185.124"  stroke="#00ebff" />
<line x1="308.946" y1="208.03" x2="329.986" y2="195.959"  stroke="#00ebff" />
<line x1="300.356" y1="211.29" x2="308.946" y2="208.03"  stroke="#00ebff" />
<line x1="297.662" y1="213.098" x2="300.356" y2="211.29"  stroke="#00ebff" />
<line x1="275.602" y1="221.553" x2="297.662" y2="213.098"  stroke="#00ebff" />
<line x1="271.16" y1="223.769" x2="275.602" y2="221.553"  stroke="#00ebff" />
<line x1="253.706" y1="228.264" x2="271.16" y2="223.769"  stroke="#00ebff" />
<line x1="-3191.63" y1="1482.26" x2="253.706" y2="228.264"  stroke="#00ebff" />
</g>
<g><title>ray</title>
<line x1="338.563" y1="160.529" x2="362.49" y2="146.802"  stroke="#ffe100" />
<line x1="329.986" y1="164.89" x2="338.563" y2="160.529"  stroke="#ffe100" />
<line x1="314.59" y1="172.72" x2="329.986" y2="164.89"  stroke="#ffe100" />
<line x1="301.276" y1="173.569" x2="314.59" y2="172.72"  stroke="#ffe100" />
<line x1="299.002" y1="173.934" x2="301.276" y2="173.569"  stroke="#ffe100" />
<line x1="276.551" y1="174.742" x2="299.002" y2="173.934"  stroke="#ffe100" />
<line x1="271.16" y1="176.213" x2="276.551" y2="174.742"  stroke="#ffe100" />
<line x1="252.86" y1="178.802" x2="271.16" y2="176.213"  stroke="#ffe100" />
<line x1="-3207.63" y1="1438.32" x2="252.86" y2="178.802"  stroke="#ffe100" />
</g>
<g><title>ray</title>
<line x1="338.547" y1="160.506" x2="362.492" y2="146.78"  stroke="#ff0000" />
<line x1="329.986" y1="164.855" x2="338.547" y2="160.506"  stroke="#ff0000" />
<line x1="314.616" y1="172.664" x2="329.986" y2="164.855"  stroke="#ff0000" />
<line x1="301.28" y1="173.529" x2="314.616" y2="172.664"  stroke="#ff0000" />
<line x1="299.007" y1="173.895" x2="301.28" y2="173.529"  stroke="#ff0000" />
<line x1="276.556" y1="174.724" x2="299.007" y2="173.895"  stroke="#ff0000" />
<line x1="271.16" y1="176.199" x2="276.556" y2="174.724"  stroke="#ff0000" />
<line x1="252.86" y1="178.802" x2="271.16" y2="176.199"  stroke="#ff0000" />
<line x1="-3207.63" y1="1438.32" x2="252.86" y2="178.802"  stroke="#ff0000" />
</g>
<g><title>ray</title>
<line x1="338.595" y1="160.578" x2="362.488" y2="146.84"  stroke="#00ebff" />
<line x1="329.986" y1="164.968" x2="338.595" y2="160.578"  stroke="#00ebff" />
<line x1="314.528" y1="172.851" x2="329.986" y2="164.968"  stroke="#00ebff" />
<line x1="301.268" y1="173.664" x2="314.528" y2="172.851"  stroke="#00ebff" />
<line x1="298.99" y1="174.023" x2="301.268" y2="173.664"  stroke="#00ebff" />
<line x1="276.539" y1="174.784" x2="298.99" y2="174.023"  stroke="#00ebff" />
<line x1="271.16" y1="176.245" x2="276.539" y2="174.784"  stroke="#00ebff" />
<line x1="252.86" y1="178.802" x2="271.16" y2="176.245"  stroke="#00ebff" />
<line x1="-3207.63" y1="1438.32" x2="252.86" y2="178.802"  stroke="#00ebff" />
</g>
<g><title>ray</title>
<line x1="410.367" y1="158.534" x2="548.222" y2="134.379"  stroke="#ffe100" />
<line x1="400.31" y1="160.325" x2="410.367" y2="158.534"  stroke="#ffe100" />
<line x1="393.755" y1="162.709" x2="400.31" y2="160.325"  stroke="#ffe100" />
<line x1="382.768" y1="166.29" x2="393.755" y2="162.709"  stroke="#ffe100" />
<line x1="379.724" y1="168.031" x2="382.768" y2="166.29"  stroke="#ffe100" />
<line x1="361.249" y1="175.75" x2="379.724" y2="168.031"  stroke="#ffe100" />
<line x1="347.957" y1="181.338" x2="361.249" y2="175.75"  stroke="#ffe100" />
<line x1="329.986" y1="191.29" x2="347.957" y2="181.338"  stroke="#ffe100" />
<line x1="308.516" y1="203.179" x2="329.986" y2="191.29"  stroke="#ffe100" />
<line x1="300.208" y1="205.964" x2="308.516" y2="203.179"  stroke="#ffe100" />
<line x1="297.364" y1="207.628" x2="300.208" y2="205.964"  stroke="#ffe100" />
<line x1="274.354" y1="215.283" x2="297.364" y2="207.628"  stroke="#ffe100" />
<line x1="271.096" y1="216.79" x2="274.354" y2="215.283"  stroke="#ffe100" />
<line x1="252.86" y1="221.198" x2="271.096" y2="216.79"  stroke="#ffe100" />
<line x1="-3194" y1="1475.75" x2="252.86" y2="221.198"  stroke="#ffe100" />
</g>
<g><title>ray</title>
<line x1="410.38" y1="158.609" x2="548.222" y2="134.351"  stroke="#ff0000" />
<line x1="400.306" y1="160.405" x2="410.38" y2="158.609"  stroke="#ff0000" />
<line x1="393.774" y1="162.776" x2="400.306" y2="160.405"  stroke="#ff0000" />
<line x1="382.773" y1="166.357" x2="393.774" y2="162.776"  stroke="#ff0000" />
<line x1="379.737" y1="168.085" x2="382.773" y2="166.357"  stroke="#ff0000" />
<line x1="361.248" y1="175.791" x2="379.737" y2="168.085"  stroke="#ff0000" />
<line x1="347.967" y1="181.373" x2="361.248" y2="175.791"  stroke="#ff0000" />
<line x1="329.986" y1="191.309" x2="347.967" y2="181.373"  stroke="#ff0000" />
<line x1="308.516" y1="203.174" x2="329.986" y2="191.309"  stroke="#ff0000" />
<line x1="300.208" y1="205.962" x2="308.516" y2="203.174"  stroke="#ff0000" />
<line x1="297.364" y1="207.622" x2="300.208" y2="205.962"  stroke="#ff0000" />
<line x1="274.353" y1="215.278" x2="297.364" y2="207.622"  stroke="#ff0000" />
<line x1="271.096" y1="216.783" x2="274.353" y2="215.278"  stroke="#ff0000" />
<line x1="252.86" y1="221.198" x2="271.096" y2="216.783"  stroke="#ff0000" />
<line x1="-3194" y1="1475.75" x2="252.86" y2="221.198"  stroke="#ff0000" />
</g>
<g><title>ray</title>
<line x1="410.334" y1="158.355" x2="548.222" y2="134.417"  stroke="#00ebff" />
<line x1="400.321" y1="160.132" x2="410.334" y2="158.355"  stroke="#00ebff" />
<line x1="393.71" y1="162.548" x2="400.321" y2="160.132"  stroke="#00ebff" />
<line x1="382.757" y1="166.131" x2="393.71" y2="162.548"  stroke="#00ebff" />
<line x1="379.693" y1="167.905" x2="382.757" y2="166.131"  stroke="#00ebff" />
<line x1="361.252" y1="175.657" x2="379.693" y2="167.905"  stroke="#00ebff" />
<line x1="347.935" y1="181.256" x2="361.252" y2="175.657"  stroke="#00ebff" />
<line x1="329.986" y1="191.244" x2="347.935" y2="181.256"  stroke="#00ebff" />
<line x1="308.516" y1="203.191" x2="329.986" y2="191.244"  stroke="#00ebff" />
<line x1="300.208" y1="205.967" x2="308.516" y2="203.191"  stroke="#00ebff" />
<line x1="297.364" y1="207.641" x2="300.208" y2="205.967"  stroke="#00ebff" />
<line x1="274.356" y1="215.295" x2="297.364" y2="207.641"  stroke="#00ebff" />
<line x1="271.096" y1="216.808" x2="274.356" y2="215.295"  stroke="#00ebff" />
<line x1="252.86" y1="221.198" x2="271.096" y2="216.808"  stroke="#00ebff" />
<line x1="-3194" y1="1475.75" x2="252.86" y2="221.198"  stroke="#00ebff" />
</g>
<g><title>ray</title>
<line x1="362.2" y1="151.982" x2="372.351" y2="146.535"  stroke="#ffe100" />
<line x1="340.537" y1="163.69" x2="362.2" y2="151.982"  stroke="#ffe100" />
<line x1="329.986" y1="169.001" x2="340.537" y2="163.69"  stroke="#ffe100" />
<line x1="312.425" y1="177.84" x2="329.986" y2="169.001"  stroke="#ffe100" />
<line x1="300.853" y1="179.12" x2="312.425" y2="177.84"  stroke="#ffe100" />
<line x1="298.295" y1="179.704" x2="300.853" y2="179.12"  stroke="#ffe100" />
<line x1="274.893" y1="181.732" x2="298.295" y2="179.704"  stroke="#ffe100" />
<line x1="271.098" y1="182.884" x2="274.893" y2="181.732"  stroke="#ffe100" />
<line x1="252.259" y1="185.868" x2="271.098" y2="182.884"  stroke="#ffe100" />
<line x1="-3205.43" y1="1444.36" x2="252.259" y2="185.868"  stroke="#ffe100" />
</g>
<g><title>ray</title>
<line x1="362.201" y1="151.97" x2="372.353" y2="146.54"  stroke="#ff0000" />
<line x1="340.527" y1="163.673" x2="362.201" y2="151.97"  stroke="#ff0000" />
<line x1="329.986" y1="168.972" x2="340.527" y2="163.673"  stroke="#ff0000" />
<line x1="312.443" y1="177.792" x2="329.986" y2="168.972"  stroke="#ff0000" />
<line x1="300.855" y1="179.084" x2="312.443" y2="177.792"  stroke="#ff0000" />
<line x1="298.299" y1="179.67" x2="300.855" y2="179.084"  stroke="#ff0000" />
<line x1="274.896" y1="181.716" x2="298.299" y2="179.67"  stroke="#ff0000" />
<line x1="271.098" y1="182.87" x2="274.896" y2="181.716"  stroke="#ff0000" />
<line x1="252.259" y1="185.868" x2="271.098" y2="182.87"  stroke="#ff0000" />
<line x1="-3205.43" y1="1444.36" x2="252.259" y2="185.868"  stroke="#ff0000" />
</g>
<g><title>ray</title>
<line x1="362.199" y1="152.005" x2="372.341" y2="146.513"  stroke="#00ebff" />
<line x1="340.557" y1="163.725" x2="362.199" y2="152.005"  stroke="#00ebff" />
<line x1="329.986" y1="169.063" x2="340.557" y2="163.725"  stroke="#00ebff" />
<line x1="312.384" y1="177.952" x2="329.986" y2="169.063"  stroke="#00ebff" />
<line x1="300.847" y1="179.202" x2="312.384" y2="177.952"  stroke="#00ebff" />
<line x1="298.287" y1="179.782" x2="300.847" y2="179.202"  stroke="#00ebff" />
<line x1="274.886" y1="181.768" x2="298.287" y2="179.782"  stroke="#00ebff" />
<line x1="271.098" y1="182.914" x2="274.886" y2="181.768"  stroke="#00ebff" />
<line x1="252.259" y1="185.868" x2="271.098" y2="182.914"  stroke="#00ebff" />
<line x1="-3205.43" y1="1444.36" x2="252.259" y2="185.868"  stroke="#00ebff" />
</g>
<g><title>ray</title>
<line x1="409.44" y1="153.731" x2="548.222" y2="134.388"  stroke="#ffe100" />
<line x1="400.608" y1="155.198" x2="409.44" y2="153.731"  stroke="#ffe100" />
<line x1="392.363" y1="158.056" x2="400.608" y2="155.198"  stroke="#ffe100" />
<line x1="382.384" y1="161.388" x2="392.363" y2="158.056"  stroke="#ffe100" />
<line x1="378.539" y1="163.607" x2="382.384" y2="161.388"  stroke="#ffe100" />
<line x1="361.385" y1="171.141" x2="378.539" y2="163.607"  stroke="#ffe100" />
<line x1="346.828" y1="177.573" x2="361.385" y2="171.141"  stroke="#ffe100" />
<line x1="329.986" y1="186.638" x2="346.828" y2="177.573"  stroke="#ffe100" />
<line x1="308.461" y1="198.224" x2="329.986" y2="186.638"  stroke="#ffe100" />
<line x1="300.151" y1="200.638" x2="308.461" y2="198.224"  stroke="#ffe100" />
<line x1="297.223" y1="202.128" x2="300.151" y2="200.638"  stroke="#ffe100" />
<line x1="273.523" y1="208.841" x2="297.223" y2="202.128"  stroke="#ffe100" />
<line x1="271.054" y1="209.901" x2="273.523" y2="208.841"  stroke="#ffe100" />
<line x1="252.259" y1="214.132" x2="271.054" y2="209.901"  stroke="#ffe100" />
<line x1="-3196.34" y1="1469.32" x2="252.259" y2="214.132"  stroke="#ffe100" />
</g>
<g><title>ray</title>
<line x1="409.454" y1="153.799" x2="548.222" y2="134.35"  stroke="#ff0000" />
<line x1="400.604" y1="155.272" x2="409.454" y2="153.799"  stroke="#ff0000" />
<line x1="392.382" y1="158.115" x2="400.604" y2="155.272"  stroke="#ff0000" />
<line x1="382.389" y1="161.447" x2="392.382" y2="158.115"  stroke="#ff0000" />
<line x1="378.551" y1="163.65" x2="382.389" y2="161.447"  stroke="#ff0000" />
<line x1="361.384" y1="171.169" x2="378.551" y2="163.65"  stroke="#ff0000" />
<line x1="346.836" y1="177.595" x2="361.384" y2="171.169"  stroke="#ff0000" />
<line x1="329.986" y1="186.647" x2="346.836" y2="177.595"  stroke="#ff0000" />
<line x1="308.461" y1="198.21" x2="329.986" y2="186.647"  stroke="#ff0000" />
<line x1="300.151" y1="200.628" x2="308.461" y2="198.21"  stroke="#ff0000" />
<line x1="297.223" y1="202.115" x2="300.151" y2="200.628"  stroke="#ff0000" />
<line x1="273.522" y1="208.833" x2="297.223" y2="202.115"  stroke="#ff0000" />
<line x1="271.054" y1="209.892" x2="273.522" y2="208.833"  stroke="#ff0000" />
<line x1="252.259" y1="214.132" x2="271.054" y2="209.892"  stroke="#ff0000" />
<line x1="-3196.34" y1="1469.32" x2="252.259" y2="214.132"  stroke="#ff0000" />
</g>
<g><title>ray</title>
<line x1="409.405" y1="153.561" x2="548.222" y2="134.441"  stroke="#00ebff" />
<line x1="400.619" y1="155.017" x2="409.405" y2="153.561"  stroke="#00ebff" />
<line x1="392.316" y1="157.91" x2="400.619" y2="155.017"  stroke="#00ebff" />
<line x1="382.372" y1="161.246" x2="392.316" y2="157.91"  stroke="#00ebff" />
<line x1="378.51" y1="163.505" x2="382.372" y2="161.246"  stroke="#00ebff" />
<line x1="361.387" y1="171.075" x2="378.51" y2="163.505"  stroke="#00ebff" />
<line x1="346.811" y1="177.52" x2="361.387" y2="171.075"  stroke="#00ebff" />
<line x1="329.986" y1="186.617" x2="346.811" y2="177.52"  stroke="#00ebff" />
<line x1="308.46" y1="198.256" x2="329.986" y2="186.617"  stroke="#00ebff" />
<line x1="300.151" y1="200.66" x2="308.46" y2="198.256"  stroke="#00ebff" />
<line x1="297.223" y1="202.156" x2="300.151" y2="200.66"  stroke="#00ebff" />
<line x1="273.524" y1="208.859" x2="297.223" y2="202.156"  stroke="#00ebff" />
<line x1="271.054" y1="209.922" x2="273.524" y2="208.859"  stroke="#00ebff" />
<line x1="252.259" y1="214.132" x2="271.054" y2="209.922"  stroke="#00ebff" />
<line x1="-3196.34" y1="1469.32" x2="252.259" y2="214.132"  stroke="#00ebff" />
</g>
<g><title>ray</title>
<line x1="380.915" y1="146.675" x2="387.205" y2="144.398"  stroke="#ffe100" />
<line x1="374.133" y1="150.759" x2="380.915" y2="146.675"  stroke="#ffe100" />
<line x1="361.949" y1="156.957" x2="374.133" y2="150.759"  stroke="#ffe100" />
<line x1="342.363" y1="166.987" x2="361.949" y2="156.957"  stroke="#ffe100" />
<line x1="329.986" y1="173.249" x2="342.363" y2="166.987"  stroke="#ffe100" />
<line x1="310.759" y1="182.977" x2="329.986" y2="173.249"  stroke="#ffe100" />
<line x1="300.534" y1="184.575" x2="310.759" y2="182.977"  stroke="#ffe100" />
<line x1="297.772" y1="185.394" x2="300.534" y2="184.575"  stroke="#ffe100" />
<line x1="273.791" y1="188.663" x2="297.772" y2="185.394"  stroke="#ffe100" />
<line x1="271.056" y1="189.578" x2="273.791" y2="188.663"  stroke="#ffe100" />
<line x1="251.898" y1="192.934" x2="271.056" y2="189.578"  stroke="#ffe100" />
<line x1="-3203.2" y1="1450.49" x2="251.898" y2="192.934"  stroke="#ffe100" />
</g>
<g><title>ray</title>
<line x1="380.919" y1="146.716" x2="387.223" y2="144.439"  stroke="#ff0000" />
<line x1="374.138" y1="150.773" x2="380.919" y2="146.716"  stroke="#ff0000" />
<line x1="361.949" y1="156.953" x2="374.138" y2="150.773"  stroke="#ff0000" />
<line x1="342.359" y1="166.978" x2="361.949" y2="156.953"  stroke="#ff0000" />
<line x1="329.986" y1="173.229" x2="342.359" y2="166.978"  stroke="#ff0000" />
<line x1="310.77" y1="182.937" x2="329.986" y2="173.229"  stroke="#ff0000" />
<line x1="300.535" y1="184.546" x2="310.77" y2="182.937"  stroke="#ff0000" />
<line x1="297.774" y1="185.365" x2="300.535" y2="184.546"  stroke="#ff0000" />
<line x1="273.793" y1="188.649" x2="297.774" y2="185.365"  stroke="#ff0000" />
<line x1="271.056" y1="189.565" x2="273.793" y2="188.649"  stroke="#ff0000" />
<line x1="251.898" y1="192.934" x2="271.056" y2="189.565"  stroke="#ff0000" />
<line x1="-3203.2" y1="1450.49" x2="251.898" y2="192.934"  stroke="#ff0000" />
</g>
<g><title>ray</title>
<line x1="380.902" y1="146.565" x2="387.155" y2="144.285"  stroke="#00ebff" />
<line x1="374.116" y1="150.718" x2="380.902" y2="146.565"  stroke="#00ebff" />
<line x1="361.949" y1="156.961" x2="374.116" y2="150.718"  stroke="#00ebff" />
<line x1="342.372" y1="167.005" x2="361.949" y2="156.961"  stroke="#00ebff" />
<line x1="329.986" y1="173.294" x2="342.372" y2="167.005"  stroke="#00ebff" />
<line x1="310.733" y1="183.07" x2="329.986" y2="173.294"  stroke="#00ebff" />
<line x1="300.53" y1="184.644" x2="310.733" y2="183.07"  stroke="#00ebff" />
<line x1="297.767" y1="185.46" x2="300.53" y2="184.644"  stroke="#00ebff" />
<line x1="273.788" y1="188.694" x2="297.767" y2="185.46"  stroke="#00ebff" />
<line x1="271.056" y1="189.606" x2="273.788" y2="188.694"  stroke="#00ebff" />
<line x1="251.898" y1="192.934" x2="271.056" y2="189.606"  stroke="#00ebff" />
<line x1="-3203.2" y1="1450.49" x2="251.898" y2="192.934"  stroke="#00ebff" />
</g>
<g><title>ray</title>
<line x1="408.418" y1="148.975" x2="548.222" y2="134.36"  stroke="#ffe100" />
<line x1="400.938" y1="150.133" x2="408.418" y2="148.975"  stroke="#ffe100" />
<line x1="390.816" y1="153.477" x2="400.938" y2="150.133"  stroke="#ffe100" />
<line x1="381.95" y1="156.512" x2="390.816" y2="153.477"  stroke="#ffe100" />
<line x1="377.216" y1="159.272" x2="381.95" y2="156.512"  stroke="#ffe100" />
<line x1="361.545" y1="166.495" x2="377.216" y2="159.272"  stroke="#ffe100" />
<line x1="345.516" y1="173.931" x2="361.545" y2="166.495"  stroke="#ffe100" />
<line x1="329.986" y1="182.078" x2="345.516" y2="173.931"  stroke="#ffe100" />
<line x1="308.802" y1="193.191" x2="329.986" y2="182.078"  stroke="#ffe100" />
<line x1="300.186" y1="195.311" x2="308.802" y2="193.191"  stroke="#ffe100" />
<line x1="297.242" y1="196.594" x2="300.186" y2="195.311"  stroke="#ffe100" />
<line x1="273.134" y1="202.242" x2="297.242" y2="196.594"  stroke="#ffe100" />
<line x1="271.034" y1="203.076" x2="273.134" y2="202.242"  stroke="#ffe100" />
<line x1="251.898" y1="207.066" x2="271.034" y2="203.076"  stroke="#ffe100" />
<line x1="-3198.66" y1="1462.97" x2="251.898" y2="207.066"  stroke="#ffe100" />
</g>
<g><title>ray</title>
<line x1="408.432" y1="149.039" x2="548.222" y2="134.311"  stroke="#ff0000" />
<line x1="400.934" y1="150.201" x2="408.432" y2="149.039"  stroke="#ff0000" />
<line x1="390.835" y1="153.529" x2="400.934" y2="150.201"  stroke="#ff0000" />
<line x1="381.954" y1="156.563" x2="390.835" y2="153.529"  stroke="#ff0000" />
<line x1="377.227" y1="159.304" x2="381.954" y2="156.563"  stroke="#ff0000" />
<line x1="361.544" y1="166.512" x2="377.227" y2="159.304"  stroke="#ff0000" />
<line x1="345.52" y1="173.942" x2="361.544" y2="166.512"  stroke="#ff0000" />
<line x1="329.986" y1="182.076" x2="345.52" y2="173.942"  stroke="#ff0000" />
<line x1="308.804" y1="193.169" x2="329.986" y2="182.076"  stroke="#ff0000" />
<line x1="300.186" y1="195.294" x2="308.804" y2="193.169"  stroke="#ff0000" />
<line x1="297.242" y1="196.576" x2="300.186" y2="195.294"  stroke="#ff0000" />
<line x1="273.134" y1="202.232" x2="297.242" y2="196.576"  stroke="#ff0000" />
<line x1="271.034" y1="203.066" x2="273.134" y2="202.232"  stroke="#ff0000" />
<line x1="251.898" y1="207.066" x2="271.034" y2="203.066"  stroke="#ff0000" />
<line x1="-3198.66" y1="1462.97" x2="251.898" y2="207.066"  stroke="#ff0000" />
</g>
<g><title>ray</title>
<line x1="408.381" y1="148.812" x2="548.222" y2="134.429"  stroke="#00ebff" />
<line x1="400.95" y1="149.96" x2="408.381" y2="148.812"  stroke="#00ebff" />
<line x1="390.769" y1="153.345" x2="400.95" y2="149.96"  stroke="#00ebff" />
<line x1="381.937" y1="156.383" x2="390.769" y2="153.345"  stroke="#00ebff" />
<line x1="377.19" y1="159.192" x2="381.937" y2="156.383"  stroke="#00ebff" />
<line x1="361.546" y1="166.456" x2="377.19" y2="159.192"  stroke="#00ebff" />
<line x1="345.506" y1="173.904" x2="361.546" y2="166.456"  stroke="#00ebff" />
<line x1="329.986" y1="182.081" x2="345.506" y2="173.904"  stroke="#00ebff" />
<line x1="308.796" y1="193.245" x2="329.986" y2="182.081"  stroke="#00ebff" />
<line x1="300.185" y1="195.35" x2="308.796" y2="193.245"  stroke="#00ebff" />
<line x1="297.241" y1="196.636" x2="300.185" y2="195.35"  stroke="#00ebff" />
<line x1="273.135" y1="202.264" x2="297.241" y2="196.636"  stroke="#00ebff" />
<line x1="271.034" y1="203.1" x2="273.135" y2="202.264"  stroke="#00ebff" />
<line x1="251.898" y1="207.066" x2="271.034" y2="203.1"  stroke="#00ebff" />
<line x1="-3198.66" y1="1462.97" x2="251.898" y2="207.066"  stroke="#00ebff" />
</g>
</g>
</svg>
