<?xml version="1.0" standalone="no"?>
<svg width="640px" height="480px" version="1.1" xmlns="http://www.w3.org/2000/svg" xmlns:xlink="http://www.w3.org/1999/xlink">
<rect x="0" y="0" width="640" height="480"  fill="#ffffff" />
<defs>
<g id="dot">
<line x1="1" y1="1" x2="0" y2="0"  />
</g>
<g id="cross">
<line x1="-3" y1="0" x2="3" y2="0"  />
<line x1="0" y1="-3" x2="0" y2="3"  />
</g>
<g id="square">
<line x1="-3" y1="-3" x2="-3" y2="3"  />
<line x1="-3" y1="3" x2="3" y2="3"  />
<line x1="3" y1="3" x2="3" y2="-3"  />
<line x1="3" y1="-3" x2="-3" y2="-3"  />
</g>
<g id="round">
<ellipse cx="0" cy="0" rx="3" ry="3"  fill="none" /></g>
<g id="triangle">
<line x1="0" y1="-3" x2="-3" y2="3"  />
<line x1="-3" y1="3" x2="3" y2="3"  />
<line x1="0" y1="-3" x2="3" y2="3"  />
</g>
</defs>
<polygon fill="none" stroke="#000000" points="66.0317,430.476 66.0317,49.5238 573.968,49.5238 573.968,430.476 " />
<text style="font-size:12;text-align:center;text-anchor:middle;" x="320" y="473.619" fill="#000000">Entrance ray height (normalized)</text>
<use x="66.0317" y="49.5238" xlink:href="#cross"  stroke="#000000" />
<use x="66.0317" y="430.476" xlink:href="#cross"  stroke="#000000" />
<text style="font-size:12;text-align:center;text-anchor:middle;" x="66.0317" y="448.476" fill="#000000">-1</text>
<use x="320" y="49.5238" xlink:href="#cross"  stroke="#000000" />
<use x="320" y="430.476" xlink:href="#cross"  stroke="#000000" />
<text style="font-size:12;text-align:center;text-anchor:middle;" x="320" y="448.476" fill="#000000">0</text>
<use x="573.968" y="49.5238" xlink:href="#cross"  stroke="#000000" />
<use x="573.968" y="430.476" xlink:href="#cross"  stroke="#000000" />
<text style="font-size:12;text-align:center;text-anchor:middle;" x="573.968" y="448.476" fill="#000000">1</text>
<text style="font-size:12;text-align:center;text-anchor:middle;" x="16.5079" y="246" transform="rotate(-90,16.5079,240)" fill="#000000">Optical path difference (waves)</text>
<line x1="320" y1="430.476" x2="320" y2="49.5238"  stroke="#000000" />
<use x="320" y="415.282" xlink:href="#cross"  stroke="#000000" />
<use x="573.968" y="415.282" xlink:href="#cross"  stroke="#000000" />
<use x="66.0317" y="415.282" xlink:href="#cross"  stroke="#000000" />
<text style="font-size:12;text-align:right;text-anchor:end;" x="60.0317" y="421.282" fill="#000000">-25</text>
<use x="320" y="342.13" xlink:href="#cross"  stroke="#000000" />
<use x="573.968" y="342.13" xlink:href="#cross"  stroke="#000000" />
<use x="66.0317" y="342.13" xlink:href="#cross"  stroke="#000000" />
<text style="font-size:12;text-align:right;text-anchor:end;" x="60.0317" y="348.13" fill="#000000">-20</text>
<use x="320" y="268.978" xlink:href="#cross"  stroke="#000000" />
<use x="573.968" y="268.978" xlink:href="#cross"  stroke="#000000" />
<use x="66.0317" y="268.978" xlink:href="#cross"  stroke="#000000" />
<text style="font-size:12;text-align:right;text-anchor:end;" x="60.0317" y="274.978" fill="#000000">-15</text>
<use x="320" y="195.827" xlink:href="#cross"  stroke="#000000" />
<use x="573.968" y="195.827" xlink:href="#cross"  stroke="#000000" />
<use x="66.0317" y="195.827" xlink:href="#cross"  stroke="#000000" />
<text style="font-size:12;text-align:right;text-anchor:end;" x="60.0317" y="201.827" fill="#000000">-10</text>
<use x="320" y="122.675" xlink:href="#cross"  stroke="#000000" />
<use x="573.968" y="122.675" xlink:href="#cross"  stroke="#000000" />
<use x="66.0317" y="122.675" xlink:href="#cross"  stroke="#000000" />
<text style="font-size:12;text-align:right;text-anchor:end;" x="60.0317" y="128.675" fill="#000000">-5</text>
<use x="320" y="49.5238" xlink:href="#cross"  stroke="#000000" />
<use x="573.968" y="49.5238" xlink:href="#cross"  stroke="#000000" />
<use x="66.0317" y="49.5238" xlink:href="#cross"  stroke="#000000" />
<text style="font-size:12;text-align:right;text-anchor:end;" x="60.0317" y="55.5238" fill="#000000">0</text>
<text style="font-size:18;text-align:center;text-anchor:middle;" x="320" y="33.7619" fill="#000000">Optical path difference fan (tangential)</text>
<path fill="none"  stroke="#00ebff" d="M100.114,419.216 S111.39,292.92 117.029,247.975 S128.305,174.215 133.943,149.548 S145.219,111.656 150.857,99.9721 S162.133,83.8495 167.771,79.4463 S179.048,74.6301 184.686,73.5531 S195.962,73.1457 201.6,72.9845 S212.876,73.0451 218.514,72.5861 S229.79,71.3667 235.429,70.2302 S246.705,67.4469 252.343,65.767 S263.619,61.9848 269.257,60.1506 S280.533,56.3012 286.171,54.7619 S297.448,51.7877 303.086,50.9147 S314.362,49.5238 320,49.5238 S331.276,50.0417 336.914,50.9147 S348.19,53.2226 353.829,54.7619 S365.105,58.3164 370.743,60.1506 S382.019,64.0871 387.657,65.767 S398.933,69.0937 404.571,70.2302 S415.848,72.127 421.486,72.5861 S432.762,72.8233 438.4,72.9845 S449.676,72.4762 455.314,73.5531 S466.59,75.0432 472.229,79.4463 S483.505,88.2885 489.143,99.9721 S500.419,124.881 506.057,149.548 S517.333,203.031 522.971,247.975 S537.067,390.676 539.886,419.216 " />
<path fill="none"  stroke="#ffe100" d="M100.114,397.72 S111.39,283.648 117.029,243.143 S128.305,176.937 133.943,154.689 S145.219,120.438 150.857,109.655 S162.133,94.4509 167.771,89.9866 S179.048,84.4997 184.686,82.8686 S195.962,81.0765 201.6,80.1997 S212.876,78.7432 218.514,77.6074 S229.79,75.0631 235.429,73.385 S246.705,69.6011 252.343,67.5393 S263.619,63.088 269.257,61.0143 S280.533,56.7682 286.171,55.0976 S297.448,51.9198 303.086,50.9908 S314.362,49.5238 320,49.5238 S331.276,50.0619 336.914,50.9908 S348.19,53.427 353.829,55.0976 S365.105,58.9407 370.743,61.0143 S382.019,65.4775 387.657,67.5393 S398.933,71.707 404.571,73.385 S415.848,76.4717 421.486,77.6074 S432.762,79.3228 438.4,80.1997 S449.676,81.2374 455.314,82.8686 S466.59,85.5222 472.229,89.9866 S483.505,98.8708 489.143,109.655 S500.419,132.441 506.057,154.689 S517.333,202.638 522.971,243.143 S537.067,371.957 539.886,397.72 " />
<path fill="none"  stroke="#ff0000" d="M100.114,430.476 S111.39,316.887 117.029,275.993 S128.305,208.454 133.943,185.115 S145.219,148.248 150.857,135.96 S162.133,117.494 167.771,111.388 S179.048,102.529 184.686,99.3276 S195.962,94.4268 201.6,92.1777 S212.876,88.0839 218.514,85.8327 S229.79,81.1993 235.429,78.6707 S246.705,73.3322 252.343,70.6609 S263.619,65.1235 269.257,62.643 S280.533,57.6928 286.171,55.778 S297.448,52.1965 303.086,51.1541 S314.362,49.5238 320,49.5238 S331.276,50.1117 336.914,51.1541 S348.19,53.8632 353.829,55.778 S365.105,60.1625 370.743,62.643 S382.019,67.9896 387.657,70.6609 S398.933,76.142 404.571,78.6707 S415.848,83.5815 421.486,85.8327 S432.762,89.9285 438.4,92.1777 S449.676,96.1259 455.314,99.3276 S466.59,105.283 472.229,111.388 S483.505,123.672 489.143,135.96 S500.419,161.776 506.057,185.115 S517.333,235.1 522.971,275.993 S537.067,404.729 539.886,430.476 " />
</svg>
