<?xml version="1.0" standalone="no"?>
<svg width="640px" height="480px" version="1.1" xmlns="http://www.w3.org/2000/svg" xmlns:xlink="http://www.w3.org/1999/xlink">
<rect x="0" y="0" width="640" height="480"  fill="#ffffff" />
<defs>
<g id="dot">
<line x1="1" y1="1" x2="0" y2="0"  />
</g>
<g id="cross">
<line x1="-3" y1="0" x2="3" y2="0"  />
<line x1="0" y1="-3" x2="0" y2="3"  />
</g>
<g id="square">
<line x1="-3" y1="-3" x2="-3" y2="3"  />
<line x1="-3" y1="3" x2="3" y2="3"  />
<line x1="3" y1="3" x2="3" y2="-3"  />
<line x1="3" y1="-3" x2="-3" y2="-3"  />
</g>
<g id="round">
<ellipse cx="0" cy="0" rx="3" ry="3"  fill="none" /></g>
<g id="triangle">
<line x1="0" y1="-3" x2="-3" y2="3"  />
<line x1="-3" y1="3" x2="3" y2="3"  />
<line x1="0" y1="-3" x2="3" y2="3"  />
</g>
</defs>
<polygon fill="none" stroke="#000000" points="66.0317,430.476 66.0317,49.5238 573.968,49.5238 573.968,430.476 " />
<text style="font-size:12;text-align:center;text-anchor:middle;" x="320" y="473.619" fill="#000000">Entrance ray height (normalized)</text>
<use x="66.0317" y="49.5238" xlink:href="#cross"  stroke="#000000" />
<use x="66.0317" y="430.476" xlink:href="#cross"  stroke="#000000" />
<text style="font-size:12;text-align:center;text-anchor:middle;" x="66.0317" y="448.476" fill="#000000">-1</text>
<use x="320" y="49.5238" xlink:href="#cross"  stroke="#000000" />
<use x="320" y="430.476" xlink:href="#cross"  stroke="#000000" />
<text style="font-size:12;text-align:center;text-anchor:middle;" x="320" y="448.476" fill="#000000">0</text>
<use x="573.968" y="49.5238" xlink:href="#cross"  stroke="#000000" />
<use x="573.968" y="430.476" xlink:href="#cross"  stroke="#000000" />
<text style="font-size:12;text-align:center;text-anchor:middle;" x="573.968" y="448.476" fill="#000000">1</text>
<text style="font-size:12;text-align:center;text-anchor:middle;" x="16.5079" y="246" transform="rotate(-90,16.5079,240)" fill="#000000">Longitudinal ray aberration (um)</text>
<line x1="320" y1="430.476" x2="320" y2="49.5238"  stroke="#000000" />
<use x="320" y="435.725" xlink:href="#cross"  stroke="#000000" />
<use x="573.968" y="435.725" xlink:href="#cross"  stroke="#000000" />
<use x="66.0317" y="435.725" xlink:href="#cross"  stroke="#000000" />
<text style="font-size:12;text-align:right;text-anchor:end;" x="60.0317" y="441.725" fill="#000000">60</text>
<use x="320" y="388.94" xlink:href="#cross"  stroke="#000000" />
<use x="573.968" y="388.94" xlink:href="#cross"  stroke="#000000" />
<use x="66.0317" y="388.94" xlink:href="#cross"  stroke="#000000" />
<text style="font-size:12;text-align:right;text-anchor:end;" x="60.0317" y="394.94" fill="#000000">80</text>
<use x="320" y="342.155" xlink:href="#cross"  stroke="#000000" />
<use x="573.968" y="342.155" xlink:href="#cross"  stroke="#000000" />
<use x="66.0317" y="342.155" xlink:href="#cross"  stroke="#000000" />
<text style="font-size:12;text-align:right;text-anchor:end;" x="60.0317" y="348.155" fill="#000000">100</text>
<use x="320" y="295.37" xlink:href="#cross"  stroke="#000000" />
<use x="573.968" y="295.37" xlink:href="#cross"  stroke="#000000" />
<use x="66.0317" y="295.37" xlink:href="#cross"  stroke="#000000" />
<text style="font-size:12;text-align:right;text-anchor:end;" x="60.0317" y="301.37" fill="#000000">120</text>
<use x="320" y="248.585" xlink:href="#cross"  stroke="#000000" />
<use x="573.968" y="248.585" xlink:href="#cross"  stroke="#000000" />
<use x="66.0317" y="248.585" xlink:href="#cross"  stroke="#000000" />
<text style="font-size:12;text-align:right;text-anchor:end;" x="60.0317" y="254.585" fill="#000000">140</text>
<use x="320" y="201.8" xlink:href="#cross"  stroke="#000000" />
<use x="573.968" y="201.8" xlink:href="#cross"  stroke="#000000" />
<use x="66.0317" y="201.8" xlink:href="#cross"  stroke="#000000" />
<text style="font-size:12;text-align:right;text-anchor:end;" x="60.0317" y="207.8" fill="#000000">160</text>
<use x="320" y="155.015" xlink:href="#cross"  stroke="#000000" />
<use x="573.968" y="155.015" xlink:href="#cross"  stroke="#000000" />
<use x="66.0317" y="155.015" xlink:href="#cross"  stroke="#000000" />
<text style="font-size:12;text-align:right;text-anchor:end;" x="60.0317" y="161.015" fill="#000000">180</text>
<use x="320" y="108.23" xlink:href="#cross"  stroke="#000000" />
<use x="573.968" y="108.23" xlink:href="#cross"  stroke="#000000" />
<use x="66.0317" y="108.23" xlink:href="#cross"  stroke="#000000" />
<text style="font-size:12;text-align:right;text-anchor:end;" x="60.0317" y="114.23" fill="#000000">200</text>
<use x="320" y="61.4453" xlink:href="#cross"  stroke="#000000" />
<use x="573.968" y="61.4453" xlink:href="#cross"  stroke="#000000" />
<use x="66.0317" y="61.4453" xlink:href="#cross"  stroke="#000000" />
<text style="font-size:12;text-align:right;text-anchor:end;" x="60.0317" y="67.4453" fill="#000000">220</text>
<text style="font-size:18;text-align:center;text-anchor:middle;" x="320" y="33.7619" fill="#000000">Longitudinal ray aberration fan (tangential)</text>
<path fill="none"  stroke="#00ebff" d="M100.114,229.251 S111.39,298.886 117.029,325.385 S128.305,372.229 133.943,388.245 S145.219,414.445 150.857,421.484 S162.133,430.53 167.771,430.476 S179.048,426.354 184.686,421.159 S195.962,407.809 201.6,399.306 S212.876,380.331 218.514,370.143 S229.79,348.676 235.429,338.177 S246.705,316.837 252.343,307.147 S263.619,288.042 269.257,280.033 S280.533,264.782 286.171,259.095 S294.629,248.109 303.086,245.912 S328.457,243.714 336.914,245.912 S348.19,253.408 353.829,259.095 S365.105,272.024 370.743,280.033 S382.019,297.456 387.657,307.147 S398.933,327.678 404.571,338.177 S415.848,359.955 421.486,370.143 S432.762,390.803 438.4,399.306 S449.676,415.964 455.314,421.159 S466.59,430.422 472.229,430.476 S483.505,428.522 489.143,421.484 S500.419,404.262 506.057,388.245 S517.333,351.884 522.971,325.385 S537.067,245.273 539.886,229.251 " />
<path fill="none"  stroke="#ffe100" d="M100.114,161.269 S111.39,235.436 117.029,263.164 S128.305,311.547 133.943,327.641 S145.219,353.364 150.857,359.728 S162.133,367.008 167.771,365.824 S179.048,359.184 184.686,352.622 S195.962,336.397 201.6,326.453 S212.876,304.54 218.514,292.953 S229.79,268.698 235.429,256.929 S246.705,233.106 252.343,222.338 S263.619,201.167 269.257,192.315 S280.533,175.494 286.171,169.23 S294.629,157.148 303.086,154.732 S328.457,152.315 336.914,154.732 S348.19,162.966 353.829,169.23 S365.105,183.464 370.743,192.315 S382.019,211.569 387.657,222.338 S398.933,245.16 404.571,256.929 S415.848,281.365 421.486,292.953 S432.762,316.508 438.4,326.453 S449.676,346.06 455.314,352.622 S466.59,364.64 472.229,365.824 S483.505,366.092 489.143,359.728 S500.419,343.735 506.057,327.641 S517.333,290.893 522.971,263.164 S537.067,178.252 539.886,161.269 " />
<path fill="none"  stroke="#ff0000" d="M100.114,49.5238 S111.39,128.395 117.029,157.854 S128.305,209.161 133.943,226.278 S145.219,253.664 150.857,260.555 S162.133,268.62 167.771,267.625 S179.048,261.178 184.686,254.585 S195.962,238.176 201.6,228.067 S212.876,205.75 218.514,193.931 S229.79,169.171 235.429,157.149 S246.705,132.806 252.343,121.8 S263.619,100.157 269.257,91.1081 S280.533,73.9091 286.171,67.5042 S294.629,55.1496 303.086,52.6787 S328.457,50.2078 336.914,52.6787 S348.19,61.0993 353.829,67.5042 S365.105,82.0589 370.743,91.1081 S382.019,110.793 387.657,121.8 S398.933,145.127 404.571,157.149 S415.848,182.111 421.486,193.931 S432.762,217.958 438.4,228.067 S449.676,247.992 455.314,254.585 S466.59,266.63 472.229,267.625 S483.505,267.446 489.143,260.555 S500.419,243.395 506.057,226.278 S517.333,187.313 522.971,157.854 S537.067,67.5788 539.886,49.5238 " />
</svg>
