<?xml version="1.0" standalone="no"?>
<svg width="640px" height="480px" version="1.1" xmlns="http://www.w3.org/2000/svg" xmlns:xlink="http://www.w3.org/1999/xlink">
<rect x="0" y="0" width="640" height="480"  fill="#ffffff" />
<defs>
<g id="dot">
<line x1="1" y1="1" x2="0" y2="0"  />
</g>
<g id="cross">
<line x1="-3" y1="0" x2="3" y2="0"  />
<line x1="0" y1="-3" x2="0" y2="3"  />
</g>
<g id="square">
<line x1="-3" y1="-3" x2="-3" y2="3"  />
<line x1="-3" y1="3" x2="3" y2="3"  />
<line x1="3" y1="3" x2="3" y2="-3"  />
<line x1="3" y1="-3" x2="-3" y2="-3"  />
</g>
<g id="round">
<ellipse cx="0" cy="0" rx="3" ry="3"  fill="none" /></g>
<g id="triangle">
<line x1="0" y1="-3" x2="-3" y2="3"  />
<line x1="-3" y1="3" x2="3" y2="3"  />
<line x1="0" y1="-3" x2="3" y2="3"  />
</g>
</defs>
<polygon fill="none" stroke="#000000" points="66.0317,430.476 66.0317,49.5238 573.968,49.5238 573.968,430.476 " />
<text style="font-size:12;text-align:center;text-anchor:middle;" x="320" y="473.619" fill="#000000">Distance from spot centroid (um)</text>
<use x="66.0317" y="49.5238" xlink:href="#cross"  stroke="#000000" />
<use x="66.0317" y="430.476" xlink:href="#cross"  stroke="#000000" />
<text style="font-size:12;text-align:center;text-anchor:middle;" x="66.0317" y="448.476" fill="#000000">0</text>
<use x="124.626" y="49.5238" xlink:href="#cross"  stroke="#000000" />
<use x="124.626" y="430.476" xlink:href="#cross"  stroke="#000000" />
<text style="font-size:12;text-align:center;text-anchor:middle;" x="124.626" y="448.476" fill="#000000">50</text>
<use x="183.22" y="49.5238" xlink:href="#cross"  stroke="#000000" />
<use x="183.22" y="430.476" xlink:href="#cross"  stroke="#000000" />
<text style="font-size:12;text-align:center;text-anchor:middle;" x="183.22" y="448.476" fill="#000000">100</text>
<use x="241.814" y="49.5238" xlink:href="#cross"  stroke="#000000" />
<use x="241.814" y="430.476" xlink:href="#cross"  stroke="#000000" />
<text style="font-size:12;text-align:center;text-anchor:middle;" x="241.814" y="448.476" fill="#000000">150</text>
<use x="300.409" y="49.5238" xlink:href="#cross"  stroke="#000000" />
<use x="300.409" y="430.476" xlink:href="#cross"  stroke="#000000" />
<text style="font-size:12;text-align:center;text-anchor:middle;" x="300.409" y="448.476" fill="#000000">200</text>
<use x="359.003" y="49.5238" xlink:href="#cross"  stroke="#000000" />
<use x="359.003" y="430.476" xlink:href="#cross"  stroke="#000000" />
<text style="font-size:12;text-align:center;text-anchor:middle;" x="359.003" y="448.476" fill="#000000">250</text>
<use x="417.597" y="49.5238" xlink:href="#cross"  stroke="#000000" />
<use x="417.597" y="430.476" xlink:href="#cross"  stroke="#000000" />
<text style="font-size:12;text-align:center;text-anchor:middle;" x="417.597" y="448.476" fill="#000000">300</text>
<use x="476.191" y="49.5238" xlink:href="#cross"  stroke="#000000" />
<use x="476.191" y="430.476" xlink:href="#cross"  stroke="#000000" />
<text style="font-size:12;text-align:center;text-anchor:middle;" x="476.191" y="448.476" fill="#000000">350</text>
<use x="534.785" y="49.5238" xlink:href="#cross"  stroke="#000000" />
<use x="534.785" y="430.476" xlink:href="#cross"  stroke="#000000" />
<text style="font-size:12;text-align:center;text-anchor:middle;" x="534.785" y="448.476" fill="#000000">400</text>
<text style="font-size:12;text-align:center;text-anchor:middle;" x="16.5079" y="246" transform="rotate(-90,16.5079,240)" fill="#000000">Encircled intensity</text>
<use x="573.968" y="430.476" xlink:href="#cross"  stroke="#000000" />
<use x="66.0317" y="430.476" xlink:href="#cross"  stroke="#000000" />
<text style="font-size:12;text-align:right;text-anchor:end;" x="60.0317" y="436.476" fill="#000000">0</text>
<use x="573.968" y="364.224" xlink:href="#cross"  stroke="#000000" />
<use x="66.0317" y="364.224" xlink:href="#cross"  stroke="#000000" />
<text style="font-size:12;text-align:right;text-anchor:end;" x="60.0317" y="370.224" fill="#000000">100</text>
<use x="573.968" y="297.971" xlink:href="#cross"  stroke="#000000" />
<use x="66.0317" y="297.971" xlink:href="#cross"  stroke="#000000" />
<text style="font-size:12;text-align:right;text-anchor:end;" x="60.0317" y="303.971" fill="#000000">200</text>
<use x="573.968" y="231.718" xlink:href="#cross"  stroke="#000000" />
<use x="66.0317" y="231.718" xlink:href="#cross"  stroke="#000000" />
<text style="font-size:12;text-align:right;text-anchor:end;" x="60.0317" y="237.718" fill="#000000">300</text>
<use x="573.968" y="165.466" xlink:href="#cross"  stroke="#000000" />
<use x="66.0317" y="165.466" xlink:href="#cross"  stroke="#000000" />
<text style="font-size:12;text-align:right;text-anchor:end;" x="60.0317" y="171.466" fill="#000000">400</text>
<use x="573.968" y="99.2133" xlink:href="#cross"  stroke="#000000" />
<use x="66.0317" y="99.2133" xlink:href="#cross"  stroke="#000000" />
<text style="font-size:12;text-align:right;text-anchor:end;" x="60.0317" y="105.213" fill="#000000">500</text>
<text style="font-size:18;text-align:center;text-anchor:middle;" x="320" y="33.7619" fill="#000000">Spot diagram encircled rays intensity</text>
<line x1="66.0317" y1="430.476" x2="76.1905" y2="366.874"  stroke="#00ebff" />
<line x1="76.1905" y1="366.874" x2="86.3492" y2="320.497"  stroke="#00ebff" />
<line x1="86.3492" y1="320.497" x2="96.5079" y2="275.445"  stroke="#00ebff" />
<line x1="96.5079" y1="275.445" x2="106.667" y2="215.155"  stroke="#00ebff" />
<line x1="106.667" y1="215.155" x2="116.825" y2="195.28"  stroke="#00ebff" />
<line x1="116.825" y1="195.28" x2="126.984" y2="182.029"  stroke="#00ebff" />
<line x1="126.984" y1="182.029" x2="137.143" y2="167.453"  stroke="#00ebff" />
<line x1="137.143" y1="167.453" x2="147.302" y2="156.853"  stroke="#00ebff" />
<line x1="147.302" y1="156.853" x2="157.46" y2="150.228"  stroke="#00ebff" />
<line x1="157.46" y1="150.228" x2="167.619" y2="143.602"  stroke="#00ebff" />
<line x1="167.619" y1="143.602" x2="177.778" y2="136.977"  stroke="#00ebff" />
<line x1="177.778" y1="136.977" x2="187.937" y2="127.702"  stroke="#00ebff" />
<line x1="187.937" y1="127.702" x2="198.095" y2="125.052"  stroke="#00ebff" />
<line x1="198.095" y1="125.052" x2="208.254" y2="118.427"  stroke="#00ebff" />
<line x1="208.254" y1="118.427" x2="218.413" y2="113.126"  stroke="#00ebff" />
<line x1="218.413" y1="113.126" x2="228.571" y2="110.476"  stroke="#00ebff" />
<line x1="228.571" y1="110.476" x2="238.73" y2="105.176"  stroke="#00ebff" />
<line x1="238.73" y1="105.176" x2="248.889" y2="102.526"  stroke="#00ebff" />
<line x1="248.889" y1="102.526" x2="259.048" y2="97.2257"  stroke="#00ebff" />
<line x1="259.048" y1="97.2257" x2="269.206" y2="95.9006"  stroke="#00ebff" />
<line x1="269.206" y1="95.9006" x2="279.365" y2="91.9255"  stroke="#00ebff" />
<line x1="279.365" y1="91.9255" x2="289.524" y2="87.9503"  stroke="#00ebff" />
<line x1="289.524" y1="87.9503" x2="299.683" y2="85.3002"  stroke="#00ebff" />
<line x1="299.683" y1="85.3002" x2="309.841" y2="83.9752"  stroke="#00ebff" />
<line x1="309.841" y1="83.9752" x2="320" y2="80"  stroke="#00ebff" />
<line x1="320" y1="80" x2="330.159" y2="80"  stroke="#00ebff" />
<line x1="330.159" y1="80" x2="340.317" y2="76.0248"  stroke="#00ebff" />
<line x1="340.317" y1="76.0248" x2="350.476" y2="73.3747"  stroke="#00ebff" />
<line x1="350.476" y1="73.3747" x2="360.635" y2="72.0497"  stroke="#00ebff" />
<line x1="360.635" y1="72.0497" x2="370.794" y2="70.7246"  stroke="#00ebff" />
<line x1="370.794" y1="70.7246" x2="380.952" y2="69.3996"  stroke="#00ebff" />
<line x1="380.952" y1="69.3996" x2="391.111" y2="68.0745"  stroke="#00ebff" />
<line x1="391.111" y1="68.0745" x2="401.27" y2="66.7495"  stroke="#00ebff" />
<line x1="401.27" y1="66.7495" x2="411.429" y2="65.4244"  stroke="#00ebff" />
<line x1="411.429" y1="65.4244" x2="421.587" y2="65.4244"  stroke="#00ebff" />
<line x1="421.587" y1="65.4244" x2="431.746" y2="62.7743"  stroke="#00ebff" />
<line x1="431.746" y1="62.7743" x2="441.905" y2="61.4493"  stroke="#00ebff" />
<line x1="441.905" y1="61.4493" x2="452.063" y2="61.4493"  stroke="#00ebff" />
<line x1="452.063" y1="61.4493" x2="462.222" y2="61.4493"  stroke="#00ebff" />
<line x1="462.222" y1="61.4493" x2="472.381" y2="58.7992"  stroke="#00ebff" />
<line x1="472.381" y1="58.7992" x2="482.54" y2="58.7992"  stroke="#00ebff" />
<line x1="482.54" y1="58.7992" x2="492.698" y2="58.7992"  stroke="#00ebff" />
<line x1="492.698" y1="58.7992" x2="502.857" y2="57.4741"  stroke="#00ebff" />
<line x1="502.857" y1="57.4741" x2="513.016" y2="57.4741"  stroke="#00ebff" />
<line x1="513.016" y1="57.4741" x2="523.175" y2="57.4741"  stroke="#00ebff" />
<line x1="523.175" y1="57.4741" x2="533.333" y2="56.1491"  stroke="#00ebff" />
<line x1="533.333" y1="56.1491" x2="543.492" y2="56.1491"  stroke="#00ebff" />
<line x1="543.492" y1="56.1491" x2="553.651" y2="56.1491"  stroke="#00ebff" />
<line x1="553.651" y1="56.1491" x2="563.81" y2="56.1491"  stroke="#00ebff" />
<line x1="563.81" y1="56.1491" x2="573.968" y2="56.1491"  stroke="#00ebff" />
<line x1="66.0317" y1="430.476" x2="76.1905" y2="429.814"  stroke="#ffe100" />
<line x1="76.1905" y1="429.814" x2="86.3492" y2="364.886"  stroke="#ffe100" />
<line x1="86.3492" y1="364.886" x2="96.5079" y2="278.095"  stroke="#ffe100" />
<line x1="96.5079" y1="278.095" x2="106.667" y2="239.006"  stroke="#ffe100" />
<line x1="106.667" y1="239.006" x2="116.825" y2="220.455"  stroke="#ffe100" />
<line x1="116.825" y1="220.455" x2="126.984" y2="203.892"  stroke="#ffe100" />
<line x1="126.984" y1="203.892" x2="137.143" y2="186.004"  stroke="#ffe100" />
<line x1="137.143" y1="186.004" x2="147.302" y2="170.104"  stroke="#ffe100" />
<line x1="147.302" y1="170.104" x2="157.46" y2="158.178"  stroke="#ffe100" />
<line x1="157.46" y1="158.178" x2="167.619" y2="147.578"  stroke="#ffe100" />
<line x1="167.619" y1="147.578" x2="177.778" y2="140.952"  stroke="#ffe100" />
<line x1="177.778" y1="140.952" x2="187.937" y2="135.652"  stroke="#ffe100" />
<line x1="187.937" y1="135.652" x2="198.095" y2="125.052"  stroke="#ffe100" />
<line x1="198.095" y1="125.052" x2="208.254" y2="121.077"  stroke="#ffe100" />
<line x1="208.254" y1="121.077" x2="218.413" y2="114.451"  stroke="#ffe100" />
<line x1="218.413" y1="114.451" x2="228.571" y2="107.826"  stroke="#ffe100" />
<line x1="228.571" y1="107.826" x2="238.73" y2="103.851"  stroke="#ffe100" />
<line x1="238.73" y1="103.851" x2="248.889" y2="101.201"  stroke="#ffe100" />
<line x1="248.889" y1="101.201" x2="259.048" y2="95.9006"  stroke="#ffe100" />
<line x1="259.048" y1="95.9006" x2="269.206" y2="91.9255"  stroke="#ffe100" />
<line x1="269.206" y1="91.9255" x2="279.365" y2="89.2754"  stroke="#ffe100" />
<line x1="279.365" y1="89.2754" x2="289.524" y2="86.6253"  stroke="#ffe100" />
<line x1="289.524" y1="86.6253" x2="299.683" y2="82.6501"  stroke="#ffe100" />
<line x1="299.683" y1="82.6501" x2="309.841" y2="80"  stroke="#ffe100" />
<line x1="309.841" y1="80" x2="320" y2="78.6749"  stroke="#ffe100" />
<line x1="320" y1="78.6749" x2="330.159" y2="74.6998"  stroke="#ffe100" />
<line x1="330.159" y1="74.6998" x2="340.317" y2="74.6998"  stroke="#ffe100" />
<line x1="340.317" y1="74.6998" x2="350.476" y2="70.7246"  stroke="#ffe100" />
<line x1="350.476" y1="70.7246" x2="360.635" y2="68.0745"  stroke="#ffe100" />
<line x1="360.635" y1="68.0745" x2="370.794" y2="68.0745"  stroke="#ffe100" />
<line x1="370.794" y1="68.0745" x2="380.952" y2="65.4244"  stroke="#ffe100" />
<line x1="380.952" y1="65.4244" x2="391.111" y2="64.0994"  stroke="#ffe100" />
<line x1="391.111" y1="64.0994" x2="401.27" y2="62.7743"  stroke="#ffe100" />
<line x1="401.27" y1="62.7743" x2="411.429" y2="61.4493"  stroke="#ffe100" />
<line x1="411.429" y1="61.4493" x2="421.587" y2="60.1242"  stroke="#ffe100" />
<line x1="421.587" y1="60.1242" x2="431.746" y2="60.1242"  stroke="#ffe100" />
<line x1="431.746" y1="60.1242" x2="441.905" y2="57.4741"  stroke="#ffe100" />
<line x1="441.905" y1="57.4741" x2="452.063" y2="56.1491"  stroke="#ffe100" />
<line x1="452.063" y1="56.1491" x2="462.222" y2="56.1491"  stroke="#ffe100" />
<line x1="462.222" y1="56.1491" x2="472.381" y2="56.1491"  stroke="#ffe100" />
<line x1="472.381" y1="56.1491" x2="482.54" y2="53.499"  stroke="#ffe100" />
<line x1="482.54" y1="53.499" x2="492.698" y2="53.499"  stroke="#ffe100" />
<line x1="492.698" y1="53.499" x2="502.857" y2="53.499"  stroke="#ffe100" />
<line x1="502.857" y1="53.499" x2="513.016" y2="52.1739"  stroke="#ffe100" />
<line x1="513.016" y1="52.1739" x2="523.175" y2="52.1739"  stroke="#ffe100" />
<line x1="523.175" y1="52.1739" x2="533.333" y2="52.1739"  stroke="#ffe100" />
<line x1="533.333" y1="52.1739" x2="543.492" y2="52.1739"  stroke="#ffe100" />
<line x1="543.492" y1="52.1739" x2="553.651" y2="50.8489"  stroke="#ffe100" />
<line x1="553.651" y1="50.8489" x2="563.81" y2="50.8489"  stroke="#ffe100" />
<line x1="563.81" y1="50.8489" x2="573.968" y2="50.8489"  stroke="#ffe100" />
<line x1="66.0317" y1="430.476" x2="76.1905" y2="428.489"  stroke="#ff0000" />
<line x1="76.1905" y1="428.489" x2="86.3492" y2="421.863"  stroke="#ff0000" />
<line x1="86.3492" y1="421.863" x2="96.5079" y2="307.909"  stroke="#ff0000" />
<line x1="96.5079" y1="307.909" x2="106.667" y2="268.157"  stroke="#ff0000" />
<line x1="106.667" y1="268.157" x2="116.825" y2="248.282"  stroke="#ff0000" />
<line x1="116.825" y1="248.282" x2="126.984" y2="225.756"  stroke="#ff0000" />
<line x1="126.984" y1="225.756" x2="137.143" y2="208.53"  stroke="#ff0000" />
<line x1="137.143" y1="208.53" x2="147.302" y2="195.28"  stroke="#ff0000" />
<line x1="147.302" y1="195.28" x2="157.46" y2="175.404"  stroke="#ff0000" />
<line x1="157.46" y1="175.404" x2="167.619" y2="162.153"  stroke="#ff0000" />
<line x1="167.619" y1="162.153" x2="177.778" y2="151.553"  stroke="#ff0000" />
<line x1="177.778" y1="151.553" x2="187.937" y2="142.277"  stroke="#ff0000" />
<line x1="187.937" y1="142.277" x2="198.095" y2="136.977"  stroke="#ff0000" />
<line x1="198.095" y1="136.977" x2="208.254" y2="129.027"  stroke="#ff0000" />
<line x1="208.254" y1="129.027" x2="218.413" y2="123.727"  stroke="#ff0000" />
<line x1="218.413" y1="123.727" x2="228.571" y2="118.427"  stroke="#ff0000" />
<line x1="228.571" y1="118.427" x2="238.73" y2="107.826"  stroke="#ff0000" />
<line x1="238.73" y1="107.826" x2="248.889" y2="106.501"  stroke="#ff0000" />
<line x1="248.889" y1="106.501" x2="259.048" y2="101.201"  stroke="#ff0000" />
<line x1="259.048" y1="101.201" x2="269.206" y2="98.5507"  stroke="#ff0000" />
<line x1="269.206" y1="98.5507" x2="279.365" y2="90.6004"  stroke="#ff0000" />
<line x1="279.365" y1="90.6004" x2="289.524" y2="90.6004"  stroke="#ff0000" />
<line x1="289.524" y1="90.6004" x2="299.683" y2="86.6253"  stroke="#ff0000" />
<line x1="299.683" y1="86.6253" x2="309.841" y2="85.3002"  stroke="#ff0000" />
<line x1="309.841" y1="85.3002" x2="320" y2="78.6749"  stroke="#ff0000" />
<line x1="320" y1="78.6749" x2="330.159" y2="78.6749"  stroke="#ff0000" />
<line x1="330.159" y1="78.6749" x2="340.317" y2="73.3747"  stroke="#ff0000" />
<line x1="340.317" y1="73.3747" x2="350.476" y2="73.3747"  stroke="#ff0000" />
<line x1="350.476" y1="73.3747" x2="360.635" y2="73.3747"  stroke="#ff0000" />
<line x1="360.635" y1="73.3747" x2="370.794" y2="68.0745"  stroke="#ff0000" />
<line x1="370.794" y1="68.0745" x2="380.952" y2="66.7495"  stroke="#ff0000" />
<line x1="380.952" y1="66.7495" x2="391.111" y2="64.0994"  stroke="#ff0000" />
<line x1="391.111" y1="64.0994" x2="401.27" y2="64.0994"  stroke="#ff0000" />
<line x1="401.27" y1="64.0994" x2="411.429" y2="62.7743"  stroke="#ff0000" />
<line x1="411.429" y1="62.7743" x2="421.587" y2="60.1242"  stroke="#ff0000" />
<line x1="421.587" y1="60.1242" x2="431.746" y2="60.1242"  stroke="#ff0000" />
<line x1="431.746" y1="60.1242" x2="441.905" y2="58.7992"  stroke="#ff0000" />
<line x1="441.905" y1="58.7992" x2="452.063" y2="58.7992"  stroke="#ff0000" />
<line x1="452.063" y1="58.7992" x2="462.222" y2="56.1491"  stroke="#ff0000" />
<line x1="462.222" y1="56.1491" x2="472.381" y2="54.824"  stroke="#ff0000" />
<line x1="472.381" y1="54.824" x2="482.54" y2="54.824"  stroke="#ff0000" />
<line x1="482.54" y1="54.824" x2="492.698" y2="53.499"  stroke="#ff0000" />
<line x1="492.698" y1="53.499" x2="502.857" y2="52.1739"  stroke="#ff0000" />
<line x1="502.857" y1="52.1739" x2="513.016" y2="52.1739"  stroke="#ff0000" />
<line x1="513.016" y1="52.1739" x2="523.175" y2="52.1739"  stroke="#ff0000" />
<line x1="523.175" y1="52.1739" x2="533.333" y2="50.8489"  stroke="#ff0000" />
<line x1="533.333" y1="50.8489" x2="543.492" y2="50.8489"  stroke="#ff0000" />
<line x1="543.492" y1="50.8489" x2="553.651" y2="50.8489"  stroke="#ff0000" />
<line x1="553.651" y1="50.8489" x2="563.81" y2="50.1863"  stroke="#ff0000" />
<line x1="563.81" y1="50.1863" x2="573.968" y2="49.5238"  stroke="#ff0000" />
</svg>
