<?xml version="1.0" standalone="no"?>
<svg width="640px" height="480px" version="1.1" xmlns="http://www.w3.org/2000/svg" xmlns:xlink="http://www.w3.org/1999/xlink">
<rect x="0" y="0" width="640" height="480"  fill="#ffffff" />
<defs>
<g id="dot">
<line x1="1" y1="1" x2="0" y2="0"  />
</g>
<g id="cross">
<line x1="-3" y1="0" x2="3" y2="0"  />
<line x1="0" y1="-3" x2="0" y2="3"  />
</g>
<g id="square">
<line x1="-3" y1="-3" x2="-3" y2="3"  />
<line x1="-3" y1="3" x2="3" y2="3"  />
<line x1="3" y1="3" x2="3" y2="-3"  />
<line x1="3" y1="-3" x2="-3" y2="-3"  />
</g>
<g id="round">
<ellipse cx="0" cy="0" rx="3" ry="3"  fill="none" /></g>
<g id="triangle">
<line x1="0" y1="-3" x2="-3" y2="3"  />
<line x1="-3" y1="3" x2="3" y2="3"  />
<line x1="0" y1="-3" x2="3" y2="3"  />
</g>
</defs>
<polygon fill="none" stroke="#000000" points="66.0317,430.476 66.0317,49.5238 573.968,49.5238 573.968,430.476 " />
<text style="font-size:12;text-align:center;text-anchor:middle;" x="320" y="473.619" fill="#000000">Entrance ray height (normalized)</text>
<line x1="66.0317" y1="132.179" x2="573.968" y2="132.179"  stroke="#000000" />
<use x="66.0317" y="132.179" xlink:href="#cross"  stroke="#000000" />
<use x="66.0317" y="49.5238" xlink:href="#cross"  stroke="#000000" />
<use x="66.0317" y="430.476" xlink:href="#cross"  stroke="#000000" />
<text style="font-size:12;text-align:center;text-anchor:middle;" x="66.0317" y="448.476" fill="#000000">-1</text>
<use x="320" y="132.179" xlink:href="#cross"  stroke="#000000" />
<use x="320" y="49.5238" xlink:href="#cross"  stroke="#000000" />
<use x="320" y="430.476" xlink:href="#cross"  stroke="#000000" />
<text style="font-size:12;text-align:center;text-anchor:middle;" x="320" y="448.476" fill="#000000">0</text>
<use x="573.968" y="132.179" xlink:href="#cross"  stroke="#000000" />
<use x="573.968" y="49.5238" xlink:href="#cross"  stroke="#000000" />
<use x="573.968" y="430.476" xlink:href="#cross"  stroke="#000000" />
<text style="font-size:12;text-align:center;text-anchor:middle;" x="573.968" y="448.476" fill="#000000">1</text>
<text style="font-size:12;text-align:center;text-anchor:middle;" x="16.5079" y="246" transform="rotate(-90,16.5079,240)" fill="#000000">Optical path difference (x10^-1 waves)</text>
<line x1="320" y1="430.476" x2="320" y2="49.5238"  stroke="#000000" />
<use x="320" y="408.615" xlink:href="#cross"  stroke="#000000" />
<use x="573.968" y="408.615" xlink:href="#cross"  stroke="#000000" />
<use x="66.0317" y="408.615" xlink:href="#cross"  stroke="#000000" />
<text style="font-size:12;text-align:right;text-anchor:end;" x="60.0317" y="414.615" fill="#000000">-25</text>
<use x="320" y="353.328" xlink:href="#cross"  stroke="#000000" />
<use x="573.968" y="353.328" xlink:href="#cross"  stroke="#000000" />
<use x="66.0317" y="353.328" xlink:href="#cross"  stroke="#000000" />
<text style="font-size:12;text-align:right;text-anchor:end;" x="60.0317" y="359.328" fill="#000000">-20</text>
<use x="320" y="298.041" xlink:href="#cross"  stroke="#000000" />
<use x="573.968" y="298.041" xlink:href="#cross"  stroke="#000000" />
<use x="66.0317" y="298.041" xlink:href="#cross"  stroke="#000000" />
<text style="font-size:12;text-align:right;text-anchor:end;" x="60.0317" y="304.041" fill="#000000">-15</text>
<use x="320" y="242.753" xlink:href="#cross"  stroke="#000000" />
<use x="573.968" y="242.753" xlink:href="#cross"  stroke="#000000" />
<use x="66.0317" y="242.753" xlink:href="#cross"  stroke="#000000" />
<text style="font-size:12;text-align:right;text-anchor:end;" x="60.0317" y="248.753" fill="#000000">-10</text>
<use x="320" y="187.466" xlink:href="#cross"  stroke="#000000" />
<use x="573.968" y="187.466" xlink:href="#cross"  stroke="#000000" />
<use x="66.0317" y="187.466" xlink:href="#cross"  stroke="#000000" />
<text style="font-size:12;text-align:right;text-anchor:end;" x="60.0317" y="193.466" fill="#000000">-5</text>
<use x="320" y="132.179" xlink:href="#cross"  stroke="#000000" />
<use x="573.968" y="132.179" xlink:href="#cross"  stroke="#000000" />
<use x="66.0317" y="132.179" xlink:href="#cross"  stroke="#000000" />
<text style="font-size:12;text-align:right;text-anchor:end;" x="60.0317" y="138.179" fill="#000000">0</text>
<use x="320" y="76.8918" xlink:href="#cross"  stroke="#000000" />
<use x="573.968" y="76.8918" xlink:href="#cross"  stroke="#000000" />
<use x="66.0317" y="76.8918" xlink:href="#cross"  stroke="#000000" />
<text style="font-size:12;text-align:right;text-anchor:end;" x="60.0317" y="82.8918" fill="#000000">5</text>
<text style="font-size:18;text-align:center;text-anchor:middle;" x="320" y="33.7619" fill="#000000">Optical path difference fan (tangential)</text>
<path fill="none"  stroke="#00ebff" d="M83.2,309.987 S94.4762,308.483 100.114,307.247 S111.39,305.165 117.029,302.572 S128.305,296.329 133.943,291.693 S145.219,281.084 150.857,274.757 S162.133,261.026 167.771,253.733 S179.048,238.513 184.686,230.998 S195.962,215.777 201.6,208.646 S212.876,194.545 218.514,188.212 S229.79,175.95 235.429,170.648 S246.705,160.583 252.343,156.404 S263.619,148.633 269.257,145.573 S280.533,140.034 286.171,138.044 S297.448,134.608 303.086,133.631 S314.362,132.179 320,132.179 S331.276,132.653 336.914,133.631 S348.19,136.053 353.829,138.044 S365.105,142.513 370.743,145.573 S382.019,152.224 387.657,156.404 S398.933,165.347 404.571,170.648 S415.848,181.879 421.486,188.212 S432.762,201.515 438.4,208.646 S449.676,223.484 455.314,230.998 S466.59,246.44 472.229,253.733 S483.505,268.43 489.143,274.757 S500.419,287.057 506.057,291.693 S517.333,299.98 522.971,302.572 S534.248,306.011 539.886,307.247 S553.981,309.53 556.8,309.987 " />
<path fill="none"  stroke="#ffe100" d="M83.2,49.5238 S94.4762,69.2687 100.114,78.3498 S111.39,96.674 117.029,104.01 S128.305,117.487 133.943,122.368 S145.219,130.632 150.857,133.297 S162.133,137.319 167.771,138.356 S179.048,139.487 184.686,139.521 S195.962,139.017 201.6,138.563 S212.876,137.382 218.514,136.795 S229.79,135.555 235.429,135.037 S246.705,134.054 252.343,133.687 S263.619,133.051 269.257,132.836 S280.533,132.501 286.171,132.398 S297.448,132.258 303.086,132.222 S314.362,132.179 320,132.179 S331.276,132.185 336.914,132.222 S348.19,132.296 353.829,132.398 S365.105,132.622 370.743,132.836 S382.019,133.32 387.657,133.687 S398.933,134.519 404.571,135.037 S415.848,136.207 421.486,136.795 S432.762,138.108 438.4,138.563 S449.676,139.556 455.314,139.521 S466.59,139.393 472.229,138.356 S483.505,135.962 489.143,133.297 S500.419,127.249 506.057,122.368 S517.333,111.347 522.971,104.01 S534.248,87.4309 539.886,78.3498 S553.981,54.3281 556.8,49.5238 " />
<path fill="none"  stroke="#ff0000" d="M83.2,430.476 S94.4762,410.441 100.114,401.08 S111.39,383.495 117.029,374.309 S128.305,355.75 133.943,345.966 S145.219,325.868 150.857,315.603 S162.133,294.665 167.771,284.376 S179.048,263.677 184.686,253.866 S195.962,234.426 201.6,225.506 S212.876,208.095 218.514,200.345 S229.79,185.439 235.429,179.008 S246.705,166.826 252.343,161.758 S263.619,152.327 269.257,148.6 S280.533,141.836 286.171,139.397 S297.448,135.174 303.086,133.971 S314.362,132.179 320,132.179 S331.276,132.767 336.914,133.971 S348.19,136.959 353.829,139.397 S365.105,144.873 370.743,148.6 S382.019,156.69 387.657,161.758 S398.933,172.577 404.571,179.008 S415.848,192.595 421.486,200.345 S432.762,216.586 438.4,225.506 S449.676,244.054 455.314,253.866 S466.59,274.086 472.229,284.376 S483.505,305.338 489.143,315.603 S500.419,336.181 506.057,345.966 S517.333,365.123 522.971,374.309 S534.248,391.719 539.886,401.08 S553.981,425.577 556.8,430.476 " />
</svg>
