<?xml version="1.0" standalone="no"?>
<svg width="640px" height="480px" version="1.1" xmlns="http://www.w3.org/2000/svg" xmlns:xlink="http://www.w3.org/1999/xlink">
<rect x="0" y="0" width="640" height="480"  fill="#ffffff" />
<defs>
<g id="dot">
<line x1="1" y1="1" x2="0" y2="0"  />
</g>
<g id="cross">
<line x1="-3" y1="0" x2="3" y2="0"  />
<line x1="0" y1="-3" x2="0" y2="3"  />
</g>
<g id="square">
<line x1="-3" y1="-3" x2="-3" y2="3"  />
<line x1="-3" y1="3" x2="3" y2="3"  />
<line x1="3" y1="3" x2="3" y2="-3"  />
<line x1="3" y1="-3" x2="-3" y2="-3"  />
</g>
<g id="round">
<ellipse cx="0" cy="0" rx="3" ry="3"  fill="none" /></g>
<g id="triangle">
<line x1="0" y1="-3" x2="-3" y2="3"  />
<line x1="-3" y1="3" x2="3" y2="3"  />
<line x1="0" y1="-3" x2="3" y2="3"  />
</g>
</defs>
<polygon fill="none" stroke="#000000" points="66.0317,430.476 66.0317,49.5238 573.968,49.5238 573.968,430.476 " />
<text style="font-size:12;text-align:center;text-anchor:middle;" x="320" y="473.619" fill="#000000">Distance from spot centroid (um)</text>
<use x="66.0317" y="49.5238" xlink:href="#cross"  stroke="#000000" />
<use x="66.0317" y="430.476" xlink:href="#cross"  stroke="#000000" />
<text style="font-size:12;text-align:center;text-anchor:middle;" x="66.0317" y="448.476" fill="#000000">0</text>
<use x="146.903" y="49.5238" xlink:href="#cross"  stroke="#000000" />
<use x="146.903" y="430.476" xlink:href="#cross"  stroke="#000000" />
<text style="font-size:12;text-align:center;text-anchor:middle;" x="146.903" y="448.476" fill="#000000">10</text>
<use x="227.773" y="49.5238" xlink:href="#cross"  stroke="#000000" />
<use x="227.773" y="430.476" xlink:href="#cross"  stroke="#000000" />
<text style="font-size:12;text-align:center;text-anchor:middle;" x="227.773" y="448.476" fill="#000000">20</text>
<use x="308.644" y="49.5238" xlink:href="#cross"  stroke="#000000" />
<use x="308.644" y="430.476" xlink:href="#cross"  stroke="#000000" />
<text style="font-size:12;text-align:center;text-anchor:middle;" x="308.644" y="448.476" fill="#000000">30</text>
<use x="389.515" y="49.5238" xlink:href="#cross"  stroke="#000000" />
<use x="389.515" y="430.476" xlink:href="#cross"  stroke="#000000" />
<text style="font-size:12;text-align:center;text-anchor:middle;" x="389.515" y="448.476" fill="#000000">40</text>
<use x="470.386" y="49.5238" xlink:href="#cross"  stroke="#000000" />
<use x="470.386" y="430.476" xlink:href="#cross"  stroke="#000000" />
<text style="font-size:12;text-align:center;text-anchor:middle;" x="470.386" y="448.476" fill="#000000">50</text>
<use x="551.257" y="49.5238" xlink:href="#cross"  stroke="#000000" />
<use x="551.257" y="430.476" xlink:href="#cross"  stroke="#000000" />
<text style="font-size:12;text-align:center;text-anchor:middle;" x="551.257" y="448.476" fill="#000000">60</text>
<text style="font-size:12;text-align:center;text-anchor:middle;" x="16.5079" y="246" transform="rotate(-90,16.5079,240)" fill="#000000">Encircled intensity</text>
<use x="573.968" y="430.476" xlink:href="#cross"  stroke="#000000" />
<use x="66.0317" y="430.476" xlink:href="#cross"  stroke="#000000" />
<text style="font-size:12;text-align:right;text-anchor:end;" x="60.0317" y="436.476" fill="#000000">0</text>
<use x="573.968" y="376.821" xlink:href="#cross"  stroke="#000000" />
<use x="66.0317" y="376.821" xlink:href="#cross"  stroke="#000000" />
<text style="font-size:12;text-align:right;text-anchor:end;" x="60.0317" y="382.821" fill="#000000">50</text>
<use x="573.968" y="323.166" xlink:href="#cross"  stroke="#000000" />
<use x="66.0317" y="323.166" xlink:href="#cross"  stroke="#000000" />
<text style="font-size:12;text-align:right;text-anchor:end;" x="60.0317" y="329.166" fill="#000000">100</text>
<use x="573.968" y="269.51" xlink:href="#cross"  stroke="#000000" />
<use x="66.0317" y="269.51" xlink:href="#cross"  stroke="#000000" />
<text style="font-size:12;text-align:right;text-anchor:end;" x="60.0317" y="275.51" fill="#000000">150</text>
<use x="573.968" y="215.855" xlink:href="#cross"  stroke="#000000" />
<use x="66.0317" y="215.855" xlink:href="#cross"  stroke="#000000" />
<text style="font-size:12;text-align:right;text-anchor:end;" x="60.0317" y="221.855" fill="#000000">200</text>
<use x="573.968" y="162.2" xlink:href="#cross"  stroke="#000000" />
<use x="66.0317" y="162.2" xlink:href="#cross"  stroke="#000000" />
<text style="font-size:12;text-align:right;text-anchor:end;" x="60.0317" y="168.2" fill="#000000">250</text>
<use x="573.968" y="108.545" xlink:href="#cross"  stroke="#000000" />
<use x="66.0317" y="108.545" xlink:href="#cross"  stroke="#000000" />
<text style="font-size:12;text-align:right;text-anchor:end;" x="60.0317" y="114.545" fill="#000000">300</text>
<use x="573.968" y="54.8893" xlink:href="#cross"  stroke="#000000" />
<use x="66.0317" y="54.8893" xlink:href="#cross"  stroke="#000000" />
<text style="font-size:12;text-align:right;text-anchor:end;" x="60.0317" y="60.8893" fill="#000000">350</text>
<text style="font-size:18;text-align:center;text-anchor:middle;" x="320" y="33.7619" fill="#000000">Spot diagram encircled rays intensity</text>
<line x1="66.0317" y1="430.476" x2="76.1905" y2="422.964"  stroke="#00ebff" />
<line x1="76.1905" y1="422.964" x2="86.3492" y2="412.233"  stroke="#00ebff" />
<line x1="86.3492" y1="412.233" x2="96.5079" y2="395.064"  stroke="#00ebff" />
<line x1="96.5079" y1="395.064" x2="106.667" y2="374.675"  stroke="#00ebff" />
<line x1="106.667" y1="374.675" x2="116.825" y2="346.774"  stroke="#00ebff" />
<line x1="116.825" y1="346.774" x2="126.984" y2="326.385"  stroke="#00ebff" />
<line x1="126.984" y1="326.385" x2="137.143" y2="297.411"  stroke="#00ebff" />
<line x1="137.143" y1="297.411" x2="147.302" y2="272.73"  stroke="#00ebff" />
<line x1="147.302" y1="272.73" x2="157.46" y2="240.537"  stroke="#00ebff" />
<line x1="157.46" y1="240.537" x2="167.619" y2="224.44"  stroke="#00ebff" />
<line x1="167.619" y1="224.44" x2="177.778" y2="211.563"  stroke="#00ebff" />
<line x1="177.778" y1="211.563" x2="187.937" y2="202.978"  stroke="#00ebff" />
<line x1="187.937" y1="202.978" x2="198.095" y2="186.881"  stroke="#00ebff" />
<line x1="198.095" y1="186.881" x2="208.254" y2="171.858"  stroke="#00ebff" />
<line x1="208.254" y1="171.858" x2="218.413" y2="165.419"  stroke="#00ebff" />
<line x1="218.413" y1="165.419" x2="228.571" y2="158.981"  stroke="#00ebff" />
<line x1="228.571" y1="158.981" x2="238.73" y2="156.834"  stroke="#00ebff" />
<line x1="238.73" y1="156.834" x2="248.889" y2="150.396"  stroke="#00ebff" />
<line x1="248.889" y1="150.396" x2="259.048" y2="143.957"  stroke="#00ebff" />
<line x1="259.048" y1="143.957" x2="269.206" y2="136.445"  stroke="#00ebff" />
<line x1="269.206" y1="136.445" x2="279.365" y2="130.007"  stroke="#00ebff" />
<line x1="279.365" y1="130.007" x2="289.524" y2="125.714"  stroke="#00ebff" />
<line x1="289.524" y1="125.714" x2="299.683" y2="117.129"  stroke="#00ebff" />
<line x1="299.683" y1="117.129" x2="309.841" y2="110.691"  stroke="#00ebff" />
<line x1="309.841" y1="110.691" x2="320" y2="108.545"  stroke="#00ebff" />
<line x1="320" y1="108.545" x2="330.159" y2="102.106"  stroke="#00ebff" />
<line x1="330.159" y1="102.106" x2="340.317" y2="99.9598"  stroke="#00ebff" />
<line x1="340.317" y1="99.9598" x2="350.476" y2="89.2287"  stroke="#00ebff" />
<line x1="350.476" y1="89.2287" x2="360.635" y2="84.9363"  stroke="#00ebff" />
<line x1="360.635" y1="84.9363" x2="370.794" y2="76.3514"  stroke="#00ebff" />
<line x1="370.794" y1="76.3514" x2="380.952" y2="69.9128"  stroke="#00ebff" />
<line x1="380.952" y1="69.9128" x2="391.111" y2="63.4742"  stroke="#00ebff" />
<line x1="391.111" y1="63.4742" x2="401.27" y2="57.0355"  stroke="#00ebff" />
<line x1="401.27" y1="57.0355" x2="411.429" y2="57.0355"  stroke="#00ebff" />
<line x1="411.429" y1="57.0355" x2="421.587" y2="57.0355"  stroke="#00ebff" />
<line x1="421.587" y1="57.0355" x2="431.746" y2="57.0355"  stroke="#00ebff" />
<line x1="431.746" y1="57.0355" x2="441.905" y2="57.0355"  stroke="#00ebff" />
<line x1="441.905" y1="57.0355" x2="452.063" y2="57.0355"  stroke="#00ebff" />
<line x1="452.063" y1="57.0355" x2="462.222" y2="54.8893"  stroke="#00ebff" />
<line x1="462.222" y1="54.8893" x2="472.381" y2="54.8893"  stroke="#00ebff" />
<line x1="472.381" y1="54.8893" x2="482.54" y2="53.8162"  stroke="#00ebff" />
<line x1="482.54" y1="53.8162" x2="492.698" y2="53.8162"  stroke="#00ebff" />
<line x1="492.698" y1="53.8162" x2="502.857" y2="53.8162"  stroke="#00ebff" />
<line x1="502.857" y1="53.8162" x2="513.016" y2="53.8162"  stroke="#00ebff" />
<line x1="513.016" y1="53.8162" x2="523.175" y2="53.8162"  stroke="#00ebff" />
<line x1="523.175" y1="53.8162" x2="533.333" y2="51.67"  stroke="#00ebff" />
<line x1="533.333" y1="51.67" x2="543.492" y2="51.67"  stroke="#00ebff" />
<line x1="543.492" y1="51.67" x2="553.651" y2="51.67"  stroke="#00ebff" />
<line x1="553.651" y1="51.67" x2="563.81" y2="51.67"  stroke="#00ebff" />
<line x1="563.81" y1="51.67" x2="573.968" y2="51.67"  stroke="#00ebff" />
<line x1="66.0317" y1="430.476" x2="76.1905" y2="428.33"  stroke="#ffe100" />
<line x1="76.1905" y1="428.33" x2="86.3492" y2="415.453"  stroke="#ffe100" />
<line x1="86.3492" y1="415.453" x2="96.5079" y2="393.991"  stroke="#ffe100" />
<line x1="96.5079" y1="393.991" x2="106.667" y2="331.751"  stroke="#ffe100" />
<line x1="106.667" y1="331.751" x2="116.825" y2="313.508"  stroke="#ffe100" />
<line x1="116.825" y1="313.508" x2="126.984" y2="285.607"  stroke="#ffe100" />
<line x1="126.984" y1="285.607" x2="137.143" y2="261.999"  stroke="#ffe100" />
<line x1="137.143" y1="261.999" x2="147.302" y2="237.317"  stroke="#ffe100" />
<line x1="147.302" y1="237.317" x2="157.46" y2="202.978"  stroke="#ffe100" />
<line x1="157.46" y1="202.978" x2="167.619" y2="182.589"  stroke="#ffe100" />
<line x1="167.619" y1="182.589" x2="177.778" y2="176.15"  stroke="#ffe100" />
<line x1="177.778" y1="176.15" x2="187.937" y2="163.273"  stroke="#ffe100" />
<line x1="187.937" y1="163.273" x2="198.095" y2="156.834"  stroke="#ffe100" />
<line x1="198.095" y1="156.834" x2="208.254" y2="154.688"  stroke="#ffe100" />
<line x1="208.254" y1="154.688" x2="218.413" y2="148.249"  stroke="#ffe100" />
<line x1="218.413" y1="148.249" x2="228.571" y2="139.665"  stroke="#ffe100" />
<line x1="228.571" y1="139.665" x2="238.73" y2="135.372"  stroke="#ffe100" />
<line x1="238.73" y1="135.372" x2="248.889" y2="126.787"  stroke="#ffe100" />
<line x1="248.889" y1="126.787" x2="259.048" y2="122.495"  stroke="#ffe100" />
<line x1="259.048" y1="122.495" x2="269.206" y2="112.837"  stroke="#ffe100" />
<line x1="269.206" y1="112.837" x2="279.365" y2="106.398"  stroke="#ffe100" />
<line x1="279.365" y1="106.398" x2="289.524" y2="102.106"  stroke="#ffe100" />
<line x1="289.524" y1="102.106" x2="299.683" y2="93.5211"  stroke="#ffe100" />
<line x1="299.683" y1="93.5211" x2="309.841" y2="80.6439"  stroke="#ffe100" />
<line x1="309.841" y1="80.6439" x2="320" y2="76.3514"  stroke="#ffe100" />
<line x1="320" y1="76.3514" x2="330.159" y2="69.9128"  stroke="#ffe100" />
<line x1="330.159" y1="69.9128" x2="340.317" y2="63.4742"  stroke="#ffe100" />
<line x1="340.317" y1="63.4742" x2="350.476" y2="61.328"  stroke="#ffe100" />
<line x1="350.476" y1="61.328" x2="360.635" y2="59.1818"  stroke="#ffe100" />
<line x1="360.635" y1="59.1818" x2="370.794" y2="57.0355"  stroke="#ffe100" />
<line x1="370.794" y1="57.0355" x2="380.952" y2="57.0355"  stroke="#ffe100" />
<line x1="380.952" y1="57.0355" x2="391.111" y2="54.8893"  stroke="#ffe100" />
<line x1="391.111" y1="54.8893" x2="401.27" y2="54.8893"  stroke="#ffe100" />
<line x1="401.27" y1="54.8893" x2="411.429" y2="54.8893"  stroke="#ffe100" />
<line x1="411.429" y1="54.8893" x2="421.587" y2="54.8893"  stroke="#ffe100" />
<line x1="421.587" y1="54.8893" x2="431.746" y2="54.8893"  stroke="#ffe100" />
<line x1="431.746" y1="54.8893" x2="441.905" y2="54.8893"  stroke="#ffe100" />
<line x1="441.905" y1="54.8893" x2="452.063" y2="52.7431"  stroke="#ffe100" />
<line x1="452.063" y1="52.7431" x2="462.222" y2="52.7431"  stroke="#ffe100" />
<line x1="462.222" y1="52.7431" x2="472.381" y2="51.67"  stroke="#ffe100" />
<line x1="472.381" y1="51.67" x2="482.54" y2="51.67"  stroke="#ffe100" />
<line x1="482.54" y1="51.67" x2="492.698" y2="51.67"  stroke="#ffe100" />
<line x1="492.698" y1="51.67" x2="502.857" y2="51.67"  stroke="#ffe100" />
<line x1="502.857" y1="51.67" x2="513.016" y2="51.67"  stroke="#ffe100" />
<line x1="513.016" y1="51.67" x2="523.175" y2="49.5238"  stroke="#ffe100" />
<line x1="523.175" y1="49.5238" x2="533.333" y2="49.5238"  stroke="#ffe100" />
<line x1="533.333" y1="49.5238" x2="543.492" y2="49.5238"  stroke="#ffe100" />
<line x1="543.492" y1="49.5238" x2="553.651" y2="49.5238"  stroke="#ffe100" />
<line x1="553.651" y1="49.5238" x2="563.81" y2="49.5238"  stroke="#ffe100" />
<line x1="563.81" y1="49.5238" x2="573.968" y2="49.5238"  stroke="#ffe100" />
<line x1="66.0317" y1="430.476" x2="76.1905" y2="427.257"  stroke="#ff0000" />
<line x1="76.1905" y1="427.257" x2="86.3492" y2="425.111"  stroke="#ff0000" />
<line x1="86.3492" y1="425.111" x2="96.5079" y2="425.111"  stroke="#ff0000" />
<line x1="96.5079" y1="425.111" x2="106.667" y2="420.818"  stroke="#ff0000" />
<line x1="106.667" y1="420.818" x2="116.825" y2="412.233"  stroke="#ff0000" />
<line x1="116.825" y1="412.233" x2="126.984" y2="385.406"  stroke="#ff0000" />
<line x1="126.984" y1="385.406" x2="137.143" y2="359.651"  stroke="#ff0000" />
<line x1="137.143" y1="359.651" x2="147.302" y2="312.435"  stroke="#ff0000" />
<line x1="147.302" y1="312.435" x2="157.46" y2="294.192"  stroke="#ff0000" />
<line x1="157.46" y1="294.192" x2="167.619" y2="269.51"  stroke="#ff0000" />
<line x1="167.619" y1="269.51" x2="177.778" y2="227.659"  stroke="#ff0000" />
<line x1="177.778" y1="227.659" x2="187.937" y2="201.905"  stroke="#ff0000" />
<line x1="187.937" y1="201.905" x2="198.095" y2="191.174"  stroke="#ff0000" />
<line x1="198.095" y1="191.174" x2="208.254" y2="180.443"  stroke="#ff0000" />
<line x1="208.254" y1="180.443" x2="218.413" y2="171.858"  stroke="#ff0000" />
<line x1="218.413" y1="171.858" x2="228.571" y2="167.565"  stroke="#ff0000" />
<line x1="228.571" y1="167.565" x2="238.73" y2="158.981"  stroke="#ff0000" />
<line x1="238.73" y1="158.981" x2="248.889" y2="152.542"  stroke="#ff0000" />
<line x1="248.889" y1="152.542" x2="259.048" y2="148.249"  stroke="#ff0000" />
<line x1="259.048" y1="148.249" x2="269.206" y2="143.957"  stroke="#ff0000" />
<line x1="269.206" y1="143.957" x2="279.365" y2="139.665"  stroke="#ff0000" />
<line x1="279.365" y1="139.665" x2="289.524" y2="133.226"  stroke="#ff0000" />
<line x1="289.524" y1="133.226" x2="299.683" y2="122.495"  stroke="#ff0000" />
<line x1="299.683" y1="122.495" x2="309.841" y2="116.056"  stroke="#ff0000" />
<line x1="309.841" y1="116.056" x2="320" y2="108.545"  stroke="#ff0000" />
<line x1="320" y1="108.545" x2="330.159" y2="106.398"  stroke="#ff0000" />
<line x1="330.159" y1="106.398" x2="340.317" y2="99.9598"  stroke="#ff0000" />
<line x1="340.317" y1="99.9598" x2="350.476" y2="87.0825"  stroke="#ff0000" />
<line x1="350.476" y1="87.0825" x2="360.635" y2="82.7901"  stroke="#ff0000" />
<line x1="360.635" y1="82.7901" x2="370.794" y2="78.4977"  stroke="#ff0000" />
<line x1="370.794" y1="78.4977" x2="380.952" y2="72.059"  stroke="#ff0000" />
<line x1="380.952" y1="72.059" x2="391.111" y2="65.6204"  stroke="#ff0000" />
<line x1="391.111" y1="65.6204" x2="401.27" y2="63.4742"  stroke="#ff0000" />
<line x1="401.27" y1="63.4742" x2="411.429" y2="61.328"  stroke="#ff0000" />
<line x1="411.429" y1="61.328" x2="421.587" y2="59.1818"  stroke="#ff0000" />
<line x1="421.587" y1="59.1818" x2="431.746" y2="59.1818"  stroke="#ff0000" />
<line x1="431.746" y1="59.1818" x2="441.905" y2="57.0355"  stroke="#ff0000" />
<line x1="441.905" y1="57.0355" x2="452.063" y2="57.0355"  stroke="#ff0000" />
<line x1="452.063" y1="57.0355" x2="462.222" y2="57.0355"  stroke="#ff0000" />
<line x1="462.222" y1="57.0355" x2="472.381" y2="57.0355"  stroke="#ff0000" />
<line x1="472.381" y1="57.0355" x2="482.54" y2="57.0355"  stroke="#ff0000" />
<line x1="482.54" y1="57.0355" x2="492.698" y2="54.8893"  stroke="#ff0000" />
<line x1="492.698" y1="54.8893" x2="502.857" y2="54.8893"  stroke="#ff0000" />
<line x1="502.857" y1="54.8893" x2="513.016" y2="54.8893"  stroke="#ff0000" />
<line x1="513.016" y1="54.8893" x2="523.175" y2="53.8162"  stroke="#ff0000" />
<line x1="523.175" y1="53.8162" x2="533.333" y2="53.8162"  stroke="#ff0000" />
<line x1="533.333" y1="53.8162" x2="543.492" y2="53.8162"  stroke="#ff0000" />
<line x1="543.492" y1="53.8162" x2="553.651" y2="53.8162"  stroke="#ff0000" />
<line x1="553.651" y1="53.8162" x2="563.81" y2="52.7431"  stroke="#ff0000" />
<line x1="563.81" y1="52.7431" x2="573.968" y2="51.67"  stroke="#ff0000" />
</svg>
