<?xml version="1.0" standalone="no"?>
<svg width="640px" height="480px" version="1.1" xmlns="http://www.w3.org/2000/svg" xmlns:xlink="http://www.w3.org/1999/xlink">
<rect x="0" y="0" width="640" height="480"  fill="#ffffff" />
<defs>
<g id="dot">
<line x1="1" y1="1" x2="0" y2="0"  />
</g>
<g id="cross">
<line x1="-3" y1="0" x2="3" y2="0"  />
<line x1="0" y1="-3" x2="0" y2="3"  />
</g>
<g id="square">
<line x1="-3" y1="-3" x2="-3" y2="3"  />
<line x1="-3" y1="3" x2="3" y2="3"  />
<line x1="3" y1="3" x2="3" y2="-3"  />
<line x1="3" y1="-3" x2="-3" y2="-3"  />
</g>
<g id="round">
<ellipse cx="0" cy="0" rx="3" ry="3"  fill="none" /></g>
<g id="triangle">
<line x1="0" y1="-3" x2="-3" y2="3"  />
<line x1="-3" y1="3" x2="3" y2="3"  />
<line x1="0" y1="-3" x2="3" y2="3"  />
</g>
</defs>
<polygon fill="none" stroke="#000000" points="66.0317,430.476 66.0317,49.5238 573.968,49.5238 573.968,430.476 " />
<text style="font-size:12;text-align:center;text-anchor:middle;" x="320" y="473.619" fill="#000000">Entrance ray height (normalized)</text>
<line x1="66.0317" y1="240" x2="573.968" y2="240"  stroke="#000000" />
<use x="66.0317" y="240" xlink:href="#cross"  stroke="#000000" />
<use x="66.0317" y="49.5238" xlink:href="#cross"  stroke="#000000" />
<use x="66.0317" y="430.476" xlink:href="#cross"  stroke="#000000" />
<text style="font-size:12;text-align:center;text-anchor:middle;" x="66.0317" y="448.476" fill="#000000">-1</text>
<use x="320" y="240" xlink:href="#cross"  stroke="#000000" />
<use x="320" y="49.5238" xlink:href="#cross"  stroke="#000000" />
<use x="320" y="430.476" xlink:href="#cross"  stroke="#000000" />
<text style="font-size:12;text-align:center;text-anchor:middle;" x="320" y="448.476" fill="#000000">0</text>
<use x="573.968" y="240" xlink:href="#cross"  stroke="#000000" />
<use x="573.968" y="49.5238" xlink:href="#cross"  stroke="#000000" />
<use x="573.968" y="430.476" xlink:href="#cross"  stroke="#000000" />
<text style="font-size:12;text-align:center;text-anchor:middle;" x="573.968" y="448.476" fill="#000000">1</text>
<text style="font-size:12;text-align:center;text-anchor:middle;" x="16.5079" y="246" transform="rotate(-90,16.5079,240)" fill="#000000">Transverse ray aberration (um)</text>
<line x1="320" y1="430.476" x2="320" y2="49.5238"  stroke="#000000" />
<use x="320" y="399.178" xlink:href="#cross"  stroke="#000000" />
<use x="573.968" y="399.178" xlink:href="#cross"  stroke="#000000" />
<use x="66.0317" y="399.178" xlink:href="#cross"  stroke="#000000" />
<text style="font-size:12;text-align:right;text-anchor:end;" x="60.0317" y="405.178" fill="#000000">-8</text>
<use x="320" y="359.383" xlink:href="#cross"  stroke="#000000" />
<use x="573.968" y="359.383" xlink:href="#cross"  stroke="#000000" />
<use x="66.0317" y="359.383" xlink:href="#cross"  stroke="#000000" />
<text style="font-size:12;text-align:right;text-anchor:end;" x="60.0317" y="365.383" fill="#000000">-6</text>
<use x="320" y="319.589" xlink:href="#cross"  stroke="#000000" />
<use x="573.968" y="319.589" xlink:href="#cross"  stroke="#000000" />
<use x="66.0317" y="319.589" xlink:href="#cross"  stroke="#000000" />
<text style="font-size:12;text-align:right;text-anchor:end;" x="60.0317" y="325.589" fill="#000000">-4</text>
<use x="320" y="279.794" xlink:href="#cross"  stroke="#000000" />
<use x="573.968" y="279.794" xlink:href="#cross"  stroke="#000000" />
<use x="66.0317" y="279.794" xlink:href="#cross"  stroke="#000000" />
<text style="font-size:12;text-align:right;text-anchor:end;" x="60.0317" y="285.794" fill="#000000">-2</text>
<use x="320" y="240" xlink:href="#cross"  stroke="#000000" />
<use x="573.968" y="240" xlink:href="#cross"  stroke="#000000" />
<use x="66.0317" y="240" xlink:href="#cross"  stroke="#000000" />
<text style="font-size:12;text-align:right;text-anchor:end;" x="60.0317" y="246" fill="#000000">0</text>
<use x="320" y="200.206" xlink:href="#cross"  stroke="#000000" />
<use x="573.968" y="200.206" xlink:href="#cross"  stroke="#000000" />
<use x="66.0317" y="200.206" xlink:href="#cross"  stroke="#000000" />
<text style="font-size:12;text-align:right;text-anchor:end;" x="60.0317" y="206.206" fill="#000000">2</text>
<use x="320" y="160.411" xlink:href="#cross"  stroke="#000000" />
<use x="573.968" y="160.411" xlink:href="#cross"  stroke="#000000" />
<use x="66.0317" y="160.411" xlink:href="#cross"  stroke="#000000" />
<text style="font-size:12;text-align:right;text-anchor:end;" x="60.0317" y="166.411" fill="#000000">4</text>
<use x="320" y="120.617" xlink:href="#cross"  stroke="#000000" />
<use x="573.968" y="120.617" xlink:href="#cross"  stroke="#000000" />
<use x="66.0317" y="120.617" xlink:href="#cross"  stroke="#000000" />
<text style="font-size:12;text-align:right;text-anchor:end;" x="60.0317" y="126.617" fill="#000000">6</text>
<use x="320" y="80.8223" xlink:href="#cross"  stroke="#000000" />
<use x="573.968" y="80.8223" xlink:href="#cross"  stroke="#000000" />
<use x="66.0317" y="80.8223" xlink:href="#cross"  stroke="#000000" />
<text style="font-size:12;text-align:right;text-anchor:end;" x="60.0317" y="86.8223" fill="#000000">8</text>
<text style="font-size:18;text-align:center;text-anchor:middle;" x="320" y="33.7619" fill="#000000">Transverse ray aberration fan (tangential)</text>
<path fill="none"  stroke="#00ebff" d="M133.943,108.773 S145.219,185.006 150.857,207.847 S162.133,237.851 167.771,245.819 S179.048,254.465 184.686,255.655 S195.962,254.523 201.6,252.961 S212.876,248.406 218.514,246.284 S229.79,241.832 235.429,240.225 S246.705,237.413 252.343,236.644 S263.619,235.657 269.257,235.608 S280.533,235.95 286.171,236.35 S297.448,237.402 303.086,238.01 S314.362,239.337 320,240 S331.276,241.382 336.914,241.99 S348.19,243.249 353.829,243.65 S365.105,244.441 370.743,244.392 S382.019,244.126 387.657,243.356 S398.933,241.381 404.571,239.775 S415.848,235.839 421.486,233.716 S432.762,228.601 438.4,227.039 S449.676,223.154 455.314,224.345 S466.59,226.213 472.229,234.181 S483.505,249.312 489.143,272.153 S503.238,354.715 506.057,371.227 " />
<path fill="none"  stroke="#ffe100" d="M133.943,49.5238 S145.219,128.557 150.857,154.172 S162.133,191.281 167.771,203.213 S179.048,220.484 184.686,225.76 S195.962,232.878 201.6,234.869 S212.876,237.123 218.514,237.704 S229.79,238.182 235.429,238.353 S246.705,238.573 252.343,238.729 S263.619,239.109 269.257,239.289 S280.533,239.687 286.171,239.812 S297.448,240.011 303.086,240.042 S314.362,240.014 320,240 S331.276,239.927 336.914,239.958 S348.19,240.062 353.829,240.188 S365.105,240.53 370.743,240.711 S382.019,241.115 387.657,241.271 S398.933,241.476 404.571,241.647 S415.848,241.715 421.486,242.296 S432.762,243.14 438.4,245.131 S449.676,248.964 455.314,254.24 S466.59,264.856 472.229,276.787 S483.505,300.213 489.143,325.828 S503.238,413.035 506.057,430.476 " />
<path fill="none"  stroke="#ff0000" d="M133.943,212.403 S145.219,277.669 150.857,297.406 S162.133,323.751 167.771,330.824 S179.048,338.953 184.686,339.84 S195.962,338.44 201.6,336.146 S212.876,329.886 218.514,326.081 S229.79,317.726 235.429,313.32 S246.705,304.272 252.343,299.643 S263.619,290.33 269.257,285.544 S280.533,275.9 286.171,270.922 S297.448,260.833 303.086,255.679 S314.362,245.226 320,240 S331.276,229.475 336.914,224.321 S348.19,214.055 353.829,209.078 S365.105,199.243 370.743,194.456 S382.019,184.986 387.657,180.357 S398.933,171.087 404.571,166.68 S415.848,157.723 421.486,153.919 S432.762,146.147 438.4,143.854 S449.676,139.273 455.314,140.16 S466.59,142.104 472.229,149.176 S483.505,162.857 489.143,182.594 S503.238,253.43 506.057,267.597 " />
</svg>
