<?xml version="1.0" standalone="no"?>
<svg width="640px" height="480px" version="1.1" xmlns="http://www.w3.org/2000/svg" xmlns:xlink="http://www.w3.org/1999/xlink">
<rect x="0" y="0" width="640" height="480"  fill="#ffffff" />
<defs>
<g id="dot">
<line x1="1" y1="1" x2="0" y2="0"  />
</g>
<g id="cross">
<line x1="-3" y1="0" x2="3" y2="0"  />
<line x1="0" y1="-3" x2="0" y2="3"  />
</g>
<g id="square">
<line x1="-3" y1="-3" x2="-3" y2="3"  />
<line x1="-3" y1="3" x2="3" y2="3"  />
<line x1="3" y1="3" x2="3" y2="-3"  />
<line x1="3" y1="-3" x2="-3" y2="-3"  />
</g>
<g id="round">
<ellipse cx="0" cy="0" rx="3" ry="3"  fill="none" /></g>
<g id="triangle">
<line x1="0" y1="-3" x2="-3" y2="3"  />
<line x1="-3" y1="3" x2="3" y2="3"  />
<line x1="0" y1="-3" x2="3" y2="3"  />
</g>
</defs>
<polygon fill="none" stroke="#000000" points="66.0317,430.476 66.0317,49.5238 573.968,49.5238 573.968,430.476 " />
<text style="font-size:12;text-align:center;text-anchor:middle;" x="320" y="473.619" fill="#000000">Entrance ray height (normalized)</text>
<line x1="66.0317" y1="84.3349" x2="573.968" y2="84.3349"  stroke="#000000" />
<use x="66.0317" y="84.3349" xlink:href="#cross"  stroke="#000000" />
<use x="66.0317" y="49.5238" xlink:href="#cross"  stroke="#000000" />
<use x="66.0317" y="430.476" xlink:href="#cross"  stroke="#000000" />
<text style="font-size:12;text-align:center;text-anchor:middle;" x="66.0317" y="448.476" fill="#000000">-1</text>
<use x="320" y="84.3349" xlink:href="#cross"  stroke="#000000" />
<use x="320" y="49.5238" xlink:href="#cross"  stroke="#000000" />
<use x="320" y="430.476" xlink:href="#cross"  stroke="#000000" />
<text style="font-size:12;text-align:center;text-anchor:middle;" x="320" y="448.476" fill="#000000">0</text>
<use x="573.968" y="84.3349" xlink:href="#cross"  stroke="#000000" />
<use x="573.968" y="49.5238" xlink:href="#cross"  stroke="#000000" />
<use x="573.968" y="430.476" xlink:href="#cross"  stroke="#000000" />
<text style="font-size:12;text-align:center;text-anchor:middle;" x="573.968" y="448.476" fill="#000000">1</text>
<text style="font-size:12;text-align:center;text-anchor:middle;" x="16.5079" y="246" transform="rotate(-90,16.5079,240)" fill="#000000">Optical path difference (x10^-1 waves)</text>
<line x1="320" y1="430.476" x2="320" y2="49.5238"  stroke="#000000" />
<use x="320" y="424.738" xlink:href="#cross"  stroke="#000000" />
<use x="573.968" y="424.738" xlink:href="#cross"  stroke="#000000" />
<use x="66.0317" y="424.738" xlink:href="#cross"  stroke="#000000" />
<text style="font-size:12;text-align:right;text-anchor:end;" x="60.0317" y="430.738" fill="#000000">-35</text>
<use x="320" y="376.109" xlink:href="#cross"  stroke="#000000" />
<use x="573.968" y="376.109" xlink:href="#cross"  stroke="#000000" />
<use x="66.0317" y="376.109" xlink:href="#cross"  stroke="#000000" />
<text style="font-size:12;text-align:right;text-anchor:end;" x="60.0317" y="382.109" fill="#000000">-30</text>
<use x="320" y="327.48" xlink:href="#cross"  stroke="#000000" />
<use x="573.968" y="327.48" xlink:href="#cross"  stroke="#000000" />
<use x="66.0317" y="327.48" xlink:href="#cross"  stroke="#000000" />
<text style="font-size:12;text-align:right;text-anchor:end;" x="60.0317" y="333.48" fill="#000000">-25</text>
<use x="320" y="278.851" xlink:href="#cross"  stroke="#000000" />
<use x="573.968" y="278.851" xlink:href="#cross"  stroke="#000000" />
<use x="66.0317" y="278.851" xlink:href="#cross"  stroke="#000000" />
<text style="font-size:12;text-align:right;text-anchor:end;" x="60.0317" y="284.851" fill="#000000">-20</text>
<use x="320" y="230.222" xlink:href="#cross"  stroke="#000000" />
<use x="573.968" y="230.222" xlink:href="#cross"  stroke="#000000" />
<use x="66.0317" y="230.222" xlink:href="#cross"  stroke="#000000" />
<text style="font-size:12;text-align:right;text-anchor:end;" x="60.0317" y="236.222" fill="#000000">-15</text>
<use x="320" y="181.593" xlink:href="#cross"  stroke="#000000" />
<use x="573.968" y="181.593" xlink:href="#cross"  stroke="#000000" />
<use x="66.0317" y="181.593" xlink:href="#cross"  stroke="#000000" />
<text style="font-size:12;text-align:right;text-anchor:end;" x="60.0317" y="187.593" fill="#000000">-10</text>
<use x="320" y="132.964" xlink:href="#cross"  stroke="#000000" />
<use x="573.968" y="132.964" xlink:href="#cross"  stroke="#000000" />
<use x="66.0317" y="132.964" xlink:href="#cross"  stroke="#000000" />
<text style="font-size:12;text-align:right;text-anchor:end;" x="60.0317" y="138.964" fill="#000000">-5</text>
<use x="320" y="84.3349" xlink:href="#cross"  stroke="#000000" />
<use x="573.968" y="84.3349" xlink:href="#cross"  stroke="#000000" />
<use x="66.0317" y="84.3349" xlink:href="#cross"  stroke="#000000" />
<text style="font-size:12;text-align:right;text-anchor:end;" x="60.0317" y="90.3349" fill="#000000">0</text>
<text style="font-size:18;text-align:center;text-anchor:middle;" x="320" y="33.7619" fill="#000000">Optical path difference fan (tangential)</text>
<path fill="none"  stroke="#00ebff" d="M201.6,430.476 S212.876,266.05 218.514,217.083 S229.79,154.489 235.429,136.67 S246.705,116.287 252.343,110.168 S263.619,102.875 269.257,99.9549 S280.533,94.8509 286.171,92.6445 S297.448,88.1019 303.086,86.7169 S314.362,84.3349 320,84.3349 S331.276,85.332 336.914,86.7169 S348.19,90.4382 353.829,92.6445 S365.105,97.0344 370.743,99.9549 S382.019,104.048 387.657,110.168 S398.933,118.851 404.571,136.67 S415.848,168.115 421.486,217.083 S435.581,394.911 438.4,430.476 " />
<path fill="none"  stroke="#ffe100" d="M201.6,122.854 S212.876,61.5014 218.514,49.5238 S229.79,47.6369 235.429,50.9889 S246.705,64.3397 252.343,69.6356 S263.619,79.9326 269.257,82.7643 S280.533,86.1801 286.171,86.626 S297.448,85.8213 303.086,85.4394 S314.362,84.3349 320,84.3349 S331.276,85.0576 336.914,85.4394 S348.19,87.0718 353.829,86.626 S365.105,85.596 370.743,82.7643 S382.019,74.9315 387.657,69.6356 S398.933,54.3408 404.571,50.9889 S415.848,37.5462 421.486,49.5238 S435.581,110.633 438.4,122.854 " />
<path fill="none"  stroke="#ff0000" d="M201.6,234.445 S212.876,168.762 218.514,151.545 S229.79,135.613 235.429,131.142 S246.705,127.404 252.343,124.718 S263.619,118.931 269.257,115.025 S280.533,105.593 286.171,101.279 S297.448,91.9654 303.086,89.1413 S314.362,84.3349 320,84.3349 S331.276,86.3172 336.914,89.1413 S348.19,96.9656 353.829,101.279 S365.105,111.118 370.743,115.025 S382.019,122.032 387.657,124.718 S398.933,126.671 404.571,131.142 S415.848,134.328 421.486,151.545 S435.581,220.629 438.4,234.445 " />
</svg>
