<?xml version="1.0" standalone="no"?>
<svg width="300px" height="300px" version="1.1" xmlns="http://www.w3.org/2000/svg" xmlns:xlink="http://www.w3.org/1999/xlink">
<rect x="0" y="0" width="300" height="300"  fill="#000000" />
<defs>
<g id="dot">
<line x1="1" y1="1" x2="0" y2="0"  />
</g>
<g id="cross">
<line x1="-3" y1="0" x2="3" y2="0"  />
<line x1="0" y1="-3" x2="0" y2="3"  />
</g>
<g id="square">
<line x1="-3" y1="-3" x2="-3" y2="3"  />
<line x1="-3" y1="3" x2="3" y2="3"  />
<line x1="3" y1="3" x2="3" y2="-3"  />
<line x1="3" y1="-3" x2="-3" y2="-3"  />
</g>
<g id="round">
<ellipse cx="0" cy="0" rx="3" ry="3"  fill="none" /></g>
<g id="triangle">
<line x1="0" y1="-3" x2="-3" y2="3"  />
<line x1="-3" y1="3" x2="3" y2="3"  />
<line x1="0" y1="-3" x2="3" y2="3"  />
</g>
</defs>
<polygon fill="none" stroke="#ffffff" points="30.9524,269.048 30.9524,30.9524 269.048,30.9524 269.048,269.048 " />
<text style="font-size:12;text-align:center;text-anchor:middle;" x="150" y="298.262" fill="#ffffff">Saggital distance (um)</text>
<use x="70.6349" y="30.9524" xlink:href="#cross"  stroke="#ffffff" />
<use x="70.6349" y="269.048" xlink:href="#cross"  stroke="#ffffff" />
<text style="font-size:12;text-align:center;text-anchor:middle;" x="70.6349" y="287.048" fill="#ffffff">-38.5</text>
<use x="150" y="30.9524" xlink:href="#cross"  stroke="#ffffff" />
<use x="150" y="269.048" xlink:href="#cross"  stroke="#ffffff" />
<text style="font-size:12;text-align:center;text-anchor:middle;" x="150" y="287.048" fill="#ffffff">0</text>
<use x="229.365" y="30.9524" xlink:href="#cross"  stroke="#ffffff" />
<use x="229.365" y="269.048" xlink:href="#cross"  stroke="#ffffff" />
<text style="font-size:12;text-align:center;text-anchor:middle;" x="229.365" y="287.048" fill="#ffffff">38.5</text>
<text style="font-size:12;text-align:center;text-anchor:middle;" x="7.7381" y="156" transform="rotate(-90,7.7381,150)" fill="#ffffff">Tangential distance (um)</text>
<use x="269.048" y="234.796" xlink:href="#cross"  stroke="#ffffff" />
<use x="30.9524" y="234.796" xlink:href="#cross"  stroke="#ffffff" />
<text style="font-size:12;text-align:right;text-anchor:end;" x="24.9524" y="240.796" fill="#ffffff">-38.5</text>
<use x="269.048" y="155.431" xlink:href="#cross"  stroke="#ffffff" />
<use x="30.9524" y="155.431" xlink:href="#cross"  stroke="#ffffff" />
<text style="font-size:12;text-align:right;text-anchor:end;" x="24.9524" y="161.431" fill="#ffffff">0</text>
<use x="269.048" y="76.0659" xlink:href="#cross"  stroke="#ffffff" />
<use x="30.9524" y="76.0659" xlink:href="#cross"  stroke="#ffffff" />
<text style="font-size:12;text-align:right;text-anchor:end;" x="24.9524" y="82.0659" fill="#ffffff">38.5</text>
<use x="168.902" y="188.714" xlink:href="#dot"  stroke="#ffe100" />
<use x="184.515" y="221.199" xlink:href="#dot"  stroke="#ff0000" />
<use x="193.014" y="246.898" xlink:href="#dot"  stroke="#00ebff" />
<use x="162.756" y="185.85" xlink:href="#dot"  stroke="#ffe100" />
<use x="174.688" y="219.962" xlink:href="#dot"  stroke="#ff0000" />
<use x="180.547" y="243.981" xlink:href="#dot"  stroke="#00ebff" />
<use x="157.851" y="183.738" xlink:href="#dot"  stroke="#ffe100" />
<use x="165.914" y="219.035" xlink:href="#dot"  stroke="#ff0000" />
<use x="169.568" y="241.78" xlink:href="#dot"  stroke="#00ebff" />
<use x="153.735" y="182.446" xlink:href="#dot"  stroke="#ffe100" />
<use x="157.799" y="218.464" xlink:href="#dot"  stroke="#ff0000" />
<use x="159.548" y="240.415" xlink:href="#dot"  stroke="#00ebff" />
<use x="150" y="182.011" xlink:href="#dot"  stroke="#ffe100" />
<use x="150" y="218.272" xlink:href="#dot"  stroke="#ff0000" />
<use x="150" y="239.953" xlink:href="#dot"  stroke="#00ebff" />
<use x="146.265" y="182.446" xlink:href="#dot"  stroke="#ffe100" />
<use x="142.201" y="218.464" xlink:href="#dot"  stroke="#ff0000" />
<use x="140.452" y="240.415" xlink:href="#dot"  stroke="#00ebff" />
<use x="142.149" y="183.738" xlink:href="#dot"  stroke="#ffe100" />
<use x="134.086" y="219.035" xlink:href="#dot"  stroke="#ff0000" />
<use x="130.432" y="241.78" xlink:href="#dot"  stroke="#00ebff" />
<use x="137.244" y="185.85" xlink:href="#dot"  stroke="#ffe100" />
<use x="125.312" y="219.962" xlink:href="#dot"  stroke="#ff0000" />
<use x="119.453" y="243.981" xlink:href="#dot"  stroke="#00ebff" />
<use x="131.098" y="188.714" xlink:href="#dot"  stroke="#ffe100" />
<use x="115.485" y="221.199" xlink:href="#dot"  stroke="#ff0000" />
<use x="106.986" y="246.898" xlink:href="#dot"  stroke="#00ebff" />
<use x="193.323" y="171.555" xlink:href="#dot"  stroke="#ffe100" />
<use x="223.487" y="191.791" xlink:href="#dot"  stroke="#ff0000" />
<use x="237.793" y="213.891" xlink:href="#dot"  stroke="#00ebff" />
<use x="179.843" y="169.245" xlink:href="#dot"  stroke="#ffe100" />
<use x="207.289" y="192.735" xlink:href="#dot"  stroke="#ff0000" />
<use x="217.625" y="212.28" xlink:href="#dot"  stroke="#00ebff" />
<use x="170.048" y="166.425" xlink:href="#dot"  stroke="#ffe100" />
<use x="194.403" y="192.878" xlink:href="#dot"  stroke="#ff0000" />
<use x="201.474" y="209.801" xlink:href="#dot"  stroke="#00ebff" />
<use x="163.094" y="163.548" xlink:href="#dot"  stroke="#ffe100" />
<use x="184.003" y="192.617" xlink:href="#dot"  stroke="#ff0000" />
<use x="188.534" y="207.004" xlink:href="#dot"  stroke="#00ebff" />
<use x="158.27" y="160.918" xlink:href="#dot"  stroke="#ffe100" />
<use x="175.414" y="192.205" xlink:href="#dot"  stroke="#ff0000" />
<use x="178.093" y="204.288" xlink:href="#dot"  stroke="#00ebff" />
<use x="154.993" y="158.731" xlink:href="#dot"  stroke="#ffe100" />
<use x="168.101" y="191.793" xlink:href="#dot"  stroke="#ff0000" />
<use x="169.533" y="201.936" xlink:href="#dot"  stroke="#00ebff" />
<use x="152.78" y="157.106" xlink:href="#dot"  stroke="#ffe100" />
<use x="161.64" y="191.463" xlink:href="#dot"  stroke="#ff0000" />
<use x="162.312" y="200.138" xlink:href="#dot"  stroke="#00ebff" />
<use x="151.231" y="156.109" xlink:href="#dot"  stroke="#ffe100" />
<use x="155.698" y="191.254" xlink:href="#dot"  stroke="#ff0000" />
<use x="155.947" y="199.016" xlink:href="#dot"  stroke="#00ebff" />
<use x="150" y="155.773" xlink:href="#dot"  stroke="#ffe100" />
<use x="150" y="191.183" xlink:href="#dot"  stroke="#ff0000" />
<use x="150" y="198.634" xlink:href="#dot"  stroke="#00ebff" />
<use x="148.769" y="156.109" xlink:href="#dot"  stroke="#ffe100" />
<use x="144.302" y="191.254" xlink:href="#dot"  stroke="#ff0000" />
<use x="144.053" y="199.016" xlink:href="#dot"  stroke="#00ebff" />
<use x="147.22" y="157.106" xlink:href="#dot"  stroke="#ffe100" />
<use x="138.36" y="191.463" xlink:href="#dot"  stroke="#ff0000" />
<use x="137.688" y="200.138" xlink:href="#dot"  stroke="#00ebff" />
<use x="145.007" y="158.731" xlink:href="#dot"  stroke="#ffe100" />
<use x="131.899" y="191.793" xlink:href="#dot"  stroke="#ff0000" />
<use x="130.467" y="201.936" xlink:href="#dot"  stroke="#00ebff" />
<use x="141.73" y="160.918" xlink:href="#dot"  stroke="#ffe100" />
<use x="124.586" y="192.205" xlink:href="#dot"  stroke="#ff0000" />
<use x="121.907" y="204.288" xlink:href="#dot"  stroke="#00ebff" />
<use x="136.906" y="163.548" xlink:href="#dot"  stroke="#ffe100" />
<use x="115.997" y="192.617" xlink:href="#dot"  stroke="#ff0000" />
<use x="111.466" y="207.004" xlink:href="#dot"  stroke="#00ebff" />
<use x="129.952" y="166.425" xlink:href="#dot"  stroke="#ffe100" />
<use x="105.597" y="192.878" xlink:href="#dot"  stroke="#ff0000" />
<use x="98.5259" y="209.801" xlink:href="#dot"  stroke="#00ebff" />
<use x="120.157" y="169.245" xlink:href="#dot"  stroke="#ffe100" />
<use x="92.7115" y="192.735" xlink:href="#dot"  stroke="#ff0000" />
<use x="82.3755" y="212.28" xlink:href="#dot"  stroke="#00ebff" />
<use x="106.677" y="171.555" xlink:href="#dot"  stroke="#ffe100" />
<use x="76.513" y="191.791" xlink:href="#dot"  stroke="#ff0000" />
<use x="62.2074" y="213.891" xlink:href="#dot"  stroke="#00ebff" />
<use x="216.475" y="150.315" xlink:href="#dot"  stroke="#ffe100" />
<use x="253.169" y="159.398" xlink:href="#dot"  stroke="#ff0000" />
<use x="266.681" y="179.049" xlink:href="#dot"  stroke="#00ebff" />
<use x="195.123" y="153.825" xlink:href="#dot"  stroke="#ffe100" />
<use x="229.786" y="166.869" xlink:href="#dot"  stroke="#ff0000" />
<use x="238.999" y="184.165" xlink:href="#dot"  stroke="#00ebff" />
<use x="179.457" y="154.74" xlink:href="#dot"  stroke="#ffe100" />
<use x="211.694" y="171.551" xlink:href="#dot"  stroke="#ff0000" />
<use x="217.112" y="186.156" xlink:href="#dot"  stroke="#00ebff" />
<use x="168.31" y="154.089" xlink:href="#dot"  stroke="#ffe100" />
<use x="197.702" y="174.419" xlink:href="#dot"  stroke="#ff0000" />
<use x="200.012" y="186.12" xlink:href="#dot"  stroke="#00ebff" />
<use x="160.667" y="152.615" xlink:href="#dot"  stroke="#ffe100" />
<use x="186.794" y="176.154" xlink:href="#dot"  stroke="#ff0000" />
<use x="186.78" y="184.89" xlink:href="#dot"  stroke="#00ebff" />
<use x="155.671" y="150.832" xlink:href="#dot"  stroke="#ffe100" />
<use x="178.134" y="177.21" xlink:href="#dot"  stroke="#ff0000" />
<use x="176.603" y="183.085" xlink:href="#dot"  stroke="#00ebff" />
<use x="152.613" y="149.08" xlink:href="#dot"  stroke="#ffe100" />
<use x="171.054" y="177.87" xlink:href="#dot"  stroke="#ff0000" />
<use x="168.772" y="181.149" xlink:href="#dot"  stroke="#00ebff" />
<use x="150.926" y="147.573" xlink:href="#dot"  stroke="#ffe100" />
<use x="165.038" y="178.296" xlink:href="#dot"  stroke="#ff0000" />
<use x="162.682" y="179.389" xlink:href="#dot"  stroke="#00ebff" />
<use x="150.156" y="146.435" xlink:href="#dot"  stroke="#ffe100" />
<use x="159.702" y="178.569" xlink:href="#dot"  stroke="#ff0000" />
<use x="157.814" y="178.009" xlink:href="#dot"  stroke="#00ebff" />
<use x="149.946" y="145.732" xlink:href="#dot"  stroke="#ffe100" />
<use x="154.761" y="178.726" xlink:href="#dot"  stroke="#ff0000" />
<use x="153.72" y="177.135" xlink:href="#dot"  stroke="#00ebff" />
<use x="150" y="145.494" xlink:href="#dot"  stroke="#ffe100" />
<use x="150" y="178.777" xlink:href="#dot"  stroke="#ff0000" />
<use x="150" y="176.837" xlink:href="#dot"  stroke="#00ebff" />
<use x="150.054" y="145.732" xlink:href="#dot"  stroke="#ffe100" />
<use x="145.239" y="178.726" xlink:href="#dot"  stroke="#ff0000" />
<use x="146.28" y="177.135" xlink:href="#dot"  stroke="#00ebff" />
<use x="149.844" y="146.435" xlink:href="#dot"  stroke="#ffe100" />
<use x="140.298" y="178.569" xlink:href="#dot"  stroke="#ff0000" />
<use x="142.186" y="178.009" xlink:href="#dot"  stroke="#00ebff" />
<use x="149.074" y="147.573" xlink:href="#dot"  stroke="#ffe100" />
<use x="134.962" y="178.296" xlink:href="#dot"  stroke="#ff0000" />
<use x="137.318" y="179.389" xlink:href="#dot"  stroke="#00ebff" />
<use x="147.387" y="149.08" xlink:href="#dot"  stroke="#ffe100" />
<use x="128.946" y="177.87" xlink:href="#dot"  stroke="#ff0000" />
<use x="131.228" y="181.149" xlink:href="#dot"  stroke="#00ebff" />
<use x="144.329" y="150.832" xlink:href="#dot"  stroke="#ffe100" />
<use x="121.866" y="177.21" xlink:href="#dot"  stroke="#ff0000" />
<use x="123.397" y="183.085" xlink:href="#dot"  stroke="#00ebff" />
<use x="139.333" y="152.615" xlink:href="#dot"  stroke="#ffe100" />
<use x="113.206" y="176.154" xlink:href="#dot"  stroke="#ff0000" />
<use x="113.22" y="184.89" xlink:href="#dot"  stroke="#00ebff" />
<use x="131.69" y="154.089" xlink:href="#dot"  stroke="#ffe100" />
<use x="102.298" y="174.419" xlink:href="#dot"  stroke="#ff0000" />
<use x="99.9883" y="186.12" xlink:href="#dot"  stroke="#00ebff" />
<use x="120.543" y="154.74" xlink:href="#dot"  stroke="#ffe100" />
<use x="88.3059" y="171.551" xlink:href="#dot"  stroke="#ff0000" />
<use x="82.8881" y="186.156" xlink:href="#dot"  stroke="#00ebff" />
<use x="104.877" y="153.825" xlink:href="#dot"  stroke="#ffe100" />
<use x="70.2137" y="166.869" xlink:href="#dot"  stroke="#ff0000" />
<use x="61.0014" y="184.165" xlink:href="#dot"  stroke="#00ebff" />
<use x="83.5251" y="150.315" xlink:href="#dot"  stroke="#ffe100" />
<use x="46.8312" y="159.398" xlink:href="#dot"  stroke="#ff0000" />
<use x="33.3187" y="179.049" xlink:href="#dot"  stroke="#00ebff" />
<use x="208.044" y="136.431" xlink:href="#dot"  stroke="#ffe100" />
<use x="246.247" y="140.408" xlink:href="#dot"  stroke="#ff0000" />
<use x="251.315" y="156.873" xlink:href="#dot"  stroke="#00ebff" />
<use x="187.867" y="143.19" xlink:href="#dot"  stroke="#ffe100" />
<use x="224.085" y="151.408" xlink:href="#dot"  stroke="#ff0000" />
<use x="225.428" y="165.263" xlink:href="#dot"  stroke="#00ebff" />
<use x="173.373" y="146.59" xlink:href="#dot"  stroke="#ffe100" />
<use x="207.167" y="158.851" xlink:href="#dot"  stroke="#ff0000" />
<use x="205.319" y="169.75" xlink:href="#dot"  stroke="#00ebff" />
<use x="163.36" y="147.863" xlink:href="#dot"  stroke="#ffe100" />
<use x="194.262" y="163.911" xlink:href="#dot"  stroke="#ff0000" />
<use x="189.965" y="171.624" xlink:href="#dot"  stroke="#00ebff" />
<use x="156.774" y="147.897" xlink:href="#dot"  stroke="#ffe100" />
<use x="184.314" y="167.41" xlink:href="#dot"  stroke="#ff0000" />
<use x="178.423" y="171.867" xlink:href="#dot"  stroke="#00ebff" />
<use x="152.722" y="147.305" xlink:href="#dot"  stroke="#ffe100" />
<use x="176.452" y="169.891" xlink:href="#dot"  stroke="#ff0000" />
<use x="169.854" y="171.199" xlink:href="#dot"  stroke="#00ebff" />
<use x="150.477" y="146.488" xlink:href="#dot"  stroke="#ffe100" />
<use x="169.993" y="171.692" xlink:href="#dot"  stroke="#ff0000" />
<use x="163.538" y="170.134" xlink:href="#dot"  stroke="#00ebff" />
<use x="149.469" y="145.694" xlink:href="#dot"  stroke="#ffe100" />
<use x="164.425" y="172.999" xlink:href="#dot"  stroke="#ff0000" />
<use x="158.864" y="169.024" xlink:href="#dot"  stroke="#00ebff" />
<use x="149.26" y="145.061" xlink:href="#dot"  stroke="#ffe100" />
<use x="159.387" y="173.904" xlink:href="#dot"  stroke="#ff0000" />
<use x="155.325" y="168.096" xlink:href="#dot"  stroke="#00ebff" />
<use x="149.522" y="144.66" xlink:href="#dot"  stroke="#ffe100" />
<use x="154.633" y="174.441" xlink:href="#dot"  stroke="#ff0000" />
<use x="152.493" y="167.491" xlink:href="#dot"  stroke="#00ebff" />
<use x="150" y="144.524" xlink:href="#dot"  stroke="#ffe100" />
<use x="150" y="174.62" xlink:href="#dot"  stroke="#ff0000" />
<use x="150" y="167.281" xlink:href="#dot"  stroke="#00ebff" />
<use x="150.478" y="144.66" xlink:href="#dot"  stroke="#ffe100" />
<use x="145.367" y="174.441" xlink:href="#dot"  stroke="#ff0000" />
<use x="147.507" y="167.491" xlink:href="#dot"  stroke="#00ebff" />
<use x="150.74" y="145.061" xlink:href="#dot"  stroke="#ffe100" />
<use x="140.613" y="173.904" xlink:href="#dot"  stroke="#ff0000" />
<use x="144.675" y="168.096" xlink:href="#dot"  stroke="#00ebff" />
<use x="150.531" y="145.694" xlink:href="#dot"  stroke="#ffe100" />
<use x="135.575" y="172.999" xlink:href="#dot"  stroke="#ff0000" />
<use x="141.136" y="169.024" xlink:href="#dot"  stroke="#00ebff" />
<use x="149.523" y="146.488" xlink:href="#dot"  stroke="#ffe100" />
<use x="130.007" y="171.692" xlink:href="#dot"  stroke="#ff0000" />
<use x="136.462" y="170.134" xlink:href="#dot"  stroke="#00ebff" />
<use x="147.278" y="147.305" xlink:href="#dot"  stroke="#ffe100" />
<use x="123.548" y="169.891" xlink:href="#dot"  stroke="#ff0000" />
<use x="130.146" y="171.199" xlink:href="#dot"  stroke="#00ebff" />
<use x="143.226" y="147.897" xlink:href="#dot"  stroke="#ffe100" />
<use x="115.686" y="167.41" xlink:href="#dot"  stroke="#ff0000" />
<use x="121.577" y="171.867" xlink:href="#dot"  stroke="#00ebff" />
<use x="136.64" y="147.863" xlink:href="#dot"  stroke="#ffe100" />
<use x="105.738" y="163.911" xlink:href="#dot"  stroke="#ff0000" />
<use x="110.035" y="171.624" xlink:href="#dot"  stroke="#00ebff" />
<use x="126.627" y="146.59" xlink:href="#dot"  stroke="#ffe100" />
<use x="92.8332" y="158.851" xlink:href="#dot"  stroke="#ff0000" />
<use x="94.6806" y="169.75" xlink:href="#dot"  stroke="#00ebff" />
<use x="112.133" y="143.19" xlink:href="#dot"  stroke="#ffe100" />
<use x="75.9149" y="151.408" xlink:href="#dot"  stroke="#ff0000" />
<use x="74.5724" y="165.263" xlink:href="#dot"  stroke="#00ebff" />
<use x="91.9561" y="136.431" xlink:href="#dot"  stroke="#ffe100" />
<use x="53.7529" y="140.408" xlink:href="#dot"  stroke="#ff0000" />
<use x="48.6853" y="156.873" xlink:href="#dot"  stroke="#00ebff" />
<use x="187.345" y="135.584" xlink:href="#dot"  stroke="#ffe100" />
<use x="224.502" y="138.007" xlink:href="#dot"  stroke="#ff0000" />
<use x="219.68" y="151.411" xlink:href="#dot"  stroke="#00ebff" />
<use x="172.96" y="142.117" xlink:href="#dot"  stroke="#ffe100" />
<use x="207.785" y="148.861" xlink:href="#dot"  stroke="#ff0000" />
<use x="200.21" y="159.129" xlink:href="#dot"  stroke="#00ebff" />
<use x="163.138" y="145.738" xlink:href="#dot"  stroke="#ffe100" />
<use x="195.111" y="156.545" xlink:href="#dot"  stroke="#ff0000" />
<use x="185.555" y="163.42" xlink:href="#dot"  stroke="#00ebff" />
<use x="156.771" y="147.55" xlink:href="#dot"  stroke="#ffe100" />
<use x="185.367" y="162.089" xlink:href="#dot"  stroke="#ff0000" />
<use x="174.744" y="165.473" xlink:href="#dot"  stroke="#00ebff" />
<use x="152.913" y="148.316" xlink:href="#dot"  stroke="#ffe100" />
<use x="177.628" y="166.179" xlink:href="#dot"  stroke="#ff0000" />
<use x="166.904" y="166.164" xlink:href="#dot"  stroke="#00ebff" />
<use x="150.794" y="148.537" xlink:href="#dot"  stroke="#ffe100" />
<use x="171.172" y="169.239" xlink:href="#dot"  stroke="#ff0000" />
<use x="161.282" y="166.113" xlink:href="#dot"  stroke="#00ebff" />
<use x="149.822" y="148.517" xlink:href="#dot"  stroke="#ffe100" />
<use x="165.47" y="171.506" xlink:href="#dot"  stroke="#ff0000" />
<use x="157.247" y="165.742" xlink:href="#dot"  stroke="#00ebff" />
<use x="149.558" y="148.425" xlink:href="#dot"  stroke="#ffe100" />
<use x="160.168" y="173.091" xlink:href="#dot"  stroke="#ff0000" />
<use x="154.288" y="165.321" xlink:href="#dot"  stroke="#00ebff" />
<use x="149.691" y="148.347" xlink:href="#dot"  stroke="#ffe100" />
<use x="155.05" y="174.036" xlink:href="#dot"  stroke="#ff0000" />
<use x="151.988" y="165.012" xlink:href="#dot"  stroke="#00ebff" />
<use x="150" y="148.317" xlink:href="#dot"  stroke="#ffe100" />
<use x="150" y="174.351" xlink:href="#dot"  stroke="#ff0000" />
<use x="150" y="164.9" xlink:href="#dot"  stroke="#00ebff" />
<use x="150.309" y="148.347" xlink:href="#dot"  stroke="#ffe100" />
<use x="144.95" y="174.036" xlink:href="#dot"  stroke="#ff0000" />
<use x="148.012" y="165.012" xlink:href="#dot"  stroke="#00ebff" />
<use x="150.442" y="148.425" xlink:href="#dot"  stroke="#ffe100" />
<use x="139.832" y="173.091" xlink:href="#dot"  stroke="#ff0000" />
<use x="145.712" y="165.321" xlink:href="#dot"  stroke="#00ebff" />
<use x="150.178" y="148.517" xlink:href="#dot"  stroke="#ffe100" />
<use x="134.53" y="171.506" xlink:href="#dot"  stroke="#ff0000" />
<use x="142.753" y="165.742" xlink:href="#dot"  stroke="#00ebff" />
<use x="149.206" y="148.537" xlink:href="#dot"  stroke="#ffe100" />
<use x="128.828" y="169.239" xlink:href="#dot"  stroke="#ff0000" />
<use x="138.718" y="166.113" xlink:href="#dot"  stroke="#00ebff" />
<use x="147.087" y="148.316" xlink:href="#dot"  stroke="#ffe100" />
<use x="122.372" y="166.179" xlink:href="#dot"  stroke="#ff0000" />
<use x="133.096" y="166.164" xlink:href="#dot"  stroke="#00ebff" />
<use x="143.229" y="147.55" xlink:href="#dot"  stroke="#ffe100" />
<use x="114.633" y="162.089" xlink:href="#dot"  stroke="#ff0000" />
<use x="125.256" y="165.473" xlink:href="#dot"  stroke="#00ebff" />
<use x="136.862" y="145.738" xlink:href="#dot"  stroke="#ffe100" />
<use x="104.889" y="156.545" xlink:href="#dot"  stroke="#ff0000" />
<use x="114.445" y="163.42" xlink:href="#dot"  stroke="#00ebff" />
<use x="127.04" y="142.117" xlink:href="#dot"  stroke="#ffe100" />
<use x="92.2154" y="148.861" xlink:href="#dot"  stroke="#ff0000" />
<use x="99.7904" y="159.129" xlink:href="#dot"  stroke="#00ebff" />
<use x="112.655" y="135.584" xlink:href="#dot"  stroke="#ffe100" />
<use x="75.4981" y="138.007" xlink:href="#dot"  stroke="#ff0000" />
<use x="80.3199" y="151.411" xlink:href="#dot"  stroke="#00ebff" />
<use x="191.888" y="126.901" xlink:href="#dot"  stroke="#ffe100" />
<use x="229.325" y="122.69" xlink:href="#dot"  stroke="#ff0000" />
<use x="219.968" y="138.011" xlink:href="#dot"  stroke="#00ebff" />
<use x="176.725" y="137.565" xlink:href="#dot"  stroke="#ffe100" />
<use x="212.021" y="137.956" xlink:href="#dot"  stroke="#ff0000" />
<use x="200.201" y="150.047" xlink:href="#dot"  stroke="#00ebff" />
<use x="166.315" y="144.205" xlink:href="#dot"  stroke="#ffe100" />
<use x="198.898" y="148.944" xlink:href="#dot"  stroke="#ff0000" />
<use x="185.385" y="157.512" xlink:href="#dot"  stroke="#00ebff" />
<use x="159.498" y="148.229" xlink:href="#dot"  stroke="#ffe100" />
<use x="188.782" y="156.984" xlink:href="#dot"  stroke="#ff0000" />
<use x="174.534" y="161.887" xlink:href="#dot"  stroke="#00ebff" />
<use x="155.26" y="150.629" xlink:href="#dot"  stroke="#ffe100" />
<use x="180.677" y="162.977" xlink:href="#dot"  stroke="#ff0000" />
<use x="166.731" y="164.274" xlink:href="#dot"  stroke="#00ebff" />
<use x="152.769" y="152.057" xlink:href="#dot"  stroke="#ffe100" />
<use x="173.797" y="167.489" xlink:href="#dot"  stroke="#ff0000" />
<use x="161.178" y="165.454" xlink:href="#dot"  stroke="#00ebff" />
<use x="151.384" y="152.915" xlink:href="#dot"  stroke="#ffe100" />
<use x="167.576" y="170.84" xlink:href="#dot"  stroke="#ff0000" />
<use x="157.207" y="165.958" xlink:href="#dot"  stroke="#00ebff" />
<use x="150.648" y="153.426" xlink:href="#dot"  stroke="#ffe100" />
<use x="161.648" y="173.184" xlink:href="#dot"  stroke="#ff0000" />
<use x="154.287" y="166.125" xlink:href="#dot"  stroke="#00ebff" />
<use x="150.253" y="153.702" xlink:href="#dot"  stroke="#ffe100" />
<use x="155.816" y="174.581" xlink:href="#dot"  stroke="#ff0000" />
<use x="151.997" y="166.157" xlink:href="#dot"  stroke="#00ebff" />
<use x="150" y="153.79" xlink:href="#dot"  stroke="#ffe100" />
<use x="150" y="175.047" xlink:href="#dot"  stroke="#ff0000" />
<use x="150" y="166.157" xlink:href="#dot"  stroke="#00ebff" />
<use x="149.747" y="153.702" xlink:href="#dot"  stroke="#ffe100" />
<use x="144.184" y="174.581" xlink:href="#dot"  stroke="#ff0000" />
<use x="148.003" y="166.157" xlink:href="#dot"  stroke="#00ebff" />
<use x="149.352" y="153.426" xlink:href="#dot"  stroke="#ffe100" />
<use x="138.352" y="173.184" xlink:href="#dot"  stroke="#ff0000" />
<use x="145.713" y="166.125" xlink:href="#dot"  stroke="#00ebff" />
<use x="148.616" y="152.915" xlink:href="#dot"  stroke="#ffe100" />
<use x="132.424" y="170.84" xlink:href="#dot"  stroke="#ff0000" />
<use x="142.793" y="165.958" xlink:href="#dot"  stroke="#00ebff" />
<use x="147.231" y="152.057" xlink:href="#dot"  stroke="#ffe100" />
<use x="126.203" y="167.489" xlink:href="#dot"  stroke="#ff0000" />
<use x="138.822" y="165.454" xlink:href="#dot"  stroke="#00ebff" />
<use x="144.74" y="150.629" xlink:href="#dot"  stroke="#ffe100" />
<use x="119.323" y="162.977" xlink:href="#dot"  stroke="#ff0000" />
<use x="133.269" y="164.274" xlink:href="#dot"  stroke="#00ebff" />
<use x="140.502" y="148.229" xlink:href="#dot"  stroke="#ffe100" />
<use x="111.218" y="156.984" xlink:href="#dot"  stroke="#ff0000" />
<use x="125.466" y="161.887" xlink:href="#dot"  stroke="#00ebff" />
<use x="133.685" y="144.205" xlink:href="#dot"  stroke="#ffe100" />
<use x="101.102" y="148.944" xlink:href="#dot"  stroke="#ff0000" />
<use x="114.615" y="157.512" xlink:href="#dot"  stroke="#00ebff" />
<use x="123.275" y="137.565" xlink:href="#dot"  stroke="#ffe100" />
<use x="87.9789" y="137.956" xlink:href="#dot"  stroke="#ff0000" />
<use x="99.7992" y="150.047" xlink:href="#dot"  stroke="#00ebff" />
<use x="108.112" y="126.901" xlink:href="#dot"  stroke="#ffe100" />
<use x="70.6754" y="122.69" xlink:href="#dot"  stroke="#ff0000" />
<use x="80.0325" y="138.011" xlink:href="#dot"  stroke="#00ebff" />
<use x="183.636" y="129.797" xlink:href="#dot"  stroke="#ffe100" />
<use x="218.785" y="123.106" xlink:href="#dot"  stroke="#ff0000" />
<use x="204.161" y="138.907" xlink:href="#dot"  stroke="#00ebff" />
<use x="171.965" y="140.517" xlink:href="#dot"  stroke="#ffe100" />
<use x="204.655" y="138.473" xlink:href="#dot"  stroke="#ff0000" />
<use x="188.465" y="150.704" xlink:href="#dot"  stroke="#00ebff" />
<use x="164.132" y="147.459" xlink:href="#dot"  stroke="#ffe100" />
<use x="193.708" y="149.731" xlink:href="#dot"  stroke="#ff0000" />
<use x="176.923" y="158.194" xlink:href="#dot"  stroke="#00ebff" />
<use x="159.055" y="151.942" xlink:href="#dot"  stroke="#ffe100" />
<use x="184.873" y="158.104" xlink:href="#dot"  stroke="#ff0000" />
<use x="168.592" y="162.802" xlink:href="#dot"  stroke="#00ebff" />
<use x="155.819" y="154.86" xlink:href="#dot"  stroke="#ffe100" />
<use x="177.282" y="164.379" xlink:href="#dot"  stroke="#ff0000" />
<use x="162.618" y="165.553" xlink:href="#dot"  stroke="#00ebff" />
<use x="153.712" y="156.769" xlink:href="#dot"  stroke="#ffe100" />
<use x="170.301" y="169.016" xlink:href="#dot"  stroke="#ff0000" />
<use x="158.282" y="167.145" xlink:href="#dot"  stroke="#00ebff" />
<use x="152.232" y="157.985" xlink:href="#dot"  stroke="#ffe100" />
<use x="163.532" y="172.246" xlink:href="#dot"  stroke="#ff0000" />
<use x="155.01" y="168.028" xlink:href="#dot"  stroke="#00ebff" />
<use x="151.057" y="158.67" xlink:href="#dot"  stroke="#ffe100" />
<use x="156.781" y="174.166" xlink:href="#dot"  stroke="#ff0000" />
<use x="152.362" y="168.468" xlink:href="#dot"  stroke="#00ebff" />
<use x="150" y="158.892" xlink:href="#dot"  stroke="#ffe100" />
<use x="150" y="174.804" xlink:href="#dot"  stroke="#ff0000" />
<use x="150" y="168.601" xlink:href="#dot"  stroke="#00ebff" />
<use x="148.943" y="158.67" xlink:href="#dot"  stroke="#ffe100" />
<use x="143.219" y="174.166" xlink:href="#dot"  stroke="#ff0000" />
<use x="147.638" y="168.468" xlink:href="#dot"  stroke="#00ebff" />
<use x="147.768" y="157.985" xlink:href="#dot"  stroke="#ffe100" />
<use x="136.468" y="172.246" xlink:href="#dot"  stroke="#ff0000" />
<use x="144.99" y="168.028" xlink:href="#dot"  stroke="#00ebff" />
<use x="146.288" y="156.769" xlink:href="#dot"  stroke="#ffe100" />
<use x="129.699" y="169.016" xlink:href="#dot"  stroke="#ff0000" />
<use x="141.718" y="167.145" xlink:href="#dot"  stroke="#00ebff" />
<use x="144.181" y="154.86" xlink:href="#dot"  stroke="#ffe100" />
<use x="122.718" y="164.379" xlink:href="#dot"  stroke="#ff0000" />
<use x="137.382" y="165.553" xlink:href="#dot"  stroke="#00ebff" />
<use x="140.945" y="151.942" xlink:href="#dot"  stroke="#ffe100" />
<use x="115.127" y="158.104" xlink:href="#dot"  stroke="#ff0000" />
<use x="131.408" y="162.802" xlink:href="#dot"  stroke="#00ebff" />
<use x="135.868" y="147.459" xlink:href="#dot"  stroke="#ffe100" />
<use x="106.292" y="149.731" xlink:href="#dot"  stroke="#ff0000" />
<use x="123.077" y="158.194" xlink:href="#dot"  stroke="#00ebff" />
<use x="128.035" y="140.517" xlink:href="#dot"  stroke="#ffe100" />
<use x="95.3453" y="138.473" xlink:href="#dot"  stroke="#ff0000" />
<use x="111.535" y="150.704" xlink:href="#dot"  stroke="#00ebff" />
<use x="116.364" y="129.797" xlink:href="#dot"  stroke="#ffe100" />
<use x="81.2146" y="123.106" xlink:href="#dot"  stroke="#ff0000" />
<use x="95.8391" y="138.907" xlink:href="#dot"  stroke="#00ebff" />
<use x="192.984" y="115.682" xlink:href="#dot"  stroke="#ffe100" />
<use x="227.268" y="101.269" xlink:href="#dot"  stroke="#ff0000" />
<use x="211.241" y="122.151" xlink:href="#dot"  stroke="#00ebff" />
<use x="179.486" y="132.18" xlink:href="#dot"  stroke="#ffe100" />
<use x="211.704" y="122.72" xlink:href="#dot"  stroke="#ff0000" />
<use x="194.106" y="140.068" xlink:href="#dot"  stroke="#00ebff" />
<use x="170.132" y="143.191" xlink:href="#dot"  stroke="#ffe100" />
<use x="199.553" y="138.374" xlink:href="#dot"  stroke="#ff0000" />
<use x="181.319" y="151.929" xlink:href="#dot"  stroke="#00ebff" />
<use x="163.815" y="150.512" xlink:href="#dot"  stroke="#ffe100" />
<use x="189.706" y="149.911" xlink:href="#dot"  stroke="#ff0000" />
<use x="171.972" y="159.603" xlink:href="#dot"  stroke="#00ebff" />
<use x="159.536" y="155.396" xlink:href="#dot"  stroke="#ffe100" />
<use x="181.203" y="158.464" xlink:href="#dot"  stroke="#ff0000" />
<use x="165.173" y="164.472" xlink:href="#dot"  stroke="#00ebff" />
<use x="156.487" y="158.649" xlink:href="#dot"  stroke="#ffe100" />
<use x="173.322" y="164.718" xlink:href="#dot"  stroke="#ff0000" />
<use x="160.136" y="167.497" xlink:href="#dot"  stroke="#00ebff" />
<use x="154.093" y="160.745" xlink:href="#dot"  stroke="#ffe100" />
<use x="165.604" y="169.04" xlink:href="#dot"  stroke="#ff0000" />
<use x="156.228" y="169.301" xlink:href="#dot"  stroke="#00ebff" />
<use x="151.995" y="161.93" xlink:href="#dot"  stroke="#ffe100" />
<use x="157.839" y="171.596" xlink:href="#dot"  stroke="#ff0000" />
<use x="152.969" y="170.257" xlink:href="#dot"  stroke="#00ebff" />
<use x="150" y="162.315" xlink:href="#dot"  stroke="#ffe100" />
<use x="150" y="172.444" xlink:href="#dot"  stroke="#ff0000" />
<use x="150" y="170.556" xlink:href="#dot"  stroke="#00ebff" />
<use x="148.005" y="161.93" xlink:href="#dot"  stroke="#ffe100" />
<use x="142.161" y="171.596" xlink:href="#dot"  stroke="#ff0000" />
<use x="147.031" y="170.257" xlink:href="#dot"  stroke="#00ebff" />
<use x="145.907" y="160.745" xlink:href="#dot"  stroke="#ffe100" />
<use x="134.396" y="169.04" xlink:href="#dot"  stroke="#ff0000" />
<use x="143.772" y="169.301" xlink:href="#dot"  stroke="#00ebff" />
<use x="143.513" y="158.649" xlink:href="#dot"  stroke="#ffe100" />
<use x="126.678" y="164.718" xlink:href="#dot"  stroke="#ff0000" />
<use x="139.864" y="167.497" xlink:href="#dot"  stroke="#00ebff" />
<use x="140.464" y="155.396" xlink:href="#dot"  stroke="#ffe100" />
<use x="118.797" y="158.464" xlink:href="#dot"  stroke="#ff0000" />
<use x="134.827" y="164.472" xlink:href="#dot"  stroke="#00ebff" />
<use x="136.185" y="150.512" xlink:href="#dot"  stroke="#ffe100" />
<use x="110.294" y="149.911" xlink:href="#dot"  stroke="#ff0000" />
<use x="128.028" y="159.603" xlink:href="#dot"  stroke="#00ebff" />
<use x="129.868" y="143.191" xlink:href="#dot"  stroke="#ffe100" />
<use x="100.447" y="138.374" xlink:href="#dot"  stroke="#ff0000" />
<use x="118.681" y="151.929" xlink:href="#dot"  stroke="#00ebff" />
<use x="120.514" y="132.18" xlink:href="#dot"  stroke="#ffe100" />
<use x="88.2957" y="122.72" xlink:href="#dot"  stroke="#ff0000" />
<use x="105.894" y="140.068" xlink:href="#dot"  stroke="#00ebff" />
<use x="107.016" y="115.682" xlink:href="#dot"  stroke="#ffe100" />
<use x="72.7317" y="101.269" xlink:href="#dot"  stroke="#ff0000" />
<use x="88.7585" y="122.151" xlink:href="#dot"  stroke="#00ebff" />
<use x="188.484" y="116.343" xlink:href="#dot"  stroke="#ffe100" />
<use x="219.52" y="98.9042" xlink:href="#dot"  stroke="#ff0000" />
<use x="201.776" y="122.345" xlink:href="#dot"  stroke="#00ebff" />
<use x="177.186" y="133.33" xlink:href="#dot"  stroke="#ffe100" />
<use x="205.912" y="120.877" xlink:href="#dot"  stroke="#ff0000" />
<use x="187.334" y="140.586" xlink:href="#dot"  stroke="#00ebff" />
<use x="169.258" y="144.766" xlink:href="#dot"  stroke="#ffe100" />
<use x="194.833" y="136.895" xlink:href="#dot"  stroke="#ff0000" />
<use x="176.55" y="152.714" xlink:href="#dot"  stroke="#00ebff" />
<use x="163.666" y="152.435" xlink:href="#dot"  stroke="#ffe100" />
<use x="185.277" y="148.593" xlink:href="#dot"  stroke="#ff0000" />
<use x="168.568" y="160.613" xlink:href="#dot"  stroke="#00ebff" />
<use x="159.502" y="157.539" xlink:href="#dot"  stroke="#ffe100" />
<use x="176.42" y="157.023" xlink:href="#dot"  stroke="#ff0000" />
<use x="162.551" y="165.644" xlink:href="#dot"  stroke="#00ebff" />
<use x="156.086" y="160.813" xlink:href="#dot"  stroke="#ffe100" />
<use x="167.718" y="162.783" xlink:href="#dot"  stroke="#ff0000" />
<use x="157.788" y="168.712" xlink:href="#dot"  stroke="#00ebff" />
<use x="152.991" y="162.656" xlink:href="#dot"  stroke="#ffe100" />
<use x="158.916" y="166.164" xlink:href="#dot"  stroke="#ff0000" />
<use x="153.737" y="170.364" xlink:href="#dot"  stroke="#00ebff" />
<use x="150" y="163.253" xlink:href="#dot"  stroke="#ffe100" />
<use x="150" y="167.282" xlink:href="#dot"  stroke="#ff0000" />
<use x="150" y="170.886" xlink:href="#dot"  stroke="#00ebff" />
<use x="147.009" y="162.656" xlink:href="#dot"  stroke="#ffe100" />
<use x="141.084" y="166.164" xlink:href="#dot"  stroke="#ff0000" />
<use x="146.263" y="170.364" xlink:href="#dot"  stroke="#00ebff" />
<use x="143.914" y="160.813" xlink:href="#dot"  stroke="#ffe100" />
<use x="132.282" y="162.783" xlink:href="#dot"  stroke="#ff0000" />
<use x="142.212" y="168.712" xlink:href="#dot"  stroke="#00ebff" />
<use x="140.498" y="157.539" xlink:href="#dot"  stroke="#ffe100" />
<use x="123.58" y="157.023" xlink:href="#dot"  stroke="#ff0000" />
<use x="137.449" y="165.644" xlink:href="#dot"  stroke="#00ebff" />
<use x="136.334" y="152.435" xlink:href="#dot"  stroke="#ffe100" />
<use x="114.723" y="148.593" xlink:href="#dot"  stroke="#ff0000" />
<use x="131.432" y="160.613" xlink:href="#dot"  stroke="#00ebff" />
<use x="130.742" y="144.766" xlink:href="#dot"  stroke="#ffe100" />
<use x="105.167" y="136.895" xlink:href="#dot"  stroke="#ff0000" />
<use x="123.45" y="152.714" xlink:href="#dot"  stroke="#00ebff" />
<use x="122.814" y="133.33" xlink:href="#dot"  stroke="#ffe100" />
<use x="94.0883" y="120.877" xlink:href="#dot"  stroke="#ff0000" />
<use x="112.666" y="140.586" xlink:href="#dot"  stroke="#00ebff" />
<use x="111.516" y="116.343" xlink:href="#dot"  stroke="#ffe100" />
<use x="80.4797" y="98.9042" xlink:href="#dot"  stroke="#ff0000" />
<use x="98.224" y="122.345" xlink:href="#dot"  stroke="#00ebff" />
<use x="185.093" y="115.065" xlink:href="#dot"  stroke="#ffe100" />
<use x="212.413" y="94.4701" xlink:href="#dot"  stroke="#ff0000" />
<use x="194.634" y="120.956" xlink:href="#dot"  stroke="#00ebff" />
<use x="175.26" y="132.805" xlink:href="#dot"  stroke="#ffe100" />
<use x="200.018" y="117.194" xlink:href="#dot"  stroke="#ff0000" />
<use x="182.138" y="139.846" xlink:href="#dot"  stroke="#00ebff" />
<use x="168.096" y="144.702" xlink:href="#dot"  stroke="#ffe100" />
<use x="189.326" y="133.542" xlink:href="#dot"  stroke="#ff0000" />
<use x="172.66" y="152.339" xlink:href="#dot"  stroke="#00ebff" />
<use x="162.651" y="152.558" xlink:href="#dot"  stroke="#ffe100" />
<use x="179.464" y="145.121" xlink:href="#dot"  stroke="#ff0000" />
<use x="165.405" y="160.37" xlink:href="#dot"  stroke="#00ebff" />
<use x="158.13" y="157.542" xlink:href="#dot"  stroke="#ffe100" />
<use x="169.785" y="152.917" xlink:href="#dot"  stroke="#ff0000" />
<use x="159.601" y="165.293" xlink:href="#dot"  stroke="#00ebff" />
<use x="154.004" y="160.321" xlink:href="#dot"  stroke="#ffe100" />
<use x="159.97" y="157.449" xlink:href="#dot"  stroke="#ff0000" />
<use x="154.62" y="167.952" xlink:href="#dot"  stroke="#00ebff" />
<use x="150" y="161.216" xlink:href="#dot"  stroke="#ffe100" />
<use x="150" y="158.94" xlink:href="#dot"  stroke="#ff0000" />
<use x="150" y="168.792" xlink:href="#dot"  stroke="#00ebff" />
<use x="145.996" y="160.321" xlink:href="#dot"  stroke="#ffe100" />
<use x="140.03" y="157.449" xlink:href="#dot"  stroke="#ff0000" />
<use x="145.38" y="167.952" xlink:href="#dot"  stroke="#00ebff" />
<use x="141.87" y="157.542" xlink:href="#dot"  stroke="#ffe100" />
<use x="130.215" y="152.917" xlink:href="#dot"  stroke="#ff0000" />
<use x="140.399" y="165.293" xlink:href="#dot"  stroke="#00ebff" />
<use x="137.349" y="152.558" xlink:href="#dot"  stroke="#ffe100" />
<use x="120.536" y="145.121" xlink:href="#dot"  stroke="#ff0000" />
<use x="134.595" y="160.37" xlink:href="#dot"  stroke="#00ebff" />
<use x="131.904" y="144.702" xlink:href="#dot"  stroke="#ffe100" />
<use x="110.674" y="133.542" xlink:href="#dot"  stroke="#ff0000" />
<use x="127.34" y="152.339" xlink:href="#dot"  stroke="#00ebff" />
<use x="124.74" y="132.805" xlink:href="#dot"  stroke="#ffe100" />
<use x="99.9821" y="117.194" xlink:href="#dot"  stroke="#ff0000" />
<use x="117.862" y="139.846" xlink:href="#dot"  stroke="#00ebff" />
<use x="114.907" y="115.065" xlink:href="#dot"  stroke="#ffe100" />
<use x="87.5872" y="94.4701" xlink:href="#dot"  stroke="#ff0000" />
<use x="105.366" y="120.956" xlink:href="#dot"  stroke="#00ebff" />
<use x="181.71" y="111.622" xlink:href="#dot"  stroke="#ffe100" />
<use x="204.931" y="87.7986" xlink:href="#dot"  stroke="#ff0000" />
<use x="188.491" y="117.601" xlink:href="#dot"  stroke="#00ebff" />
<use x="172.809" y="130.33" xlink:href="#dot"  stroke="#ffe100" />
<use x="193.206" y="111.448" xlink:href="#dot"  stroke="#ff0000" />
<use x="177.378" y="137.411" xlink:href="#dot"  stroke="#00ebff" />
<use x="165.92" y="142.598" xlink:href="#dot"  stroke="#ffe100" />
<use x="182.379" y="127.934" xlink:href="#dot"  stroke="#ff0000" />
<use x="168.665" y="150.232" xlink:href="#dot"  stroke="#00ebff" />
<use x="160.206" y="150.277" xlink:href="#dot"  stroke="#ffe100" />
<use x="171.77" y="138.852" xlink:href="#dot"  stroke="#ff0000" />
<use x="161.639" y="158.085" xlink:href="#dot"  stroke="#00ebff" />
<use x="155.02" y="154.505" xlink:href="#dot"  stroke="#ffe100" />
<use x="160.988" y="145.121" xlink:href="#dot"  stroke="#ff0000" />
<use x="155.602" y="162.31" xlink:href="#dot"  stroke="#00ebff" />
<use x="150" y="155.857" xlink:href="#dot"  stroke="#ffe100" />
<use x="150" y="147.171" xlink:href="#dot"  stroke="#ff0000" />
<use x="150" y="163.642" xlink:href="#dot"  stroke="#00ebff" />
<use x="144.98" y="154.505" xlink:href="#dot"  stroke="#ffe100" />
<use x="139.012" y="145.121" xlink:href="#dot"  stroke="#ff0000" />
<use x="144.398" y="162.31" xlink:href="#dot"  stroke="#00ebff" />
<use x="139.794" y="150.277" xlink:href="#dot"  stroke="#ffe100" />
<use x="128.23" y="138.852" xlink:href="#dot"  stroke="#ff0000" />
<use x="138.361" y="158.085" xlink:href="#dot"  stroke="#00ebff" />
<use x="134.08" y="142.598" xlink:href="#dot"  stroke="#ffe100" />
<use x="117.621" y="127.934" xlink:href="#dot"  stroke="#ff0000" />
<use x="131.335" y="150.232" xlink:href="#dot"  stroke="#00ebff" />
<use x="127.191" y="130.33" xlink:href="#dot"  stroke="#ffe100" />
<use x="106.794" y="111.448" xlink:href="#dot"  stroke="#ff0000" />
<use x="122.622" y="137.411" xlink:href="#dot"  stroke="#00ebff" />
<use x="118.29" y="111.622" xlink:href="#dot"  stroke="#ffe100" />
<use x="95.0692" y="87.7986" xlink:href="#dot"  stroke="#ff0000" />
<use x="111.509" y="117.601" xlink:href="#dot"  stroke="#00ebff" />
<use x="177.684" y="105.852" xlink:href="#dot"  stroke="#ffe100" />
<use x="196.511" y="78.7828" xlink:href="#dot"  stroke="#ff0000" />
<use x="182.469" y="111.972" xlink:href="#dot"  stroke="#00ebff" />
<use x="169.336" y="125.686" xlink:href="#dot"  stroke="#ffe100" />
<use x="185.056" y="103.456" xlink:href="#dot"  stroke="#ff0000" />
<use x="172.317" y="132.908" xlink:href="#dot"  stroke="#00ebff" />
<use x="162.35" y="137.992" xlink:href="#dot"  stroke="#ffe100" />
<use x="173.664" y="119.584" xlink:href="#dot"  stroke="#ff0000" />
<use x="163.925" y="145.759" xlink:href="#dot"  stroke="#00ebff" />
<use x="156.059" y="144.677" xlink:href="#dot"  stroke="#ffe100" />
<use x="161.982" y="128.726" xlink:href="#dot"  stroke="#ff0000" />
<use x="156.695" y="152.639" xlink:href="#dot"  stroke="#00ebff" />
<use x="150" y="146.797" xlink:href="#dot"  stroke="#ffe100" />
<use x="150" y="131.694" xlink:href="#dot"  stroke="#ff0000" />
<use x="150" y="154.797" xlink:href="#dot"  stroke="#00ebff" />
<use x="143.941" y="144.677" xlink:href="#dot"  stroke="#ffe100" />
<use x="138.018" y="128.726" xlink:href="#dot"  stroke="#ff0000" />
<use x="143.305" y="152.639" xlink:href="#dot"  stroke="#00ebff" />
<use x="137.65" y="137.992" xlink:href="#dot"  stroke="#ffe100" />
<use x="126.336" y="119.584" xlink:href="#dot"  stroke="#ff0000" />
<use x="136.075" y="145.759" xlink:href="#dot"  stroke="#00ebff" />
<use x="130.664" y="125.686" xlink:href="#dot"  stroke="#ffe100" />
<use x="114.944" y="103.456" xlink:href="#dot"  stroke="#ff0000" />
<use x="127.683" y="132.908" xlink:href="#dot"  stroke="#00ebff" />
<use x="122.316" y="105.852" xlink:href="#dot"  stroke="#ffe100" />
<use x="103.489" y="78.7828" xlink:href="#dot"  stroke="#ff0000" />
<use x="117.531" y="111.972" xlink:href="#dot"  stroke="#00ebff" />
<use x="172.668" y="97.5789" xlink:href="#dot"  stroke="#ffe100" />
<use x="186.893" y="67.2947" xlink:href="#dot"  stroke="#ff0000" />
<use x="175.996" y="103.761" xlink:href="#dot"  stroke="#00ebff" />
<use x="164.59" y="118.543" xlink:href="#dot"  stroke="#ffe100" />
<use x="175.372" y="92.9015" xlink:href="#dot"  stroke="#ff0000" />
<use x="166.461" y="125.856" xlink:href="#dot"  stroke="#00ebff" />
<use x="157.162" y="129.882" xlink:href="#dot"  stroke="#ffe100" />
<use x="162.981" y="107.346" xlink:href="#dot"  stroke="#ff0000" />
<use x="157.938" y="137.725" xlink:href="#dot"  stroke="#00ebff" />
<use x="150" y="133.451" xlink:href="#dot"  stroke="#ffe100" />
<use x="150" y="112.009" xlink:href="#dot"  stroke="#ff0000" />
<use x="150" y="141.435" xlink:href="#dot"  stroke="#00ebff" />
<use x="142.838" y="129.882" xlink:href="#dot"  stroke="#ffe100" />
<use x="137.019" y="107.346" xlink:href="#dot"  stroke="#ff0000" />
<use x="142.062" y="137.725" xlink:href="#dot"  stroke="#00ebff" />
<use x="135.41" y="118.543" xlink:href="#dot"  stroke="#ffe100" />
<use x="124.628" y="92.9015" xlink:href="#dot"  stroke="#ff0000" />
<use x="133.539" y="125.856" xlink:href="#dot"  stroke="#00ebff" />
<use x="127.332" y="97.5789" xlink:href="#dot"  stroke="#ffe100" />
<use x="113.107" y="67.2947" xlink:href="#dot"  stroke="#ff0000" />
<use x="124.004" y="103.761" xlink:href="#dot"  stroke="#00ebff" />
<use x="166.486" y="86.5262" xlink:href="#dot"  stroke="#ffe100" />
<use x="175.985" y="53.1017" xlink:href="#dot"  stroke="#ff0000" />
<use x="168.67" y="92.5731" xlink:href="#dot"  stroke="#00ebff" />
<use x="158.36" y="107.99" xlink:href="#dot"  stroke="#ffe100" />
<use x="163.948" y="78.7901" xlink:href="#dot"  stroke="#ff0000" />
<use x="159.344" y="115.18" xlink:href="#dot"  stroke="#00ebff" />
<use x="150" y="114.809" xlink:href="#dot"  stroke="#ffe100" />
<use x="150" y="87.1816" xlink:href="#dot"  stroke="#ff0000" />
<use x="150" y="122.345" xlink:href="#dot"  stroke="#00ebff" />
<use x="141.64" y="107.99" xlink:href="#dot"  stroke="#ffe100" />
<use x="136.052" y="78.7901" xlink:href="#dot"  stroke="#ff0000" />
<use x="140.656" y="115.18" xlink:href="#dot"  stroke="#00ebff" />
<use x="133.514" y="86.5262" xlink:href="#dot"  stroke="#ffe100" />
<use x="124.015" y="53.1017" xlink:href="#dot"  stroke="#ff0000" />
<use x="131.33" y="92.5731" xlink:href="#dot"  stroke="#00ebff" />
<use x="150" y="89.1928" xlink:href="#dot"  stroke="#ffe100" />
<use x="150" y="55.5896" xlink:href="#dot"  stroke="#ff0000" />
<use x="150" y="95.695" xlink:href="#dot"  stroke="#00ebff" />
</svg>
