<?xml version="1.0" standalone="no"?>
<svg width="640px" height="480px" version="1.1" xmlns="http://www.w3.org/2000/svg" xmlns:xlink="http://www.w3.org/1999/xlink">
<rect x="0" y="0" width="640" height="480"  fill="#ffffff" />
<defs>
<g id="dot">
<line x1="1" y1="1" x2="0" y2="0"  />
</g>
<g id="cross">
<line x1="-3" y1="0" x2="3" y2="0"  />
<line x1="0" y1="-3" x2="0" y2="3"  />
</g>
<g id="square">
<line x1="-3" y1="-3" x2="-3" y2="3"  />
<line x1="-3" y1="3" x2="3" y2="3"  />
<line x1="3" y1="3" x2="3" y2="-3"  />
<line x1="3" y1="-3" x2="-3" y2="-3"  />
</g>
<g id="round">
<ellipse cx="0" cy="0" rx="3" ry="3"  fill="none" /></g>
<g id="triangle">
<line x1="0" y1="-3" x2="-3" y2="3"  />
<line x1="-3" y1="3" x2="3" y2="3"  />
<line x1="0" y1="-3" x2="3" y2="3"  />
</g>
</defs>
<polygon fill="none" stroke="#000000" points="66.0317,430.476 66.0317,49.5238 573.968,49.5238 573.968,430.476 " />
<text style="font-size:12;text-align:center;text-anchor:middle;" x="320" y="473.619" fill="#000000">Distance from spot centroid (um)</text>
<use x="66.0317" y="49.5238" xlink:href="#cross"  stroke="#000000" />
<use x="66.0317" y="430.476" xlink:href="#cross"  stroke="#000000" />
<text style="font-size:12;text-align:center;text-anchor:middle;" x="66.0317" y="448.476" fill="#000000">0</text>
<use x="127.518" y="49.5238" xlink:href="#cross"  stroke="#000000" />
<use x="127.518" y="430.476" xlink:href="#cross"  stroke="#000000" />
<text style="font-size:12;text-align:center;text-anchor:middle;" x="127.518" y="448.476" fill="#000000">100</text>
<use x="189.004" y="49.5238" xlink:href="#cross"  stroke="#000000" />
<use x="189.004" y="430.476" xlink:href="#cross"  stroke="#000000" />
<text style="font-size:12;text-align:center;text-anchor:middle;" x="189.004" y="448.476" fill="#000000">200</text>
<use x="250.491" y="49.5238" xlink:href="#cross"  stroke="#000000" />
<use x="250.491" y="430.476" xlink:href="#cross"  stroke="#000000" />
<text style="font-size:12;text-align:center;text-anchor:middle;" x="250.491" y="448.476" fill="#000000">300</text>
<use x="311.977" y="49.5238" xlink:href="#cross"  stroke="#000000" />
<use x="311.977" y="430.476" xlink:href="#cross"  stroke="#000000" />
<text style="font-size:12;text-align:center;text-anchor:middle;" x="311.977" y="448.476" fill="#000000">400</text>
<use x="373.464" y="49.5238" xlink:href="#cross"  stroke="#000000" />
<use x="373.464" y="430.476" xlink:href="#cross"  stroke="#000000" />
<text style="font-size:12;text-align:center;text-anchor:middle;" x="373.464" y="448.476" fill="#000000">500</text>
<use x="434.95" y="49.5238" xlink:href="#cross"  stroke="#000000" />
<use x="434.95" y="430.476" xlink:href="#cross"  stroke="#000000" />
<text style="font-size:12;text-align:center;text-anchor:middle;" x="434.95" y="448.476" fill="#000000">600</text>
<use x="496.436" y="49.5238" xlink:href="#cross"  stroke="#000000" />
<use x="496.436" y="430.476" xlink:href="#cross"  stroke="#000000" />
<text style="font-size:12;text-align:center;text-anchor:middle;" x="496.436" y="448.476" fill="#000000">700</text>
<use x="557.923" y="49.5238" xlink:href="#cross"  stroke="#000000" />
<use x="557.923" y="430.476" xlink:href="#cross"  stroke="#000000" />
<text style="font-size:12;text-align:center;text-anchor:middle;" x="557.923" y="448.476" fill="#000000">800</text>
<text style="font-size:12;text-align:center;text-anchor:middle;" x="16.5079" y="246" transform="rotate(-90,16.5079,240)" fill="#000000">Encircled intensity</text>
<use x="573.968" y="430.476" xlink:href="#cross"  stroke="#000000" />
<use x="66.0317" y="430.476" xlink:href="#cross"  stroke="#000000" />
<text style="font-size:12;text-align:right;text-anchor:end;" x="60.0317" y="436.476" fill="#000000">0</text>
<use x="573.968" y="388.242" xlink:href="#cross"  stroke="#000000" />
<use x="66.0317" y="388.242" xlink:href="#cross"  stroke="#000000" />
<text style="font-size:12;text-align:right;text-anchor:end;" x="60.0317" y="394.242" fill="#000000">50</text>
<use x="573.968" y="346.008" xlink:href="#cross"  stroke="#000000" />
<use x="66.0317" y="346.008" xlink:href="#cross"  stroke="#000000" />
<text style="font-size:12;text-align:right;text-anchor:end;" x="60.0317" y="352.008" fill="#000000">100</text>
<use x="573.968" y="303.774" xlink:href="#cross"  stroke="#000000" />
<use x="66.0317" y="303.774" xlink:href="#cross"  stroke="#000000" />
<text style="font-size:12;text-align:right;text-anchor:end;" x="60.0317" y="309.774" fill="#000000">150</text>
<use x="573.968" y="261.539" xlink:href="#cross"  stroke="#000000" />
<use x="66.0317" y="261.539" xlink:href="#cross"  stroke="#000000" />
<text style="font-size:12;text-align:right;text-anchor:end;" x="60.0317" y="267.539" fill="#000000">200</text>
<use x="573.968" y="219.305" xlink:href="#cross"  stroke="#000000" />
<use x="66.0317" y="219.305" xlink:href="#cross"  stroke="#000000" />
<text style="font-size:12;text-align:right;text-anchor:end;" x="60.0317" y="225.305" fill="#000000">250</text>
<use x="573.968" y="177.071" xlink:href="#cross"  stroke="#000000" />
<use x="66.0317" y="177.071" xlink:href="#cross"  stroke="#000000" />
<text style="font-size:12;text-align:right;text-anchor:end;" x="60.0317" y="183.071" fill="#000000">300</text>
<use x="573.968" y="134.837" xlink:href="#cross"  stroke="#000000" />
<use x="66.0317" y="134.837" xlink:href="#cross"  stroke="#000000" />
<text style="font-size:12;text-align:right;text-anchor:end;" x="60.0317" y="140.837" fill="#000000">350</text>
<use x="573.968" y="92.6027" xlink:href="#cross"  stroke="#000000" />
<use x="66.0317" y="92.6027" xlink:href="#cross"  stroke="#000000" />
<text style="font-size:12;text-align:right;text-anchor:end;" x="60.0317" y="98.6027" fill="#000000">400</text>
<use x="573.968" y="50.3685" xlink:href="#cross"  stroke="#000000" />
<use x="66.0317" y="50.3685" xlink:href="#cross"  stroke="#000000" />
<text style="font-size:12;text-align:right;text-anchor:end;" x="60.0317" y="56.3685" fill="#000000">450</text>
<text style="font-size:18;text-align:center;text-anchor:middle;" x="320" y="33.7619" fill="#000000">Spot diagram encircled rays intensity</text>
<line x1="66.0317" y1="430.476" x2="76.1905" y2="430.476"  stroke="#00ebff" />
<line x1="76.1905" y1="430.476" x2="86.3492" y2="424.563"  stroke="#00ebff" />
<line x1="86.3492" y1="424.563" x2="96.5079" y2="408.514"  stroke="#00ebff" />
<line x1="96.5079" y1="408.514" x2="106.667" y2="400.068"  stroke="#00ebff" />
<line x1="106.667" y1="400.068" x2="116.825" y2="382.329"  stroke="#00ebff" />
<line x1="116.825" y1="382.329" x2="126.984" y2="372.193"  stroke="#00ebff" />
<line x1="126.984" y1="372.193" x2="137.143" y2="342.629"  stroke="#00ebff" />
<line x1="137.143" y1="342.629" x2="147.302" y2="312.22"  stroke="#00ebff" />
<line x1="147.302" y1="312.22" x2="157.46" y2="286.88"  stroke="#00ebff" />
<line x1="157.46" y1="286.88" x2="167.619" y2="232.82"  stroke="#00ebff" />
<line x1="167.619" y1="232.82" x2="177.778" y2="218.461"  stroke="#00ebff" />
<line x1="177.778" y1="218.461" x2="187.937" y2="206.635"  stroke="#00ebff" />
<line x1="187.937" y1="206.635" x2="198.095" y2="193.965"  stroke="#00ebff" />
<line x1="198.095" y1="193.965" x2="208.254" y2="178.76"  stroke="#00ebff" />
<line x1="208.254" y1="178.76" x2="218.413" y2="164.401"  stroke="#00ebff" />
<line x1="218.413" y1="164.401" x2="228.571" y2="159.333"  stroke="#00ebff" />
<line x1="228.571" y1="159.333" x2="238.73" y2="155.954"  stroke="#00ebff" />
<line x1="238.73" y1="155.954" x2="248.889" y2="151.731"  stroke="#00ebff" />
<line x1="248.889" y1="151.731" x2="259.048" y2="148.352"  stroke="#00ebff" />
<line x1="259.048" y1="148.352" x2="269.206" y2="141.594"  stroke="#00ebff" />
<line x1="269.206" y1="141.594" x2="279.365" y2="134.837"  stroke="#00ebff" />
<line x1="279.365" y1="134.837" x2="289.524" y2="129.769"  stroke="#00ebff" />
<line x1="289.524" y1="129.769" x2="299.683" y2="124.701"  stroke="#00ebff" />
<line x1="299.683" y1="124.701" x2="309.841" y2="108.652"  stroke="#00ebff" />
<line x1="309.841" y1="108.652" x2="320" y2="103.584"  stroke="#00ebff" />
<line x1="320" y1="103.584" x2="330.159" y2="101.894"  stroke="#00ebff" />
<line x1="330.159" y1="101.894" x2="340.317" y2="101.894"  stroke="#00ebff" />
<line x1="340.317" y1="101.894" x2="350.476" y2="98.5155"  stroke="#00ebff" />
<line x1="350.476" y1="98.5155" x2="360.635" y2="91.758"  stroke="#00ebff" />
<line x1="360.635" y1="91.758" x2="370.794" y2="90.0686"  stroke="#00ebff" />
<line x1="370.794" y1="90.0686" x2="380.952" y2="85.0005"  stroke="#00ebff" />
<line x1="380.952" y1="85.0005" x2="391.111" y2="83.3112"  stroke="#00ebff" />
<line x1="391.111" y1="83.3112" x2="401.27" y2="79.9324"  stroke="#00ebff" />
<line x1="401.27" y1="79.9324" x2="411.429" y2="74.8643"  stroke="#00ebff" />
<line x1="411.429" y1="74.8643" x2="421.587" y2="63.8834"  stroke="#00ebff" />
<line x1="421.587" y1="63.8834" x2="431.746" y2="62.1941"  stroke="#00ebff" />
<line x1="431.746" y1="62.1941" x2="441.905" y2="62.1941"  stroke="#00ebff" />
<line x1="441.905" y1="62.1941" x2="452.063" y2="62.1941"  stroke="#00ebff" />
<line x1="452.063" y1="62.1941" x2="462.222" y2="62.1941"  stroke="#00ebff" />
<line x1="462.222" y1="62.1941" x2="472.381" y2="62.1941"  stroke="#00ebff" />
<line x1="472.381" y1="62.1941" x2="482.54" y2="62.1941"  stroke="#00ebff" />
<line x1="482.54" y1="62.1941" x2="492.698" y2="62.1941"  stroke="#00ebff" />
<line x1="492.698" y1="62.1941" x2="502.857" y2="62.1941"  stroke="#00ebff" />
<line x1="502.857" y1="62.1941" x2="513.016" y2="62.1941"  stroke="#00ebff" />
<line x1="513.016" y1="62.1941" x2="523.175" y2="62.1941"  stroke="#00ebff" />
<line x1="523.175" y1="62.1941" x2="533.333" y2="62.1941"  stroke="#00ebff" />
<line x1="533.333" y1="62.1941" x2="543.492" y2="62.1941"  stroke="#00ebff" />
<line x1="543.492" y1="62.1941" x2="553.651" y2="58.8153"  stroke="#00ebff" />
<line x1="553.651" y1="58.8153" x2="563.81" y2="50.3685"  stroke="#00ebff" />
<line x1="563.81" y1="50.3685" x2="573.968" y2="49.5238"  stroke="#00ebff" />
<line x1="66.0317" y1="430.476" x2="76.1905" y2="430.476"  stroke="#ffe100" />
<line x1="76.1905" y1="430.476" x2="86.3492" y2="419.495"  stroke="#ffe100" />
<line x1="86.3492" y1="419.495" x2="96.5079" y2="405.136"  stroke="#ffe100" />
<line x1="96.5079" y1="405.136" x2="106.667" y2="396.689"  stroke="#ffe100" />
<line x1="106.667" y1="396.689" x2="116.825" y2="384.019"  stroke="#ffe100" />
<line x1="116.825" y1="384.019" x2="126.984" y2="360.367"  stroke="#ffe100" />
<line x1="126.984" y1="360.367" x2="137.143" y2="331.648"  stroke="#ffe100" />
<line x1="137.143" y1="331.648" x2="147.302" y2="313.91"  stroke="#ffe100" />
<line x1="147.302" y1="313.91" x2="157.46" y2="277.588"  stroke="#ffe100" />
<line x1="157.46" y1="277.588" x2="167.619" y2="221.839"  stroke="#ffe100" />
<line x1="167.619" y1="221.839" x2="177.778" y2="206.635"  stroke="#ffe100" />
<line x1="177.778" y1="206.635" x2="187.937" y2="192.275"  stroke="#ffe100" />
<line x1="187.937" y1="192.275" x2="198.095" y2="178.76"  stroke="#ffe100" />
<line x1="198.095" y1="178.76" x2="208.254" y2="164.401"  stroke="#ffe100" />
<line x1="208.254" y1="164.401" x2="218.413" y2="159.333"  stroke="#ffe100" />
<line x1="218.413" y1="159.333" x2="228.571" y2="155.954"  stroke="#ffe100" />
<line x1="228.571" y1="155.954" x2="238.73" y2="151.731"  stroke="#ffe100" />
<line x1="238.73" y1="151.731" x2="248.889" y2="148.352"  stroke="#ffe100" />
<line x1="248.889" y1="148.352" x2="259.048" y2="136.526"  stroke="#ffe100" />
<line x1="259.048" y1="136.526" x2="269.206" y2="133.148"  stroke="#ffe100" />
<line x1="269.206" y1="133.148" x2="279.365" y2="128.079"  stroke="#ffe100" />
<line x1="279.365" y1="128.079" x2="289.524" y2="117.943"  stroke="#ffe100" />
<line x1="289.524" y1="117.943" x2="299.683" y2="105.273"  stroke="#ffe100" />
<line x1="299.683" y1="105.273" x2="309.841" y2="103.584"  stroke="#ffe100" />
<line x1="309.841" y1="103.584" x2="320" y2="101.894"  stroke="#ffe100" />
<line x1="320" y1="101.894" x2="330.159" y2="98.5155"  stroke="#ffe100" />
<line x1="330.159" y1="98.5155" x2="340.317" y2="96.8261"  stroke="#ffe100" />
<line x1="340.317" y1="96.8261" x2="350.476" y2="91.758"  stroke="#ffe100" />
<line x1="350.476" y1="91.758" x2="360.635" y2="86.6899"  stroke="#ffe100" />
<line x1="360.635" y1="86.6899" x2="370.794" y2="83.3112"  stroke="#ffe100" />
<line x1="370.794" y1="83.3112" x2="380.952" y2="79.9324"  stroke="#ffe100" />
<line x1="380.952" y1="79.9324" x2="391.111" y2="76.5537"  stroke="#ffe100" />
<line x1="391.111" y1="76.5537" x2="401.27" y2="69.7962"  stroke="#ffe100" />
<line x1="401.27" y1="69.7962" x2="411.429" y2="63.8834"  stroke="#ffe100" />
<line x1="411.429" y1="63.8834" x2="421.587" y2="62.1941"  stroke="#ffe100" />
<line x1="421.587" y1="62.1941" x2="431.746" y2="62.1941"  stroke="#ffe100" />
<line x1="431.746" y1="62.1941" x2="441.905" y2="62.1941"  stroke="#ffe100" />
<line x1="441.905" y1="62.1941" x2="452.063" y2="62.1941"  stroke="#ffe100" />
<line x1="452.063" y1="62.1941" x2="462.222" y2="62.1941"  stroke="#ffe100" />
<line x1="462.222" y1="62.1941" x2="472.381" y2="62.1941"  stroke="#ffe100" />
<line x1="472.381" y1="62.1941" x2="482.54" y2="62.1941"  stroke="#ffe100" />
<line x1="482.54" y1="62.1941" x2="492.698" y2="62.1941"  stroke="#ffe100" />
<line x1="492.698" y1="62.1941" x2="502.857" y2="62.1941"  stroke="#ffe100" />
<line x1="502.857" y1="62.1941" x2="513.016" y2="62.1941"  stroke="#ffe100" />
<line x1="513.016" y1="62.1941" x2="523.175" y2="62.1941"  stroke="#ffe100" />
<line x1="523.175" y1="62.1941" x2="533.333" y2="60.5047"  stroke="#ffe100" />
<line x1="533.333" y1="60.5047" x2="543.492" y2="51.2132"  stroke="#ffe100" />
<line x1="543.492" y1="51.2132" x2="553.651" y2="51.2132"  stroke="#ffe100" />
<line x1="553.651" y1="51.2132" x2="563.81" y2="51.2132"  stroke="#ffe100" />
<line x1="563.81" y1="51.2132" x2="573.968" y2="51.2132"  stroke="#ffe100" />
<line x1="66.0317" y1="430.476" x2="76.1905" y2="430.476"  stroke="#ff0000" />
<line x1="76.1905" y1="430.476" x2="86.3492" y2="417.806"  stroke="#ff0000" />
<line x1="86.3492" y1="417.806" x2="96.5079" y2="405.136"  stroke="#ff0000" />
<line x1="96.5079" y1="405.136" x2="106.667" y2="396.689"  stroke="#ff0000" />
<line x1="106.667" y1="396.689" x2="116.825" y2="378.95"  stroke="#ff0000" />
<line x1="116.825" y1="378.95" x2="126.984" y2="351.921"  stroke="#ff0000" />
<line x1="126.984" y1="351.921" x2="137.143" y2="331.648"  stroke="#ff0000" />
<line x1="137.143" y1="331.648" x2="147.302" y2="310.531"  stroke="#ff0000" />
<line x1="147.302" y1="310.531" x2="157.46" y2="233.665"  stroke="#ff0000" />
<line x1="157.46" y1="233.665" x2="167.619" y2="210.014"  stroke="#ff0000" />
<line x1="167.619" y1="210.014" x2="177.778" y2="197.343"  stroke="#ff0000" />
<line x1="177.778" y1="197.343" x2="187.937" y2="182.139"  stroke="#ff0000" />
<line x1="187.937" y1="182.139" x2="198.095" y2="166.09"  stroke="#ff0000" />
<line x1="198.095" y1="166.09" x2="208.254" y2="159.333"  stroke="#ff0000" />
<line x1="208.254" y1="159.333" x2="218.413" y2="155.954"  stroke="#ff0000" />
<line x1="218.413" y1="155.954" x2="228.571" y2="151.731"  stroke="#ff0000" />
<line x1="228.571" y1="151.731" x2="238.73" y2="148.352"  stroke="#ff0000" />
<line x1="238.73" y1="148.352" x2="248.889" y2="138.216"  stroke="#ff0000" />
<line x1="248.889" y1="138.216" x2="259.048" y2="133.148"  stroke="#ff0000" />
<line x1="259.048" y1="133.148" x2="269.206" y2="129.769"  stroke="#ff0000" />
<line x1="269.206" y1="129.769" x2="279.365" y2="121.322"  stroke="#ff0000" />
<line x1="279.365" y1="121.322" x2="289.524" y2="105.273"  stroke="#ff0000" />
<line x1="289.524" y1="105.273" x2="299.683" y2="103.584"  stroke="#ff0000" />
<line x1="299.683" y1="103.584" x2="309.841" y2="101.894"  stroke="#ff0000" />
<line x1="309.841" y1="101.894" x2="320" y2="98.5155"  stroke="#ff0000" />
<line x1="320" y1="98.5155" x2="330.159" y2="96.8261"  stroke="#ff0000" />
<line x1="330.159" y1="96.8261" x2="340.317" y2="91.758"  stroke="#ff0000" />
<line x1="340.317" y1="91.758" x2="350.476" y2="86.6899"  stroke="#ff0000" />
<line x1="350.476" y1="86.6899" x2="360.635" y2="83.3112"  stroke="#ff0000" />
<line x1="360.635" y1="83.3112" x2="370.794" y2="79.9324"  stroke="#ff0000" />
<line x1="370.794" y1="79.9324" x2="380.952" y2="76.5537"  stroke="#ff0000" />
<line x1="380.952" y1="76.5537" x2="391.111" y2="68.1069"  stroke="#ff0000" />
<line x1="391.111" y1="68.1069" x2="401.27" y2="63.8834"  stroke="#ff0000" />
<line x1="401.27" y1="63.8834" x2="411.429" y2="62.1941"  stroke="#ff0000" />
<line x1="411.429" y1="62.1941" x2="421.587" y2="62.1941"  stroke="#ff0000" />
<line x1="421.587" y1="62.1941" x2="431.746" y2="62.1941"  stroke="#ff0000" />
<line x1="431.746" y1="62.1941" x2="441.905" y2="62.1941"  stroke="#ff0000" />
<line x1="441.905" y1="62.1941" x2="452.063" y2="62.1941"  stroke="#ff0000" />
<line x1="452.063" y1="62.1941" x2="462.222" y2="62.1941"  stroke="#ff0000" />
<line x1="462.222" y1="62.1941" x2="472.381" y2="62.1941"  stroke="#ff0000" />
<line x1="472.381" y1="62.1941" x2="482.54" y2="62.1941"  stroke="#ff0000" />
<line x1="482.54" y1="62.1941" x2="492.698" y2="62.1941"  stroke="#ff0000" />
<line x1="492.698" y1="62.1941" x2="502.857" y2="62.1941"  stroke="#ff0000" />
<line x1="502.857" y1="62.1941" x2="513.016" y2="62.1941"  stroke="#ff0000" />
<line x1="513.016" y1="62.1941" x2="523.175" y2="58.8153"  stroke="#ff0000" />
<line x1="523.175" y1="58.8153" x2="533.333" y2="51.2132"  stroke="#ff0000" />
<line x1="533.333" y1="51.2132" x2="543.492" y2="51.2132"  stroke="#ff0000" />
<line x1="543.492" y1="51.2132" x2="553.651" y2="51.2132"  stroke="#ff0000" />
<line x1="553.651" y1="51.2132" x2="563.81" y2="51.2132"  stroke="#ff0000" />
<line x1="563.81" y1="51.2132" x2="573.968" y2="51.2132"  stroke="#ff0000" />
</svg>
