<?xml version="1.0" standalone="no"?>
<svg width="640px" height="480px" version="1.1" xmlns="http://www.w3.org/2000/svg" xmlns:xlink="http://www.w3.org/1999/xlink">
<rect x="0" y="0" width="640" height="480"  fill="#ffffff" />
<defs>
<g id="dot">
<line x1="1" y1="1" x2="0" y2="0"  />
</g>
<g id="cross">
<line x1="-3" y1="0" x2="3" y2="0"  />
<line x1="0" y1="-3" x2="0" y2="3"  />
</g>
<g id="square">
<line x1="-3" y1="-3" x2="-3" y2="3"  />
<line x1="-3" y1="3" x2="3" y2="3"  />
<line x1="3" y1="3" x2="3" y2="-3"  />
<line x1="3" y1="-3" x2="-3" y2="-3"  />
</g>
<g id="round">
<ellipse cx="0" cy="0" rx="3" ry="3"  fill="none" /></g>
<g id="triangle">
<line x1="0" y1="-3" x2="-3" y2="3"  />
<line x1="-3" y1="3" x2="3" y2="3"  />
<line x1="0" y1="-3" x2="3" y2="3"  />
</g>
</defs>
<polygon fill="none" stroke="#000000" points="66.0317,430.476 66.0317,49.5238 573.968,49.5238 573.968,430.476 " />
<text style="font-size:12;text-align:center;text-anchor:middle;" x="320" y="473.619" fill="#000000">Entrance ray height (normalized)</text>
<line x1="66.0317" y1="240" x2="573.968" y2="240"  stroke="#000000" />
<use x="66.0317" y="240" xlink:href="#cross"  stroke="#000000" />
<use x="66.0317" y="49.5238" xlink:href="#cross"  stroke="#000000" />
<use x="66.0317" y="430.476" xlink:href="#cross"  stroke="#000000" />
<text style="font-size:12;text-align:center;text-anchor:middle;" x="66.0317" y="448.476" fill="#000000">-1</text>
<use x="320" y="240" xlink:href="#cross"  stroke="#000000" />
<use x="320" y="49.5238" xlink:href="#cross"  stroke="#000000" />
<use x="320" y="430.476" xlink:href="#cross"  stroke="#000000" />
<text style="font-size:12;text-align:center;text-anchor:middle;" x="320" y="448.476" fill="#000000">0</text>
<use x="573.968" y="240" xlink:href="#cross"  stroke="#000000" />
<use x="573.968" y="49.5238" xlink:href="#cross"  stroke="#000000" />
<use x="573.968" y="430.476" xlink:href="#cross"  stroke="#000000" />
<text style="font-size:12;text-align:center;text-anchor:middle;" x="573.968" y="448.476" fill="#000000">1</text>
<text style="font-size:12;text-align:center;text-anchor:middle;" x="16.5079" y="246" transform="rotate(-90,16.5079,240)" fill="#000000">Transverse ray aberration (um)</text>
<line x1="320" y1="430.476" x2="320" y2="49.5238"  stroke="#000000" />
<use x="320" y="386.798" xlink:href="#cross"  stroke="#000000" />
<use x="573.968" y="386.798" xlink:href="#cross"  stroke="#000000" />
<use x="66.0317" y="386.798" xlink:href="#cross"  stroke="#000000" />
<text style="font-size:12;text-align:right;text-anchor:end;" x="60.0317" y="392.798" fill="#000000">-200</text>
<use x="320" y="313.399" xlink:href="#cross"  stroke="#000000" />
<use x="573.968" y="313.399" xlink:href="#cross"  stroke="#000000" />
<use x="66.0317" y="313.399" xlink:href="#cross"  stroke="#000000" />
<text style="font-size:12;text-align:right;text-anchor:end;" x="60.0317" y="319.399" fill="#000000">-100</text>
<use x="320" y="240" xlink:href="#cross"  stroke="#000000" />
<use x="573.968" y="240" xlink:href="#cross"  stroke="#000000" />
<use x="66.0317" y="240" xlink:href="#cross"  stroke="#000000" />
<text style="font-size:12;text-align:right;text-anchor:end;" x="60.0317" y="246" fill="#000000">0</text>
<use x="320" y="166.601" xlink:href="#cross"  stroke="#000000" />
<use x="573.968" y="166.601" xlink:href="#cross"  stroke="#000000" />
<use x="66.0317" y="166.601" xlink:href="#cross"  stroke="#000000" />
<text style="font-size:12;text-align:right;text-anchor:end;" x="60.0317" y="172.601" fill="#000000">100</text>
<use x="320" y="93.202" xlink:href="#cross"  stroke="#000000" />
<use x="573.968" y="93.202" xlink:href="#cross"  stroke="#000000" />
<use x="66.0317" y="93.202" xlink:href="#cross"  stroke="#000000" />
<text style="font-size:12;text-align:right;text-anchor:end;" x="60.0317" y="99.202" fill="#000000">200</text>
<text style="font-size:18;text-align:center;text-anchor:middle;" x="320" y="33.7619" fill="#000000">Transverse ray aberration fan (tangential)</text>
<path fill="none"  stroke="#00ebff" d="M117.029,49.5238 S128.305,104.837 133.943,125.078 S145.219,158.601 150.857,170.967 S162.133,191.744 167.771,199.27 S179.048,211.748 184.686,216.118 S195.962,223.128 201.6,225.486 S212.876,229.087 218.514,230.268 S229.79,231.977 235.429,232.573 S246.705,233.444 252.343,233.84 S263.619,234.534 269.257,234.947 S280.533,235.801 286.171,236.317 S297.448,237.429 303.086,238.043 S314.362,239.348 320,240 S331.276,241.343 336.914,241.957 S348.19,243.167 353.829,243.683 S365.105,244.64 370.743,245.053 S382.019,245.764 387.657,246.16 S398.933,246.832 404.571,247.427 S415.848,248.551 421.486,249.732 S432.762,252.155 438.4,254.514 S449.676,259.513 455.314,263.882 S466.59,273.205 472.229,280.73 S483.505,296.668 489.143,309.033 S500.419,334.682 506.057,354.922 S520.152,417.884 522.971,430.476 " />
<path fill="none"  stroke="#ffe100" d="M117.029,70.508 S128.305,125.265 133.943,145.147 S145.219,177.883 150.857,189.801 S162.133,209.638 167.771,216.655 S179.048,228.087 184.686,231.904 S195.962,237.789 201.6,239.56 S212.876,241.969 218.514,242.533 S229.79,242.992 235.429,242.943 S246.705,242.511 252.343,242.239 S263.619,241.583 269.257,241.308 S280.533,240.776 286.171,240.589 S297.448,240.287 303.086,240.188 S314.362,240.063 320,240 S331.276,239.91 336.914,239.812 S348.19,239.598 353.829,239.411 S365.105,238.967 370.743,238.692 S382.019,238.034 387.657,237.761 S398.933,237.106 404.571,237.057 S415.848,236.903 421.486,237.467 S432.762,238.669 438.4,240.44 S449.676,244.278 455.314,248.096 S466.59,256.328 472.229,263.345 S483.505,278.281 489.143,290.199 S500.419,314.97 506.057,334.853 S520.152,397.052 522.971,409.492 " />
<path fill="none"  stroke="#ff0000" d="M117.029,87.182 S128.305,141.037 133.943,160.458 S145.219,192.261 150.857,203.712 S162.133,222.613 167.771,229.165 S179.048,239.669 184.686,243.024 S195.962,247.987 201.6,249.298 S212.876,250.79 218.514,250.894 S229.79,250.435 235.429,249.926 S246.705,248.573 252.343,247.839 S263.619,246.257 269.257,245.518 S280.533,244.054 286.171,243.4 S297.448,242.162 303.086,241.596 S314.362,240.532 320,240 S331.276,238.971 336.914,238.404 S348.19,237.254 353.829,236.6 S365.105,235.222 370.743,234.482 S382.019,232.896 387.657,232.161 S398.933,230.583 404.571,230.074 S415.848,229.001 421.486,229.106 S432.762,229.39 438.4,230.702 S449.676,233.62 455.314,236.976 S466.59,244.283 472.229,250.835 S483.505,264.836 489.143,276.288 S500.419,300.12 506.057,319.542 S520.152,380.605 522.971,392.818 " />
</svg>
