<?xml version="1.0" standalone="no"?>
<svg width="800px" height="400px" version="1.1" xmlns="http://www.w3.org/2000/svg" xmlns:xlink="http://www.w3.org/1999/xlink">
<rect x="0" y="0" width="800" height="400"  fill="#ffffff" />
<defs>
<g id="dot">
<line x1="1" y1="1" x2="0" y2="0"  />
</g>
<g id="cross">
<line x1="-3" y1="0" x2="3" y2="0"  />
<line x1="0" y1="-3" x2="0" y2="3"  />
</g>
<g id="square">
<line x1="-3" y1="-3" x2="-3" y2="3"  />
<line x1="-3" y1="3" x2="3" y2="3"  />
<line x1="3" y1="3" x2="3" y2="-3"  />
<line x1="3" y1="-3" x2="-3" y2="-3"  />
</g>
<g id="round">
<ellipse cx="0" cy="0" rx="3" ry="3"  fill="none" /></g>
<g id="triangle">
<line x1="0" y1="-3" x2="-3" y2="3"  />
<line x1="-3" y1="3" x2="3" y2="3"  />
<line x1="0" y1="-3" x2="3" y2="3"  />
</g>
</defs>
<line x1="230.607" y1="200" x2="569.393" y2="200"  stroke="#7f7f7f" />
<g><title>element</title>
<g>
<line x1="323.214" y1="148.08" x2="323.214" y2="96.1603"  stroke="#7f7fff" />
<line x1="323.214" y1="251.92" x2="323.214" y2="303.84"  stroke="#7f7fff" />
</g>
<g>
<polyline fill="none" stroke="#7f7fff" points="251.222,113.286 250.323,115.038 249.45,116.79 248.603,118.542 247.782,120.293 246.985,122.045 246.212,123.797 245.462,125.549 244.734,127.301 244.028,129.052 243.344,130.804 242.681,132.556 242.038,134.308 241.415,136.06 240.812,137.811 240.228,139.563 239.663,141.315 239.118,143.067 238.59,144.819 238.081,146.57 237.59,148.322 237.116,150.074 236.661,151.826 236.222,153.578 235.801,155.329 235.397,157.081 235.01,158.833 234.64,160.585 234.287,162.336 233.95,164.088 233.63,165.84 233.326,167.592 233.038,169.344 232.767,171.095 232.512,172.847 232.274,174.599 232.051,176.351 231.845,178.103 231.654,179.854 231.48,181.606 231.321,183.358 231.179,185.11 231.052,186.862 230.941,188.613 230.846,190.365 230.767,192.117 230.704,193.869 230.657,195.621 230.625,197.372 230.609,199.124 230.609,200.876 230.625,202.628 230.657,204.379 230.704,206.131 230.767,207.883 230.846,209.635 230.941,211.387 231.052,213.138 231.179,214.89 231.321,216.642 231.48,218.394 231.654,220.146 231.845,221.897 232.051,223.649 232.274,225.401 232.512,227.153 232.767,228.905 233.038,230.656 233.326,232.408 233.63,234.16 233.95,235.912 234.287,237.664 234.64,239.415 235.01,241.167 235.397,242.919 235.801,244.671 236.222,246.422 236.661,248.174 237.116,249.926 237.59,251.678 238.081,253.43 238.59,255.181 239.118,256.933 239.663,258.685 240.228,260.437 240.812,262.189 241.415,263.94 242.038,265.692 242.681,267.444 243.344,269.196 244.028,270.948 244.734,272.699 245.462,274.451 246.212,276.203 246.985,277.955 247.782,279.707 248.603,281.458 249.45,283.21 250.323,284.962 251.222,286.714 " />
<line x1="251.222" y1="113.286" x2="257.127" y2="113.286"  stroke="#7f7fff" />
<line x1="251.222" y1="286.714" x2="257.127" y2="286.714"  stroke="#7f7fff" />
<polyline fill="none" stroke="#7f7fff" points="257.127,113.286 256.947,115.038 256.771,116.79 256.6,118.542 256.431,120.293 256.267,122.045 256.106,123.797 255.949,125.549 255.795,127.301 255.645,129.052 255.499,130.804 255.356,132.556 255.218,134.308 255.082,136.06 254.951,137.811 254.823,139.563 254.699,141.315 254.579,143.067 254.462,144.819 254.349,146.57 254.239,148.322 254.133,150.074 254.031,151.826 253.933,153.578 253.838,155.329 253.747,157.081 253.659,158.833 253.576,160.585 253.495,162.336 253.419,164.088 253.346,165.84 253.277,167.592 253.211,169.344 253.149,171.095 253.091,172.847 253.036,174.599 252.985,176.351 252.938,178.103 252.894,179.854 252.854,181.606 252.818,183.358 252.785,185.11 252.756,186.862 252.73,188.613 252.708,190.365 252.69,192.117 252.676,193.869 252.665,195.621 252.657,197.372 252.654,199.124 252.654,200.876 252.657,202.628 252.665,204.379 252.676,206.131 252.69,207.883 252.708,209.635 252.73,211.387 252.756,213.138 252.785,214.89 252.818,216.642 252.854,218.394 252.894,220.146 252.938,221.897 252.985,223.649 253.036,225.401 253.091,227.153 253.149,228.905 253.211,230.656 253.277,232.408 253.346,234.16 253.419,235.912 253.495,237.664 253.576,239.415 253.659,241.167 253.747,242.919 253.838,244.671 253.933,246.422 254.031,248.174 254.133,249.926 254.239,251.678 254.349,253.43 254.462,255.181 254.579,256.933 254.699,258.685 254.823,260.437 254.951,262.189 255.082,263.94 255.218,265.692 255.356,267.444 255.499,269.196 255.645,270.948 255.795,272.699 255.949,274.451 256.106,276.203 256.267,277.955 256.431,279.707 256.6,281.458 256.771,283.21 256.947,284.962 257.127,286.714 " />
</g>
<g>
<polyline fill="none" stroke="#7f7fff" points="272.085,127.249 271.269,128.718 270.474,130.188 269.701,131.658 268.948,133.128 268.216,134.597 267.504,136.067 266.812,137.537 266.14,139.006 265.486,140.476 264.852,141.946 264.236,143.416 263.639,144.885 263.06,146.355 262.499,147.825 261.955,149.295 261.43,150.764 260.921,152.234 260.43,153.704 259.956,155.173 259.498,156.643 259.057,158.113 258.633,159.583 258.225,161.052 257.833,162.522 257.457,163.992 257.097,165.461 256.753,166.931 256.425,168.401 256.113,169.871 255.815,171.34 255.534,172.81 255.267,174.28 255.016,175.75 254.78,177.219 254.559,178.689 254.354,180.159 254.163,181.628 253.987,183.098 253.826,184.568 253.679,186.038 253.548,187.507 253.431,188.977 253.329,190.447 253.241,191.917 253.168,193.386 253.11,194.856 253.066,196.326 253.037,197.795 253.022,199.265 253.022,200.735 253.037,202.205 253.066,203.674 253.11,205.144 253.168,206.614 253.241,208.083 253.329,209.553 253.431,211.023 253.548,212.493 253.679,213.962 253.826,215.432 253.987,216.902 254.163,218.372 254.354,219.841 254.559,221.311 254.78,222.781 255.016,224.25 255.267,225.72 255.534,227.19 255.815,228.66 256.113,230.129 256.425,231.599 256.753,233.069 257.097,234.539 257.457,236.008 257.833,237.478 258.225,238.948 258.633,240.417 259.057,241.887 259.498,243.357 259.956,244.827 260.43,246.296 260.921,247.766 261.43,249.236 261.955,250.705 262.499,252.175 263.06,253.645 263.639,255.115 264.236,256.584 264.852,258.054 265.486,259.524 266.14,260.994 266.812,262.463 267.504,263.933 268.216,265.403 268.948,266.872 269.701,268.342 270.474,269.812 271.269,271.282 272.085,272.751 " />
<line x1="272.085" y1="127.249" x2="277.097" y2="127.249"  stroke="#7f7fff" />
<line x1="272.085" y1="272.751" x2="277.097" y2="272.751"  stroke="#7f7fff" />
<polyline fill="none" stroke="#7f7fff" points="277.097,127.249 277.016,128.718 276.936,130.188 276.858,131.658 276.782,133.128 276.707,134.597 276.634,136.067 276.563,137.537 276.493,139.006 276.425,140.476 276.359,141.946 276.294,143.416 276.232,144.885 276.17,146.355 276.111,147.825 276.052,149.295 275.996,150.764 275.941,152.234 275.888,153.704 275.837,155.173 275.787,156.643 275.739,158.113 275.693,159.583 275.648,161.052 275.605,162.522 275.564,163.992 275.524,165.461 275.486,166.931 275.449,168.401 275.415,169.871 275.381,171.34 275.35,172.81 275.32,174.28 275.292,175.75 275.265,177.219 275.241,178.689 275.217,180.159 275.196,181.628 275.176,183.098 275.158,184.568 275.141,186.038 275.126,187.507 275.113,188.977 275.101,190.447 275.092,191.917 275.083,193.386 275.077,194.856 275.072,196.326 275.068,197.795 275.067,199.265 275.067,200.735 275.068,202.205 275.072,203.674 275.077,205.144 275.083,206.614 275.092,208.083 275.101,209.553 275.113,211.023 275.126,212.493 275.141,213.962 275.158,215.432 275.176,216.902 275.196,218.372 275.217,219.841 275.241,221.311 275.265,222.781 275.292,224.25 275.32,225.72 275.35,227.19 275.381,228.66 275.415,230.129 275.449,231.599 275.486,233.069 275.524,234.539 275.564,236.008 275.605,237.478 275.648,238.948 275.693,240.417 275.739,241.887 275.787,243.357 275.837,244.827 275.888,246.296 275.941,247.766 275.996,249.236 276.052,250.705 276.111,252.175 276.17,253.645 276.232,255.115 276.294,256.584 276.359,258.054 276.425,259.524 276.493,260.994 276.563,262.463 276.634,263.933 276.707,265.403 276.782,266.872 276.858,268.342 276.936,269.812 277.016,271.282 277.097,272.751 " />
<line x1="294.545" y1="127.249" x2="294.545" y2="135.516"  stroke="#7f7fff" />
<line x1="277.097" y1="127.249" x2="294.545" y2="127.249"  stroke="#7f7fff" />
<line x1="294.545" y1="272.751" x2="294.545" y2="264.484"  stroke="#7f7fff" />
<line x1="277.097" y1="272.751" x2="294.545" y2="272.751"  stroke="#7f7fff" />
<polyline fill="none" stroke="#7f7fff" points="294.545,135.516 293.96,136.819 293.39,138.121 292.833,139.424 292.29,140.727 291.761,142.029 291.246,143.332 290.744,144.635 290.256,145.938 289.781,147.24 289.318,148.543 288.869,149.846 288.433,151.148 288.009,152.451 287.598,153.754 287.199,155.057 286.813,156.359 286.439,157.662 286.078,158.965 285.728,160.267 285.391,161.57 285.065,162.873 284.752,164.175 284.45,165.478 284.16,166.781 283.881,168.084 283.614,169.386 283.359,170.689 283.116,171.992 282.883,173.294 282.662,174.597 282.453,175.9 282.254,177.203 282.067,178.505 281.892,179.808 281.727,181.111 281.573,182.413 281.431,183.716 281.3,185.019 281.179,186.322 281.07,187.624 280.972,188.927 280.885,190.23 280.808,191.532 280.743,192.835 280.688,194.138 280.645,195.441 280.612,196.743 280.59,198.046 280.579,199.349 280.579,200.651 280.59,201.954 280.612,203.257 280.645,204.559 280.688,205.862 280.743,207.165 280.808,208.468 280.885,209.77 280.972,211.073 281.07,212.376 281.179,213.678 281.3,214.981 281.431,216.284 281.573,217.587 281.727,218.889 281.892,220.192 282.067,221.495 282.254,222.797 282.453,224.1 282.662,225.403 282.883,226.706 283.116,228.008 283.359,229.311 283.614,230.614 283.881,231.916 284.16,233.219 284.45,234.522 284.752,235.825 285.065,237.127 285.391,238.43 285.728,239.733 286.078,241.035 286.439,242.338 286.813,243.641 287.199,244.943 287.598,246.246 288.009,247.549 288.433,248.852 288.869,250.154 289.318,251.457 289.781,252.76 290.256,254.062 290.744,255.365 291.246,256.668 291.761,257.971 292.29,259.273 292.833,260.576 293.39,261.879 293.96,263.181 294.545,264.484 " />
</g>
<g>
<polyline fill="none" stroke="#7f7fff" points="297.484,137.537 297.411,138.799 297.339,140.061 297.269,141.322 297.2,142.584 297.133,143.846 297.067,145.108 297.003,146.37 296.94,147.632 296.879,148.894 296.82,150.156 296.761,151.417 296.705,152.679 296.65,153.941 296.596,155.203 296.544,156.465 296.493,157.727 296.444,158.989 296.396,160.251 296.35,161.513 296.305,162.774 296.262,164.036 296.22,165.298 296.18,166.56 296.141,167.822 296.104,169.084 296.068,170.346 296.034,171.608 296.001,172.869 295.97,174.131 295.94,175.393 295.912,176.655 295.885,177.917 295.859,179.179 295.836,180.441 295.813,181.703 295.792,182.965 295.773,184.226 295.755,185.488 295.739,186.75 295.724,188.012 295.71,189.274 295.699,190.536 295.688,191.798 295.679,193.06 295.672,194.322 295.666,195.583 295.661,196.845 295.658,198.107 295.657,199.369 295.657,200.631 295.658,201.893 295.661,203.155 295.666,204.417 295.672,205.678 295.679,206.94 295.688,208.202 295.699,209.464 295.71,210.726 295.724,211.988 295.739,213.25 295.755,214.512 295.773,215.774 295.792,217.035 295.813,218.297 295.836,219.559 295.859,220.821 295.885,222.083 295.912,223.345 295.94,224.607 295.97,225.869 296.001,227.131 296.034,228.392 296.068,229.654 296.104,230.916 296.141,232.178 296.18,233.44 296.22,234.702 296.262,235.964 296.305,237.226 296.35,238.487 296.396,239.749 296.444,241.011 296.493,242.273 296.544,243.535 296.596,244.797 296.65,246.059 296.705,247.321 296.761,248.583 296.82,249.844 296.879,251.106 296.94,252.368 297.003,253.63 297.067,254.892 297.133,256.154 297.2,257.416 297.269,258.678 297.339,259.939 297.411,261.201 297.484,262.463 " />
<line x1="318.23" y1="137.537" x2="318.23" y2="139.374"  stroke="#7f7fff" />
<line x1="297.484" y1="137.537" x2="318.23" y2="137.537"  stroke="#7f7fff" />
<line x1="318.23" y1="262.463" x2="318.23" y2="260.626"  stroke="#7f7fff" />
<line x1="297.484" y1="262.463" x2="318.23" y2="262.463"  stroke="#7f7fff" />
<polyline fill="none" stroke="#7f7fff" points="318.23,139.374 317.492,140.599 316.774,141.823 316.076,143.048 315.397,144.273 314.738,145.498 314.097,146.723 313.474,147.947 312.87,149.172 312.283,150.397 311.714,151.622 311.162,152.846 310.627,154.071 310.108,155.296 309.606,156.521 309.12,157.745 308.65,158.97 308.196,160.195 307.757,161.42 307.334,162.645 306.926,163.869 306.533,165.094 306.155,166.319 305.791,167.544 305.442,168.768 305.108,169.993 304.788,171.218 304.482,172.443 304.19,173.667 303.912,174.892 303.648,176.117 303.398,177.342 303.161,178.567 302.938,179.791 302.729,181.016 302.533,182.241 302.35,183.466 302.181,184.69 302.025,185.915 301.882,187.14 301.752,188.365 301.635,189.589 301.532,190.814 301.441,192.039 301.363,193.264 301.299,194.489 301.247,195.713 301.208,196.938 301.183,198.163 301.17,199.388 301.17,200.612 301.183,201.837 301.208,203.062 301.247,204.287 301.299,205.511 301.363,206.736 301.441,207.961 301.532,209.186 301.635,210.411 301.752,211.635 301.882,212.86 302.025,214.085 302.181,215.31 302.35,216.534 302.533,217.759 302.729,218.984 302.938,220.209 303.161,221.433 303.398,222.658 303.648,223.883 303.912,225.108 304.19,226.333 304.482,227.557 304.788,228.782 305.108,230.007 305.442,231.232 305.791,232.456 306.155,233.681 306.533,234.906 306.926,236.131 307.334,237.355 307.757,238.58 308.196,239.805 308.65,241.03 309.12,242.255 309.606,243.479 310.108,244.704 310.627,245.929 311.162,247.154 311.714,248.378 312.283,249.603 312.87,250.828 313.474,252.053 314.097,253.277 314.738,254.502 315.397,255.727 316.076,256.952 316.774,258.177 317.492,259.401 318.23,260.626 " />
</g>
<g>
<polyline fill="none" stroke="#7f7fff" points="330.925,144.885 331.538,145.999 332.135,147.112 332.716,148.226 333.282,149.339 333.832,150.452 334.367,151.566 334.887,152.679 335.392,153.793 335.883,154.906 336.36,156.02 336.823,157.133 337.272,158.246 337.708,159.36 338.129,160.473 338.538,161.587 338.933,162.7 339.316,163.814 339.685,164.927 340.042,166.04 340.386,167.154 340.718,168.267 341.037,169.381 341.344,170.494 341.639,171.608 341.921,172.721 342.192,173.834 342.451,174.948 342.698,176.061 342.933,177.175 343.157,178.288 343.369,179.402 343.569,180.515 343.758,181.628 343.936,182.742 344.102,183.855 344.257,184.969 344.4,186.082 344.533,187.196 344.654,188.309 344.764,189.422 344.863,190.536 344.951,191.649 345.028,192.763 345.094,193.876 345.149,194.99 345.193,196.103 345.226,197.216 345.247,198.33 345.258,199.443 345.258,200.557 345.247,201.67 345.226,202.784 345.193,203.897 345.149,205.01 345.094,206.124 345.028,207.237 344.951,208.351 344.863,209.464 344.764,210.578 344.654,211.691 344.533,212.804 344.4,213.918 344.257,215.031 344.102,216.145 343.936,217.258 343.758,218.372 343.569,219.485 343.369,220.598 343.157,221.712 342.933,222.825 342.698,223.939 342.451,225.052 342.192,226.166 341.921,227.279 341.639,228.392 341.344,229.506 341.037,230.619 340.718,231.733 340.386,232.846 340.042,233.96 339.685,235.073 339.316,236.186 338.933,237.3 338.538,238.413 338.129,239.527 337.708,240.64 337.272,241.754 336.823,242.867 336.36,243.98 335.883,245.094 335.392,246.207 334.887,247.321 334.367,248.434 333.832,249.548 333.282,250.661 332.716,251.774 332.135,252.888 331.538,254.001 330.925,255.115 " />
<line x1="330.925" y1="138.455" x2="330.925" y2="144.885"  stroke="#7f7fff" />
<line x1="330.925" y1="138.455" x2="367.117" y2="138.455"  stroke="#7f7fff" />
<line x1="330.925" y1="261.545" x2="330.925" y2="255.115"  stroke="#7f7fff" />
<line x1="330.925" y1="261.545" x2="367.117" y2="261.545"  stroke="#7f7fff" />
<polyline fill="none" stroke="#7f7fff" points="367.117,138.455 366.451,139.699 365.803,140.942 365.172,142.185 364.558,143.429 363.96,144.672 363.379,145.915 362.813,147.159 362.263,148.402 361.729,149.645 361.21,150.889 360.706,152.132 360.218,153.375 359.744,154.619 359.284,155.862 358.839,157.105 358.408,158.349 357.992,159.592 357.589,160.835 357.2,162.079 356.825,163.322 356.463,164.565 356.115,165.809 355.78,167.052 355.459,168.295 355.151,169.538 354.855,170.782 354.573,172.025 354.303,173.268 354.047,174.512 353.803,175.755 353.571,176.998 353.352,178.242 353.146,179.485 352.952,180.728 352.771,181.972 352.602,183.215 352.445,184.458 352.3,185.702 352.168,186.945 352.047,188.188 351.939,189.432 351.843,190.675 351.759,191.918 351.687,193.162 351.627,194.405 351.579,195.648 351.544,196.892 351.52,198.135 351.508,199.378 351.508,200.622 351.52,201.865 351.544,203.108 351.579,204.352 351.627,205.595 351.687,206.838 351.759,208.082 351.843,209.325 351.939,210.568 352.047,211.812 352.168,213.055 352.3,214.298 352.445,215.542 352.602,216.785 352.771,218.028 352.952,219.272 353.146,220.515 353.352,221.758 353.571,223.002 353.803,224.245 354.047,225.488 354.303,226.732 354.573,227.975 354.855,229.218 355.151,230.462 355.459,231.705 355.78,232.948 356.115,234.191 356.463,235.435 356.825,236.678 357.2,237.921 357.589,239.165 357.992,240.408 358.408,241.651 358.839,242.895 359.284,244.138 359.744,245.381 360.218,246.625 360.706,247.868 361.21,249.111 361.729,250.355 362.263,251.598 362.813,252.841 363.379,254.085 363.96,255.328 364.558,256.571 365.172,257.815 365.803,259.058 366.451,260.301 367.117,261.545 " />
<line x1="367.117" y1="138.455" x2="373.28" y2="138.455"  stroke="#7f7fff" />
<line x1="367.117" y1="261.545" x2="373.28" y2="261.545"  stroke="#7f7fff" />
<polyline fill="none" stroke="#7f7fff" points="373.28,138.455 373.438,139.699 373.593,140.942 373.745,142.185 373.894,143.429 374.039,144.672 374.181,145.915 374.32,147.159 374.456,148.402 374.588,149.645 374.717,150.889 374.843,152.132 374.965,153.375 375.084,154.619 375.2,155.862 375.313,157.105 375.423,158.349 375.529,159.592 375.632,160.835 375.732,162.079 375.828,163.322 375.922,164.565 376.012,165.809 376.098,167.052 376.182,168.295 376.262,169.538 376.34,170.782 376.414,172.025 376.484,173.268 376.552,174.512 376.616,175.755 376.677,176.998 376.735,178.242 376.789,179.485 376.841,180.728 376.889,181.972 376.934,183.215 376.976,184.458 377.014,185.702 377.049,186.945 377.081,188.188 377.11,189.432 377.136,190.675 377.158,191.918 377.178,193.162 377.194,194.405 377.207,195.648 377.216,196.892 377.223,198.135 377.226,199.378 377.226,200.622 377.223,201.865 377.216,203.108 377.207,204.352 377.194,205.595 377.178,206.838 377.158,208.082 377.136,209.325 377.11,210.568 377.081,211.812 377.049,213.055 377.014,214.298 376.976,215.542 376.934,216.785 376.889,218.028 376.841,219.272 376.789,220.515 376.735,221.758 376.677,223.002 376.616,224.245 376.552,225.488 376.484,226.732 376.414,227.975 376.34,229.218 376.262,230.462 376.182,231.705 376.098,232.948 376.012,234.191 375.922,235.435 375.828,236.678 375.732,237.921 375.632,239.165 375.529,240.408 375.423,241.651 375.313,242.895 375.2,244.138 375.084,245.381 374.965,246.625 374.843,247.868 374.717,249.111 374.588,250.355 374.456,251.598 374.32,252.841 374.181,254.085 374.039,255.328 373.894,256.571 373.745,257.815 373.593,259.058 373.438,260.301 373.28,261.545 " />
</g>
<g>
<polyline fill="none" stroke="#7f7fff" points="382.034,137.904 381.856,139.159 381.681,140.413 381.51,141.668 381.343,142.922 381.179,144.176 381.019,145.431 380.863,146.685 380.71,147.94 380.561,149.194 380.416,150.449 380.275,151.703 380.137,152.958 380.003,154.212 379.872,155.467 379.745,156.721 379.622,157.976 379.502,159.23 379.386,160.484 379.274,161.739 379.166,162.993 379.061,164.248 378.959,165.502 378.862,166.757 378.768,168.011 378.677,169.266 378.591,170.52 378.507,171.775 378.428,173.029 378.352,174.284 378.28,175.538 378.211,176.792 378.146,178.047 378.085,179.301 378.027,180.556 377.973,181.81 377.922,183.065 377.876,184.319 377.832,185.574 377.793,186.828 377.756,188.083 377.724,189.337 377.695,190.592 377.67,191.846 377.648,193.1 377.63,194.355 377.616,195.609 377.605,196.864 377.598,198.118 377.594,199.373 377.594,200.627 377.598,201.882 377.605,203.136 377.616,204.391 377.63,205.645 377.648,206.9 377.67,208.154 377.695,209.408 377.724,210.663 377.756,211.917 377.793,213.172 377.832,214.426 377.876,215.681 377.922,216.935 377.973,218.19 378.027,219.444 378.085,220.699 378.146,221.953 378.211,223.208 378.28,224.462 378.352,225.716 378.428,226.971 378.507,228.225 378.591,229.48 378.677,230.734 378.768,231.989 378.862,233.243 378.959,234.498 379.061,235.752 379.166,237.007 379.274,238.261 379.386,239.516 379.502,240.77 379.622,242.024 379.745,243.279 379.872,244.533 380.003,245.788 380.137,247.042 380.275,248.297 380.416,249.551 380.561,250.806 380.71,252.06 380.863,253.315 381.019,254.569 381.179,255.824 381.343,257.078 381.51,258.332 381.681,259.587 381.856,260.841 382.034,262.096 " />
<line x1="382.034" y1="137.904" x2="387.309" y2="137.904"  stroke="#7f7fff" />
<line x1="382.034" y1="262.096" x2="387.309" y2="262.096"  stroke="#7f7fff" />
<polyline fill="none" stroke="#7f7fff" points="387.309,137.904 387.822,139.159 388.322,140.413 388.81,141.668 389.287,142.922 389.751,144.176 390.204,145.431 390.646,146.685 391.076,147.94 391.494,149.194 391.901,150.449 392.297,151.703 392.682,152.958 393.056,154.212 393.419,155.467 393.771,156.721 394.112,157.976 394.443,159.23 394.762,160.484 395.072,161.739 395.37,162.993 395.658,164.248 395.936,165.502 396.203,166.757 396.46,168.011 396.707,169.266 396.944,170.52 397.17,171.775 397.386,173.029 397.592,174.284 397.788,175.538 397.974,176.792 398.15,178.047 398.316,179.301 398.472,180.556 398.618,181.81 398.755,183.065 398.881,184.319 398.998,185.574 399.105,186.828 399.202,188.083 399.289,189.337 399.367,190.592 399.435,191.846 399.493,193.1 399.541,194.355 399.58,195.609 399.609,196.864 399.629,198.118 399.638,199.373 399.638,200.627 399.629,201.882 399.609,203.136 399.58,204.391 399.541,205.645 399.493,206.9 399.435,208.154 399.367,209.408 399.289,210.663 399.202,211.917 399.105,213.172 398.998,214.426 398.881,215.681 398.755,216.935 398.618,218.19 398.472,219.444 398.316,220.699 398.15,221.953 397.974,223.208 397.788,224.462 397.592,225.716 397.386,226.971 397.17,228.225 396.944,229.48 396.707,230.734 396.46,231.989 396.203,233.243 395.936,234.498 395.658,235.752 395.37,237.007 395.072,238.261 394.762,239.516 394.443,240.77 394.112,242.024 393.771,243.279 393.419,244.533 393.056,245.788 392.682,247.042 392.297,248.297 391.901,249.551 391.494,250.806 391.076,252.06 390.646,253.315 390.204,254.569 389.751,255.824 389.287,257.078 388.81,258.332 388.322,259.587 387.822,260.841 387.309,262.096 " />
<line x1="387.309" y1="137.904" x2="417.47" y2="137.904"  stroke="#7f7fff" />
<line x1="387.309" y1="262.096" x2="417.47" y2="262.096"  stroke="#7f7fff" />
<polyline fill="none" stroke="#7f7fff" points="417.47,137.904 416.958,139.159 416.459,140.413 415.971,141.668 415.495,142.922 415.03,144.176 414.578,145.431 414.137,146.685 413.707,147.94 413.289,149.194 412.882,150.449 412.487,151.703 412.102,152.958 411.729,154.212 411.366,155.467 411.014,156.721 410.674,157.976 410.343,159.23 410.024,160.484 409.715,161.739 409.417,162.993 409.129,164.248 408.851,165.502 408.584,166.757 408.328,168.011 408.081,169.266 407.845,170.52 407.619,171.775 407.403,173.029 407.197,174.284 407.001,175.538 406.815,176.792 406.639,178.047 406.473,179.301 406.317,180.556 406.171,181.81 406.035,183.065 405.909,184.319 405.792,185.574 405.685,186.828 405.588,188.083 405.501,189.337 405.423,190.592 405.356,191.846 405.297,193.1 405.249,194.355 405.21,195.609 405.181,196.864 405.162,198.118 405.152,199.373 405.152,200.627 405.162,201.882 405.181,203.136 405.21,204.391 405.249,205.645 405.297,206.9 405.356,208.154 405.423,209.408 405.501,210.663 405.588,211.917 405.685,213.172 405.792,214.426 405.909,215.681 406.035,216.935 406.171,218.19 406.317,219.444 406.473,220.699 406.639,221.953 406.815,223.208 407.001,224.462 407.197,225.716 407.403,226.971 407.619,228.225 407.845,229.48 408.081,230.734 408.328,231.989 408.584,233.243 408.851,234.498 409.129,235.752 409.417,237.007 409.715,238.261 410.024,239.516 410.343,240.77 410.674,242.024 411.014,243.279 411.366,244.533 411.729,245.788 412.102,247.042 412.487,248.297 412.882,249.551 413.289,250.806 413.707,252.06 414.137,253.315 414.578,254.569 415.03,255.824 415.495,257.078 415.971,258.332 416.459,259.587 416.958,260.841 417.47,262.096 " />
<line x1="417.47" y1="137.904" x2="421.884" y2="137.904"  stroke="#7f7fff" />
<line x1="417.47" y1="262.096" x2="421.884" y2="262.096"  stroke="#7f7fff" />
<polyline fill="none" stroke="#7f7fff" points="421.884,137.904 422.045,139.159 422.205,140.413 422.364,141.668 422.523,142.922 422.681,144.176 422.84,145.431 422.998,146.685 423.157,147.94 423.315,149.194 423.472,150.449 423.629,151.703 423.785,152.958 423.939,154.212 424.093,155.467 424.244,156.721 424.394,157.976 424.541,159.23 424.686,160.484 424.829,161.739 424.969,162.993 425.106,164.248 425.24,165.502 425.37,166.757 425.497,168.011 425.621,169.266 425.74,170.52 425.856,171.775 425.968,173.029 426.075,174.284 426.178,175.538 426.277,176.792 426.371,178.047 426.46,179.301 426.545,180.556 426.625,181.81 426.7,183.065 426.77,184.319 426.835,185.574 426.894,186.828 426.949,188.083 426.998,189.337 427.042,190.592 427.08,191.846 427.113,193.1 427.141,194.355 427.163,195.609 427.18,196.864 427.191,198.118 427.196,199.373 427.196,200.627 427.191,201.882 427.18,203.136 427.163,204.391 427.141,205.645 427.113,206.9 427.08,208.154 427.042,209.408 426.998,210.663 426.949,211.917 426.894,213.172 426.835,214.426 426.77,215.681 426.7,216.935 426.625,218.19 426.545,219.444 426.46,220.699 426.371,221.953 426.277,223.208 426.178,224.462 426.075,225.716 425.968,226.971 425.856,228.225 425.74,229.48 425.621,230.734 425.497,231.989 425.37,233.243 425.24,234.498 425.106,235.752 424.969,237.007 424.829,238.261 424.686,239.516 424.541,240.77 424.394,242.024 424.244,243.279 424.093,244.533 423.939,245.788 423.785,247.042 423.629,248.297 423.472,249.551 423.315,250.806 423.157,252.06 422.998,253.315 422.84,254.569 422.681,255.824 422.523,257.078 422.364,258.332 422.205,259.587 422.045,260.841 421.884,262.096 " />
</g>
</g>
<g><title>element</title>
<polyline fill="none" stroke="#7f7fff" points="569.393,41.2698 569.393,44.4765 569.393,47.6832 569.393,50.8899 569.393,54.0965 569.393,57.3032 569.393,60.5099 569.393,63.7165 569.393,66.9232 569.393,70.1299 569.393,73.3365 569.393,76.5432 569.393,79.7499 569.393,82.9565 569.393,86.1632 569.393,89.3699 569.393,92.5766 569.393,95.7832 569.393,98.9899 569.393,102.197 569.393,105.403 569.393,108.61 569.393,111.817 569.393,115.023 569.393,118.23 569.393,121.437 569.393,124.643 569.393,127.85 569.393,131.057 569.393,134.263 569.393,137.47 569.393,140.677 569.393,143.883 569.393,147.09 569.393,150.297 569.393,153.503 569.393,156.71 569.393,159.917 569.393,163.123 569.393,166.33 569.393,169.537 569.393,172.743 569.393,175.95 569.393,179.157 569.393,182.363 569.393,185.57 569.393,188.777 569.393,191.983 569.393,195.19 569.393,198.397 569.393,201.603 569.393,204.81 569.393,208.017 569.393,211.223 569.393,214.43 569.393,217.637 569.393,220.843 569.393,224.05 569.393,227.257 569.393,230.463 569.393,233.67 569.393,236.877 569.393,240.083 569.393,243.29 569.393,246.497 569.393,249.703 569.393,252.91 569.393,256.117 569.393,259.323 569.393,262.53 569.393,265.737 569.393,268.943 569.393,272.15 569.393,275.357 569.393,278.563 569.393,281.77 569.393,284.977 569.393,288.183 569.393,291.39 569.393,294.597 569.393,297.803 569.393,301.01 569.393,304.217 569.393,307.423 569.393,310.63 569.393,313.837 569.393,317.043 569.393,320.25 569.393,323.457 569.393,326.663 569.393,329.87 569.393,333.077 569.393,336.283 569.393,339.49 569.393,342.697 569.393,345.903 569.393,349.11 569.393,352.317 569.393,355.523 569.393,358.73 " />
</g>
<g><title>element</title>
</g>
<g><title>rays</title>
<g><title>ray</title>
<line x1="427.197" y1="200" x2="569.393" y2="200"  stroke="#ffe100" />
<line x1="405.151" y1="200" x2="427.197" y2="200"  stroke="#ffe100" />
<line x1="399.64" y1="200" x2="405.151" y2="200"  stroke="#ffe100" />
<line x1="377.594" y1="200" x2="399.64" y2="200"  stroke="#ffe100" />
<line x1="377.226" y1="200" x2="377.594" y2="200"  stroke="#ffe100" />
<line x1="351.506" y1="200" x2="377.226" y2="200"  stroke="#ffe100" />
<line x1="345.26" y1="200" x2="351.506" y2="200"  stroke="#ffe100" />
<line x1="323.214" y1="200" x2="345.26" y2="200"  stroke="#ffe100" />
<line x1="301.168" y1="200" x2="323.214" y2="200"  stroke="#ffe100" />
<line x1="295.657" y1="200" x2="301.168" y2="200"  stroke="#ffe100" />
<line x1="280.578" y1="200" x2="295.657" y2="200"  stroke="#ffe100" />
<line x1="275.067" y1="200" x2="280.578" y2="200"  stroke="#ffe100" />
<line x1="253.021" y1="200" x2="275.067" y2="200"  stroke="#ffe100" />
<line x1="252.653" y1="200" x2="253.021" y2="200"  stroke="#ffe100" />
<line x1="230.607" y1="200" x2="252.653" y2="200"  stroke="#ffe100" />
<line x1="-3443.7" y1="200" x2="230.607" y2="200"  stroke="#ffe100" />
</g>
<g><title>ray</title>
<line x1="427.197" y1="200" x2="569.393" y2="200"  stroke="#ff0000" />
<line x1="405.151" y1="200" x2="427.197" y2="200"  stroke="#ff0000" />
<line x1="399.64" y1="200" x2="405.151" y2="200"  stroke="#ff0000" />
<line x1="377.594" y1="200" x2="399.64" y2="200"  stroke="#ff0000" />
<line x1="377.226" y1="200" x2="377.594" y2="200"  stroke="#ff0000" />
<line x1="351.506" y1="200" x2="377.226" y2="200"  stroke="#ff0000" />
<line x1="345.26" y1="200" x2="351.506" y2="200"  stroke="#ff0000" />
<line x1="323.214" y1="200" x2="345.26" y2="200"  stroke="#ff0000" />
<line x1="301.168" y1="200" x2="323.214" y2="200"  stroke="#ff0000" />
<line x1="295.657" y1="200" x2="301.168" y2="200"  stroke="#ff0000" />
<line x1="280.578" y1="200" x2="295.657" y2="200"  stroke="#ff0000" />
<line x1="275.067" y1="200" x2="280.578" y2="200"  stroke="#ff0000" />
<line x1="253.021" y1="200" x2="275.067" y2="200"  stroke="#ff0000" />
<line x1="252.653" y1="200" x2="253.021" y2="200"  stroke="#ff0000" />
<line x1="230.607" y1="200" x2="252.653" y2="200"  stroke="#ff0000" />
<line x1="-3443.7" y1="200" x2="230.607" y2="200"  stroke="#ff0000" />
</g>
<g><title>ray</title>
<line x1="427.197" y1="200" x2="569.393" y2="200"  stroke="#00ebff" />
<line x1="405.151" y1="200" x2="427.197" y2="200"  stroke="#00ebff" />
<line x1="399.64" y1="200" x2="405.151" y2="200"  stroke="#00ebff" />
<line x1="377.594" y1="200" x2="399.64" y2="200"  stroke="#00ebff" />
<line x1="377.226" y1="200" x2="377.594" y2="200"  stroke="#00ebff" />
<line x1="351.506" y1="200" x2="377.226" y2="200"  stroke="#00ebff" />
<line x1="345.26" y1="200" x2="351.506" y2="200"  stroke="#00ebff" />
<line x1="323.214" y1="200" x2="345.26" y2="200"  stroke="#00ebff" />
<line x1="301.168" y1="200" x2="323.214" y2="200"  stroke="#00ebff" />
<line x1="295.657" y1="200" x2="301.168" y2="200"  stroke="#00ebff" />
<line x1="280.578" y1="200" x2="295.657" y2="200"  stroke="#00ebff" />
<line x1="275.067" y1="200" x2="280.578" y2="200"  stroke="#00ebff" />
<line x1="253.021" y1="200" x2="275.067" y2="200"  stroke="#00ebff" />
<line x1="252.653" y1="200" x2="253.021" y2="200"  stroke="#00ebff" />
<line x1="230.607" y1="200" x2="252.653" y2="200"  stroke="#00ebff" />
<line x1="-3443.7" y1="200" x2="230.607" y2="200"  stroke="#00ebff" />
</g>
<g><title>ray</title>
<line x1="251.177" y1="113.373" x2="256.989" y2="114.624"  stroke="#ffe100" />
<line x1="-3443.7" y1="113.373" x2="251.177" y2="113.373"  stroke="#ffe100" />
</g>
<g><title>ray</title>
<line x1="251.177" y1="113.373" x2="256.99" y2="114.62"  stroke="#ff0000" />
<line x1="-3443.7" y1="113.373" x2="251.177" y2="113.373"  stroke="#ff0000" />
</g>
<g><title>ray</title>
<line x1="251.177" y1="113.373" x2="256.988" y2="114.634"  stroke="#00ebff" />
<line x1="-3443.7" y1="113.373" x2="251.177" y2="113.373"  stroke="#00ebff" />
</g>
<g><title>ray</title>
<line x1="251.177" y1="286.627" x2="256.989" y2="285.376"  stroke="#ffe100" />
<line x1="-3443.7" y1="286.627" x2="251.177" y2="286.627"  stroke="#ffe100" />
</g>
<g><title>ray</title>
<line x1="251.177" y1="286.627" x2="256.99" y2="285.38"  stroke="#ff0000" />
<line x1="-3443.7" y1="286.627" x2="251.177" y2="286.627"  stroke="#ff0000" />
</g>
<g><title>ray</title>
<line x1="251.177" y1="286.627" x2="256.988" y2="285.366"  stroke="#00ebff" />
<line x1="-3443.7" y1="286.627" x2="251.177" y2="286.627"  stroke="#00ebff" />
</g>
<g><title>ray</title>
<line x1="315.482" y1="144.118" x2="323.214" y2="144.971"  stroke="#ffe100" />
<line x1="297.397" y1="139.043" x2="315.482" y2="144.118"  stroke="#ffe100" />
<line x1="293.719" y1="137.364" x2="297.397" y2="139.043"  stroke="#ffe100" />
<line x1="276.957" y1="129.808" x2="293.719" y2="137.364"  stroke="#ffe100" />
<line x1="271.763" y1="127.823" x2="276.957" y2="129.808"  stroke="#ffe100" />
<line x1="256.111" y1="123.74" x2="271.763" y2="127.823"  stroke="#ffe100" />
<line x1="246.989" y1="122.036" x2="256.111" y2="123.74"  stroke="#ffe100" />
<line x1="-3443.7" y1="122.036" x2="246.989" y2="122.036"  stroke="#ffe100" />
</g>
<g><title>ray</title>
<line x1="315.53" y1="144.03" x2="323.214" y2="144.874"  stroke="#ff0000" />
<line x1="297.401" y1="138.957" x2="315.53" y2="144.03"  stroke="#ff0000" />
<line x1="293.747" y1="137.301" x2="297.401" y2="138.957"  stroke="#ff0000" />
<line x1="276.959" y1="129.769" x2="293.747" y2="137.301"  stroke="#ff0000" />
<line x1="271.778" y1="127.796" x2="276.959" y2="129.769"  stroke="#ff0000" />
<line x1="256.111" y1="123.734" x2="271.778" y2="127.796"  stroke="#ff0000" />
<line x1="246.989" y1="122.036" x2="256.111" y2="123.734"  stroke="#ff0000" />
<line x1="-3443.7" y1="122.036" x2="246.989" y2="122.036"  stroke="#ff0000" />
</g>
<g><title>ray</title>
<line x1="315.37" y1="144.323" x2="323.214" y2="145.194"  stroke="#00ebff" />
<line x1="297.385" y1="139.245" x2="315.37" y2="144.323"  stroke="#00ebff" />
<line x1="293.655" y1="137.512" x2="297.385" y2="139.245"  stroke="#00ebff" />
<line x1="276.952" y1="129.9" x2="293.655" y2="137.512"  stroke="#00ebff" />
<line x1="271.727" y1="127.888" x2="276.952" y2="129.9"  stroke="#00ebff" />
<line x1="256.11" y1="123.753" x2="271.727" y2="127.888"  stroke="#00ebff" />
<line x1="246.989" y1="122.036" x2="256.11" y2="123.753"  stroke="#00ebff" />
<line x1="-3443.7" y1="122.036" x2="246.989" y2="122.036"  stroke="#00ebff" />
</g>
<g><title>ray</title>
<line x1="315.482" y1="255.882" x2="323.214" y2="255.029"  stroke="#ffe100" />
<line x1="297.397" y1="260.957" x2="315.482" y2="255.882"  stroke="#ffe100" />
<line x1="293.719" y1="262.636" x2="297.397" y2="260.957"  stroke="#ffe100" />
<line x1="276.957" y1="270.192" x2="293.719" y2="262.636"  stroke="#ffe100" />
<line x1="271.763" y1="272.177" x2="276.957" y2="270.192"  stroke="#ffe100" />
<line x1="256.111" y1="276.26" x2="271.763" y2="272.177"  stroke="#ffe100" />
<line x1="246.989" y1="277.964" x2="256.111" y2="276.26"  stroke="#ffe100" />
<line x1="-3443.7" y1="277.964" x2="246.989" y2="277.964"  stroke="#ffe100" />
</g>
<g><title>ray</title>
<line x1="315.53" y1="255.97" x2="323.214" y2="255.126"  stroke="#ff0000" />
<line x1="297.401" y1="261.043" x2="315.53" y2="255.97"  stroke="#ff0000" />
<line x1="293.747" y1="262.699" x2="297.401" y2="261.043"  stroke="#ff0000" />
<line x1="276.959" y1="270.231" x2="293.747" y2="262.699"  stroke="#ff0000" />
<line x1="271.778" y1="272.204" x2="276.959" y2="270.231"  stroke="#ff0000" />
<line x1="256.111" y1="276.266" x2="271.778" y2="272.204"  stroke="#ff0000" />
<line x1="246.989" y1="277.964" x2="256.111" y2="276.266"  stroke="#ff0000" />
<line x1="-3443.7" y1="277.964" x2="246.989" y2="277.964"  stroke="#ff0000" />
</g>
<g><title>ray</title>
<line x1="315.37" y1="255.677" x2="323.214" y2="254.806"  stroke="#00ebff" />
<line x1="297.385" y1="260.755" x2="315.37" y2="255.677"  stroke="#00ebff" />
<line x1="293.655" y1="262.488" x2="297.385" y2="260.755"  stroke="#00ebff" />
<line x1="276.952" y1="270.1" x2="293.655" y2="262.488"  stroke="#00ebff" />
<line x1="271.727" y1="272.112" x2="276.952" y2="270.1"  stroke="#00ebff" />
<line x1="256.11" y1="276.247" x2="271.727" y2="272.112"  stroke="#00ebff" />
<line x1="246.989" y1="277.964" x2="256.11" y2="276.247"  stroke="#00ebff" />
<line x1="-3443.7" y1="277.964" x2="246.989" y2="277.964"  stroke="#00ebff" />
</g>
<g><title>ray</title>
<line x1="423.476" y1="150.482" x2="569.393" y2="200.848"  stroke="#ffe100" />
<line x1="413.307" y1="149.141" x2="423.476" y2="150.482"  stroke="#ffe100" />
<line x1="390.672" y1="146.76" x2="413.307" y2="149.141"  stroke="#ffe100" />
<line x1="380.876" y1="146.574" x2="390.672" y2="146.76"  stroke="#ffe100" />
<line x1="374.309" y1="147.059" x2="380.876" y2="146.574"  stroke="#ffe100" />
<line x1="362.376" y1="148.144" x2="374.309" y2="147.059"  stroke="#ffe100" />
<line x1="334.609" y1="152.081" x2="362.376" y2="148.144"  stroke="#ffe100" />
<line x1="323.214" y1="151.028" x2="334.609" y2="152.081"  stroke="#ffe100" />
<line x1="312.455" y1="150.035" x2="323.214" y2="151.028"  stroke="#ffe100" />
<line x1="297.008" y1="146.277" x2="312.455" y2="150.035"  stroke="#ffe100" />
<line x1="291.011" y1="143.938" x2="297.008" y2="146.277"  stroke="#ffe100" />
<line x1="276.526" y1="138.308" x2="291.011" y2="143.938"  stroke="#ffe100" />
<line x1="267.815" y1="135.421" x2="276.526" y2="138.308"  stroke="#ffe100" />
<line x1="255.35" y1="132.632" x2="267.815" y2="135.421"  stroke="#ffe100" />
<line x1="243.385" y1="130.698" x2="255.35" y2="132.632"  stroke="#ffe100" />
<line x1="-3443.7" y1="130.698" x2="243.385" y2="130.698"  stroke="#ffe100" />
</g>
<g><title>ray</title>
<line x1="423.473" y1="150.458" x2="569.393" y2="200.765"  stroke="#ff0000" />
<line x1="413.316" y1="149.113" x2="423.473" y2="150.458"  stroke="#ff0000" />
<line x1="390.656" y1="146.716" x2="413.316" y2="149.113"  stroke="#ff0000" />
<line x1="380.883" y1="146.522" x2="390.656" y2="146.716"  stroke="#ff0000" />
<line x1="374.302" y1="146.992" x2="380.883" y2="146.522"  stroke="#ff0000" />
<line x1="362.413" y1="148.059" x2="374.302" y2="146.992"  stroke="#ff0000" />
<line x1="334.565" y1="151.987" x2="362.413" y2="148.059"  stroke="#ff0000" />
<line x1="323.214" y1="150.942" x2="334.565" y2="151.987"  stroke="#ff0000" />
<line x1="312.492" y1="149.956" x2="323.214" y2="150.942"  stroke="#ff0000" />
<line x1="297.012" y1="146.201" x2="312.492" y2="149.956"  stroke="#ff0000" />
<line x1="291.032" y1="143.885" x2="297.012" y2="146.201"  stroke="#ff0000" />
<line x1="276.528" y1="138.274" x2="291.032" y2="143.885"  stroke="#ff0000" />
<line x1="267.825" y1="135.4" x2="276.528" y2="138.274"  stroke="#ff0000" />
<line x1="255.351" y1="132.625" x2="267.825" y2="135.4"  stroke="#ff0000" />
<line x1="243.385" y1="130.698" x2="255.351" y2="132.625"  stroke="#ff0000" />
<line x1="-3443.7" y1="130.698" x2="243.385" y2="130.698"  stroke="#ff0000" />
</g>
<g><title>ray</title>
<line x1="423.48" y1="150.51" x2="569.393" y2="200.954"  stroke="#00ebff" />
<line x1="413.294" y1="149.181" x2="423.48" y2="150.51"  stroke="#00ebff" />
<line x1="390.7" y1="146.842" x2="413.294" y2="149.181"  stroke="#00ebff" />
<line x1="380.864" y1="146.679" x2="390.7" y2="146.842"  stroke="#00ebff" />
<line x1="374.325" y1="147.2" x2="380.864" y2="146.679"  stroke="#00ebff" />
<line x1="362.293" y1="148.333" x2="374.325" y2="147.2"  stroke="#00ebff" />
<line x1="334.709" y1="152.295" x2="362.293" y2="148.333"  stroke="#00ebff" />
<line x1="323.214" y1="151.227" x2="334.709" y2="152.295"  stroke="#00ebff" />
<line x1="312.367" y1="150.219" x2="323.214" y2="151.227"  stroke="#00ebff" />
<line x1="296.999" y1="146.456" x2="312.367" y2="150.219"  stroke="#00ebff" />
<line x1="290.964" y1="144.061" x2="296.999" y2="146.456"  stroke="#00ebff" />
<line x1="276.523" y1="138.388" x2="290.964" y2="144.061"  stroke="#00ebff" />
<line x1="267.79" y1="135.472" x2="276.523" y2="138.388"  stroke="#00ebff" />
<line x1="255.349" y1="132.647" x2="267.79" y2="135.472"  stroke="#00ebff" />
<line x1="243.385" y1="130.698" x2="255.349" y2="132.647"  stroke="#00ebff" />
<line x1="-3443.7" y1="130.698" x2="243.385" y2="130.698"  stroke="#00ebff" />
</g>
<g><title>ray</title>
<line x1="423.476" y1="249.518" x2="569.393" y2="199.152"  stroke="#ffe100" />
<line x1="413.307" y1="250.859" x2="423.476" y2="249.518"  stroke="#ffe100" />
<line x1="390.672" y1="253.24" x2="413.307" y2="250.859"  stroke="#ffe100" />
<line x1="380.876" y1="253.426" x2="390.672" y2="253.24"  stroke="#ffe100" />
<line x1="374.309" y1="252.941" x2="380.876" y2="253.426"  stroke="#ffe100" />
<line x1="362.376" y1="251.856" x2="374.309" y2="252.941"  stroke="#ffe100" />
<line x1="334.609" y1="247.919" x2="362.376" y2="251.856"  stroke="#ffe100" />
<line x1="323.214" y1="248.972" x2="334.609" y2="247.919"  stroke="#ffe100" />
<line x1="312.455" y1="249.965" x2="323.214" y2="248.972"  stroke="#ffe100" />
<line x1="297.008" y1="253.723" x2="312.455" y2="249.965"  stroke="#ffe100" />
<line x1="291.011" y1="256.062" x2="297.008" y2="253.723"  stroke="#ffe100" />
<line x1="276.526" y1="261.692" x2="291.011" y2="256.062"  stroke="#ffe100" />
<line x1="267.815" y1="264.579" x2="276.526" y2="261.692"  stroke="#ffe100" />
<line x1="255.35" y1="267.368" x2="267.815" y2="264.579"  stroke="#ffe100" />
<line x1="243.385" y1="269.302" x2="255.35" y2="267.368"  stroke="#ffe100" />
<line x1="-3443.7" y1="269.302" x2="243.385" y2="269.302"  stroke="#ffe100" />
</g>
<g><title>ray</title>
<line x1="423.473" y1="249.542" x2="569.393" y2="199.235"  stroke="#ff0000" />
<line x1="413.316" y1="250.887" x2="423.473" y2="249.542"  stroke="#ff0000" />
<line x1="390.656" y1="253.284" x2="413.316" y2="250.887"  stroke="#ff0000" />
<line x1="380.883" y1="253.478" x2="390.656" y2="253.284"  stroke="#ff0000" />
<line x1="374.302" y1="253.008" x2="380.883" y2="253.478"  stroke="#ff0000" />
<line x1="362.413" y1="251.941" x2="374.302" y2="253.008"  stroke="#ff0000" />
<line x1="334.565" y1="248.013" x2="362.413" y2="251.941"  stroke="#ff0000" />
<line x1="323.214" y1="249.058" x2="334.565" y2="248.013"  stroke="#ff0000" />
<line x1="312.492" y1="250.044" x2="323.214" y2="249.058"  stroke="#ff0000" />
<line x1="297.012" y1="253.799" x2="312.492" y2="250.044"  stroke="#ff0000" />
<line x1="291.032" y1="256.115" x2="297.012" y2="253.799"  stroke="#ff0000" />
<line x1="276.528" y1="261.726" x2="291.032" y2="256.115"  stroke="#ff0000" />
<line x1="267.825" y1="264.6" x2="276.528" y2="261.726"  stroke="#ff0000" />
<line x1="255.351" y1="267.375" x2="267.825" y2="264.6"  stroke="#ff0000" />
<line x1="243.385" y1="269.302" x2="255.351" y2="267.375"  stroke="#ff0000" />
<line x1="-3443.7" y1="269.302" x2="243.385" y2="269.302"  stroke="#ff0000" />
</g>
<g><title>ray</title>
<line x1="423.48" y1="249.49" x2="569.393" y2="199.046"  stroke="#00ebff" />
<line x1="413.294" y1="250.819" x2="423.48" y2="249.49"  stroke="#00ebff" />
<line x1="390.7" y1="253.158" x2="413.294" y2="250.819"  stroke="#00ebff" />
<line x1="380.864" y1="253.321" x2="390.7" y2="253.158"  stroke="#00ebff" />
<line x1="374.325" y1="252.8" x2="380.864" y2="253.321"  stroke="#00ebff" />
<line x1="362.293" y1="251.667" x2="374.325" y2="252.8"  stroke="#00ebff" />
<line x1="334.709" y1="247.705" x2="362.293" y2="251.667"  stroke="#00ebff" />
<line x1="323.214" y1="248.773" x2="334.709" y2="247.705"  stroke="#00ebff" />
<line x1="312.367" y1="249.781" x2="323.214" y2="248.773"  stroke="#00ebff" />
<line x1="296.999" y1="253.544" x2="312.367" y2="249.781"  stroke="#00ebff" />
<line x1="290.964" y1="255.939" x2="296.999" y2="253.544"  stroke="#00ebff" />
<line x1="276.523" y1="261.612" x2="290.964" y2="255.939"  stroke="#00ebff" />
<line x1="267.79" y1="264.528" x2="276.523" y2="261.612"  stroke="#00ebff" />
<line x1="255.349" y1="267.353" x2="267.79" y2="264.528"  stroke="#00ebff" />
<line x1="243.385" y1="269.302" x2="255.349" y2="267.353"  stroke="#00ebff" />
<line x1="-3443.7" y1="269.302" x2="243.385" y2="269.302"  stroke="#00ebff" />
</g>
<g><title>ray</title>
<line x1="424.305" y1="157.229" x2="569.393" y2="200.349"  stroke="#ffe100" />
<line x1="411.276" y1="155.784" x2="424.305" y2="157.229"  stroke="#ffe100" />
<line x1="393.049" y1="154.188" x2="411.276" y2="155.784"  stroke="#ffe100" />
<line x1="380.026" y1="153.99" x2="393.049" y2="154.188"  stroke="#ffe100" />
<line x1="375.056" y1="154.314" x2="380.026" y2="153.99"  stroke="#ffe100" />
<line x1="359.396" y1="155.555" x2="375.056" y2="154.314"  stroke="#ffe100" />
<line x1="337.269" y1="158.238" x2="359.396" y2="155.555"  stroke="#ffe100" />
<line x1="323.214" y1="157.145" x2="337.269" y2="158.238"  stroke="#ffe100" />
<line x1="309.776" y1="156.1" x2="323.214" y2="157.145"  stroke="#ffe100" />
<line x1="296.675" y1="153.365" x2="309.776" y2="156.1"  stroke="#ffe100" />
<line x1="288.586" y1="150.686" x2="296.675" y2="153.365"  stroke="#ffe100" />
<line x1="276.162" y1="146.561" x2="288.586" y2="150.686"  stroke="#ffe100" />
<line x1="264.327" y1="143.195" x2="276.162" y2="146.561"  stroke="#ffe100" />
<line x1="254.696" y1="141.357" x2="264.327" y2="143.195"  stroke="#ffe100" />
<line x1="240.294" y1="139.361" x2="254.696" y2="141.357"  stroke="#ffe100" />
<line x1="-3443.7" y1="139.361" x2="240.294" y2="139.361"  stroke="#ffe100" />
</g>
<g><title>ray</title>
<line x1="424.302" y1="157.208" x2="569.393" y2="200.276"  stroke="#ff0000" />
<line x1="411.283" y1="155.758" x2="424.302" y2="157.208"  stroke="#ff0000" />
<line x1="393.038" y1="154.151" x2="411.283" y2="155.758"  stroke="#ff0000" />
<line x1="380.031" y1="153.942" x2="393.038" y2="154.151"  stroke="#ff0000" />
<line x1="375.05" y1="154.257" x2="380.031" y2="153.942"  stroke="#ff0000" />
<line x1="359.424" y1="155.48" x2="375.05" y2="154.257"  stroke="#ff0000" />
<line x1="337.236" y1="158.156" x2="359.424" y2="155.48"  stroke="#ff0000" />
<line x1="323.214" y1="157.069" x2="337.236" y2="158.156"  stroke="#ff0000" />
<line x1="309.805" y1="156.031" x2="323.214" y2="157.069"  stroke="#ff0000" />
<line x1="296.678" y1="153.298" x2="309.805" y2="156.031"  stroke="#ff0000" />
<line x1="288.601" y1="150.642" x2="296.678" y2="153.298"  stroke="#ff0000" />
<line x1="276.163" y1="146.531" x2="288.601" y2="150.642"  stroke="#ff0000" />
<line x1="264.334" y1="143.178" x2="276.163" y2="146.531"  stroke="#ff0000" />
<line x1="254.697" y1="141.35" x2="264.334" y2="143.178"  stroke="#ff0000" />
<line x1="240.294" y1="139.361" x2="254.697" y2="141.35"  stroke="#ff0000" />
<line x1="-3443.7" y1="139.361" x2="240.294" y2="139.361"  stroke="#ff0000" />
</g>
<g><title>ray</title>
<line x1="424.308" y1="157.256" x2="569.393" y2="200.447"  stroke="#00ebff" />
<line x1="411.265" y1="155.824" x2="424.308" y2="157.256"  stroke="#00ebff" />
<line x1="393.07" y1="154.258" x2="411.265" y2="155.824"  stroke="#00ebff" />
<line x1="380.016" y1="154.085" x2="393.07" y2="154.258"  stroke="#00ebff" />
<line x1="375.067" y1="154.433" x2="380.016" y2="154.085"  stroke="#00ebff" />
<line x1="359.335" y1="155.723" x2="375.067" y2="154.433"  stroke="#00ebff" />
<line x1="337.343" y1="158.425" x2="359.335" y2="155.723"  stroke="#00ebff" />
<line x1="323.214" y1="157.319" x2="337.343" y2="158.425"  stroke="#00ebff" />
<line x1="309.71" y1="156.263" x2="323.214" y2="157.319"  stroke="#00ebff" />
<line x1="296.668" y1="153.522" x2="309.71" y2="156.263"  stroke="#00ebff" />
<line x1="288.552" y1="150.788" x2="296.668" y2="153.522"  stroke="#00ebff" />
<line x1="276.159" y1="146.63" x2="288.552" y2="150.788"  stroke="#00ebff" />
<line x1="264.311" y1="143.235" x2="276.159" y2="146.63"  stroke="#00ebff" />
<line x1="254.695" y1="141.373" x2="264.311" y2="143.235"  stroke="#00ebff" />
<line x1="240.294" y1="139.361" x2="254.695" y2="141.373"  stroke="#00ebff" />
<line x1="-3443.7" y1="139.361" x2="240.294" y2="139.361"  stroke="#00ebff" />
</g>
<g><title>ray</title>
<line x1="424.305" y1="242.771" x2="569.393" y2="199.651"  stroke="#ffe100" />
<line x1="411.276" y1="244.216" x2="424.305" y2="242.771"  stroke="#ffe100" />
<line x1="393.049" y1="245.812" x2="411.276" y2="244.216"  stroke="#ffe100" />
<line x1="380.026" y1="246.01" x2="393.049" y2="245.812"  stroke="#ffe100" />
<line x1="375.056" y1="245.686" x2="380.026" y2="246.01"  stroke="#ffe100" />
<line x1="359.396" y1="244.445" x2="375.056" y2="245.686"  stroke="#ffe100" />
<line x1="337.269" y1="241.762" x2="359.396" y2="244.445"  stroke="#ffe100" />
<line x1="323.214" y1="242.855" x2="337.269" y2="241.762"  stroke="#ffe100" />
<line x1="309.776" y1="243.9" x2="323.214" y2="242.855"  stroke="#ffe100" />
<line x1="296.675" y1="246.635" x2="309.776" y2="243.9"  stroke="#ffe100" />
<line x1="288.586" y1="249.314" x2="296.675" y2="246.635"  stroke="#ffe100" />
<line x1="276.162" y1="253.439" x2="288.586" y2="249.314"  stroke="#ffe100" />
<line x1="264.327" y1="256.805" x2="276.162" y2="253.439"  stroke="#ffe100" />
<line x1="254.696" y1="258.643" x2="264.327" y2="256.805"  stroke="#ffe100" />
<line x1="240.294" y1="260.639" x2="254.696" y2="258.643"  stroke="#ffe100" />
<line x1="-3443.7" y1="260.639" x2="240.294" y2="260.639"  stroke="#ffe100" />
</g>
<g><title>ray</title>
<line x1="424.302" y1="242.792" x2="569.393" y2="199.724"  stroke="#ff0000" />
<line x1="411.283" y1="244.242" x2="424.302" y2="242.792"  stroke="#ff0000" />
<line x1="393.038" y1="245.849" x2="411.283" y2="244.242"  stroke="#ff0000" />
<line x1="380.031" y1="246.058" x2="393.038" y2="245.849"  stroke="#ff0000" />
<line x1="375.05" y1="245.743" x2="380.031" y2="246.058"  stroke="#ff0000" />
<line x1="359.424" y1="244.52" x2="375.05" y2="245.743"  stroke="#ff0000" />
<line x1="337.236" y1="241.844" x2="359.424" y2="244.52"  stroke="#ff0000" />
<line x1="323.214" y1="242.931" x2="337.236" y2="241.844"  stroke="#ff0000" />
<line x1="309.805" y1="243.969" x2="323.214" y2="242.931"  stroke="#ff0000" />
<line x1="296.678" y1="246.702" x2="309.805" y2="243.969"  stroke="#ff0000" />
<line x1="288.601" y1="249.358" x2="296.678" y2="246.702"  stroke="#ff0000" />
<line x1="276.163" y1="253.469" x2="288.601" y2="249.358"  stroke="#ff0000" />
<line x1="264.334" y1="256.822" x2="276.163" y2="253.469"  stroke="#ff0000" />
<line x1="254.697" y1="258.65" x2="264.334" y2="256.822"  stroke="#ff0000" />
<line x1="240.294" y1="260.639" x2="254.697" y2="258.65"  stroke="#ff0000" />
<line x1="-3443.7" y1="260.639" x2="240.294" y2="260.639"  stroke="#ff0000" />
</g>
<g><title>ray</title>
<line x1="424.308" y1="242.744" x2="569.393" y2="199.553"  stroke="#00ebff" />
<line x1="411.265" y1="244.176" x2="424.308" y2="242.744"  stroke="#00ebff" />
<line x1="393.07" y1="245.742" x2="411.265" y2="244.176"  stroke="#00ebff" />
<line x1="380.016" y1="245.915" x2="393.07" y2="245.742"  stroke="#00ebff" />
<line x1="375.067" y1="245.567" x2="380.016" y2="245.915"  stroke="#00ebff" />
<line x1="359.335" y1="244.277" x2="375.067" y2="245.567"  stroke="#00ebff" />
<line x1="337.343" y1="241.575" x2="359.335" y2="244.277"  stroke="#00ebff" />
<line x1="323.214" y1="242.681" x2="337.343" y2="241.575"  stroke="#00ebff" />
<line x1="309.71" y1="243.737" x2="323.214" y2="242.681"  stroke="#00ebff" />
<line x1="296.668" y1="246.478" x2="309.71" y2="243.737"  stroke="#00ebff" />
<line x1="288.552" y1="249.212" x2="296.668" y2="246.478"  stroke="#00ebff" />
<line x1="276.159" y1="253.37" x2="288.552" y2="249.212"  stroke="#00ebff" />
<line x1="264.311" y1="256.765" x2="276.159" y2="253.37"  stroke="#00ebff" />
<line x1="254.695" y1="258.627" x2="264.311" y2="256.765"  stroke="#00ebff" />
<line x1="240.294" y1="260.639" x2="254.695" y2="258.627"  stroke="#00ebff" />
<line x1="-3443.7" y1="260.639" x2="240.294" y2="260.639"  stroke="#00ebff" />
</g>
<g><title>ray</title>
<line x1="425.058" y1="163.805" x2="569.393" y2="200.117"  stroke="#ffe100" />
<line x1="409.563" y1="162.374" x2="425.058" y2="163.805"  stroke="#ffe100" />
<line x1="394.968" y1="161.315" x2="409.563" y2="162.374"  stroke="#ffe100" />
<line x1="379.329" y1="161.118" x2="394.968" y2="161.315"  stroke="#ffe100" />
<line x1="375.671" y1="161.321" x2="379.329" y2="161.118"  stroke="#ffe100" />
<line x1="357.049" y1="162.573" x2="375.671" y2="161.321"  stroke="#ffe100" />
<line x1="339.497" y1="164.355" x2="357.049" y2="162.573"  stroke="#ffe100" />
<line x1="323.214" y1="163.294" x2="339.497" y2="164.355"  stroke="#ffe100" />
<line x1="307.463" y1="162.267" x2="323.214" y2="163.294"  stroke="#ffe100" />
<line x1="296.394" y1="160.315" x2="307.463" y2="162.267"  stroke="#ffe100" />
<line x1="286.468" y1="157.56" x2="296.394" y2="160.315"  stroke="#ffe100" />
<line x1="275.857" y1="154.597" x2="286.468" y2="157.56"  stroke="#ffe100" />
<line x1="261.31" y1="151.105" x2="275.857" y2="154.597"  stroke="#ffe100" />
<line x1="254.141" y1="149.953" x2="261.31" y2="151.105"  stroke="#ffe100" />
<line x1="237.672" y1="148.024" x2="254.141" y2="149.953"  stroke="#ffe100" />
<line x1="-3443.7" y1="148.024" x2="237.672" y2="148.024"  stroke="#ffe100" />
</g>
<g><title>ray</title>
<line x1="425.056" y1="163.786" x2="569.393" y2="200.054"  stroke="#ff0000" />
<line x1="409.569" y1="162.349" x2="425.056" y2="163.786"  stroke="#ff0000" />
<line x1="394.961" y1="161.284" x2="409.569" y2="162.349"  stroke="#ff0000" />
<line x1="379.333" y1="161.077" x2="394.961" y2="161.284"  stroke="#ff0000" />
<line x1="375.668" y1="161.274" x2="379.333" y2="161.077"  stroke="#ff0000" />
<line x1="357.069" y1="162.507" x2="375.668" y2="161.274"  stroke="#ff0000" />
<line x1="339.473" y1="164.284" x2="357.069" y2="162.507"  stroke="#ff0000" />
<line x1="323.214" y1="163.228" x2="339.473" y2="164.284"  stroke="#ff0000" />
<line x1="307.483" y1="162.207" x2="323.214" y2="163.228"  stroke="#ff0000" />
<line x1="296.396" y1="160.257" x2="307.483" y2="162.207"  stroke="#ff0000" />
<line x1="286.478" y1="157.524" x2="296.396" y2="160.257"  stroke="#ff0000" />
<line x1="275.858" y1="154.571" x2="286.478" y2="157.524"  stroke="#ff0000" />
<line x1="261.315" y1="151.091" x2="275.858" y2="154.571"  stroke="#ff0000" />
<line x1="254.141" y1="149.946" x2="261.315" y2="151.091"  stroke="#ff0000" />
<line x1="237.672" y1="148.024" x2="254.141" y2="149.946"  stroke="#ff0000" />
<line x1="-3443.7" y1="148.024" x2="237.672" y2="148.024"  stroke="#ff0000" />
</g>
<g><title>ray</title>
<line x1="425.061" y1="163.83" x2="569.393" y2="200.204"  stroke="#00ebff" />
<line x1="409.554" y1="162.413" x2="425.061" y2="163.83"  stroke="#00ebff" />
<line x1="394.983" y1="161.374" x2="409.554" y2="162.413"  stroke="#00ebff" />
<line x1="379.322" y1="161.204" x2="394.983" y2="161.374"  stroke="#00ebff" />
<line x1="375.679" y1="161.422" x2="379.322" y2="161.204"  stroke="#00ebff" />
<line x1="357.005" y1="162.719" x2="375.679" y2="161.422"  stroke="#00ebff" />
<line x1="339.55" y1="164.516" x2="357.005" y2="162.719"  stroke="#00ebff" />
<line x1="323.214" y1="163.444" x2="339.55" y2="164.516"  stroke="#00ebff" />
<line x1="307.415" y1="162.408" x2="323.214" y2="163.444"  stroke="#00ebff" />
<line x1="296.389" y1="160.45" x2="307.415" y2="162.408"  stroke="#00ebff" />
<line x1="286.444" y1="157.644" x2="296.389" y2="160.45"  stroke="#00ebff" />
<line x1="275.855" y1="154.656" x2="286.444" y2="157.644"  stroke="#00ebff" />
<line x1="261.3" y1="151.135" x2="275.855" y2="154.656"  stroke="#00ebff" />
<line x1="254.14" y1="149.968" x2="261.3" y2="151.135"  stroke="#00ebff" />
<line x1="237.672" y1="148.024" x2="254.14" y2="149.968"  stroke="#00ebff" />
<line x1="-3443.7" y1="148.024" x2="237.672" y2="148.024"  stroke="#00ebff" />
</g>
<g><title>ray</title>
<line x1="425.058" y1="236.195" x2="569.393" y2="199.883"  stroke="#ffe100" />
<line x1="409.563" y1="237.626" x2="425.058" y2="236.195"  stroke="#ffe100" />
<line x1="394.968" y1="238.685" x2="409.563" y2="237.626"  stroke="#ffe100" />
<line x1="379.329" y1="238.882" x2="394.968" y2="238.685"  stroke="#ffe100" />
<line x1="375.671" y1="238.679" x2="379.329" y2="238.882"  stroke="#ffe100" />
<line x1="357.049" y1="237.427" x2="375.671" y2="238.679"  stroke="#ffe100" />
<line x1="339.497" y1="235.645" x2="357.049" y2="237.427"  stroke="#ffe100" />
<line x1="323.214" y1="236.706" x2="339.497" y2="235.645"  stroke="#ffe100" />
<line x1="307.463" y1="237.733" x2="323.214" y2="236.706"  stroke="#ffe100" />
<line x1="296.394" y1="239.685" x2="307.463" y2="237.733"  stroke="#ffe100" />
<line x1="286.468" y1="242.44" x2="296.394" y2="239.685"  stroke="#ffe100" />
<line x1="275.857" y1="245.403" x2="286.468" y2="242.44"  stroke="#ffe100" />
<line x1="261.31" y1="248.895" x2="275.857" y2="245.403"  stroke="#ffe100" />
<line x1="254.141" y1="250.047" x2="261.31" y2="248.895"  stroke="#ffe100" />
<line x1="237.672" y1="251.976" x2="254.141" y2="250.047"  stroke="#ffe100" />
<line x1="-3443.7" y1="251.976" x2="237.672" y2="251.976"  stroke="#ffe100" />
</g>
<g><title>ray</title>
<line x1="425.056" y1="236.214" x2="569.393" y2="199.946"  stroke="#ff0000" />
<line x1="409.569" y1="237.651" x2="425.056" y2="236.214"  stroke="#ff0000" />
<line x1="394.961" y1="238.716" x2="409.569" y2="237.651"  stroke="#ff0000" />
<line x1="379.333" y1="238.923" x2="394.961" y2="238.716"  stroke="#ff0000" />
<line x1="375.668" y1="238.726" x2="379.333" y2="238.923"  stroke="#ff0000" />
<line x1="357.069" y1="237.493" x2="375.668" y2="238.726"  stroke="#ff0000" />
<line x1="339.473" y1="235.716" x2="357.069" y2="237.493"  stroke="#ff0000" />
<line x1="323.214" y1="236.772" x2="339.473" y2="235.716"  stroke="#ff0000" />
<line x1="307.483" y1="237.793" x2="323.214" y2="236.772"  stroke="#ff0000" />
<line x1="296.396" y1="239.743" x2="307.483" y2="237.793"  stroke="#ff0000" />
<line x1="286.478" y1="242.476" x2="296.396" y2="239.743"  stroke="#ff0000" />
<line x1="275.858" y1="245.429" x2="286.478" y2="242.476"  stroke="#ff0000" />
<line x1="261.315" y1="248.909" x2="275.858" y2="245.429"  stroke="#ff0000" />
<line x1="254.141" y1="250.054" x2="261.315" y2="248.909"  stroke="#ff0000" />
<line x1="237.672" y1="251.976" x2="254.141" y2="250.054"  stroke="#ff0000" />
<line x1="-3443.7" y1="251.976" x2="237.672" y2="251.976"  stroke="#ff0000" />
</g>
<g><title>ray</title>
<line x1="425.061" y1="236.17" x2="569.393" y2="199.796"  stroke="#00ebff" />
<line x1="409.554" y1="237.587" x2="425.061" y2="236.17"  stroke="#00ebff" />
<line x1="394.983" y1="238.626" x2="409.554" y2="237.587"  stroke="#00ebff" />
<line x1="379.322" y1="238.796" x2="394.983" y2="238.626"  stroke="#00ebff" />
<line x1="375.679" y1="238.578" x2="379.322" y2="238.796"  stroke="#00ebff" />
<line x1="357.005" y1="237.281" x2="375.679" y2="238.578"  stroke="#00ebff" />
<line x1="339.55" y1="235.484" x2="357.005" y2="237.281"  stroke="#00ebff" />
<line x1="323.214" y1="236.556" x2="339.55" y2="235.484"  stroke="#00ebff" />
<line x1="307.415" y1="237.592" x2="323.214" y2="236.556"  stroke="#00ebff" />
<line x1="296.389" y1="239.55" x2="307.415" y2="237.592"  stroke="#00ebff" />
<line x1="286.444" y1="242.356" x2="296.389" y2="239.55"  stroke="#00ebff" />
<line x1="275.855" y1="245.344" x2="286.444" y2="242.356"  stroke="#00ebff" />
<line x1="261.3" y1="248.865" x2="275.855" y2="245.344"  stroke="#00ebff" />
<line x1="254.14" y1="250.032" x2="261.3" y2="248.865"  stroke="#00ebff" />
<line x1="237.672" y1="251.976" x2="254.14" y2="250.032"  stroke="#00ebff" />
<line x1="-3443.7" y1="251.976" x2="237.672" y2="251.976"  stroke="#00ebff" />
</g>
<g><title>ray</title>
<line x1="425.71" y1="170.197" x2="569.393" y2="200.018"  stroke="#ffe100" />
<line x1="408.157" y1="168.872" x2="425.71" y2="170.197"  stroke="#ffe100" />
<line x1="396.495" y1="168.184" x2="408.157" y2="168.872"  stroke="#ffe100" />
<line x1="378.769" y1="167.999" x2="396.495" y2="168.184"  stroke="#ffe100" />
<line x1="376.17" y1="168.117" x2="378.769" y2="167.999"  stroke="#ffe100" />
<line x1="355.215" y1="169.274" x2="376.17" y2="168.117"  stroke="#ffe100" />
<line x1="341.325" y1="170.422" x2="355.215" y2="169.274"  stroke="#ffe100" />
<line x1="323.214" y1="169.45" x2="341.325" y2="170.422"  stroke="#ffe100" />
<line x1="305.518" y1="168.499" x2="323.214" y2="169.45"  stroke="#ffe100" />
<line x1="296.162" y1="167.139" x2="305.518" y2="168.499"  stroke="#ffe100" />
<line x1="284.669" y1="164.526" x2="296.162" y2="167.139"  stroke="#ffe100" />
<line x1="275.607" y1="162.448" x2="284.669" y2="164.526"  stroke="#ffe100" />
<line x1="258.765" y1="159.117" x2="275.607" y2="162.448"  stroke="#ffe100" />
<line x1="253.678" y1="158.445" x2="258.765" y2="159.117"  stroke="#ffe100" />
<line x1="235.487" y1="156.687" x2="253.678" y2="158.445"  stroke="#ffe100" />
<line x1="-3443.7" y1="156.687" x2="235.487" y2="156.687"  stroke="#ffe100" />
</g>
<g><title>ray</title>
<line x1="425.708" y1="170.18" x2="569.393" y2="199.965"  stroke="#ff0000" />
<line x1="408.161" y1="168.851" x2="425.708" y2="170.18"  stroke="#ff0000" />
<line x1="396.49" y1="168.157" x2="408.161" y2="168.851"  stroke="#ff0000" />
<line x1="378.771" y1="167.963" x2="396.49" y2="168.157"  stroke="#ff0000" />
<line x1="376.168" y1="168.077" x2="378.771" y2="167.963"  stroke="#ff0000" />
<line x1="355.229" y1="169.218" x2="376.168" y2="168.077"  stroke="#ff0000" />
<line x1="341.308" y1="170.363" x2="355.229" y2="169.218"  stroke="#ff0000" />
<line x1="323.214" y1="169.395" x2="341.308" y2="170.363"  stroke="#ff0000" />
<line x1="305.532" y1="168.448" x2="323.214" y2="169.395"  stroke="#ff0000" />
<line x1="296.163" y1="167.09" x2="305.532" y2="168.448"  stroke="#ff0000" />
<line x1="284.676" y1="164.497" x2="296.163" y2="167.09"  stroke="#ff0000" />
<line x1="275.608" y1="162.426" x2="284.676" y2="164.497"  stroke="#ff0000" />
<line x1="258.768" y1="159.108" x2="275.608" y2="162.426"  stroke="#ff0000" />
<line x1="253.679" y1="158.439" x2="258.768" y2="159.108"  stroke="#ff0000" />
<line x1="235.487" y1="156.687" x2="253.679" y2="158.439"  stroke="#ff0000" />
<line x1="-3443.7" y1="156.687" x2="235.487" y2="156.687"  stroke="#ff0000" />
</g>
<g><title>ray</title>
<line x1="425.712" y1="170.22" x2="569.393" y2="200.092"  stroke="#00ebff" />
<line x1="408.15" y1="168.909" x2="425.712" y2="170.22"  stroke="#00ebff" />
<line x1="396.505" y1="168.234" x2="408.15" y2="168.909"  stroke="#00ebff" />
<line x1="378.763" y1="168.074" x2="396.505" y2="168.234"  stroke="#00ebff" />
<line x1="376.176" y1="168.2" x2="378.763" y2="168.074"  stroke="#00ebff" />
<line x1="355.185" y1="169.398" x2="376.176" y2="168.2"  stroke="#00ebff" />
<line x1="341.361" y1="170.558" x2="355.185" y2="169.398"  stroke="#00ebff" />
<line x1="323.214" y1="169.576" x2="341.361" y2="170.558"  stroke="#00ebff" />
<line x1="305.485" y1="168.617" x2="323.214" y2="169.576"  stroke="#00ebff" />
<line x1="296.158" y1="167.252" x2="305.485" y2="168.617"  stroke="#00ebff" />
<line x1="284.653" y1="164.594" x2="296.158" y2="167.252"  stroke="#00ebff" />
<line x1="275.606" y1="162.497" x2="284.653" y2="164.594"  stroke="#00ebff" />
<line x1="258.759" y1="159.14" x2="275.606" y2="162.497"  stroke="#00ebff" />
<line x1="253.678" y1="158.459" x2="258.759" y2="159.14"  stroke="#00ebff" />
<line x1="235.487" y1="156.687" x2="253.678" y2="158.459"  stroke="#00ebff" />
<line x1="-3443.7" y1="156.687" x2="235.487" y2="156.687"  stroke="#00ebff" />
</g>
<g><title>ray</title>
<line x1="425.71" y1="229.803" x2="569.393" y2="199.982"  stroke="#ffe100" />
<line x1="408.157" y1="231.128" x2="425.71" y2="229.803"  stroke="#ffe100" />
<line x1="396.495" y1="231.816" x2="408.157" y2="231.128"  stroke="#ffe100" />
<line x1="378.769" y1="232.001" x2="396.495" y2="231.816"  stroke="#ffe100" />
<line x1="376.17" y1="231.883" x2="378.769" y2="232.001"  stroke="#ffe100" />
<line x1="355.215" y1="230.726" x2="376.17" y2="231.883"  stroke="#ffe100" />
<line x1="341.325" y1="229.578" x2="355.215" y2="230.726"  stroke="#ffe100" />
<line x1="323.214" y1="230.55" x2="341.325" y2="229.578"  stroke="#ffe100" />
<line x1="305.518" y1="231.501" x2="323.214" y2="230.55"  stroke="#ffe100" />
<line x1="296.162" y1="232.861" x2="305.518" y2="231.501"  stroke="#ffe100" />
<line x1="284.669" y1="235.474" x2="296.162" y2="232.861"  stroke="#ffe100" />
<line x1="275.607" y1="237.552" x2="284.669" y2="235.474"  stroke="#ffe100" />
<line x1="258.765" y1="240.883" x2="275.607" y2="237.552"  stroke="#ffe100" />
<line x1="253.678" y1="241.555" x2="258.765" y2="240.883"  stroke="#ffe100" />
<line x1="235.487" y1="243.313" x2="253.678" y2="241.555"  stroke="#ffe100" />
<line x1="-3443.7" y1="243.313" x2="235.487" y2="243.313"  stroke="#ffe100" />
</g>
<g><title>ray</title>
<line x1="425.708" y1="229.82" x2="569.393" y2="200.035"  stroke="#ff0000" />
<line x1="408.161" y1="231.149" x2="425.708" y2="229.82"  stroke="#ff0000" />
<line x1="396.49" y1="231.843" x2="408.161" y2="231.149"  stroke="#ff0000" />
<line x1="378.771" y1="232.037" x2="396.49" y2="231.843"  stroke="#ff0000" />
<line x1="376.168" y1="231.923" x2="378.771" y2="232.037"  stroke="#ff0000" />
<line x1="355.229" y1="230.782" x2="376.168" y2="231.923"  stroke="#ff0000" />
<line x1="341.308" y1="229.637" x2="355.229" y2="230.782"  stroke="#ff0000" />
<line x1="323.214" y1="230.605" x2="341.308" y2="229.637"  stroke="#ff0000" />
<line x1="305.532" y1="231.552" x2="323.214" y2="230.605"  stroke="#ff0000" />
<line x1="296.163" y1="232.91" x2="305.532" y2="231.552"  stroke="#ff0000" />
<line x1="284.676" y1="235.503" x2="296.163" y2="232.91"  stroke="#ff0000" />
<line x1="275.608" y1="237.574" x2="284.676" y2="235.503"  stroke="#ff0000" />
<line x1="258.768" y1="240.892" x2="275.608" y2="237.574"  stroke="#ff0000" />
<line x1="253.679" y1="241.561" x2="258.768" y2="240.892"  stroke="#ff0000" />
<line x1="235.487" y1="243.313" x2="253.679" y2="241.561"  stroke="#ff0000" />
<line x1="-3443.7" y1="243.313" x2="235.487" y2="243.313"  stroke="#ff0000" />
</g>
<g><title>ray</title>
<line x1="425.712" y1="229.78" x2="569.393" y2="199.908"  stroke="#00ebff" />
<line x1="408.15" y1="231.091" x2="425.712" y2="229.78"  stroke="#00ebff" />
<line x1="396.505" y1="231.766" x2="408.15" y2="231.091"  stroke="#00ebff" />
<line x1="378.763" y1="231.926" x2="396.505" y2="231.766"  stroke="#00ebff" />
<line x1="376.176" y1="231.8" x2="378.763" y2="231.926"  stroke="#00ebff" />
<line x1="355.185" y1="230.602" x2="376.176" y2="231.8"  stroke="#00ebff" />
<line x1="341.361" y1="229.442" x2="355.185" y2="230.602"  stroke="#00ebff" />
<line x1="323.214" y1="230.424" x2="341.361" y2="229.442"  stroke="#00ebff" />
<line x1="305.485" y1="231.383" x2="323.214" y2="230.424"  stroke="#00ebff" />
<line x1="296.158" y1="232.748" x2="305.485" y2="231.383"  stroke="#00ebff" />
<line x1="284.653" y1="235.406" x2="296.158" y2="232.748"  stroke="#00ebff" />
<line x1="275.606" y1="237.503" x2="284.653" y2="235.406"  stroke="#00ebff" />
<line x1="258.759" y1="240.86" x2="275.606" y2="237.503"  stroke="#00ebff" />
<line x1="253.678" y1="241.541" x2="258.759" y2="240.86"  stroke="#00ebff" />
<line x1="235.487" y1="243.313" x2="253.678" y2="241.541"  stroke="#00ebff" />
<line x1="-3443.7" y1="243.313" x2="235.487" y2="243.313"  stroke="#00ebff" />
</g>
<g><title>ray</title>
<line x1="426.247" y1="176.409" x2="569.393" y2="199.987"  stroke="#ffe100" />
<line x1="407.043" y1="175.265" x2="426.247" y2="176.409"  stroke="#ffe100" />
<line x1="397.679" y1="174.83" x2="407.043" y2="175.265"  stroke="#ffe100" />
<line x1="378.33" y1="174.666" x2="397.679" y2="174.83"  stroke="#ffe100" />
<line x1="376.563" y1="174.729" x2="378.33" y2="174.666"  stroke="#ffe100" />
<line x1="353.81" y1="175.718" x2="376.563" y2="174.729"  stroke="#ffe100" />
<line x1="342.778" y1="176.433" x2="353.81" y2="175.718"  stroke="#ffe100" />
<line x1="323.214" y1="175.596" x2="342.778" y2="176.433"  stroke="#ffe100" />
<line x1="303.939" y1="174.771" x2="323.214" y2="175.596"  stroke="#ffe100" />
<line x1="295.977" y1="173.852" x2="303.939" y2="174.771"  stroke="#ffe100" />
<line x1="283.196" y1="171.557" x2="295.977" y2="173.852"  stroke="#ffe100" />
<line x1="275.408" y1="170.144" x2="283.196" y2="171.557"  stroke="#ffe100" />
<line x1="256.69" y1="167.209" x2="275.408" y2="170.144"  stroke="#ffe100" />
<line x1="253.305" y1="166.854" x2="256.69" y2="167.209"  stroke="#ffe100" />
<line x1="233.718" y1="165.349" x2="253.305" y2="166.854"  stroke="#ffe100" />
<line x1="-3443.7" y1="165.349" x2="233.718" y2="165.349"  stroke="#ffe100" />
</g>
<g><title>ray</title>
<line x1="426.246" y1="176.395" x2="569.393" y2="199.945"  stroke="#ff0000" />
<line x1="407.046" y1="175.247" x2="426.246" y2="176.395"  stroke="#ff0000" />
<line x1="397.675" y1="174.808" x2="407.046" y2="175.247"  stroke="#ff0000" />
<line x1="378.331" y1="174.636" x2="397.675" y2="174.808"  stroke="#ff0000" />
<line x1="376.561" y1="174.697" x2="378.331" y2="174.636"  stroke="#ff0000" />
<line x1="353.818" y1="175.673" x2="376.561" y2="174.697"  stroke="#ff0000" />
<line x1="342.768" y1="176.385" x2="353.818" y2="175.673"  stroke="#ff0000" />
<line x1="323.214" y1="175.552" x2="342.768" y2="176.385"  stroke="#ff0000" />
<line x1="303.948" y1="174.73" x2="323.214" y2="175.552"  stroke="#ff0000" />
<line x1="295.978" y1="173.813" x2="303.948" y2="174.73"  stroke="#ff0000" />
<line x1="283.2" y1="171.535" x2="295.978" y2="173.813"  stroke="#ff0000" />
<line x1="275.409" y1="170.127" x2="283.2" y2="171.535"  stroke="#ff0000" />
<line x1="256.692" y1="167.202" x2="275.409" y2="170.127"  stroke="#ff0000" />
<line x1="253.306" y1="166.849" x2="256.692" y2="167.202"  stroke="#ff0000" />
<line x1="233.718" y1="165.349" x2="253.306" y2="166.849"  stroke="#ff0000" />
<line x1="-3443.7" y1="165.349" x2="233.718" y2="165.349"  stroke="#ff0000" />
</g>
<g><title>ray</title>
<line x1="426.249" y1="176.43" x2="569.393" y2="200.049"  stroke="#00ebff" />
<line x1="407.038" y1="175.298" x2="426.249" y2="176.43"  stroke="#00ebff" />
<line x1="397.685" y1="174.87" x2="407.038" y2="175.298"  stroke="#00ebff" />
<line x1="378.326" y1="174.729" x2="397.685" y2="174.87"  stroke="#00ebff" />
<line x1="376.567" y1="174.796" x2="378.326" y2="174.729"  stroke="#00ebff" />
<line x1="353.79" y1="175.82" x2="376.567" y2="174.796"  stroke="#00ebff" />
<line x1="342.801" y1="176.542" x2="353.79" y2="175.82"  stroke="#00ebff" />
<line x1="323.214" y1="175.698" x2="342.801" y2="176.542"  stroke="#00ebff" />
<line x1="303.918" y1="174.866" x2="323.214" y2="175.698"  stroke="#00ebff" />
<line x1="295.974" y1="173.943" x2="303.918" y2="174.866"  stroke="#00ebff" />
<line x1="283.186" y1="171.61" x2="295.974" y2="173.943"  stroke="#00ebff" />
<line x1="275.407" y1="170.184" x2="283.186" y2="171.61"  stroke="#00ebff" />
<line x1="256.686" y1="167.226" x2="275.407" y2="170.184"  stroke="#00ebff" />
<line x1="253.305" y1="166.866" x2="256.686" y2="167.226"  stroke="#00ebff" />
<line x1="233.718" y1="165.349" x2="253.305" y2="166.866"  stroke="#00ebff" />
<line x1="-3443.7" y1="165.349" x2="233.718" y2="165.349"  stroke="#00ebff" />
</g>
<g><title>ray</title>
<line x1="426.247" y1="223.591" x2="569.393" y2="200.013"  stroke="#ffe100" />
<line x1="407.043" y1="224.735" x2="426.247" y2="223.591"  stroke="#ffe100" />
<line x1="397.679" y1="225.17" x2="407.043" y2="224.735"  stroke="#ffe100" />
<line x1="378.33" y1="225.334" x2="397.679" y2="225.17"  stroke="#ffe100" />
<line x1="376.563" y1="225.271" x2="378.33" y2="225.334"  stroke="#ffe100" />
<line x1="353.81" y1="224.282" x2="376.563" y2="225.271"  stroke="#ffe100" />
<line x1="342.778" y1="223.567" x2="353.81" y2="224.282"  stroke="#ffe100" />
<line x1="323.214" y1="224.404" x2="342.778" y2="223.567"  stroke="#ffe100" />
<line x1="303.939" y1="225.229" x2="323.214" y2="224.404"  stroke="#ffe100" />
<line x1="295.977" y1="226.148" x2="303.939" y2="225.229"  stroke="#ffe100" />
<line x1="283.196" y1="228.443" x2="295.977" y2="226.148"  stroke="#ffe100" />
<line x1="275.408" y1="229.856" x2="283.196" y2="228.443"  stroke="#ffe100" />
<line x1="256.69" y1="232.791" x2="275.408" y2="229.856"  stroke="#ffe100" />
<line x1="253.305" y1="233.146" x2="256.69" y2="232.791"  stroke="#ffe100" />
<line x1="233.718" y1="234.651" x2="253.305" y2="233.146"  stroke="#ffe100" />
<line x1="-3443.7" y1="234.651" x2="233.718" y2="234.651"  stroke="#ffe100" />
</g>
<g><title>ray</title>
<line x1="426.246" y1="223.605" x2="569.393" y2="200.055"  stroke="#ff0000" />
<line x1="407.046" y1="224.753" x2="426.246" y2="223.605"  stroke="#ff0000" />
<line x1="397.675" y1="225.192" x2="407.046" y2="224.753"  stroke="#ff0000" />
<line x1="378.331" y1="225.364" x2="397.675" y2="225.192"  stroke="#ff0000" />
<line x1="376.561" y1="225.303" x2="378.331" y2="225.364"  stroke="#ff0000" />
<line x1="353.818" y1="224.327" x2="376.561" y2="225.303"  stroke="#ff0000" />
<line x1="342.768" y1="223.615" x2="353.818" y2="224.327"  stroke="#ff0000" />
<line x1="323.214" y1="224.448" x2="342.768" y2="223.615"  stroke="#ff0000" />
<line x1="303.948" y1="225.27" x2="323.214" y2="224.448"  stroke="#ff0000" />
<line x1="295.978" y1="226.187" x2="303.948" y2="225.27"  stroke="#ff0000" />
<line x1="283.2" y1="228.465" x2="295.978" y2="226.187"  stroke="#ff0000" />
<line x1="275.409" y1="229.873" x2="283.2" y2="228.465"  stroke="#ff0000" />
<line x1="256.692" y1="232.798" x2="275.409" y2="229.873"  stroke="#ff0000" />
<line x1="253.306" y1="233.151" x2="256.692" y2="232.798"  stroke="#ff0000" />
<line x1="233.718" y1="234.651" x2="253.306" y2="233.151"  stroke="#ff0000" />
<line x1="-3443.7" y1="234.651" x2="233.718" y2="234.651"  stroke="#ff0000" />
</g>
<g><title>ray</title>
<line x1="426.249" y1="223.57" x2="569.393" y2="199.951"  stroke="#00ebff" />
<line x1="407.038" y1="224.702" x2="426.249" y2="223.57"  stroke="#00ebff" />
<line x1="397.685" y1="225.13" x2="407.038" y2="224.702"  stroke="#00ebff" />
<line x1="378.326" y1="225.271" x2="397.685" y2="225.13"  stroke="#00ebff" />
<line x1="376.567" y1="225.204" x2="378.326" y2="225.271"  stroke="#00ebff" />
<line x1="353.79" y1="224.18" x2="376.567" y2="225.204"  stroke="#00ebff" />
<line x1="342.801" y1="223.458" x2="353.79" y2="224.18"  stroke="#00ebff" />
<line x1="323.214" y1="224.302" x2="342.801" y2="223.458"  stroke="#00ebff" />
<line x1="303.918" y1="225.134" x2="323.214" y2="224.302"  stroke="#00ebff" />
<line x1="295.974" y1="226.057" x2="303.918" y2="225.134"  stroke="#00ebff" />
<line x1="283.186" y1="228.39" x2="295.974" y2="226.057"  stroke="#00ebff" />
<line x1="275.407" y1="229.816" x2="283.186" y2="228.39"  stroke="#00ebff" />
<line x1="256.686" y1="232.774" x2="275.407" y2="229.816"  stroke="#00ebff" />
<line x1="253.305" y1="233.134" x2="256.686" y2="232.774"  stroke="#00ebff" />
<line x1="233.718" y1="234.651" x2="253.305" y2="233.134"  stroke="#00ebff" />
<line x1="-3443.7" y1="234.651" x2="233.718" y2="234.651"  stroke="#00ebff" />
</g>
<g><title>ray</title>
<line x1="426.664" y1="182.46" x2="569.393" y2="199.987"  stroke="#ffe100" />
<line x1="406.2" y1="181.555" x2="426.664" y2="182.46"  stroke="#ffe100" />
<line x1="398.559" y1="181.29" x2="406.2" y2="181.555"  stroke="#ffe100" />
<line x1="378.001" y1="181.158" x2="398.559" y2="181.29"  stroke="#ffe100" />
<line x1="376.859" y1="181.187" x2="378.001" y2="181.158"  stroke="#ffe100" />
<line x1="352.772" y1="181.962" x2="376.859" y2="181.187"  stroke="#ffe100" />
<line x1="343.88" y1="182.387" x2="352.772" y2="181.962"  stroke="#ffe100" />
<line x1="323.214" y1="181.723" x2="343.88" y2="182.387"  stroke="#ffe100" />
<line x1="302.721" y1="181.066" x2="323.214" y2="181.723"  stroke="#ffe100" />
<line x1="295.835" y1="180.473" x2="302.721" y2="181.066"  stroke="#ffe100" />
<line x1="282.05" y1="178.634" x2="295.835" y2="180.473"  stroke="#ffe100" />
<line x1="275.257" y1="177.716" x2="282.05" y2="178.634"  stroke="#ffe100" />
<line x1="255.081" y1="175.359" x2="275.257" y2="177.716"  stroke="#ffe100" />
<line x1="253.018" y1="175.197" x2="255.081" y2="175.359"  stroke="#ffe100" />
<line x1="232.352" y1="174.012" x2="253.018" y2="175.197"  stroke="#ffe100" />
<line x1="-3443.7" y1="174.012" x2="232.352" y2="174.012"  stroke="#ffe100" />
</g>
<g><title>ray</title>
<line x1="426.664" y1="182.449" x2="569.393" y2="199.955"  stroke="#ff0000" />
<line x1="406.202" y1="181.54" x2="426.664" y2="182.449"  stroke="#ff0000" />
<line x1="398.557" y1="181.274" x2="406.202" y2="181.54"  stroke="#ff0000" />
<line x1="378.002" y1="181.134" x2="398.557" y2="181.274"  stroke="#ff0000" />
<line x1="376.858" y1="181.163" x2="378.002" y2="181.134"  stroke="#ff0000" />
<line x1="352.777" y1="181.927" x2="376.858" y2="181.163"  stroke="#ff0000" />
<line x1="343.874" y1="182.35" x2="352.777" y2="181.927"  stroke="#ff0000" />
<line x1="323.214" y1="181.69" x2="343.874" y2="182.35"  stroke="#ff0000" />
<line x1="302.726" y1="181.035" x2="323.214" y2="181.69"  stroke="#ff0000" />
<line x1="295.836" y1="180.443" x2="302.726" y2="181.035"  stroke="#ff0000" />
<line x1="282.052" y1="178.617" x2="295.836" y2="180.443"  stroke="#ff0000" />
<line x1="275.257" y1="177.703" x2="282.052" y2="178.617"  stroke="#ff0000" />
<line x1="255.082" y1="175.354" x2="275.257" y2="177.703"  stroke="#ff0000" />
<line x1="253.018" y1="175.193" x2="255.082" y2="175.354"  stroke="#ff0000" />
<line x1="232.352" y1="174.012" x2="253.018" y2="175.193"  stroke="#ff0000" />
<line x1="-3443.7" y1="174.012" x2="232.352" y2="174.012"  stroke="#ff0000" />
</g>
<g><title>ray</title>
<line x1="426.665" y1="182.477" x2="569.393" y2="200.034"  stroke="#00ebff" />
<line x1="406.197" y1="181.581" x2="426.665" y2="182.477"  stroke="#00ebff" />
<line x1="398.563" y1="181.322" x2="406.197" y2="181.581"  stroke="#00ebff" />
<line x1="377.999" y1="181.206" x2="398.563" y2="181.322"  stroke="#00ebff" />
<line x1="376.861" y1="181.238" x2="377.999" y2="181.206"  stroke="#00ebff" />
<line x1="352.761" y1="182.039" x2="376.861" y2="181.238"  stroke="#00ebff" />
<line x1="343.893" y1="182.469" x2="352.761" y2="182.039"  stroke="#00ebff" />
<line x1="323.214" y1="181.8" x2="343.893" y2="182.469"  stroke="#00ebff" />
<line x1="302.709" y1="181.138" x2="323.214" y2="181.8"  stroke="#00ebff" />
<line x1="295.834" y1="180.542" x2="302.709" y2="181.138"  stroke="#00ebff" />
<line x1="282.044" y1="178.672" x2="295.834" y2="180.542"  stroke="#00ebff" />
<line x1="275.256" y1="177.746" x2="282.044" y2="178.672"  stroke="#00ebff" />
<line x1="255.08" y1="175.371" x2="275.256" y2="177.746"  stroke="#00ebff" />
<line x1="253.018" y1="175.207" x2="255.08" y2="175.371"  stroke="#00ebff" />
<line x1="232.352" y1="174.012" x2="253.018" y2="175.207"  stroke="#00ebff" />
<line x1="-3443.7" y1="174.012" x2="232.352" y2="174.012"  stroke="#00ebff" />
</g>
<g><title>ray</title>
<line x1="426.664" y1="217.54" x2="569.393" y2="200.013"  stroke="#ffe100" />
<line x1="406.2" y1="218.445" x2="426.664" y2="217.54"  stroke="#ffe100" />
<line x1="398.559" y1="218.71" x2="406.2" y2="218.445"  stroke="#ffe100" />
<line x1="378.001" y1="218.842" x2="398.559" y2="218.71"  stroke="#ffe100" />
<line x1="376.859" y1="218.813" x2="378.001" y2="218.842"  stroke="#ffe100" />
<line x1="352.772" y1="218.038" x2="376.859" y2="218.813"  stroke="#ffe100" />
<line x1="343.88" y1="217.613" x2="352.772" y2="218.038"  stroke="#ffe100" />
<line x1="323.214" y1="218.277" x2="343.88" y2="217.613"  stroke="#ffe100" />
<line x1="302.721" y1="218.934" x2="323.214" y2="218.277"  stroke="#ffe100" />
<line x1="295.835" y1="219.527" x2="302.721" y2="218.934"  stroke="#ffe100" />
<line x1="282.05" y1="221.366" x2="295.835" y2="219.527"  stroke="#ffe100" />
<line x1="275.257" y1="222.284" x2="282.05" y2="221.366"  stroke="#ffe100" />
<line x1="255.081" y1="224.641" x2="275.257" y2="222.284"  stroke="#ffe100" />
<line x1="253.018" y1="224.803" x2="255.081" y2="224.641"  stroke="#ffe100" />
<line x1="232.352" y1="225.988" x2="253.018" y2="224.803"  stroke="#ffe100" />
<line x1="-3443.7" y1="225.988" x2="232.352" y2="225.988"  stroke="#ffe100" />
</g>
<g><title>ray</title>
<line x1="426.664" y1="217.551" x2="569.393" y2="200.045"  stroke="#ff0000" />
<line x1="406.202" y1="218.46" x2="426.664" y2="217.551"  stroke="#ff0000" />
<line x1="398.557" y1="218.726" x2="406.202" y2="218.46"  stroke="#ff0000" />
<line x1="378.002" y1="218.866" x2="398.557" y2="218.726"  stroke="#ff0000" />
<line x1="376.858" y1="218.837" x2="378.002" y2="218.866"  stroke="#ff0000" />
<line x1="352.777" y1="218.073" x2="376.858" y2="218.837"  stroke="#ff0000" />
<line x1="343.874" y1="217.65" x2="352.777" y2="218.073"  stroke="#ff0000" />
<line x1="323.214" y1="218.31" x2="343.874" y2="217.65"  stroke="#ff0000" />
<line x1="302.726" y1="218.965" x2="323.214" y2="218.31"  stroke="#ff0000" />
<line x1="295.836" y1="219.557" x2="302.726" y2="218.965"  stroke="#ff0000" />
<line x1="282.052" y1="221.383" x2="295.836" y2="219.557"  stroke="#ff0000" />
<line x1="275.257" y1="222.297" x2="282.052" y2="221.383"  stroke="#ff0000" />
<line x1="255.082" y1="224.646" x2="275.257" y2="222.297"  stroke="#ff0000" />
<line x1="253.018" y1="224.807" x2="255.082" y2="224.646"  stroke="#ff0000" />
<line x1="232.352" y1="225.988" x2="253.018" y2="224.807"  stroke="#ff0000" />
<line x1="-3443.7" y1="225.988" x2="232.352" y2="225.988"  stroke="#ff0000" />
</g>
<g><title>ray</title>
<line x1="426.665" y1="217.523" x2="569.393" y2="199.966"  stroke="#00ebff" />
<line x1="406.197" y1="218.419" x2="426.665" y2="217.523"  stroke="#00ebff" />
<line x1="398.563" y1="218.678" x2="406.197" y2="218.419"  stroke="#00ebff" />
<line x1="377.999" y1="218.794" x2="398.563" y2="218.678"  stroke="#00ebff" />
<line x1="376.861" y1="218.762" x2="377.999" y2="218.794"  stroke="#00ebff" />
<line x1="352.761" y1="217.961" x2="376.861" y2="218.762"  stroke="#00ebff" />
<line x1="343.893" y1="217.531" x2="352.761" y2="217.961"  stroke="#00ebff" />
<line x1="323.214" y1="218.2" x2="343.893" y2="217.531"  stroke="#00ebff" />
<line x1="302.709" y1="218.862" x2="323.214" y2="218.2"  stroke="#00ebff" />
<line x1="295.834" y1="219.458" x2="302.709" y2="218.862"  stroke="#00ebff" />
<line x1="282.044" y1="221.328" x2="295.834" y2="219.458"  stroke="#00ebff" />
<line x1="275.256" y1="222.254" x2="282.044" y2="221.328"  stroke="#00ebff" />
<line x1="255.08" y1="224.629" x2="275.256" y2="222.254"  stroke="#00ebff" />
<line x1="253.018" y1="224.793" x2="255.08" y2="224.629"  stroke="#00ebff" />
<line x1="232.352" y1="225.988" x2="253.018" y2="224.793"  stroke="#00ebff" />
<line x1="-3443.7" y1="225.988" x2="232.352" y2="225.988"  stroke="#00ebff" />
</g>
<g><title>ray</title>
<line x1="426.961" y1="188.382" x2="569.393" y2="199.993"  stroke="#ffe100" />
<line x1="405.613" y1="187.756" x2="426.961" y2="188.382"  stroke="#ffe100" />
<line x1="399.166" y1="187.608" x2="405.613" y2="187.756"  stroke="#ffe100" />
<line x1="377.772" y1="187.514" x2="399.166" y2="187.608"  stroke="#ffe100" />
<line x1="377.065" y1="187.527" x2="377.772" y2="187.514"  stroke="#ffe100" />
<line x1="352.06" y1="188.056" x2="377.065" y2="187.527"  stroke="#ffe100" />
<line x1="344.652" y1="188.289" x2="352.06" y2="188.056"  stroke="#ffe100" />
<line x1="323.214" y1="187.83" x2="344.652" y2="188.289"  stroke="#ffe100" />
<line x1="301.856" y1="187.372" x2="323.214" y2="187.83"  stroke="#ffe100" />
<line x1="295.735" y1="187.022" x2="301.856" y2="187.372"  stroke="#ffe100" />
<line x1="281.232" y1="185.74" x2="295.735" y2="187.022"  stroke="#ffe100" />
<line x1="275.151" y1="185.196" x2="281.232" y2="185.74"  stroke="#ffe100" />
<line x1="253.935" y1="183.55" x2="275.151" y2="185.196"  stroke="#ffe100" />
<line x1="252.815" y1="183.492" x2="253.935" y2="183.55"  stroke="#ffe100" />
<line x1="231.381" y1="182.675" x2="252.815" y2="183.492"  stroke="#ffe100" />
<line x1="-3443.7" y1="182.675" x2="231.381" y2="182.675"  stroke="#ffe100" />
</g>
<g><title>ray</title>
<line x1="426.961" y1="188.374" x2="569.393" y2="199.972"  stroke="#ff0000" />
<line x1="405.613" y1="187.746" x2="426.961" y2="188.374"  stroke="#ff0000" />
<line x1="399.166" y1="187.597" x2="405.613" y2="187.746"  stroke="#ff0000" />
<line x1="377.773" y1="187.499" x2="399.166" y2="187.597"  stroke="#ff0000" />
<line x1="377.064" y1="187.51" x2="377.773" y2="187.499"  stroke="#ff0000" />
<line x1="352.062" y1="188.033" x2="377.064" y2="187.51"  stroke="#ff0000" />
<line x1="344.649" y1="188.265" x2="352.062" y2="188.033"  stroke="#ff0000" />
<line x1="323.214" y1="187.808" x2="344.649" y2="188.265"  stroke="#ff0000" />
<line x1="301.858" y1="187.352" x2="323.214" y2="187.808"  stroke="#ff0000" />
<line x1="295.736" y1="187.003" x2="301.858" y2="187.352"  stroke="#ff0000" />
<line x1="281.233" y1="185.729" x2="295.736" y2="187.003"  stroke="#ff0000" />
<line x1="275.151" y1="185.187" x2="281.233" y2="185.729"  stroke="#ff0000" />
<line x1="253.936" y1="183.547" x2="275.151" y2="185.187"  stroke="#ff0000" />
<line x1="252.815" y1="183.489" x2="253.936" y2="183.547"  stroke="#ff0000" />
<line x1="231.381" y1="182.675" x2="252.815" y2="183.489"  stroke="#ff0000" />
<line x1="-3443.7" y1="182.675" x2="231.381" y2="182.675"  stroke="#ff0000" />
</g>
<g><title>ray</title>
<line x1="426.961" y1="188.394" x2="569.393" y2="200.025"  stroke="#00ebff" />
<line x1="405.611" y1="187.775" x2="426.961" y2="188.394"  stroke="#00ebff" />
<line x1="399.168" y1="187.629" x2="405.611" y2="187.775"  stroke="#00ebff" />
<line x1="377.771" y1="187.548" x2="399.168" y2="187.629"  stroke="#00ebff" />
<line x1="377.066" y1="187.561" x2="377.771" y2="187.548"  stroke="#00ebff" />
<line x1="352.055" y1="188.109" x2="377.066" y2="187.561"  stroke="#00ebff" />
<line x1="344.658" y1="188.344" x2="352.055" y2="188.109"  stroke="#00ebff" />
<line x1="323.214" y1="187.882" x2="344.658" y2="188.344"  stroke="#00ebff" />
<line x1="301.851" y1="187.421" x2="323.214" y2="187.882"  stroke="#00ebff" />
<line x1="295.735" y1="187.068" x2="301.851" y2="187.421"  stroke="#00ebff" />
<line x1="281.229" y1="185.766" x2="295.735" y2="187.068"  stroke="#00ebff" />
<line x1="275.15" y1="185.216" x2="281.229" y2="185.766"  stroke="#00ebff" />
<line x1="253.935" y1="183.558" x2="275.15" y2="185.216"  stroke="#00ebff" />
<line x1="252.815" y1="183.499" x2="253.935" y2="183.558"  stroke="#00ebff" />
<line x1="231.381" y1="182.675" x2="252.815" y2="183.499"  stroke="#00ebff" />
<line x1="-3443.7" y1="182.675" x2="231.381" y2="182.675"  stroke="#00ebff" />
</g>
<g><title>ray</title>
<line x1="426.961" y1="211.618" x2="569.393" y2="200.007"  stroke="#ffe100" />
<line x1="405.613" y1="212.244" x2="426.961" y2="211.618"  stroke="#ffe100" />
<line x1="399.166" y1="212.392" x2="405.613" y2="212.244"  stroke="#ffe100" />
<line x1="377.772" y1="212.486" x2="399.166" y2="212.392"  stroke="#ffe100" />
<line x1="377.065" y1="212.473" x2="377.772" y2="212.486"  stroke="#ffe100" />
<line x1="352.06" y1="211.944" x2="377.065" y2="212.473"  stroke="#ffe100" />
<line x1="344.652" y1="211.711" x2="352.06" y2="211.944"  stroke="#ffe100" />
<line x1="323.214" y1="212.17" x2="344.652" y2="211.711"  stroke="#ffe100" />
<line x1="301.856" y1="212.628" x2="323.214" y2="212.17"  stroke="#ffe100" />
<line x1="295.735" y1="212.978" x2="301.856" y2="212.628"  stroke="#ffe100" />
<line x1="281.232" y1="214.26" x2="295.735" y2="212.978"  stroke="#ffe100" />
<line x1="275.151" y1="214.804" x2="281.232" y2="214.26"  stroke="#ffe100" />
<line x1="253.935" y1="216.45" x2="275.151" y2="214.804"  stroke="#ffe100" />
<line x1="252.815" y1="216.508" x2="253.935" y2="216.45"  stroke="#ffe100" />
<line x1="231.381" y1="217.325" x2="252.815" y2="216.508"  stroke="#ffe100" />
<line x1="-3443.7" y1="217.325" x2="231.381" y2="217.325"  stroke="#ffe100" />
</g>
<g><title>ray</title>
<line x1="426.961" y1="211.626" x2="569.393" y2="200.028"  stroke="#ff0000" />
<line x1="405.613" y1="212.254" x2="426.961" y2="211.626"  stroke="#ff0000" />
<line x1="399.166" y1="212.403" x2="405.613" y2="212.254"  stroke="#ff0000" />
<line x1="377.773" y1="212.501" x2="399.166" y2="212.403"  stroke="#ff0000" />
<line x1="377.064" y1="212.49" x2="377.773" y2="212.501"  stroke="#ff0000" />
<line x1="352.062" y1="211.967" x2="377.064" y2="212.49"  stroke="#ff0000" />
<line x1="344.649" y1="211.735" x2="352.062" y2="211.967"  stroke="#ff0000" />
<line x1="323.214" y1="212.192" x2="344.649" y2="211.735"  stroke="#ff0000" />
<line x1="301.858" y1="212.648" x2="323.214" y2="212.192"  stroke="#ff0000" />
<line x1="295.736" y1="212.997" x2="301.858" y2="212.648"  stroke="#ff0000" />
<line x1="281.233" y1="214.271" x2="295.736" y2="212.997"  stroke="#ff0000" />
<line x1="275.151" y1="214.813" x2="281.233" y2="214.271"  stroke="#ff0000" />
<line x1="253.936" y1="216.453" x2="275.151" y2="214.813"  stroke="#ff0000" />
<line x1="252.815" y1="216.511" x2="253.936" y2="216.453"  stroke="#ff0000" />
<line x1="231.381" y1="217.325" x2="252.815" y2="216.511"  stroke="#ff0000" />
<line x1="-3443.7" y1="217.325" x2="231.381" y2="217.325"  stroke="#ff0000" />
</g>
<g><title>ray</title>
<line x1="426.961" y1="211.606" x2="569.393" y2="199.975"  stroke="#00ebff" />
<line x1="405.611" y1="212.225" x2="426.961" y2="211.606"  stroke="#00ebff" />
<line x1="399.168" y1="212.371" x2="405.611" y2="212.225"  stroke="#00ebff" />
<line x1="377.771" y1="212.452" x2="399.168" y2="212.371"  stroke="#00ebff" />
<line x1="377.066" y1="212.439" x2="377.771" y2="212.452"  stroke="#00ebff" />
<line x1="352.055" y1="211.891" x2="377.066" y2="212.439"  stroke="#00ebff" />
<line x1="344.658" y1="211.656" x2="352.055" y2="211.891"  stroke="#00ebff" />
<line x1="323.214" y1="212.118" x2="344.658" y2="211.656"  stroke="#00ebff" />
<line x1="301.851" y1="212.579" x2="323.214" y2="212.118"  stroke="#00ebff" />
<line x1="295.735" y1="212.932" x2="301.851" y2="212.579"  stroke="#00ebff" />
<line x1="281.229" y1="214.234" x2="295.735" y2="212.932"  stroke="#00ebff" />
<line x1="275.15" y1="214.784" x2="281.229" y2="214.234"  stroke="#00ebff" />
<line x1="253.935" y1="216.442" x2="275.15" y2="214.784"  stroke="#00ebff" />
<line x1="252.815" y1="216.501" x2="253.935" y2="216.442"  stroke="#00ebff" />
<line x1="231.381" y1="217.325" x2="252.815" y2="216.501"  stroke="#00ebff" />
<line x1="-3443.7" y1="217.325" x2="231.381" y2="217.325"  stroke="#00ebff" />
</g>
<g><title>ray</title>
<line x1="427.138" y1="194.214" x2="569.393" y2="199.998"  stroke="#ffe100" />
<line x1="405.266" y1="193.894" x2="427.138" y2="194.214"  stroke="#ffe100" />
<line x1="399.522" y1="193.829" x2="405.266" y2="193.894"  stroke="#ffe100" />
<line x1="377.638" y1="193.78" x2="399.522" y2="193.829"  stroke="#ffe100" />
<line x1="377.186" y1="193.784" x2="377.638" y2="193.78"  stroke="#ffe100" />
<line x1="351.643" y1="194.053" x2="377.186" y2="193.784"  stroke="#ffe100" />
<line x1="345.109" y1="194.155" x2="351.643" y2="194.053"  stroke="#ffe100" />
<line x1="323.214" y1="193.92" x2="345.109" y2="194.155"  stroke="#ffe100" />
<line x1="301.34" y1="193.685" x2="323.214" y2="193.92"  stroke="#ffe100" />
<line x1="295.676" y1="193.523" x2="301.34" y2="193.685"  stroke="#ffe100" />
<line x1="280.741" y1="192.866" x2="295.676" y2="193.523"  stroke="#ffe100" />
<line x1="275.087" y1="192.613" x2="280.741" y2="192.866"  stroke="#ffe100" />
<line x1="253.249" y1="191.769" x2="275.087" y2="192.613"  stroke="#ffe100" />
<line x1="252.694" y1="191.754" x2="253.249" y2="191.769"  stroke="#ffe100" />
<line x1="230.801" y1="191.337" x2="252.694" y2="191.754"  stroke="#ffe100" />
<line x1="-3443.7" y1="191.337" x2="230.801" y2="191.337"  stroke="#ffe100" />
</g>
<g><title>ray</title>
<line x1="427.138" y1="194.21" x2="569.393" y2="199.988"  stroke="#ff0000" />
<line x1="405.266" y1="193.889" x2="427.138" y2="194.21"  stroke="#ff0000" />
<line x1="399.522" y1="193.823" x2="405.266" y2="193.889"  stroke="#ff0000" />
<line x1="377.638" y1="193.772" x2="399.522" y2="193.823"  stroke="#ff0000" />
<line x1="377.186" y1="193.776" x2="377.638" y2="193.772"  stroke="#ff0000" />
<line x1="351.644" y1="194.041" x2="377.186" y2="193.776"  stroke="#ff0000" />
<line x1="345.108" y1="194.142" x2="351.644" y2="194.041"  stroke="#ff0000" />
<line x1="323.214" y1="193.908" x2="345.108" y2="194.142"  stroke="#ff0000" />
<line x1="301.34" y1="193.675" x2="323.214" y2="193.908"  stroke="#ff0000" />
<line x1="295.676" y1="193.514" x2="301.34" y2="193.675"  stroke="#ff0000" />
<line x1="280.742" y1="192.86" x2="295.676" y2="193.514"  stroke="#ff0000" />
<line x1="275.087" y1="192.609" x2="280.742" y2="192.86"  stroke="#ff0000" />
<line x1="253.249" y1="191.767" x2="275.087" y2="192.609"  stroke="#ff0000" />
<line x1="252.694" y1="191.753" x2="253.249" y2="191.767"  stroke="#ff0000" />
<line x1="230.801" y1="191.337" x2="252.694" y2="191.753"  stroke="#ff0000" />
<line x1="-3443.7" y1="191.337" x2="230.801" y2="191.337"  stroke="#ff0000" />
</g>
<g><title>ray</title>
<line x1="427.138" y1="194.22" x2="569.393" y2="200.014"  stroke="#00ebff" />
<line x1="405.265" y1="193.904" x2="427.138" y2="194.22"  stroke="#00ebff" />
<line x1="399.523" y1="193.839" x2="405.265" y2="193.904"  stroke="#00ebff" />
<line x1="377.638" y1="193.797" x2="399.523" y2="193.839"  stroke="#00ebff" />
<line x1="377.186" y1="193.801" x2="377.638" y2="193.797"  stroke="#00ebff" />
<line x1="351.642" y1="194.079" x2="377.186" y2="193.801"  stroke="#00ebff" />
<line x1="345.11" y1="194.182" x2="351.642" y2="194.079"  stroke="#00ebff" />
<line x1="323.214" y1="193.946" x2="345.11" y2="194.182"  stroke="#00ebff" />
<line x1="301.338" y1="193.709" x2="323.214" y2="193.946"  stroke="#00ebff" />
<line x1="295.676" y1="193.546" x2="301.338" y2="193.709"  stroke="#00ebff" />
<line x1="280.741" y1="192.878" x2="295.676" y2="193.546"  stroke="#00ebff" />
<line x1="275.087" y1="192.623" x2="280.741" y2="192.878"  stroke="#00ebff" />
<line x1="253.249" y1="191.772" x2="275.087" y2="192.623"  stroke="#00ebff" />
<line x1="252.694" y1="191.758" x2="253.249" y2="191.772"  stroke="#00ebff" />
<line x1="230.801" y1="191.337" x2="252.694" y2="191.758"  stroke="#00ebff" />
<line x1="-3443.7" y1="191.337" x2="230.801" y2="191.337"  stroke="#00ebff" />
</g>
<g><title>ray</title>
<line x1="427.138" y1="205.786" x2="569.393" y2="200.002"  stroke="#ffe100" />
<line x1="405.266" y1="206.106" x2="427.138" y2="205.786"  stroke="#ffe100" />
<line x1="399.522" y1="206.171" x2="405.266" y2="206.106"  stroke="#ffe100" />
<line x1="377.638" y1="206.22" x2="399.522" y2="206.171"  stroke="#ffe100" />
<line x1="377.186" y1="206.216" x2="377.638" y2="206.22"  stroke="#ffe100" />
<line x1="351.643" y1="205.947" x2="377.186" y2="206.216"  stroke="#ffe100" />
<line x1="345.109" y1="205.845" x2="351.643" y2="205.947"  stroke="#ffe100" />
<line x1="323.214" y1="206.08" x2="345.109" y2="205.845"  stroke="#ffe100" />
<line x1="301.34" y1="206.315" x2="323.214" y2="206.08"  stroke="#ffe100" />
<line x1="295.676" y1="206.477" x2="301.34" y2="206.315"  stroke="#ffe100" />
<line x1="280.741" y1="207.134" x2="295.676" y2="206.477"  stroke="#ffe100" />
<line x1="275.087" y1="207.387" x2="280.741" y2="207.134"  stroke="#ffe100" />
<line x1="253.249" y1="208.231" x2="275.087" y2="207.387"  stroke="#ffe100" />
<line x1="252.694" y1="208.246" x2="253.249" y2="208.231"  stroke="#ffe100" />
<line x1="230.801" y1="208.663" x2="252.694" y2="208.246"  stroke="#ffe100" />
<line x1="-3443.7" y1="208.663" x2="230.801" y2="208.663"  stroke="#ffe100" />
</g>
<g><title>ray</title>
<line x1="427.138" y1="205.79" x2="569.393" y2="200.012"  stroke="#ff0000" />
<line x1="405.266" y1="206.111" x2="427.138" y2="205.79"  stroke="#ff0000" />
<line x1="399.522" y1="206.177" x2="405.266" y2="206.111"  stroke="#ff0000" />
<line x1="377.638" y1="206.228" x2="399.522" y2="206.177"  stroke="#ff0000" />
<line x1="377.186" y1="206.224" x2="377.638" y2="206.228"  stroke="#ff0000" />
<line x1="351.644" y1="205.959" x2="377.186" y2="206.224"  stroke="#ff0000" />
<line x1="345.108" y1="205.858" x2="351.644" y2="205.959"  stroke="#ff0000" />
<line x1="323.214" y1="206.092" x2="345.108" y2="205.858"  stroke="#ff0000" />
<line x1="301.34" y1="206.325" x2="323.214" y2="206.092"  stroke="#ff0000" />
<line x1="295.676" y1="206.486" x2="301.34" y2="206.325"  stroke="#ff0000" />
<line x1="280.742" y1="207.14" x2="295.676" y2="206.486"  stroke="#ff0000" />
<line x1="275.087" y1="207.391" x2="280.742" y2="207.14"  stroke="#ff0000" />
<line x1="253.249" y1="208.233" x2="275.087" y2="207.391"  stroke="#ff0000" />
<line x1="252.694" y1="208.247" x2="253.249" y2="208.233"  stroke="#ff0000" />
<line x1="230.801" y1="208.663" x2="252.694" y2="208.247"  stroke="#ff0000" />
<line x1="-3443.7" y1="208.663" x2="230.801" y2="208.663"  stroke="#ff0000" />
</g>
<g><title>ray</title>
<line x1="427.138" y1="205.78" x2="569.393" y2="199.986"  stroke="#00ebff" />
<line x1="405.265" y1="206.096" x2="427.138" y2="205.78"  stroke="#00ebff" />
<line x1="399.523" y1="206.161" x2="405.265" y2="206.096"  stroke="#00ebff" />
<line x1="377.638" y1="206.203" x2="399.523" y2="206.161"  stroke="#00ebff" />
<line x1="377.186" y1="206.199" x2="377.638" y2="206.203"  stroke="#00ebff" />
<line x1="351.642" y1="205.921" x2="377.186" y2="206.199"  stroke="#00ebff" />
<line x1="345.11" y1="205.818" x2="351.642" y2="205.921"  stroke="#00ebff" />
<line x1="323.214" y1="206.054" x2="345.11" y2="205.818"  stroke="#00ebff" />
<line x1="301.338" y1="206.291" x2="323.214" y2="206.054"  stroke="#00ebff" />
<line x1="295.676" y1="206.454" x2="301.338" y2="206.291"  stroke="#00ebff" />
<line x1="280.741" y1="207.122" x2="295.676" y2="206.454"  stroke="#00ebff" />
<line x1="275.087" y1="207.377" x2="280.741" y2="207.122"  stroke="#00ebff" />
<line x1="253.249" y1="208.228" x2="275.087" y2="207.377"  stroke="#00ebff" />
<line x1="252.694" y1="208.242" x2="253.249" y2="208.228"  stroke="#00ebff" />
<line x1="230.801" y1="208.663" x2="252.694" y2="208.242"  stroke="#00ebff" />
<line x1="-3443.7" y1="208.663" x2="230.801" y2="208.663"  stroke="#00ebff" />
</g>
</g>
</svg>
