<?xml version="1.0" standalone="no"?>
<svg width="640px" height="480px" version="1.1" xmlns="http://www.w3.org/2000/svg" xmlns:xlink="http://www.w3.org/1999/xlink">
<rect x="0" y="0" width="640" height="480"  fill="#ffffff" />
<defs>
<g id="dot">
<line x1="1" y1="1" x2="0" y2="0"  />
</g>
<g id="cross">
<line x1="-3" y1="0" x2="3" y2="0"  />
<line x1="0" y1="-3" x2="0" y2="3"  />
</g>
<g id="square">
<line x1="-3" y1="-3" x2="-3" y2="3"  />
<line x1="-3" y1="3" x2="3" y2="3"  />
<line x1="3" y1="3" x2="3" y2="-3"  />
<line x1="3" y1="-3" x2="-3" y2="-3"  />
</g>
<g id="round">
<ellipse cx="0" cy="0" rx="3" ry="3"  fill="none" /></g>
<g id="triangle">
<line x1="0" y1="-3" x2="-3" y2="3"  />
<line x1="-3" y1="3" x2="3" y2="3"  />
<line x1="0" y1="-3" x2="3" y2="3"  />
</g>
</defs>
<polygon fill="none" stroke="#000000" points="66.0317,430.476 66.0317,49.5238 573.968,49.5238 573.968,430.476 " />
<text style="font-size:12;text-align:center;text-anchor:middle;" x="320" y="473.619" fill="#000000">Entrance ray height (normalized)</text>
<line x1="66.0317" y1="240" x2="573.968" y2="240"  stroke="#000000" />
<use x="66.0317" y="240" xlink:href="#cross"  stroke="#000000" />
<use x="66.0317" y="49.5238" xlink:href="#cross"  stroke="#000000" />
<use x="66.0317" y="430.476" xlink:href="#cross"  stroke="#000000" />
<text style="font-size:12;text-align:center;text-anchor:middle;" x="66.0317" y="448.476" fill="#000000">-1</text>
<use x="320" y="240" xlink:href="#cross"  stroke="#000000" />
<use x="320" y="49.5238" xlink:href="#cross"  stroke="#000000" />
<use x="320" y="430.476" xlink:href="#cross"  stroke="#000000" />
<text style="font-size:12;text-align:center;text-anchor:middle;" x="320" y="448.476" fill="#000000">0</text>
<use x="573.968" y="240" xlink:href="#cross"  stroke="#000000" />
<use x="573.968" y="49.5238" xlink:href="#cross"  stroke="#000000" />
<use x="573.968" y="430.476" xlink:href="#cross"  stroke="#000000" />
<text style="font-size:12;text-align:center;text-anchor:middle;" x="573.968" y="448.476" fill="#000000">1</text>
<text style="font-size:12;text-align:center;text-anchor:middle;" x="16.5079" y="246" transform="rotate(-90,16.5079,240)" fill="#000000">Transverse ray aberration (um)</text>
<line x1="320" y1="430.476" x2="320" y2="49.5238"  stroke="#000000" />
<use x="320" y="418.786" xlink:href="#cross"  stroke="#000000" />
<use x="573.968" y="418.786" xlink:href="#cross"  stroke="#000000" />
<use x="66.0317" y="418.786" xlink:href="#cross"  stroke="#000000" />
<text style="font-size:12;text-align:right;text-anchor:end;" x="60.0317" y="424.786" fill="#000000">-15</text>
<use x="320" y="359.191" xlink:href="#cross"  stroke="#000000" />
<use x="573.968" y="359.191" xlink:href="#cross"  stroke="#000000" />
<use x="66.0317" y="359.191" xlink:href="#cross"  stroke="#000000" />
<text style="font-size:12;text-align:right;text-anchor:end;" x="60.0317" y="365.191" fill="#000000">-10</text>
<use x="320" y="299.595" xlink:href="#cross"  stroke="#000000" />
<use x="573.968" y="299.595" xlink:href="#cross"  stroke="#000000" />
<use x="66.0317" y="299.595" xlink:href="#cross"  stroke="#000000" />
<text style="font-size:12;text-align:right;text-anchor:end;" x="60.0317" y="305.595" fill="#000000">-5</text>
<use x="320" y="240" xlink:href="#cross"  stroke="#000000" />
<use x="573.968" y="240" xlink:href="#cross"  stroke="#000000" />
<use x="66.0317" y="240" xlink:href="#cross"  stroke="#000000" />
<text style="font-size:12;text-align:right;text-anchor:end;" x="60.0317" y="246" fill="#000000">0</text>
<use x="320" y="180.405" xlink:href="#cross"  stroke="#000000" />
<use x="573.968" y="180.405" xlink:href="#cross"  stroke="#000000" />
<use x="66.0317" y="180.405" xlink:href="#cross"  stroke="#000000" />
<text style="font-size:12;text-align:right;text-anchor:end;" x="60.0317" y="186.405" fill="#000000">5</text>
<use x="320" y="120.809" xlink:href="#cross"  stroke="#000000" />
<use x="573.968" y="120.809" xlink:href="#cross"  stroke="#000000" />
<use x="66.0317" y="120.809" xlink:href="#cross"  stroke="#000000" />
<text style="font-size:12;text-align:right;text-anchor:end;" x="60.0317" y="126.809" fill="#000000">10</text>
<use x="320" y="61.2138" xlink:href="#cross"  stroke="#000000" />
<use x="573.968" y="61.2138" xlink:href="#cross"  stroke="#000000" />
<use x="66.0317" y="61.2138" xlink:href="#cross"  stroke="#000000" />
<text style="font-size:12;text-align:right;text-anchor:end;" x="60.0317" y="67.2138" fill="#000000">15</text>
<text style="font-size:18;text-align:center;text-anchor:middle;" x="320" y="33.7619" fill="#000000">Transverse ray aberration fan (tangential)</text>
<path fill="none"  stroke="#00ebff" d="M218.514,295.356 S229.79,283.258 235.429,274.936 S246.705,251.447 252.343,245.425 S263.619,239.321 269.257,238.802 S280.533,241.527 286.171,242.311 S297.448,243.887 303.086,243.502 S314.362,241.167 320,240 S331.276,236.883 336.914,236.498 S348.19,236.906 353.829,237.689 S365.105,241.717 370.743,241.198 S382.019,240.598 387.657,234.575 S398.933,213.386 404.571,205.064 S418.667,188.047 421.486,184.644 " />
<path fill="none"  stroke="#ffe100" d="M218.514,287.321 S229.79,255.641 235.429,244.639 S246.705,224.319 252.343,221.314 S263.619,223.712 269.257,226.612 S280.533,235.923 286.171,238.715 S297.448,243.149 303.086,243.363 S314.362,241.121 320,240 S331.276,236.423 336.914,236.637 S348.19,238.493 353.829,241.285 S365.105,250.488 370.743,253.388 S382.019,261.69 387.657,258.686 S398.933,246.362 404.571,235.361 S418.667,199.793 421.486,192.679 " />
<path fill="none"  stroke="#ff0000" d="M218.514,430.476 S229.79,374.812 235.429,354.632 S246.705,319.333 252.343,309.393 S263.619,298.881 269.257,294.995 S280.533,290.627 286.171,286.076 S297.448,275.369 303.086,267.69 S314.362,249.23 320,240 S331.276,219.99 336.914,212.31 S348.19,198.475 353.829,193.924 S365.105,188.891 370.743,185.005 S382.019,180.546 387.657,170.607 S398.933,145.549 404.571,125.368 S418.667,62.1645 421.486,49.5238 " />
</svg>
