<?xml version="1.0" standalone="no"?>
<svg width="300px" height="300px" version="1.1" xmlns="http://www.w3.org/2000/svg" xmlns:xlink="http://www.w3.org/1999/xlink">
<rect x="0" y="0" width="300" height="300"  fill="#000000" />
<defs>
<g id="dot">
<line x1="1" y1="1" x2="0" y2="0"  />
</g>
<g id="cross">
<line x1="-3" y1="0" x2="3" y2="0"  />
<line x1="0" y1="-3" x2="0" y2="3"  />
</g>
<g id="square">
<line x1="-3" y1="-3" x2="-3" y2="3"  />
<line x1="-3" y1="3" x2="3" y2="3"  />
<line x1="3" y1="3" x2="3" y2="-3"  />
<line x1="3" y1="-3" x2="-3" y2="-3"  />
</g>
<g id="round">
<ellipse cx="0" cy="0" rx="3" ry="3"  fill="none" /></g>
<g id="triangle">
<line x1="0" y1="-3" x2="-3" y2="3"  />
<line x1="-3" y1="3" x2="3" y2="3"  />
<line x1="0" y1="-3" x2="3" y2="3"  />
</g>
</defs>
<polygon fill="none" stroke="#ffffff" points="30.9524,269.048 30.9524,30.9524 269.048,30.9524 269.048,269.048 " />
<text style="font-size:12;text-align:center;text-anchor:middle;" x="150" y="298.262" fill="#ffffff">Saggital distance (um)</text>
<use x="70.6349" y="30.9524" xlink:href="#cross"  stroke="#ffffff" />
<use x="70.6349" y="269.048" xlink:href="#cross"  stroke="#ffffff" />
<text style="font-size:12;text-align:center;text-anchor:middle;" x="70.6349" y="287.048" fill="#ffffff">-10.7</text>
<use x="150" y="30.9524" xlink:href="#cross"  stroke="#ffffff" />
<use x="150" y="269.048" xlink:href="#cross"  stroke="#ffffff" />
<text style="font-size:12;text-align:center;text-anchor:middle;" x="150" y="287.048" fill="#ffffff">0</text>
<use x="229.365" y="30.9524" xlink:href="#cross"  stroke="#ffffff" />
<use x="229.365" y="269.048" xlink:href="#cross"  stroke="#ffffff" />
<text style="font-size:12;text-align:center;text-anchor:middle;" x="229.365" y="287.048" fill="#ffffff">10.7</text>
<text style="font-size:12;text-align:center;text-anchor:middle;" x="7.7381" y="156" transform="rotate(-90,7.7381,150)" fill="#ffffff">Tangential distance (um)</text>
<use x="269.048" y="229.365" xlink:href="#cross"  stroke="#ffffff" />
<use x="30.9524" y="229.365" xlink:href="#cross"  stroke="#ffffff" />
<text style="font-size:12;text-align:right;text-anchor:end;" x="24.9524" y="235.365" fill="#ffffff">-10.7</text>
<use x="269.048" y="150" xlink:href="#cross"  stroke="#ffffff" />
<use x="30.9524" y="150" xlink:href="#cross"  stroke="#ffffff" />
<text style="font-size:12;text-align:right;text-anchor:end;" x="24.9524" y="156" fill="#ffffff">0</text>
<use x="269.048" y="70.6349" xlink:href="#cross"  stroke="#ffffff" />
<use x="30.9524" y="70.6349" xlink:href="#cross"  stroke="#ffffff" />
<text style="font-size:12;text-align:right;text-anchor:end;" x="24.9524" y="76.6349" fill="#ffffff">10.7</text>
<use x="150" y="150" xlink:href="#dot"  stroke="#ffe100" />
<use x="150" y="150" xlink:href="#dot"  stroke="#ff0000" />
<use x="150" y="150" xlink:href="#dot"  stroke="#00ebff" />
<use x="150" y="120.424" xlink:href="#dot"  stroke="#ffe100" />
<use x="150" y="30.9524" xlink:href="#dot"  stroke="#ff0000" />
<use x="150" y="115.403" xlink:href="#dot"  stroke="#00ebff" />
<use x="153.86" y="120.677" xlink:href="#dot"  stroke="#ffe100" />
<use x="165.539" y="31.9708" xlink:href="#dot"  stroke="#ff0000" />
<use x="154.516" y="115.699" xlink:href="#dot"  stroke="#00ebff" />
<use x="157.655" y="121.432" xlink:href="#dot"  stroke="#ffe100" />
<use x="180.812" y="35.0088" xlink:href="#dot"  stroke="#ff0000" />
<use x="158.954" y="116.581" xlink:href="#dot"  stroke="#00ebff" />
<use x="161.318" y="122.676" xlink:href="#dot"  stroke="#ffe100" />
<use x="195.558" y="40.0143" xlink:href="#dot"  stroke="#ff0000" />
<use x="163.24" y="118.036" xlink:href="#dot"  stroke="#00ebff" />
<use x="164.788" y="124.387" xlink:href="#dot"  stroke="#ffe100" />
<use x="209.524" y="46.9017" xlink:href="#dot"  stroke="#ff0000" />
<use x="167.299" y="120.038" xlink:href="#dot"  stroke="#00ebff" />
<use x="168.005" y="126.536" xlink:href="#dot"  stroke="#ffe100" />
<use x="222.472" y="55.5532" xlink:href="#dot"  stroke="#ff0000" />
<use x="171.062" y="122.552" xlink:href="#dot"  stroke="#00ebff" />
<use x="170.913" y="129.087" xlink:href="#dot"  stroke="#ffe100" />
<use x="234.179" y="65.8206" xlink:href="#dot"  stroke="#ff0000" />
<use x="174.464" y="125.536" xlink:href="#dot"  stroke="#00ebff" />
<use x="173.464" y="131.995" xlink:href="#dot"  stroke="#ffe100" />
<use x="244.447" y="77.5284" xlink:href="#dot"  stroke="#ff0000" />
<use x="177.448" y="128.938" xlink:href="#dot"  stroke="#00ebff" />
<use x="175.613" y="135.212" xlink:href="#dot"  stroke="#ffe100" />
<use x="253.098" y="90.4762" xlink:href="#dot"  stroke="#ff0000" />
<use x="179.962" y="132.701" xlink:href="#dot"  stroke="#00ebff" />
<use x="177.324" y="138.682" xlink:href="#dot"  stroke="#ffe100" />
<use x="259.986" y="104.442" xlink:href="#dot"  stroke="#ff0000" />
<use x="181.964" y="136.76" xlink:href="#dot"  stroke="#00ebff" />
<use x="178.568" y="142.345" xlink:href="#dot"  stroke="#ffe100" />
<use x="264.991" y="119.188" xlink:href="#dot"  stroke="#ff0000" />
<use x="183.419" y="141.046" xlink:href="#dot"  stroke="#00ebff" />
<use x="179.323" y="146.14" xlink:href="#dot"  stroke="#ffe100" />
<use x="268.029" y="134.461" xlink:href="#dot"  stroke="#ff0000" />
<use x="184.301" y="145.484" xlink:href="#dot"  stroke="#00ebff" />
<use x="179.576" y="150" xlink:href="#dot"  stroke="#ffe100" />
<use x="269.048" y="150" xlink:href="#dot"  stroke="#ff0000" />
<use x="184.597" y="150" xlink:href="#dot"  stroke="#00ebff" />
<use x="179.323" y="153.86" xlink:href="#dot"  stroke="#ffe100" />
<use x="268.029" y="165.539" xlink:href="#dot"  stroke="#ff0000" />
<use x="184.301" y="154.516" xlink:href="#dot"  stroke="#00ebff" />
<use x="178.568" y="157.655" xlink:href="#dot"  stroke="#ffe100" />
<use x="264.991" y="180.812" xlink:href="#dot"  stroke="#ff0000" />
<use x="183.419" y="158.954" xlink:href="#dot"  stroke="#00ebff" />
<use x="177.324" y="161.318" xlink:href="#dot"  stroke="#ffe100" />
<use x="259.986" y="195.558" xlink:href="#dot"  stroke="#ff0000" />
<use x="181.964" y="163.24" xlink:href="#dot"  stroke="#00ebff" />
<use x="175.613" y="164.788" xlink:href="#dot"  stroke="#ffe100" />
<use x="253.098" y="209.524" xlink:href="#dot"  stroke="#ff0000" />
<use x="179.962" y="167.299" xlink:href="#dot"  stroke="#00ebff" />
<use x="173.464" y="168.005" xlink:href="#dot"  stroke="#ffe100" />
<use x="244.447" y="222.472" xlink:href="#dot"  stroke="#ff0000" />
<use x="177.448" y="171.062" xlink:href="#dot"  stroke="#00ebff" />
<use x="170.913" y="170.913" xlink:href="#dot"  stroke="#ffe100" />
<use x="234.179" y="234.179" xlink:href="#dot"  stroke="#ff0000" />
<use x="174.464" y="174.464" xlink:href="#dot"  stroke="#00ebff" />
<use x="168.005" y="173.464" xlink:href="#dot"  stroke="#ffe100" />
<use x="222.472" y="244.447" xlink:href="#dot"  stroke="#ff0000" />
<use x="171.062" y="177.448" xlink:href="#dot"  stroke="#00ebff" />
<use x="164.788" y="175.613" xlink:href="#dot"  stroke="#ffe100" />
<use x="209.524" y="253.098" xlink:href="#dot"  stroke="#ff0000" />
<use x="167.299" y="179.962" xlink:href="#dot"  stroke="#00ebff" />
<use x="161.318" y="177.324" xlink:href="#dot"  stroke="#ffe100" />
<use x="195.558" y="259.986" xlink:href="#dot"  stroke="#ff0000" />
<use x="163.24" y="181.964" xlink:href="#dot"  stroke="#00ebff" />
<use x="157.655" y="178.568" xlink:href="#dot"  stroke="#ffe100" />
<use x="180.812" y="264.991" xlink:href="#dot"  stroke="#ff0000" />
<use x="158.954" y="183.419" xlink:href="#dot"  stroke="#00ebff" />
<use x="153.86" y="179.323" xlink:href="#dot"  stroke="#ffe100" />
<use x="165.539" y="268.029" xlink:href="#dot"  stroke="#ff0000" />
<use x="154.516" y="184.301" xlink:href="#dot"  stroke="#00ebff" />
<use x="150" y="179.576" xlink:href="#dot"  stroke="#ffe100" />
<use x="150" y="269.048" xlink:href="#dot"  stroke="#ff0000" />
<use x="150" y="184.597" xlink:href="#dot"  stroke="#00ebff" />
<use x="146.14" y="179.323" xlink:href="#dot"  stroke="#ffe100" />
<use x="134.461" y="268.029" xlink:href="#dot"  stroke="#ff0000" />
<use x="145.484" y="184.301" xlink:href="#dot"  stroke="#00ebff" />
<use x="142.345" y="178.568" xlink:href="#dot"  stroke="#ffe100" />
<use x="119.188" y="264.991" xlink:href="#dot"  stroke="#ff0000" />
<use x="141.046" y="183.419" xlink:href="#dot"  stroke="#00ebff" />
<use x="138.682" y="177.324" xlink:href="#dot"  stroke="#ffe100" />
<use x="104.442" y="259.986" xlink:href="#dot"  stroke="#ff0000" />
<use x="136.76" y="181.964" xlink:href="#dot"  stroke="#00ebff" />
<use x="135.212" y="175.613" xlink:href="#dot"  stroke="#ffe100" />
<use x="90.4762" y="253.098" xlink:href="#dot"  stroke="#ff0000" />
<use x="132.701" y="179.962" xlink:href="#dot"  stroke="#00ebff" />
<use x="131.995" y="173.464" xlink:href="#dot"  stroke="#ffe100" />
<use x="77.5284" y="244.447" xlink:href="#dot"  stroke="#ff0000" />
<use x="128.938" y="177.448" xlink:href="#dot"  stroke="#00ebff" />
<use x="129.087" y="170.913" xlink:href="#dot"  stroke="#ffe100" />
<use x="65.8206" y="234.179" xlink:href="#dot"  stroke="#ff0000" />
<use x="125.536" y="174.464" xlink:href="#dot"  stroke="#00ebff" />
<use x="126.536" y="168.005" xlink:href="#dot"  stroke="#ffe100" />
<use x="55.5532" y="222.472" xlink:href="#dot"  stroke="#ff0000" />
<use x="122.552" y="171.062" xlink:href="#dot"  stroke="#00ebff" />
<use x="124.387" y="164.788" xlink:href="#dot"  stroke="#ffe100" />
<use x="46.9017" y="209.524" xlink:href="#dot"  stroke="#ff0000" />
<use x="120.038" y="167.299" xlink:href="#dot"  stroke="#00ebff" />
<use x="122.676" y="161.318" xlink:href="#dot"  stroke="#ffe100" />
<use x="40.0143" y="195.558" xlink:href="#dot"  stroke="#ff0000" />
<use x="118.036" y="163.24" xlink:href="#dot"  stroke="#00ebff" />
<use x="121.432" y="157.655" xlink:href="#dot"  stroke="#ffe100" />
<use x="35.0088" y="180.812" xlink:href="#dot"  stroke="#ff0000" />
<use x="116.581" y="158.954" xlink:href="#dot"  stroke="#00ebff" />
<use x="120.677" y="153.86" xlink:href="#dot"  stroke="#ffe100" />
<use x="31.9708" y="165.539" xlink:href="#dot"  stroke="#ff0000" />
<use x="115.699" y="154.516" xlink:href="#dot"  stroke="#00ebff" />
<use x="120.424" y="150" xlink:href="#dot"  stroke="#ffe100" />
<use x="30.9524" y="150" xlink:href="#dot"  stroke="#ff0000" />
<use x="115.403" y="150" xlink:href="#dot"  stroke="#00ebff" />
<use x="120.677" y="146.14" xlink:href="#dot"  stroke="#ffe100" />
<use x="31.9708" y="134.461" xlink:href="#dot"  stroke="#ff0000" />
<use x="115.699" y="145.484" xlink:href="#dot"  stroke="#00ebff" />
<use x="121.432" y="142.345" xlink:href="#dot"  stroke="#ffe100" />
<use x="35.0088" y="119.188" xlink:href="#dot"  stroke="#ff0000" />
<use x="116.581" y="141.046" xlink:href="#dot"  stroke="#00ebff" />
<use x="122.676" y="138.682" xlink:href="#dot"  stroke="#ffe100" />
<use x="40.0143" y="104.442" xlink:href="#dot"  stroke="#ff0000" />
<use x="118.036" y="136.76" xlink:href="#dot"  stroke="#00ebff" />
<use x="124.387" y="135.212" xlink:href="#dot"  stroke="#ffe100" />
<use x="46.9017" y="90.4762" xlink:href="#dot"  stroke="#ff0000" />
<use x="120.038" y="132.701" xlink:href="#dot"  stroke="#00ebff" />
<use x="126.536" y="131.995" xlink:href="#dot"  stroke="#ffe100" />
<use x="55.5532" y="77.5284" xlink:href="#dot"  stroke="#ff0000" />
<use x="122.552" y="128.938" xlink:href="#dot"  stroke="#00ebff" />
<use x="129.087" y="129.087" xlink:href="#dot"  stroke="#ffe100" />
<use x="65.8206" y="65.8206" xlink:href="#dot"  stroke="#ff0000" />
<use x="125.536" y="125.536" xlink:href="#dot"  stroke="#00ebff" />
<use x="131.995" y="126.536" xlink:href="#dot"  stroke="#ffe100" />
<use x="77.5284" y="55.5532" xlink:href="#dot"  stroke="#ff0000" />
<use x="128.938" y="122.552" xlink:href="#dot"  stroke="#00ebff" />
<use x="135.212" y="124.387" xlink:href="#dot"  stroke="#ffe100" />
<use x="90.4762" y="46.9017" xlink:href="#dot"  stroke="#ff0000" />
<use x="132.701" y="120.038" xlink:href="#dot"  stroke="#00ebff" />
<use x="138.682" y="122.676" xlink:href="#dot"  stroke="#ffe100" />
<use x="104.442" y="40.0143" xlink:href="#dot"  stroke="#ff0000" />
<use x="136.76" y="118.036" xlink:href="#dot"  stroke="#00ebff" />
<use x="142.345" y="121.432" xlink:href="#dot"  stroke="#ffe100" />
<use x="119.188" y="35.0088" xlink:href="#dot"  stroke="#ff0000" />
<use x="141.046" y="116.581" xlink:href="#dot"  stroke="#00ebff" />
<use x="146.14" y="120.677" xlink:href="#dot"  stroke="#ffe100" />
<use x="134.461" y="31.9708" xlink:href="#dot"  stroke="#ff0000" />
<use x="145.484" y="115.699" xlink:href="#dot"  stroke="#00ebff" />
<use x="150" y="140.157" xlink:href="#dot"  stroke="#ffe100" />
<use x="150" y="67.2199" xlink:href="#dot"  stroke="#ff0000" />
<use x="150" y="122.208" xlink:href="#dot"  stroke="#00ebff" />
<use x="151.467" y="140.267" xlink:href="#dot"  stroke="#ffe100" />
<use x="162.338" y="68.1445" xlink:href="#dot"  stroke="#ff0000" />
<use x="154.142" y="122.519" xlink:href="#dot"  stroke="#00ebff" />
<use x="152.901" y="140.595" xlink:href="#dot"  stroke="#ffe100" />
<use x="174.4" y="70.8976" xlink:href="#dot"  stroke="#ff0000" />
<use x="158.192" y="123.443" xlink:href="#dot"  stroke="#00ebff" />
<use x="154.271" y="141.132" xlink:href="#dot"  stroke="#ffe100" />
<use x="185.917" y="75.4177" xlink:href="#dot"  stroke="#ff0000" />
<use x="162.058" y="124.961" xlink:href="#dot"  stroke="#00ebff" />
<use x="155.545" y="141.868" xlink:href="#dot"  stroke="#ffe100" />
<use x="196.632" y="81.6039" xlink:href="#dot"  stroke="#ff0000" />
<use x="165.656" y="127.038" xlink:href="#dot"  stroke="#00ebff" />
<use x="156.695" y="142.785" xlink:href="#dot"  stroke="#ffe100" />
<use x="206.305" y="89.3179" xlink:href="#dot"  stroke="#ff0000" />
<use x="168.903" y="129.627" xlink:href="#dot"  stroke="#00ebff" />
<use x="157.695" y="143.863" xlink:href="#dot"  stroke="#ffe100" />
<use x="214.72" y="98.3875" xlink:href="#dot"  stroke="#ff0000" />
<use x="171.728" y="132.672" xlink:href="#dot"  stroke="#00ebff" />
<use x="158.524" y="145.079" xlink:href="#dot"  stroke="#ffe100" />
<use x="221.69" y="108.61" xlink:href="#dot"  stroke="#ff0000" />
<use x="174.068" y="136.104" xlink:href="#dot"  stroke="#00ebff" />
<use x="159.162" y="146.404" xlink:href="#dot"  stroke="#ffe100" />
<use x="227.058" y="119.757" xlink:href="#dot"  stroke="#ff0000" />
<use x="175.87" y="139.847" xlink:href="#dot"  stroke="#00ebff" />
<use x="159.596" y="147.81" xlink:href="#dot"  stroke="#ffe100" />
<use x="230.705" y="131.58" xlink:href="#dot"  stroke="#ff0000" />
<use x="177.095" y="143.816" xlink:href="#dot"  stroke="#00ebff" />
<use x="159.815" y="149.264" xlink:href="#dot"  stroke="#ffe100" />
<use x="232.549" y="143.814" xlink:href="#dot"  stroke="#ff0000" />
<use x="177.714" y="147.923" xlink:href="#dot"  stroke="#00ebff" />
<use x="159.815" y="150.736" xlink:href="#dot"  stroke="#ffe100" />
<use x="232.549" y="156.186" xlink:href="#dot"  stroke="#ff0000" />
<use x="177.714" y="152.077" xlink:href="#dot"  stroke="#00ebff" />
<use x="159.596" y="152.19" xlink:href="#dot"  stroke="#ffe100" />
<use x="230.705" y="168.42" xlink:href="#dot"  stroke="#ff0000" />
<use x="177.095" y="156.184" xlink:href="#dot"  stroke="#00ebff" />
<use x="159.162" y="153.596" xlink:href="#dot"  stroke="#ffe100" />
<use x="227.058" y="180.243" xlink:href="#dot"  stroke="#ff0000" />
<use x="175.87" y="160.153" xlink:href="#dot"  stroke="#00ebff" />
<use x="158.524" y="154.921" xlink:href="#dot"  stroke="#ffe100" />
<use x="221.69" y="191.39" xlink:href="#dot"  stroke="#ff0000" />
<use x="174.068" y="163.896" xlink:href="#dot"  stroke="#00ebff" />
<use x="157.695" y="156.137" xlink:href="#dot"  stroke="#ffe100" />
<use x="214.72" y="201.613" xlink:href="#dot"  stroke="#ff0000" />
<use x="171.728" y="167.328" xlink:href="#dot"  stroke="#00ebff" />
<use x="156.695" y="157.215" xlink:href="#dot"  stroke="#ffe100" />
<use x="206.305" y="210.682" xlink:href="#dot"  stroke="#ff0000" />
<use x="168.903" y="170.373" xlink:href="#dot"  stroke="#00ebff" />
<use x="155.545" y="158.132" xlink:href="#dot"  stroke="#ffe100" />
<use x="196.632" y="218.396" xlink:href="#dot"  stroke="#ff0000" />
<use x="165.656" y="172.962" xlink:href="#dot"  stroke="#00ebff" />
<use x="154.271" y="158.868" xlink:href="#dot"  stroke="#ffe100" />
<use x="185.917" y="224.582" xlink:href="#dot"  stroke="#ff0000" />
<use x="162.058" y="175.039" xlink:href="#dot"  stroke="#00ebff" />
<use x="152.901" y="159.405" xlink:href="#dot"  stroke="#ffe100" />
<use x="174.4" y="229.102" xlink:href="#dot"  stroke="#ff0000" />
<use x="158.192" y="176.557" xlink:href="#dot"  stroke="#00ebff" />
<use x="151.467" y="159.733" xlink:href="#dot"  stroke="#ffe100" />
<use x="162.338" y="231.855" xlink:href="#dot"  stroke="#ff0000" />
<use x="154.142" y="177.481" xlink:href="#dot"  stroke="#00ebff" />
<use x="150" y="159.843" xlink:href="#dot"  stroke="#ffe100" />
<use x="150" y="232.78" xlink:href="#dot"  stroke="#ff0000" />
<use x="150" y="177.792" xlink:href="#dot"  stroke="#00ebff" />
<use x="148.533" y="159.733" xlink:href="#dot"  stroke="#ffe100" />
<use x="137.662" y="231.855" xlink:href="#dot"  stroke="#ff0000" />
<use x="145.858" y="177.481" xlink:href="#dot"  stroke="#00ebff" />
<use x="147.099" y="159.405" xlink:href="#dot"  stroke="#ffe100" />
<use x="125.6" y="229.102" xlink:href="#dot"  stroke="#ff0000" />
<use x="141.808" y="176.557" xlink:href="#dot"  stroke="#00ebff" />
<use x="145.729" y="158.868" xlink:href="#dot"  stroke="#ffe100" />
<use x="114.083" y="224.582" xlink:href="#dot"  stroke="#ff0000" />
<use x="137.942" y="175.039" xlink:href="#dot"  stroke="#00ebff" />
<use x="144.455" y="158.132" xlink:href="#dot"  stroke="#ffe100" />
<use x="103.368" y="218.396" xlink:href="#dot"  stroke="#ff0000" />
<use x="134.344" y="172.962" xlink:href="#dot"  stroke="#00ebff" />
<use x="143.305" y="157.215" xlink:href="#dot"  stroke="#ffe100" />
<use x="93.6953" y="210.682" xlink:href="#dot"  stroke="#ff0000" />
<use x="131.097" y="170.373" xlink:href="#dot"  stroke="#00ebff" />
<use x="142.305" y="156.137" xlink:href="#dot"  stroke="#ffe100" />
<use x="85.2799" y="201.613" xlink:href="#dot"  stroke="#ff0000" />
<use x="128.272" y="167.328" xlink:href="#dot"  stroke="#00ebff" />
<use x="141.476" y="154.921" xlink:href="#dot"  stroke="#ffe100" />
<use x="78.3104" y="191.39" xlink:href="#dot"  stroke="#ff0000" />
<use x="125.932" y="163.896" xlink:href="#dot"  stroke="#00ebff" />
<use x="140.838" y="153.596" xlink:href="#dot"  stroke="#ffe100" />
<use x="72.9422" y="180.243" xlink:href="#dot"  stroke="#ff0000" />
<use x="124.13" y="160.153" xlink:href="#dot"  stroke="#00ebff" />
<use x="140.404" y="152.19" xlink:href="#dot"  stroke="#ffe100" />
<use x="69.2954" y="168.42" xlink:href="#dot"  stroke="#ff0000" />
<use x="122.905" y="156.184" xlink:href="#dot"  stroke="#00ebff" />
<use x="140.185" y="150.736" xlink:href="#dot"  stroke="#ffe100" />
<use x="67.4514" y="156.186" xlink:href="#dot"  stroke="#ff0000" />
<use x="122.286" y="152.077" xlink:href="#dot"  stroke="#00ebff" />
<use x="140.185" y="149.264" xlink:href="#dot"  stroke="#ffe100" />
<use x="67.4514" y="143.814" xlink:href="#dot"  stroke="#ff0000" />
<use x="122.286" y="147.923" xlink:href="#dot"  stroke="#00ebff" />
<use x="140.404" y="147.81" xlink:href="#dot"  stroke="#ffe100" />
<use x="69.2954" y="131.58" xlink:href="#dot"  stroke="#ff0000" />
<use x="122.905" y="143.816" xlink:href="#dot"  stroke="#00ebff" />
<use x="140.838" y="146.404" xlink:href="#dot"  stroke="#ffe100" />
<use x="72.9422" y="119.757" xlink:href="#dot"  stroke="#ff0000" />
<use x="124.13" y="139.847" xlink:href="#dot"  stroke="#00ebff" />
<use x="141.476" y="145.079" xlink:href="#dot"  stroke="#ffe100" />
<use x="78.3104" y="108.61" xlink:href="#dot"  stroke="#ff0000" />
<use x="125.932" y="136.104" xlink:href="#dot"  stroke="#00ebff" />
<use x="142.305" y="143.863" xlink:href="#dot"  stroke="#ffe100" />
<use x="85.2799" y="98.3875" xlink:href="#dot"  stroke="#ff0000" />
<use x="128.272" y="132.672" xlink:href="#dot"  stroke="#00ebff" />
<use x="143.305" y="142.785" xlink:href="#dot"  stroke="#ffe100" />
<use x="93.6953" y="89.3179" xlink:href="#dot"  stroke="#ff0000" />
<use x="131.097" y="129.627" xlink:href="#dot"  stroke="#00ebff" />
<use x="144.455" y="141.868" xlink:href="#dot"  stroke="#ffe100" />
<use x="103.368" y="81.6039" xlink:href="#dot"  stroke="#ff0000" />
<use x="134.344" y="127.038" xlink:href="#dot"  stroke="#00ebff" />
<use x="145.729" y="141.132" xlink:href="#dot"  stroke="#ffe100" />
<use x="114.083" y="75.4177" xlink:href="#dot"  stroke="#ff0000" />
<use x="137.942" y="124.961" xlink:href="#dot"  stroke="#00ebff" />
<use x="147.099" y="140.595" xlink:href="#dot"  stroke="#ffe100" />
<use x="125.6" y="70.8976" xlink:href="#dot"  stroke="#ff0000" />
<use x="141.808" y="123.443" xlink:href="#dot"  stroke="#00ebff" />
<use x="148.533" y="140.267" xlink:href="#dot"  stroke="#ffe100" />
<use x="137.662" y="68.1445" xlink:href="#dot"  stroke="#ff0000" />
<use x="145.858" y="122.519" xlink:href="#dot"  stroke="#00ebff" />
<use x="150" y="157.247" xlink:href="#dot"  stroke="#ffe100" />
<use x="150" y="95.7691" xlink:href="#dot"  stroke="#ff0000" />
<use x="150" y="139.173" xlink:href="#dot"  stroke="#00ebff" />
<use x="148.742" y="157.137" xlink:href="#dot"  stroke="#ffe100" />
<use x="159.417" y="96.593" xlink:href="#dot"  stroke="#ff0000" />
<use x="151.88" y="139.338" xlink:href="#dot"  stroke="#00ebff" />
<use x="147.521" y="156.81" xlink:href="#dot"  stroke="#ffe100" />
<use x="168.548" y="99.0396" xlink:href="#dot"  stroke="#ff0000" />
<use x="153.703" y="139.826" xlink:href="#dot"  stroke="#00ebff" />
<use x="146.376" y="156.276" xlink:href="#dot"  stroke="#ffe100" />
<use x="177.115" y="103.035" xlink:href="#dot"  stroke="#ff0000" />
<use x="155.413" y="140.624" xlink:href="#dot"  stroke="#00ebff" />
<use x="145.342" y="155.552" xlink:href="#dot"  stroke="#ffe100" />
<use x="184.859" y="108.457" xlink:href="#dot"  stroke="#ff0000" />
<use x="156.959" y="141.706" xlink:href="#dot"  stroke="#00ebff" />
<use x="144.448" y="154.658" xlink:href="#dot"  stroke="#ffe100" />
<use x="191.543" y="115.141" xlink:href="#dot"  stroke="#ff0000" />
<use x="158.294" y="143.041" xlink:href="#dot"  stroke="#00ebff" />
<use x="143.724" y="153.624" xlink:href="#dot"  stroke="#ffe100" />
<use x="196.965" y="122.885" xlink:href="#dot"  stroke="#ff0000" />
<use x="159.376" y="144.587" xlink:href="#dot"  stroke="#00ebff" />
<use x="143.19" y="152.479" xlink:href="#dot"  stroke="#ffe100" />
<use x="200.96" y="131.452" xlink:href="#dot"  stroke="#ff0000" />
<use x="160.174" y="146.297" xlink:href="#dot"  stroke="#00ebff" />
<use x="142.863" y="151.258" xlink:href="#dot"  stroke="#ffe100" />
<use x="203.407" y="140.583" xlink:href="#dot"  stroke="#ff0000" />
<use x="160.662" y="148.12" xlink:href="#dot"  stroke="#00ebff" />
<use x="142.753" y="150" xlink:href="#dot"  stroke="#ffe100" />
<use x="204.231" y="150" xlink:href="#dot"  stroke="#ff0000" />
<use x="160.827" y="150" xlink:href="#dot"  stroke="#00ebff" />
<use x="142.863" y="148.742" xlink:href="#dot"  stroke="#ffe100" />
<use x="203.407" y="159.417" xlink:href="#dot"  stroke="#ff0000" />
<use x="160.662" y="151.88" xlink:href="#dot"  stroke="#00ebff" />
<use x="143.19" y="147.521" xlink:href="#dot"  stroke="#ffe100" />
<use x="200.96" y="168.548" xlink:href="#dot"  stroke="#ff0000" />
<use x="160.174" y="153.703" xlink:href="#dot"  stroke="#00ebff" />
<use x="143.724" y="146.376" xlink:href="#dot"  stroke="#ffe100" />
<use x="196.965" y="177.115" xlink:href="#dot"  stroke="#ff0000" />
<use x="159.376" y="155.413" xlink:href="#dot"  stroke="#00ebff" />
<use x="144.448" y="145.342" xlink:href="#dot"  stroke="#ffe100" />
<use x="191.543" y="184.859" xlink:href="#dot"  stroke="#ff0000" />
<use x="158.294" y="156.959" xlink:href="#dot"  stroke="#00ebff" />
<use x="145.342" y="144.448" xlink:href="#dot"  stroke="#ffe100" />
<use x="184.859" y="191.543" xlink:href="#dot"  stroke="#ff0000" />
<use x="156.959" y="158.294" xlink:href="#dot"  stroke="#00ebff" />
<use x="146.376" y="143.724" xlink:href="#dot"  stroke="#ffe100" />
<use x="177.115" y="196.965" xlink:href="#dot"  stroke="#ff0000" />
<use x="155.413" y="159.376" xlink:href="#dot"  stroke="#00ebff" />
<use x="147.521" y="143.19" xlink:href="#dot"  stroke="#ffe100" />
<use x="168.548" y="200.96" xlink:href="#dot"  stroke="#ff0000" />
<use x="153.703" y="160.174" xlink:href="#dot"  stroke="#00ebff" />
<use x="148.742" y="142.863" xlink:href="#dot"  stroke="#ffe100" />
<use x="159.417" y="203.407" xlink:href="#dot"  stroke="#ff0000" />
<use x="151.88" y="160.662" xlink:href="#dot"  stroke="#00ebff" />
<use x="150" y="142.753" xlink:href="#dot"  stroke="#ffe100" />
<use x="150" y="204.231" xlink:href="#dot"  stroke="#ff0000" />
<use x="150" y="160.827" xlink:href="#dot"  stroke="#00ebff" />
<use x="151.258" y="142.863" xlink:href="#dot"  stroke="#ffe100" />
<use x="140.583" y="203.407" xlink:href="#dot"  stroke="#ff0000" />
<use x="148.12" y="160.662" xlink:href="#dot"  stroke="#00ebff" />
<use x="152.479" y="143.19" xlink:href="#dot"  stroke="#ffe100" />
<use x="131.452" y="200.96" xlink:href="#dot"  stroke="#ff0000" />
<use x="146.297" y="160.174" xlink:href="#dot"  stroke="#00ebff" />
<use x="153.624" y="143.724" xlink:href="#dot"  stroke="#ffe100" />
<use x="122.885" y="196.965" xlink:href="#dot"  stroke="#ff0000" />
<use x="144.587" y="159.376" xlink:href="#dot"  stroke="#00ebff" />
<use x="154.658" y="144.448" xlink:href="#dot"  stroke="#ffe100" />
<use x="115.141" y="191.543" xlink:href="#dot"  stroke="#ff0000" />
<use x="143.041" y="158.294" xlink:href="#dot"  stroke="#00ebff" />
<use x="155.552" y="145.342" xlink:href="#dot"  stroke="#ffe100" />
<use x="108.457" y="184.859" xlink:href="#dot"  stroke="#ff0000" />
<use x="141.706" y="156.959" xlink:href="#dot"  stroke="#00ebff" />
<use x="156.276" y="146.376" xlink:href="#dot"  stroke="#ffe100" />
<use x="103.035" y="177.115" xlink:href="#dot"  stroke="#ff0000" />
<use x="140.624" y="155.413" xlink:href="#dot"  stroke="#00ebff" />
<use x="156.81" y="147.521" xlink:href="#dot"  stroke="#ffe100" />
<use x="99.0396" y="168.548" xlink:href="#dot"  stroke="#ff0000" />
<use x="139.826" y="153.703" xlink:href="#dot"  stroke="#00ebff" />
<use x="157.137" y="148.742" xlink:href="#dot"  stroke="#ffe100" />
<use x="96.593" y="159.417" xlink:href="#dot"  stroke="#ff0000" />
<use x="139.338" y="151.88" xlink:href="#dot"  stroke="#00ebff" />
<use x="157.247" y="150" xlink:href="#dot"  stroke="#ffe100" />
<use x="95.7691" y="150" xlink:href="#dot"  stroke="#ff0000" />
<use x="139.173" y="150" xlink:href="#dot"  stroke="#00ebff" />
<use x="157.137" y="151.258" xlink:href="#dot"  stroke="#ffe100" />
<use x="96.593" y="140.583" xlink:href="#dot"  stroke="#ff0000" />
<use x="139.338" y="148.12" xlink:href="#dot"  stroke="#00ebff" />
<use x="156.81" y="152.479" xlink:href="#dot"  stroke="#ffe100" />
<use x="99.0396" y="131.452" xlink:href="#dot"  stroke="#ff0000" />
<use x="139.826" y="146.297" xlink:href="#dot"  stroke="#00ebff" />
<use x="156.276" y="153.624" xlink:href="#dot"  stroke="#ffe100" />
<use x="103.035" y="122.885" xlink:href="#dot"  stroke="#ff0000" />
<use x="140.624" y="144.587" xlink:href="#dot"  stroke="#00ebff" />
<use x="155.552" y="154.658" xlink:href="#dot"  stroke="#ffe100" />
<use x="108.457" y="115.141" xlink:href="#dot"  stroke="#ff0000" />
<use x="141.706" y="143.041" xlink:href="#dot"  stroke="#00ebff" />
<use x="154.658" y="155.552" xlink:href="#dot"  stroke="#ffe100" />
<use x="115.141" y="108.457" xlink:href="#dot"  stroke="#ff0000" />
<use x="143.041" y="141.706" xlink:href="#dot"  stroke="#00ebff" />
<use x="153.624" y="156.276" xlink:href="#dot"  stroke="#ffe100" />
<use x="122.885" y="103.035" xlink:href="#dot"  stroke="#ff0000" />
<use x="144.587" y="140.624" xlink:href="#dot"  stroke="#00ebff" />
<use x="152.479" y="156.81" xlink:href="#dot"  stroke="#ffe100" />
<use x="131.452" y="99.0396" xlink:href="#dot"  stroke="#ff0000" />
<use x="146.297" y="139.826" xlink:href="#dot"  stroke="#00ebff" />
<use x="151.258" y="157.137" xlink:href="#dot"  stroke="#ffe100" />
<use x="140.583" y="96.593" xlink:href="#dot"  stroke="#ff0000" />
<use x="148.12" y="139.338" xlink:href="#dot"  stroke="#00ebff" />
<use x="150" y="162.029" xlink:href="#dot"  stroke="#ffe100" />
<use x="150" y="110.058" xlink:href="#dot"  stroke="#ff0000" />
<use x="150" y="148.814" xlink:href="#dot"  stroke="#00ebff" />
<use x="147.499" y="161.766" xlink:href="#dot"  stroke="#ffe100" />
<use x="158.304" y="110.931" xlink:href="#dot"  stroke="#ff0000" />
<use x="150.247" y="148.84" xlink:href="#dot"  stroke="#00ebff" />
<use x="145.108" y="160.989" xlink:href="#dot"  stroke="#ffe100" />
<use x="166.246" y="113.511" xlink:href="#dot"  stroke="#ff0000" />
<use x="150.482" y="148.917" xlink:href="#dot"  stroke="#00ebff" />
<use x="142.93" y="159.731" xlink:href="#dot"  stroke="#ffe100" />
<use x="173.477" y="117.686" xlink:href="#dot"  stroke="#ff0000" />
<use x="150.697" y="149.041" xlink:href="#dot"  stroke="#00ebff" />
<use x="141.061" y="158.049" xlink:href="#dot"  stroke="#ffe100" />
<use x="179.683" y="123.273" xlink:href="#dot"  stroke="#ff0000" />
<use x="150.881" y="149.207" xlink:href="#dot"  stroke="#00ebff" />
<use x="139.583" y="156.014" xlink:href="#dot"  stroke="#ffe100" />
<use x="184.591" y="130.029" xlink:href="#dot"  stroke="#ff0000" />
<use x="151.027" y="149.407" xlink:href="#dot"  stroke="#00ebff" />
<use x="138.56" y="153.717" xlink:href="#dot"  stroke="#ffe100" />
<use x="187.987" y="137.657" xlink:href="#dot"  stroke="#ff0000" />
<use x="151.128" y="149.634" xlink:href="#dot"  stroke="#00ebff" />
<use x="138.037" y="151.257" xlink:href="#dot"  stroke="#ffe100" />
<use x="189.723" y="145.825" xlink:href="#dot"  stroke="#ff0000" />
<use x="151.179" y="149.876" xlink:href="#dot"  stroke="#00ebff" />
<use x="138.037" y="148.743" xlink:href="#dot"  stroke="#ffe100" />
<use x="189.723" y="154.175" xlink:href="#dot"  stroke="#ff0000" />
<use x="151.179" y="150.124" xlink:href="#dot"  stroke="#00ebff" />
<use x="138.56" y="146.283" xlink:href="#dot"  stroke="#ffe100" />
<use x="187.987" y="162.343" xlink:href="#dot"  stroke="#ff0000" />
<use x="151.128" y="150.366" xlink:href="#dot"  stroke="#00ebff" />
<use x="139.583" y="143.986" xlink:href="#dot"  stroke="#ffe100" />
<use x="184.591" y="169.971" xlink:href="#dot"  stroke="#ff0000" />
<use x="151.027" y="150.593" xlink:href="#dot"  stroke="#00ebff" />
<use x="141.061" y="141.951" xlink:href="#dot"  stroke="#ffe100" />
<use x="179.683" y="176.727" xlink:href="#dot"  stroke="#ff0000" />
<use x="150.881" y="150.793" xlink:href="#dot"  stroke="#00ebff" />
<use x="142.93" y="140.269" xlink:href="#dot"  stroke="#ffe100" />
<use x="173.477" y="182.314" xlink:href="#dot"  stroke="#ff0000" />
<use x="150.697" y="150.959" xlink:href="#dot"  stroke="#00ebff" />
<use x="145.108" y="139.011" xlink:href="#dot"  stroke="#ffe100" />
<use x="166.246" y="186.489" xlink:href="#dot"  stroke="#ff0000" />
<use x="150.482" y="151.083" xlink:href="#dot"  stroke="#00ebff" />
<use x="147.499" y="138.234" xlink:href="#dot"  stroke="#ffe100" />
<use x="158.304" y="189.069" xlink:href="#dot"  stroke="#ff0000" />
<use x="150.247" y="151.16" xlink:href="#dot"  stroke="#00ebff" />
<use x="150" y="137.971" xlink:href="#dot"  stroke="#ffe100" />
<use x="150" y="189.942" xlink:href="#dot"  stroke="#ff0000" />
<use x="150" y="151.186" xlink:href="#dot"  stroke="#00ebff" />
<use x="152.501" y="138.234" xlink:href="#dot"  stroke="#ffe100" />
<use x="141.696" y="189.069" xlink:href="#dot"  stroke="#ff0000" />
<use x="149.753" y="151.16" xlink:href="#dot"  stroke="#00ebff" />
<use x="154.892" y="139.011" xlink:href="#dot"  stroke="#ffe100" />
<use x="133.754" y="186.489" xlink:href="#dot"  stroke="#ff0000" />
<use x="149.518" y="151.083" xlink:href="#dot"  stroke="#00ebff" />
<use x="157.07" y="140.269" xlink:href="#dot"  stroke="#ffe100" />
<use x="126.523" y="182.314" xlink:href="#dot"  stroke="#ff0000" />
<use x="149.303" y="150.959" xlink:href="#dot"  stroke="#00ebff" />
<use x="158.939" y="141.951" xlink:href="#dot"  stroke="#ffe100" />
<use x="120.317" y="176.727" xlink:href="#dot"  stroke="#ff0000" />
<use x="149.119" y="150.793" xlink:href="#dot"  stroke="#00ebff" />
<use x="160.417" y="143.986" xlink:href="#dot"  stroke="#ffe100" />
<use x="115.409" y="169.971" xlink:href="#dot"  stroke="#ff0000" />
<use x="148.973" y="150.593" xlink:href="#dot"  stroke="#00ebff" />
<use x="161.44" y="146.283" xlink:href="#dot"  stroke="#ffe100" />
<use x="112.013" y="162.343" xlink:href="#dot"  stroke="#ff0000" />
<use x="148.872" y="150.366" xlink:href="#dot"  stroke="#00ebff" />
<use x="161.963" y="148.743" xlink:href="#dot"  stroke="#ffe100" />
<use x="110.277" y="154.175" xlink:href="#dot"  stroke="#ff0000" />
<use x="148.821" y="150.124" xlink:href="#dot"  stroke="#00ebff" />
<use x="161.963" y="151.257" xlink:href="#dot"  stroke="#ffe100" />
<use x="110.277" y="145.825" xlink:href="#dot"  stroke="#ff0000" />
<use x="148.821" y="149.876" xlink:href="#dot"  stroke="#00ebff" />
<use x="161.44" y="153.717" xlink:href="#dot"  stroke="#ffe100" />
<use x="112.013" y="137.657" xlink:href="#dot"  stroke="#ff0000" />
<use x="148.872" y="149.634" xlink:href="#dot"  stroke="#00ebff" />
<use x="160.417" y="156.014" xlink:href="#dot"  stroke="#ffe100" />
<use x="115.409" y="130.029" xlink:href="#dot"  stroke="#ff0000" />
<use x="148.973" y="149.407" xlink:href="#dot"  stroke="#00ebff" />
<use x="158.939" y="158.049" xlink:href="#dot"  stroke="#ffe100" />
<use x="120.317" y="123.273" xlink:href="#dot"  stroke="#ff0000" />
<use x="149.119" y="149.207" xlink:href="#dot"  stroke="#00ebff" />
<use x="157.07" y="159.731" xlink:href="#dot"  stroke="#ffe100" />
<use x="126.523" y="117.686" xlink:href="#dot"  stroke="#ff0000" />
<use x="149.303" y="149.041" xlink:href="#dot"  stroke="#00ebff" />
<use x="154.892" y="160.989" xlink:href="#dot"  stroke="#ffe100" />
<use x="133.754" y="113.511" xlink:href="#dot"  stroke="#ff0000" />
<use x="149.518" y="148.917" xlink:href="#dot"  stroke="#00ebff" />
<use x="152.501" y="161.766" xlink:href="#dot"  stroke="#ffe100" />
<use x="141.696" y="110.931" xlink:href="#dot"  stroke="#ff0000" />
<use x="149.753" y="148.84" xlink:href="#dot"  stroke="#00ebff" />
<use x="150" y="158.367" xlink:href="#dot"  stroke="#ffe100" />
<use x="150" y="115.628" xlink:href="#dot"  stroke="#ff0000" />
<use x="150" y="150.749" xlink:href="#dot"  stroke="#00ebff" />
<use x="147.834" y="158.082" xlink:href="#dot"  stroke="#ffe100" />
<use x="158.896" y="116.799" xlink:href="#dot"  stroke="#ff0000" />
<use x="149.806" y="150.723" xlink:href="#dot"  stroke="#00ebff" />
<use x="145.816" y="157.246" xlink:href="#dot"  stroke="#ffe100" />
<use x="167.186" y="120.233" xlink:href="#dot"  stroke="#ff0000" />
<use x="149.626" y="150.648" xlink:href="#dot"  stroke="#00ebff" />
<use x="144.083" y="155.917" xlink:href="#dot"  stroke="#ffe100" />
<use x="174.305" y="125.695" xlink:href="#dot"  stroke="#ff0000" />
<use x="149.471" y="150.529" xlink:href="#dot"  stroke="#00ebff" />
<use x="142.754" y="154.184" xlink:href="#dot"  stroke="#ffe100" />
<use x="179.767" y="132.814" xlink:href="#dot"  stroke="#ff0000" />
<use x="149.352" y="150.374" xlink:href="#dot"  stroke="#00ebff" />
<use x="141.918" y="152.166" xlink:href="#dot"  stroke="#ffe100" />
<use x="183.201" y="141.104" xlink:href="#dot"  stroke="#ff0000" />
<use x="149.277" y="150.194" xlink:href="#dot"  stroke="#00ebff" />
<use x="141.633" y="150" xlink:href="#dot"  stroke="#ffe100" />
<use x="184.372" y="150" xlink:href="#dot"  stroke="#ff0000" />
<use x="149.251" y="150" xlink:href="#dot"  stroke="#00ebff" />
<use x="141.918" y="147.834" xlink:href="#dot"  stroke="#ffe100" />
<use x="183.201" y="158.896" xlink:href="#dot"  stroke="#ff0000" />
<use x="149.277" y="149.806" xlink:href="#dot"  stroke="#00ebff" />
<use x="142.754" y="145.816" xlink:href="#dot"  stroke="#ffe100" />
<use x="179.767" y="167.186" xlink:href="#dot"  stroke="#ff0000" />
<use x="149.352" y="149.626" xlink:href="#dot"  stroke="#00ebff" />
<use x="144.083" y="144.083" xlink:href="#dot"  stroke="#ffe100" />
<use x="174.305" y="174.305" xlink:href="#dot"  stroke="#ff0000" />
<use x="149.471" y="149.471" xlink:href="#dot"  stroke="#00ebff" />
<use x="145.816" y="142.754" xlink:href="#dot"  stroke="#ffe100" />
<use x="167.186" y="179.767" xlink:href="#dot"  stroke="#ff0000" />
<use x="149.626" y="149.352" xlink:href="#dot"  stroke="#00ebff" />
<use x="147.834" y="141.918" xlink:href="#dot"  stroke="#ffe100" />
<use x="158.896" y="183.201" xlink:href="#dot"  stroke="#ff0000" />
<use x="149.806" y="149.277" xlink:href="#dot"  stroke="#00ebff" />
<use x="150" y="141.633" xlink:href="#dot"  stroke="#ffe100" />
<use x="150" y="184.372" xlink:href="#dot"  stroke="#ff0000" />
<use x="150" y="149.251" xlink:href="#dot"  stroke="#00ebff" />
<use x="152.166" y="141.918" xlink:href="#dot"  stroke="#ffe100" />
<use x="141.104" y="183.201" xlink:href="#dot"  stroke="#ff0000" />
<use x="150.194" y="149.277" xlink:href="#dot"  stroke="#00ebff" />
<use x="154.184" y="142.754" xlink:href="#dot"  stroke="#ffe100" />
<use x="132.814" y="179.767" xlink:href="#dot"  stroke="#ff0000" />
<use x="150.374" y="149.352" xlink:href="#dot"  stroke="#00ebff" />
<use x="155.917" y="144.083" xlink:href="#dot"  stroke="#ffe100" />
<use x="125.695" y="174.305" xlink:href="#dot"  stroke="#ff0000" />
<use x="150.529" y="149.471" xlink:href="#dot"  stroke="#00ebff" />
<use x="157.246" y="145.816" xlink:href="#dot"  stroke="#ffe100" />
<use x="120.233" y="167.186" xlink:href="#dot"  stroke="#ff0000" />
<use x="150.648" y="149.626" xlink:href="#dot"  stroke="#00ebff" />
<use x="158.082" y="147.834" xlink:href="#dot"  stroke="#ffe100" />
<use x="116.799" y="158.896" xlink:href="#dot"  stroke="#ff0000" />
<use x="150.723" y="149.806" xlink:href="#dot"  stroke="#00ebff" />
<use x="158.367" y="150" xlink:href="#dot"  stroke="#ffe100" />
<use x="115.628" y="150" xlink:href="#dot"  stroke="#ff0000" />
<use x="150.749" y="150" xlink:href="#dot"  stroke="#00ebff" />
<use x="158.082" y="152.166" xlink:href="#dot"  stroke="#ffe100" />
<use x="116.799" y="141.104" xlink:href="#dot"  stroke="#ff0000" />
<use x="150.723" y="150.194" xlink:href="#dot"  stroke="#00ebff" />
<use x="157.246" y="154.184" xlink:href="#dot"  stroke="#ffe100" />
<use x="120.233" y="132.814" xlink:href="#dot"  stroke="#ff0000" />
<use x="150.648" y="150.374" xlink:href="#dot"  stroke="#00ebff" />
<use x="155.917" y="155.917" xlink:href="#dot"  stroke="#ffe100" />
<use x="125.695" y="125.695" xlink:href="#dot"  stroke="#ff0000" />
<use x="150.529" y="150.529" xlink:href="#dot"  stroke="#00ebff" />
<use x="154.184" y="157.246" xlink:href="#dot"  stroke="#ffe100" />
<use x="132.814" y="120.233" xlink:href="#dot"  stroke="#ff0000" />
<use x="150.374" y="150.648" xlink:href="#dot"  stroke="#00ebff" />
<use x="152.166" y="158.082" xlink:href="#dot"  stroke="#ffe100" />
<use x="141.104" y="116.799" xlink:href="#dot"  stroke="#ff0000" />
<use x="150.194" y="150.723" xlink:href="#dot"  stroke="#00ebff" />
<use x="150" y="152.452" xlink:href="#dot"  stroke="#ffe100" />
<use x="150" y="119.445" xlink:href="#dot"  stroke="#ff0000" />
<use x="150" y="149.17" xlink:href="#dot"  stroke="#00ebff" />
<use x="149.161" y="152.304" xlink:href="#dot"  stroke="#ffe100" />
<use x="160.45" y="121.288" xlink:href="#dot"  stroke="#ff0000" />
<use x="150.284" y="149.22" xlink:href="#dot"  stroke="#00ebff" />
<use x="148.424" y="151.878" xlink:href="#dot"  stroke="#ffe100" />
<use x="169.64" y="126.593" xlink:href="#dot"  stroke="#ff0000" />
<use x="150.533" y="149.364" xlink:href="#dot"  stroke="#00ebff" />
<use x="147.877" y="151.226" xlink:href="#dot"  stroke="#ffe100" />
<use x="176.462" y="134.722" xlink:href="#dot"  stroke="#ff0000" />
<use x="150.719" y="149.585" xlink:href="#dot"  stroke="#00ebff" />
<use x="147.586" y="150.426" xlink:href="#dot"  stroke="#ffe100" />
<use x="180.091" y="144.694" xlink:href="#dot"  stroke="#ff0000" />
<use x="150.817" y="149.856" xlink:href="#dot"  stroke="#00ebff" />
<use x="147.586" y="149.574" xlink:href="#dot"  stroke="#ffe100" />
<use x="180.091" y="155.306" xlink:href="#dot"  stroke="#ff0000" />
<use x="150.817" y="150.144" xlink:href="#dot"  stroke="#00ebff" />
<use x="147.877" y="148.774" xlink:href="#dot"  stroke="#ffe100" />
<use x="176.462" y="165.278" xlink:href="#dot"  stroke="#ff0000" />
<use x="150.719" y="150.415" xlink:href="#dot"  stroke="#00ebff" />
<use x="148.424" y="148.122" xlink:href="#dot"  stroke="#ffe100" />
<use x="169.64" y="173.407" xlink:href="#dot"  stroke="#ff0000" />
<use x="150.533" y="150.636" xlink:href="#dot"  stroke="#00ebff" />
<use x="149.161" y="147.696" xlink:href="#dot"  stroke="#ffe100" />
<use x="160.45" y="178.712" xlink:href="#dot"  stroke="#ff0000" />
<use x="150.284" y="150.78" xlink:href="#dot"  stroke="#00ebff" />
<use x="150" y="147.548" xlink:href="#dot"  stroke="#ffe100" />
<use x="150" y="180.555" xlink:href="#dot"  stroke="#ff0000" />
<use x="150" y="150.83" xlink:href="#dot"  stroke="#00ebff" />
<use x="150.839" y="147.696" xlink:href="#dot"  stroke="#ffe100" />
<use x="139.55" y="178.712" xlink:href="#dot"  stroke="#ff0000" />
<use x="149.716" y="150.78" xlink:href="#dot"  stroke="#00ebff" />
<use x="151.576" y="148.122" xlink:href="#dot"  stroke="#ffe100" />
<use x="130.36" y="173.407" xlink:href="#dot"  stroke="#ff0000" />
<use x="149.467" y="150.636" xlink:href="#dot"  stroke="#00ebff" />
<use x="152.123" y="148.774" xlink:href="#dot"  stroke="#ffe100" />
<use x="123.538" y="165.278" xlink:href="#dot"  stroke="#ff0000" />
<use x="149.281" y="150.415" xlink:href="#dot"  stroke="#00ebff" />
<use x="152.414" y="149.574" xlink:href="#dot"  stroke="#ffe100" />
<use x="119.909" y="155.306" xlink:href="#dot"  stroke="#ff0000" />
<use x="149.183" y="150.144" xlink:href="#dot"  stroke="#00ebff" />
<use x="152.414" y="150.426" xlink:href="#dot"  stroke="#ffe100" />
<use x="119.909" y="144.694" xlink:href="#dot"  stroke="#ff0000" />
<use x="149.183" y="149.856" xlink:href="#dot"  stroke="#00ebff" />
<use x="152.123" y="151.226" xlink:href="#dot"  stroke="#ffe100" />
<use x="123.538" y="134.722" xlink:href="#dot"  stroke="#ff0000" />
<use x="149.281" y="149.585" xlink:href="#dot"  stroke="#00ebff" />
<use x="151.576" y="151.878" xlink:href="#dot"  stroke="#ffe100" />
<use x="130.36" y="126.593" xlink:href="#dot"  stroke="#ff0000" />
<use x="149.467" y="149.364" xlink:href="#dot"  stroke="#00ebff" />
<use x="150.839" y="152.304" xlink:href="#dot"  stroke="#ffe100" />
<use x="139.55" y="121.288" xlink:href="#dot"  stroke="#ff0000" />
<use x="149.716" y="149.22" xlink:href="#dot"  stroke="#00ebff" />
<use x="150" y="148.566" xlink:href="#dot"  stroke="#ffe100" />
<use x="150" y="126.021" xlink:href="#dot"  stroke="#ff0000" />
<use x="150" y="147.764" xlink:href="#dot"  stroke="#00ebff" />
<use x="150.717" y="148.758" xlink:href="#dot"  stroke="#ffe100" />
<use x="161.989" y="129.234" xlink:href="#dot"  stroke="#ff0000" />
<use x="151.118" y="148.063" xlink:href="#dot"  stroke="#00ebff" />
<use x="151.242" y="149.283" xlink:href="#dot"  stroke="#ffe100" />
<use x="170.766" y="138.011" xlink:href="#dot"  stroke="#ff0000" />
<use x="151.937" y="148.882" xlink:href="#dot"  stroke="#00ebff" />
<use x="151.434" y="150" xlink:href="#dot"  stroke="#ffe100" />
<use x="173.979" y="150" xlink:href="#dot"  stroke="#ff0000" />
<use x="152.236" y="150" xlink:href="#dot"  stroke="#00ebff" />
<use x="151.242" y="150.717" xlink:href="#dot"  stroke="#ffe100" />
<use x="170.766" y="161.989" xlink:href="#dot"  stroke="#ff0000" />
<use x="151.937" y="151.118" xlink:href="#dot"  stroke="#00ebff" />
<use x="150.717" y="151.242" xlink:href="#dot"  stroke="#ffe100" />
<use x="161.989" y="170.766" xlink:href="#dot"  stroke="#ff0000" />
<use x="151.118" y="151.937" xlink:href="#dot"  stroke="#00ebff" />
<use x="150" y="151.434" xlink:href="#dot"  stroke="#ffe100" />
<use x="150" y="173.979" xlink:href="#dot"  stroke="#ff0000" />
<use x="150" y="152.236" xlink:href="#dot"  stroke="#00ebff" />
<use x="149.283" y="151.242" xlink:href="#dot"  stroke="#ffe100" />
<use x="138.011" y="170.766" xlink:href="#dot"  stroke="#ff0000" />
<use x="148.882" y="151.937" xlink:href="#dot"  stroke="#00ebff" />
<use x="148.758" y="150.717" xlink:href="#dot"  stroke="#ffe100" />
<use x="129.234" y="161.989" xlink:href="#dot"  stroke="#ff0000" />
<use x="148.063" y="151.118" xlink:href="#dot"  stroke="#00ebff" />
<use x="148.566" y="150" xlink:href="#dot"  stroke="#ffe100" />
<use x="126.021" y="150" xlink:href="#dot"  stroke="#ff0000" />
<use x="147.764" y="150" xlink:href="#dot"  stroke="#00ebff" />
<use x="148.758" y="149.283" xlink:href="#dot"  stroke="#ffe100" />
<use x="129.234" y="138.011" xlink:href="#dot"  stroke="#ff0000" />
<use x="148.063" y="148.882" xlink:href="#dot"  stroke="#00ebff" />
<use x="149.283" y="148.758" xlink:href="#dot"  stroke="#ffe100" />
<use x="138.011" y="129.234" xlink:href="#dot"  stroke="#ff0000" />
<use x="148.882" y="148.063" xlink:href="#dot"  stroke="#00ebff" />
<use x="150" y="148.096" xlink:href="#dot"  stroke="#ffe100" />
<use x="150" y="136.646" xlink:href="#dot"  stroke="#ff0000" />
<use x="150" y="148.153" xlink:href="#dot"  stroke="#00ebff" />
<use x="151.649" y="149.048" xlink:href="#dot"  stroke="#ffe100" />
<use x="161.565" y="143.323" xlink:href="#dot"  stroke="#ff0000" />
<use x="151.6" y="149.076" xlink:href="#dot"  stroke="#00ebff" />
<use x="151.649" y="150.952" xlink:href="#dot"  stroke="#ffe100" />
<use x="161.565" y="156.677" xlink:href="#dot"  stroke="#ff0000" />
<use x="151.6" y="150.924" xlink:href="#dot"  stroke="#00ebff" />
<use x="150" y="151.904" xlink:href="#dot"  stroke="#ffe100" />
<use x="150" y="163.354" xlink:href="#dot"  stroke="#ff0000" />
<use x="150" y="151.847" xlink:href="#dot"  stroke="#00ebff" />
<use x="148.351" y="150.952" xlink:href="#dot"  stroke="#ffe100" />
<use x="138.435" y="156.677" xlink:href="#dot"  stroke="#ff0000" />
<use x="148.4" y="150.924" xlink:href="#dot"  stroke="#00ebff" />
<use x="148.351" y="149.048" xlink:href="#dot"  stroke="#ffe100" />
<use x="138.435" y="143.323" xlink:href="#dot"  stroke="#ff0000" />
<use x="148.4" y="149.076" xlink:href="#dot"  stroke="#00ebff" />
</svg>
