<?xml version="1.0" standalone="no"?>
<svg width="300px" height="300px" version="1.1" xmlns="http://www.w3.org/2000/svg" xmlns:xlink="http://www.w3.org/1999/xlink">
<rect x="0" y="0" width="300" height="300"  fill="#000000" />
<defs>
<g id="dot">
<line x1="1" y1="1" x2="0" y2="0"  />
</g>
<g id="cross">
<line x1="-3" y1="0" x2="3" y2="0"  />
<line x1="0" y1="-3" x2="0" y2="3"  />
</g>
<g id="square">
<line x1="-3" y1="-3" x2="-3" y2="3"  />
<line x1="-3" y1="3" x2="3" y2="3"  />
<line x1="3" y1="3" x2="3" y2="-3"  />
<line x1="3" y1="-3" x2="-3" y2="-3"  />
</g>
<g id="round">
<ellipse cx="0" cy="0" rx="3" ry="3"  fill="none" /></g>
<g id="triangle">
<line x1="0" y1="-3" x2="-3" y2="3"  />
<line x1="-3" y1="3" x2="3" y2="3"  />
<line x1="0" y1="-3" x2="3" y2="3"  />
</g>
</defs>
<polygon fill="none" stroke="#ffffff" points="30.9524,269.048 30.9524,30.9524 269.048,30.9524 269.048,269.048 " />
<text style="font-size:12;text-align:center;text-anchor:middle;" x="150" y="298.262" fill="#ffffff">Saggital distance (um)</text>
<use x="70.6349" y="30.9524" xlink:href="#cross"  stroke="#ffffff" />
<use x="70.6349" y="269.048" xlink:href="#cross"  stroke="#ffffff" />
<text style="font-size:12;text-align:center;text-anchor:middle;" x="70.6349" y="287.048" fill="#ffffff">-29.9</text>
<use x="150" y="30.9524" xlink:href="#cross"  stroke="#ffffff" />
<use x="150" y="269.048" xlink:href="#cross"  stroke="#ffffff" />
<text style="font-size:12;text-align:center;text-anchor:middle;" x="150" y="287.048" fill="#ffffff">0</text>
<use x="229.365" y="30.9524" xlink:href="#cross"  stroke="#ffffff" />
<use x="229.365" y="269.048" xlink:href="#cross"  stroke="#ffffff" />
<text style="font-size:12;text-align:center;text-anchor:middle;" x="229.365" y="287.048" fill="#ffffff">29.9</text>
<text style="font-size:12;text-align:center;text-anchor:middle;" x="7.7381" y="156" transform="rotate(-90,7.7381,150)" fill="#ffffff">Tangential distance (um)</text>
<use x="269.048" y="237.246" xlink:href="#cross"  stroke="#ffffff" />
<use x="30.9524" y="237.246" xlink:href="#cross"  stroke="#ffffff" />
<text style="font-size:12;text-align:right;text-anchor:end;" x="24.9524" y="243.246" fill="#ffffff">-29.9</text>
<use x="269.048" y="157.88" xlink:href="#cross"  stroke="#ffffff" />
<use x="30.9524" y="157.88" xlink:href="#cross"  stroke="#ffffff" />
<text style="font-size:12;text-align:right;text-anchor:end;" x="24.9524" y="163.88" fill="#ffffff">0</text>
<use x="269.048" y="78.5154" xlink:href="#cross"  stroke="#ffffff" />
<use x="30.9524" y="78.5154" xlink:href="#cross"  stroke="#ffffff" />
<text style="font-size:12;text-align:right;text-anchor:end;" x="24.9524" y="84.5154" fill="#ffffff">29.9</text>
<use x="164.722" y="150.354" xlink:href="#dot"  stroke="#ffe100" />
<use x="182.029" y="160.809" xlink:href="#dot"  stroke="#ff0000" />
<use x="165.742" y="154.266" xlink:href="#dot"  stroke="#00ebff" />
<use x="158.681" y="147.949" xlink:href="#dot"  stroke="#ffe100" />
<use x="171.712" y="159.434" xlink:href="#dot"  stroke="#ff0000" />
<use x="159.416" y="151.573" xlink:href="#dot"  stroke="#00ebff" />
<use x="154.903" y="146.229" xlink:href="#dot"  stroke="#ffe100" />
<use x="163.643" y="158.521" xlink:href="#dot"  stroke="#ff0000" />
<use x="155.304" y="149.466" xlink:href="#dot"  stroke="#00ebff" />
<use x="152.242" y="145.238" xlink:href="#dot"  stroke="#ffe100" />
<use x="156.633" y="158.046" xlink:href="#dot"  stroke="#ff0000" />
<use x="152.402" y="148.167" xlink:href="#dot"  stroke="#00ebff" />
<use x="150" y="144.92" xlink:href="#dot"  stroke="#ffe100" />
<use x="150" y="157.904" xlink:href="#dot"  stroke="#ff0000" />
<use x="150" y="147.733" xlink:href="#dot"  stroke="#00ebff" />
<use x="147.758" y="145.238" xlink:href="#dot"  stroke="#ffe100" />
<use x="143.367" y="158.046" xlink:href="#dot"  stroke="#ff0000" />
<use x="147.598" y="148.167" xlink:href="#dot"  stroke="#00ebff" />
<use x="145.097" y="146.229" xlink:href="#dot"  stroke="#ffe100" />
<use x="136.357" y="158.521" xlink:href="#dot"  stroke="#ff0000" />
<use x="144.696" y="149.466" xlink:href="#dot"  stroke="#00ebff" />
<use x="141.319" y="147.949" xlink:href="#dot"  stroke="#ffe100" />
<use x="128.288" y="159.434" xlink:href="#dot"  stroke="#ff0000" />
<use x="140.584" y="151.573" xlink:href="#dot"  stroke="#00ebff" />
<use x="135.278" y="150.354" xlink:href="#dot"  stroke="#ffe100" />
<use x="117.971" y="160.809" xlink:href="#dot"  stroke="#ff0000" />
<use x="134.258" y="154.266" xlink:href="#dot"  stroke="#00ebff" />
<use x="231.889" y="154.94" xlink:href="#dot"  stroke="#ffe100" />
<use x="268.844" y="150.922" xlink:href="#dot"  stroke="#ff0000" />
<use x="225.384" y="166.332" xlink:href="#dot"  stroke="#00ebff" />
<use x="210.7" y="157.72" xlink:href="#dot"  stroke="#ffe100" />
<use x="240.769" y="155.618" xlink:href="#dot"  stroke="#ff0000" />
<use x="211.372" y="169.411" xlink:href="#dot"  stroke="#00ebff" />
<use x="189.418" y="158.698" xlink:href="#dot"  stroke="#ffe100" />
<use x="214.379" y="158.26" xlink:href="#dot"  stroke="#ff0000" />
<use x="192.516" y="170.695" xlink:href="#dot"  stroke="#00ebff" />
<use x="173.933" y="158.12" xlink:href="#dot"  stroke="#ffe100" />
<use x="194.612" y="159.219" xlink:href="#dot"  stroke="#ff0000" />
<use x="177.147" y="170.081" xlink:href="#dot"  stroke="#00ebff" />
<use x="164.231" y="156.921" xlink:href="#dot"  stroke="#ffe100" />
<use x="180.909" y="159.422" xlink:href="#dot"  stroke="#ff0000" />
<use x="166.665" y="168.507" xlink:href="#dot"  stroke="#00ebff" />
<use x="158.517" y="155.783" xlink:href="#dot"  stroke="#ffe100" />
<use x="171.194" y="159.486" xlink:href="#dot"  stroke="#ff0000" />
<use x="160.03" y="166.803" xlink:href="#dot"  stroke="#00ebff" />
<use x="154.969" y="154.993" xlink:href="#dot"  stroke="#ffe100" />
<use x="163.53" y="159.622" xlink:href="#dot"  stroke="#ff0000" />
<use x="155.753" y="165.441" xlink:href="#dot"  stroke="#00ebff" />
<use x="152.343" y="154.571" xlink:href="#dot"  stroke="#ffe100" />
<use x="156.662" y="159.784" xlink:href="#dot"  stroke="#ff0000" />
<use x="152.653" y="164.603" xlink:href="#dot"  stroke="#00ebff" />
<use x="150" y="154.444" xlink:href="#dot"  stroke="#ffe100" />
<use x="150" y="159.856" xlink:href="#dot"  stroke="#ff0000" />
<use x="150" y="164.324" xlink:href="#dot"  stroke="#00ebff" />
<use x="147.657" y="154.571" xlink:href="#dot"  stroke="#ffe100" />
<use x="143.338" y="159.784" xlink:href="#dot"  stroke="#ff0000" />
<use x="147.347" y="164.603" xlink:href="#dot"  stroke="#00ebff" />
<use x="145.031" y="154.993" xlink:href="#dot"  stroke="#ffe100" />
<use x="136.47" y="159.622" xlink:href="#dot"  stroke="#ff0000" />
<use x="144.247" y="165.441" xlink:href="#dot"  stroke="#00ebff" />
<use x="141.483" y="155.783" xlink:href="#dot"  stroke="#ffe100" />
<use x="128.806" y="159.486" xlink:href="#dot"  stroke="#ff0000" />
<use x="139.97" y="166.803" xlink:href="#dot"  stroke="#00ebff" />
<use x="135.769" y="156.921" xlink:href="#dot"  stroke="#ffe100" />
<use x="119.091" y="159.422" xlink:href="#dot"  stroke="#ff0000" />
<use x="133.335" y="168.507" xlink:href="#dot"  stroke="#00ebff" />
<use x="126.067" y="158.12" xlink:href="#dot"  stroke="#ffe100" />
<use x="105.388" y="159.219" xlink:href="#dot"  stroke="#ff0000" />
<use x="122.853" y="170.081" xlink:href="#dot"  stroke="#00ebff" />
<use x="110.582" y="158.698" xlink:href="#dot"  stroke="#ffe100" />
<use x="85.6212" y="158.26" xlink:href="#dot"  stroke="#ff0000" />
<use x="107.484" y="170.695" xlink:href="#dot"  stroke="#00ebff" />
<use x="89.3" y="157.72" xlink:href="#dot"  stroke="#ffe100" />
<use x="59.2307" y="155.618" xlink:href="#dot"  stroke="#ff0000" />
<use x="88.6281" y="169.411" xlink:href="#dot"  stroke="#00ebff" />
<use x="68.1112" y="154.94" xlink:href="#dot"  stroke="#ffe100" />
<use x="31.1559" y="150.922" xlink:href="#dot"  stroke="#ff0000" />
<use x="74.6162" y="166.332" xlink:href="#dot"  stroke="#00ebff" />
<use x="211.846" y="155.077" xlink:href="#dot"  stroke="#ffe100" />
<use x="240.561" y="145.246" xlink:href="#dot"  stroke="#ff0000" />
<use x="215.462" y="173.247" xlink:href="#dot"  stroke="#00ebff" />
<use x="189.922" y="157.845" xlink:href="#dot"  stroke="#ffe100" />
<use x="213.92" y="150.067" xlink:href="#dot"  stroke="#ff0000" />
<use x="195.134" y="175.629" xlink:href="#dot"  stroke="#00ebff" />
<use x="174.056" y="159.276" xlink:href="#dot"  stroke="#ffe100" />
<use x="194.125" y="153.266" xlink:href="#dot"  stroke="#ff0000" />
<use x="178.602" y="176.703" xlink:href="#dot"  stroke="#00ebff" />
<use x="164.358" y="159.738" xlink:href="#dot"  stroke="#ffe100" />
<use x="180.696" y="155.276" xlink:href="#dot"  stroke="#ff0000" />
<use x="167.52" y="176.638" xlink:href="#dot"  stroke="#00ebff" />
<use x="158.786" y="159.822" xlink:href="#dot"  stroke="#ffe100" />
<use x="171.301" y="156.659" xlink:href="#dot"  stroke="#ff0000" />
<use x="160.629" y="176.083" xlink:href="#dot"  stroke="#00ebff" />
<use x="155.299" y="159.854" xlink:href="#dot"  stroke="#ffe100" />
<use x="163.798" y="157.681" xlink:href="#dot"  stroke="#ff0000" />
<use x="156.193" y="175.506" xlink:href="#dot"  stroke="#00ebff" />
<use x="152.568" y="159.904" xlink:href="#dot"  stroke="#ffe100" />
<use x="156.87" y="158.352" xlink:href="#dot"  stroke="#ff0000" />
<use x="152.9" y="175.122" xlink:href="#dot"  stroke="#00ebff" />
<use x="150" y="159.93" xlink:href="#dot"  stroke="#ffe100" />
<use x="150" y="158.59" xlink:href="#dot"  stroke="#ff0000" />
<use x="150" y="174.992" xlink:href="#dot"  stroke="#00ebff" />
<use x="147.432" y="159.904" xlink:href="#dot"  stroke="#ffe100" />
<use x="143.13" y="158.352" xlink:href="#dot"  stroke="#ff0000" />
<use x="147.1" y="175.122" xlink:href="#dot"  stroke="#00ebff" />
<use x="144.701" y="159.854" xlink:href="#dot"  stroke="#ffe100" />
<use x="136.202" y="157.681" xlink:href="#dot"  stroke="#ff0000" />
<use x="143.807" y="175.506" xlink:href="#dot"  stroke="#00ebff" />
<use x="141.214" y="159.822" xlink:href="#dot"  stroke="#ffe100" />
<use x="128.699" y="156.659" xlink:href="#dot"  stroke="#ff0000" />
<use x="139.371" y="176.083" xlink:href="#dot"  stroke="#00ebff" />
<use x="135.642" y="159.738" xlink:href="#dot"  stroke="#ffe100" />
<use x="119.304" y="155.276" xlink:href="#dot"  stroke="#ff0000" />
<use x="132.48" y="176.638" xlink:href="#dot"  stroke="#00ebff" />
<use x="125.944" y="159.276" xlink:href="#dot"  stroke="#ffe100" />
<use x="105.875" y="153.266" xlink:href="#dot"  stroke="#ff0000" />
<use x="121.398" y="176.703" xlink:href="#dot"  stroke="#00ebff" />
<use x="110.078" y="157.845" xlink:href="#dot"  stroke="#ffe100" />
<use x="86.0797" y="150.067" xlink:href="#dot"  stroke="#ff0000" />
<use x="104.866" y="175.629" xlink:href="#dot"  stroke="#00ebff" />
<use x="88.1536" y="155.077" xlink:href="#dot"  stroke="#ffe100" />
<use x="59.4394" y="145.246" xlink:href="#dot"  stroke="#ff0000" />
<use x="84.5381" y="173.247" xlink:href="#dot"  stroke="#00ebff" />
<use x="212.693" y="150.703" xlink:href="#dot"  stroke="#ffe100" />
<use x="240.755" y="133.767" xlink:href="#dot"  stroke="#ff0000" />
<use x="217.469" y="173.796" xlink:href="#dot"  stroke="#00ebff" />
<use x="191.481" y="154.415" xlink:href="#dot"  stroke="#ffe100" />
<use x="214.917" y="139.964" xlink:href="#dot"  stroke="#ff0000" />
<use x="197.813" y="176.332" xlink:href="#dot"  stroke="#00ebff" />
<use x="175.236" y="157.715" xlink:href="#dot"  stroke="#ffe100" />
<use x="194.927" y="145.233" xlink:href="#dot"  stroke="#ff0000" />
<use x="180.558" y="179.045" xlink:href="#dot"  stroke="#00ebff" />
<use x="165.214" y="159.775" xlink:href="#dot"  stroke="#ffe100" />
<use x="181.345" y="148.938" xlink:href="#dot"  stroke="#ff0000" />
<use x="168.796" y="180.577" xlink:href="#dot"  stroke="#00ebff" />
<use x="159.47" y="160.971" xlink:href="#dot"  stroke="#ffe100" />
<use x="171.9" y="151.481" xlink:href="#dot"  stroke="#ff0000" />
<use x="161.475" y="181.204" xlink:href="#dot"  stroke="#00ebff" />
<use x="155.829" y="161.689" xlink:href="#dot"  stroke="#ffe100" />
<use x="164.309" y="153.215" xlink:href="#dot"  stroke="#ff0000" />
<use x="156.748" y="181.388" xlink:href="#dot"  stroke="#00ebff" />
<use x="152.869" y="162.103" xlink:href="#dot"  stroke="#ffe100" />
<use x="157.173" y="154.264" xlink:href="#dot"  stroke="#ff0000" />
<use x="153.185" y="181.42" xlink:href="#dot"  stroke="#00ebff" />
<use x="150" y="162.243" xlink:href="#dot"  stroke="#ffe100" />
<use x="150" y="154.62" xlink:href="#dot"  stroke="#ff0000" />
<use x="150" y="181.422" xlink:href="#dot"  stroke="#00ebff" />
<use x="147.131" y="162.103" xlink:href="#dot"  stroke="#ffe100" />
<use x="142.827" y="154.264" xlink:href="#dot"  stroke="#ff0000" />
<use x="146.815" y="181.42" xlink:href="#dot"  stroke="#00ebff" />
<use x="144.171" y="161.689" xlink:href="#dot"  stroke="#ffe100" />
<use x="135.691" y="153.215" xlink:href="#dot"  stroke="#ff0000" />
<use x="143.252" y="181.388" xlink:href="#dot"  stroke="#00ebff" />
<use x="140.53" y="160.971" xlink:href="#dot"  stroke="#ffe100" />
<use x="128.1" y="151.481" xlink:href="#dot"  stroke="#ff0000" />
<use x="138.525" y="181.204" xlink:href="#dot"  stroke="#00ebff" />
<use x="134.786" y="159.775" xlink:href="#dot"  stroke="#ffe100" />
<use x="118.655" y="148.938" xlink:href="#dot"  stroke="#ff0000" />
<use x="131.204" y="180.577" xlink:href="#dot"  stroke="#00ebff" />
<use x="124.764" y="157.715" xlink:href="#dot"  stroke="#ffe100" />
<use x="105.073" y="145.233" xlink:href="#dot"  stroke="#ff0000" />
<use x="119.442" y="179.045" xlink:href="#dot"  stroke="#00ebff" />
<use x="108.519" y="154.415" xlink:href="#dot"  stroke="#ffe100" />
<use x="85.0826" y="139.964" xlink:href="#dot"  stroke="#ff0000" />
<use x="102.187" y="176.332" xlink:href="#dot"  stroke="#00ebff" />
<use x="87.3065" y="150.703" xlink:href="#dot"  stroke="#ffe100" />
<use x="59.245" y="133.767" xlink:href="#dot"  stroke="#ff0000" />
<use x="82.5305" y="173.796" xlink:href="#dot"  stroke="#00ebff" />
<use x="193.668" y="149.861" xlink:href="#dot"  stroke="#ffe100" />
<use x="216.861" y="129.015" xlink:href="#dot"  stroke="#ff0000" />
<use x="200.288" y="175.184" xlink:href="#dot"  stroke="#00ebff" />
<use x="177.415" y="154.145" xlink:href="#dot"  stroke="#ffe100" />
<use x="196.859" y="135.545" xlink:href="#dot"  stroke="#ff0000" />
<use x="183.185" y="178.478" xlink:href="#dot"  stroke="#00ebff" />
<use x="166.763" y="157.572" xlink:href="#dot"  stroke="#ffe100" />
<use x="182.731" y="140.717" xlink:href="#dot"  stroke="#ff0000" />
<use x="170.671" y="181.386" xlink:href="#dot"  stroke="#00ebff" />
<use x="160.501" y="159.774" xlink:href="#dot"  stroke="#ffe100" />
<use x="172.852" y="144.298" xlink:href="#dot"  stroke="#ff0000" />
<use x="162.671" y="183.162" xlink:href="#dot"  stroke="#00ebff" />
<use x="156.486" y="161.088" xlink:href="#dot"  stroke="#ffe100" />
<use x="164.94" y="146.633" xlink:href="#dot"  stroke="#ff0000" />
<use x="157.459" y="184.09" xlink:href="#dot"  stroke="#00ebff" />
<use x="153.198" y="161.795" xlink:href="#dot"  stroke="#ffe100" />
<use x="157.499" y="147.973" xlink:href="#dot"  stroke="#ff0000" />
<use x="153.522" y="184.517" xlink:href="#dot"  stroke="#00ebff" />
<use x="150" y="162.021" xlink:href="#dot"  stroke="#ffe100" />
<use x="150" y="148.414" xlink:href="#dot"  stroke="#ff0000" />
<use x="150" y="184.639" xlink:href="#dot"  stroke="#00ebff" />
<use x="146.802" y="161.795" xlink:href="#dot"  stroke="#ffe100" />
<use x="142.501" y="147.973" xlink:href="#dot"  stroke="#ff0000" />
<use x="146.478" y="184.517" xlink:href="#dot"  stroke="#00ebff" />
<use x="143.514" y="161.088" xlink:href="#dot"  stroke="#ffe100" />
<use x="135.06" y="146.633" xlink:href="#dot"  stroke="#ff0000" />
<use x="142.541" y="184.09" xlink:href="#dot"  stroke="#00ebff" />
<use x="139.499" y="159.774" xlink:href="#dot"  stroke="#ffe100" />
<use x="127.148" y="144.298" xlink:href="#dot"  stroke="#ff0000" />
<use x="137.329" y="183.162" xlink:href="#dot"  stroke="#00ebff" />
<use x="133.237" y="157.572" xlink:href="#dot"  stroke="#ffe100" />
<use x="117.269" y="140.717" xlink:href="#dot"  stroke="#ff0000" />
<use x="129.329" y="181.386" xlink:href="#dot"  stroke="#00ebff" />
<use x="122.585" y="154.145" xlink:href="#dot"  stroke="#ffe100" />
<use x="103.141" y="135.545" xlink:href="#dot"  stroke="#ff0000" />
<use x="116.815" y="178.478" xlink:href="#dot"  stroke="#00ebff" />
<use x="106.332" y="149.861" xlink:href="#dot"  stroke="#ffe100" />
<use x="83.1394" y="129.015" xlink:href="#dot"  stroke="#ff0000" />
<use x="99.7118" y="175.184" xlink:href="#dot"  stroke="#00ebff" />
<use x="180.076" y="149.787" xlink:href="#dot"  stroke="#ffe100" />
<use x="199.404" y="125.174" xlink:href="#dot"  stroke="#ff0000" />
<use x="185.938" y="176.817" xlink:href="#dot"  stroke="#00ebff" />
<use x="168.887" y="153.753" xlink:href="#dot"  stroke="#ffe100" />
<use x="184.706" y="131.086" xlink:href="#dot"  stroke="#ff0000" />
<use x="173.086" y="180.041" xlink:href="#dot"  stroke="#00ebff" />
<use x="161.845" y="156.752" xlink:href="#dot"  stroke="#ffe100" />
<use x="174.091" y="135.522" xlink:href="#dot"  stroke="#ff0000" />
<use x="164.259" y="182.703" xlink:href="#dot"  stroke="#00ebff" />
<use x="157.245" y="158.6" xlink:href="#dot"  stroke="#ffe100" />
<use x="165.644" y="138.399" xlink:href="#dot"  stroke="#ff0000" />
<use x="158.362" y="184.326" xlink:href="#dot"  stroke="#00ebff" />
<use x="153.541" y="159.57" xlink:href="#dot"  stroke="#ffe100" />
<use x="157.821" y="139.998" xlink:href="#dot"  stroke="#ff0000" />
<use x="153.927" y="185.141" xlink:href="#dot"  stroke="#00ebff" />
<use x="150" y="159.872" xlink:href="#dot"  stroke="#ffe100" />
<use x="150" y="140.512" xlink:href="#dot"  stroke="#ff0000" />
<use x="150" y="185.384" xlink:href="#dot"  stroke="#00ebff" />
<use x="146.459" y="159.57" xlink:href="#dot"  stroke="#ffe100" />
<use x="142.179" y="139.998" xlink:href="#dot"  stroke="#ff0000" />
<use x="146.073" y="185.141" xlink:href="#dot"  stroke="#00ebff" />
<use x="142.755" y="158.6" xlink:href="#dot"  stroke="#ffe100" />
<use x="134.356" y="138.399" xlink:href="#dot"  stroke="#ff0000" />
<use x="141.638" y="184.326" xlink:href="#dot"  stroke="#00ebff" />
<use x="138.155" y="156.752" xlink:href="#dot"  stroke="#ffe100" />
<use x="125.909" y="135.522" xlink:href="#dot"  stroke="#ff0000" />
<use x="135.741" y="182.703" xlink:href="#dot"  stroke="#00ebff" />
<use x="131.113" y="153.753" xlink:href="#dot"  stroke="#ffe100" />
<use x="115.294" y="131.086" xlink:href="#dot"  stroke="#ff0000" />
<use x="126.914" y="180.041" xlink:href="#dot"  stroke="#00ebff" />
<use x="119.924" y="149.787" xlink:href="#dot"  stroke="#ffe100" />
<use x="100.596" y="125.174" xlink:href="#dot"  stroke="#ff0000" />
<use x="114.062" y="176.817" xlink:href="#dot"  stroke="#00ebff" />
<use x="181.532" y="148.171" xlink:href="#dot"  stroke="#ffe100" />
<use x="201.005" y="117.264" xlink:href="#dot"  stroke="#ff0000" />
<use x="171.146" y="149.812" xlink:href="#dot"  stroke="#ffe100" />
<use x="186.873" y="121.344" xlink:href="#dot"  stroke="#ff0000" />
<use x="175.466" y="178.502" xlink:href="#dot"  stroke="#00ebff" />
<use x="163.429" y="152.748" xlink:href="#dot"  stroke="#ffe100" />
<use x="175.551" y="125.9" xlink:href="#dot"  stroke="#ff0000" />
<use x="166.128" y="180.9" xlink:href="#dot"  stroke="#00ebff" />
<use x="158.119" y="154.9" xlink:href="#dot"  stroke="#ffe100" />
<use x="166.428" y="129.136" xlink:href="#dot"  stroke="#ff0000" />
<use x="159.468" y="182.882" xlink:href="#dot"  stroke="#00ebff" />
<use x="153.912" y="156.08" xlink:href="#dot"  stroke="#ffe100" />
<use x="158.149" y="130.958" xlink:href="#dot"  stroke="#ff0000" />
<use x="154.418" y="184" xlink:href="#dot"  stroke="#00ebff" />
<use x="150" y="156.448" xlink:href="#dot"  stroke="#ffe100" />
<use x="150" y="131.539" xlink:href="#dot"  stroke="#ff0000" />
<use x="150" y="184.349" xlink:href="#dot"  stroke="#00ebff" />
<use x="146.088" y="156.08" xlink:href="#dot"  stroke="#ffe100" />
<use x="141.851" y="130.958" xlink:href="#dot"  stroke="#ff0000" />
<use x="145.582" y="184" xlink:href="#dot"  stroke="#00ebff" />
<use x="141.881" y="154.9" xlink:href="#dot"  stroke="#ffe100" />
<use x="133.572" y="129.136" xlink:href="#dot"  stroke="#ff0000" />
<use x="140.532" y="182.882" xlink:href="#dot"  stroke="#00ebff" />
<use x="136.571" y="152.748" xlink:href="#dot"  stroke="#ffe100" />
<use x="124.449" y="125.9" xlink:href="#dot"  stroke="#ff0000" />
<use x="133.872" y="180.9" xlink:href="#dot"  stroke="#00ebff" />
<use x="128.854" y="149.812" xlink:href="#dot"  stroke="#ffe100" />
<use x="113.127" y="121.344" xlink:href="#dot"  stroke="#ff0000" />
<use x="124.534" y="178.502" xlink:href="#dot"  stroke="#00ebff" />
<use x="118.468" y="148.171" xlink:href="#dot"  stroke="#ffe100" />
<use x="98.9952" y="117.264" xlink:href="#dot"  stroke="#ff0000" />
<use x="164.829" y="149.946" xlink:href="#dot"  stroke="#ffe100" />
<use x="176.877" y="117.398" xlink:href="#dot"  stroke="#ff0000" />
<use x="167.662" y="180.48" xlink:href="#dot"  stroke="#00ebff" />
<use x="159.024" y="151.329" xlink:href="#dot"  stroke="#ffe100" />
<use x="167.241" y="120.07" xlink:href="#dot"  stroke="#ff0000" />
<use x="160.611" y="181.388" xlink:href="#dot"  stroke="#00ebff" />
<use x="154.31" y="152.374" xlink:href="#dot"  stroke="#ffe100" />
<use x="158.492" y="121.831" xlink:href="#dot"  stroke="#ff0000" />
<use x="154.963" y="182.318" xlink:href="#dot"  stroke="#00ebff" />
<use x="150" y="152.729" xlink:href="#dot"  stroke="#ffe100" />
<use x="150" y="122.417" xlink:href="#dot"  stroke="#ff0000" />
<use x="150" y="182.655" xlink:href="#dot"  stroke="#00ebff" />
<use x="145.69" y="152.374" xlink:href="#dot"  stroke="#ffe100" />
<use x="141.508" y="121.831" xlink:href="#dot"  stroke="#ff0000" />
<use x="145.037" y="182.318" xlink:href="#dot"  stroke="#00ebff" />
<use x="140.976" y="151.329" xlink:href="#dot"  stroke="#ffe100" />
<use x="132.759" y="120.07" xlink:href="#dot"  stroke="#ff0000" />
<use x="139.389" y="181.388" xlink:href="#dot"  stroke="#00ebff" />
<use x="135.171" y="149.946" xlink:href="#dot"  stroke="#ffe100" />
<use x="123.123" y="117.398" xlink:href="#dot"  stroke="#ff0000" />
<use x="132.338" y="180.48" xlink:href="#dot"  stroke="#00ebff" />
<use x="159.436" y="151.636" xlink:href="#dot"  stroke="#ffe100" />
<use x="167.633" y="114.616" xlink:href="#dot"  stroke="#ff0000" />
<use x="161.052" y="184.483" xlink:href="#dot"  stroke="#00ebff" />
<use x="154.584" y="151.104" xlink:href="#dot"  stroke="#ffe100" />
<use x="158.733" y="115.036" xlink:href="#dot"  stroke="#ff0000" />
<use x="155.33" y="183.373" xlink:href="#dot"  stroke="#00ebff" />
<use x="150" y="151.08" xlink:href="#dot"  stroke="#ffe100" />
<use x="150" y="115.308" xlink:href="#dot"  stroke="#ff0000" />
<use x="150" y="183.217" xlink:href="#dot"  stroke="#00ebff" />
<use x="145.416" y="151.104" xlink:href="#dot"  stroke="#ffe100" />
<use x="141.267" y="115.036" xlink:href="#dot"  stroke="#ff0000" />
<use x="144.67" y="183.373" xlink:href="#dot"  stroke="#00ebff" />
<use x="140.564" y="151.636" xlink:href="#dot"  stroke="#ffe100" />
<use x="132.367" y="114.616" xlink:href="#dot"  stroke="#ff0000" />
<use x="138.948" y="184.483" xlink:href="#dot"  stroke="#00ebff" />
</svg>
