<?xml version="1.0" standalone="no"?>
<svg width="640px" height="480px" version="1.1" xmlns="http://www.w3.org/2000/svg" xmlns:xlink="http://www.w3.org/1999/xlink">
<rect x="0" y="0" width="640" height="480"  fill="#ffffff" />
<defs>
<g id="dot">
<line x1="1" y1="1" x2="0" y2="0"  />
</g>
<g id="cross">
<line x1="-3" y1="0" x2="3" y2="0"  />
<line x1="0" y1="-3" x2="0" y2="3"  />
</g>
<g id="square">
<line x1="-3" y1="-3" x2="-3" y2="3"  />
<line x1="-3" y1="3" x2="3" y2="3"  />
<line x1="3" y1="3" x2="3" y2="-3"  />
<line x1="3" y1="-3" x2="-3" y2="-3"  />
</g>
<g id="round">
<ellipse cx="0" cy="0" rx="3" ry="3"  fill="none" /></g>
<g id="triangle">
<line x1="0" y1="-3" x2="-3" y2="3"  />
<line x1="-3" y1="3" x2="3" y2="3"  />
<line x1="0" y1="-3" x2="3" y2="3"  />
</g>
</defs>
<polygon fill="none" stroke="#000000" points="66.0317,430.476 66.0317,49.5238 573.968,49.5238 573.968,430.476 " />
<text style="font-size:12;text-align:center;text-anchor:middle;" x="320" y="473.619" fill="#000000">Entrance ray height (normalized)</text>
<line x1="66.0317" y1="305.218" x2="573.968" y2="305.218"  stroke="#000000" />
<use x="66.0317" y="305.218" xlink:href="#cross"  stroke="#000000" />
<use x="66.0317" y="49.5238" xlink:href="#cross"  stroke="#000000" />
<use x="66.0317" y="430.476" xlink:href="#cross"  stroke="#000000" />
<text style="font-size:12;text-align:center;text-anchor:middle;" x="66.0317" y="448.476" fill="#000000">-1</text>
<use x="320" y="305.218" xlink:href="#cross"  stroke="#000000" />
<use x="320" y="49.5238" xlink:href="#cross"  stroke="#000000" />
<use x="320" y="430.476" xlink:href="#cross"  stroke="#000000" />
<text style="font-size:12;text-align:center;text-anchor:middle;" x="320" y="448.476" fill="#000000">0</text>
<use x="573.968" y="305.218" xlink:href="#cross"  stroke="#000000" />
<use x="573.968" y="49.5238" xlink:href="#cross"  stroke="#000000" />
<use x="573.968" y="430.476" xlink:href="#cross"  stroke="#000000" />
<text style="font-size:12;text-align:center;text-anchor:middle;" x="573.968" y="448.476" fill="#000000">1</text>
<text style="font-size:12;text-align:center;text-anchor:middle;" x="16.5079" y="246" transform="rotate(-90,16.5079,240)" fill="#000000">Optical path difference (waves)</text>
<line x1="320" y1="430.476" x2="320" y2="49.5238"  stroke="#000000" />
<use x="320" y="379.629" xlink:href="#cross"  stroke="#000000" />
<use x="573.968" y="379.629" xlink:href="#cross"  stroke="#000000" />
<use x="66.0317" y="379.629" xlink:href="#cross"  stroke="#000000" />
<text style="font-size:12;text-align:right;text-anchor:end;" x="60.0317" y="385.629" fill="#000000">-2</text>
<use x="320" y="305.218" xlink:href="#cross"  stroke="#000000" />
<use x="573.968" y="305.218" xlink:href="#cross"  stroke="#000000" />
<use x="66.0317" y="305.218" xlink:href="#cross"  stroke="#000000" />
<text style="font-size:12;text-align:right;text-anchor:end;" x="60.0317" y="311.218" fill="#000000">0</text>
<use x="320" y="230.807" xlink:href="#cross"  stroke="#000000" />
<use x="573.968" y="230.807" xlink:href="#cross"  stroke="#000000" />
<use x="66.0317" y="230.807" xlink:href="#cross"  stroke="#000000" />
<text style="font-size:12;text-align:right;text-anchor:end;" x="60.0317" y="236.807" fill="#000000">2</text>
<use x="320" y="156.396" xlink:href="#cross"  stroke="#000000" />
<use x="573.968" y="156.396" xlink:href="#cross"  stroke="#000000" />
<use x="66.0317" y="156.396" xlink:href="#cross"  stroke="#000000" />
<text style="font-size:12;text-align:right;text-anchor:end;" x="60.0317" y="162.396" fill="#000000">4</text>
<use x="320" y="81.9845" xlink:href="#cross"  stroke="#000000" />
<use x="573.968" y="81.9845" xlink:href="#cross"  stroke="#000000" />
<use x="66.0317" y="81.9845" xlink:href="#cross"  stroke="#000000" />
<text style="font-size:12;text-align:right;text-anchor:end;" x="60.0317" y="87.9845" fill="#000000">6</text>
<text style="font-size:18;text-align:center;text-anchor:middle;" x="320" y="33.7619" fill="#000000">Optical path difference fan (tangential)</text>
<path fill="none"  stroke="#00ebff" d="M66.2857,159.264 S77.5619,61.7063 83.2,49.5238 S94.4762,70.6066 100.114,86.1687 S111.39,123.451 117.029,142.896 S128.305,184.847 133.943,202.839 S145.219,238.007 150.857,250.85 S162.133,272.958 167.771,279.898 S179.048,289.882 184.686,292.492 S195.962,295.059 201.6,295.559 S212.876,295.435 218.514,295.492 S229.79,295.531 235.429,295.903 S246.705,296.978 252.343,297.722 S263.619,299.507 269.257,300.369 S280.533,302.188 286.171,302.897 S297.448,304.231 303.086,304.618 S314.362,305.218 320,305.218 S331.276,305.005 336.914,304.618 S348.19,303.605 353.829,302.897 S365.105,301.232 370.743,300.369 S382.019,298.467 387.657,297.722 S398.933,296.274 404.571,295.903 S415.848,295.549 421.486,295.492 S432.762,296.059 438.4,295.559 S449.676,295.102 455.314,292.492 S466.59,286.838 472.229,279.898 S483.505,263.693 489.143,250.85 S500.419,220.831 506.057,202.839 S517.333,162.341 522.971,142.896 S534.248,101.731 539.886,86.1687 S551.162,37.3413 556.8,49.5238 S570.895,140.974 573.714,159.264 " />
<path fill="none"  stroke="#ffe100" d="M83.2,234.424 S94.4762,213.702 100.114,213.492 S111.39,224.195 117.029,233.162 S128.305,256.575 133.943,267.293 S145.219,289.549 150.857,297.474 S162.133,311.109 167.771,314.844 S179.048,319.432 184.686,319.886 S195.962,318.73 201.6,317.57 S212.876,314.359 218.514,312.925 S229.79,310.016 235.429,308.966 S246.705,307.183 252.343,306.623 S263.619,305.826 269.257,305.603 S280.533,305.351 286.171,305.287 S297.448,305.236 303.086,305.224 S314.362,305.218 320,305.218 S331.276,305.213 336.914,305.224 S348.19,305.224 353.829,305.287 S365.105,305.38 370.743,305.603 S382.019,306.062 387.657,306.623 S398.933,307.916 404.571,308.966 S415.848,311.491 421.486,312.925 S432.762,316.41 438.4,317.57 S449.676,320.34 455.314,319.886 S466.59,318.58 472.229,314.844 S483.505,305.399 489.143,297.474 S500.419,278.012 506.057,267.293 S517.333,242.128 522.971,233.162 S534.248,213.281 539.886,213.492 S553.981,230.935 556.8,234.424 " />
<path fill="none"  stroke="#ff0000" d="M83.2,430.476 S94.4762,377.369 100.114,363.694 S111.39,349.863 117.029,348.427 S128.305,352.497 133.943,355.074 S145.219,362.223 150.857,363.885 S162.133,366.05 167.771,365.044 S179.048,361.01 184.686,357.846 S195.962,350.067 201.6,346.058 S212.876,337.544 218.514,333.79 S229.79,326.494 235.429,323.53 S246.705,318.111 252.343,316.007 S263.619,312.3 269.257,310.907 S280.533,308.499 286.171,307.65 S297.448,306.221 303.086,305.815 S314.362,305.218 320,305.218 S331.276,305.41 336.914,305.815 S348.19,306.801 353.829,307.65 S365.105,309.514 370.743,310.907 S382.019,313.903 387.657,316.007 S398.933,320.567 404.571,323.53 S415.848,330.035 421.486,333.79 S432.762,342.048 438.4,346.058 S449.676,354.682 455.314,357.846 S466.59,364.038 472.229,365.044 S483.505,365.546 489.143,363.885 S500.419,357.65 506.057,355.074 S517.333,346.99 522.971,348.427 S534.248,350.019 539.886,363.694 S553.981,419.346 556.8,430.476 " />
</svg>
