<?xml version="1.0" standalone="no"?>
<svg width="640px" height="480px" version="1.1" xmlns="http://www.w3.org/2000/svg" xmlns:xlink="http://www.w3.org/1999/xlink">
<rect x="0" y="0" width="640" height="480"  fill="#ffffff" />
<defs>
<g id="dot">
<line x1="1" y1="1" x2="0" y2="0"  />
</g>
<g id="cross">
<line x1="-3" y1="0" x2="3" y2="0"  />
<line x1="0" y1="-3" x2="0" y2="3"  />
</g>
<g id="square">
<line x1="-3" y1="-3" x2="-3" y2="3"  />
<line x1="-3" y1="3" x2="3" y2="3"  />
<line x1="3" y1="3" x2="3" y2="-3"  />
<line x1="3" y1="-3" x2="-3" y2="-3"  />
</g>
<g id="round">
<ellipse cx="0" cy="0" rx="3" ry="3"  fill="none" /></g>
<g id="triangle">
<line x1="0" y1="-3" x2="-3" y2="3"  />
<line x1="-3" y1="3" x2="3" y2="3"  />
<line x1="0" y1="-3" x2="3" y2="3"  />
</g>
</defs>
<polygon fill="none" stroke="#000000" points="66.0317,430.476 66.0317,49.5238 573.968,49.5238 573.968,430.476 " />
<text style="font-size:12;text-align:center;text-anchor:middle;" x="320" y="473.619" fill="#000000">Entrance ray height (normalized)</text>
<line x1="66.0317" y1="252.583" x2="573.968" y2="252.583"  stroke="#000000" />
<use x="66.0317" y="252.583" xlink:href="#cross"  stroke="#000000" />
<use x="66.0317" y="49.5238" xlink:href="#cross"  stroke="#000000" />
<use x="66.0317" y="430.476" xlink:href="#cross"  stroke="#000000" />
<text style="font-size:12;text-align:center;text-anchor:middle;" x="66.0317" y="448.476" fill="#000000">-1</text>
<use x="320" y="252.583" xlink:href="#cross"  stroke="#000000" />
<use x="320" y="49.5238" xlink:href="#cross"  stroke="#000000" />
<use x="320" y="430.476" xlink:href="#cross"  stroke="#000000" />
<text style="font-size:12;text-align:center;text-anchor:middle;" x="320" y="448.476" fill="#000000">0</text>
<use x="573.968" y="252.583" xlink:href="#cross"  stroke="#000000" />
<use x="573.968" y="49.5238" xlink:href="#cross"  stroke="#000000" />
<use x="573.968" y="430.476" xlink:href="#cross"  stroke="#000000" />
<text style="font-size:12;text-align:center;text-anchor:middle;" x="573.968" y="448.476" fill="#000000">1</text>
<text style="font-size:12;text-align:center;text-anchor:middle;" x="16.5079" y="246" transform="rotate(-90,16.5079,240)" fill="#000000">Longitudinal ray aberration (um)</text>
<line x1="320" y1="430.476" x2="320" y2="49.5238"  stroke="#000000" />
<use x="320" y="418.122" xlink:href="#cross"  stroke="#000000" />
<use x="573.968" y="418.122" xlink:href="#cross"  stroke="#000000" />
<use x="66.0317" y="418.122" xlink:href="#cross"  stroke="#000000" />
<text style="font-size:12;text-align:right;text-anchor:end;" x="60.0317" y="424.122" fill="#000000">-30</text>
<use x="320" y="362.942" xlink:href="#cross"  stroke="#000000" />
<use x="573.968" y="362.942" xlink:href="#cross"  stroke="#000000" />
<use x="66.0317" y="362.942" xlink:href="#cross"  stroke="#000000" />
<text style="font-size:12;text-align:right;text-anchor:end;" x="60.0317" y="368.942" fill="#000000">-20</text>
<use x="320" y="307.763" xlink:href="#cross"  stroke="#000000" />
<use x="573.968" y="307.763" xlink:href="#cross"  stroke="#000000" />
<use x="66.0317" y="307.763" xlink:href="#cross"  stroke="#000000" />
<text style="font-size:12;text-align:right;text-anchor:end;" x="60.0317" y="313.763" fill="#000000">-10</text>
<use x="320" y="252.583" xlink:href="#cross"  stroke="#000000" />
<use x="573.968" y="252.583" xlink:href="#cross"  stroke="#000000" />
<use x="66.0317" y="252.583" xlink:href="#cross"  stroke="#000000" />
<text style="font-size:12;text-align:right;text-anchor:end;" x="60.0317" y="258.583" fill="#000000">0</text>
<use x="320" y="197.403" xlink:href="#cross"  stroke="#000000" />
<use x="573.968" y="197.403" xlink:href="#cross"  stroke="#000000" />
<use x="66.0317" y="197.403" xlink:href="#cross"  stroke="#000000" />
<text style="font-size:12;text-align:right;text-anchor:end;" x="60.0317" y="203.403" fill="#000000">10</text>
<use x="320" y="142.223" xlink:href="#cross"  stroke="#000000" />
<use x="573.968" y="142.223" xlink:href="#cross"  stroke="#000000" />
<use x="66.0317" y="142.223" xlink:href="#cross"  stroke="#000000" />
<text style="font-size:12;text-align:right;text-anchor:end;" x="60.0317" y="148.223" fill="#000000">20</text>
<use x="320" y="87.043" xlink:href="#cross"  stroke="#000000" />
<use x="573.968" y="87.043" xlink:href="#cross"  stroke="#000000" />
<use x="66.0317" y="87.043" xlink:href="#cross"  stroke="#000000" />
<text style="font-size:12;text-align:right;text-anchor:end;" x="60.0317" y="93.043" fill="#000000">30</text>
<text style="font-size:18;text-align:center;text-anchor:middle;" x="320" y="33.7619" fill="#000000">Longitudinal ray aberration fan (tangential)</text>
<path fill="none"  stroke="#00ebff" d="M66.2857,370.782 S77.5619,421.213 83.2,430.476 S94.4762,430.362 100.114,426.361 S111.39,414.824 117.029,406.47 S128.305,386.428 133.943,376.233 S145.219,354.137 150.857,345.298 S162.133,328.343 167.771,323.197 S179.048,315.294 184.686,314.422 S195.962,315.466 201.6,317.965 S212.876,325.15 218.514,329.417 S229.79,339.08 235.429,343.568 S246.705,352.662 252.343,356.341 S263.619,363.162 269.257,365.639 S280.533,369.834 286.171,371.205 S294.629,373.425 303.086,373.869 S328.457,374.313 336.914,373.869 S348.19,372.577 353.829,371.205 S365.105,368.117 370.743,365.639 S382.019,360.019 387.657,356.341 S398.933,348.055 404.571,343.568 S415.848,333.684 421.486,329.417 S432.762,320.465 438.4,317.965 S449.676,313.55 455.314,314.422 S466.59,318.051 472.229,323.197 S483.505,336.458 489.143,345.298 S500.419,366.037 506.057,376.233 S517.333,398.115 522.971,406.47 S534.248,422.36 539.886,426.361 S551.162,439.739 556.8,430.476 S570.895,380.731 573.714,370.782 " />
<path fill="none"  stroke="#ffe100" d="M83.2,297.778 S94.4762,313.885 100.114,315.221 S111.39,311.732 117.029,305.793 S128.305,289.095 133.943,279.586 S145.219,257.951 150.857,248.74 S162.133,230.461 167.771,224.32 S179.048,214.071 184.686,211.891 S195.962,210.134 201.6,211.242 S212.876,215.587 218.514,218.54 S229.79,225.608 235.429,228.958 S246.705,235.87 252.343,238.638 S263.619,243.759 269.257,245.568 S280.533,248.553 286.171,249.492 S294.629,250.914 303.086,251.198 S328.457,251.483 336.914,251.198 S348.19,250.43 353.829,249.492 S365.105,247.377 370.743,245.568 S382.019,241.406 387.657,238.638 S398.933,232.308 404.571,228.958 S415.848,221.492 421.486,218.54 S432.762,212.35 438.4,211.242 S449.676,209.711 455.314,211.891 S466.59,218.178 472.229,224.32 S483.505,239.528 489.143,248.74 S500.419,270.077 506.057,279.586 S517.333,299.854 522.971,305.793 S534.248,316.557 539.886,315.221 S553.981,300.685 556.8,297.778 " />
<path fill="none"  stroke="#ff0000" d="M83.2,93.0515 S94.4762,121.495 100.114,127.429 S111.39,131.692 117.029,128.657 S128.305,116.9 133.943,109.22 S145.219,90.6746 150.857,82.5765 S162.133,66.1374 167.771,60.6313 S179.048,51.3913 184.686,49.54 S195.962,48.2704 201.6,49.5238 S212.876,54.0588 218.514,57.0603 S229.79,64.1752 235.429,67.5327 S246.705,74.4396 252.343,77.205 S263.619,82.3173 269.257,84.1251 S280.533,87.1114 286.171,88.052 S294.629,89.4826 303.086,89.7687 S328.457,90.0549 336.914,89.7687 S348.19,88.9926 353.829,88.052 S365.105,85.933 370.743,84.1251 S382.019,79.9704 387.657,77.205 S398.933,70.8901 404.571,67.5327 S415.848,60.0618 421.486,57.0603 S432.762,50.7772 438.4,49.5238 S449.676,47.6888 455.314,49.54 S466.59,55.1252 472.229,60.6313 S483.505,74.4783 489.143,82.5765 S500.419,101.54 506.057,109.22 S517.333,125.622 522.971,128.657 S534.248,133.363 539.886,127.429 S553.981,98.7811 556.8,93.0515 " />
</svg>
