<?xml version="1.0" standalone="no"?>
<svg width="640px" height="480px" version="1.1" xmlns="http://www.w3.org/2000/svg" xmlns:xlink="http://www.w3.org/1999/xlink">
<rect x="0" y="0" width="640" height="480"  fill="#ffffff" />
<defs>
<g id="dot">
<line x1="1" y1="1" x2="0" y2="0"  />
</g>
<g id="cross">
<line x1="-3" y1="0" x2="3" y2="0"  />
<line x1="0" y1="-3" x2="0" y2="3"  />
</g>
<g id="square">
<line x1="-3" y1="-3" x2="-3" y2="3"  />
<line x1="-3" y1="3" x2="3" y2="3"  />
<line x1="3" y1="3" x2="3" y2="-3"  />
<line x1="3" y1="-3" x2="-3" y2="-3"  />
</g>
<g id="round">
<ellipse cx="0" cy="0" rx="3" ry="3"  fill="none" /></g>
<g id="triangle">
<line x1="0" y1="-3" x2="-3" y2="3"  />
<line x1="-3" y1="3" x2="3" y2="3"  />
<line x1="0" y1="-3" x2="3" y2="3"  />
</g>
</defs>
<polygon fill="none" stroke="#000000" points="66.0317,430.476 66.0317,49.5238 573.968,49.5238 573.968,430.476 " />
<text style="font-size:12;text-align:center;text-anchor:middle;" x="320" y="473.619" fill="#000000">Entrance ray height (normalized)</text>
<line x1="66.0317" y1="240" x2="573.968" y2="240"  stroke="#000000" />
<use x="66.0317" y="240" xlink:href="#cross"  stroke="#000000" />
<use x="66.0317" y="49.5238" xlink:href="#cross"  stroke="#000000" />
<use x="66.0317" y="430.476" xlink:href="#cross"  stroke="#000000" />
<text style="font-size:12;text-align:center;text-anchor:middle;" x="66.0317" y="448.476" fill="#000000">-1</text>
<use x="320" y="240" xlink:href="#cross"  stroke="#000000" />
<use x="320" y="49.5238" xlink:href="#cross"  stroke="#000000" />
<use x="320" y="430.476" xlink:href="#cross"  stroke="#000000" />
<text style="font-size:12;text-align:center;text-anchor:middle;" x="320" y="448.476" fill="#000000">0</text>
<use x="573.968" y="240" xlink:href="#cross"  stroke="#000000" />
<use x="573.968" y="49.5238" xlink:href="#cross"  stroke="#000000" />
<use x="573.968" y="430.476" xlink:href="#cross"  stroke="#000000" />
<text style="font-size:12;text-align:center;text-anchor:middle;" x="573.968" y="448.476" fill="#000000">1</text>
<text style="font-size:12;text-align:center;text-anchor:middle;" x="16.5079" y="246" transform="rotate(-90,16.5079,240)" fill="#000000">Transverse ray aberration (um)</text>
<line x1="320" y1="430.476" x2="320" y2="49.5238"  stroke="#000000" />
<use x="320" y="386.558" xlink:href="#cross"  stroke="#000000" />
<use x="573.968" y="386.558" xlink:href="#cross"  stroke="#000000" />
<use x="66.0317" y="386.558" xlink:href="#cross"  stroke="#000000" />
<text style="font-size:12;text-align:right;text-anchor:end;" x="60.0317" y="392.558" fill="#000000">-10</text>
<use x="320" y="313.279" xlink:href="#cross"  stroke="#000000" />
<use x="573.968" y="313.279" xlink:href="#cross"  stroke="#000000" />
<use x="66.0317" y="313.279" xlink:href="#cross"  stroke="#000000" />
<text style="font-size:12;text-align:right;text-anchor:end;" x="60.0317" y="319.279" fill="#000000">-5</text>
<use x="320" y="240" xlink:href="#cross"  stroke="#000000" />
<use x="573.968" y="240" xlink:href="#cross"  stroke="#000000" />
<use x="66.0317" y="240" xlink:href="#cross"  stroke="#000000" />
<text style="font-size:12;text-align:right;text-anchor:end;" x="60.0317" y="246" fill="#000000">0</text>
<use x="320" y="166.721" xlink:href="#cross"  stroke="#000000" />
<use x="573.968" y="166.721" xlink:href="#cross"  stroke="#000000" />
<use x="66.0317" y="166.721" xlink:href="#cross"  stroke="#000000" />
<text style="font-size:12;text-align:right;text-anchor:end;" x="60.0317" y="172.721" fill="#000000">5</text>
<use x="320" y="93.4415" xlink:href="#cross"  stroke="#000000" />
<use x="573.968" y="93.4415" xlink:href="#cross"  stroke="#000000" />
<use x="66.0317" y="93.4415" xlink:href="#cross"  stroke="#000000" />
<text style="font-size:12;text-align:right;text-anchor:end;" x="60.0317" y="99.4415" fill="#000000">10</text>
<text style="font-size:18;text-align:center;text-anchor:middle;" x="320" y="33.7619" fill="#000000">Transverse ray aberration fan (tangential)</text>
<path fill="none"  stroke="#00ebff" d="M66.2857,102.788 S77.5619,55.1384 83.2,49.5238 S94.4762,60.4071 100.114,69.1009 S111.39,90.0294 117.029,101.686 S128.305,127.367 133.943,139.043 S145.219,162.659 150.857,171.744 S162.133,188.165 167.771,193.554 S179.048,201.844 184.686,204.076 S195.962,206.485 201.6,206.949 S212.876,206.785 218.514,206.865 S229.79,206.843 235.429,207.428 S246.705,208.972 252.343,210.375 S263.619,213.72 269.257,215.847 S280.533,220.543 286.171,223.133 S297.448,228.574 303.086,231.385 S314.362,237.128 320,240 S331.276,245.804 336.914,248.615 S348.19,254.278 353.829,256.867 S365.105,262.027 370.743,264.153 S382.019,268.222 387.657,269.625 S398.933,271.987 404.571,272.572 S415.848,273.056 421.486,273.135 S432.762,272.586 438.4,273.051 S449.676,273.691 455.314,275.924 S466.59,281.058 472.229,286.446 S483.505,299.171 489.143,308.256 S500.419,329.281 506.057,340.957 S517.333,366.656 522.971,378.314 S534.248,402.205 539.886,410.899 S551.162,436.091 556.8,430.476 S570.895,386.089 573.714,377.212 " />
<path fill="none"  stroke="#ffe100" d="M83.2,191.645 S94.4762,178.348 100.114,178.441 S111.39,185.617 117.029,192.205 S128.305,209.528 133.943,217.965 S145.219,236.059 150.857,242.828 S162.133,255.113 167.771,258.579 S179.048,263.241 184.686,263.625 S195.962,262.377 201.6,260.885 S212.876,256.745 218.514,254.673 S229.79,250.235 235.429,248.453 S246.705,245.138 252.343,243.979 S263.619,242.088 269.257,241.498 S280.533,240.673 286.171,240.439 S297.448,240.171 303.086,240.098 S314.362,240.033 320,240 S331.276,239.975 336.914,239.902 S348.19,239.794 353.829,239.561 S365.105,239.092 370.743,238.502 S382.019,237.18 387.657,236.021 S398.933,233.33 404.571,231.547 S415.848,227.399 421.486,225.327 S432.762,220.607 438.4,219.115 S449.676,215.991 455.314,216.375 S466.59,217.954 472.229,221.421 S483.505,230.403 489.143,237.172 S500.419,253.597 506.057,262.035 S517.333,281.208 522.971,287.795 S534.248,301.466 539.886,301.559 S553.981,290.556 556.8,288.355 " />
<path fill="none"  stroke="#ff0000" d="M83.2,410.51 S94.4762,372.764 100.114,362.881 S111.39,352.216 117.029,351.216 S128.305,354.589 133.943,356.883 S145.219,363.451 150.857,364.984 S162.133,367.283 167.771,366.084 S179.048,361.723 184.686,357.794 S195.962,348.106 201.6,342.509 S212.876,330.267 218.514,324.209 S229.79,311.861 235.429,306.16 S246.705,295.044 252.343,290.008 S263.619,280.383 269.257,275.942 S280.533,267.43 286.171,263.365 S297.448,255.443 303.086,251.549 S314.362,243.85 320,240 S331.276,232.345 336.914,228.451 S348.19,220.701 353.829,216.635 S365.105,208.498 370.743,204.058 S382.019,195.028 387.657,189.992 S398.933,179.54 404.571,173.84 S415.848,161.849 421.486,155.791 S432.762,143.088 438.4,137.491 S449.676,126.136 455.314,122.206 S466.59,115.114 472.229,113.916 S483.505,113.483 489.143,115.016 S500.419,120.822 506.057,123.117 S517.333,129.783 522.971,128.784 S534.248,127.001 539.886,117.119 S553.981,77.4278 556.8,69.4897 " />
</svg>
